<svg width="56" height="57" viewBox="0 0 56 57" fill="none" xmlns="http://www.w3.org/2000/svg">
<path d="M25.5325 0.884026C17.7196 1.90961 11.497 7.62524 9.84912 15.2998C9.51494 16.9131 9.42276 19.817 9.67627 21.4995C10.1372 24.6684 11.2319 27.3534 13.0642 29.8309C13.7325 30.7413 15.173 32.2278 16.9821 33.8526C18.2036 34.9588 18.8835 35.8577 19.5288 37.2289C20.1972 38.6579 20.1972 38.6002 19.5519 39.0266C17.7427 40.2135 17.397 42.91 18.8374 44.5118C19.2983 45.0303 20.1741 45.6295 20.4737 45.6295C20.6466 45.6295 20.6696 45.8715 20.7272 48.0149C20.7849 50.6077 20.8771 51.1377 21.4878 52.3707C22.1562 53.7075 23.297 54.8252 24.6683 55.4705C25.763 56.0006 26.5351 56.162 27.8372 56.1504C30.453 56.1389 32.8038 54.6409 33.9446 52.2555C34.5438 50.9879 34.636 50.4463 34.636 47.9457V45.7793L35.3735 45.4106C36.2263 44.9957 36.7333 44.4657 37.1597 43.5553C37.5399 42.7256 37.563 41.4696 37.2058 40.6514C36.9292 40.0291 36.1226 39.1188 35.6386 38.8768C35.2353 38.6579 35.2583 38.508 35.8921 37.1598C36.5605 35.7424 37.5515 34.5209 39.1993 33.1151C43.2556 29.635 45.3644 25.6133 45.8368 20.4278C46.0558 17.9618 45.6985 15.2192 44.8343 12.7877C44.3618 11.4856 43.5437 9.88383 43.1519 9.5266C42.6794 9.08871 42.1147 9.10023 41.6538 9.54965C41.1698 10.0452 41.2044 10.46 41.8843 11.7852C43.705 15.369 44.0968 19.552 42.979 23.4815C42.5987 24.8528 41.3772 27.2612 40.4554 28.4827C40.0405 29.0358 39.1532 29.9922 38.4733 30.6145C36.2839 32.6196 35.3851 33.5645 34.7513 34.4979C34.0829 35.5004 33.5067 36.6758 33.1841 37.7014L32.9767 38.3698H27.7105H22.4558L22.1331 37.4825C21.3265 35.1893 20.0358 33.3686 17.9847 31.6055C16.2677 30.142 15.4726 29.2893 14.5276 27.8834C12.6724 25.1178 11.8196 22.3291 11.8196 19.0219C11.8196 15.6801 12.6724 12.903 14.5622 10.0221C15.3458 8.8352 17.42 6.73793 18.6185 5.91977C22.6517 3.16566 27.6989 2.37055 32.3313 3.75336C32.873 3.91469 33.9677 4.36411 34.7743 4.74438C36.1571 5.38969 36.2724 5.42426 36.6526 5.2975C37.1597 5.13617 37.4017 4.79047 37.4017 4.24887C37.4017 3.61508 37.056 3.2809 35.7538 2.64711C33.1495 1.39106 31.1444 0.918594 28.0677 0.860977C26.8923 0.837933 25.7515 0.849457 25.5325 0.884026ZM34.4978 40.9049C34.8665 41.1354 35.2122 41.7231 35.2122 42.1379C35.2122 42.5182 34.7974 43.1289 34.394 43.3479C34.0368 43.5438 33.5874 43.5553 27.745 43.5553C20.8425 43.5553 20.9001 43.5668 20.4622 42.8409C20.0474 42.1495 20.2317 41.2852 20.9116 40.8704C21.1767 40.6975 21.9026 40.686 27.6644 40.6745C33.9331 40.6745 34.129 40.686 34.4978 40.9049ZM32.4466 46.9547V48.0495H27.722H22.9974V46.9547V45.86H27.722H32.4466V46.9547ZM32.2161 50.4694C32.2161 50.5385 32.0548 50.9073 31.8589 51.2991C31.1905 52.6358 29.946 53.5577 28.4364 53.8342C26.5466 54.1799 24.4378 53.0967 23.5274 51.2991C23.0089 50.2735 22.6517 50.3541 27.722 50.3541C30.7296 50.3541 32.2161 50.3887 32.2161 50.4694Z" fill="black"/>
<path d="M39.2891 5.8621C38.5977 6.16171 38.4479 7.16425 39.0011 7.7289C39.462 8.17831 40.0266 8.18984 40.5221 7.74042C41.2481 7.09511 40.8909 5.94277 39.9229 5.81601C39.7155 5.78144 39.4159 5.80449 39.2891 5.8621Z" fill="black"/>
<path d="M26.9486 6.68038C25.8654 6.89932 24.8744 7.68291 24.3674 8.7085C24.1369 9.19249 24.0908 9.446 24.0908 10.3909V11.5202H22.466C20.9564 11.5202 20.8066 11.5433 20.2535 11.8198C19.9193 11.9812 19.493 12.3038 19.3086 12.5343C18.7209 13.2372 18.6172 13.8364 18.6172 16.2909C18.6172 18.273 18.6402 18.5265 18.8477 18.8606C19.3201 19.6327 20.2189 19.8401 21.0947 19.3677C21.3482 19.2409 21.6709 19.1257 21.8207 19.1257C22.5928 19.1257 23.3418 19.8401 23.3418 20.5661C23.3418 21.2921 22.5928 22.0065 21.8207 22.0065C21.6709 22.0065 21.3482 21.8913 21.0947 21.753C20.2189 21.2806 19.3201 21.488 18.8477 22.2716C18.6402 22.6058 18.6172 22.8593 18.6172 24.8413C18.6172 27.8259 18.8477 28.5058 20.0922 29.2317C20.6107 29.5429 20.7145 29.5544 22.3738 29.589L24.1139 29.6351L24.0562 30.4187C23.9871 31.4327 24.1715 32.1702 24.69 32.9192C25.9115 34.7284 28.5158 35.028 30.1406 33.5646C30.4633 33.2765 30.8666 32.7694 31.0395 32.4468C31.3045 31.9282 31.3391 31.7208 31.3506 30.7413V29.612H32.9062C33.8627 29.6005 34.6232 29.5429 34.8768 29.4507C35.5566 29.2087 36.1098 28.7132 36.4439 28.0218C36.7551 27.3765 36.7666 27.3189 36.8012 25.0603C36.8242 23.0321 36.8127 22.7095 36.6283 22.3638C36.1674 21.488 35.4068 21.2921 34.2545 21.7761C33.6322 22.0411 33.5631 22.0411 33.1021 21.8913C32.2148 21.5802 31.8576 20.6237 32.3301 19.8517C32.7564 19.1372 33.5516 18.9413 34.3236 19.3562C34.9574 19.7019 35.7871 19.6673 36.2365 19.287C36.7781 18.8376 36.8473 18.3997 36.8012 15.8991C36.7666 13.6521 36.7666 13.6521 36.4209 13.0298C35.741 11.8083 35.0842 11.5202 32.9408 11.5202H31.3506V10.4024C31.3506 9.39991 31.316 9.20401 31.0395 8.69698C30.2328 7.16436 28.5734 6.35772 26.9486 6.68038ZM28.4236 9.13487C29.1611 9.63037 29.2994 10.3679 28.8154 11.2667C28.6541 11.5778 28.5273 11.9927 28.5273 12.2577C28.5273 12.7302 28.8615 13.3985 29.1957 13.5483C29.2994 13.606 30.4402 13.6751 31.7078 13.7097C34.6693 13.7788 34.5195 13.6866 34.5195 15.5534V16.8901H33.5746C32.4338 16.8901 31.6271 17.2128 30.9012 17.9273C30.1752 18.6532 29.8525 19.4714 29.8525 20.5661C29.8641 21.7761 30.1637 22.4905 31.0164 23.2626C31.7885 23.9655 32.526 24.2306 33.6783 24.219L34.5195 24.2075V25.5212C34.5195 27.4456 34.6578 27.3534 31.7309 27.4226C30.1406 27.4571 29.3109 27.5263 29.1381 27.63C28.5043 27.9872 28.343 29.0243 28.8154 29.7849C29.5645 31.0179 28.6311 32.539 27.3635 32.1587C26.3725 31.8591 26.0383 30.7528 26.626 29.7849C26.7873 29.5314 26.9141 29.1511 26.9141 28.9437C26.9141 28.4481 26.6145 27.8028 26.2918 27.6185C26.1305 27.5263 25.2432 27.4571 23.7336 27.4226C20.7721 27.3534 20.9219 27.4456 20.9219 25.5788V24.219L21.7631 24.2306C22.8693 24.2306 23.6529 23.9655 24.3674 23.3202C25.2201 22.5481 25.5889 21.73 25.5889 20.5661C25.5889 19.4023 25.2201 18.5841 24.3674 17.812C23.6414 17.1667 22.8578 16.8901 21.7631 16.9017L20.9219 16.9132V15.5534C20.9219 13.6405 20.8182 13.7097 23.7566 13.7097H25.9922L26.407 13.3294C26.9832 12.7993 27.0754 12.0964 26.6375 11.3589C26.1074 10.4485 26.2687 9.58428 27.0754 9.08877C27.5479 8.80069 27.9512 8.81221 28.4236 9.13487Z" fill="black"/>
<path d="M4.76797 11.474C4.36465 11.6815 4.21484 11.9696 4.21484 12.5112C4.21484 12.9145 4.31855 13.0528 5.34414 14.0783C6.39277 15.127 6.50801 15.2076 6.93437 15.2076C7.49902 15.2076 7.84473 14.9772 8.01758 14.4701C8.20195 13.9055 8.01758 13.5483 7.00352 12.5227C5.78203 11.2781 5.4248 11.1168 4.76797 11.474Z" fill="black"/>
<path d="M49.5585 11.4625C49.1322 11.693 48.0951 12.684 47.6457 13.2948C47.1962 13.894 47.1962 14.424 47.6457 14.8735C47.9107 15.1385 48.0835 15.2076 48.4638 15.2076C48.9248 15.2076 49.0169 15.1385 49.9273 14.2512C51.3216 12.8914 51.5175 12.419 50.9183 11.7506C50.5265 11.3242 50.0195 11.2205 49.5585 11.4625Z" fill="black"/>
<path d="M0.375851 18.0885C-0.188797 18.5379 -0.0966097 19.5981 0.514132 19.9323C0.652414 20.0014 1.98913 20.0475 4.00573 20.0475C7.62409 20.0475 7.69323 20.036 7.87761 19.3215C8.00437 18.8606 7.86609 18.319 7.54343 18.0539C7.32448 17.8811 6.96726 17.858 3.98269 17.858C0.825265 17.858 0.663937 17.8696 0.375851 18.0885Z" fill="black"/>
<path d="M47.7246 18.2153C47.3098 18.7108 47.3213 19.2639 47.7592 19.7133L48.0933 20.0475H51.4351H54.7654L55.0766 19.7479C55.5029 19.3215 55.5029 18.584 55.0766 18.1576L54.7654 17.858H51.4006H48.0242L47.7246 18.2153Z" fill="black"/>
<path d="M5.35566 23.8157C4.29551 24.8412 4.21484 24.968 4.21484 25.3828C4.21484 25.9475 4.36465 26.2241 4.80254 26.4545C5.39023 26.7541 5.78203 26.5813 6.88828 25.4866C8.04063 24.3688 8.23652 23.977 7.97148 23.3547C7.77559 22.8707 7.49902 22.6979 6.91133 22.6979C6.53105 22.6979 6.36973 22.8131 5.35566 23.8157Z" fill="black"/>
<path d="M47.6467 23.0321C47.3932 23.2856 47.3125 23.4815 47.3125 23.8041C47.3125 24.1959 47.4162 24.3342 48.4533 25.3944C49.548 26.4891 49.6287 26.5582 50.0781 26.5582C50.4814 26.5582 50.6197 26.4891 50.8963 26.178C51.5186 25.4865 51.3342 25.0256 49.9283 23.6428C49.018 22.767 48.9258 22.6979 48.4648 22.6979C48.0846 22.6979 47.9117 22.767 47.6467 23.0321Z" fill="black"/>
</svg>
