<svg width="57" height="55" viewBox="0 0 57 55" fill="none" xmlns="http://www.w3.org/2000/svg">
<path d="M28.994 0.938496C27.3 1.24963 25.4909 2.01018 23.9237 3.09338C22.9672 3.75022 21.3655 5.37502 20.7663 6.29689C20.4551 6.76936 19.4987 8.57853 19.4526 8.79748C19.4411 8.809 19.1069 8.71682 18.7036 8.57853C17.701 8.25588 15.4309 8.22131 14.3247 8.52092C12.7114 8.94728 11.0174 10.0305 9.96879 11.2865C8.81645 12.6694 8.24028 14.1789 8.11352 16.0803L8.04438 17.2672L7.23774 17.4746C4.12641 18.2697 1.82172 20.586 1.01508 23.7549C0.738522 24.8035 0.738522 26.7971 0.992037 27.8688C1.62583 30.45 3.43501 32.6279 5.8434 33.7227C7.09946 34.2988 7.84848 34.4256 10.2684 34.4947L12.4809 34.5639V39.035V43.5176H10.2108H7.92915L7.72172 43.0106C7.41059 42.2615 6.79985 41.6162 6.05083 41.259C5.152 40.8211 3.83833 40.7981 2.97407 41.2129C1.33774 42.008 0.554147 43.9209 1.15337 45.661C1.4184 46.433 2.42094 47.4356 3.19301 47.7006C3.90747 47.9426 5.02524 47.9541 5.71665 47.7121C6.4311 47.4701 7.29536 46.675 7.64106 45.949L7.9061 45.3613H10.8331H13.76L14.0366 45.0733C14.3016 44.8197 14.3247 44.7045 14.3247 43.7481V42.711H17.9545H21.5844V45.0041V47.2973L21.1811 47.4356C20.5588 47.643 19.5793 48.5994 19.2797 49.3024C18.8764 50.2358 18.9225 51.3766 19.3834 52.333C19.9827 53.5545 20.9045 54.1307 22.368 54.2113C23.2553 54.2574 23.3706 54.2344 24.062 53.9002C24.9032 53.4854 25.295 53.0705 25.7213 52.1602C26.5049 50.4662 25.7213 48.3574 24.0159 47.5508L23.4282 47.2858V44.3588V41.4319L23.1401 41.1553L22.8635 40.8672H18.5883H14.3247V37.6983V34.5293H18.2311H22.126L22.2067 35.3244C22.6907 40.6252 26.5625 45.4766 31.8172 47.3664C34.8364 48.4496 38.6276 48.4496 41.6582 47.3664C46.6018 45.6033 50.2432 41.2821 51.1536 36.1541C51.2457 35.6125 51.3264 34.5293 51.3264 33.7572C51.3379 32.3629 51.3379 32.3514 51.6491 32.1555C52.2483 31.7637 53.7348 30.2195 54.2534 29.4475C57.0536 25.2645 56.8461 19.7217 53.7348 15.8037C51.6606 13.211 48.7221 11.7014 45.3112 11.517L43.986 11.4479L43.8016 10.5606C42.8221 5.83596 38.5815 1.79123 33.7186 0.938496C32.5317 0.731075 30.1348 0.731075 28.994 0.938496ZM34.145 3.02424C38.3971 4.09592 41.5661 7.56447 42.292 11.9319C42.5455 13.499 42.4649 13.4529 44.758 13.4875C46.3022 13.5106 46.7977 13.5682 47.4891 13.7756C50.1856 14.5707 52.3635 16.4145 53.562 18.9035C54.1727 20.1711 54.4262 21.116 54.5069 22.4182C54.6567 24.8381 53.5043 27.7651 51.6491 29.6895L51.0498 30.3233L50.7157 29.3092C49.2983 24.8957 46.0372 21.4387 41.808 19.86C38.9041 18.7653 35.2397 18.6731 32.3127 19.618C27.2655 21.2543 23.4512 25.518 22.3911 30.7151C22.2643 31.3488 22.1606 32.0403 22.1606 32.2707V32.6856H15.6844C11.7088 32.6856 8.90864 32.6395 8.4477 32.5588C5.09438 32.0172 2.63989 29.1709 2.65141 25.8291C2.65141 23.9854 3.34282 22.3375 4.65649 21.0469C5.75122 19.9522 7.61801 19.0879 8.88559 19.0879C9.28891 19.0879 9.71528 18.9151 9.85356 18.6961C9.89965 18.627 9.94575 17.9471 9.94575 17.1865C9.94575 14.9049 10.4182 13.6604 11.8471 12.2199C13.7831 10.2494 16.5948 9.69631 18.934 10.8026C20.1901 11.3903 20.6971 11.2289 21.0659 10.0881C22.1606 6.75783 24.9262 4.11897 28.3487 3.12795C30.3192 2.55178 32.1399 2.51721 34.145 3.02424ZM39.6762 21.1391C43.525 22.1647 46.4981 24.5615 48.2036 28.0186C49.0563 29.7471 49.3674 30.9916 49.4366 33.0889C49.5057 35.0594 49.3559 36.1656 48.7682 37.8481C47.6159 41.1207 45.0807 43.8518 41.8657 45.2576C38.593 46.6981 34.9631 46.6981 31.6213 45.2576C30.1579 44.6354 29.0631 43.8633 27.7379 42.5496C26.1362 40.9363 25.1797 39.3922 24.5459 37.3526C23.8891 35.2438 23.8315 32.3629 24.4077 30.2656C25.7098 25.4949 29.6163 21.9112 34.5137 20.9778C35.7352 20.7473 38.5354 20.8395 39.6762 21.1391ZM5.52075 43.1143C6.52329 43.7711 6.47719 45.2922 5.42856 45.9375C4.24165 46.6635 2.66294 45.4535 3.03169 44.0938C3.14692 43.6444 3.60786 43.1373 4.06879 42.9529C4.44907 42.7916 5.152 42.8723 5.52075 43.1143ZM23.2784 49.2793C24.8571 49.9938 24.3155 52.3906 22.5754 52.3906C21.6305 52.3906 20.7778 51.3881 20.9391 50.4778C21.0774 49.7748 21.8956 49.0604 22.5639 49.0604C22.6907 49.0604 23.0133 49.1526 23.2784 49.2793Z" fill="black"/>
<path d="M29.0994 5.25984C26.8984 5.83601 25.0431 7.31101 24.0176 9.29305C23.4414 10.3878 23.4068 10.8948 23.8447 11.2405C24.1789 11.5055 24.5822 11.5516 24.9279 11.3673C25.0547 11.2981 25.3428 10.8718 25.5847 10.4108C25.8613 9.88074 26.2992 9.28152 26.8408 8.75144C28.0508 7.51844 29.0648 7.08054 31.2773 6.81551C31.9572 6.73484 32.1762 6.56199 32.2568 6.06648C32.3029 5.75535 32.2683 5.5825 32.0724 5.34051C31.842 5.0409 31.7728 5.02937 30.8855 5.0409C30.3439 5.0409 29.5834 5.13308 29.0994 5.25984Z" fill="black"/>
<path d="M6.03679 25.9559C5.73718 26.3361 5.72565 26.8201 6.01374 27.1658C6.17507 27.3732 6.34792 27.4424 6.71667 27.4424C7.30437 27.4424 7.63855 27.0967 7.63855 26.509C7.63855 25.9674 7.30437 25.6562 6.72819 25.6562C6.37097 25.6562 6.22116 25.7254 6.03679 25.9559Z" fill="black"/>
<path d="M10.4077 25.8867C10.0505 26.2439 10.0966 26.9584 10.4769 27.258C10.9032 27.5921 11.2835 27.5576 11.6984 27.1543C11.9864 26.8546 12.0325 26.7394 11.9749 26.4398C11.9404 26.2324 11.8136 25.9789 11.7099 25.8636C11.4448 25.5755 10.7073 25.5871 10.4077 25.8867Z" fill="black"/>
<path d="M14.7976 25.8522C14.6709 25.9674 14.5211 26.221 14.4865 26.4284C14.4289 26.7395 14.475 26.8547 14.7631 27.1544C15.1894 27.5807 15.6158 27.6038 15.9961 27.212C16.3648 26.8547 16.3879 26.221 16.0537 25.8868C15.7656 25.5987 15.1318 25.5872 14.7976 25.8522Z" fill="black"/>
<path d="M35.5043 23.2363C34.7207 23.4322 33.7182 24.0199 33.1189 24.6307C32.1164 25.6563 31.6094 27.0275 31.6094 28.7906V29.459H31.1139C30.457 29.459 29.8809 29.7932 29.5697 30.3348C29.3047 30.7842 29.3047 30.8188 29.3047 35.9006C29.3047 40.7865 29.3162 41.0516 29.5352 41.501C29.685 41.8006 29.927 42.0656 30.215 42.227C30.6529 42.4805 30.699 42.4805 36.7373 42.4805C42.718 42.4805 42.8217 42.4805 43.248 42.2385C43.49 42.1002 43.7896 41.8006 43.9279 41.5586C44.1699 41.1322 44.1699 41.0055 44.1699 35.9697C44.1699 31.4525 44.1469 30.7727 43.9855 30.427C43.7205 29.8623 43.2135 29.5396 42.476 29.482L41.8652 29.4359V28.6639C41.8537 26.29 40.8281 24.527 38.8922 23.6051C38.1547 23.2479 37.9127 23.2018 36.9908 23.1672C36.4031 23.1441 35.7348 23.1787 35.5043 23.2363ZM38.1201 25.2875C39.2955 25.8867 39.8947 26.8893 39.9869 28.4334L40.0561 29.459H36.7373H33.4186L33.4877 28.491C33.5684 27.2926 33.868 26.5551 34.5363 25.8982C35.2162 25.2299 35.9652 24.9533 36.9102 24.9994C37.3711 25.034 37.8436 25.1377 38.1201 25.2875ZM42.3262 35.9697V40.6367H36.7373H31.1484V35.9697V31.3027H36.7373H42.3262V35.9697Z" fill="black"/>
<path d="M35.4613 32.6049C34.1131 33.2502 33.5369 34.9211 34.1937 36.3269C34.4703 36.9261 35.1617 37.5945 35.6226 37.7097C35.8531 37.7789 35.8762 37.848 35.8762 38.5164C35.8762 39.1386 35.9107 39.2654 36.1297 39.4152C36.4754 39.6572 37.0631 39.6457 37.3742 39.3922C37.5586 39.2424 37.6392 39.0234 37.6853 38.4933C37.743 37.8365 37.7775 37.7789 38.1463 37.5715C39.967 36.592 40.0246 33.8494 38.25 32.7431C37.4549 32.2591 36.314 32.2015 35.4613 32.6049ZM37.1783 34.1951C37.7775 34.4716 37.8697 35.1976 37.3857 35.6931C36.9478 36.131 36.533 36.131 36.0951 35.6931C35.3 34.8865 36.1412 33.7226 37.1783 34.1951Z" fill="black"/>
</svg>
