<svg width="56" height="53" viewBox="0 0 56 53" fill="none" xmlns="http://www.w3.org/2000/svg">
<path d="M26.9361 0.253515C26.7748 0.40332 24.8273 2.53516 22.5803 5.0127C20.3447 7.47871 18.2936 9.74883 18.017 10.0484C17.6021 10.4979 17.5215 10.6707 17.5215 11.0625C17.5215 11.3736 17.6021 11.6041 17.752 11.7539C17.9709 11.9729 18.1322 11.9844 20.0566 11.9844H22.1309V14.5195C22.1309 16.9049 22.1424 17.0662 22.3613 17.2852C22.5111 17.435 22.7416 17.5156 23.0527 17.5156C23.3639 17.5156 23.5943 17.435 23.7441 17.2852C23.9631 17.0662 23.9746 16.9049 23.9746 13.8973C23.9746 12.1572 23.94 10.6477 23.9055 10.5555C23.7672 10.2098 23.3523 10.083 22.0617 10.0254L20.7711 9.96777L24.182 6.22266C26.0604 4.15996 27.6275 2.47754 27.6621 2.47754C27.6967 2.47754 29.2639 4.15996 31.1422 6.22266L34.5531 9.96777L33.2625 10.0254C31.9719 10.083 31.557 10.2098 31.4187 10.5555C31.3842 10.6477 31.3496 12.1572 31.3496 13.8973C31.3496 16.9049 31.3611 17.0662 31.5801 17.2852C31.7299 17.435 31.9604 17.5156 32.2715 17.5156C32.5826 17.5156 32.8131 17.435 32.9629 17.2852C33.1818 17.0662 33.1934 16.9049 33.1934 14.5195V11.9844H35.2676C37.192 11.9844 37.3533 11.9729 37.5723 11.7539C37.7221 11.6041 37.8027 11.3736 37.8027 11.0625C37.8027 10.6707 37.7221 10.4979 37.3072 10.0484C37.0307 9.74883 34.9795 7.47871 32.7439 5.0127C30.4969 2.53516 28.5494 0.40332 28.3881 0.253515C28.2037 0.0806637 27.9617 0 27.6621 0C27.3625 0 27.1205 0.0806637 26.9361 0.253515Z" fill="#151515"/>
<path d="M10.7 17.5502C10.458 17.6539 1.64262 25.5705 0.328948 26.8727C-0.0628487 27.2414 -0.108942 27.9559 0.213714 28.3246C0.317425 28.4514 2.70278 30.6293 5.50297 33.176C10.435 37.6471 10.6194 37.7969 11.0688 37.7969C11.3799 37.7969 11.6104 37.7162 11.7602 37.5664C11.9791 37.3475 11.9907 37.1861 11.9907 35.2617V33.1875H14.5258C16.9112 33.1875 17.0725 33.176 17.2914 32.957C17.545 32.7035 17.6026 32.0582 17.4067 31.6895C17.1993 31.2977 16.6577 31.2285 13.8344 31.2285C11.0112 31.2285 10.4696 31.2977 10.2622 31.6895C10.193 31.8047 10.1469 32.5307 10.1469 33.3027V34.6971L6.29809 31.2055C4.17778 29.2811 2.44926 27.6793 2.46078 27.6447C2.47231 27.6102 4.20082 26.0199 6.28657 24.1186L10.0893 20.6615L10.1469 22.148C10.193 23.4502 10.2276 23.6576 10.4235 23.8074C10.6079 23.9342 11.2762 23.9688 13.8575 23.9688C16.9112 23.9688 17.0725 23.9572 17.2914 23.7383C17.545 23.4848 17.6026 22.8395 17.4067 22.4707C17.1993 22.0904 16.6461 22.0098 14.2838 22.0098H11.9907V19.9932C11.9907 18.1264 11.9676 17.9535 11.7602 17.7461C11.6334 17.6193 11.4836 17.5156 11.426 17.5156C11.3684 17.5156 11.2532 17.4926 11.161 17.458C11.0803 17.435 10.8729 17.4695 10.7 17.5502Z" fill="#151515"/>
<path d="M26.6823 17.5271C22.4877 17.8613 19.192 20.6039 17.9129 24.8445C17.6364 25.7549 17.6018 26.066 17.5903 27.6562C17.5787 29.742 17.7285 30.4564 18.5006 32.0928C19.3303 33.8674 20.425 35.1004 22.0959 36.1836L22.9371 36.7252L22.2688 36.9902C18.0858 38.7188 14.986 42.51 14.0756 46.9811C13.776 48.4215 13.753 50.2768 14.018 50.9105C14.2485 51.4752 14.8246 52.0629 15.3893 52.3279C15.8272 52.5354 16.4034 52.5469 27.6617 52.5469C38.9201 52.5469 39.4963 52.5354 39.9342 52.3279C40.4989 52.0629 41.075 51.4752 41.3055 50.9105C41.7549 49.8504 41.4092 46.8543 40.6256 44.8031C39.2659 41.2885 36.3965 38.327 33.0432 36.9787L32.3864 36.7137L32.928 36.3795C35.0598 35.0543 36.5809 33.1184 37.3645 30.7676C37.6756 29.7996 37.7217 29.477 37.7793 28.002C37.8369 25.9738 37.618 24.833 36.8229 23.1967C34.9561 19.3594 31.0496 17.1699 26.6823 17.5271ZM29.3903 19.6475C33.2506 20.4541 35.8434 23.7037 35.8434 27.7254C35.8434 29.9264 35.0483 31.8047 33.4235 33.418C31.7871 35.0658 29.9319 35.8379 27.6617 35.8379C25.3916 35.8379 23.5364 35.0658 21.8885 33.418C20.16 31.701 19.3879 29.7305 19.5147 27.3221C19.5838 25.9047 19.7912 25.0404 20.3559 23.8996C21.416 21.7447 23.4326 20.1891 25.8526 19.659C26.8205 19.44 28.3992 19.44 29.3903 19.6475ZM29.3326 38.0504C29.4825 38.1887 29.0791 38.9262 28.6758 39.2143C28.2149 39.56 27.2469 39.6061 26.7629 39.3064C26.3481 39.0414 25.9102 38.4076 25.9563 38.1426C25.9793 38.0158 26.1983 37.9467 26.6823 37.9006C27.5465 37.8199 29.1828 37.9121 29.3326 38.0504ZM24.1932 39.1682C24.4928 39.9979 25.1727 40.7469 25.9909 41.1387C26.4748 41.3807 26.7284 41.4268 27.6617 41.4268C28.5951 41.4268 28.8487 41.3807 29.3326 41.1387C30.1508 40.7469 30.8307 39.9979 31.1303 39.1682C31.2686 38.7994 31.4299 38.4883 31.4875 38.4883C31.7295 38.4883 33.5848 39.4217 34.3338 39.9287C37.3991 41.9914 39.5309 45.8057 39.5309 49.2627C39.5309 50.5533 39.4733 50.5879 37.5143 50.5879H35.9586V49.5393C35.9586 48.9631 35.9125 48.3984 35.8434 48.2832C35.5784 47.7877 34.4951 47.7877 34.2301 48.2832C34.161 48.3984 34.1149 48.9631 34.1149 49.5393V50.5879H27.6617H21.2086V49.5393C21.2086 48.9631 21.1625 48.3984 21.0934 48.2832C20.8284 47.7877 19.7451 47.7877 19.4801 48.2832C19.411 48.3984 19.3649 48.9631 19.3649 49.5393V50.5879H17.8092C15.8502 50.5879 15.7926 50.5533 15.7926 49.2742C15.7926 45.8057 17.9129 41.9914 20.9897 39.9287C21.7617 39.4102 23.5594 38.4998 23.8129 38.4883C23.8821 38.4883 24.0549 38.7994 24.1932 39.1682Z" fill="#151515"/>
<path d="M43.8429 17.5617C43.647 17.6539 43.4511 17.8037 43.405 17.9189C43.3704 18.0227 43.3358 18.9906 43.3358 20.0623V22.0098H41.0427C38.6804 22.0098 38.1273 22.0904 37.9198 22.4707C37.7239 22.8395 37.7815 23.4848 38.0351 23.7383C38.254 23.9572 38.4153 23.9688 41.469 23.9688C44.0503 23.9688 44.7187 23.9342 44.903 23.8074C45.0989 23.6576 45.1335 23.4502 45.1796 22.148L45.2372 20.6615L49.0399 24.1186C51.1372 26.0199 52.8542 27.6102 52.8657 27.6447C52.8773 27.6793 51.1487 29.2811 49.0284 31.2055L45.1796 34.6971V33.3027C45.1796 32.5307 45.1335 31.8047 45.0644 31.6895C44.8569 31.2977 44.3153 31.2285 41.4921 31.2285C38.6689 31.2285 38.1273 31.2977 37.9198 31.6895C37.7239 32.0582 37.7815 32.7035 38.0351 32.957C38.254 33.176 38.4153 33.1875 40.8007 33.1875H43.3358V35.2617C43.3358 37.1861 43.3474 37.3475 43.5663 37.5664C43.7161 37.7162 43.9466 37.7969 44.2577 37.7969C44.7071 37.7969 44.8915 37.6471 49.8235 33.176C52.6237 30.6293 55.0091 28.4514 55.1243 28.3246C55.4355 27.9559 55.3894 27.2414 55.0091 26.8727C54.3868 26.2619 44.9261 17.6885 44.7878 17.6193C44.4651 17.435 44.1771 17.4234 43.8429 17.5617Z" fill="#151515"/>
</svg>
