<svg width="54" height="54" viewBox="0 0 54 54" fill="none" xmlns="http://www.w3.org/2000/svg">
<mask id="path-1-outside-1_1206_3033" maskUnits="userSpaceOnUse" x="0" y="0.447266" width="54" height="54" fill="black">
<rect fill="white" y="0.447266" width="54" height="54"/>
<path d="M3.36695 5.62889C3.42853 10.9147 3.37722 10.6478 4.28042 10.6478H4.77307V12.4645C4.77307 14.0861 4.7936 14.3325 4.96808 14.6199L5.17336 14.938L4.81413 15.6052C4.5678 16.0773 4.19831 17.2473 3.53117 19.7209L2.60744 23.19L2.81271 23.8161C2.93588 24.1548 3.02825 24.473 3.02825 24.5243C3.02825 24.5653 2.80245 24.6988 2.51507 24.8219C1.47844 25.2633 0.934466 26.1665 1.00631 27.3263C1.04737 28.0139 1.22185 28.445 5.59417 38.2057C8.0985 43.7994 10.1615 48.3873 10.1718 48.4078C10.1923 48.4283 12.1321 47.5765 14.4928 46.5296C17.2229 45.3082 18.8651 44.5179 19.019 44.3537C19.173 44.1792 19.2448 43.9636 19.2448 43.6968C19.2448 43.317 19.1935 43.2555 18.3827 42.5781C17.0176 41.4183 16.6276 40.7101 16.6994 39.54C16.8123 37.826 18.1261 36.5738 19.8093 36.5738C20.7741 36.5738 21.4515 36.8817 22.1084 37.6002C22.9603 38.5239 23.1861 39.7658 22.7345 40.9153C22.5087 41.5106 22.5292 41.7672 22.8679 42.1265C23.2579 42.5575 23.5761 42.4549 27.1376 40.864C31.0891 39.0884 31.4483 38.9139 31.5304 38.7087C31.5817 38.565 32.372 38.1544 32.5876 38.1544C32.6389 38.1544 32.7313 38.411 32.8031 38.7394C32.875 39.0576 33.1008 39.6529 33.306 40.0635L33.6858 40.8127L33.4189 41.0796L33.1521 41.3464L33.1726 43.2349L33.2034 45.1337H32.6902C31.8383 45.1337 31.8691 44.9797 31.941 49.5265L32.0026 53.4473H32.6697H33.3368L33.265 49.9781L33.1931 46.4988L35.523 46.4372C36.806 46.3961 40.429 46.3653 43.5697 46.3653H49.2866L49.3584 46.9914C49.3892 47.3404 49.42 48.9415 49.42 50.5324V53.4473H50.1076H50.785L50.7235 49.4342C50.6516 44.8463 50.6927 45.0311 49.81 45.0311H49.3173V43.2041C49.3173 41.5722 49.2968 41.3567 49.1121 41.0488L48.9068 40.7203L49.2044 40.2277C49.5637 39.6324 49.6253 39.4476 50.6516 35.609L51.483 32.4991L51.1648 31.5241C51.0006 30.9904 50.8569 30.5388 50.8569 30.5285C50.8569 30.508 51.0827 30.3951 51.3495 30.2719C52.3759 29.8101 52.8994 28.9992 52.9096 27.9113C52.9096 27.2852 52.7454 26.8644 48.681 17.1344C46.3614 11.5613 44.4216 6.96316 44.3805 6.92211C44.3395 6.87079 42.5331 7.57898 40.3572 8.48218C38.171 9.39565 36.3749 10.1346 36.3441 10.1346C36.3133 10.1346 36.3133 9.93962 36.3441 9.69329C36.4365 9.06721 36.2107 7.71241 35.9233 7.08633C35.6154 6.40892 34.8045 5.53651 34.1477 5.17728C31.8075 3.90459 28.9748 4.81806 27.8355 7.23002C27.5276 7.88689 27.5071 7.98953 27.5071 9.10826C27.5071 10.1757 27.5379 10.3502 27.7842 10.8736C28.1434 11.6331 28.5232 12.136 29.1082 12.5979L29.5906 12.9777L25.3928 14.7225L21.2052 16.4673L20.8049 15.6667C20.4457 14.9585 20.4149 14.8456 20.5586 14.7327C20.9383 14.4146 20.9999 13.9938 20.9281 12.2387L20.8562 10.5452H21.3284C21.6876 10.5452 21.8723 10.4836 22.0365 10.3194C22.2521 10.1038 22.2521 10.0628 22.1905 7.79452C22.1494 6.52182 22.1187 4.46909 22.1187 3.23745V0.999977H21.431H20.7536L20.8254 5.08491L20.8973 9.18011L18.044 9.2417C16.4736 9.28275 12.8506 9.31354 9.99728 9.31354H4.80386L4.73202 8.76957C4.70123 8.48218 4.67044 6.60394 4.67044 4.61279V0.999977H3.98277H3.30537L3.36695 5.62889ZM33.265 6.23444C33.8911 6.54235 34.4966 7.15817 34.7737 7.76373C34.9688 8.17427 34.9995 8.43087 34.9995 9.75488C34.9995 11.2328 35.0098 11.2842 35.2459 11.4792C35.3793 11.5818 35.6359 11.6742 35.8309 11.6742C36.0464 11.6742 37.586 11.0892 39.885 10.1244C41.9275 9.28275 43.6108 8.60535 43.6313 8.62587C43.6621 8.6464 45.4582 12.9161 47.6238 18.1095C50.3848 24.6988 51.5753 27.6752 51.5753 27.9318C51.5753 28.4142 51.3393 28.7734 50.8364 29.03C50.5387 29.184 50.4258 29.2045 50.395 29.1019C50.3642 29.03 49.9537 27.7471 49.4713 26.2588C48.8042 24.1753 48.5373 23.4774 48.332 23.2619C47.2851 22.1636 45.3043 22.6973 44.5755 24.2574C44.0829 25.3043 44.0829 26.0536 44.5447 28.9171L44.9348 31.3086L44.6679 31.5344C44.4729 31.678 34.2708 36.0401 32.0847 36.9023C32.0436 36.9125 31.6125 36.0093 31.1301 34.9008C30.6375 33.7821 30.0114 32.3452 29.724 31.7088L29.2108 30.5593H29.919C32.4644 30.5593 34.1785 29.0813 34.5274 26.6078C34.7327 25.1914 34.3119 23.8777 33.3471 22.8616C32.6492 22.1328 31.8486 21.7018 30.853 21.517C29.2108 21.2296 27.3326 21.9892 26.4602 23.3029L26.1625 23.7545L25.0438 21.2296C24.428 19.8441 23.7608 18.3456 23.5556 17.9042C23.34 17.4731 23.1963 17.0934 23.2374 17.0729C23.2682 17.0523 25.013 16.3339 27.0965 15.4717C29.1903 14.6096 31.0172 13.8398 31.1609 13.768C31.6125 13.5422 31.746 12.8237 31.4278 12.4132C31.3662 12.3311 31.0378 12.1463 30.6991 11.9924C29.919 11.6434 29.1801 10.8531 28.9337 10.1141C28.6771 9.34433 28.7695 8.27691 29.1595 7.57898C29.9396 6.13181 31.7973 5.52625 33.265 6.23444ZM19.4912 10.6068C19.6348 10.6581 19.6554 10.9044 19.6554 12.2284V13.7988L12.9635 13.8603C9.28908 13.9014 6.23051 13.8911 6.18946 13.8501C6.13814 13.7988 6.11761 13.07 6.12788 12.2284L6.15867 10.6991L12.2142 10.6478C15.5499 10.617 18.5058 10.5862 18.8035 10.5657C19.0909 10.5554 19.3988 10.576 19.4912 10.6068ZM19.3269 15.7796C19.6862 16.3236 19.953 16.96 19.8401 17.0626C19.8299 17.0729 17.6642 18.0479 15.0367 19.218C11.9371 20.6036 10.2128 21.4247 10.1102 21.5683C9.69963 22.1636 8.81695 22.9642 8.28324 23.2311L7.68795 23.5287L8.12929 26.1973C8.36535 27.665 8.57063 29.1532 8.57063 29.4919C8.57063 30.5901 8.17034 31.3599 7.48268 31.5857C7.03108 31.7396 6.77449 31.6473 6.64106 31.2983C6.38447 30.6414 4.05462 23.2721 4.05462 23.1182C4.05462 23.0258 4.42411 21.5581 4.88597 19.8543C5.56337 17.2987 5.78918 16.6213 6.12788 16.0157L6.54869 15.2767L8.0985 15.2357C8.95038 15.2254 11.7318 15.1946 14.2875 15.1844L18.9164 15.1638L19.3269 15.7796ZM21.9852 17.8426C22.0571 17.9145 22.8268 19.6285 23.7198 21.671C24.7051 23.9495 25.4236 25.4685 25.5775 25.602C25.8546 25.8688 26.3781 25.9099 26.6449 25.7046C26.7476 25.6328 26.9939 25.2325 27.2197 24.8117C28.0305 23.2413 29.6214 22.5844 31.1917 23.1695C33.2034 23.929 33.7987 26.577 32.3002 28.1268C31.6023 28.8555 31.2944 28.9582 29.5906 28.9992C28.1537 29.0403 28.0716 29.0506 27.8458 29.2969C27.4147 29.7587 27.4968 30.0461 29.1801 33.7718C30.0422 35.6911 30.7401 37.3128 30.7401 37.3846C30.7401 37.4565 30.658 37.6104 30.5656 37.7336C30.4117 37.8978 28.0203 39.0268 24.6333 40.5151L24.2227 40.6895L24.2535 39.8992C24.3356 38.0107 23.4016 36.4609 21.7081 35.6501C21.1436 35.3832 20.8973 35.3319 20.0557 35.3011C18.8343 35.2498 18.1877 35.414 17.2947 36.0196C15.9707 36.9023 15.2831 38.3084 15.3652 39.9813C15.4267 41.213 15.7141 41.8288 16.7508 42.8757L17.5513 43.6865L14.267 45.144C12.4606 45.9445 10.9518 46.6219 10.921 46.6425C10.8492 46.6733 2.44322 27.9523 2.3098 27.4802C2.1969 27.0799 2.38164 26.6078 2.77166 26.2588C3.4388 25.6841 3.39774 25.6225 4.47543 28.989C5.471 32.1399 5.62496 32.4581 6.25104 32.7865C6.73343 33.0329 7.62637 32.9918 8.29351 32.6839C8.92985 32.3965 9.27882 31.986 9.59699 31.1751C9.98701 30.1898 9.97675 29.5124 9.53541 26.7618C9.19671 24.6269 9.16592 24.2677 9.28908 24.1958C9.78174 23.9187 10.3565 23.4158 10.6952 22.9745C11.0852 22.4715 11.0955 22.4613 16.3197 20.1109C19.2038 18.8074 21.626 17.74 21.7184 17.74C21.8005 17.7297 21.9236 17.7811 21.9852 17.8426ZM47.2851 24.1137C47.4391 24.2472 50.0358 32.222 50.0358 32.571C50.0358 32.6839 49.6458 34.1824 49.1737 35.9272C48.4244 38.7087 48.2705 39.1705 47.8702 39.8274L47.4186 40.5664L41.3835 40.5972L35.3485 40.6177L35.1022 40.3406C34.7224 39.9198 34.1374 38.6881 34.0348 38.1031C33.9834 37.826 33.9527 37.5797 33.9629 37.5591C33.9834 37.5489 35.8822 36.7483 38.1915 35.7835C40.4906 34.8187 42.4202 34.0079 42.4715 33.9771C42.5125 33.9463 42.4407 34.1516 42.297 34.4287L42.0404 34.9419L42.6049 35.2087C42.9128 35.3627 43.1797 35.4859 43.2002 35.4859C43.231 35.4859 43.4671 35.0856 43.7339 34.5929C44.3087 33.5358 44.9656 32.8584 45.8072 32.4376L46.4127 32.1297L45.9611 29.4714C45.4377 26.3307 45.3966 25.6225 45.7456 24.9348C46.1151 24.1856 46.8643 23.7853 47.2851 24.1137ZM48.0036 43.4094C48.0344 44.2202 48.0447 44.8976 48.0139 44.9284C47.9831 44.9592 44.9553 45.0003 41.2706 45.0208L34.5685 45.0516L34.5069 44.6616C34.4658 44.4358 34.435 43.7378 34.435 43.1015V41.952H41.1988H47.9523L48.0036 43.4094Z"/>
</mask>
<path d="M3.36695 5.62889C3.42853 10.9147 3.37722 10.6478 4.28042 10.6478H4.77307V12.4645C4.77307 14.0861 4.7936 14.3325 4.96808 14.6199L5.17336 14.938L4.81413 15.6052C4.5678 16.0773 4.19831 17.2473 3.53117 19.7209L2.60744 23.19L2.81271 23.8161C2.93588 24.1548 3.02825 24.473 3.02825 24.5243C3.02825 24.5653 2.80245 24.6988 2.51507 24.8219C1.47844 25.2633 0.934466 26.1665 1.00631 27.3263C1.04737 28.0139 1.22185 28.445 5.59417 38.2057C8.0985 43.7994 10.1615 48.3873 10.1718 48.4078C10.1923 48.4283 12.1321 47.5765 14.4928 46.5296C17.2229 45.3082 18.8651 44.5179 19.019 44.3537C19.173 44.1792 19.2448 43.9636 19.2448 43.6968C19.2448 43.317 19.1935 43.2555 18.3827 42.5781C17.0176 41.4183 16.6276 40.7101 16.6994 39.54C16.8123 37.826 18.1261 36.5738 19.8093 36.5738C20.7741 36.5738 21.4515 36.8817 22.1084 37.6002C22.9603 38.5239 23.1861 39.7658 22.7345 40.9153C22.5087 41.5106 22.5292 41.7672 22.8679 42.1265C23.2579 42.5575 23.5761 42.4549 27.1376 40.864C31.0891 39.0884 31.4483 38.9139 31.5304 38.7087C31.5817 38.565 32.372 38.1544 32.5876 38.1544C32.6389 38.1544 32.7313 38.411 32.8031 38.7394C32.875 39.0576 33.1008 39.6529 33.306 40.0635L33.6858 40.8127L33.4189 41.0796L33.1521 41.3464L33.1726 43.2349L33.2034 45.1337H32.6902C31.8383 45.1337 31.8691 44.9797 31.941 49.5265L32.0026 53.4473H32.6697H33.3368L33.265 49.9781L33.1931 46.4988L35.523 46.4372C36.806 46.3961 40.429 46.3653 43.5697 46.3653H49.2866L49.3584 46.9914C49.3892 47.3404 49.42 48.9415 49.42 50.5324V53.4473H50.1076H50.785L50.7235 49.4342C50.6516 44.8463 50.6927 45.0311 49.81 45.0311H49.3173V43.2041C49.3173 41.5722 49.2968 41.3567 49.1121 41.0488L48.9068 40.7203L49.2044 40.2277C49.5637 39.6324 49.6253 39.4476 50.6516 35.609L51.483 32.4991L51.1648 31.5241C51.0006 30.9904 50.8569 30.5388 50.8569 30.5285C50.8569 30.508 51.0827 30.3951 51.3495 30.2719C52.3759 29.8101 52.8994 28.9992 52.9096 27.9113C52.9096 27.2852 52.7454 26.8644 48.681 17.1344C46.3614 11.5613 44.4216 6.96316 44.3805 6.92211C44.3395 6.87079 42.5331 7.57898 40.3572 8.48218C38.171 9.39565 36.3749 10.1346 36.3441 10.1346C36.3133 10.1346 36.3133 9.93962 36.3441 9.69329C36.4365 9.06721 36.2107 7.71241 35.9233 7.08633C35.6154 6.40892 34.8045 5.53651 34.1477 5.17728C31.8075 3.90459 28.9748 4.81806 27.8355 7.23002C27.5276 7.88689 27.5071 7.98953 27.5071 9.10826C27.5071 10.1757 27.5379 10.3502 27.7842 10.8736C28.1434 11.6331 28.5232 12.136 29.1082 12.5979L29.5906 12.9777L25.3928 14.7225L21.2052 16.4673L20.8049 15.6667C20.4457 14.9585 20.4149 14.8456 20.5586 14.7327C20.9383 14.4146 20.9999 13.9938 20.9281 12.2387L20.8562 10.5452H21.3284C21.6876 10.5452 21.8723 10.4836 22.0365 10.3194C22.2521 10.1038 22.2521 10.0628 22.1905 7.79452C22.1494 6.52182 22.1187 4.46909 22.1187 3.23745V0.999977H21.431H20.7536L20.8254 5.08491L20.8973 9.18011L18.044 9.2417C16.4736 9.28275 12.8506 9.31354 9.99728 9.31354H4.80386L4.73202 8.76957C4.70123 8.48218 4.67044 6.60394 4.67044 4.61279V0.999977H3.98277H3.30537L3.36695 5.62889ZM33.265 6.23444C33.8911 6.54235 34.4966 7.15817 34.7737 7.76373C34.9688 8.17427 34.9995 8.43087 34.9995 9.75488C34.9995 11.2328 35.0098 11.2842 35.2459 11.4792C35.3793 11.5818 35.6359 11.6742 35.8309 11.6742C36.0464 11.6742 37.586 11.0892 39.885 10.1244C41.9275 9.28275 43.6108 8.60535 43.6313 8.62587C43.6621 8.6464 45.4582 12.9161 47.6238 18.1095C50.3848 24.6988 51.5753 27.6752 51.5753 27.9318C51.5753 28.4142 51.3393 28.7734 50.8364 29.03C50.5387 29.184 50.4258 29.2045 50.395 29.1019C50.3642 29.03 49.9537 27.7471 49.4713 26.2588C48.8042 24.1753 48.5373 23.4774 48.332 23.2619C47.2851 22.1636 45.3043 22.6973 44.5755 24.2574C44.0829 25.3043 44.0829 26.0536 44.5447 28.9171L44.9348 31.3086L44.6679 31.5344C44.4729 31.678 34.2708 36.0401 32.0847 36.9023C32.0436 36.9125 31.6125 36.0093 31.1301 34.9008C30.6375 33.7821 30.0114 32.3452 29.724 31.7088L29.2108 30.5593H29.919C32.4644 30.5593 34.1785 29.0813 34.5274 26.6078C34.7327 25.1914 34.3119 23.8777 33.3471 22.8616C32.6492 22.1328 31.8486 21.7018 30.853 21.517C29.2108 21.2296 27.3326 21.9892 26.4602 23.3029L26.1625 23.7545L25.0438 21.2296C24.428 19.8441 23.7608 18.3456 23.5556 17.9042C23.34 17.4731 23.1963 17.0934 23.2374 17.0729C23.2682 17.0523 25.013 16.3339 27.0965 15.4717C29.1903 14.6096 31.0172 13.8398 31.1609 13.768C31.6125 13.5422 31.746 12.8237 31.4278 12.4132C31.3662 12.3311 31.0378 12.1463 30.6991 11.9924C29.919 11.6434 29.1801 10.8531 28.9337 10.1141C28.6771 9.34433 28.7695 8.27691 29.1595 7.57898C29.9396 6.13181 31.7973 5.52625 33.265 6.23444ZM19.4912 10.6068C19.6348 10.6581 19.6554 10.9044 19.6554 12.2284V13.7988L12.9635 13.8603C9.28908 13.9014 6.23051 13.8911 6.18946 13.8501C6.13814 13.7988 6.11761 13.07 6.12788 12.2284L6.15867 10.6991L12.2142 10.6478C15.5499 10.617 18.5058 10.5862 18.8035 10.5657C19.0909 10.5554 19.3988 10.576 19.4912 10.6068ZM19.3269 15.7796C19.6862 16.3236 19.953 16.96 19.8401 17.0626C19.8299 17.0729 17.6642 18.0479 15.0367 19.218C11.9371 20.6036 10.2128 21.4247 10.1102 21.5683C9.69963 22.1636 8.81695 22.9642 8.28324 23.2311L7.68795 23.5287L8.12929 26.1973C8.36535 27.665 8.57063 29.1532 8.57063 29.4919C8.57063 30.5901 8.17034 31.3599 7.48268 31.5857C7.03108 31.7396 6.77449 31.6473 6.64106 31.2983C6.38447 30.6414 4.05462 23.2721 4.05462 23.1182C4.05462 23.0258 4.42411 21.5581 4.88597 19.8543C5.56337 17.2987 5.78918 16.6213 6.12788 16.0157L6.54869 15.2767L8.0985 15.2357C8.95038 15.2254 11.7318 15.1946 14.2875 15.1844L18.9164 15.1638L19.3269 15.7796ZM21.9852 17.8426C22.0571 17.9145 22.8268 19.6285 23.7198 21.671C24.7051 23.9495 25.4236 25.4685 25.5775 25.602C25.8546 25.8688 26.3781 25.9099 26.6449 25.7046C26.7476 25.6328 26.9939 25.2325 27.2197 24.8117C28.0305 23.2413 29.6214 22.5844 31.1917 23.1695C33.2034 23.929 33.7987 26.577 32.3002 28.1268C31.6023 28.8555 31.2944 28.9582 29.5906 28.9992C28.1537 29.0403 28.0716 29.0506 27.8458 29.2969C27.4147 29.7587 27.4968 30.0461 29.1801 33.7718C30.0422 35.6911 30.7401 37.3128 30.7401 37.3846C30.7401 37.4565 30.658 37.6104 30.5656 37.7336C30.4117 37.8978 28.0203 39.0268 24.6333 40.5151L24.2227 40.6895L24.2535 39.8992C24.3356 38.0107 23.4016 36.4609 21.7081 35.6501C21.1436 35.3832 20.8973 35.3319 20.0557 35.3011C18.8343 35.2498 18.1877 35.414 17.2947 36.0196C15.9707 36.9023 15.2831 38.3084 15.3652 39.9813C15.4267 41.213 15.7141 41.8288 16.7508 42.8757L17.5513 43.6865L14.267 45.144C12.4606 45.9445 10.9518 46.6219 10.921 46.6425C10.8492 46.6733 2.44322 27.9523 2.3098 27.4802C2.1969 27.0799 2.38164 26.6078 2.77166 26.2588C3.4388 25.6841 3.39774 25.6225 4.47543 28.989C5.471 32.1399 5.62496 32.4581 6.25104 32.7865C6.73343 33.0329 7.62637 32.9918 8.29351 32.6839C8.92985 32.3965 9.27882 31.986 9.59699 31.1751C9.98701 30.1898 9.97675 29.5124 9.53541 26.7618C9.19671 24.6269 9.16592 24.2677 9.28908 24.1958C9.78174 23.9187 10.3565 23.4158 10.6952 22.9745C11.0852 22.4715 11.0955 22.4613 16.3197 20.1109C19.2038 18.8074 21.626 17.74 21.7184 17.74C21.8005 17.7297 21.9236 17.7811 21.9852 17.8426ZM47.2851 24.1137C47.4391 24.2472 50.0358 32.222 50.0358 32.571C50.0358 32.6839 49.6458 34.1824 49.1737 35.9272C48.4244 38.7087 48.2705 39.1705 47.8702 39.8274L47.4186 40.5664L41.3835 40.5972L35.3485 40.6177L35.1022 40.3406C34.7224 39.9198 34.1374 38.6881 34.0348 38.1031C33.9834 37.826 33.9527 37.5797 33.9629 37.5591C33.9834 37.5489 35.8822 36.7483 38.1915 35.7835C40.4906 34.8187 42.4202 34.0079 42.4715 33.9771C42.5125 33.9463 42.4407 34.1516 42.297 34.4287L42.0404 34.9419L42.6049 35.2087C42.9128 35.3627 43.1797 35.4859 43.2002 35.4859C43.231 35.4859 43.4671 35.0856 43.7339 34.5929C44.3087 33.5358 44.9656 32.8584 45.8072 32.4376L46.4127 32.1297L45.9611 29.4714C45.4377 26.3307 45.3966 25.6225 45.7456 24.9348C46.1151 24.1856 46.8643 23.7853 47.2851 24.1137ZM48.0036 43.4094C48.0344 44.2202 48.0447 44.8976 48.0139 44.9284C47.9831 44.9592 44.9553 45.0003 41.2706 45.0208L34.5685 45.0516L34.5069 44.6616C34.4658 44.4358 34.435 43.7378 34.435 43.1015V41.952H41.1988H47.9523L48.0036 43.4094Z" fill="#191919"/>
<path d="M3.36695 5.62889C3.42853 10.9147 3.37722 10.6478 4.28042 10.6478H4.77307V12.4645C4.77307 14.0861 4.7936 14.3325 4.96808 14.6199L5.17336 14.938L4.81413 15.6052C4.5678 16.0773 4.19831 17.2473 3.53117 19.7209L2.60744 23.19L2.81271 23.8161C2.93588 24.1548 3.02825 24.473 3.02825 24.5243C3.02825 24.5653 2.80245 24.6988 2.51507 24.8219C1.47844 25.2633 0.934466 26.1665 1.00631 27.3263C1.04737 28.0139 1.22185 28.445 5.59417 38.2057C8.0985 43.7994 10.1615 48.3873 10.1718 48.4078C10.1923 48.4283 12.1321 47.5765 14.4928 46.5296C17.2229 45.3082 18.8651 44.5179 19.019 44.3537C19.173 44.1792 19.2448 43.9636 19.2448 43.6968C19.2448 43.317 19.1935 43.2555 18.3827 42.5781C17.0176 41.4183 16.6276 40.7101 16.6994 39.54C16.8123 37.826 18.1261 36.5738 19.8093 36.5738C20.7741 36.5738 21.4515 36.8817 22.1084 37.6002C22.9603 38.5239 23.1861 39.7658 22.7345 40.9153C22.5087 41.5106 22.5292 41.7672 22.8679 42.1265C23.2579 42.5575 23.5761 42.4549 27.1376 40.864C31.0891 39.0884 31.4483 38.9139 31.5304 38.7087C31.5817 38.565 32.372 38.1544 32.5876 38.1544C32.6389 38.1544 32.7313 38.411 32.8031 38.7394C32.875 39.0576 33.1008 39.6529 33.306 40.0635L33.6858 40.8127L33.4189 41.0796L33.1521 41.3464L33.1726 43.2349L33.2034 45.1337H32.6902C31.8383 45.1337 31.8691 44.9797 31.941 49.5265L32.0026 53.4473H32.6697H33.3368L33.265 49.9781L33.1931 46.4988L35.523 46.4372C36.806 46.3961 40.429 46.3653 43.5697 46.3653H49.2866L49.3584 46.9914C49.3892 47.3404 49.42 48.9415 49.42 50.5324V53.4473H50.1076H50.785L50.7235 49.4342C50.6516 44.8463 50.6927 45.0311 49.81 45.0311H49.3173V43.2041C49.3173 41.5722 49.2968 41.3567 49.1121 41.0488L48.9068 40.7203L49.2044 40.2277C49.5637 39.6324 49.6253 39.4476 50.6516 35.609L51.483 32.4991L51.1648 31.5241C51.0006 30.9904 50.8569 30.5388 50.8569 30.5285C50.8569 30.508 51.0827 30.3951 51.3495 30.2719C52.3759 29.8101 52.8994 28.9992 52.9096 27.9113C52.9096 27.2852 52.7454 26.8644 48.681 17.1344C46.3614 11.5613 44.4216 6.96316 44.3805 6.92211C44.3395 6.87079 42.5331 7.57898 40.3572 8.48218C38.171 9.39565 36.3749 10.1346 36.3441 10.1346C36.3133 10.1346 36.3133 9.93962 36.3441 9.69329C36.4365 9.06721 36.2107 7.71241 35.9233 7.08633C35.6154 6.40892 34.8045 5.53651 34.1477 5.17728C31.8075 3.90459 28.9748 4.81806 27.8355 7.23002C27.5276 7.88689 27.5071 7.98953 27.5071 9.10826C27.5071 10.1757 27.5379 10.3502 27.7842 10.8736C28.1434 11.6331 28.5232 12.136 29.1082 12.5979L29.5906 12.9777L25.3928 14.7225L21.2052 16.4673L20.8049 15.6667C20.4457 14.9585 20.4149 14.8456 20.5586 14.7327C20.9383 14.4146 20.9999 13.9938 20.9281 12.2387L20.8562 10.5452H21.3284C21.6876 10.5452 21.8723 10.4836 22.0365 10.3194C22.2521 10.1038 22.2521 10.0628 22.1905 7.79452C22.1494 6.52182 22.1187 4.46909 22.1187 3.23745V0.999977H21.431H20.7536L20.8254 5.08491L20.8973 9.18011L18.044 9.2417C16.4736 9.28275 12.8506 9.31354 9.99728 9.31354H4.80386L4.73202 8.76957C4.70123 8.48218 4.67044 6.60394 4.67044 4.61279V0.999977H3.98277H3.30537L3.36695 5.62889ZM33.265 6.23444C33.8911 6.54235 34.4966 7.15817 34.7737 7.76373C34.9688 8.17427 34.9995 8.43087 34.9995 9.75488C34.9995 11.2328 35.0098 11.2842 35.2459 11.4792C35.3793 11.5818 35.6359 11.6742 35.8309 11.6742C36.0464 11.6742 37.586 11.0892 39.885 10.1244C41.9275 9.28275 43.6108 8.60535 43.6313 8.62587C43.6621 8.6464 45.4582 12.9161 47.6238 18.1095C50.3848 24.6988 51.5753 27.6752 51.5753 27.9318C51.5753 28.4142 51.3393 28.7734 50.8364 29.03C50.5387 29.184 50.4258 29.2045 50.395 29.1019C50.3642 29.03 49.9537 27.7471 49.4713 26.2588C48.8042 24.1753 48.5373 23.4774 48.332 23.2619C47.2851 22.1636 45.3043 22.6973 44.5755 24.2574C44.0829 25.3043 44.0829 26.0536 44.5447 28.9171L44.9348 31.3086L44.6679 31.5344C44.4729 31.678 34.2708 36.0401 32.0847 36.9023C32.0436 36.9125 31.6125 36.0093 31.1301 34.9008C30.6375 33.7821 30.0114 32.3452 29.724 31.7088L29.2108 30.5593H29.919C32.4644 30.5593 34.1785 29.0813 34.5274 26.6078C34.7327 25.1914 34.3119 23.8777 33.3471 22.8616C32.6492 22.1328 31.8486 21.7018 30.853 21.517C29.2108 21.2296 27.3326 21.9892 26.4602 23.3029L26.1625 23.7545L25.0438 21.2296C24.428 19.8441 23.7608 18.3456 23.5556 17.9042C23.34 17.4731 23.1963 17.0934 23.2374 17.0729C23.2682 17.0523 25.013 16.3339 27.0965 15.4717C29.1903 14.6096 31.0172 13.8398 31.1609 13.768C31.6125 13.5422 31.746 12.8237 31.4278 12.4132C31.3662 12.3311 31.0378 12.1463 30.6991 11.9924C29.919 11.6434 29.1801 10.8531 28.9337 10.1141C28.6771 9.34433 28.7695 8.27691 29.1595 7.57898C29.9396 6.13181 31.7973 5.52625 33.265 6.23444ZM19.4912 10.6068C19.6348 10.6581 19.6554 10.9044 19.6554 12.2284V13.7988L12.9635 13.8603C9.28908 13.9014 6.23051 13.8911 6.18946 13.8501C6.13814 13.7988 6.11761 13.07 6.12788 12.2284L6.15867 10.6991L12.2142 10.6478C15.5499 10.617 18.5058 10.5862 18.8035 10.5657C19.0909 10.5554 19.3988 10.576 19.4912 10.6068ZM19.3269 15.7796C19.6862 16.3236 19.953 16.96 19.8401 17.0626C19.8299 17.0729 17.6642 18.0479 15.0367 19.218C11.9371 20.6036 10.2128 21.4247 10.1102 21.5683C9.69963 22.1636 8.81695 22.9642 8.28324 23.2311L7.68795 23.5287L8.12929 26.1973C8.36535 27.665 8.57063 29.1532 8.57063 29.4919C8.57063 30.5901 8.17034 31.3599 7.48268 31.5857C7.03108 31.7396 6.77449 31.6473 6.64106 31.2983C6.38447 30.6414 4.05462 23.2721 4.05462 23.1182C4.05462 23.0258 4.42411 21.5581 4.88597 19.8543C5.56337 17.2987 5.78918 16.6213 6.12788 16.0157L6.54869 15.2767L8.0985 15.2357C8.95038 15.2254 11.7318 15.1946 14.2875 15.1844L18.9164 15.1638L19.3269 15.7796ZM21.9852 17.8426C22.0571 17.9145 22.8268 19.6285 23.7198 21.671C24.7051 23.9495 25.4236 25.4685 25.5775 25.602C25.8546 25.8688 26.3781 25.9099 26.6449 25.7046C26.7476 25.6328 26.9939 25.2325 27.2197 24.8117C28.0305 23.2413 29.6214 22.5844 31.1917 23.1695C33.2034 23.929 33.7987 26.577 32.3002 28.1268C31.6023 28.8555 31.2944 28.9582 29.5906 28.9992C28.1537 29.0403 28.0716 29.0506 27.8458 29.2969C27.4147 29.7587 27.4968 30.0461 29.1801 33.7718C30.0422 35.6911 30.7401 37.3128 30.7401 37.3846C30.7401 37.4565 30.658 37.6104 30.5656 37.7336C30.4117 37.8978 28.0203 39.0268 24.6333 40.5151L24.2227 40.6895L24.2535 39.8992C24.3356 38.0107 23.4016 36.4609 21.7081 35.6501C21.1436 35.3832 20.8973 35.3319 20.0557 35.3011C18.8343 35.2498 18.1877 35.414 17.2947 36.0196C15.9707 36.9023 15.2831 38.3084 15.3652 39.9813C15.4267 41.213 15.7141 41.8288 16.7508 42.8757L17.5513 43.6865L14.267 45.144C12.4606 45.9445 10.9518 46.6219 10.921 46.6425C10.8492 46.6733 2.44322 27.9523 2.3098 27.4802C2.1969 27.0799 2.38164 26.6078 2.77166 26.2588C3.4388 25.6841 3.39774 25.6225 4.47543 28.989C5.471 32.1399 5.62496 32.4581 6.25104 32.7865C6.73343 33.0329 7.62637 32.9918 8.29351 32.6839C8.92985 32.3965 9.27882 31.986 9.59699 31.1751C9.98701 30.1898 9.97675 29.5124 9.53541 26.7618C9.19671 24.6269 9.16592 24.2677 9.28908 24.1958C9.78174 23.9187 10.3565 23.4158 10.6952 22.9745C11.0852 22.4715 11.0955 22.4613 16.3197 20.1109C19.2038 18.8074 21.626 17.74 21.7184 17.74C21.8005 17.7297 21.9236 17.7811 21.9852 17.8426ZM47.2851 24.1137C47.4391 24.2472 50.0358 32.222 50.0358 32.571C50.0358 32.6839 49.6458 34.1824 49.1737 35.9272C48.4244 38.7087 48.2705 39.1705 47.8702 39.8274L47.4186 40.5664L41.3835 40.5972L35.3485 40.6177L35.1022 40.3406C34.7224 39.9198 34.1374 38.6881 34.0348 38.1031C33.9834 37.826 33.9527 37.5797 33.9629 37.5591C33.9834 37.5489 35.8822 36.7483 38.1915 35.7835C40.4906 34.8187 42.4202 34.0079 42.4715 33.9771C42.5125 33.9463 42.4407 34.1516 42.297 34.4287L42.0404 34.9419L42.6049 35.2087C42.9128 35.3627 43.1797 35.4859 43.2002 35.4859C43.231 35.4859 43.4671 35.0856 43.7339 34.5929C44.3087 33.5358 44.9656 32.8584 45.8072 32.4376L46.4127 32.1297L45.9611 29.4714C45.4377 26.3307 45.3966 25.6225 45.7456 24.9348C46.1151 24.1856 46.8643 23.7853 47.2851 24.1137ZM48.0036 43.4094C48.0344 44.2202 48.0447 44.8976 48.0139 44.9284C47.9831 44.9592 44.9553 45.0003 41.2706 45.0208L34.5685 45.0516L34.5069 44.6616C34.4658 44.4358 34.435 43.7378 34.435 43.1015V41.952H41.1988H47.9523L48.0036 43.4094Z" stroke="#191919" stroke-width="0.6" mask="url(#path-1-outside-1_1206_3033)"/>
<path d="M44.1872 2.52934C44.1872 3.31964 44.1564 4.02783 44.1256 4.12021C44.0743 4.2639 44.1666 4.28442 44.7311 4.28442H45.388L45.4598 3.65834C45.4906 3.30938 45.5214 2.59092 45.5214 2.06747V1.10269H44.8543H44.1872V2.52934Z" fill="#191919"/>
<path d="M39.6885 2.9707L39.1445 3.27861L39.8322 4.57183C40.212 5.29029 40.5507 5.91637 40.5917 5.95743C40.6328 6.00874 40.9201 5.91637 41.2383 5.76242L41.8131 5.47503L41.0946 4.05865C40.6943 3.27861 40.3454 2.65253 40.3043 2.65253C40.2633 2.66279 39.9862 2.80648 39.6885 2.9707Z" fill="#191919"/>
<path d="M48.659 4.08937C48.269 4.82835 48.0022 5.4647 48.0432 5.50575C48.0945 5.54681 48.3511 5.71103 48.618 5.85472L49.0901 6.13184L49.4493 5.48523C49.8702 4.73598 50.5476 3.39144 50.5476 3.30933C50.5476 3.24775 49.5622 2.74483 49.4493 2.74483C49.398 2.74483 49.0491 3.35038 48.659 4.08937Z" fill="#191919"/>
<path d="M5.39028 50.0193C4.98999 50.7891 4.67182 51.4255 4.69235 51.446C4.75393 51.4973 5.79056 52.0105 5.85214 52.0105C5.91372 52.0105 7.23773 49.383 7.23773 49.2598C7.23773 49.1777 6.314 48.6235 6.18058 48.6235C6.14979 48.6235 5.80082 49.2496 5.39028 50.0193Z" fill="#191919"/>
<path d="M13.9887 48.8902C13.7116 49.0236 13.4961 49.1673 13.4961 49.1878C13.4961 49.3521 14.8509 51.9077 14.933 51.9077C15.128 51.9077 16.0723 51.3843 16.0415 51.2919C15.8773 50.8506 14.6559 48.6233 14.5738 48.6336C14.5225 48.6336 14.2556 48.7465 13.9887 48.8902Z" fill="#191919"/>
<path d="M9.69922 51.9591V53.55H10.3048C11.0438 53.55 11.0335 53.591 11.0335 51.723V50.3682H10.3664H9.69922V51.9591Z" fill="#191919"/>
</svg>
