<svg width="50" height="53" viewBox="0 0 50 53" fill="none" xmlns="http://www.w3.org/2000/svg">
<path d="M38.0889 0.215614C37.6679 0.349098 36.6925 0.739273 35.9224 1.08838C34.1358 1.89954 33.4068 2.09462 32.7804 1.94061C32.1849 1.78659 31.6818 1.88927 31.3327 2.23837C30.7577 2.8031 30.1211 5.56514 30.0081 7.88567L29.9465 9.30262L29.1456 9.00486C24.864 7.44415 19.6787 7.40308 15.202 8.90218C8.31227 11.2022 3.01408 16.8905 1.22748 23.8932C0.252042 27.7128 0.385524 32.0971 1.58686 35.8038L1.94623 36.8922L1.07347 37.765C0.601148 38.2476 0.159632 38.7712 0.108293 38.9252C-0.0457238 39.3359 -0.035456 39.8801 0.139097 40.2087C0.323917 40.5475 12.0703 52.2734 12.3886 52.4377C12.7274 52.6122 13.5694 52.5711 13.8569 52.3863C14.0006 52.2939 14.627 51.7086 15.2636 51.0823L16.4033 49.9529L17.0604 50.1171C19.9457 50.8461 23.7858 50.8667 26.7224 50.1787L27.6363 49.9631L28.8376 51.1439C29.4947 51.7908 30.1313 52.3761 30.2546 52.4377C30.5729 52.6019 31.3738 52.5814 31.7023 52.4069C31.8563 52.3247 33.0269 51.2055 34.3103 49.9118C36.8773 47.3346 36.98 47.1805 36.5179 46.6466C36.3228 46.4105 36.1894 46.3489 35.8813 46.3591C35.5117 46.3694 35.3474 46.5131 33.222 48.6386L30.9528 50.9078L29.0019 48.9569L27.051 47.006L32.7496 41.3074L38.4483 35.6087L40.3992 37.5596L42.35 39.5105L39.9987 41.8618C37.8014 44.0591 37.6576 44.2234 37.6474 44.5931C37.6371 44.9011 37.6987 45.0346 37.9349 45.2297C38.4791 45.702 38.6126 45.6096 41.3951 42.8167C43.5719 40.64 43.9313 40.2292 43.9929 39.8904C44.1366 39.1203 43.9929 38.8123 43.0072 37.8163L42.0933 36.8819L42.2987 36.2659C42.5657 35.4958 43.0585 33.5346 43.2433 32.5284C43.3357 32.015 43.3768 30.8855 43.3665 29.14C43.3665 26.7168 43.346 26.4293 43.0893 25.1869C42.9353 24.4476 42.6786 23.4106 42.5041 22.8767L42.196 21.9012L42.4732 21.6959C42.617 21.5829 43.0996 21.2235 43.5411 20.9052C45.4304 19.4883 47.0527 17.5477 48.1 15.4325C49.2911 13.0196 49.7531 10.812 49.6607 7.98834C49.5991 6.27362 49.4451 5.2263 49.0138 3.7272C48.675 2.53614 48.4594 2.1665 47.9665 1.96114C47.6482 1.82766 47.4839 1.81739 46.9705 1.92007C46.1902 2.07409 45.6357 1.94061 44.0237 1.20132C41.7956 0.184811 41.3541 0.0513306 40.0398 0.0102615C39.0233 -0.0205421 38.746 0.0102615 38.0889 0.215614ZM41.0666 1.78659C41.3746 1.879 42.2679 2.23837 43.0688 2.59775C44.8759 3.4089 45.5433 3.60399 46.5085 3.61426L47.2786 3.62453L47.5045 4.49729C49.25 11.0995 46.7755 17.1164 40.8509 20.7204C40.3889 20.9976 39.9268 21.2338 39.8344 21.2338C39.6188 21.2338 38.0684 20.2686 37.1032 19.5396C36.1072 18.7695 34.6492 17.2396 33.9818 16.2539C32.3697 13.8615 31.6818 11.541 31.6818 8.50173C31.6818 6.75621 31.8255 5.70889 32.2362 4.29193L32.4416 3.61426H33.1809C34.105 3.61426 34.8032 3.4089 36.446 2.67989C38.3867 1.80713 38.9617 1.6223 39.7934 1.6223C40.1938 1.6223 40.7688 1.69418 41.0666 1.78659ZM25.3671 9.7236C26.784 9.9803 27.8314 10.2781 29.1251 10.7812C30.0492 11.1303 30.193 11.2227 30.2443 11.4589C31.0041 14.9602 32.2979 17.3218 34.7211 19.6423C35.8813 20.7615 36.9389 21.5521 38.3559 22.3838C39.1567 22.8561 39.3416 22.9177 39.8344 22.9177C40.1425 22.928 40.4813 22.8869 40.5737 22.8459C40.7175 22.774 40.7791 22.8664 40.9536 23.4619C41.0768 23.8418 41.2924 24.7351 41.4465 25.4436C41.7032 26.6347 41.7237 26.9119 41.734 29.1914C41.734 31.1525 41.6929 31.8404 41.5491 32.5797C41.3643 33.5346 40.8715 35.4239 40.7996 35.4958C40.7791 35.5163 40.4197 35.2186 40.009 34.8181C39.1773 34.007 38.7255 33.8119 38.0478 33.9659C37.8322 34.007 37.5242 34.1815 37.3599 34.3355L37.0518 34.623L36.4768 34.0378L35.8916 33.4628L37.6371 31.6864C39.6496 29.6534 39.7831 29.4172 39.7831 28.1132C39.7728 27.4869 39.7215 27.2507 39.5059 26.8298C39.0335 25.9159 38.2224 25.3409 37.1853 25.1766C36.7952 25.115 36.7541 25.0842 36.7027 24.7351C36.4563 23.2463 35.2242 22.0552 33.9304 22.0552C33.6121 22.0552 33.6019 22.0347 33.5403 21.5521C33.376 20.1865 32.2773 19.1084 30.8604 18.9133L30.388 18.8414V18.4204C30.3778 17.6093 29.7412 16.6441 28.8684 16.1307C28.2523 15.7713 27.0202 15.6789 26.322 15.9459L25.8497 16.1204L25.5314 15.8124C25.3466 15.6481 24.9974 15.4017 24.7408 15.2682C24.289 15.0321 24.2171 15.0218 21.5577 15.0218C19.4939 15.0218 18.7752 15.0526 18.6006 15.1553C18.4671 15.2271 18.0564 15.299 17.6765 15.3196C16.1363 15.3709 14.9658 16.4387 14.8118 17.907L14.7502 18.4615H14.3292C13.0868 18.4615 11.8239 19.6834 11.639 21.0593C11.5774 21.5213 11.5672 21.5213 11.0948 21.5932C9.57521 21.8191 8.51762 23.0204 8.51762 24.54C8.51762 24.9199 8.55869 25.3307 8.61003 25.4641C8.69218 25.69 8.66137 25.7208 8.21986 25.8851C7.55245 26.1213 6.93638 26.6757 6.60781 27.3432C6.39219 27.7949 6.34085 28.0619 6.33058 28.6472C6.33058 29.7664 6.55647 30.1771 7.92209 31.5735L9.07208 32.7337L8.07611 33.7297L7.08013 34.7257L6.73103 34.3869C6.54621 34.202 6.20737 34.007 5.99174 33.9659C5.31407 33.8119 4.87255 34.007 4.03059 34.8181C3.61988 35.2186 3.26051 35.5163 3.23997 35.4958C3.21944 35.4753 3.10649 35.1261 2.99355 34.736C0.991324 27.9284 2.92167 20.4021 7.96316 15.3401C11.2181 12.0749 15.2738 10.0932 19.9149 9.52851C21.0957 9.38476 24.1041 9.49771 25.3671 9.7236ZM24.0117 16.757C24.6791 17.1062 24.6586 17.1472 23.4983 18.3178L22.4305 19.3856H21.5167C19.956 19.3856 19.2372 18.8311 19.1243 17.5477C19.0319 16.5825 18.96 16.6133 21.5269 16.6133C23.2314 16.6133 23.7858 16.6441 24.0117 16.757ZM17.4814 17.7428C17.5944 19.057 18.272 20.0838 19.422 20.6896C19.9046 20.936 20.0997 20.9771 21.2189 21.0079L22.4613 21.049L23.3341 21.9423C24.3814 23.0101 24.5046 23.3592 24.1247 24.0677C23.7858 24.7249 23.1082 24.9816 22.41 24.7146C22.0814 24.5914 16.7935 19.3753 16.5676 18.9544C16.4854 18.8003 16.4238 18.482 16.4238 18.2459C16.4238 17.8865 16.4854 17.753 16.8243 17.4245C17.0399 17.1986 17.2658 17.024 17.3171 17.024C17.3787 17.024 17.4506 17.3526 17.4814 17.7428ZM28.0367 17.5887C28.776 17.9789 28.9506 18.9133 28.4372 19.6936C28.0778 20.2378 28.0573 20.4945 28.3447 20.8642C28.6322 21.2338 29.1559 21.2235 29.7104 20.8436C31.0555 19.9093 32.5751 21.511 31.5791 22.8253C31.2197 23.2976 31.2197 23.811 31.5791 24.0985C31.9487 24.3963 32.3081 24.3655 32.842 24.0061C33.376 23.6467 33.8791 23.6057 34.3617 23.9034C34.8853 24.2217 35.0599 24.5914 35.0188 25.2999C35.0086 25.4231 34.8751 25.7208 34.7005 25.9673C34.3309 26.5115 34.3206 26.7784 34.6286 27.1481C34.9469 27.5074 35.3885 27.5177 35.9019 27.1686C36.405 26.8298 36.6822 26.7476 37.0621 26.8298C37.7809 26.9838 38.284 27.7641 38.1402 28.5034C38.0786 28.832 37.6371 29.3248 35.0496 31.9123C32.1746 34.7976 32.0309 34.9721 32.0309 35.3315C32.0309 35.8346 32.3184 36.1221 32.8112 36.1221C33.1295 36.1221 33.2836 36.0194 33.9407 35.3828L34.7108 34.6436L35.2961 35.2288L35.8813 35.8141L31.8461 39.8493L27.8211 43.8743L25.6546 41.7078L23.4778 39.531L24.0117 39.4181C24.3095 39.3565 25.3363 39.3051 26.3117 39.3051C28.2626 39.3051 28.93 39.1922 30.0184 38.6993C30.7166 38.381 30.9014 38.1757 30.9014 37.6726C30.9014 36.9743 30.1622 36.7382 29.3305 37.1592C28.5809 37.5493 28.3242 37.5904 26.0242 37.6623C23.9296 37.7239 23.7037 37.7547 22.9439 38.0114C21.5475 38.494 21.0649 38.8534 18.4979 41.3998L16.1158 43.7614L12.214 39.8699L8.31227 35.9681L9.34932 34.9311L10.3966 33.8837L10.7457 34.0275C11.1667 34.2123 12.2243 34.2328 12.7993 34.0788C13.0252 34.0172 13.4051 33.8221 13.6413 33.6578C14.0622 33.3498 14.6783 32.5181 14.6783 32.2614C14.6783 32.0355 14.8323 32.0253 15.3046 32.1896C16.7113 32.6824 18.5082 31.8302 19.0524 30.4132C19.2064 30.0128 19.2372 29.982 19.4734 30.0744C19.8635 30.2181 20.9519 30.1873 21.4756 30.0025C22.1019 29.7972 22.6769 29.2838 23.0466 28.6164C23.3033 28.144 23.3546 27.9489 23.3546 27.2713V26.4807L23.7653 26.378C25.1412 26.0289 26.0961 24.6016 25.9421 23.1334C25.8599 22.3735 25.5416 21.8088 24.7305 20.9771L24.022 20.2481L25.439 18.8414C26.8148 17.4758 26.8765 17.4347 27.2974 17.4347C27.5336 17.4347 27.8622 17.5066 28.0367 17.5887ZM15.2738 20.2481C15.4279 20.3302 16.927 21.778 18.6006 23.4619C21.2497 26.1213 21.6501 26.5731 21.7118 26.9119C21.9171 28.0311 20.726 28.9039 19.7301 28.3802C19.576 28.2981 18.0769 26.8503 16.4033 25.1664C13.0047 21.7472 13.0149 21.7677 13.4359 20.9052C13.5488 20.6588 13.7747 20.3816 13.9288 20.2892C14.2779 20.0735 14.9042 20.053 15.2738 20.2481ZM11.9779 23.2874C12.3064 23.4106 17.1836 28.2262 17.4095 28.6472C17.9332 29.6431 17.0604 30.8342 15.9412 30.6288C15.6024 30.5672 15.202 30.2079 13.0047 28.0311C11.598 26.6347 10.3864 25.3717 10.3042 25.2177C9.95512 24.5503 10.2323 23.7392 10.9306 23.39C11.4029 23.1539 11.5672 23.1436 11.9779 23.2874ZM9.90378 27.4561C10.0886 27.5382 10.8895 28.2673 11.6801 29.0784C13.2408 30.6597 13.3846 30.9061 13.1484 31.6351C13.0047 32.0663 12.7582 32.3025 12.2551 32.4771C11.5364 32.7235 11.2899 32.5797 9.67789 30.9677C8.85646 30.1565 8.14798 29.4172 8.09664 29.3146C7.92209 29.0065 7.96316 28.3494 8.17879 27.99C8.38414 27.6204 8.9386 27.2918 9.31851 27.2918C9.45199 27.2918 9.71896 27.3637 9.90378 27.4561ZM15.0377 48.9569L13.0868 50.9078L7.38816 45.2091L1.68953 39.5105L3.64042 37.5596L5.5913 35.6087L11.2899 41.3074L16.9886 47.006L15.0377 48.9569ZM24.33 42.7449L26.6403 45.0551L26.1064 45.589C25.48 46.2359 25.3568 46.4618 25.3568 46.9444C25.3568 47.4372 25.5211 47.8171 25.8907 48.2073C26.0756 48.3921 26.1988 48.5667 26.168 48.5872C26.1474 48.6078 25.6649 48.7104 25.1001 48.8131C23.6216 49.0801 20.5926 49.0801 18.96 48.8131L17.7484 48.618L18.0564 48.2997C18.6417 47.6734 18.8162 47.0573 18.5698 46.4207C18.5185 46.2667 18.2002 45.8663 17.8819 45.5377L17.2966 44.9524L19.5555 42.6935C20.7979 41.4511 21.8555 40.4346 21.9171 40.4346C21.9787 40.4346 23.0568 41.4716 24.33 42.7449Z" fill="#191919"/>
<path d="M38.6527 4.36382C36.7942 4.77453 35.1924 5.98613 34.3915 7.57764C33.9089 8.54281 33.7344 9.27183 33.7344 10.4013C33.7344 12.5165 34.679 14.3236 36.3835 15.4633C37.4616 16.1821 38.2009 16.4182 39.5768 16.4798C41.4968 16.5722 42.8933 16.0383 44.1973 14.724C45.4397 13.4714 45.9017 12.2598 45.3165 11.7977C44.7517 11.3562 44.2691 11.5513 43.8687 12.383C43.4785 13.1839 42.616 14.0361 41.7433 14.4571C40.5009 15.0731 38.8169 15.0013 37.5848 14.2722C36.0344 13.3687 35.0897 11.387 35.408 9.71334C36.0754 6.16068 40.1826 4.72319 42.883 7.09505C43.3142 7.47496 43.8482 8.27585 44.0535 8.85085C44.3102 9.57986 44.9982 9.85709 45.4602 9.42584C45.799 9.10754 45.8196 8.80978 45.5834 8.1629C44.9263 6.41738 43.2526 4.92855 41.4147 4.45623C40.8192 4.30221 39.166 4.25087 38.6527 4.36382Z" fill="#191919"/>
<path d="M40.7883 9.54897L39.5357 10.8016L38.6218 9.90834C37.7696 9.08692 37.6772 9.01504 37.287 9.01504C36.9584 9.01504 36.825 9.07665 36.6607 9.282C36.25 9.80566 36.3424 9.96995 37.8004 11.4485C39.6281 13.2864 39.3816 13.307 41.5482 11.1405C43.0781 9.61057 43.2218 9.43602 43.2218 9.10745C43.2218 8.63513 42.883 8.29629 42.3901 8.29629C42.0821 8.29629 41.9075 8.42978 40.7883 9.54897Z" fill="#191919"/>
</svg>
