<svg width="59" height="59" viewBox="0 0 59 59" fill="none" xmlns="http://www.w3.org/2000/svg">
<path d="M25.7664 0.198334C25.7434 0.313568 25.5705 1.08564 25.3977 1.91533L25.0865 3.4249L24.2684 3.68994C23.8189 3.82822 23.0238 4.15088 22.5168 4.40439L21.5719 4.8538L20.143 3.93193C19.3479 3.41337 18.6564 2.99853 18.5988 2.99853C18.5412 2.99853 17.3658 4.12783 15.983 5.51064L13.4824 8.02275L13.9434 9.10595C14.1969 9.69365 14.4043 10.2237 14.4043 10.2698C14.4043 10.3159 14.1047 10.3851 13.7475 10.4311C12.791 10.5233 11.3852 10.9958 10.6707 11.4567C9.29941 12.3325 8.19316 13.8536 7.78984 15.3977C7.53633 16.3772 7.53633 19.719 7.77832 20.687C8.07793 21.8509 8.63105 22.8073 9.54141 23.7292C10.0023 24.2017 10.3596 24.6626 10.348 24.7663C10.325 24.8815 9.92168 25.0313 9.10352 25.2388L7.89355 25.5384L5.5543 24.1786L3.20352 22.8188H1.60176H0V32.7175V42.6161L4.70156 44.1833C9.18418 45.6813 9.4377 45.7505 10.325 45.7505H11.2699L11.3391 45.3587L11.4197 44.9554L12.8486 45.8196C14.0701 46.5571 14.2891 46.73 14.2891 46.972C14.2891 48.0206 15.476 49.2421 16.732 49.4956C16.9855 49.5417 17.0662 49.6454 17.1699 50.0487C17.5041 51.2933 18.6104 52.3188 19.6359 52.3188C19.8549 52.3188 19.9125 52.411 20.0277 52.895C20.0969 53.2061 20.2928 53.6786 20.4656 53.9206C20.915 54.6005 21.8715 55.1997 22.5053 55.1997C22.7127 55.1997 22.7818 55.3034 22.8971 55.7644C23.0584 56.4327 23.4963 57.1356 23.9803 57.4929C24.7869 58.0921 25.9969 58.2419 26.9648 57.8616L27.4834 57.6657L28.0711 58.1612C28.3938 58.4263 28.8432 58.7259 29.0736 58.8296C29.6613 59.0716 31.0441 59.0485 31.6318 58.7835C32.5076 58.3917 33.2912 57.3315 33.3027 56.5595C33.3027 56.306 33.3719 56.2253 33.6254 56.1677C34.6855 55.9372 35.2502 55.58 35.7457 54.8425C35.9186 54.589 36.0914 54.1511 36.126 53.8745C36.2066 53.4136 36.2412 53.3675 36.6215 53.2983C37.8314 53.0679 38.834 52.0538 39.0299 50.8669C39.076 50.5673 39.1451 50.4751 39.341 50.4751C39.7789 50.4751 40.7238 49.945 41.1617 49.461C41.5766 49.0001 41.9453 48.0897 41.9453 47.5136C41.9453 47.2831 42.8557 46.7876 50.4727 42.9849L59 38.7212V31.6919V24.6626H57.9514H56.8912L55.324 25.4808C53.8029 26.2759 53.7453 26.2874 53.3535 26.1491C53.1346 26.0685 51.9938 25.7688 50.8184 25.4692C49.3664 25.112 48.675 24.8815 48.652 24.7663C48.6404 24.6741 48.9977 24.2132 49.4586 23.7407C50.3805 22.7843 50.9336 21.8163 51.2332 20.6409C51.383 20.0532 51.4061 19.477 51.3715 17.8177C51.3023 15.3632 51.1525 14.7985 50.1961 13.3811C49.1129 11.7909 47.5803 10.8229 45.6674 10.5118C45.0797 10.4196 44.5957 10.3044 44.5957 10.2583C44.5957 10.2237 44.8031 9.69365 45.0566 9.10595L45.5176 8.02275L43.017 5.51064C41.6342 4.12783 40.4588 2.99853 40.4012 2.99853C40.3436 2.99853 39.6521 3.41337 38.857 3.93193L37.4281 4.8538L36.4832 4.40439C35.9762 4.15088 35.1811 3.82822 34.7316 3.68994L33.9135 3.4249L33.6023 1.91533C33.4295 1.08564 33.2566 0.313568 33.2336 0.198334C33.176 0.013958 32.8994 0.00243759 29.5 0.00243759C26.1006 0.00243759 25.824 0.013958 25.7664 0.198334ZM31.8623 3.51709L32.185 5.07275L32.6574 5.1995C34.2016 5.5913 35.6305 6.16748 36.7713 6.8704L37.4627 7.28525L38.7994 6.39795L40.1477 5.52216L41.6227 6.99716L43.0977 8.47216L42.5906 9.68213C42.1066 10.8345 42.049 10.9151 41.4959 11.2493C41.1617 11.4452 40.6893 11.7794 40.4242 11.9868C40.0094 12.321 39.9402 12.344 39.848 12.1712C39.56 11.6526 38.2809 10.2007 37.6471 9.6706C35.5383 7.89599 33.2221 6.9165 30.5602 6.68603C28.509 6.50166 26.3426 6.85888 24.5104 7.67704C22.5514 8.55283 20.5117 10.2007 19.4285 11.7909L18.9791 12.4478L18.4836 11.9868C18.207 11.7333 17.7461 11.4106 17.4695 11.2724C16.974 11.0419 16.9279 10.9727 16.4209 9.75126L15.8908 8.48368L17.3658 7.00869L18.8408 5.53369L20.1891 6.40947L21.5488 7.28525L22.2287 6.85888C23.3695 6.16748 24.7984 5.5913 26.3426 5.1995L26.815 5.07275L27.1377 3.51709L27.4604 1.96142H29.5H31.5396L31.8623 3.51709ZM31.5166 8.86396C34.2016 9.41708 36.5984 11.0188 38.1195 13.3005C38.6957 14.1647 38.7072 14.1993 38.5459 14.522C38.1887 15.2249 38.0273 16.2851 38.0273 18.0827C38.0273 20.9175 38.5113 22.2657 40.067 23.8214C40.5279 24.2823 40.9082 24.7087 40.9082 24.7663C40.9082 24.8931 40.7584 24.9392 38.6035 25.4692L37.0479 25.838L35.2617 25.3886C33.902 25.0429 33.4641 24.8931 33.441 24.7433C33.418 24.628 33.6484 24.3169 34.0287 23.9712C34.8008 23.2683 35.3539 22.4501 35.7803 21.3784C36.0914 20.6179 36.1145 20.445 36.1605 18.5552C36.2066 16.2735 36.0914 15.4899 35.4807 14.2454C34.0287 11.2839 30.8021 9.80888 27.6678 10.6847C25.9277 11.1571 24.2338 12.5745 23.4732 14.1763C22.8855 15.4208 22.7818 16.1237 22.8395 18.5206C22.8855 20.445 22.9086 20.6179 23.2197 21.3784C23.6461 22.4501 24.1992 23.2683 24.9713 23.9712C25.3516 24.3169 25.582 24.628 25.559 24.7433C25.5359 24.8931 25.098 25.0429 23.7383 25.3886L21.9521 25.838L20.3965 25.4692C18.2531 24.9507 18.0918 24.8931 18.0918 24.7778C18.0918 24.7202 18.4721 24.2938 18.933 23.8329C19.901 22.8649 20.5002 21.8048 20.7998 20.5487C20.9611 19.8804 20.9842 19.3618 20.9496 17.7831C20.9035 16.0546 20.8574 15.7665 20.5924 15.052C20.2467 14.1071 20.2352 14.1302 21.3068 12.7128C23.6922 9.60146 27.7139 8.08036 31.5166 8.86396ZM15.3723 12.6206C18.0572 13.3235 19.4631 16.1353 18.8984 19.7075C18.668 21.1018 17.8613 22.3233 16.7205 22.9917L16.1328 23.3374V24.9161V26.4948L16.5707 26.6101C16.8012 26.6677 17.435 26.829 17.9766 26.9673C18.5182 27.094 19.0252 27.2323 19.1059 27.2554C19.198 27.2899 19.1174 27.5089 18.8293 27.9468C18.3568 28.6958 18.1379 29.3642 18.0342 30.4589C17.965 31.1272 17.9189 31.2425 17.7 31.2886C15.8908 31.7034 15.4184 31.8071 15.3031 31.8071C15.2225 31.8071 15.1994 31.519 15.257 30.8507L15.3377 29.8827L12.8486 28.4423L10.3596 26.9903L11.4082 26.7368L12.4453 26.4833V24.9392V23.4065L11.8461 23.0147C10.2328 21.9892 9.56445 20.5833 9.56445 18.2671C9.56445 16.0315 9.95625 14.8331 10.9934 13.8421C12.2955 12.6206 13.7705 12.2058 15.3723 12.6206ZM31.1479 12.7935C32.5998 13.3466 33.8443 14.9599 34.1094 16.5962C34.5703 19.5923 33.8328 21.8048 31.9545 23.0147L31.3438 23.4065V24.9392V26.4833L34.1785 27.1862C35.7342 27.578 37.1746 27.9813 37.382 28.0735C37.8891 28.3386 38.35 28.7995 38.6381 29.3296C38.8686 29.756 38.8916 29.9519 38.8916 31.98C38.8916 34.1694 38.8916 34.1694 38.6266 34.204C38.4883 34.227 37.0018 33.8468 35.3193 33.3743C33.6369 32.8903 31.943 32.4524 31.5512 32.3948C31.1479 32.3372 29.9955 32.0261 28.9814 31.6919C26.0084 30.7354 25.1902 30.5395 23.7268 30.4589C22.5398 30.4013 20.9496 30.5165 20.2352 30.7354C20.0393 30.7931 20.0277 30.747 20.0854 30.263C20.2236 29.3065 20.7883 28.4999 21.618 28.0735C21.8254 27.9813 23.2658 27.578 24.8215 27.1862L27.6562 26.4833V24.9392V23.4065L27.0455 23.0147C25.9393 22.3118 25.1326 21.1134 24.8906 19.8343C24.7408 19.0507 24.7408 17.3222 24.8906 16.4464C25.1787 14.6487 26.3541 13.3005 28.1748 12.6436C28.9354 12.3786 30.226 12.4362 31.1479 12.7935ZM46.5777 12.8972C46.9926 13.0931 47.5803 13.4964 47.8914 13.8075C48.9977 14.9022 49.4355 16.1583 49.4355 18.3362C49.4355 20.5718 48.7441 21.9892 47.1654 23.0147L46.5547 23.4065V24.9392V26.4833L48.8018 27.0364C50.0348 27.3476 51.0488 27.6241 51.0488 27.6587C51.0488 27.7048 41.4844 32.7981 41.1387 32.9364C41.0926 32.9479 41.0234 32.222 40.9889 31.3231C40.9082 29.4794 40.7699 28.8917 40.1707 27.9468C39.8826 27.5089 39.802 27.2899 39.8941 27.2554C39.9748 27.2323 40.4818 27.094 41.0234 26.9673C41.565 26.829 42.1988 26.6677 42.4408 26.6101L42.8672 26.4948V24.9161V23.3374L42.2795 22.9917C40.7238 22.0813 39.9863 20.5026 39.9863 18.0942C39.9863 16.1237 40.4127 14.8907 41.4268 13.8767C42.4408 12.8511 43.501 12.4362 44.8953 12.4938C45.6443 12.5284 45.9785 12.6091 46.5777 12.8972ZM5.88848 26.7483C7.75527 27.8315 9.29941 28.7419 9.32246 28.7649C9.3916 28.8226 5.96914 42.4087 5.88848 42.4087C5.85391 42.4087 4.95508 42.1206 3.89492 41.7634L1.95898 41.1181V32.9479V24.7778H2.23555C2.38535 24.7778 4.0332 25.6651 5.88848 26.7483ZM57.041 32.2104V37.4536L49.0783 41.4407L41.1041 45.4163L40.8045 45.1397C40.0209 44.4253 33.5217 38.5944 32.957 38.1104C32.1504 37.419 31.3438 37.1079 30.3182 37.1079C29.2465 37.1079 28.8316 37.2808 26.5039 38.6636C24.1416 40.0694 23.8766 40.1386 23.2889 39.4702C22.8625 38.9747 22.7934 38.2372 23.1506 37.7878C23.2773 37.6265 24.6947 36.8544 26.5154 35.9556L29.6498 34.3999L30.6984 34.4114C31.6549 34.4229 32.0236 34.5036 34.7432 35.2987C37.2322 36.0362 37.866 36.186 38.5459 36.186H39.3641L48.1104 31.5767C52.9272 29.0415 56.9027 26.9673 56.9604 26.9673C57.0064 26.9673 57.041 29.3296 57.041 32.2104ZM12.4799 30.5856C12.9062 30.8276 13.252 31.0811 13.252 31.1503C13.252 31.3692 9.7834 43.4919 9.69121 43.5841C9.64512 43.6417 9.21875 43.5495 8.73477 43.3882L7.87051 43.0886L9.41465 36.9005C10.2674 33.5011 11.0164 30.5165 11.074 30.2745C11.1893 29.8481 11.2008 29.8366 11.4428 29.9979C11.5811 30.0786 12.042 30.3552 12.4799 30.5856ZM25.8125 32.8558C26.5385 33.0517 27.1607 33.2245 27.1838 33.2476C27.2068 33.2706 26.1236 33.8352 24.7984 34.5036C23.4617 35.172 22.1826 35.8864 21.9521 36.0823C21.1109 36.8313 20.7191 38.1104 20.9611 39.3204C21.2262 40.5995 22.2057 41.5675 23.4848 41.844C24.5795 42.0745 25.1096 41.8901 27.4373 40.5073C28.5551 39.8274 29.6498 39.2282 29.8687 39.1591C30.4334 38.9862 31.0902 39.2052 31.7586 39.7813C33.4871 41.2909 39.2834 46.5226 39.56 46.8222C39.9518 47.2716 39.9748 47.8017 39.6176 48.1358C39.2719 48.4354 38.8801 48.5276 38.5229 48.3894C38.3615 48.3317 37.0363 47.2946 35.5844 46.0847C34.1324 44.8747 32.934 43.8952 32.9225 43.9183C32.8994 43.9413 32.6229 44.287 32.2887 44.6673C31.9545 45.0591 31.6895 45.4048 31.6895 45.4394C31.6895 45.4739 32.7611 46.3958 34.0863 47.479C35.4 48.5737 36.5869 49.5878 36.7367 49.7491C37.3129 50.3714 36.8865 51.2817 36.0107 51.2817C35.5729 51.2817 35.3885 51.155 32.8418 49.0347C31.3553 47.8017 30.1107 46.7876 30.0762 46.7991C30.0416 46.7991 29.742 47.1448 29.4078 47.5597C28.9238 48.1704 28.8316 48.3548 28.9469 48.4585C29.0275 48.5392 30.2029 49.5186 31.5512 50.6364C32.8994 51.7657 34.0518 52.8028 34.1094 52.9642C34.2361 53.2868 34.167 53.5519 33.8443 53.9091C33.5332 54.2548 32.9801 54.2433 32.4385 53.863C31.7932 53.4251 30.0762 51.9616 30.0762 51.8464C30.0762 51.8003 29.8687 51.5468 29.6037 51.3048C29.1428 50.8554 28.5896 50.5558 27.9789 50.429C27.7484 50.3714 27.6447 50.2677 27.5986 50.0372C27.3451 48.7927 26.1236 47.5942 25.098 47.5942C24.8676 47.5942 24.81 47.502 24.6947 47.0296C24.4182 45.8888 23.6115 45.0706 22.4937 44.8056C21.9752 44.6788 21.8945 44.6212 21.8945 44.3677C21.883 43.538 20.9035 42.328 19.9701 42.0169C18.5412 41.5329 17.5271 41.9017 15.9254 43.5149C15.3146 44.1142 14.7961 44.5866 14.75 44.5751C14.7039 44.552 14.0701 44.1833 13.3441 43.7454L12.0189 42.9503L13.298 38.5138L14.5771 34.0657L17.8613 33.3397C19.6705 32.9364 21.5143 32.5561 21.9521 32.5101C23.1275 32.3602 24.3029 32.464 25.8125 32.8558ZM19.5668 44.1372C19.9125 44.4599 19.9816 44.8517 19.7857 45.2435C19.6936 45.4278 19.175 46.004 18.6334 46.5226C17.8037 47.3407 17.6078 47.479 17.2736 47.479C16.8357 47.4675 16.5822 47.3177 16.3863 46.9374C16.1098 46.4304 16.225 46.1999 17.3658 45.0476C18.3684 44.022 18.5182 43.9067 18.8984 43.9067C19.1635 43.9067 19.4055 43.9989 19.5668 44.1372ZM22.102 46.7991C22.5629 46.9604 22.8625 47.5597 22.7012 47.9976C22.6436 48.1589 22.125 48.7581 21.5719 49.3228C20.673 50.2446 20.5002 50.3599 20.143 50.3599C19.6014 50.3599 19.1289 49.8989 19.1289 49.3688C19.1289 49.0347 19.2672 48.8272 20.0277 48.0321C20.8113 47.214 21.4566 46.6724 21.6756 46.6724C21.7102 46.6724 21.9061 46.73 22.102 46.7991ZM25.0404 49.6915C25.4207 49.8874 25.5705 50.1409 25.582 50.5788C25.582 50.913 25.4438 51.1089 24.6371 51.9386C24.107 52.4802 23.5309 52.9987 23.3465 53.0909C22.7242 53.4136 22.0098 52.9526 22.0098 52.2151C22.0098 51.8579 22.1365 51.6851 23.1391 50.6825C24.3029 49.5186 24.5219 49.4034 25.0404 49.6915ZM28.1633 52.7337C28.3707 52.9411 28.4629 53.1601 28.4629 53.4366C28.4629 53.7593 28.3246 53.9667 27.5295 54.7849C26.2389 56.1446 25.6742 56.352 25.1096 55.7067C24.591 55.096 24.7754 54.6351 26.0775 53.379C26.9303 52.5724 27.1377 52.4341 27.4604 52.4341C27.7369 52.4341 27.9559 52.5263 28.1633 52.7337ZM31.2285 55.7874C31.4936 56.4097 30.998 57.0435 30.2605 57.0435C30.007 57.0435 29.0391 56.4097 29.0391 56.2483C29.0391 56.2022 29.2004 56.0179 29.3963 55.822C29.5922 55.6376 29.8457 55.3149 29.9725 55.119L30.2029 54.7388L30.6523 55.096C30.8943 55.2919 31.1594 55.603 31.2285 55.7874Z" fill="black"/>
</svg>
