<svg width="59" height="59" viewBox="0 0 59 59" fill="none" xmlns="http://www.w3.org/2000/svg">
<path d="M28.0586 0.181854C27.3557 0.46994 26.4568 1.09221 25.9613 1.63381C25.0855 2.57873 24.0945 4.24963 23.5645 5.65549C23.4492 5.96662 23.334 6.20861 23.2879 6.20861C23.2533 6.20861 22.8039 6.12795 22.2969 6.03576C20.3494 5.69006 17.5146 5.909 16.2816 6.50822C15.3713 6.94611 14.5877 7.71818 14.1498 8.60549C13.8041 9.30842 13.7695 9.4467 13.7695 10.5299C13.7695 12.6502 14.5762 14.4709 16.8693 17.5477C16.9385 17.6399 16.708 18.0317 16.2125 18.7C15.3137 19.933 14.5301 21.385 14.1037 22.6295C13.8502 23.3901 13.7926 23.7588 13.7811 24.7613C13.7695 25.8446 13.8041 26.0404 14.0807 26.6281C14.726 28.011 15.9936 28.9559 17.6875 29.3131C18.7246 29.5321 20.8564 29.5321 22.1816 29.3131C23.4492 29.1057 23.3916 29.1057 23.3916 29.2901C23.3916 29.5897 24.7744 32.2285 25.293 32.9084C26.7334 34.8328 28.4043 35.6625 30.2135 35.3629C31.4811 35.144 32.6219 34.3488 33.7281 32.8854C34.2352 32.217 35.6064 29.5897 35.6064 29.2901C35.6064 29.1057 35.5719 29.1057 36.7012 29.3131C37.9688 29.5436 40.3541 29.5321 41.4027 29.3016C43.0391 28.9328 44.2951 27.9879 44.9174 26.6281C45.1824 26.0635 45.217 25.8215 45.217 24.8766C45.217 24.2082 45.1363 23.4938 45.0211 23.0328C44.7215 21.9381 43.6729 19.8985 42.7971 18.7231C42.29 18.0432 42.0596 17.6399 42.1287 17.5477C43.6613 15.485 44.5141 13.9985 44.952 12.5465C45.1594 11.8897 45.217 11.3942 45.2285 10.5299C45.2285 9.4467 45.2055 9.31994 44.8482 8.60549C44.4104 7.71818 43.6268 6.94611 42.7164 6.50822C41.3105 5.82834 38.5449 5.67854 36.0559 6.151C35.6525 6.23166 35.641 6.22014 35.4336 5.66701C34.5117 3.21252 32.9445 1.17287 31.3658 0.377754C30.8012 0.0896683 30.5592 0.0435753 29.6143 0.0205269C28.7961 -0.0025177 28.4043 0.0320511 28.0586 0.181854ZM30.3402 2.24455C31.3313 2.76311 32.1148 3.6965 32.9561 5.3674C33.6705 6.80783 33.7166 6.70412 31.9766 7.34943C31.1584 7.64904 30.3172 7.98322 30.1098 8.08694C29.6143 8.35197 29.4068 8.34045 28.6232 7.9717C28.243 7.79885 27.4018 7.46467 26.7334 7.2342C25.316 6.72717 25.3391 6.79631 26.0535 5.34436C27.3557 2.72853 28.9805 1.55315 30.3402 2.24455ZM21.6977 8.06389C22.1586 8.13303 22.5619 8.22522 22.608 8.25979C22.6426 8.30588 22.5619 8.88205 22.4121 9.55041C22.2508 10.2188 22.0664 11.2674 21.9857 11.8897L21.8475 13.0305L21.2598 13.5029C20.9486 13.7565 20.1766 14.4363 19.5543 15.001C18.6439 15.8422 18.402 16.0035 18.2637 15.8883C17.9641 15.6348 16.6965 13.5951 16.3738 12.8115C15.2906 10.2649 15.8207 8.7092 17.9641 8.14455C18.8514 7.91408 20.4877 7.87951 21.6977 8.06389ZM41.3451 8.21369C42.1518 8.46721 42.9123 9.19318 43.0967 9.89611C43.2811 10.576 43.1082 11.6822 42.6357 12.7885C42.3016 13.5951 41.0455 15.6348 40.7344 15.8883C40.5961 16.0035 40.3541 15.8422 39.4438 15.001C38.8215 14.4363 38.0494 13.768 37.7383 13.5029L37.1506 13.0305L37.0008 11.8551C36.9201 11.2098 36.7242 10.1612 36.5859 9.51584C36.4361 8.87053 36.3555 8.30588 36.39 8.25979C36.7242 7.92561 40.308 7.89104 41.3451 8.21369ZM26.0074 9.21623L27.0676 9.58498L25.6617 10.4147C24.8896 10.8756 24.2443 11.2444 24.2328 11.2328C24.2098 11.2098 24.6361 9.20471 24.7168 8.99729C24.7859 8.80139 24.809 8.81291 26.0074 9.21623ZM34.5348 10.069C34.673 10.6912 34.7768 11.2213 34.7652 11.2328C34.7537 11.2559 34.1084 10.8871 33.3363 10.4262L31.942 9.58498L32.933 9.22775C33.4861 9.03186 34.0162 8.88205 34.1084 8.89358C34.2236 8.91662 34.3619 9.27385 34.5348 10.069ZM30.9395 11.4748C33.0021 12.6156 35.0188 13.9985 35.1686 14.3672C35.3068 14.7129 35.3529 20.3248 35.2146 20.9125C35.1455 21.2006 34.8689 21.4311 33.5553 22.3069C32.691 22.883 31.4234 23.6551 30.7436 24.0123L29.499 24.6692L28.266 24.0123C27.5746 23.6551 26.307 22.883 25.4428 22.3069C24.0023 21.3504 23.841 21.2121 23.7719 20.8434C23.6451 20.1865 23.6912 14.7244 23.8295 14.3672C23.9102 14.1598 24.4172 13.7449 25.316 13.1457C26.5145 12.3506 29.3262 10.7028 29.499 10.7028C29.5336 10.7028 30.1789 11.0485 30.9395 11.4748ZM21.5709 17.6168C21.5479 18.5041 21.5018 19.2301 21.4557 19.2301C21.4096 19.2301 21.0178 18.8729 20.5914 18.4465L19.8078 17.6514L20.6836 16.8332C21.1791 16.3723 21.5824 16.0035 21.5939 16.0035C21.5939 16.0035 21.5939 16.7295 21.5709 17.6168ZM38.5219 17.0291L39.1787 17.6629L38.4066 18.4465C37.9803 18.8729 37.5885 19.2301 37.5424 19.2301C37.4963 19.2301 37.4502 18.5041 37.4271 17.6283C37.3926 15.7846 37.2773 15.8422 38.5219 17.0291ZM19.0703 19.933C19.393 20.2557 20.142 20.924 20.7527 21.4311L21.859 22.3529L21.9396 23.125C22.0088 23.8049 22.4697 26.2479 22.6541 26.9047C22.7117 27.1352 22.6541 27.1697 21.9857 27.285C21.0408 27.4463 19.1395 27.4463 18.2637 27.285C17.3994 27.1237 16.8348 26.8356 16.3854 26.3285C15.5787 25.4067 15.6363 24.1276 16.5812 22.1686C17.1113 21.0623 18.2291 19.3453 18.4135 19.3453C18.4596 19.3453 18.7592 19.6104 19.0703 19.933ZM41.2645 20.175C42.6242 22.0994 43.4078 24.3235 43.1082 25.4297C42.8432 26.3977 42.002 27.0545 40.7344 27.285C39.8586 27.4463 37.9572 27.4463 37.0123 27.285C36.3439 27.1697 36.2863 27.1352 36.3439 26.9047C36.5283 26.2479 36.9893 23.8049 37.0584 23.125L37.1391 22.3529L38.2453 21.4311C38.8561 20.924 39.6051 20.2557 39.9277 19.933C40.2389 19.6104 40.5385 19.3453 40.5846 19.3453C40.6307 19.3453 40.9418 19.7256 41.2645 20.175ZM25.9613 25.1301C26.5145 25.4528 26.9293 25.7524 26.8832 25.81C26.8371 25.8561 26.3416 26.052 25.7885 26.2479L24.7859 26.5936L24.6707 26.1672C24.4979 25.5219 24.1982 24.2543 24.1982 24.1506C24.1982 24.093 24.3711 24.1621 24.5785 24.2889C24.7744 24.4272 25.4082 24.7959 25.9613 25.1301ZM34.627 24.9457C34.5232 25.3836 34.3965 25.9367 34.3273 26.1672L34.2121 26.5936L33.175 26.2248C32.5988 26.0174 32.1264 25.81 32.1379 25.7639C32.1379 25.6717 34.7191 24.0699 34.7768 24.1276C34.7998 24.1391 34.7307 24.5194 34.627 24.9457ZM30.8473 27.5731C31.5271 27.8496 32.3914 28.1723 32.7717 28.2875C33.1404 28.4028 33.4631 28.5641 33.4977 28.6332C33.5783 28.8637 32.5643 30.8688 31.9766 31.6524C30.9971 32.966 29.96 33.5422 29.0496 33.2887C28.4389 33.1274 27.6668 32.5051 27.0215 31.6524C26.4568 30.9033 25.4197 28.8752 25.4889 28.6563C25.5119 28.5871 26.0189 28.3682 26.6182 28.1608C27.2174 27.9649 28.0816 27.6307 28.5195 27.4348C28.9689 27.2389 29.3838 27.066 29.4645 27.066C29.5451 27.066 30.1674 27.2965 30.8473 27.5731Z" fill="black"/>
<path d="M28.5188 13.8026C25.4767 14.5977 24.4972 18.4811 26.7903 20.6014C27.6431 21.385 28.2077 21.5924 29.4983 21.5924C30.789 21.5924 31.3536 21.385 32.2063 20.6014C34.2921 18.677 33.7274 15.2545 31.1347 14.0676C30.4433 13.7565 29.1757 13.6297 28.5188 13.8026ZM30.3511 16.0381C31.538 16.718 31.7339 18.0662 30.7774 19.0112C30.305 19.4836 29.7519 19.6449 29.072 19.5182C28.1501 19.3453 27.4126 18.1584 27.6546 17.2481C27.9888 16.0266 29.3024 15.4389 30.3511 16.0381Z" fill="black"/>
<path d="M7.9377 3.02812C6.55488 3.52363 5.875 4.4916 5.875 5.97812C5.875 7.60292 7.1541 8.85898 8.81348 8.84746C10.0465 8.84746 10.9107 8.36347 11.4523 7.36093C11.8672 6.60039 11.9479 5.85136 11.6943 4.9871C11.2449 3.43144 9.43574 2.48652 7.9377 3.02812ZM9.45879 5.27519C9.81602 5.64394 9.86211 5.85136 9.65469 6.24316C9.34355 6.84238 8.69824 6.95761 8.2373 6.49667C7.77637 6.04726 7.88008 5.41347 8.46777 5.07929C8.83652 4.87187 9.10156 4.91796 9.45879 5.27519Z" fill="black"/>
<path d="M50.392 4.94104C49.8043 5.07932 49.0322 5.58635 48.7096 6.05881C48.2832 6.6926 48.168 7.04983 48.168 7.85647C48.168 9.58499 49.401 10.8065 51.141 10.818C52.3279 10.818 53.2037 10.311 53.7453 9.31995C55.0129 6.99221 52.9732 4.31877 50.392 4.94104ZM51.7633 7.21116C52.3395 7.72971 51.9361 8.73225 51.1295 8.74377C50.7031 8.74377 50.2422 8.28284 50.2422 7.84495C50.2422 7.06135 51.1641 6.66956 51.7633 7.21116Z" fill="black"/>
<path d="M2.8002 13.8717C1.60176 14.2405 0.645312 15.1162 0.218945 16.234C0.0115234 16.7871 0 17.2481 0 29.1748V41.528L0.33418 42.2424C0.518555 42.6342 0.875781 43.1528 1.11777 43.3948C1.37129 43.6483 3.28418 44.8352 5.7041 46.241C11.3275 49.5137 11.2354 49.4561 11.5119 50.0438C11.7424 50.4932 11.7539 50.7352 11.7539 53.5239C11.7539 55.2178 11.8115 56.6928 11.8691 56.9348C12.065 57.6147 12.6643 58.3176 13.3557 58.6633L13.9895 58.986H18.2186H22.4477L23.0584 58.6633C23.7498 58.3061 24.3375 57.5571 24.5449 56.785C24.6256 56.4969 24.6602 53.616 24.6371 48.2461L24.6025 40.1451L24.2223 39.3731C24.0148 38.9582 23.6461 38.4282 23.3926 38.1977C23.0814 37.9211 20.7537 36.6996 16.5246 34.5793L10.1291 31.3873H9.0459H7.95117V24.4157C7.95117 16.6143 7.95117 16.5682 7.16758 15.4389C6.21113 14.033 4.36738 13.3762 2.8002 13.8717ZM4.70156 16.0151C5.00117 16.1649 5.32383 16.453 5.5082 16.7295L5.81934 17.202L5.85391 24.9457L5.88848 32.701L5.53125 33.1965C4.79375 34.2682 4.66699 35.8584 5.23164 37.1375C5.76172 38.336 6.17656 38.6125 11.0625 41.0901C14.9805 43.0721 15.5451 43.3256 15.9023 43.268C16.4209 43.1873 16.709 42.8301 16.709 42.277C16.709 42.0235 16.6283 41.7469 16.5131 41.6086C16.3979 41.4819 14.3467 40.3756 11.9498 39.1657C7.98574 37.149 7.55938 36.8955 7.28281 36.4807C6.91406 35.9391 6.87949 35.0518 7.1791 34.4641C7.45566 33.9455 8.18164 33.4961 8.85 33.427C9.36856 33.3809 9.64512 33.5076 15.6143 36.4922C19.0367 38.1977 21.9291 39.6957 22.0328 39.8225C22.5859 40.4332 22.5859 40.3871 22.5859 48.4996C22.5859 56.5545 22.5859 56.6467 22.0674 56.8426C21.9637 56.8772 20.2006 56.9117 18.1494 56.9117C14.6578 56.9117 14.4158 56.9002 14.1623 56.6928C13.8857 56.4739 13.8857 56.4739 13.8281 53.1436L13.7705 49.8248L13.4479 49.168C13.275 48.8108 12.9178 48.3153 12.6643 48.0502C12.3762 47.7621 10.5439 46.6328 7.80137 45.0311C5.38145 43.6137 3.18047 42.3231 2.92695 42.1502C2.0166 41.528 2.07422 42.4844 2.07422 29.0481V17.0752L2.33926 16.6834C2.65039 16.2225 3.38789 15.7731 3.84883 15.7731C4.0332 15.7731 4.41348 15.8883 4.70156 16.0151Z" fill="black"/>
<path d="M53.9178 13.8717C53.1226 14.1252 52.316 14.736 51.832 15.4389C51.0484 16.5682 51.0484 16.6143 51.0484 24.4156V31.3873H49.9537H48.8705L42.475 34.5793C38.2459 36.6996 35.9181 37.9211 35.607 38.1977C35.3535 38.4281 34.9847 38.9582 34.7773 39.3731L34.397 40.1451L34.3625 48.2461C34.3394 53.616 34.374 56.4969 34.4547 56.785C34.6621 57.5571 35.2498 58.3061 35.9412 58.6633L36.5519 58.986H40.781H45.0101L45.6439 58.6633C46.3353 58.3176 46.9345 57.6147 47.1304 56.9348C47.1881 56.6928 47.2457 55.2178 47.2457 53.5239C47.2457 50.7352 47.2572 50.4932 47.4877 50.0438C47.7642 49.4561 47.672 49.5137 53.2955 46.241C57.6513 43.7174 58.1584 43.3487 58.6654 42.3115L58.942 41.7584L58.9765 29.2901C58.9996 16.9369 58.9996 16.8217 58.7691 16.1879C58.0892 14.3787 55.7845 13.2725 53.9178 13.8717ZM55.8883 16.0266C56.1648 16.1764 56.499 16.4414 56.6258 16.6143C56.8678 16.9369 56.8678 17.0291 56.9023 28.9789C56.9369 42.4959 56.9945 41.528 56.0726 42.1502C55.8191 42.3231 53.6181 43.6137 51.1982 45.0311C48.4556 46.6328 46.6234 47.7621 46.3353 48.0502C46.0818 48.3153 45.7246 48.8108 45.5517 49.168L45.2291 49.8248L45.1715 53.1436C45.1138 56.4739 45.1138 56.4739 44.8373 56.6928C44.5838 56.9002 44.3418 56.9117 40.8502 56.9117C38.799 56.9117 37.0359 56.8772 36.9322 56.8426C36.4136 56.6467 36.4136 56.5545 36.4136 48.4996C36.4136 40.3871 36.4136 40.4332 36.9668 39.8225C37.0705 39.6957 39.9513 38.2092 43.3623 36.5037C48.1791 34.0953 49.6541 33.4039 49.9883 33.4039C51.5785 33.4155 52.581 35.1901 51.7168 36.4807C51.4402 36.9071 51.0138 37.149 47.0498 39.1656C44.6529 40.3871 42.6017 41.4703 42.498 41.5625C42.2099 41.8045 42.2215 42.6342 42.5095 42.9799C42.6824 43.1989 42.8437 43.2565 43.2355 43.2565C43.6504 43.2449 44.457 42.8762 48.1099 41.0094C51.809 39.1196 52.5695 38.6817 53.0304 38.2207C53.6181 37.61 54.0215 36.7112 54.1252 35.7662C54.2058 34.9942 53.9062 33.8303 53.4683 33.1965L53.1111 32.701L53.1457 24.9457L53.1803 17.202L53.4914 16.7295C53.814 16.234 54.5861 15.7731 55.0816 15.7731C55.2429 15.7731 55.6117 15.8883 55.8883 16.0266Z" fill="black"/>
</svg>
