<svg width="50" height="53" viewBox="0 0 50 53" fill="none" xmlns="http://www.w3.org/2000/svg">
<path d="M18.834 0.0312805C14.9822 0.637306 11.572 3.37983 10.2059 6.94408C9.63064 8.46428 9.51766 9.18329 9.4663 11.8745C9.41494 14.3088 9.40467 14.4013 9.17869 14.7505C8.7062 15.449 8.57267 15.8907 8.57267 16.8048C8.5624 17.5752 8.60348 17.7601 8.89109 18.3661C9.42521 19.5063 10.5243 20.3485 11.6542 20.4821C12.0753 20.5232 12.1061 20.554 12.1677 20.9032C12.4862 22.7624 13.3695 24.3853 14.7767 25.659L15.506 26.3266L15.4752 27.5489L15.4444 28.761L10.0004 30.8769C7.01138 32.0376 4.30995 33.1264 4.01207 33.2805C2.6973 34.0098 1.39281 35.4067 0.745698 36.8037C0.0472279 38.293 0.0574995 38.1903 0.0164131 44.9491C-0.0246734 51.7899 -0.0452166 51.6667 0.684068 52.2214L1.04357 52.4987L20.5083 52.5295L39.9627 52.55L40.353 52.3343C40.5688 52.2111 40.8461 51.9235 40.9796 51.6872C41.1953 51.3072 41.2261 51.0915 41.2775 49.6843L41.3288 48.1024L42.017 47.8662C45.3656 46.7363 47.9746 43.9116 48.9401 40.3679C49.1866 39.464 49.2175 39.1764 49.2175 37.7076C49.2175 36.2695 49.1866 35.9408 48.9504 35.0678C47.9232 31.1851 44.9855 28.2474 41.2056 27.2716C40.7742 27.1689 40.3325 27.0764 40.2298 27.0764C39.9011 27.0764 39.5313 27.5387 39.5313 27.9393C39.5313 28.4015 39.8395 28.6377 40.7331 28.8637C43.9378 29.6752 46.4647 32.1917 47.3583 35.4786C47.6767 36.629 47.6767 38.7245 47.3583 39.8749C46.8961 41.6005 46.0127 43.0899 44.7698 44.2711C43.5783 45.3907 42.4279 46.0481 40.8564 46.4898C39.8908 46.7671 38.1857 46.8596 37.1688 46.7055C31.6119 45.8324 28.1093 40.1419 29.8863 34.8418C30.8621 31.9246 33.2656 29.6752 36.2752 28.874C36.8196 28.7302 37.2716 28.5453 37.3537 28.4426C37.5797 28.1344 37.4667 27.4873 37.1483 27.2511C36.871 27.0456 36.8504 27.0456 36.0698 27.2202C34.2928 27.6106 32.5877 28.5145 31.2216 29.8087L30.4101 30.5688L28.0682 29.6546L25.716 28.7404L25.6852 27.4976L25.6544 26.2444L26.4145 25.5049C27.6368 24.3237 28.4585 22.8548 28.7769 21.273L28.9207 20.554L29.4035 20.4821C30.1533 20.3793 30.934 19.9479 31.5092 19.3214C32.1563 18.6024 32.4644 17.832 32.4644 16.8562C32.4747 15.9728 32.3412 15.4592 31.9303 14.8224L31.6222 14.3294V12.6654C31.6119 9.71741 31.3551 8.12531 30.6156 6.49213C29.4035 3.78042 27.0821 1.59256 24.391 0.606491C23.1481 0.144268 22.5318 0.0415497 20.837 0.0107346C19.9023 -0.00980759 19.0086 0.000465393 18.834 0.0312805ZM23.1994 1.96235C26.1063 2.88679 28.3044 4.97193 29.3624 7.80689C29.7322 8.7827 29.876 9.72768 29.9479 11.5047L30.0095 13.2406L29.763 13.1789C29.6295 13.1379 29.3932 13.107 29.2392 13.107C28.9824 13.107 28.9516 13.066 28.9516 12.7681C28.9413 12.5935 28.8899 12.3367 28.818 12.2134C28.5715 11.7717 26.0241 9.10112 25.7057 8.94704C25.1511 8.69025 24.7505 8.75188 23.8671 9.26546C20.6829 11.0938 17.9815 11.8642 14.7973 11.8745C13.2257 11.8745 12.8457 11.9566 12.4553 12.3983C12.3321 12.5318 12.1985 12.7475 12.1677 12.8605C12.1266 13.0043 11.9931 13.0968 11.7671 13.1379C11.5925 13.1687 11.3563 13.22 11.2638 13.2611C11.0892 13.333 11.0789 13.22 11.0789 11.8436C11.0789 8.89568 11.6747 7.01598 13.2257 5.07464C14.4994 3.462 16.4921 2.2294 18.5978 1.75691C19.06 1.64392 19.6866 1.61311 20.7856 1.64392C22.1004 1.68501 22.4496 1.7261 23.1994 1.96235ZM26.209 11.7717L27.3081 12.953L27.2876 16.9075L27.2567 20.8621L26.9794 21.6119C26.3734 23.2862 25.2127 24.6523 23.7644 25.4022C22.6242 25.9877 21.8231 26.1931 20.5802 26.1828C17.8685 26.1828 15.5574 24.7756 14.4378 22.4439C14.181 21.9098 13.9139 21.2422 13.8523 20.9648C13.7804 20.6567 13.7085 19.0646 13.6777 16.9794L13.6263 13.5179H14.9719C17.1084 13.5179 19.173 13.1276 21.2992 12.3367C22.3161 11.9566 24.0006 11.1452 24.5861 10.7548C24.7607 10.6419 24.9456 10.5597 24.997 10.57C25.0586 10.5802 25.603 11.1246 26.209 11.7717ZM12.1061 16.8151V18.8797L11.7774 18.8181C10.853 18.6332 10.0723 17.5649 10.1853 16.6405C10.2572 15.9831 10.6989 15.3873 11.3768 15.0381C11.6747 14.884 11.9623 14.7505 12.0137 14.7505C12.065 14.7505 12.1061 15.6852 12.1061 16.8151ZM29.4959 14.8429C29.8657 14.9868 30.4923 15.562 30.6156 15.8701C30.8518 16.4556 30.8826 16.8356 30.7491 17.339C30.6053 17.9142 30.1122 18.4996 29.5987 18.7153C28.931 19.003 28.9516 19.0749 28.9516 16.8048C28.9516 14.5862 28.9413 14.6375 29.4959 14.8429ZM18.5978 27.6311C20.4877 28.0214 22.275 27.8879 23.8466 27.2305C24.0006 27.1689 24.0212 27.2408 24.0212 28.1139L24.0109 29.0794L22.3469 31.1235C21.4327 32.2533 20.6418 33.1675 20.6007 33.1675C20.5494 33.1572 19.7585 32.2122 18.8237 31.0618L17.1392 28.987V28.0831V27.1792L17.4884 27.323C17.6836 27.4051 18.1766 27.5387 18.5978 27.6311ZM17.6014 32.2328C18.4437 33.2702 19.1832 34.1844 19.2654 34.2768C19.3887 34.4206 19.2141 34.5645 17.8479 35.5403C16.9954 36.1463 16.2353 36.6701 16.1737 36.6907C16.0607 36.7318 13.349 31.4419 13.4414 31.3494C13.5236 31.2775 15.8347 30.3736 15.9682 30.3736C16.0401 30.3634 16.7694 31.2056 17.6014 32.2328ZM26.5377 30.8359C27.2157 31.1029 27.7806 31.3289 27.8011 31.3392C27.8525 31.3802 25.1613 36.7318 25.0894 36.7318C24.9662 36.7318 21.8539 34.4515 21.8847 34.3796C21.9771 34.1741 25.11 30.3634 25.2024 30.3634C25.2538 30.3634 25.8495 30.5791 26.5377 30.8359ZM13.3592 35.0267C14.6535 37.6048 14.9308 38.0773 15.2287 38.2622C15.7012 38.5601 16.3483 38.5396 16.9235 38.2211C17.17 38.0773 17.3857 37.9746 17.396 37.9849C17.4063 38.0054 17.5809 38.2622 17.776 38.5601L18.1355 39.0942L17.1289 45.0312C16.5743 48.2873 16.1223 50.9682 16.112 50.9785C16.112 50.999 14.448 51.0093 12.4143 51.0093H8.71647V46.233C8.71647 41.5902 8.7062 41.4464 8.51104 41.2513C8.24398 40.9842 7.68931 40.9842 7.4017 41.2513L7.17573 41.467V46.233V51.0093H4.53592C3.07735 51.0093 1.82422 50.9682 1.75232 50.9169C1.63933 50.8552 1.62906 49.6945 1.6496 44.8874L1.68041 38.9402L1.95775 38.1801C2.44051 36.8653 3.33414 35.7251 4.52565 34.9342C5.01869 34.6158 11.4076 32.0171 11.7466 32.0068C11.8082 32.0068 12.5272 33.3627 13.3592 35.0267ZM28.1196 34.9342C27.5135 37.1118 27.7292 39.9262 28.6742 42.0216C29.3521 43.5418 30.4409 44.9799 31.6838 45.9968L32.4439 46.6233V48.8112V51.0093H28.7667H25.0894L24.7402 48.8831C24.3293 46.4693 24.2472 46.2844 23.6 46.2844C23.1173 46.2844 22.7886 46.5617 22.7886 46.9931C22.7886 47.1575 22.9324 48.1127 23.107 49.1091C23.2714 50.1054 23.3946 50.9477 23.3741 50.9682C23.3535 50.999 22.0901 50.999 20.5699 50.9888L17.8069 50.9579L18.7518 45.4113C19.2757 42.3606 19.6968 39.8338 19.6968 39.7824C19.7071 39.7413 20.1077 39.7105 20.611 39.7105H21.5046L21.8436 41.6827C22.2339 43.9835 22.3264 44.1787 22.994 44.1787C23.3535 44.1787 23.4768 44.1273 23.6411 43.9013L23.8466 43.6343L23.4665 41.3745L23.0762 39.1148L23.4562 38.5396L23.8363 37.9746L24.278 38.2211C24.8429 38.5601 25.5003 38.5601 25.9831 38.2417C26.2604 38.0671 26.5275 37.6254 27.3081 36.0949C27.8422 35.0369 28.2839 34.1844 28.3044 34.1947C28.3147 34.2049 28.2325 34.5439 28.1196 34.9342ZM22.3469 36.8756C22.4394 36.9577 22.388 37.1118 22.1415 37.5227L21.8128 38.0568L20.6213 38.0671H19.4298L19.0703 37.5227L18.7108 36.9783L19.6455 36.3106L20.5802 35.6327L21.4019 36.1976C21.8539 36.5058 22.275 36.8139 22.3469 36.8756ZM36.6758 48.2873C37.1483 48.3695 38.0008 48.4414 38.5863 48.4414H39.634V49.6021C39.634 50.3725 39.5929 50.8039 39.5108 50.886C39.4183 50.9785 38.6582 51.0093 36.7374 51.0093H34.0874V49.2734V47.5375L34.9604 47.8456C35.4432 48.01 36.2136 48.2052 36.6758 48.2873Z" fill="#191919"/>
<path d="M37.1278 29.7472C34.8372 30.158 32.7829 31.5858 31.6017 33.5682C30.9135 34.7289 30.5848 35.8588 30.5232 37.2557C30.4204 39.4847 31.0059 41.2411 32.4234 42.9873C33.2965 44.0453 35.1043 45.1443 36.604 45.5244C37.5489 45.7606 39.4184 45.7709 40.3839 45.5347C44.0303 44.641 46.5161 41.4876 46.5263 37.7488C46.5263 36.3107 46.3106 35.376 45.6841 34.0921C44.6774 32.0378 42.8286 30.5073 40.6099 29.9013C39.8806 29.7061 37.8468 29.6136 37.1278 29.7472ZM40.4558 31.5961C41.5138 31.9556 42.1917 32.3973 43.0443 33.2498C44.3077 34.5235 44.8829 35.9307 44.8829 37.759C44.8726 39.5977 44.092 41.3027 42.695 42.5251C42.0685 43.0695 40.764 43.7371 39.9422 43.9323C39.0383 44.148 37.6619 44.1069 36.758 43.8296C35.8028 43.5317 35.4227 43.3468 34.6421 42.7613C33.5225 41.919 32.5364 40.368 32.2488 39.0122C31.6633 36.2183 33.0911 33.2909 35.659 31.9864C37.1278 31.2468 38.9972 31.103 40.4558 31.5961Z" fill="#191919"/>
<path d="M41.4205 35.1704C41.2972 35.1909 40.4858 35.8894 39.6127 36.7317L38.0309 38.2519L37.3016 37.5431C36.7161 36.9679 36.5107 36.8344 36.2539 36.8344C35.8122 36.8344 35.4219 37.2247 35.4219 37.6766C35.4219 37.954 35.5759 38.1594 36.5312 39.1147C38.0822 40.6657 37.9487 40.6862 40.0338 38.673C42.273 36.4954 42.4066 36.3516 42.4066 35.9921C42.4066 35.8278 42.3655 35.6018 42.3039 35.4991C42.1909 35.2834 41.7389 35.119 41.4205 35.1704Z" fill="#191919"/>
</svg>
