<svg width="59" height="59" viewBox="0 0 59 59" fill="none" xmlns="http://www.w3.org/2000/svg">
<path d="M22.8164 4.78223V9.56446H26.1582H29.5L29.523 12.4914L29.5576 15.4184L33.0492 12.4914L36.5408 9.56446H41.1502H45.748V4.78223V5.72205e-06H34.2822H22.8164V4.78223ZM43.6738 4.78223V7.60547H39.6867H35.6996L33.6023 9.34551L31.5166 11.0971L31.482 9.34551L31.4475 7.60547H28.1172H24.7754V4.78223V1.95899H34.2246H43.6738V4.78223Z" fill="black"/>
<path d="M26.6172 4.78223V5.76172H27.5967H28.5762V4.78223V3.80273H27.5967H26.6172V4.78223Z" fill="black"/>
<path d="M30.4219 4.78223V5.76172H34.2822H38.1426V4.78223V3.80273H34.2822H30.4219V4.78223Z" fill="black"/>
<path d="M39.8711 4.78223V5.76172H40.9082H41.9453V4.78223V3.80273H40.9082H39.8711V4.78223Z" fill="black"/>
<path d="M20.1084 14.2891C17.8498 14.6463 16.0521 16.225 15.3953 18.426C15.257 18.8984 15.2109 19.5322 15.2109 20.9035C15.2109 23.4041 15.4068 24.1186 16.5131 25.5705C17.0547 26.285 17.0662 26.308 17.0316 27.057L16.9971 27.8061L14.9229 28.4053C13.782 28.7279 12.6412 29.1082 12.3762 29.235C11.7539 29.5576 11.1086 30.3066 10.7398 31.1018C10.4633 31.7125 10.4402 31.8854 10.3941 33.902L10.348 36.0684H8.4582H6.56836V39.0068V41.9453H7.54785H8.52734V49.4932V57.041H4.26367H0V58.0205V59H29.5H59V58.0205V57.041H53.7684H48.5367L48.4676 56.6031C48.433 56.3727 48.2717 54.8516 48.1104 53.2383C47.9605 51.625 47.7992 50.1154 47.7646 49.885L47.707 49.4701L48.433 49.2742C50.5764 48.675 52.3395 46.9465 53.077 44.7109C53.2729 44.1348 53.2959 43.4664 53.3305 37.2437L53.365 30.4219H51.4752H49.5854L49.5277 29.2926C49.4586 27.9443 49.159 27.2529 48.3293 26.527L47.7992 26.0545L48.2256 25.559C48.7672 24.9137 49.2742 23.8535 49.424 23.0008C49.4932 22.6205 49.5508 21.6641 49.5508 20.8689C49.5508 18.5643 49.0898 17.2045 47.9029 15.9945C46.7506 14.8307 45.3908 14.2545 43.7891 14.2545C41.2193 14.2545 39.076 15.8217 38.2924 18.2877C38.0619 19.0252 38.0273 19.3709 38.0273 20.8689C38.0273 22.8279 38.1772 23.623 38.7418 24.6947C39.1682 25.4898 40.2975 26.5846 41.1156 26.9879L41.6918 27.276L39.1912 29.7766L36.7021 32.2656H34.0863H31.459L31.4014 31.943C31.1709 30.8828 30.5717 29.9725 29.7305 29.3963C29.4193 29.1889 28.6473 28.8893 27.7715 28.6357C26.9764 28.4053 25.9854 28.1172 25.559 27.9904L24.7754 27.76V27.0109C24.7754 26.285 24.7984 26.2273 25.2363 25.7203C25.9047 24.9598 26.4809 23.7268 26.6307 22.7012C26.8266 21.4451 26.6998 19.0137 26.4117 18.184C25.7549 16.3518 24.3145 14.9574 22.5744 14.4734C21.7447 14.2545 20.8113 14.1738 20.1084 14.2891ZM22.4822 16.6168C23.2773 16.9855 23.9227 17.6309 24.3029 18.4375C24.591 19.0367 24.6025 19.1635 24.6025 20.9727C24.6025 22.7703 24.591 22.9086 24.3145 23.4387C23.6461 24.7639 22.5283 25.4898 21.0648 25.559C20.3043 25.6051 20.0969 25.5705 19.5092 25.3055C18.7602 24.9598 17.9535 24.2338 17.6309 23.623C17.2852 22.9547 17.1354 21.883 17.193 20.4887C17.2506 19.0598 17.4926 18.3107 18.1494 17.5387C19.1865 16.3172 20.9957 15.9254 22.4822 16.6168ZM45.3102 16.6168C46.0707 16.974 46.7275 17.6078 47.1309 18.3914C47.3959 18.91 47.4189 19.1059 47.4535 20.7422C47.4996 22.9547 47.3268 23.5539 46.3934 24.4988C45.5752 25.3055 44.734 25.6281 43.5586 25.559C42.0836 25.4668 41.0119 24.7178 40.3666 23.335C40.067 22.6781 40.0439 22.5514 40.0439 21.0303C40.0439 19.2211 40.1477 18.7256 40.7123 17.8959C41.1271 17.2967 42.0836 16.5822 42.7404 16.3863C43.4434 16.1789 44.5727 16.2826 45.3102 16.6168ZM22.6436 28.4168C22.2979 28.9469 21.5604 29.3848 21.0072 29.3848C19.9932 29.3848 19.1289 28.6818 19.1289 27.8521C19.1289 27.4027 19.1289 27.4027 19.5092 27.4719C20.2928 27.6447 21.399 27.6562 22.0674 27.518L22.7588 27.3682L22.7934 27.7484C22.8164 27.9674 22.7473 28.2555 22.6436 28.4168ZM44.9875 27.7715C45.3678 27.9098 45.6559 28.4859 45.5637 28.8893C45.5176 29.1082 44.3191 30.3758 42.0836 32.6344L38.6727 36.0684H33.441H28.2209L27.9443 35.7803C27.783 35.6305 27.6562 35.3654 27.6562 35.2041C27.6562 35.0428 27.783 34.7777 27.9443 34.6279L28.2209 34.3398H32.8648H37.5088L40.6201 31.217C42.3371 29.5 43.8928 27.9904 44.0771 27.8752C44.4689 27.6217 44.5842 27.6102 44.9875 27.7715ZM18.1494 30.2605C19.0137 31.0902 19.7857 31.4014 20.9727 31.4014C22.1365 31.3898 22.7357 31.1594 23.6691 30.2951L24.2684 29.742L26.3771 30.3527C28.6012 30.998 29.0045 31.2285 29.258 31.9314C29.3732 32.2656 29.3732 32.2656 28.9238 32.2656C27.6908 32.2656 26.6537 32.7727 26.1121 33.6369C25.7779 34.1555 25.6051 35.0312 25.7088 35.6305L25.7779 36.0684H19.1059H12.4453V34.1324C12.4453 31.2746 12.5029 31.2055 15.6027 30.2951C16.6168 29.9955 17.4926 29.7535 17.5271 29.742C17.5617 29.7305 17.8383 29.9725 18.1494 30.2605ZM47.3729 41.7264C47.177 42.4062 46.6354 43.04 45.967 43.3742L45.3563 43.6738H41.2885H37.2207V42.8096V41.9453H38.6035H39.9863V39.7904V37.6355L43.5471 34.0518C45.5291 32.0582 47.1654 30.3182 47.2576 30.0992C47.3959 29.7766 47.4189 30.4334 47.4535 35.5152C47.4766 39.2719 47.442 41.4613 47.3729 41.7264ZM51.2793 38.0043C51.2793 42.9479 51.2563 43.6969 51.0834 44.2039C50.7146 45.2986 50.0809 46.1168 49.1475 46.7275C47.9836 47.4766 47.9721 47.4766 42.3256 47.4766H37.2207V46.6123V45.748H41.1156C45.3908 45.748 46.1168 45.6674 47.0963 45.0912C48.3063 44.3883 49.2166 43.0977 49.4355 41.7609C49.5047 41.3922 49.5508 39.1221 49.5508 36.7252V32.3809H50.415H51.2793V38.0043ZM38.0273 39.0068V39.8711H23.335H8.64258V39.0068V38.1426H23.335H38.0273V39.0068ZM35.1465 42.8096V43.6738H25.1787H15.2109V44.7109V45.748H25.1787H35.1465V51.3945V57.041H34.0748H33.0146L32.0582 55.1396L31.1133 53.2383H22.8395H14.5771L13.6207 55.1396L12.6758 57.041H11.5811H10.4863V51.3945V45.748H11.9268H13.3672V44.7109V43.6738H11.9268H10.4863V42.8096V41.9453H22.8164H35.1465V42.8096ZM41.9453 49.7467C41.9453 49.8619 42.1066 51.4867 42.291 53.3535C42.4754 55.2203 42.6367 56.8221 42.6367 56.8912C42.6367 57.0064 42.0145 57.041 39.9287 57.041H37.2207V53.2959V49.5508H39.583C41.7609 49.5508 41.9453 49.5623 41.9453 49.7467ZM45.748 49.7467C45.748 49.8619 45.9094 51.4867 46.0938 53.3535C46.2781 55.2203 46.4395 56.8221 46.4395 56.8912C46.4395 56.9949 46.1859 57.041 45.5752 57.041H44.7225L44.6648 56.6607C44.6303 56.4648 44.4689 54.9207 44.3076 53.2383C44.1463 51.5559 43.9965 50.0463 43.9619 49.8619L43.9158 49.5508H44.8262C45.6328 49.5508 45.748 49.5738 45.748 49.7467ZM30.226 56.0615C30.4564 56.5455 30.6523 56.9604 30.6523 56.9834C30.6523 57.018 27.1262 57.041 22.8164 57.041H14.9805L15.4414 56.1191L15.9023 55.1973H22.851H29.7996L30.226 56.0615Z" fill="black"/>
</svg>
