<svg width="59" height="59" viewBox="0 0 59 59" fill="none" xmlns="http://www.w3.org/2000/svg">
<path d="M36.561 0.172852C29.7276 1.41738 25.4294 8.43516 27.3768 15.1879C28.0567 17.5271 29.6585 19.9125 31.3754 21.1455L32.0208 21.6064L32.0323 25.5475V29.5H33.1846H34.337V31.6895V33.8789H38.7159H43.0948V31.6895V29.5H44.2932H45.4917L45.434 25.6051L45.3764 21.7217L46.2061 21.0879C47.1626 20.3504 48.7413 18.5873 48.7413 18.2531C48.7413 18.1494 47.4161 17.2852 47.2547 17.2852C47.2086 17.2852 47.0128 17.5041 46.8169 17.7807C46.2753 18.5297 45.0883 19.659 44.2817 20.1891L43.5557 20.65V22.0789V23.5078H38.7159H33.876V22.0328C33.876 20.5924 33.8645 20.5463 33.611 20.4311C33.0579 20.1775 31.5944 18.8869 30.9606 18.0918C30.2116 17.1469 29.3473 15.476 29.0938 14.4619C28.4139 11.8 28.7942 9.06894 30.1655 6.74121C30.8108 5.64648 32.4702 3.92949 33.4381 3.36484C35.3971 2.2125 37.0911 1.77461 39.2229 1.87832C40.9053 1.95898 41.6428 2.14336 43.1524 2.88086C45.2036 3.89492 46.7131 5.39297 47.7157 7.43262C48.4762 8.97676 48.6491 9.67969 48.7067 11.4889C48.7758 13.1021 48.6145 14.1854 48.142 15.3723C48.0268 15.6834 47.9461 15.9484 47.9577 15.96C47.9807 15.9715 48.361 16.1443 48.7989 16.3402L49.6055 16.6975L49.8129 16.2135C50.7003 14.2084 50.8501 10.9127 50.1817 8.58496C48.9026 4.13691 45.1805 0.841209 40.6749 0.115234C39.6723 -0.0345726 37.5866 -0.0115242 36.561 0.172852ZM43.671 26.5039V27.6562H38.7735H33.876V26.5039V25.3516H38.7735H43.671V26.5039ZM41.251 30.7676V32.0352H38.7159H36.1807V30.7676V29.5H38.7159H41.251V30.7676Z" fill="black"/>
<path d="M21.9084 2.38536C21.6548 2.82325 21.4935 3.20353 21.5281 3.24962C21.5742 3.28419 22.4384 3.80275 23.4525 4.37892C24.4666 4.96661 25.4576 5.54279 25.665 5.65802L26.0222 5.88849L26.4947 5.11642C26.7482 4.69005 26.9326 4.29825 26.898 4.25216C26.8634 4.19454 23.3373 2.13185 22.45 1.64786C22.4039 1.62482 22.1619 1.959 21.9084 2.38536Z" fill="black"/>
<path d="M53.457 3.35331C52.3508 3.9871 51.3367 4.58631 51.1869 4.6785L50.9219 4.85135L51.3482 5.62342C51.5787 6.04979 51.7861 6.40702 51.8092 6.43006C51.8322 6.46464 56.2227 3.96405 56.3494 3.83729C56.407 3.7912 55.658 2.3162 55.5312 2.24706C55.4967 2.22401 54.5633 2.71952 53.457 3.35331Z" fill="black"/>
<path d="M40.1371 11.5465L38.0283 13.6553L36.6455 12.2725L35.2627 10.8896L34.6059 11.558L33.9375 12.2148L35.9887 14.266L38.0283 16.3057L40.817 13.517L43.6172 10.7168L42.9834 10.083C42.6377 9.7373 42.3266 9.44922 42.292 9.44922C42.2574 9.44922 41.2895 10.3941 40.1371 11.5465Z" fill="black"/>
<path d="M19.1289 12.2148V13.1367H21.7793H24.4297V12.2148V11.293H21.7793H19.1289V12.2148Z" fill="black"/>
<path d="M53.125 12.9062V13.8281H55.7754H58.4258V12.9062V11.9844H55.7754H53.125V12.9062Z" fill="black"/>
<path d="M23.3102 19.9701L21.0977 21.2607L21.4549 21.8945C22.0541 22.9777 21.8352 23.0008 24.3588 21.5488C25.6033 20.8344 26.6059 20.2121 26.5943 20.1775C26.3523 19.6474 25.7301 18.668 25.6379 18.6795C25.5803 18.6795 24.5316 19.2672 23.3102 19.9701Z" fill="black"/>
<path d="M51.0142 20.0162C50.7722 20.4311 50.6224 20.8228 50.6685 20.8574C50.9796 21.1455 55.0819 23.4041 55.1857 23.3465C55.3239 23.2543 56.0038 22.0789 56.0038 21.9176C56.0038 21.8139 51.7056 19.2441 51.5327 19.2441C51.4866 19.2441 51.2562 19.5898 51.0142 20.0162Z" fill="black"/>
<path d="M36.8174 35.7803C36.5062 35.8725 35.0773 36.4025 33.6484 36.9672L31.0557 37.9813L29.9033 37.4396C28.3016 36.6791 27.2068 36.4025 25.4553 36.3334C24.349 36.2873 23.7844 36.3219 23.0354 36.4717C21.2492 36.8289 19.5207 37.6586 18.2301 38.7648L17.6078 39.2949H16.5822H15.5566V37.8545V36.4141H7.77832H0V47.707V59H7.77832H15.5566V57.5596V56.1191H18.2992C20.9727 56.1191 21.2607 56.1422 31.6779 57.2715C37.5434 57.9053 42.3947 58.4238 42.4639 58.4238C42.6828 58.4238 49.9541 52.4316 49.9541 52.2473C49.9541 52.1666 49.7236 51.7979 49.4471 51.4521L48.94 50.8184L48.4676 51.1986C48.2025 51.4176 46.6584 52.6852 45.0105 54.0219C42.8096 55.8311 41.9568 56.4648 41.7264 56.4648C41.565 56.4648 36.8635 55.9693 31.2861 55.3701C21.3414 54.2984 21.0879 54.2754 18.3568 54.2754H15.5566V50.5303V46.7852H14.6348H13.7129V51.9707V57.1563H7.77832H1.84375V47.707V38.2578H7.77832H13.7129V41.7148V45.1719H14.6348H15.5566V43.0977V41.0234H17.0777H18.5873L19.2326 40.4127C20.0393 39.6406 21.2262 38.9377 22.4131 38.5229C23.2658 38.2348 23.4732 38.2002 25.0059 38.2117C26.527 38.2117 26.7689 38.2348 27.6562 38.5344C28.1978 38.7072 29.1197 39.1105 29.7074 39.4217C30.2951 39.7328 30.8367 39.9863 30.9174 39.9863C31.0096 39.9863 32.473 39.4447 34.1785 38.7764C35.884 38.108 37.4627 37.5318 37.6932 37.4973C38.2578 37.4051 39.0529 37.7623 39.4678 38.3039C40.1246 39.1566 39.8941 40.5855 39.0299 41.1271C38.8225 41.2539 36.3103 42.3371 33.441 43.5471C30.5602 44.757 28.1633 45.7826 28.0941 45.8172C27.9443 45.9209 41.5766 49.7928 41.8877 49.7467C42.0145 49.7236 45.0221 47.9375 48.5713 45.7826C52.1205 43.6277 55.1857 41.8301 55.3816 41.784C55.8656 41.6803 56.4418 41.9223 56.8451 42.3947C57.2484 42.8787 57.283 43.7199 56.9143 44.1693C56.7875 44.3422 55.2434 45.6559 53.4918 47.0848C51.7402 48.5137 50.2883 49.7352 50.2652 49.7928C50.2191 49.908 51.2562 51.1641 51.3945 51.1641C51.5213 51.1641 58.0896 45.7711 58.3316 45.46C59.0576 44.5381 59.2305 42.9594 58.7234 41.8877C58.0436 40.4242 56.3957 39.6176 54.8631 39.9863C54.5404 40.067 53.7338 40.4473 53.077 40.8506L51.89 41.5766L51.9937 41.0926C52.5353 38.7533 50.1961 36.5523 47.8107 37.1516C46.9119 37.382 46.209 37.8775 45.7826 38.5689C45.5867 38.8686 44.5381 41.035 43.4318 43.3742C42.3371 45.702 41.3807 47.6379 41.3115 47.6609C41.2539 47.684 39.4908 47.223 37.4051 46.6238C34.3744 45.7711 33.6484 45.5291 33.8328 45.4369C33.948 45.3678 35.3193 44.7801 36.875 44.1348C39.8596 42.8787 40.3896 42.6021 40.8275 42.0145C41.4152 41.2424 41.6342 40.6547 41.6918 39.6982C41.7609 38.4191 41.4613 37.6355 40.5625 36.7482C40.0209 36.2066 39.7789 36.0453 39.1336 35.8494C38.2348 35.5729 37.6355 35.5498 36.8174 35.7803ZM49.0322 38.9492C49.3318 38.9492 50.0117 39.6521 50.1269 40.0785C50.2422 40.4473 50.2076 40.6777 49.8619 41.7725L49.4816 43.0285L46.8889 44.6072C45.4715 45.4715 44.2846 46.1629 44.2615 46.1398C44.1693 46.0592 47.3037 39.6176 47.5687 39.3525C47.8684 39.0529 48.4561 38.8225 48.7211 38.9031C48.8133 38.9262 48.9516 38.9492 49.0322 38.9492Z" fill="black"/>
<path d="M6.67091 48.1104C5.9795 48.3293 5.05762 49.159 4.71192 49.8619C4.51602 50.2768 4.44688 50.6225 4.44688 51.2908C4.43536 52.0399 4.48145 52.2473 4.78106 52.835C5.17286 53.5955 5.94493 54.2754 6.68243 54.4944C8.3418 54.9899 10.1279 54.2063 10.8193 52.6621C11.1305 51.9707 11.142 50.611 10.8424 49.9426C10.5313 49.2627 9.95509 48.652 9.29825 48.3293C8.5838 47.9606 7.43145 47.8684 6.67091 48.1104ZM8.35333 49.9426C8.87188 50.1615 9.21759 50.7377 9.21759 51.383C9.21759 51.8094 9.14845 51.9477 8.76817 52.328C8.3879 52.7082 8.24962 52.7774 7.83477 52.7774C6.22149 52.7774 5.67989 50.853 7.0627 50.0117C7.50059 49.7352 7.82325 49.7237 8.35333 49.9426Z" fill="black"/>
</svg>
