<svg width="56" height="57" viewBox="0 0 56 57" fill="none" xmlns="http://www.w3.org/2000/svg">
<path d="M24.0176 1.02416C11.9756 2.66049 2.46877 11.7871 0.336937 23.7714C-0.0202895 25.7765 -0.112477 29.8904 0.152562 31.9531C0.6135 35.4331 1.56994 38.4753 3.16018 41.4945C3.80549 42.6929 4.98088 44.5597 5.17678 44.6865C5.28049 44.7441 6.79006 43.7646 6.79006 43.6378C6.79006 43.6148 6.45588 43.0962 6.05256 42.474C4.22034 39.6738 2.96428 36.4933 2.2844 32.9326C1.92717 31.1003 1.84651 27.2285 2.12307 25.2003C3.49436 14.8869 10.9039 6.40561 20.9408 3.6515C24.6629 2.63744 28.9266 2.49916 32.7293 3.25971C35.0686 3.73217 37.0391 4.42358 39.3553 5.58744C40.1389 5.97924 40.7957 6.27885 40.8188 6.24428C40.9801 6.02533 41.7061 4.72318 41.7061 4.64252C41.7061 4.42358 38.1338 2.78725 36.4629 2.23412C33.2479 1.18549 31.0008 0.828262 27.4977 0.851311C26.2186 0.862831 24.6514 0.931973 24.0176 1.02416Z" fill="black"/>
<path d="M45.2908 2.87943C45.1525 2.99467 44.8645 3.58236 44.634 4.18158C43.8734 6.24428 43.1936 6.92416 41.1309 7.68471C39.8518 8.16869 39.6328 8.37611 39.6328 9.13666C39.6328 9.89721 39.8518 10.1046 41.1309 10.5886C43.1936 11.3492 43.8734 12.029 44.634 14.0917C45.118 15.3708 45.3254 15.5898 46.0859 15.5898C46.8465 15.5898 47.0539 15.3708 47.5379 14.0917C48.2984 12.029 48.9783 11.3492 51.041 10.5886C52.3201 10.1046 52.5391 9.89721 52.5391 9.13666C52.5391 8.37611 52.3201 8.16869 51.041 7.68471C49.6236 7.16615 48.84 6.63608 48.333 5.87553C48.1141 5.55287 47.7568 4.7808 47.5379 4.18158C47.0539 2.90248 46.8465 2.68354 46.0859 2.68354C45.7287 2.68354 45.4521 2.75268 45.2908 2.87943ZM46.5469 6.72826C46.9963 7.5349 47.8721 8.37611 48.6557 8.79096C48.9553 8.95229 49.1973 9.10209 49.1973 9.13666C49.1973 9.17123 48.8746 9.37865 48.4943 9.5976C47.6877 10.047 46.8465 10.9228 46.4316 11.7064C46.2703 12.006 46.1205 12.248 46.0859 12.248C46.0514 12.248 45.9016 12.006 45.7402 11.7064C45.3254 10.9228 44.4842 10.047 43.6775 9.5976C43.2973 9.37865 42.9746 9.17123 42.9746 9.13666C42.9746 9.10209 43.2166 8.95229 43.5162 8.79096C44.2998 8.37611 45.1756 7.5349 45.625 6.72826C45.8439 6.34799 46.0514 6.03686 46.0859 6.03686C46.1205 6.03686 46.3279 6.34799 46.5469 6.72826Z" fill="black"/>
<path d="M24.6039 9.30951C18.3928 10.3236 13.0574 14.23 10.2688 19.7958C9.7502 20.8445 9.03574 22.7113 8.92051 23.322L8.83984 23.7253L9.77324 23.9443C10.2918 24.0595 10.7182 24.1287 10.7412 24.1056C10.7527 24.0826 10.9141 23.587 11.0984 23.0224C11.5018 21.7433 12.4582 19.7843 13.2303 18.6781C16.3186 14.2415 21.1699 11.4529 26.4131 11.1187C30.4348 10.8537 34.1453 11.8677 37.4986 14.1263C38.9391 15.1058 41.1055 17.2953 42.085 18.7587C43.7098 21.2132 44.7008 23.9673 44.9889 26.7906L45.0695 27.5742H43.9633C42.6611 27.5742 42.3961 27.724 42.3961 28.473C42.3961 28.8648 42.5805 29.1644 43.8941 30.916C44.7238 32.0222 45.4613 32.9671 45.542 33.0132C45.7264 33.1285 46.4408 33.1285 46.6252 33.0132C46.7059 32.9671 47.4434 32.0222 48.273 30.916C49.5867 29.1644 49.7711 28.8648 49.7711 28.473C49.7711 27.724 49.5061 27.5742 48.1693 27.5742H47.0285L46.9479 26.6753C46.752 24.4283 46.049 21.9507 45.0004 19.865C42.3154 14.4835 37.5102 10.7615 31.5525 9.47084C30.1121 9.14818 26.1365 9.06752 24.6039 9.30951ZM46.533 29.9365C46.3256 30.2245 46.1297 30.455 46.0836 30.455C46.0375 30.455 45.8416 30.2245 45.6342 29.9365L45.2654 29.4179H46.0836H46.9018L46.533 29.9365Z" fill="black"/>
<path d="M49.8867 13.6999C49.4719 13.988 49.1492 14.2646 49.1607 14.3222C49.1838 14.3798 49.3797 14.714 49.5986 15.0712C50.2209 16.0392 51.3041 18.2632 51.7881 19.5538C53.5512 24.3015 53.8508 29.8788 52.5947 34.7878C50.29 43.7992 43.3299 50.8746 34.3531 53.3406C30.8615 54.297 26.7361 54.4814 23.0947 53.8361C21.9193 53.6402 19.9143 53.0871 18.7043 52.6376C17.4482 52.1652 15.1781 51.0589 14.2447 50.4712C13.9105 50.2638 13.5879 50.0564 13.5188 50.0103C13.4381 49.9642 13.173 50.2638 12.8504 50.7363C12.5623 51.1742 12.3203 51.566 12.3203 51.589C12.3203 51.6121 12.8158 51.9347 13.415 52.2919C16.7338 54.274 20.7094 55.5992 24.6389 56.0486C26.4711 56.256 30.5734 56.1292 32.3711 55.8066C43.9291 53.7554 52.9059 44.7902 54.957 33.2206C55.3143 31.2156 55.4064 27.1017 55.1414 25.039C54.6344 21.1671 53.3783 17.5142 51.4424 14.2646C51.0852 13.6654 50.751 13.1699 50.7164 13.1814C50.6703 13.1814 50.3016 13.4119 49.8867 13.6999Z" fill="black"/>
<path d="M24.2033 15.8087C23.9844 16.0277 23.8691 16.5232 23.8115 17.5488C23.7885 18.0212 23.7539 18.0673 23.3621 18.2171L22.9242 18.39L22.2328 17.7331C21.6451 17.1915 21.4607 17.0878 21.1035 17.0878C20.7117 17.0878 20.5389 17.2376 18.4646 19.3119C16.3904 21.3861 16.2406 21.5589 16.2406 21.9507C16.2406 22.308 16.3443 22.4923 16.8859 23.0685L17.5312 23.7714L17.3699 24.2554L17.1971 24.7509L16.1369 24.8085C15.2496 24.8546 15.0422 24.9007 14.9039 25.0851C14.7771 25.2695 14.7426 25.9378 14.7426 28.5191C14.7426 32.2872 14.685 32.1144 15.9756 32.2412C16.4019 32.2757 16.8629 32.3218 16.9896 32.3333C17.1279 32.3449 17.2662 32.5062 17.3814 32.7943L17.5428 33.2206L16.8859 33.9005C16.3328 34.4882 16.2406 34.6496 16.2406 35.0183C16.2406 35.4331 16.3559 35.583 18.4646 37.6802C20.5389 39.7544 20.7117 39.9042 21.1035 39.9042C21.4607 39.9042 21.6451 39.8005 22.2213 39.2589L22.9242 38.6136L23.4082 38.7749L23.9037 38.9478L23.9613 40.008C24.0074 40.8953 24.0535 41.1027 24.2379 41.241C24.4223 41.3677 25.0906 41.4023 27.6719 41.4023C30.6795 41.4023 30.8869 41.3908 31.0943 41.1833C31.3133 40.9644 31.4285 40.4689 31.4861 39.4433C31.5092 38.9708 31.5437 38.9247 31.9355 38.7749L32.3734 38.6021L33.0648 39.2589C33.6525 39.8005 33.8369 39.9042 34.1941 39.9042C34.5859 39.9042 34.7588 39.7544 36.833 37.6802C38.9418 35.583 39.057 35.4331 39.057 35.0183C39.057 34.6496 38.9648 34.4882 38.4117 33.9005L37.7549 33.2206L37.9508 32.7021L38.1582 32.1835H39.1262C40.6357 32.1835 40.5551 32.391 40.5551 28.496C40.5551 25.4654 40.5436 25.2579 40.3361 25.0505C40.1287 24.8431 39.6908 24.7509 38.4809 24.6587C38.1352 24.6357 38.066 24.5781 37.9277 24.2093L37.7549 23.7714L38.4117 23.08C38.9533 22.4923 39.057 22.308 39.057 21.9507C39.057 21.5589 38.9072 21.3861 36.833 19.3119C34.7357 17.2031 34.5859 17.0878 34.1711 17.0878C33.8023 17.0878 33.641 17.18 33.0648 17.7331L32.385 18.3785L31.8894 18.2171L31.3939 18.0443L31.3363 16.9841C31.2902 16.0968 31.2441 15.8894 31.0598 15.7511C30.8754 15.6244 30.207 15.5898 27.6258 15.5898C24.6182 15.5898 24.4107 15.6013 24.2033 15.8087ZM29.5156 18.1826C29.5502 18.8509 29.6078 18.9777 29.9535 19.3349C30.3799 19.7728 31.8894 20.4296 32.4541 20.4296C32.8689 20.4181 33.641 20.0724 33.9176 19.7497L34.148 19.4962L35.3811 20.7292L36.6256 21.9738L36.2914 22.354C35.5769 23.1722 35.5769 23.9558 36.2914 25.4423C36.7293 26.3412 37.0635 26.5716 37.9853 26.6292L38.7113 26.6753V28.496V30.3167L37.9853 30.3628C37.0635 30.4205 36.7293 30.6509 36.2914 31.5497C35.5769 33.0363 35.5769 33.8199 36.2914 34.638L36.6256 35.0183L35.3926 36.2513L34.1596 37.4728L33.7908 37.1386C32.9957 36.4242 32.1891 36.4242 30.7025 37.1386C29.8037 37.5765 29.5732 37.9107 29.5156 38.8326L29.4695 39.5585H27.6488H25.8281L25.782 38.8326C25.7244 37.9107 25.4939 37.5765 24.5951 37.1386C23.1086 36.4242 22.325 36.4242 21.5068 37.1386L21.1266 37.4728L19.882 36.2283L18.649 34.9953L18.9025 34.7648C19.2252 34.4882 19.5709 33.7162 19.5824 33.3013C19.5824 32.7367 18.9256 31.2271 18.4877 30.8007C18.1305 30.455 18.0037 30.3974 17.3353 30.3628L16.5863 30.3167V28.496V26.6753L17.3353 26.6292C18.0037 26.5947 18.1305 26.5371 18.4877 26.1913C18.9141 25.7765 19.5824 24.2669 19.5824 23.7138C19.5824 23.3105 19.2828 22.6191 18.9486 22.2734L18.6605 21.9738L19.9051 20.7408L21.1496 19.4962L21.3801 19.7497C21.6566 20.0724 22.4287 20.4181 22.8436 20.4296C23.4082 20.4296 24.9178 19.7728 25.3441 19.3349C25.6898 18.9777 25.7475 18.8509 25.782 18.1826L25.8281 17.4335H27.6488H29.4695L29.5156 18.1826Z" fill="black"/>
<path d="M25.629 21.34C23.1399 22.0544 21.0887 24.1402 20.4549 26.6062C20.2129 27.5396 20.2129 29.4525 20.4549 30.3859C21.1118 32.921 23.3127 35.1105 25.8133 35.6982C26.7583 35.9171 28.5329 35.9171 29.4778 35.6982C31.3907 35.2488 33.269 33.7738 34.1793 32.0107C34.8131 30.7777 35.0206 29.9249 35.0206 28.496C35.0206 27.0671 34.8131 26.2144 34.1793 24.9814C33.2805 23.2414 31.4598 21.8009 29.5354 21.3054C28.5674 21.0519 26.5508 21.0749 25.629 21.34ZM29.3165 23.3105C30.5725 23.7484 31.7364 24.6933 32.3932 25.8456C33.292 27.3898 33.292 29.6023 32.3932 31.1464C30.5379 34.3499 26.2051 34.88 23.7045 32.2066C22.6905 31.1234 22.2295 29.971 22.2295 28.496C22.2295 26.5947 23.1629 24.9238 24.7762 23.8751C26.0323 23.08 27.9452 22.838 29.3165 23.3105Z" fill="black"/>
<path d="M8.66934 25.8226C8.58867 25.8687 7.85117 26.8136 7.02148 27.9199C5.74238 29.6253 5.52344 29.9826 5.52344 30.3398C5.52344 31.1003 5.68477 31.1925 7.14824 31.2617L8.43887 31.3193L8.64629 32.3564C9.07266 34.615 10.0982 37.1501 11.3543 39.063C14.2352 43.488 18.4643 46.3804 23.7535 47.5328C24.7906 47.7517 25.2861 47.7863 27.5908 47.7978C29.9416 47.7978 30.3795 47.7632 31.4973 47.5328C37.5355 46.2421 42.6059 42.2781 45.1641 36.8851C45.9938 35.122 46.0053 35.2603 45.0258 34.9031C44.5648 34.7417 44.15 34.6035 44.1039 34.6035C44.0693 34.6035 43.7582 35.1566 43.4355 35.8365C42.41 37.9913 41.3498 39.4663 39.5982 41.1257C36.3602 44.2255 32.1887 45.8964 27.6945 45.908C25.7355 45.908 24.249 45.689 22.4629 45.1359C18.0148 43.7646 14.2812 40.6302 12.1725 36.4703C11.458 35.0644 11.0201 33.9236 10.6975 32.5869C10.3633 31.181 10.3172 31.2617 11.458 31.2617C12.6219 31.2617 12.8984 31.0888 12.8984 30.3628C12.8984 29.971 12.7141 29.6714 11.4004 27.9199C10.5707 26.8136 9.8332 25.8687 9.75254 25.8226C9.67188 25.7765 9.42988 25.7304 9.21094 25.7304C8.99199 25.7304 8.75 25.7765 8.66934 25.8226ZM9.66035 28.8994L10.0291 29.4179H9.21094H8.39277L8.76152 28.8994C8.96895 28.6113 9.16484 28.3808 9.21094 28.3808C9.25703 28.3808 9.45293 28.6113 9.66035 28.8994Z" fill="black"/>
<path d="M8.42734 43.4996C8.30059 43.6494 8.08164 44.0527 7.94336 44.4214C7.48242 45.6544 7.00996 46.1269 5.77695 46.5878C4.84355 46.9335 4.60156 47.1986 4.60156 47.8554C4.60156 48.5122 4.84355 48.7773 5.77695 49.123C7.00996 49.5839 7.48242 50.0564 7.94336 51.2894C8.28906 52.2228 8.5541 52.4648 9.21094 52.4648C9.86777 52.4648 10.1328 52.2228 10.4785 51.2894C10.9395 50.0564 11.4119 49.5839 12.6449 49.123C13.5783 48.7773 13.8203 48.5122 13.8203 47.8554C13.8203 47.1986 13.5783 46.9335 12.6449 46.5878C11.4119 46.1269 10.9395 45.6544 10.4785 44.4214C10.1328 43.488 9.86777 43.246 9.21094 43.246C8.80762 43.246 8.61172 43.3037 8.42734 43.4996ZM9.53359 46.8644C9.6834 47.0833 9.98301 47.383 10.202 47.5328C10.4094 47.6826 10.5938 47.8208 10.5938 47.8554C10.5938 47.89 10.4094 48.0283 10.1904 48.1781C9.97148 48.3163 9.67188 48.616 9.53359 48.8349C9.38379 49.0538 9.24551 49.2382 9.21094 49.2382C9.17637 49.2382 9.03809 49.0538 8.88828 48.8464C8.73848 48.6275 8.43887 48.3279 8.21992 48.1781C8.0125 48.0283 7.82812 47.89 7.82812 47.8554C7.82812 47.8208 8.0125 47.6826 8.21992 47.5328C8.43887 47.383 8.73848 47.0833 8.88828 46.8644C9.03809 46.657 9.17637 46.4726 9.21094 46.4726C9.24551 46.4726 9.38379 46.657 9.53359 46.8644Z" fill="black"/>
</svg>
