<svg width="59" height="59" viewBox="0 0 59 59" fill="none" xmlns="http://www.w3.org/2000/svg">
<path d="M1.20996 0.195896C0.70293 0.460938 0.460938 0.70293 0.218945 1.17539C0.0115234 1.57871 0 1.94746 0 7.77832C0 13.6092 0.0115234 13.9779 0.218945 14.3812C0.472461 14.8652 0.714453 15.1072 1.23301 15.3723C1.54414 15.5221 2.03965 15.5566 4.26367 15.5566H6.91406V21.883V28.2209L7.21367 28.4514C7.51328 28.6934 7.62852 28.6934 13.3211 28.6934H19.1289V30.4795V32.2656H18.5527C18.1148 32.2656 17.9766 32.2195 17.9766 32.0928C17.9766 31.7816 16.9164 30.8252 16.4094 30.6754C15.3607 30.3643 14.4619 30.5832 13.7129 31.3438C12.6297 32.4154 12.6297 33.9596 13.7129 35.0312C14.4619 35.7918 15.3607 36.0107 16.4094 35.6996C16.9164 35.5498 17.9766 34.5934 17.9766 34.2822C17.9766 34.1555 18.1033 34.1094 18.5412 34.1094H19.1059L19.152 36.0453C19.1865 37.9812 19.1865 37.9928 19.5322 38.5574C19.7512 38.9031 20.0969 39.2488 20.4426 39.4678L21.0072 39.8135L23.358 39.848L25.6973 39.8826V44.9529V50.0117H20.627H15.5566V47.5342C15.5566 45.3217 15.5336 44.999 15.3377 44.6187C15.0842 44.1348 14.8422 43.8928 14.3236 43.6277C14.001 43.4664 13.2404 43.4434 7.77832 43.4434C2.31621 43.4434 1.55566 43.4664 1.23301 43.6277C0.714453 43.8928 0.472461 44.1348 0.218945 44.6187C0.0115234 45.0221 0 45.3908 0 51.2217C0 57.0525 0.0115234 57.4213 0.218945 57.8246C0.472461 58.3086 0.714453 58.5506 1.23301 58.8156C1.55566 58.977 2.31621 59 7.77832 59C13.2404 59 14.001 58.977 14.3236 58.8156C14.8422 58.5506 15.0842 58.3086 15.3377 57.8246C15.5336 57.4443 15.5566 57.1217 15.5566 54.6211V51.8555H21.2607H26.9764L27.2529 51.5674L27.541 51.2908V45.5752V39.8711H29.8457H32.1504V41.7725C32.1504 43.4088 32.1273 43.6738 31.9775 43.6738C31.6664 43.6738 30.71 44.734 30.5602 45.241C30.249 46.2896 30.468 47.1885 31.2285 47.9375C32.3002 49.0207 33.8443 49.0207 34.916 47.9375C35.6766 47.1885 35.8955 46.2896 35.5844 45.241C35.4346 44.734 34.4781 43.6738 34.167 43.6738C34.0172 43.6738 33.9941 43.4088 33.9941 41.784V39.8941L35.9877 39.848C37.9006 39.8135 37.9928 39.802 38.4998 39.5023C39.076 39.1682 39.583 38.5229 39.7559 37.9006C39.825 37.6816 39.8711 36.0914 39.8711 34.3744V31.2285H45.1143H50.3574V37.3359V43.4434H47.707C45.3217 43.4434 44.999 43.4664 44.6188 43.6623C43.6277 44.1693 43.4434 44.6418 43.4434 46.716C43.4434 48.3754 43.4434 48.3869 43.743 48.6174C44.1348 48.917 44.4805 48.9285 44.8607 48.6289C45.1373 48.41 45.1488 48.3408 45.1949 46.958C45.218 45.9785 45.2756 45.483 45.3793 45.3793C45.5982 45.1604 56.8451 45.1604 57.0641 45.3793C57.283 45.5982 57.283 56.8451 57.0641 57.0641C56.8451 57.283 45.5982 57.283 45.3793 57.0641C45.2641 56.9488 45.218 56.1652 45.1719 53.9758C45.1143 51.2332 45.1027 51.0143 44.8953 50.8645C44.5611 50.6225 43.9504 50.657 43.6738 50.9336C43.4549 51.1525 43.4434 51.3139 43.4434 54.2754C43.4434 57.1102 43.4664 57.4328 43.6623 57.8246C43.9158 58.3086 44.1578 58.5506 44.6764 58.8156C44.999 58.977 45.7596 59 51.2217 59C57.0525 59 57.4213 58.9885 57.8246 58.7811C58.3086 58.5275 58.5506 58.2855 58.8156 57.767C58.977 57.4443 59 56.6838 59 51.2217C59 45.3908 58.9885 45.0221 58.7811 44.6187C58.5275 44.1348 58.2855 43.8928 57.767 43.6277C57.4559 43.4779 56.9719 43.4434 54.8055 43.4434H52.2127L52.1781 36.7021L52.1436 29.9725L51.8785 29.7074L51.6135 29.4424L45.748 29.4078L39.8711 29.3732V28.002V26.6191H41.8647L43.8467 26.6307L44.1463 27.1262C44.3422 27.4373 44.6764 27.76 45.0105 27.9559C45.483 28.2439 45.702 28.29 46.3818 28.29C47.3613 28.29 48.0527 27.9443 48.5828 27.1838C48.8939 26.7344 48.917 26.6191 48.917 25.6973C48.917 24.7754 48.8939 24.6602 48.5828 24.2107C48.0527 23.4502 47.3613 23.1045 46.3818 23.1045C45.702 23.1045 45.483 23.1506 45.0105 23.4387C44.6764 23.6346 44.3422 23.9572 44.1463 24.2684L43.8467 24.7639L41.8647 24.7754H39.8941L39.848 22.8971C39.8135 21.0303 39.8135 21.0072 39.4678 20.4426C39.2488 20.0969 38.9031 19.7512 38.5574 19.5322C37.9928 19.1865 37.9813 19.1865 35.9877 19.152L33.9941 19.1059V13.8742V8.64258H38.7188H43.4434V11.293C43.4434 13.517 43.4779 14.0125 43.6277 14.3236C43.8928 14.8422 44.1348 15.0842 44.6188 15.3377C45.0221 15.5451 45.3908 15.5566 51.2217 15.5566C57.0525 15.5566 57.4213 15.5451 57.8246 15.3377C58.3086 15.0842 58.5506 14.8422 58.8156 14.3236C58.977 14.001 59 13.2404 59 7.77832C59 2.31621 58.977 1.55566 58.8156 1.23301C58.5506 0.714451 58.3086 0.472462 57.8246 0.218945C57.4213 0.0115242 57.0525 0 51.2217 0C45.3908 0 45.0221 0.0115242 44.6188 0.218945C44.1348 0.472462 43.8928 0.714451 43.6277 1.23301C43.4779 1.54414 43.4434 2.03965 43.4434 4.26367V6.91406H38.0273H32.6229L32.3809 7.16758C32.1504 7.40957 32.1504 7.53633 32.1504 13.275V19.1289H29.8457H27.541V17.458C27.541 16.0291 27.5641 15.7871 27.7139 15.7871C28.025 15.7871 28.9814 14.727 29.1313 14.2199C29.4424 13.1713 29.2234 12.2725 28.4629 11.5234C27.3912 10.4402 25.8471 10.4402 24.7754 11.5234C24.0148 12.2725 23.7959 13.1713 24.107 14.2199C24.2568 14.727 25.2133 15.7871 25.5244 15.7871C25.6742 15.7871 25.6973 16.0291 25.6973 17.4465V19.1174L23.358 19.152L21.0072 19.1865L20.4426 19.5322C20.0969 19.7512 19.7512 20.0969 19.5322 20.4426L19.1865 21.0072L19.152 23.9342L19.1174 26.8496H13.8742H8.64258V21.2031V15.5566H11.293C13.6783 15.5566 14.001 15.5336 14.3813 15.3377C15.3723 14.8307 15.5566 14.3582 15.5566 12.2955C15.5566 10.7168 15.5451 10.6361 15.2916 10.3941C14.9805 10.1061 14.4504 10.0715 14.1162 10.325C13.9088 10.4748 13.8742 10.6707 13.8281 11.9844C13.7936 12.9869 13.7244 13.517 13.6207 13.6207C13.4018 13.8396 2.15488 13.8396 1.93594 13.6207C1.71699 13.4018 1.71699 2.15488 1.93594 1.93594C2.15488 1.71699 13.4018 1.71699 13.6207 1.93594C13.7359 2.05117 13.782 2.78867 13.8051 4.95508L13.8396 7.82441L14.1393 8.06641C14.5195 8.36602 14.8652 8.35449 15.257 8.05488L15.5566 7.82441V4.71309C15.5566 2.07422 15.5336 1.54414 15.3723 1.23301C15.1072 0.714451 14.8652 0.472462 14.3813 0.218945C13.9779 0.0115242 13.6092 0 7.75527 0C2.32773 0.0115242 1.50957 0.0345688 1.20996 0.195896ZM57.0641 1.93594C57.283 2.15488 57.283 13.4018 57.0641 13.6207C56.8451 13.8396 45.5982 13.8396 45.3793 13.6207C45.2641 13.5055 45.218 12.3186 45.1949 8.08945C45.1834 5.12793 45.1949 2.53516 45.2295 2.32773C45.2756 2.08574 45.3908 1.91289 45.5522 1.84375C45.6904 1.78613 48.2832 1.75156 51.36 1.76308C55.7389 1.78613 56.9488 1.8207 57.0641 1.93594ZM27.1377 12.8486C27.299 12.9984 27.4258 13.2289 27.4258 13.3672C27.4258 13.6783 26.9303 14.1738 26.6191 14.1738C26.308 14.1738 25.8125 13.6783 25.8125 13.3672C25.8125 13.0561 26.308 12.5605 26.6191 12.5605C26.7574 12.5605 26.9879 12.6873 27.1377 12.8486ZM37.4857 21.0994C37.6471 21.1686 37.8314 21.3529 37.9006 21.5143C38.085 21.9061 38.085 37.0939 37.9006 37.4857C37.8314 37.6471 37.6471 37.8314 37.4857 37.9006C37.0939 38.085 21.9061 38.085 21.5143 37.9006C21.3529 37.8314 21.1686 37.6471 21.0994 37.4857C20.915 37.0939 20.915 21.9061 21.0994 21.5027C21.1686 21.3529 21.3414 21.1686 21.4797 21.1109C21.8369 20.9381 37.117 20.9266 37.4857 21.0994ZM46.8773 25.1211C47.3729 25.5936 47.0271 26.5039 46.3588 26.5039C45.99 26.5039 45.6328 26.1121 45.6328 25.6973C45.6328 24.9943 46.3818 24.6602 46.8773 25.1211ZM16.0752 32.6689C16.2365 32.8188 16.3633 33.0492 16.3633 33.1875C16.3633 33.3143 16.2365 33.5562 16.0752 33.7061C15.9254 33.8674 15.6949 33.9941 15.5566 33.9941C15.4299 33.9941 15.1879 33.8674 15.0381 33.7061C14.8768 33.5562 14.75 33.3143 14.75 33.1875C14.75 33.0492 14.8768 32.8188 15.0381 32.6689C15.1879 32.5076 15.4299 32.3809 15.5566 32.3809C15.6949 32.3809 15.9254 32.5076 16.0752 32.6689ZM13.6207 45.3793C13.8396 45.5982 13.8396 56.8451 13.6207 57.0641C13.4018 57.283 2.15488 57.283 1.93594 57.0641C1.8207 56.9488 1.77461 55.7619 1.75156 51.5328C1.72852 48.5713 1.75156 45.9785 1.78613 45.7711C1.83223 45.5291 1.94746 45.3562 2.10879 45.2871C2.24707 45.2295 4.83984 45.1949 7.9166 45.2064C12.2955 45.2295 13.5055 45.2641 13.6207 45.3793ZM33.5908 45.5752C33.7521 45.725 33.8789 45.9555 33.8789 46.0938C33.8789 46.4049 33.3834 46.9004 33.0723 46.9004C32.7611 46.9004 32.2656 46.4049 32.2656 46.0938C32.2656 45.7826 32.7611 45.2871 33.0723 45.2871C33.2105 45.2871 33.441 45.4139 33.5908 45.5752Z" fill="black"/>
<path d="M47.2557 3.81426L46.8984 4.17148V7.77832V11.3852L47.2557 11.7424L47.6129 12.0996H51.2197H54.8266L55.1838 11.7424L55.541 11.3852V7.77832V4.17148L55.1838 3.81426L54.8266 3.45703H51.2197H47.6129L47.2557 3.81426ZM53.8125 7.77832V10.3711H51.2197H48.627V7.77832V5.18555H51.2197H53.8125V7.77832Z" fill="black"/>
<path d="M23.2543 22.7703C22.5744 23.1275 22.5859 23.0699 22.5859 29.523C22.5859 35.1695 22.5975 35.4461 22.8049 35.7688C23.2428 36.4256 23.0815 36.4025 29.477 36.4141C34.7547 36.4141 35.4346 36.391 35.7227 36.2297C36.4371 35.8033 36.4141 35.9762 36.4141 29.5C36.4141 23.0354 36.4256 23.116 35.7227 22.7588C35.4807 22.632 35.0313 22.5859 34.1094 22.5859C32.9109 22.5859 32.8188 22.5975 32.5537 22.874C32.3693 23.0469 32.2656 23.2889 32.2656 23.5078C32.2656 23.7268 32.3693 23.9688 32.5537 24.1416C32.7957 24.3951 32.934 24.4297 33.7061 24.4297H34.5703V29.5V34.5703H29.5H24.4297V29.5V24.4297H27.1377H29.8572L30.1338 24.1416C30.3182 23.9688 30.4219 23.7268 30.4219 23.5078C30.4219 23.2889 30.3182 23.0469 30.1338 22.874L29.8572 22.5859H26.7113C24.1531 22.5975 23.5078 22.632 23.2543 22.7703Z" fill="black"/>
<path d="M3.81426 47.2576L3.45703 47.6148V51.2217V54.8285L3.81426 55.1857L4.17148 55.543H7.77832H11.3852L11.7424 55.1857L12.0996 54.8285V51.2217V47.6148L11.7424 47.2576L11.3852 46.9004H7.77832H4.17148L3.81426 47.2576ZM10.3711 51.2217V53.8145H7.77832H5.18555V51.2217V48.6289H7.77832H10.3711V51.2217Z" fill="black"/>
<path d="M3.81426 3.81426L3.45703 4.17148V7.77832V11.3852L3.81426 11.7424L4.17148 12.0996H7.77832H11.3852L11.7424 11.7424L12.0996 11.3852V7.77832V4.17148L11.7424 3.81426L11.3852 3.45703H7.77832H4.17148L3.81426 3.81426ZM10.3711 7.77832V10.3711H7.77832H5.18555V7.77832V5.18555H7.77832H10.3711V7.77832Z" fill="black"/>
<path d="M47.2557 47.2576L46.8984 47.6148V51.2217V54.8285L47.2557 55.1857L47.6129 55.543H51.2197H54.8266L55.1838 55.1857L55.541 54.8285V51.2217V47.6148L55.1838 47.2576L54.8266 46.9004H51.2197H47.6129L47.2557 47.2576ZM53.8125 51.2217V53.8145H51.2197H48.627V51.2217V48.6289H51.2197H53.8125V51.2217Z" fill="black"/>
</svg>
