<svg width="59" height="48" viewBox="0 0 59 48" fill="none" xmlns="http://www.w3.org/2000/svg">
<path d="M2.88281 0.303314C1.8457 0.660542 1.03906 1.44413 0.716406 2.40058C0.612695 2.68867 0.578125 8.02402 0.578125 23.6613V44.5303L0.854688 45.1064C1.16582 45.7748 1.88027 46.4662 2.64082 46.8234L3.1709 47.0654H20.8594H38.5479L39.0779 46.8234C39.8385 46.4662 40.5529 45.7748 40.8641 45.1064C41.1406 44.5303 41.1406 44.5187 41.1406 39.6559V34.7699L41.6822 35.2539C42.3736 35.8646 42.823 36.0605 43.5605 36.0605C44.2289 36.0605 44.8742 35.8301 45.2891 35.4268L45.5887 35.1387L46.257 35.8186L46.9254 36.4869L46.741 37.0285C46.6373 37.3281 46.5566 37.8928 46.5566 38.2846C46.5566 39.5291 46.741 39.7711 50.44 43.4586C53.5629 46.5584 53.7934 46.7658 54.3811 46.9387C55.6602 47.3189 56.7664 47.0654 57.6191 46.2127C58.4949 45.3369 58.76 44.1385 58.3566 42.9055C58.1838 42.41 57.7574 41.9375 54.865 39.0221C51.1891 35.323 50.9471 35.1387 49.7025 35.1387C49.3107 35.1387 48.7461 35.2193 48.4465 35.323L47.9049 35.5074L47.2365 34.8391L46.5566 34.1707L46.8332 33.8711C47.2826 33.3986 47.4785 32.8916 47.4785 32.2002C47.4785 31.3475 47.2941 30.9441 46.5105 30.1029L45.8537 29.3885L46.0842 28.9275C47.4324 26.2887 47.7781 22.5666 46.9484 19.4668C46.6027 18.1646 45.7385 16.2863 44.9779 15.2146C44.2635 14.2121 42.8807 12.7832 41.9242 12.0687L41.1521 11.5041L41.1176 6.98691C41.083 2.76933 41.0715 2.43515 40.8525 2.00879C40.5529 1.39804 39.9191 0.775776 39.2277 0.441597L38.6631 0.165035L21.0322 0.141987C5.22207 0.118938 3.34375 0.130463 2.88281 0.303314ZM38.5248 1.6746C39.0088 1.9166 39.3891 2.27382 39.6195 2.70019C39.7924 2.9998 39.8154 3.57597 39.85 6.94081L39.8846 10.8357L39.4467 10.6168C38.11 9.93691 35.7477 9.4414 33.8232 9.4414C28.557 9.4414 23.8785 12.3684 21.5854 17.116C21.2512 17.8189 20.8248 18.9137 20.6635 19.5359C20.3754 20.5961 20.3523 20.8496 20.3523 22.9814C20.3408 24.998 20.3754 25.4014 20.5943 26.2311C21.1359 28.2822 21.8734 29.7687 23.1641 31.4281C25.9758 35.0695 30.6889 37.0631 35.2521 36.533C36.923 36.3371 37.8564 36.0721 39.7348 35.2885C39.8615 35.2309 39.8846 36.049 39.85 39.702C39.8154 44.7838 39.8385 44.6455 38.8475 45.3369L38.352 45.6826H20.8709H3.38984L2.89434 45.36C2.6293 45.1871 2.30664 44.876 2.19141 44.6686C1.96094 44.3113 1.96094 43.9426 1.96094 23.6383C1.96094 1.31738 1.92637 2.67714 2.56016 2.1125C3.27461 1.45566 1.99551 1.50175 20.8363 1.49023C36.5658 1.49023 38.1906 1.50175 38.5248 1.6746ZM35.9897 10.9971C38.4787 11.435 40.9102 12.7486 42.6732 14.6154C47.6053 19.8471 47.0406 28.0748 41.4402 32.5574C40.357 33.4217 38.375 34.4473 37.1074 34.793C35.667 35.1848 33.973 35.323 32.5787 35.1617C30.9193 34.9658 29.8822 34.6547 28.4072 33.9287C23.8555 31.6586 21.2166 26.934 21.6775 21.8982C22.1154 17.1621 25.2268 13.1519 29.7324 11.5041C30.251 11.3197 31.0691 11.0893 31.5531 11.0086C32.7516 10.7896 34.7797 10.7896 35.9897 10.9971ZM45.6232 31.2783C46.0035 31.6932 46.0957 31.8775 46.0957 32.2232C46.0957 32.6266 46.0035 32.7533 45.0471 33.6637C44.1482 34.5394 43.9523 34.6777 43.6066 34.6777C43.2955 34.6777 43.0881 34.574 42.7309 34.2283L42.2584 33.7904L43.3416 32.7072C43.9408 32.108 44.5516 31.4281 44.7129 31.1977C44.8742 30.9557 45.0355 30.7598 45.0701 30.7598C45.1162 30.7598 45.3582 30.9902 45.6232 31.2783ZM50.5322 36.7289C50.9586 36.9594 56.9162 43.0322 57.0314 43.3549C57.5615 44.7377 56.1557 46.1436 54.7729 45.6135C54.3926 45.4752 48.3543 39.5061 48.0893 39.0105C47.709 38.2846 47.9855 37.1668 48.6539 36.7635C49.207 36.4178 49.9561 36.4062 50.5322 36.7289Z" fill="black"/>
<path d="M5.79638 5.86914C5.1165 6.27246 5.0704 6.50293 5.0704 9.2916C5.0704 12.9676 5.00126 12.8984 8.71181 12.8984C12.3763 12.8984 12.2726 13.0022 12.2726 9.26856C12.2726 5.50039 12.4108 5.63867 8.61962 5.63867C6.38407 5.63867 6.13056 5.66172 5.79638 5.86914ZM10.8897 9.26856V11.458L8.67724 11.4926L6.45321 11.5156V9.26856V7.02149L8.67724 7.04453L10.8897 7.0791V9.26856Z" fill="black"/>
<path d="M14.6339 6.94082C14.4264 7.04453 14.3343 7.19434 14.3112 7.45937C14.2305 8.21992 13.4585 8.17383 25.4198 8.17383C35.1456 8.17383 36.2979 8.15078 36.4593 7.98945C36.6897 7.77051 36.6897 7.36719 36.4823 7.06758C36.321 6.84863 36.0559 6.84863 25.6157 6.82559C17.169 6.80254 14.8643 6.82559 14.6339 6.94082Z" fill="black"/>
<path d="M14.4273 10.5016C14.243 10.6859 14.243 11.3082 14.4273 11.4926C14.6232 11.6885 21.7908 11.6885 21.9867 11.4926C22.0674 11.4119 22.125 11.193 22.125 10.9971C22.125 10.8012 22.0674 10.5822 21.9867 10.5016C21.7908 10.3057 14.6232 10.3057 14.4273 10.5016Z" fill="black"/>
<path d="M5.79637 15.4336C5.11649 15.8369 5.0704 16.0674 5.0704 18.8561C5.0704 22.5666 5.00125 22.4975 8.86161 22.4398C12.4223 22.3937 12.2725 22.5551 12.2725 18.7869C12.2725 15.0764 12.3993 15.2031 8.61961 15.2031C6.38407 15.2031 6.13055 15.2262 5.79637 15.4336ZM10.8897 18.833V21.0225L8.67723 21.057L6.45321 21.0801V18.833V16.5859L8.67723 16.609L10.8897 16.6436V18.833Z" fill="black"/>
<path d="M14.5436 16.5398C14.2555 16.7357 14.1864 17.358 14.4284 17.6C14.5321 17.7037 15.2926 17.7383 17.1248 17.7383C19.9481 17.7383 20.0518 17.7152 20.0518 17.0469C20.0518 16.4131 19.8098 16.3555 17.1709 16.3555C15.212 16.3555 14.7625 16.39 14.5436 16.5398Z" fill="black"/>
<path d="M14.4273 20.066C14.243 20.2504 14.243 20.8727 14.4273 21.057C14.5311 21.1607 15.2109 21.1953 16.7781 21.1953C19.175 21.1953 19.3594 21.1492 19.3594 20.5615C19.3594 19.9738 19.175 19.9277 16.7781 19.9277C15.2109 19.9277 14.5311 19.9623 14.4273 20.066Z" fill="black"/>
<path d="M5.79638 24.998C5.1165 25.4014 5.0704 25.6318 5.0704 28.432C5.0704 32.0734 5.00126 32.0158 8.70028 32.0158C11.2354 32.0273 11.5466 31.9582 12.0306 31.3014C12.2495 31.0018 12.2726 30.7943 12.3071 28.5934C12.3532 25.8508 12.2726 25.4475 11.6503 25.0326C11.27 24.7791 11.1778 24.7676 8.71181 24.7676C6.38407 24.7676 6.13056 24.7906 5.79638 24.998ZM10.9243 28.3629L10.8897 30.5869L8.67724 30.6215L6.45321 30.6445V28.3975V26.1504H8.70028H10.9474L10.9243 28.3629Z" fill="black"/>
<path d="M14.5453 26.1043C14.2111 26.3348 14.1881 27.0147 14.5108 27.1875C14.649 27.2566 15.64 27.3027 16.9307 27.3027C19.3391 27.3027 19.4774 27.2682 19.4774 26.6113C19.4774 25.9891 19.2123 25.9199 16.8846 25.9199C15.1906 25.9199 14.7527 25.9545 14.5453 26.1043Z" fill="black"/>
<path d="M14.4282 29.6305C14.2439 29.8149 14.2554 30.4717 14.4513 30.633C14.555 30.7252 15.4423 30.7598 17.4128 30.7367L20.213 30.7022L20.3859 30.4025C20.5357 30.126 20.5357 30.0684 20.3628 29.7918L20.1669 29.4922H17.3667C15.3386 29.4922 14.532 29.5268 14.4282 29.6305Z" fill="black"/>
<path d="M5.93887 34.4473C5.81211 34.4933 5.58164 34.6777 5.42031 34.8506C5.13223 35.1502 5.13223 35.1732 5.09766 37.6508C5.05156 40.4971 5.1207 40.9119 5.68535 41.2461C6.01953 41.4535 6.28457 41.4766 8.71602 41.4766C11.2742 41.4766 11.3895 41.465 11.7006 41.223C12.2652 40.7851 12.3344 40.4279 12.3229 37.9389C12.3229 35.3691 12.2422 34.9889 11.6545 34.5971C11.2742 34.3435 11.182 34.332 8.71602 34.3435C7.31016 34.3435 6.06562 34.3896 5.93887 34.4473ZM10.9285 37.9273L10.8939 40.1514H8.70449H6.51504L6.48047 37.9273L6.45742 35.7148H8.70449H10.9516L10.9285 37.9273Z" fill="black"/>
<path d="M14.4736 35.6687C14.2432 35.8992 14.2432 36.4523 14.4736 36.6828C14.635 36.8441 15.2803 36.8672 19.8205 36.8672H24.9945L25.1674 36.6137C25.4094 36.268 25.3979 35.9914 25.1213 35.7148C24.9023 35.4959 24.741 35.4844 19.7744 35.4844C15.2688 35.4844 14.635 35.5074 14.4736 35.6687Z" fill="black"/>
<path d="M14.5436 39.1258C14.2555 39.3217 14.1864 39.9439 14.4284 40.1859C14.5321 40.2897 16.5602 40.3242 22.829 40.3242C31.9209 40.3242 31.46 40.3588 31.46 39.6328C31.46 38.9184 31.7711 38.9414 22.875 38.9414C15.7536 38.9414 14.7741 38.9645 14.5436 39.1258Z" fill="black"/>
<path d="M31.752 13.3248C29.09 13.8895 26.6471 15.6525 25.2873 17.9688C24.9992 18.4412 24.6074 19.3285 24.4115 19.9277C24.0543 20.9764 24.0428 21.0916 24.0312 22.9238C24.0312 25.1018 24.158 25.724 24.907 27.3027C25.9902 29.5844 27.8916 31.3705 30.1848 32.2463C31.4754 32.7418 32.282 32.8801 33.8262 32.8801C34.5867 32.8801 35.5201 32.8109 35.9004 32.7303C41.4662 31.5203 44.8311 25.966 43.3906 20.3887C42.6301 17.4617 40.2793 14.8344 37.4445 13.7742C35.7391 13.1289 33.4689 12.9561 31.752 13.3248ZM36.1885 14.7998C38.5393 15.5258 40.4406 17.1391 41.4893 19.294C42.5264 21.4258 42.6531 23.5691 41.8811 25.8277C40.9937 28.432 38.6775 30.5869 36.0156 31.2783C33.734 31.8775 31.1758 31.4627 29.1937 30.1721C28.1451 29.4807 26.866 28.0863 26.2898 26.9686C24.4346 23.3963 25.3104 18.9713 28.3756 16.4707C29.2744 15.7447 30.9338 14.9035 31.9248 14.6846C32.9158 14.4656 35.3127 14.5233 36.1885 14.7998Z" fill="black"/>
<path d="M36.1279 18.3029C35.8514 18.4297 34.9641 19.2248 33.95 20.2504L32.2215 21.9904L31.9334 21.7715C30.3432 20.6537 28.0039 21.8406 28.0039 23.7766C28.0039 24.6408 28.2229 25.0211 29.4904 26.3002C30.1588 26.9916 30.8502 27.6254 31.023 27.7176C31.5186 27.9711 32.3137 28.0402 32.9244 27.8789C33.4199 27.7406 33.7656 27.441 36.3469 24.8943C38.2021 23.0621 39.2854 21.8982 39.4236 21.5986C39.8385 20.7229 39.6426 19.559 38.9742 18.8561C38.2482 18.084 37.0729 17.865 36.1279 18.3029ZM37.9256 19.801C38.3635 20.2389 38.3635 20.6768 37.9256 21.2645C37.3148 22.0941 32.7977 26.473 32.4635 26.5537C31.9219 26.692 31.6568 26.5307 30.5045 25.3668C29.3061 24.1453 29.2139 23.9379 29.5596 23.2811C29.7555 22.8893 30.3086 22.6357 30.7119 22.7395C30.8732 22.7855 31.2074 22.993 31.4494 23.2119C32.2215 23.9033 32.2676 23.8803 34.6299 21.541C36.5889 19.5936 36.7502 19.4668 37.1535 19.4668C37.4762 19.4668 37.6721 19.5475 37.9256 19.801Z" fill="black"/>
</svg>
