<svg width="55" height="59" viewBox="0 0 55 59" fill="none" xmlns="http://www.w3.org/2000/svg">
<path d="M12.4634 0.195887C11.6568 0.610731 11.3917 1.07167 11.0806 2.58124C10.3546 6.01522 7.11655 8.83847 3.22163 9.46073C1.7812 9.67968 1.05522 10.1867 0.755613 11.1662C0.594285 11.6963 0.686472 24.0033 0.859324 24.7523C0.916941 25.0289 1.06675 25.317 1.18198 25.4092C1.45854 25.6166 2.04624 25.6281 2.3228 25.4207C2.54175 25.2709 2.54175 25.0289 2.50718 18.3914L2.4726 11.5234L2.74917 11.4197C2.88745 11.3621 3.406 11.2469 3.87846 11.1777C4.95014 11.0049 6.63257 10.4057 7.62358 9.86405C10.3662 8.31991 12.5095 5.40448 12.9359 2.65038C13.0857 1.63632 11.5646 1.7285 27.5015 1.7285C43.4384 1.7285 41.9173 1.63632 42.0671 2.65038C42.4935 5.40448 44.6369 8.31991 47.3794 9.86405C48.3705 10.4057 50.0529 11.0049 51.1246 11.1777C51.597 11.2469 52.1156 11.3621 52.2539 11.4197L52.5304 11.5234L52.4958 18.3338L52.4613 25.1441L52.7263 25.3631C53.0835 25.6512 53.4638 25.6396 53.8326 25.317C54.0976 25.0865 54.1322 24.9482 54.2359 23.6807C54.2935 22.9201 54.3511 19.8433 54.3511 16.8473C54.3511 12.1918 54.3281 11.3391 54.1783 10.9703C53.798 10.0715 53.1642 9.67968 51.7814 9.46073C47.7943 8.82694 44.6484 6.01522 43.8763 2.38534C43.6113 1.1869 43.2425 0.564636 42.5972 0.230457C42.1478 -1.14441e-05 41.9749 -1.14441e-05 27.4785 -1.14441e-05C14.3302 0.0115128 12.7746 0.023035 12.4634 0.195887Z" fill="black"/>
<path d="M16.1869 3.94102C15.5185 4.11387 14.8156 4.8168 14.2509 5.88848C13.525 7.23672 12.6146 8.42364 11.4162 9.56446C10.1601 10.7744 8.83493 11.6732 7.08337 12.4914C5.61989 13.1713 5.15895 13.5977 4.91696 14.4619C4.69802 15.234 4.82477 23.1506 5.07829 24.9482C5.66598 29.0506 6.657 32.2887 8.48923 36.0107C10.0334 39.1566 11.7504 41.7609 13.9744 44.3076C17.1549 47.9375 21.5683 51.4406 25.6246 53.5494C26.6617 54.0795 26.8922 54.1602 27.4799 54.1602C28.298 54.1602 29.2775 53.7107 31.49 52.3395C41.8035 45.9324 48.3258 36.2412 49.9275 24.9482C50.181 23.1506 50.3078 15.234 50.0888 14.4619C49.8468 13.5977 49.3859 13.1713 47.9224 12.4914C44.7304 10.9818 42.2875 8.73477 40.7549 5.88848C40.1556 4.77071 39.4873 4.11387 38.7383 3.9295C38.0814 3.76817 16.8207 3.76817 16.1869 3.94102ZM38.4502 5.76172C38.5654 5.81934 38.8996 6.31485 39.1877 6.84492C40.8586 9.89864 43.3937 12.284 46.7125 13.9088C48.1299 14.6002 48.2451 14.6809 48.3718 15.0727C48.5677 15.6604 48.4295 22.2518 48.1875 24.1992C47.3808 30.6178 44.9724 36.3449 40.8009 41.7148C39.5218 43.3627 36.5027 46.4164 34.8203 47.7531C32.6078 49.5162 30.2455 51.0719 28.2289 52.1205L27.5029 52.4893L26.7769 52.1205C23.4006 50.3689 20.0472 47.8684 17.0742 44.8953C10.7017 38.4998 7.12946 30.6523 6.64548 22.0328C6.49567 19.2787 6.49567 15.4529 6.657 15.0035C6.76071 14.6924 6.97966 14.5426 8.29333 13.9088C11.6121 12.284 14.1472 9.89864 15.8181 6.84492C16.1062 6.31485 16.4289 5.83086 16.5326 5.76172C16.7976 5.61192 38.1621 5.6004 38.4502 5.76172Z" fill="black"/>
<path d="M26.4636 8.75781C23.6749 9.11504 21.2204 10.9127 20.0681 13.4248C19.4113 14.8307 19.3191 15.4529 19.3191 18.2877V20.8229L18.282 20.8805C17.0259 20.9611 16.323 21.2607 15.7814 21.9752C15.1822 22.7818 15.1591 23.1045 15.1937 30.0301C15.2283 36.2758 15.2283 36.368 15.4818 36.8289C15.8159 37.4512 16.5534 38.0965 17.095 38.2463C17.3831 38.327 20.8632 38.373 27.6159 38.373H37.699L38.2751 38.0965C38.9665 37.7738 39.2777 37.4512 39.5888 36.7598C39.8193 36.2527 39.8308 36.0338 39.8308 29.6152C39.8308 22.2633 39.8538 22.5053 39.0472 21.7102C38.4941 21.157 37.9409 20.9496 36.8232 20.8805L35.8206 20.8229L35.7745 18.1033C35.7284 15.5797 35.7054 15.3262 35.4288 14.4965C34.3917 11.3506 31.7529 9.17266 28.5263 8.75781C27.4892 8.63105 27.4085 8.63105 26.4636 8.75781ZM28.7222 10.6131C30.8425 11.0049 32.7439 12.6066 33.5736 14.7039C33.8732 15.476 33.8847 15.5797 33.9308 18.1725L33.9769 20.8574H27.5122H21.0476V18.6334C21.0476 17.1814 21.1052 16.1559 21.2089 15.6604C21.474 14.4504 22.1077 13.3211 23.0527 12.3877C24.6199 10.8436 26.6019 10.2213 28.7222 10.6131ZM37.722 22.9777L38.0447 23.2543V29.6037V35.9531L37.722 36.2643L37.4109 36.5869L27.9847 36.6215C22.8107 36.6445 18.3396 36.6215 18.063 36.5869C17.7634 36.5408 17.4523 36.4025 17.2909 36.2412L17.0144 35.9646V29.7305C17.0144 23.335 17.0259 23.1852 17.4638 22.851C17.6021 22.7357 19.9413 22.7127 27.5238 22.7012H37.3993L37.722 22.9777Z" fill="black"/>
<path d="M26.6015 26.9303C25.9792 27.2299 25.622 27.806 25.5644 28.5666C25.5068 29.3156 25.7027 29.7996 26.2328 30.2951C26.5439 30.5832 26.5554 30.6408 26.6015 31.9545C26.6361 33.2336 26.6591 33.3373 26.9126 33.5447C27.2814 33.8443 27.8576 33.8328 28.1687 33.4986C28.3992 33.2566 28.4222 33.1068 28.4222 31.9084V30.5832L28.7794 30.3181C29.8857 29.5 29.7474 27.6562 28.5259 26.9764C28.0074 26.6767 27.1431 26.6652 26.6015 26.9303Z" fill="black"/>
<path d="M1.86358 28.5205C1.51788 28.8547 1.50636 29.0275 1.81749 30.226C2.94679 34.7201 4.74444 38.7533 7.39483 42.752C8.97355 45.1143 10.2642 46.716 12.2923 48.7902C16.1872 52.7773 19.6212 55.2779 25.2331 58.1818C26.6735 58.9309 26.8694 59 27.5032 59C28.137 59 28.3329 58.9309 29.7733 58.1818C34.0255 55.9693 36.9294 54.0564 39.8909 51.4982C41.4235 50.173 44.1661 47.3498 45.2954 45.9439C49.1212 41.1617 51.8062 35.7918 53.212 30.1684C53.4194 29.3156 53.431 29.0967 53.3157 28.8201C53.0737 28.2324 52.2441 28.1172 51.8407 28.6127C51.7601 28.7049 51.5181 29.4539 51.2991 30.2721C49.1788 38.3154 44.339 45.6098 37.471 51.1295C34.9935 53.123 32.3892 54.7709 28.6901 56.6953L27.5148 57.3061L26.3278 56.6953C19.264 53.077 14.355 49.0783 10.2296 43.5932C8.74308 41.6111 7.78663 40.1016 6.69191 37.9697C5.35519 35.3885 4.28351 32.5883 3.64972 30.0762C3.33858 28.8201 3.2003 28.4744 2.94679 28.3477C2.58956 28.1518 2.15167 28.2209 1.86358 28.5205Z" fill="black"/>
</svg>
