<svg width="56" height="56" viewBox="0 0 56 56" fill="none" xmlns="http://www.w3.org/2000/svg">
<path d="M53.9469 50.7852H35.0665C34.4839 50.7852 34.0117 51.2574 34.0117 51.8399C34.0117 52.4224 34.484 52.8947 35.0665 52.8947H53.9469C54.5295 52.8947 55.0017 52.4224 55.0017 51.8399C55.0017 51.2574 54.5294 50.7852 53.9469 50.7852Z" fill="black"/>
<path d="M20.8258 50.7852H2.05084C1.46825 50.7852 0.996094 51.2574 0.996094 51.8399C0.996094 52.4224 1.46835 52.8947 2.05084 52.8947H20.8258C21.4084 52.8947 21.8805 52.4224 21.8805 51.8399C21.8805 51.2574 21.4083 50.7852 20.8258 50.7852Z" fill="black"/>
<path d="M28.4165 22.5732H20.2422C19.6597 22.5732 19.1875 23.0455 19.1875 23.628C19.1875 24.2106 19.6598 24.6827 20.2422 24.6827H28.4165C28.9991 24.6827 29.4713 24.2105 29.4713 23.628C29.4713 23.0455 28.999 22.5732 28.4165 22.5732Z" fill="black"/>
<path d="M36.6246 22.8821C36.4284 22.6859 36.1563 22.573 35.879 22.573C35.6005 22.573 35.3283 22.6859 35.1333 22.8821C34.936 23.0783 34.8242 23.3504 34.8242 23.6277C34.8242 23.9052 34.936 24.1773 35.1333 24.3734C35.3295 24.5696 35.6006 24.6825 35.879 24.6825C36.1564 24.6825 36.4285 24.5696 36.6246 24.3734C36.8207 24.1772 36.9337 23.9051 36.9337 23.6277C36.9337 23.3504 36.8208 23.0783 36.6246 22.8821Z" fill="black"/>
<path d="M32.9421 22.8823C32.7448 22.6861 32.4738 22.5732 32.1954 22.5732C31.9179 22.5732 31.6458 22.6861 31.4497 22.8823C31.2535 23.0785 31.1406 23.3507 31.1406 23.628C31.1406 23.9065 31.2535 24.1776 31.4497 24.3737C31.647 24.5699 31.9181 24.6827 32.1954 24.6827C32.4727 24.6827 32.745 24.5699 32.9421 24.3737C33.1383 24.1775 33.2501 23.9053 33.2501 23.628C33.2501 23.3507 33.1383 23.0785 32.9421 22.8823Z" fill="black"/>
<path d="M28.4165 31.012H20.2422C19.6597 31.012 19.1875 31.4842 19.1875 32.0667C19.1875 32.6492 19.6598 33.1215 20.2422 33.1215H28.4165C28.9991 33.1215 29.4713 32.6492 29.4713 32.0667C29.4713 31.4842 28.999 31.012 28.4165 31.012Z" fill="black"/>
<path d="M36.6246 31.3201C36.4284 31.1239 36.1563 31.011 35.879 31.011C35.6005 31.011 35.3294 31.1239 35.1333 31.3201C34.936 31.5163 34.8242 31.7884 34.8242 32.0657C34.8242 32.3442 34.936 32.6153 35.1333 32.8114C35.3295 33.0076 35.6006 33.1205 35.879 33.1205C36.1564 33.1205 36.4285 33.0076 36.6246 32.8114C36.8207 32.6152 36.9337 32.3431 36.9337 32.0657C36.9337 31.7884 36.8208 31.5163 36.6246 31.3201Z" fill="black"/>
<path d="M32.9421 31.3208C32.7448 31.1246 32.4738 31.0117 32.1954 31.0117C31.9179 31.0117 31.6458 31.1246 31.4497 31.3208C31.2535 31.517 31.1406 31.7891 31.1406 32.0665C31.1406 32.3438 31.2535 32.616 31.4497 32.8121C31.6459 33.0083 31.9181 33.1212 32.1954 33.1212C32.4739 33.1212 32.745 33.0083 32.9421 32.8121C33.1383 32.6159 33.2501 32.3438 33.2501 32.0665C33.2501 31.7891 33.1383 31.517 32.9421 31.3208Z" fill="black"/>
<path d="M28.4165 39.4502H20.2422C19.6597 39.4502 19.1875 39.9225 19.1875 40.5049C19.1875 41.0874 19.6598 41.5597 20.2422 41.5597H28.4165C28.9991 41.5597 29.4713 41.0874 29.4713 40.5049C29.4713 39.9225 28.999 39.4502 28.4165 39.4502Z" fill="black"/>
<path d="M36.6246 39.7588C36.4274 39.5626 36.1563 39.4497 35.879 39.4497C35.6005 39.4497 35.3294 39.5626 35.1322 39.7588C34.936 39.955 34.8242 40.2271 34.8242 40.5045C34.8242 40.7818 34.936 41.054 35.1322 41.2501C35.3295 41.4463 35.6006 41.5592 35.879 41.5592C36.1564 41.5592 36.4285 41.4463 36.6246 41.2501C36.8207 41.0539 36.9337 40.7818 36.9337 40.5045C36.9337 40.2271 36.8208 39.955 36.6246 39.7588Z" fill="black"/>
<path d="M32.9411 39.7588C32.7448 39.5626 32.4738 39.4497 32.1954 39.4497C31.9179 39.4497 31.6458 39.5626 31.4497 39.7588C31.2536 39.955 31.1406 40.2271 31.1406 40.5045C31.1406 40.7818 31.2535 41.054 31.4497 41.2501C31.6459 41.4463 31.9181 41.5592 32.1954 41.5592C32.4739 41.5592 32.745 41.4463 32.9411 41.2501C33.1383 41.0539 33.2501 40.7818 33.2501 40.5045C33.2501 40.2271 33.1383 39.955 32.9411 39.7588Z" fill="black"/>
<path d="M41.7249 32.2172C41.7249 30.4938 40.894 28.9611 39.6117 27.9981C40.8939 27.0351 41.7249 25.5024 41.7249 23.779C41.7249 20.871 39.3591 18.5051 36.4511 18.5051H19.5746C16.6666 18.5051 14.3008 20.871 14.3008 23.779C14.3008 25.5024 15.1317 27.0351 16.414 27.9981C15.1318 28.9611 14.3008 30.4938 14.3008 32.2172C14.3008 33.9406 15.1317 35.4733 16.414 36.4363C15.1318 37.3993 14.3008 38.932 14.3008 40.6554C14.3008 43.5634 16.6666 45.9293 19.5746 45.9293H26.9447V48.8572C25.7171 49.2927 24.8352 50.465 24.8352 51.8401C24.8351 53.585 26.2546 55.0045 27.9995 55.0045C29.7443 55.0045 31.1638 53.585 31.1638 51.8401C31.1638 50.4651 30.282 49.2927 29.0543 48.8572V45.9293H36.4512C39.3592 45.9293 41.725 43.5634 41.725 40.6554C41.725 38.932 40.8941 37.3993 39.6118 36.4363C40.8939 35.4733 41.7249 33.9406 41.7249 32.2172ZM16.4102 23.7791C16.4102 22.0343 17.8297 20.6147 19.5745 20.6147H36.451C38.1958 20.6147 39.6153 22.0343 39.6153 23.7791C39.6153 25.5239 38.1958 26.9434 36.451 26.9434H19.5745C17.8297 26.9433 16.4102 25.5238 16.4102 23.7791ZM27.9995 52.895C27.4178 52.895 26.9447 52.4218 26.9447 51.8403C26.9447 51.2586 27.4179 50.7855 27.9995 50.7855C28.581 50.7855 29.0542 51.2587 29.0542 51.8403C29.0542 52.4218 28.5811 52.895 27.9995 52.895ZM39.6153 40.6554C39.6153 42.4002 38.1958 43.8198 36.451 43.8198H19.5745C17.8297 43.8198 16.4102 42.4002 16.4102 40.6554C16.4102 38.9106 17.8297 37.4911 19.5745 37.4911H36.451C38.1958 37.4912 39.6153 38.9107 39.6153 40.6554ZM36.451 35.3816H19.5745C17.8297 35.3816 16.4102 33.962 16.4102 32.2172C16.4102 30.4724 17.8297 29.0528 19.5745 29.0528H36.451C38.1958 29.0528 39.6153 30.4724 39.6153 32.2172C39.6153 33.962 38.1958 35.3816 36.451 35.3816Z" fill="black"/>
<path d="M52.7361 17.3287C51.3817 15.3628 49.532 13.8264 47.366 12.8621C44.7112 5.74492 37.8993 0.99585 30.2662 0.99585C25.8248 0.99585 21.5447 2.61052 18.2147 5.54228C15.17 8.22277 13.112 11.8248 12.3501 15.7717C12.1864 15.7644 12.023 15.7607 11.8603 15.7607C5.86974 15.7607 0.996094 20.6343 0.996094 26.6248C0.996094 29.2317 1.93344 31.7527 3.63545 33.7233C5.31953 35.673 7.64189 36.9641 10.1749 37.3589C10.23 37.3675 10.2846 37.3717 10.3386 37.3717C10.8495 37.3717 11.2983 36.9998 11.3796 36.4793C11.4693 35.9037 11.0753 35.3644 10.4998 35.2747C6.21531 34.6068 3.10559 30.9692 3.10559 26.6249C3.10559 21.7976 7.03282 17.8703 11.8603 17.8703C12.2667 17.8703 12.6788 17.8991 13.0854 17.956C13.3634 17.9948 13.6451 17.9214 13.8685 17.752C14.0921 17.5826 14.239 17.3311 14.2766 17.0533C15.3551 9.10168 22.2292 3.10546 30.2661 3.10546C37.1579 3.10546 43.2925 7.48205 45.5314 13.996C45.6309 14.2859 45.8517 14.5179 46.1361 14.6321C50.2395 16.2786 52.891 20.1994 52.891 24.6207C52.891 29.7097 49.2786 34.1424 44.3016 35.1608C43.7308 35.2776 43.363 35.835 43.4798 36.4057C43.5965 36.9764 44.1537 37.3442 44.7246 37.2275C50.6789 36.0091 55.0006 30.7072 55.0006 24.6207C55.0006 22.0005 54.2176 19.4789 52.7361 17.3287Z" fill="black"/>
</svg>
