<svg width="54" height="54" viewBox="0 0 54 54" fill="none" xmlns="http://www.w3.org/2000/svg">
<path d="M1.16149 16.2609C1.46954 16.2609 1.76497 16.1385 1.98279 15.9207C2.20061 15.7029 2.32298 15.4074 2.32298 15.0994V6.06763C2.32421 5.07486 2.71913 4.12311 3.42112 3.42112C4.12311 2.71913 5.07486 2.32421 6.06763 2.32298H15.0994C15.4074 2.32298 15.7029 2.20061 15.9207 1.98279C16.1385 1.76497 16.2609 1.46954 16.2609 1.16149C16.2609 0.853445 16.1385 0.558015 15.9207 0.340193C15.7029 0.122371 15.4074 0 15.0994 0H6.06763C4.45896 0.00184445 2.91671 0.641703 1.7792 1.7792C0.641703 2.91671 0.00184445 4.45896 0 6.06763V15.0994C0 15.4074 0.122371 15.7029 0.340193 15.9207C0.558015 16.1385 0.853445 16.2609 1.16149 16.2609Z" fill="#EF0303"/>
<path d="M47.3612 0H38.3295C38.0214 0 37.726 0.122371 37.5082 0.340193C37.2903 0.558015 37.168 0.853445 37.168 1.16149C37.168 1.46954 37.2903 1.76497 37.5082 1.98279C37.726 2.20061 38.0214 2.32298 38.3295 2.32298H47.3612C48.354 2.32421 49.3057 2.71913 50.0077 3.42112C50.7097 4.12311 51.1046 5.07486 51.1059 6.06763V15.0994C51.1059 15.4074 51.2282 15.7029 51.4461 15.9207C51.6639 16.1385 51.9593 16.2609 52.2674 16.2609C52.5754 16.2609 52.8708 16.1385 53.0887 15.9207C53.3065 15.7029 53.4288 15.4074 53.4288 15.0994V6.06763C53.427 4.45896 52.7871 2.91671 51.6496 1.7792C50.5121 0.641703 48.9699 0.00184445 47.3612 0Z" fill="#EF0303"/>
<path d="M15.0994 51.1057H6.06763C5.07486 51.1045 4.12311 50.7096 3.42112 50.0076C2.71913 49.3056 2.32421 48.3539 2.32298 47.3611V38.3293C2.32298 38.0213 2.20061 37.7259 1.98279 37.508C1.76497 37.2902 1.46954 37.1678 1.16149 37.1678C0.853445 37.1678 0.558015 37.2902 0.340193 37.508C0.122371 37.7259 0 38.0213 0 38.3293V47.3611C0.00184445 48.9698 0.641703 50.512 1.7792 51.6495C2.91671 52.787 4.45896 53.4269 6.06763 53.4287H15.0994C15.4074 53.4287 15.7029 53.3064 15.9207 53.0885C16.1385 52.8707 16.2609 52.5753 16.2609 52.2672C16.2609 51.9592 16.1385 51.6638 15.9207 51.4459C15.7029 51.2281 15.4074 51.1057 15.0994 51.1057Z" fill="#EF0303"/>
<path d="M52.2674 37.1678C51.9593 37.1678 51.6639 37.2902 51.4461 37.508C51.2282 37.7259 51.1059 38.0213 51.1059 38.3293V47.3611C51.1046 48.3539 50.7097 49.3056 50.0077 50.0076C49.3057 50.7096 48.354 51.1045 47.3612 51.1057H38.3295C38.0214 51.1057 37.726 51.2281 37.5082 51.4459C37.2903 51.6638 37.168 51.9592 37.168 52.2672C37.168 52.5753 37.2903 52.8707 37.5082 53.0885C37.726 53.3064 38.0214 53.4287 38.3295 53.4287H47.3612C48.9699 53.4269 50.5121 52.787 51.6496 51.6495C52.7871 50.512 53.427 48.9698 53.4288 47.3611V38.3293C53.4288 38.0213 53.3065 37.7259 53.0887 37.508C52.8708 37.2902 52.5754 37.1678 52.2674 37.1678Z" fill="#EF0303"/>
<path d="M42.975 35.4255V18.0031C42.975 17.7993 42.9213 17.599 42.8194 17.4224C42.7174 17.2458 42.5708 17.0992 42.3942 16.9973L27.2948 8.2861C27.1183 8.18416 26.918 8.13049 26.7141 8.13049C26.5102 8.13049 26.3099 8.18416 26.1334 8.2861L11.0456 16.9973C10.869 17.0992 10.7224 17.2458 10.6205 17.4224C10.5185 17.599 10.4648 17.7993 10.4648 18.0031V35.4255C10.4648 35.6294 10.5185 35.8297 10.6205 36.0062C10.7224 36.1828 10.869 36.3294 11.0456 36.4314L26.145 45.1425C26.3215 45.2445 26.5218 45.2981 26.7257 45.2981C26.9296 45.2981 27.1299 45.2445 27.3065 45.1425L42.4058 36.4314C42.5802 36.328 42.7245 36.1807 42.8244 36.0042C42.9242 35.8278 42.9762 35.6283 42.975 35.4255ZM26.7141 10.6323L39.4905 18.0031L26.7141 25.374L13.9493 18.0031L26.7141 10.6323ZM12.7878 20.0148L25.5526 27.3857V42.125L12.7878 34.7542V20.0148ZM27.8756 42.125V27.3857L40.652 20.0148V34.7542L27.8756 42.125Z" fill="#EF0303"/>
</svg>
