<svg width="58" height="58" viewBox="0 0 58 58" fill="none" xmlns="http://www.w3.org/2000/svg">
<path d="M24.1651 57.9999C27.5668 57.9999 30.383 55.4736 30.8546 52.1999H41.1648L39.915 53.4498L41.2819 54.8167L44.1819 51.9167C44.3707 51.7279 44.4651 51.4806 44.4651 51.2332C44.4651 50.9859 44.3707 50.7386 44.1819 50.5498L41.2819 47.6498L39.915 49.0167L41.1648 50.2666H30.8546C30.383 46.9928 27.5668 44.4666 24.1651 44.4666C20.4344 44.4666 17.3984 47.502 17.3984 51.2332C17.3984 54.9644 20.4344 57.9999 24.1651 57.9999ZM24.1651 46.3999C26.83 46.3999 28.9984 48.5683 28.9984 51.2332C28.9984 53.8982 26.83 56.0666 24.1651 56.0666C21.5002 56.0666 19.3318 53.8982 19.3318 51.2332C19.3318 48.5683 21.5002 46.3999 24.1651 46.3999Z" fill="black"/>
<path d="M51.2315 57.9999C54.9622 57.9999 57.9982 54.9644 57.9982 51.2332C57.9982 47.502 54.9622 44.4666 51.2315 44.4666C47.5008 44.4666 44.4648 47.502 44.4648 51.2332C44.4648 54.9644 47.5008 57.9999 51.2315 57.9999ZM51.2315 46.3999C53.8965 46.3999 56.0648 48.5683 56.0648 51.2332C56.0648 53.8982 53.8965 56.0666 51.2315 56.0666C48.5666 56.0666 46.3982 53.8982 46.3982 51.2332C46.3982 48.5683 48.5666 46.3999 51.2315 46.3999Z" fill="black"/>
<path d="M20.3 22.2334C16.8983 22.2334 14.0822 24.7597 13.6106 28.0334H12.0833C5.42051 28.0334 0 33.4539 0 40.1167C0 46.7796 5.42051 52.2001 12.0833 52.2001H14.0997L12.8499 53.4499L14.2168 54.8169L17.1168 51.9169C17.3056 51.7281 17.4 51.4807 17.4 51.2334C17.4 50.9861 17.3056 50.7387 17.1168 50.5499L14.2168 47.6499L12.8499 49.0169L14.0997 50.2667H12.0833C6.48629 50.2667 1.93333 45.7133 1.93333 40.1167C1.93333 34.5202 6.48629 29.9667 12.0833 29.9667H13.6106C14.0822 33.2404 16.8983 35.7667 20.3 35.7667C24.0307 35.7667 27.0667 32.7313 27.0667 29.0001C27.0667 25.2689 24.0307 22.2334 20.3 22.2334ZM20.3 33.8334C17.6351 33.8334 15.4667 31.665 15.4667 29.0001C15.4667 26.3351 17.6351 24.1667 20.3 24.1667C22.9649 24.1667 25.1333 26.3351 25.1333 29.0001C25.1333 31.665 22.9649 33.8334 20.3 33.8334Z" fill="black"/>
<path d="M23.8835 3.1832L22.5165 4.55013L23.7664 5.8H13.4562C12.9846 2.52629 10.1684 0 6.76667 0C3.03593 0 0 3.03547 0 6.76667C0 10.4979 3.03593 13.5333 6.76667 13.5333C10.1684 13.5333 12.9846 11.007 13.4562 7.73333H23.7664L22.5165 8.9832L23.8835 10.3501L26.7835 7.45013C26.9723 7.26133 27.0667 7.014 27.0667 6.76667C27.0667 6.51934 26.9723 6.272 26.7835 6.0832L23.8835 3.1832ZM6.76667 11.6C4.10172 11.6 1.93333 9.43161 1.93333 6.76667C1.93333 4.10172 4.10172 1.93333 6.76667 1.93333C9.43161 1.93333 11.6 4.10172 11.6 6.76667C11.6 9.43161 9.43161 11.6 6.76667 11.6Z" fill="black"/>
<path d="M57.9997 17.8833C57.9997 11.2205 52.5792 5.8 45.9164 5.8H40.5226C40.051 2.52629 37.2348 0 33.8331 0C30.1023 0 27.0664 3.03547 27.0664 6.76667C27.0664 10.4979 30.1023 13.5333 33.8331 13.5333C37.2348 13.5333 40.051 11.007 40.5226 7.73333H45.9164C51.5134 7.73333 56.0664 12.2868 56.0664 17.8833C56.0664 23.4799 51.5134 28.0333 45.9164 28.0333H30.3667L31.6165 26.7835L30.2496 25.4165L27.3496 28.3165C27.1608 28.5053 27.0664 28.7527 27.0664 29C27.0664 29.2473 27.1608 29.4947 27.3496 29.6835L30.2496 32.5835L31.6165 31.2165L30.3667 29.9667H45.9164C52.5792 29.9667 57.9997 24.5462 57.9997 17.8833ZM33.8331 11.6C31.1681 11.6 28.9997 9.43161 28.9997 6.76667C28.9997 4.10172 31.1681 1.93333 33.8331 1.93333C36.498 1.93333 38.6664 4.10172 38.6664 6.76667C38.6664 9.43161 36.498 11.6 33.8331 11.6Z" fill="black"/>
</svg>
