<svg width="57" height="56" viewBox="0 0 57 56" fill="none" xmlns="http://www.w3.org/2000/svg">
<path d="M1 35.5331C1 35.4238 1 35.3145 1 35.2052C1.03555 35.2391 1.06564 35.2331 1.06345 35.1834C1.06181 35.1478 1.1001 35.0664 1 35.0959C1 34.75 1 34.404 1 34.0575C1.08861 34.0029 1.10721 33.9482 1 33.8936C1 33.8023 1 33.7116 1 33.6203C1.1537 33.6673 1.13893 33.5416 1.15753 33.4607C1.56284 31.7063 1.96542 29.9514 2.36964 28.1965C3.46579 23.4373 4.56304 18.6787 5.65864 13.9195C6.047 12.2334 7.00914 11.001 8.57351 10.2528C14.1478 7.58789 19.7226 4.92355 25.3013 2.2685C26.2919 1.79684 27.2464 1.22189 28.3693 1.08745C28.4202 1.08143 28.453 1.05028 28.3989 1C28.8365 1 29.274 1 29.7116 1C29.6618 1.13663 29.7816 1.09072 29.8287 1.09728C30.4019 1.18309 30.9358 1.38148 31.4559 1.6307C37.377 4.47048 43.2965 7.31681 49.2263 10.1396C50.8415 10.9086 51.9213 12.0886 52.3381 13.8402C52.6034 14.9546 52.8544 16.0723 53.111 17.1888C54.375 22.6913 55.6391 28.1932 56.9037 33.6952C56.9147 33.7416 56.8928 33.8362 57 33.7842C57 34.3122 57 34.8407 57 35.3686C56.8633 35.3184 56.9103 35.4375 56.9021 35.4856C56.744 36.365 56.3677 37.1405 55.8081 37.834C51.6478 42.9928 47.4847 48.1493 43.3353 53.3167C42.5044 54.3513 41.492 55.0585 40.183 55.322C40.1344 55.3318 40.0408 55.3181 40.1021 55.422C32.7009 55.422 25.3002 55.422 17.899 55.422C17.9663 55.2875 17.8421 55.3269 17.7945 55.3171C16.5414 55.0476 15.5448 54.3869 14.744 53.3911C10.6378 48.2843 6.5267 43.1819 2.40903 38.0849C1.82266 37.3591 1.35335 36.5847 1.15534 35.6638C1.13675 35.5823 1.13018 35.484 1 35.5331ZM29.0465 53.6829C32.446 53.6829 35.8455 53.6867 39.245 53.6807C40.2667 53.6791 41.1425 53.2971 41.7928 52.5101C43.0755 50.9596 44.3297 49.3855 45.5927 47.8186C48.5076 44.2022 51.406 40.5727 54.3433 36.9744C55.2332 35.884 55.5062 34.739 55.1846 33.3678C53.6973 27.0264 52.2363 20.679 50.7874 14.3288C50.4991 13.0647 49.7815 12.2023 48.6301 11.6552C42.6658 8.82305 36.7026 5.99038 30.7427 3.15115C29.5661 2.59041 28.4071 2.61118 27.2425 3.16754C26.8974 3.3326 26.5517 3.49601 26.2066 3.66106C20.6432 6.31775 15.0859 8.98647 9.51268 11.6229C8.3033 12.1952 7.58621 13.0805 7.29084 14.3709C5.83368 20.7374 4.36667 27.1018 2.89256 33.4651C2.59828 34.7352 2.84552 35.8562 3.66818 36.8667C4.90436 38.385 6.1285 39.9131 7.35702 41.4368C10.3009 45.0882 13.2425 48.7412 16.1886 52.3909C16.8915 53.2615 17.812 53.6835 18.9301 53.6829C22.3017 53.6829 25.6738 53.6835 29.0465 53.6829Z" fill="#EF0303" stroke="white" stroke-width="0.6"/>
<path d="M1 33.894C1.10721 33.9487 1.08861 34.0033 1 34.058C1 34.0033 1 33.9487 1 33.894Z" fill="black"/>
<path d="M1 35.0959C1.1001 35.0664 1.06181 35.1478 1.06345 35.1834C1.06564 35.2331 1.03555 35.2391 1 35.2052C1 35.1692 1 35.1325 1 35.0959Z" fill="black"/>
<mask id="path-4-inside-1_1265_3842" fill="white">
<path d="M28.2923 13.391C28.2294 12.7226 28.2103 12.0487 28.0412 11.3913C27.957 11.0639 27.9411 10.7256 27.9926 10.3878C28.0806 9.80851 28.5948 9.35653 29.1368 9.38003C29.6991 9.40407 30.1575 9.86972 30.21 10.4643C30.2412 10.813 30.1936 11.1557 30.1258 11.4951C29.9737 12.257 29.9261 13.027 29.9245 13.8015C29.9245 13.9419 29.9415 14.0851 30.0333 14.1884C30.1996 14.3753 30.3347 14.5557 30.3254 14.8317C30.3194 15.0126 30.5185 14.9618 30.6285 14.9738C31.6737 15.0913 32.6928 15.323 33.6855 15.6657C35.7871 16.3909 37.6337 17.5255 39.1833 19.1252C39.3298 19.2766 39.4327 19.299 39.5886 19.1646C39.7084 19.0618 39.8429 19.0072 40.0152 19.0433C40.1935 19.0804 40.3483 19.0001 40.4955 18.8935C41.0879 18.4628 41.5982 17.9436 42.0965 17.4124C42.3399 17.1533 42.5718 16.8828 42.8568 16.6686C43.371 16.2816 44.0268 16.2991 44.402 16.7003C44.8013 17.1277 44.7718 17.7933 44.3364 18.2879C44.1777 18.4678 43.9951 18.6159 43.7894 18.7361C43.4202 18.9525 43.0455 19.1597 42.6779 19.3794C42.2792 19.6182 41.8892 19.8702 41.5304 20.1675C41.4155 20.2626 41.3077 20.3675 41.2744 20.5123C41.2169 20.7599 41.1743 21.002 40.9374 21.1627C40.816 21.2447 40.9309 21.342 40.979 21.4196C41.887 22.8673 42.5379 24.4217 42.9088 26.0897C43.2451 27.6025 43.3513 29.1306 43.168 30.6729C43.1379 30.9276 43.1456 31.1222 43.4607 31.1517C43.5597 31.161 43.6226 31.22 43.6658 31.3102C43.7763 31.5435 43.977 31.6506 44.2182 31.7135C44.9266 31.8988 45.653 31.9594 46.3777 32.0228C46.7322 32.054 47.0855 32.0748 47.4285 32.178C47.6051 32.2316 47.7659 32.3119 47.9125 32.424C48.2911 32.7136 48.5131 33.1596 48.4163 33.4411C48.2752 33.8515 47.8141 34.18 47.3295 34.1773C46.9066 34.1751 46.509 34.0439 46.1217 33.8767C45.3937 33.5624 44.6514 33.2886 43.8643 33.1569C43.7331 33.135 43.6023 33.1317 43.4907 33.1935C43.2856 33.3077 43.0903 33.387 42.8453 33.3094C42.685 33.2585 42.6911 33.4274 42.6593 33.5192C42.1807 34.9063 41.5123 36.1934 40.6442 37.3772C39.5596 38.8561 38.2501 40.0929 36.6803 41.0455C36.4954 41.1576 36.4308 41.2598 36.5468 41.4521C36.5933 41.5298 36.6239 41.6172 36.5884 41.7128C36.4555 42.0692 36.561 42.396 36.7279 42.7075C37.0506 43.3093 37.4067 43.8897 37.8136 44.44C38.0712 44.7887 38.3491 45.1369 38.3595 45.6069C38.3721 46.1857 38.109 46.5923 37.6162 46.7469C37.154 46.8923 36.6103 46.6699 36.3225 46.2141C36.1617 45.9594 36.0337 45.6905 35.9511 45.3976C35.7531 44.6958 35.5021 44.0132 35.1925 43.3524C35.059 43.0671 34.9195 42.7928 34.5749 42.7097C34.4754 42.6857 34.4333 42.5966 34.4021 42.5113C34.3233 42.2982 34.1948 42.2965 33.9973 42.3643C32.5757 42.8485 31.1191 43.1469 29.6111 43.1781C27.8339 43.2147 26.1077 42.9436 24.4388 42.3321C24.2299 42.2556 24.1188 42.2829 24.0439 42.4867C23.9848 42.6474 23.8836 42.7605 23.7102 42.8179C23.4553 42.9021 23.3372 43.1267 23.2256 43.3475C22.8991 43.9919 22.6874 44.6794 22.4686 45.3642C22.3822 45.6348 22.2766 45.8927 22.1333 46.1376C21.8002 46.7065 21.1405 46.9415 20.6165 46.6743C20.0766 46.3994 19.8808 45.7544 20.1625 45.1412C20.3884 44.6499 20.7702 44.2586 21.0432 43.7957C21.3117 43.341 21.5934 42.8944 21.8078 42.4102C21.8882 42.2282 21.938 42.0369 21.8472 41.8566C21.752 41.6675 21.7832 41.5068 21.8861 41.3461C21.9785 41.2018 21.9271 41.1286 21.7914 41.0466C19.2737 39.5262 17.4429 37.3969 16.2248 34.7325C16.0476 34.3445 15.901 33.9412 15.7577 33.5384C15.7024 33.3826 15.6319 33.3012 15.4661 33.3515C15.2692 33.4116 15.0991 33.375 14.9268 33.2607C14.749 33.1432 14.5412 33.1689 14.3421 33.2099C13.608 33.3618 12.9068 33.6143 12.2198 33.9084C11.8506 34.0663 11.4759 34.2139 11.0689 34.2172C10.476 34.2226 10.0116 33.8685 9.92137 33.3646C9.82893 32.8486 10.1686 32.3016 10.7134 32.1054C11.1904 31.9338 11.6941 31.9223 12.1913 31.8786C12.8264 31.8228 13.4614 31.7698 14.0784 31.5938C14.2026 31.5583 14.3317 31.5228 14.4154 31.4238C14.5904 31.2172 14.7468 31.0057 15.0455 30.9516C15.1751 30.9281 15.1133 30.7784 15.1018 30.6893C15.011 30.0018 14.9842 29.312 14.9985 28.619C15.0493 26.1159 15.7227 23.7921 17.0114 21.6458C17.0535 21.5753 17.0901 21.501 17.1399 21.4365C17.3045 21.2223 17.3559 21.0288 17.071 20.8676C16.996 20.8255 16.9649 20.7457 16.9725 20.6555C16.996 20.3883 16.8505 20.2106 16.6585 20.0543C16.1127 19.6095 15.5115 19.2471 14.9 18.905C14.597 18.7356 14.2978 18.5656 14.021 18.3568C13.4762 17.9469 13.3493 17.1883 13.7431 16.6861C14.1184 16.2073 14.8442 16.1887 15.3792 16.6341C15.9557 17.114 16.4097 17.7141 16.9594 18.2191C17.1869 18.4284 17.4221 18.6301 17.6612 18.8263C17.834 18.9678 18.0216 19.0766 18.2628 18.9902C18.3602 18.9553 18.4455 19.0045 18.5101 19.0706C18.6933 19.2586 18.8213 19.1761 18.9761 19.0165C19.9421 18.0229 21.0421 17.2047 22.2618 16.5472C23.9263 15.6493 25.7023 15.1121 27.5856 14.941C27.8224 14.9197 27.9094 14.8355 27.8985 14.612C27.8946 14.5322 27.8875 14.4387 27.9597 14.3824C28.2907 14.1261 28.2994 13.7632 28.2923 13.391ZM32.8749 32.9618C32.8716 33.0809 32.8869 33.1946 32.934 33.3077C33.65 35.0184 34.3654 36.7296 35.0743 38.4435C35.1525 38.632 35.2242 38.6441 35.3867 38.5309C36.1202 38.0177 36.8077 37.451 37.4045 36.7837C38.3508 35.7256 39.1608 34.5806 39.623 33.2186C39.6903 33.0208 39.6542 32.9498 39.4425 32.9148C37.6298 32.6169 35.8188 32.3092 34.0072 32.0059C33.4082 31.9048 32.8771 32.3546 32.8749 32.9618ZM27.6201 18.3546C27.6452 17.8704 27.6463 17.8759 27.2618 17.9382C24.9869 18.3065 22.9997 19.2613 21.3134 20.8364C21.1728 20.9676 21.0989 21.0507 21.3112 21.2004C22.8219 22.2656 24.3245 23.3423 25.8292 24.4162C26.0327 24.5616 26.2553 24.6108 26.5009 24.5676C27.0151 24.4763 27.3017 24.1085 27.3395 23.4505C27.4374 21.7524 27.5271 20.0532 27.6201 18.3546ZM17.6841 29.2732C17.6984 29.5361 17.7246 29.7995 17.7224 30.0624C17.7208 30.2614 17.787 30.2794 17.962 30.2286C19.7337 29.7099 21.5064 29.1962 23.2814 28.6879C23.6523 28.5819 23.8765 28.348 23.9651 27.984C24.0598 27.5943 23.9367 27.2718 23.6369 27.0062C22.2821 25.806 20.925 24.6069 19.58 23.3958C19.3918 23.2264 19.3311 23.2592 19.2184 23.4581C18.1928 25.2628 17.6995 27.2041 17.6841 29.2732ZM25.1718 33.0383C25.1718 32.3759 24.6516 31.937 24.0045 32.0458C22.2268 32.3447 20.4513 32.6546 18.6725 32.9459C18.4226 32.9869 18.4045 33.0607 18.4915 33.2749C19.3699 35.4452 20.7642 37.1996 22.6945 38.5298C22.8723 38.6523 22.933 38.6326 23.0139 38.4358C23.6944 36.7771 24.3841 35.1228 25.0728 33.4673C25.1324 33.3225 25.1876 33.1793 25.1718 33.0383ZM30.5256 18.7585C30.5223 18.7585 30.5191 18.7591 30.5158 18.7591C30.6082 20.3741 30.7072 21.9885 30.7882 23.6041C30.8073 23.991 30.9643 24.2665 31.298 24.4403C31.6448 24.6212 31.9877 24.584 32.3033 24.361C33.8037 23.3002 35.2997 22.2328 36.8028 21.1753C36.9718 21.0567 36.9401 20.9911 36.8132 20.8719C35.6711 19.7975 34.3671 18.9881 32.888 18.4623C32.1917 18.2147 31.4763 18.0475 30.7461 17.9349C30.5213 17.8999 30.4518 17.9699 30.4808 18.1874C30.5059 18.3765 30.5114 18.5683 30.5256 18.7585ZM40.3686 29.2415C40.3768 27.1784 39.8621 25.2486 38.86 23.445C38.7506 23.2483 38.6811 23.2373 38.5143 23.3887C37.1797 24.6009 35.8401 25.8088 34.494 27.0084C34.1866 27.2822 34.0334 27.591 34.1374 27.9982C34.2396 28.4004 34.5186 28.6234 34.9075 28.7305C35.2849 28.8349 35.6607 28.9437 36.037 29.0519C37.3935 29.4421 38.7506 29.8285 40.1044 30.2269C40.31 30.2876 40.3822 30.2543 40.3713 30.0335C40.3587 29.77 40.3686 29.5055 40.3686 29.2415ZM29.1642 40.4662C29.6341 40.481 30.2505 40.4187 30.8631 40.3257C31.3767 40.2476 31.8761 40.1055 32.3794 39.9787C32.602 39.923 32.6277 39.859 32.515 39.6579C31.6508 38.1178 30.7975 36.5716 29.9425 35.0266C29.8348 34.8315 29.6942 34.6681 29.5115 34.5413C29.0821 34.2428 28.4635 34.3767 28.2081 34.8364C27.3105 36.4514 26.4205 38.0708 25.5202 39.6847C25.419 39.8661 25.4529 39.9164 25.646 39.9716C26.7476 40.2853 27.8657 40.47 29.1642 40.4662ZM27.1037 28.8464C27.2098 29.2891 27.334 29.8105 27.4603 30.3313C27.4828 30.4231 27.5714 30.4466 27.6436 30.4816C28.0615 30.6827 28.4827 30.8779 28.8984 31.0828C29.016 31.1407 29.1128 31.1385 29.2298 31.0812C29.6455 30.8751 30.064 30.6762 30.4846 30.4805C30.6017 30.4259 30.6689 30.3543 30.6946 30.222C30.7833 29.7673 30.879 29.3137 30.9824 28.8622C31.007 28.7546 30.9988 28.6748 30.9282 28.5873C30.6307 28.2195 30.3369 27.8495 30.0487 27.4746C29.9683 27.3702 29.8796 27.3298 29.7484 27.332C29.2845 27.3385 28.8201 27.3385 28.3558 27.332C28.2163 27.3298 28.1206 27.3669 28.033 27.4828C27.7584 27.8451 27.4702 28.1971 27.189 28.5545C27.1387 28.6174 27.0698 28.6726 27.1037 28.8464Z"/>
</mask>
<path d="M28.2923 13.391C28.2294 12.7226 28.2103 12.0487 28.0412 11.3913C27.957 11.0639 27.9411 10.7256 27.9926 10.3878C28.0806 9.80851 28.5948 9.35653 29.1368 9.38003C29.6991 9.40407 30.1575 9.86972 30.21 10.4643C30.2412 10.813 30.1936 11.1557 30.1258 11.4951C29.9737 12.257 29.9261 13.027 29.9245 13.8015C29.9245 13.9419 29.9415 14.0851 30.0333 14.1884C30.1996 14.3753 30.3347 14.5557 30.3254 14.8317C30.3194 15.0126 30.5185 14.9618 30.6285 14.9738C31.6737 15.0913 32.6928 15.323 33.6855 15.6657C35.7871 16.3909 37.6337 17.5255 39.1833 19.1252C39.3298 19.2766 39.4327 19.299 39.5886 19.1646C39.7084 19.0618 39.8429 19.0072 40.0152 19.0433C40.1935 19.0804 40.3483 19.0001 40.4955 18.8935C41.0879 18.4628 41.5982 17.9436 42.0965 17.4124C42.3399 17.1533 42.5718 16.8828 42.8568 16.6686C43.371 16.2816 44.0268 16.2991 44.402 16.7003C44.8013 17.1277 44.7718 17.7933 44.3364 18.2879C44.1777 18.4678 43.9951 18.6159 43.7894 18.7361C43.4202 18.9525 43.0455 19.1597 42.6779 19.3794C42.2792 19.6182 41.8892 19.8702 41.5304 20.1675C41.4155 20.2626 41.3077 20.3675 41.2744 20.5123C41.2169 20.7599 41.1743 21.002 40.9374 21.1627C40.816 21.2447 40.9309 21.342 40.979 21.4196C41.887 22.8673 42.5379 24.4217 42.9088 26.0897C43.2451 27.6025 43.3513 29.1306 43.168 30.6729C43.1379 30.9276 43.1456 31.1222 43.4607 31.1517C43.5597 31.161 43.6226 31.22 43.6658 31.3102C43.7763 31.5435 43.977 31.6506 44.2182 31.7135C44.9266 31.8988 45.653 31.9594 46.3777 32.0228C46.7322 32.054 47.0855 32.0748 47.4285 32.178C47.6051 32.2316 47.7659 32.3119 47.9125 32.424C48.2911 32.7136 48.5131 33.1596 48.4163 33.4411C48.2752 33.8515 47.8141 34.18 47.3295 34.1773C46.9066 34.1751 46.509 34.0439 46.1217 33.8767C45.3937 33.5624 44.6514 33.2886 43.8643 33.1569C43.7331 33.135 43.6023 33.1317 43.4907 33.1935C43.2856 33.3077 43.0903 33.387 42.8453 33.3094C42.685 33.2585 42.6911 33.4274 42.6593 33.5192C42.1807 34.9063 41.5123 36.1934 40.6442 37.3772C39.5596 38.8561 38.2501 40.0929 36.6803 41.0455C36.4954 41.1576 36.4308 41.2598 36.5468 41.4521C36.5933 41.5298 36.6239 41.6172 36.5884 41.7128C36.4555 42.0692 36.561 42.396 36.7279 42.7075C37.0506 43.3093 37.4067 43.8897 37.8136 44.44C38.0712 44.7887 38.3491 45.1369 38.3595 45.6069C38.3721 46.1857 38.109 46.5923 37.6162 46.7469C37.154 46.8923 36.6103 46.6699 36.3225 46.2141C36.1617 45.9594 36.0337 45.6905 35.9511 45.3976C35.7531 44.6958 35.5021 44.0132 35.1925 43.3524C35.059 43.0671 34.9195 42.7928 34.5749 42.7097C34.4754 42.6857 34.4333 42.5966 34.4021 42.5113C34.3233 42.2982 34.1948 42.2965 33.9973 42.3643C32.5757 42.8485 31.1191 43.1469 29.6111 43.1781C27.8339 43.2147 26.1077 42.9436 24.4388 42.3321C24.2299 42.2556 24.1188 42.2829 24.0439 42.4867C23.9848 42.6474 23.8836 42.7605 23.7102 42.8179C23.4553 42.9021 23.3372 43.1267 23.2256 43.3475C22.8991 43.9919 22.6874 44.6794 22.4686 45.3642C22.3822 45.6348 22.2766 45.8927 22.1333 46.1376C21.8002 46.7065 21.1405 46.9415 20.6165 46.6743C20.0766 46.3994 19.8808 45.7544 20.1625 45.1412C20.3884 44.6499 20.7702 44.2586 21.0432 43.7957C21.3117 43.341 21.5934 42.8944 21.8078 42.4102C21.8882 42.2282 21.938 42.0369 21.8472 41.8566C21.752 41.6675 21.7832 41.5068 21.8861 41.3461C21.9785 41.2018 21.9271 41.1286 21.7914 41.0466C19.2737 39.5262 17.4429 37.3969 16.2248 34.7325C16.0476 34.3445 15.901 33.9412 15.7577 33.5384C15.7024 33.3826 15.6319 33.3012 15.4661 33.3515C15.2692 33.4116 15.0991 33.375 14.9268 33.2607C14.749 33.1432 14.5412 33.1689 14.3421 33.2099C13.608 33.3618 12.9068 33.6143 12.2198 33.9084C11.8506 34.0663 11.4759 34.2139 11.0689 34.2172C10.476 34.2226 10.0116 33.8685 9.92137 33.3646C9.82893 32.8486 10.1686 32.3016 10.7134 32.1054C11.1904 31.9338 11.6941 31.9223 12.1913 31.8786C12.8264 31.8228 13.4614 31.7698 14.0784 31.5938C14.2026 31.5583 14.3317 31.5228 14.4154 31.4238C14.5904 31.2172 14.7468 31.0057 15.0455 30.9516C15.1751 30.9281 15.1133 30.7784 15.1018 30.6893C15.011 30.0018 14.9842 29.312 14.9985 28.619C15.0493 26.1159 15.7227 23.7921 17.0114 21.6458C17.0535 21.5753 17.0901 21.501 17.1399 21.4365C17.3045 21.2223 17.3559 21.0288 17.071 20.8676C16.996 20.8255 16.9649 20.7457 16.9725 20.6555C16.996 20.3883 16.8505 20.2106 16.6585 20.0543C16.1127 19.6095 15.5115 19.2471 14.9 18.905C14.597 18.7356 14.2978 18.5656 14.021 18.3568C13.4762 17.9469 13.3493 17.1883 13.7431 16.6861C14.1184 16.2073 14.8442 16.1887 15.3792 16.6341C15.9557 17.114 16.4097 17.7141 16.9594 18.2191C17.1869 18.4284 17.4221 18.6301 17.6612 18.8263C17.834 18.9678 18.0216 19.0766 18.2628 18.9902C18.3602 18.9553 18.4455 19.0045 18.5101 19.0706C18.6933 19.2586 18.8213 19.1761 18.9761 19.0165C19.9421 18.0229 21.0421 17.2047 22.2618 16.5472C23.9263 15.6493 25.7023 15.1121 27.5856 14.941C27.8224 14.9197 27.9094 14.8355 27.8985 14.612C27.8946 14.5322 27.8875 14.4387 27.9597 14.3824C28.2907 14.1261 28.2994 13.7632 28.2923 13.391ZM32.8749 32.9618C32.8716 33.0809 32.8869 33.1946 32.934 33.3077C33.65 35.0184 34.3654 36.7296 35.0743 38.4435C35.1525 38.632 35.2242 38.6441 35.3867 38.5309C36.1202 38.0177 36.8077 37.451 37.4045 36.7837C38.3508 35.7256 39.1608 34.5806 39.623 33.2186C39.6903 33.0208 39.6542 32.9498 39.4425 32.9148C37.6298 32.6169 35.8188 32.3092 34.0072 32.0059C33.4082 31.9048 32.8771 32.3546 32.8749 32.9618ZM27.6201 18.3546C27.6452 17.8704 27.6463 17.8759 27.2618 17.9382C24.9869 18.3065 22.9997 19.2613 21.3134 20.8364C21.1728 20.9676 21.0989 21.0507 21.3112 21.2004C22.8219 22.2656 24.3245 23.3423 25.8292 24.4162C26.0327 24.5616 26.2553 24.6108 26.5009 24.5676C27.0151 24.4763 27.3017 24.1085 27.3395 23.4505C27.4374 21.7524 27.5271 20.0532 27.6201 18.3546ZM17.6841 29.2732C17.6984 29.5361 17.7246 29.7995 17.7224 30.0624C17.7208 30.2614 17.787 30.2794 17.962 30.2286C19.7337 29.7099 21.5064 29.1962 23.2814 28.6879C23.6523 28.5819 23.8765 28.348 23.9651 27.984C24.0598 27.5943 23.9367 27.2718 23.6369 27.0062C22.2821 25.806 20.925 24.6069 19.58 23.3958C19.3918 23.2264 19.3311 23.2592 19.2184 23.4581C18.1928 25.2628 17.6995 27.2041 17.6841 29.2732ZM25.1718 33.0383C25.1718 32.3759 24.6516 31.937 24.0045 32.0458C22.2268 32.3447 20.4513 32.6546 18.6725 32.9459C18.4226 32.9869 18.4045 33.0607 18.4915 33.2749C19.3699 35.4452 20.7642 37.1996 22.6945 38.5298C22.8723 38.6523 22.933 38.6326 23.0139 38.4358C23.6944 36.7771 24.3841 35.1228 25.0728 33.4673C25.1324 33.3225 25.1876 33.1793 25.1718 33.0383ZM30.5256 18.7585C30.5223 18.7585 30.5191 18.7591 30.5158 18.7591C30.6082 20.3741 30.7072 21.9885 30.7882 23.6041C30.8073 23.991 30.9643 24.2665 31.298 24.4403C31.6448 24.6212 31.9877 24.584 32.3033 24.361C33.8037 23.3002 35.2997 22.2328 36.8028 21.1753C36.9718 21.0567 36.9401 20.9911 36.8132 20.8719C35.6711 19.7975 34.3671 18.9881 32.888 18.4623C32.1917 18.2147 31.4763 18.0475 30.7461 17.9349C30.5213 17.8999 30.4518 17.9699 30.4808 18.1874C30.5059 18.3765 30.5114 18.5683 30.5256 18.7585ZM40.3686 29.2415C40.3768 27.1784 39.8621 25.2486 38.86 23.445C38.7506 23.2483 38.6811 23.2373 38.5143 23.3887C37.1797 24.6009 35.8401 25.8088 34.494 27.0084C34.1866 27.2822 34.0334 27.591 34.1374 27.9982C34.2396 28.4004 34.5186 28.6234 34.9075 28.7305C35.2849 28.8349 35.6607 28.9437 36.037 29.0519C37.3935 29.4421 38.7506 29.8285 40.1044 30.2269C40.31 30.2876 40.3822 30.2543 40.3713 30.0335C40.3587 29.77 40.3686 29.5055 40.3686 29.2415ZM29.1642 40.4662C29.6341 40.481 30.2505 40.4187 30.8631 40.3257C31.3767 40.2476 31.8761 40.1055 32.3794 39.9787C32.602 39.923 32.6277 39.859 32.515 39.6579C31.6508 38.1178 30.7975 36.5716 29.9425 35.0266C29.8348 34.8315 29.6942 34.6681 29.5115 34.5413C29.0821 34.2428 28.4635 34.3767 28.2081 34.8364C27.3105 36.4514 26.4205 38.0708 25.5202 39.6847C25.419 39.8661 25.4529 39.9164 25.646 39.9716C26.7476 40.2853 27.8657 40.47 29.1642 40.4662ZM27.1037 28.8464C27.2098 29.2891 27.334 29.8105 27.4603 30.3313C27.4828 30.4231 27.5714 30.4466 27.6436 30.4816C28.0615 30.6827 28.4827 30.8779 28.8984 31.0828C29.016 31.1407 29.1128 31.1385 29.2298 31.0812C29.6455 30.8751 30.064 30.6762 30.4846 30.4805C30.6017 30.4259 30.6689 30.3543 30.6946 30.222C30.7833 29.7673 30.879 29.3137 30.9824 28.8622C31.007 28.7546 30.9988 28.6748 30.9282 28.5873C30.6307 28.2195 30.3369 27.8495 30.0487 27.4746C29.9683 27.3702 29.8796 27.3298 29.7484 27.332C29.2845 27.3385 28.8201 27.3385 28.3558 27.332C28.2163 27.3298 28.1206 27.3669 28.033 27.4828C27.7584 27.8451 27.4702 28.1971 27.189 28.5545C27.1387 28.6174 27.0698 28.6726 27.1037 28.8464Z" fill="#EF0303" stroke="white" mask="url(#path-4-inside-1_1265_3842)"/>
</svg>
