<svg width="58" height="58" viewBox="0 0 58 58" fill="none" xmlns="http://www.w3.org/2000/svg">
<path d="M16.5864 11.5951C22.288 9.02316 26.5019 5.70322 28.7725 1.9944C28.8072 1.93787 28.8568 1.90921 28.9201 1.90921C28.9835 1.90921 29.0331 1.93787 29.0678 1.9944C30.7456 4.73478 33.4388 7.23241 37.073 9.41794C40.6282 11.5561 44.9045 13.2897 49.7825 14.5703C49.8992 14.601 49.9828 14.7004 49.9908 14.8177C50.0555 15.7694 50.0882 16.7705 50.0882 17.7934C50.0882 21.5864 49.0913 25.8413 47.1252 30.4402C46.9414 30.8704 47.141 31.3681 47.5712 31.5522C47.8757 31.6727 48.4235 31.6268 48.6832 31.1062C50.7397 26.2956 51.7825 21.8166 51.7825 17.7934C51.7825 16.7324 51.7484 15.6926 51.6811 14.703C51.6239 13.859 51.0338 13.1472 50.2127 12.9318C40.7758 10.454 33.5955 6.14513 30.5125 1.10978C30.1695 0.549494 29.5742 0.215088 28.92 0.215088C28.2658 0.215088 27.6705 0.549494 27.3275 1.10978C25.2351 4.52748 21.28 7.61915 15.8896 10.0507C15.4632 10.2431 15.2734 10.7448 15.4657 11.1713C15.6582 11.5975 16.16 11.7871 16.5864 11.5951Z" fill="black"/>
<path d="M37.5596 34.7335V27.8958C37.5596 26.3613 36.3764 25.0988 34.8744 24.9707V23.6725C34.8744 20.3895 32.2035 17.7185 28.9204 17.7185C25.6373 17.7185 22.9665 20.3893 22.9665 23.6725V24.9708C21.4645 25.0988 20.2812 26.3613 20.2812 27.8959V34.7336C20.2812 36.3528 21.5986 37.6702 23.2178 37.6702H34.623C36.2424 37.6701 37.5596 36.3528 37.5596 34.7335ZM28.9205 19.4127C31.2693 19.4127 33.1802 21.3237 33.1802 23.6725V24.9593H24.6607V23.6725C24.6607 21.3236 26.5716 19.4127 28.9205 19.4127ZM21.9755 34.7335V27.8958C21.9755 27.2108 22.5328 26.6535 23.2178 26.6535H34.623C35.308 26.6535 35.8654 27.2108 35.8654 27.8958V34.7335C35.8654 35.4185 35.308 35.9758 34.623 35.9758H23.2178C22.5328 35.9759 21.9755 35.4186 21.9755 34.7335Z" fill="black"/>
<path d="M28.8553 29.1723C27.9976 29.2266 27.2969 29.9177 27.2317 30.7745C27.1736 31.5399 27.6106 32.2102 28.2555 32.5V33.5915C28.2555 33.7962 28.4213 33.962 28.626 33.962H29.3112C29.5159 33.962 29.6818 33.7962 29.6818 33.5915V32.5C30.2882 32.2275 30.7107 31.6186 30.7107 30.9107C30.7107 29.9111 29.8688 29.1082 28.8553 29.1723Z" fill="black"/>
<path d="M55.5311 41.3261C54.5542 41.3261 53.7081 41.8966 53.3081 42.722H42.2084C42.7 41.9949 43.1872 41.2519 43.6664 40.4947H49.4448C49.852 40.4947 50.2348 40.3361 50.523 40.0482L52.2491 38.322H53.2625C53.6407 39.2009 54.5151 39.8181 55.5311 39.8181C56.8924 39.8181 58 38.7106 58 37.3492C58 35.9881 56.8924 34.8805 55.5311 34.8805C54.4209 34.8805 53.4796 35.6174 53.1703 36.6278H52.1789C51.7716 36.6278 51.3888 36.7864 51.1007 37.0742L49.3745 38.8005H44.71C45.4856 37.5057 46.2314 36.1762 46.9295 34.8208C47.1437 34.4048 46.9801 33.8941 46.5641 33.6798C46.1482 33.4657 45.6375 33.6292 45.4232 34.0452C40.1139 44.3549 31.7287 53.4066 29.2852 55.9354C29.1885 56.0356 29.0587 56.0907 28.9198 56.0907C28.7809 56.0907 28.6511 56.0356 28.5544 55.9354C26.5086 53.8183 21.242 48.1267 16.5333 41.0166C10.7062 32.2178 7.75161 24.4044 7.75161 17.7933C7.75161 16.7704 7.78435 15.7693 7.84903 14.8173C7.85696 14.7001 7.94068 14.6009 8.05735 14.5702C9.63536 14.1559 11.1771 13.6848 12.6397 13.1703C13.081 13.015 13.3128 12.5314 13.1576 12.09C13.0022 11.6487 12.5185 11.417 12.0774 11.5721C10.6581 12.0716 9.16072 12.529 7.62711 12.9316C6.80582 13.1472 6.21574 13.859 6.15876 14.7026C6.09147 15.6925 6.05737 16.7323 6.05737 17.7932C6.05737 23.9287 8.43571 30.9832 13.1309 38.8004H8.46528L6.7391 37.0742C6.45114 36.7864 6.06825 36.6278 5.66089 36.6278H4.82963C4.52026 35.6174 3.57901 34.8805 2.46874 34.8805C1.10755 34.8804 0 35.988 0 37.3491C0 38.7104 1.10755 39.818 2.46885 39.818C3.48476 39.818 4.35918 39.2008 4.73753 38.3219H5.59088L7.31695 40.0481C7.60502 40.336 7.98791 40.4946 8.39516 40.4946H14.1776C14.4841 40.9778 14.7975 41.4633 15.1211 41.952C15.2924 42.2107 15.4647 42.467 15.6372 42.7218H4.69188C4.29189 41.8965 3.44579 41.326 2.46885 41.326C1.10755 41.3261 0 42.4335 0 43.7948C0 45.156 1.10755 46.2636 2.46885 46.2636C3.6156 46.2636 4.58211 45.4775 4.85829 44.4161H16.812C17.3649 45.1957 17.9189 45.9528 18.4691 46.6853H11.7869C11.4405 45.74 10.5318 45.0636 9.46793 45.0636C8.10663 45.0636 6.99908 46.1711 6.99908 47.5324C6.99908 48.8937 8.10663 50.0013 9.46793 50.0013C10.5318 50.0013 11.4405 49.3249 11.7869 48.3796H19.7679C20.3413 49.1126 20.9053 49.8151 21.4526 50.4818H17.7891C17.382 50.4818 16.9992 50.6403 16.7108 50.9284L14.9847 52.6546H13.9824C13.636 51.7092 12.7273 51.0328 11.6633 51.0328C10.302 51.0328 9.19447 52.1404 9.19447 53.5017C9.19447 54.8629 10.302 55.9704 11.6633 55.9704C12.7271 55.9704 13.636 55.294 13.9824 54.3488H15.0549C15.4619 54.3488 15.8446 54.1903 16.1332 53.9021L17.8591 52.1761H22.8705C24.7905 54.4274 26.3976 56.1414 27.3361 57.1128C27.7552 57.5463 28.3176 57.785 28.9199 57.785C29.5222 57.785 30.0847 57.5463 30.5037 57.1128C31.5597 56.0199 33.143 54.3244 34.9794 52.1738C34.9947 52.1746 35.0098 52.1761 35.0253 52.1761H39.9807L41.707 53.9025C41.9951 54.1903 42.3779 54.3488 42.785 54.3488H43.8574C44.2038 55.294 45.1127 55.9704 46.1765 55.9704C47.5378 55.9704 48.6453 54.8629 48.6453 53.5017C48.6453 52.1404 47.5378 51.0328 46.1765 51.0328C45.1127 51.0328 44.2038 51.7092 43.8574 52.6546H42.8551L41.1287 50.928C40.8407 50.6403 40.4578 50.4818 40.0507 50.4818H36.3964C36.9455 49.8134 37.5092 49.1115 38.0818 48.3796H46.0852C46.4316 49.3249 47.3403 50.0013 48.4042 50.0013C49.7655 50.0013 50.873 48.8937 50.873 47.5324C50.873 46.1711 49.7655 45.0636 48.4042 45.0636C47.3403 45.0636 46.4316 45.74 46.0852 46.6853H39.3804C39.9303 45.9527 40.4837 45.1951 41.0356 44.4161H53.1417C53.4179 45.4775 54.3844 46.2636 55.5311 46.2636C56.8924 46.2636 58 45.156 58 43.7948C58 42.4335 56.8924 41.3261 55.5311 41.3261ZM55.5311 36.5746C55.9582 36.5746 56.3058 36.9221 56.3058 37.3491C56.3058 37.7762 55.9582 38.1238 55.5311 38.1238C55.1041 38.1238 54.7566 37.7762 54.7566 37.3491C54.7566 36.9221 55.1041 36.5746 55.5311 36.5746ZM2.46885 38.1238C2.04167 38.1238 1.69423 37.7762 1.69423 37.3491C1.69423 36.9221 2.04167 36.5746 2.46885 36.5746C2.89592 36.5746 3.24336 36.9221 3.24336 37.3491C3.24336 37.7762 2.89592 38.1238 2.46885 38.1238ZM2.46885 44.5693C2.04167 44.5693 1.69423 44.2219 1.69423 43.7948C1.69423 43.3677 2.04167 43.0202 2.46885 43.0202C2.89592 43.0202 3.24336 43.3677 3.24336 43.7948C3.24336 44.2219 2.89592 44.5693 2.46885 44.5693ZM9.46793 48.3071C9.04075 48.3071 8.69332 47.9596 8.69332 47.5324C8.69332 47.1053 9.04075 46.7578 9.46793 46.7578C9.895 46.7578 10.2424 47.1053 10.2424 47.5324C10.2424 47.9596 9.895 48.3071 9.46793 48.3071ZM11.6636 54.2762C11.2364 54.2762 10.8889 53.9288 10.8889 53.5017C10.8889 53.0746 11.2364 52.7271 11.6636 52.7271C12.0907 52.7271 12.4382 53.0746 12.4382 53.5017C12.4382 53.9288 12.0907 54.2762 11.6636 54.2762ZM46.1764 52.7271C46.6036 52.7271 46.951 53.0746 46.951 53.5017C46.951 53.9288 46.6036 54.2762 46.1764 54.2762C45.7492 54.2762 45.4018 53.9288 45.4018 53.5017C45.4018 53.0746 45.7492 52.7271 46.1764 52.7271ZM48.4043 46.7578C48.8315 46.7578 49.1789 47.1053 49.1789 47.5324C49.1789 47.9596 48.8315 48.3071 48.4043 48.3071C47.9772 48.3071 47.6298 47.9596 47.6298 47.5324C47.6298 47.1053 47.9772 46.7578 48.4043 46.7578ZM55.5311 44.5693C55.1041 44.5693 54.7566 44.2219 54.7566 43.7948C54.7566 43.3677 55.1041 43.0202 55.5311 43.0202C55.9582 43.0202 56.3058 43.3677 56.3058 43.7948C56.3058 44.2219 55.9582 44.5693 55.5311 44.5693Z" fill="black"/>
<path d="M30.3603 50.3409C30.7033 49.5133 30.3105 48.5644 29.4829 48.2213C28.6553 47.8783 27.7063 48.2711 27.3633 49.0987C27.0203 49.9263 27.4131 50.8753 28.2407 51.2183C29.0683 51.5613 30.0172 51.1685 30.3603 50.3409Z" fill="black"/>
<path d="M29.1039 10.1093C29.988 9.96602 30.5884 9.13326 30.4451 8.24931C30.3018 7.36536 29.469 6.76494 28.585 6.90825C27.701 7.05155 27.1005 7.88431 27.2438 8.76826C27.3871 9.65222 28.2199 10.2526 29.1039 10.1093Z" fill="black"/>
<path d="M12.0122 16.5137C11.1166 16.5137 10.3906 17.2397 10.3906 18.1354C10.3906 19.031 11.1166 19.757 12.0122 19.757C12.9078 19.757 13.634 19.031 13.634 18.1354C13.6339 17.2398 12.9078 16.5137 12.0122 16.5137Z" fill="black"/>
<path d="M45.8249 16.5137C44.9293 16.5137 44.2031 17.2397 44.2031 18.1354C44.2031 19.031 44.9291 19.757 45.8249 19.757C46.7205 19.757 47.4465 19.031 47.4465 18.1354C47.4465 17.2398 46.7205 16.5137 45.8249 16.5137Z" fill="black"/>
</svg>
