<svg width="57" height="47" viewBox="0 0 57 47" fill="none" xmlns="http://www.w3.org/2000/svg">
<path d="M17.5776 35.1429C17.5776 35.1429 16.1595 33.9509 14.4874 34.4547C12.952 34.9172 12.7374 36.6876 13.8481 37.4118C13.8481 37.4118 14.938 37.898 16.1469 38.3441C19.0572 39.4174 17.8036 42.2328 15.4608 42.2328C14.2876 42.2328 13.3031 41.7191 12.707 41.0614" stroke="#EF0303" stroke-width="1.9" stroke-miterlimit="10" stroke-linecap="square" stroke-linejoin="round"/>
<path d="M26.5842 39.0741C26.5842 40.614 25.3359 41.8623 23.7961 41.8623C22.2562 41.8623 21.0078 40.614 21.0078 39.0741C21.0078 37.5343 22.2562 36.2861 23.7961 36.2861C25.3359 36.2861 26.5842 37.5343 26.5842 39.0741Z" stroke="#EF0303" stroke-width="1.9" stroke-miterlimit="10" stroke-linecap="round" stroke-linejoin="bevel"/>
<path d="M26.5781 35.9152V42.233" stroke="#EF0303" stroke-width="1.9" stroke-miterlimit="10" stroke-linecap="square" stroke-linejoin="bevel"/>
<path d="M35.4787 39.0741C35.4787 40.614 34.2304 41.8623 32.6905 41.8623C31.1507 41.8623 29.9023 40.614 29.9023 39.0741C29.9023 37.5343 31.1507 36.2861 32.6905 36.2861C34.2304 36.2861 35.4787 37.5343 35.4787 39.0741Z" stroke="#EF0303" stroke-width="1.9" stroke-miterlimit="10" stroke-linecap="round" stroke-linejoin="bevel"/>
<path d="M35.4805 35.9152V42.233" stroke="#EF0303" stroke-width="1.9" stroke-miterlimit="10" stroke-linecap="square" stroke-linejoin="bevel"/>
<path d="M44.0385 35.143C44.0385 35.143 42.6206 33.951 40.9484 34.4548C39.413 34.9174 39.1983 36.6878 40.3091 37.4119C40.3091 37.4119 41.399 37.8981 42.608 38.3442C45.5182 39.4175 44.2646 42.2329 41.9218 42.2329C40.7486 42.2329 39.764 41.7192 39.168 41.0615" stroke="#EF0303" stroke-width="1.9" stroke-miterlimit="10" stroke-linecap="square" stroke-linejoin="round"/>
<path d="M36.6093 46H12.0973C10.2713 46 8.77734 44.506 8.77734 42.6801V33.8836C8.77734 32.0577 10.2713 30.5638 12.0973 30.5638H44.9091C46.7351 30.5638 48.2291 32.0578 48.2291 33.8836V42.6801C48.2291 44.506 46.7351 46 44.9091 46H41.5892M39.9293 46H38.2693" stroke="#EF0303" stroke-width="1.9" stroke-miterlimit="22.926"/>
<path d="M8.77414 33.8837C4.32501 32.8875 1 28.9149 1 24.1652C1 14.7118 12.8687 10.7438 18.674 17.8638M18.161 5.18252C20.3877 3.18747 23.2731 1.9217 26.3475 1.9217C33.2275 1.9217 38.8131 7.45822 38.8949 14.3188C39.7531 13.5859 40.8667 13.143 42.0839 13.143C44.966 13.143 47.2178 15.6056 46.98 18.4689C51.7181 17.7754 56 21.4334 56 26.2549C56 30.5694 52.528 33.8323 48.2259 33.8837M13.8001 14.6057C13.765 11.5872 14.9911 8.65626 16.9857 6.37327" stroke="#EF0303" stroke-width="1.9" stroke-miterlimit="22.926"/>
<path d="M32.6836 9.50759H34.3436M34.3436 12.8275H36.0035" stroke="#EF0303" stroke-width="1.9" stroke-miterlimit="2.613"/>
</svg>
