<svg width="56" height="56" viewBox="0 0 56 56" fill="none" xmlns="http://www.w3.org/2000/svg">
<path d="M43.7158 11.9291C42.4038 8.51506 40.138 5.58961 37.1453 3.45166C33.9843 1.19361 30.2545 0 26.3589 0C20.943 0 15.8074 2.35823 12.2689 6.46997C11.9734 6.8133 12.0121 7.3313 12.3555 7.62683C12.699 7.92236 13.2168 7.88353 13.5124 7.5402C16.7391 3.79094 21.4213 1.64062 26.3589 1.64062C33.4693 1.64062 39.8756 6.13648 42.3001 12.8277C42.4597 13.2686 42.8833 13.5646 43.3556 13.5646H43.357C49.4228 13.5647 54.3577 18.507 54.3577 24.5819C54.3577 27.4124 53.2876 30.1022 51.3444 32.1556C51.0329 32.4846 51.0473 33.0038 51.3764 33.3153C51.7049 33.6262 52.2241 33.6128 52.5361 33.2832C54.7688 30.9238 55.9983 27.8336 55.9983 24.5819C55.9983 17.7233 50.5228 12.1213 43.7158 11.9291Z" fill="#EF0303"/>
<path d="M28.7656 50.099V48.3438C28.7656 47.8907 28.3985 47.5234 27.9453 47.5234C27.4922 47.5234 27.125 47.8907 27.125 48.3438V50.099C25.8641 50.4571 24.9375 51.6181 24.9375 52.9922C24.9375 54.6508 26.2869 56 27.9453 56C29.6038 56 30.9531 54.6508 30.9531 52.9922C30.9531 51.6181 30.0265 50.4571 28.7656 50.099ZM27.9453 54.3594C27.1914 54.3594 26.5781 53.7461 26.5781 52.9922C26.5781 52.2383 27.1914 51.625 27.9453 51.625C28.6992 51.625 29.3125 52.2383 29.3125 52.9922C29.3125 53.7461 28.6992 54.3594 27.9453 54.3594Z" fill="#EF0303"/>
<path d="M21.0547 42.2734C20.6015 42.2734 20.2344 42.6407 20.2344 43.0938V47.5234C20.2344 47.9154 19.9154 48.2344 19.5234 48.2344H18.0416C17.6835 46.9735 16.5225 46.0469 15.1484 46.0469C13.49 46.0469 12.1406 47.3961 12.1406 49.0547C12.1406 50.7133 13.49 52.0625 15.1484 52.0625C16.5225 52.0625 17.6835 51.1359 18.0416 49.875H19.5234C20.8201 49.875 21.875 48.8201 21.875 47.5234V43.0938C21.875 42.6407 21.5078 42.2734 21.0547 42.2734ZM15.1484 50.4219C14.3945 50.4219 13.7812 49.8086 13.7812 49.0547C13.7812 48.3008 14.3945 47.6875 15.1484 47.6875C15.9024 47.6875 16.5156 48.3008 16.5156 49.0547C16.5156 49.8086 15.9024 50.4219 15.1484 50.4219Z" fill="#EF0303"/>
<path d="M47.5234 39.9219C46.1494 39.9219 44.9883 40.8485 44.6302 42.1094H43.1484C42.7564 42.1094 42.4375 41.7905 42.4375 41.3985V37.1861C43.7662 37.185 44.5379 37.1825 44.5847 37.178C46.2243 37.0199 47.7934 36.5502 49.2483 35.7821C49.6489 35.5705 49.8023 35.0743 49.5908 34.6737C49.3792 34.273 48.883 34.1195 48.4824 34.3312C47.225 34.995 45.8695 35.4024 44.453 35.5424C44.2703 35.5457 43.241 35.547 41.6182 35.5469C41.6178 35.5469 41.6175 35.5469 41.6172 35.5469C41.6169 35.5469 41.6165 35.5469 41.6162 35.5469C35.1061 35.5466 19.0437 35.5231 9.6962 35.5076C8.13313 35.5048 6.65536 35.0826 5.4227 34.287C3.05452 32.7586 1.64062 30.1641 1.64062 27.347C1.64062 23.3089 4.52145 19.8882 8.49078 19.2133C9.0113 19.1246 9.39969 18.6746 9.41423 18.1434C9.48817 15.4559 10.1703 12.9005 11.4419 10.5482C11.6574 10.1496 11.5089 9.65193 11.1104 9.43647C10.7116 9.22078 10.2141 9.36953 9.99873 9.76798C8.67027 12.2256 7.92816 14.8843 7.79045 17.6775C3.25095 18.6523 0 22.6517 0 27.347C0 30.7239 1.69455 33.8335 4.53294 35.6655C6.03039 36.632 7.81484 37.1448 9.69336 37.1483C10.9312 37.1503 12.1879 37.1523 13.4531 37.1544V41.3985C13.4531 41.7905 13.1342 42.1094 12.7422 42.1094H11.2604C10.9023 40.8485 9.74127 39.9219 8.36719 39.9219C6.70873 39.9219 5.35938 41.2712 5.35938 42.9297C5.35938 44.5883 6.70873 45.9375 8.36719 45.9375C9.74127 45.9375 10.9023 45.0109 11.2604 43.75H12.7422C14.0388 43.75 15.0938 42.6951 15.0938 41.3985V37.157C16.8086 37.1597 18.5308 37.1624 20.2344 37.1649V39.2657C20.2344 39.7187 20.6015 40.086 21.0547 40.086C21.5078 40.086 21.875 39.7187 21.875 39.2657V37.1673C23.6654 37.1699 25.4255 37.1723 27.125 37.1745V44.5157C27.125 44.9687 27.4922 45.336 27.9453 45.336C28.3985 45.336 28.7656 44.9687 28.7656 44.5157V37.1766C30.6184 37.1789 32.3828 37.1809 34.0156 37.1825V47.5235C34.0156 48.8201 35.0705 49.875 36.3672 49.875H37.849C38.2071 51.1359 39.3681 52.0625 40.7422 52.0625C42.4006 52.0625 43.75 50.7133 43.75 49.0547C43.75 47.3962 42.4006 46.0469 40.7422 46.0469C39.3681 46.0469 38.2071 46.9735 37.849 48.2344H36.3672C35.9752 48.2344 35.6562 47.9155 35.6562 47.5235V37.184C37.6448 37.1857 39.3892 37.1867 40.7957 37.1867H40.7969V41.3985C40.7969 42.6951 41.8518 43.75 43.1484 43.75H44.6302C44.9883 45.0109 46.1494 45.9375 47.5234 45.9375C49.1819 45.9375 50.5312 44.5883 50.5312 42.9297C50.5312 41.2712 49.1819 39.9219 47.5234 39.9219ZM8.36719 44.2969C7.61327 44.2969 7 43.6836 7 42.9297C7 42.1758 7.61327 41.5625 8.36719 41.5625C9.12111 41.5625 9.73438 42.1758 9.73438 42.9297C9.73438 43.6836 9.12111 44.2969 8.36719 44.2969ZM40.7422 47.6875C41.4961 47.6875 42.1094 48.3008 42.1094 49.0547C42.1094 49.8086 41.4961 50.4219 40.7422 50.4219C39.9883 50.4219 39.375 49.8086 39.375 49.0547C39.375 48.3008 39.9883 47.6875 40.7422 47.6875ZM47.5234 44.2969C46.7695 44.2969 46.1562 43.6836 46.1562 42.9297C46.1562 42.1758 46.7695 41.5625 47.5234 41.5625C48.2774 41.5625 48.8906 42.1758 48.8906 42.9297C48.8906 43.6836 48.2774 44.2969 47.5234 44.2969Z" fill="#EF0303"/>
</svg>
