<svg width="56" height="53" viewBox="0 0 56 53" fill="none" xmlns="http://www.w3.org/2000/svg">
<path d="M8.94536 0.184216C8.75071 0.281536 8.45875 0.551876 8.29654 0.789772C8.05865 1.15743 8.00458 1.3737 7.97214 2.13065L7.9397 3.02817H5.32283C2.80328 3.02817 2.69514 3.03898 2.17609 3.28769C1.52728 3.60129 1.01905 4.10952 0.727084 4.75833C0.510814 5.23413 0.5 5.41796 0.5 15.9719C0.5 26.5692 0.5 26.7098 0.71627 26.926C0.975795 27.1856 1.54891 27.218 1.8625 26.9909C2.06796 26.8395 2.06796 26.5692 2.12203 16.2531C2.17609 6.38036 2.18691 5.64504 2.37074 5.3747C2.78165 4.73671 2.92223 4.70427 5.54991 4.67183L7.96133 4.62857V5.4504V6.27222H6.18791H4.41449L4.07927 6.60744L3.74405 6.94266V20.7191V34.4955H2.93304H2.12203V32.1706C2.12203 29.9863 2.11121 29.8349 1.90576 29.6294C1.61379 29.3375 1.00824 29.3375 0.71627 29.6294C0.510814 29.8349 0.5 29.9863 0.5 34.8415V39.8482L0.759524 40.3889C1.07312 41.0377 1.58135 41.5459 2.23016 41.8379C2.69514 42.0541 2.92223 42.065 7.21519 42.065H11.7244L12.0164 42.6597C12.4814 43.6221 13.3681 44.152 14.5035 44.152C15.4118 44.1628 16.039 43.8492 16.9798 42.93C17.4123 42.5191 17.8232 42.1731 17.8881 42.1731C17.9855 42.1731 18.0179 42.5299 18.0179 43.4058C18.0179 44.0871 18.072 44.7792 18.1368 44.9522C18.3531 45.5469 18.8289 46.0984 19.3912 46.412C19.9427 46.7256 19.9643 46.7472 19.9643 47.2014V47.6772L17.8665 47.7096L15.7687 47.7421L15.3037 48.0665C13.9088 49.0505 13.9088 51.1916 15.3037 52.1756L15.7687 52.5H28.1826H40.5965L41.0615 52.1756C42.4564 51.1916 42.4564 49.0505 41.0615 48.0665L40.5965 47.7421L38.4987 47.7096L36.4009 47.6772V44.8657V42.065H45.0301H53.6484L54.1891 41.8054C54.8379 41.4918 55.3461 40.9836 55.6381 40.3348C55.8544 39.8482 55.8652 39.7184 55.8652 22.5466C55.8652 5.3747 55.8544 5.24494 55.6381 4.75833C55.3461 4.10952 54.8379 3.60129 54.1891 3.28769C53.6809 3.0498 53.5295 3.02817 51.6263 3.02817C49.6799 3.02817 49.5934 3.03898 49.3771 3.26607C49.0851 3.57966 49.0959 4.12033 49.4095 4.40149C49.6258 4.60695 49.7988 4.62857 51.4317 4.67183C53.3781 4.70427 53.5944 4.76915 53.9945 5.3747C54.1783 5.65585 54.1891 6.52094 54.2215 20.0811L54.2432 34.4955H53.4322H52.6211V20.7191V6.94266L52.2859 6.60744L51.9507 6.27222H38.715H25.4792V5.46121V4.6502H36.0657H46.6629L46.8792 4.36905C47.1819 3.99057 47.1711 3.55803 46.8575 3.26607L46.6088 3.02817H36.0548H25.5008L25.4684 2.13065C25.436 1.3737 25.3819 1.15743 25.1332 0.789772C24.5817 -0.0428696 24.9926 0.000385284 16.6986 0.000385284C10.0591 0.000385284 9.28057 0.0220146 8.94536 0.184216ZM23.6193 1.75217C23.8031 1.936 23.8031 12.663 23.6193 12.8468C23.522 12.9442 21.8459 12.9766 16.7635 12.9766C13.0653 12.9766 9.96183 12.9442 9.8645 12.9117C9.71311 12.8577 9.69149 12.2521 9.69149 7.29951C9.69149 2.96329 9.72393 1.74136 9.83206 1.69811C9.89694 1.66567 13.0004 1.63323 16.7203 1.63323C21.8567 1.62241 23.522 1.65485 23.6193 1.75217ZM7.96133 10.5219C7.96133 13.0739 7.97214 13.1712 8.21004 13.6362C8.37224 13.9282 8.62095 14.1985 8.89129 14.3499L9.31301 14.5986H16.7203H24.1275L24.5493 14.3499C24.8196 14.1985 25.0683 13.9282 25.2305 13.6362C25.4684 13.1712 25.4792 13.0739 25.4792 10.5219V7.89425H38.2392H50.9991V21.1949V34.4955H41.7103H32.4215L32.2485 34.0738C32.0106 33.4574 31.4483 32.8735 30.8319 32.5923C30.3777 32.376 30.1182 32.3328 29.1342 32.3328C28.3124 32.3328 27.9663 32.2895 27.9339 32.1922C27.9123 32.1273 28.2259 31.7164 28.626 31.2947C29.5451 30.3323 29.8046 29.8132 29.8046 28.8725C29.8046 27.2288 28.6476 26.061 27.0472 26.061C26.1605 26.061 25.49 26.407 24.625 27.2829C23.6517 28.2885 23.5328 28.2237 23.5328 26.7098C23.5328 25.4121 23.4138 25.012 22.8623 24.374C21.8026 23.1629 19.7481 23.1737 18.6775 24.3849C18.1152 25.0229 18.0179 25.3689 18.0179 26.699C18.0179 28.2237 17.9098 28.2885 16.9257 27.2829C15.9525 26.2989 15.574 26.115 14.5035 26.115C13.5087 26.115 12.9788 26.3313 12.4165 26.9801C11.9191 27.5316 11.7461 28.0398 11.7461 28.8617C11.7569 29.8132 12.0056 30.3323 12.9247 31.2947C13.3248 31.7164 13.6384 32.1273 13.6168 32.1922C13.5844 32.2895 13.2383 32.3328 12.4057 32.3328C11.3784 32.3328 11.1838 32.3652 10.6863 32.6139C10.0483 32.9275 9.5401 33.4682 9.3022 34.0738L9.12918 34.4955H7.24763H5.36608V21.1949V7.89425H6.6637H7.96133V10.5219ZM21.4025 25.4121C21.7269 25.6717 21.9108 26.2123 21.9108 26.926V27.4126H20.7753H19.6399V26.926C19.6399 25.8447 20.0616 25.1959 20.7753 25.1959C20.97 25.1959 21.2511 25.2932 21.4025 25.4121ZM15.4767 28.3426L16.0498 28.8833L15.2821 29.6619L14.5251 30.4296L13.9953 29.8565C13.5519 29.3807 13.4762 29.2293 13.4762 28.8617C13.4762 28.2669 13.9304 27.7911 14.5035 27.7911C14.8279 27.7911 15.0009 27.8884 15.4767 28.3426ZM27.7609 28.1047C27.9988 28.3534 28.0745 28.5264 28.0745 28.8617C28.0745 29.2293 27.9988 29.3807 27.5554 29.8565L27.0256 30.4296L26.2686 29.6619L25.5008 28.8833L26.074 28.3426C26.7877 27.6614 27.2526 27.5965 27.7609 28.1047ZM22.8515 29.478C23.8896 29.8889 24.8412 30.6026 25.4468 31.4028C26.3227 32.5599 26.6687 33.5872 26.6687 35.047C26.6687 36.6906 26.1064 38.0099 24.8953 39.1994C24.0194 40.0645 23.0678 40.5835 21.9432 40.8214C21.0132 41.016 20.5374 41.016 19.6075 40.8214C17.4448 40.3672 15.6822 38.6911 15.0442 36.5068C14.7847 35.6417 14.8603 33.9332 15.1848 33.0357C15.693 31.6299 16.8933 30.3107 18.2234 29.6727C19.2182 29.2077 19.8129 29.0887 20.9916 29.1212C21.8783 29.1536 22.2135 29.2185 22.8515 29.478ZM13.1518 35.1443V36.2257H12.5138C11.3784 36.2257 10.881 35.8796 10.881 35.0902C10.881 34.7983 10.9675 34.6144 11.1946 34.3765C11.4865 34.0846 11.573 34.063 12.33 34.063H13.1518V35.1443ZM30.3561 34.3765C30.9184 34.9497 30.713 35.8364 29.9452 36.1283C29.8046 36.1824 29.3937 36.2257 29.0369 36.2257H28.3989V35.1443V34.063H29.2207C29.9776 34.063 30.0641 34.0846 30.3561 34.3765ZM9.58335 36.6798C9.84288 37.0583 10.1457 37.3395 10.5458 37.5665C11.0864 37.8693 11.2378 37.8909 12.4165 37.9342C13.2059 37.9666 13.6925 38.0207 13.6925 38.0964C13.6925 38.1613 13.3248 38.583 12.8815 39.0372C12.4381 39.5022 12.0272 39.9996 11.9623 40.1618L11.8542 40.4537L7.49634 40.4213C3.54941 40.3889 3.11687 40.3672 2.84653 40.1942C2.25179 39.8049 2.17609 39.567 2.13284 37.772L2.1004 36.1175H5.65805H9.21569L9.58335 36.6798ZM54.2324 37.772C54.1891 39.567 54.1134 39.8049 53.5187 40.1942C53.2483 40.378 52.4914 40.3889 41.4616 40.4213L29.6965 40.4429L29.5884 40.1618C29.5235 39.9996 29.1126 39.5022 28.6692 39.0372C28.2259 38.583 27.8582 38.1613 27.8582 38.0964C27.8582 38.0207 28.3448 37.9666 29.1342 37.9342C30.3129 37.8909 30.4642 37.8693 31.0049 37.5665C31.405 37.3395 31.7078 37.0583 31.9673 36.6798L32.335 36.1175H43.2999H54.2648L54.2324 37.772ZM15.4767 40.5403L16.1904 41.2323L15.6822 41.7514C15.0874 42.3569 14.6224 42.5624 14.2007 42.4002C13.7466 42.2272 13.4762 41.8487 13.4762 41.3945C13.4762 41.0377 13.5627 40.8863 14.0385 40.378C14.3413 40.0536 14.6333 39.8049 14.6765 39.8157C14.7198 39.8374 15.0766 40.1618 15.4767 40.5403ZM27.523 40.378C27.988 40.8863 28.0745 41.0377 28.0745 41.3945C28.0745 41.8487 27.8041 42.2272 27.35 42.4002C26.9282 42.5624 26.4632 42.3569 25.8685 41.7514L25.3603 41.2323L26.0956 40.5186C26.4957 40.1185 26.8633 39.7941 26.8958 39.7941C26.9282 39.7941 27.2094 40.0536 27.523 40.378ZM34.7788 44.8765V47.688H28.1826H21.5864V47.2122C21.5864 46.758 21.608 46.7364 22.2027 46.3796C22.6353 46.12 22.9272 45.8497 23.1543 45.482C23.4679 44.9738 23.4787 44.8873 23.5112 43.5572C23.5328 42.6489 23.5869 42.1731 23.6734 42.1731C23.7382 42.1731 24.1275 42.5083 24.5493 42.9192C25.5549 43.8816 26.074 44.152 26.9931 44.152C28.1826 44.152 29.0585 43.6437 29.5343 42.6597L29.8263 42.065H32.3025H34.7788V44.8765ZM21.8783 43.4815C21.8134 44.4439 21.6188 44.8116 21.0997 44.9846C20.797 45.0819 20.6564 45.0711 20.3752 44.9414C19.867 44.7035 19.7372 44.4223 19.6724 43.4815L19.6075 42.6597H20.7753H21.9432L21.8783 43.4815ZM39.9153 49.4614C40.5641 49.7317 40.5641 50.5103 39.9044 50.7807C39.3638 51.0077 17.0014 51.0077 16.4607 50.7807C15.8228 50.5103 15.8011 49.7426 16.4283 49.4722C16.9582 49.2451 39.3638 49.2343 39.9153 49.4614Z" fill="#191919"/>
<path d="M12.5014 3.4607C12.3717 3.59046 12.2852 3.81754 12.2852 4.05544C12.2852 4.29334 12.3717 4.52042 12.5014 4.65018C12.7069 4.85564 12.8583 4.86646 15.6157 4.86646C18.4056 4.86646 18.5354 4.85564 18.7192 4.65018C18.9787 4.35822 18.9787 3.75266 18.7192 3.4607C18.5354 3.25524 18.4056 3.24443 15.6157 3.24443C12.8583 3.24443 12.7069 3.25524 12.5014 3.4607Z" fill="#191919"/>
<path d="M12.5014 6.70484C12.3717 6.8346 12.2852 7.06168 12.2852 7.29958C12.2852 7.53748 12.3717 7.76456 12.5014 7.89433C12.7069 8.09978 12.8583 8.1106 16.5024 8.1106C20.2439 8.1106 20.2763 8.1106 20.5034 7.8727C20.6224 7.74294 20.7197 7.49423 20.7197 7.29958C20.7197 7.10494 20.6224 6.85623 20.5034 6.72647C20.2763 6.48857 20.2439 6.48857 16.5024 6.48857C12.8583 6.48857 12.7069 6.49938 12.5014 6.70484Z" fill="#191919"/>
<path d="M12.5014 9.94886C12.3717 10.0786 12.2852 10.3057 12.2852 10.5436C12.2852 10.7815 12.3717 11.0086 12.5014 11.1383C12.7069 11.3438 12.8583 11.3546 16.5024 11.3546C20.2439 11.3546 20.2763 11.3546 20.5034 11.1167C20.6224 10.987 20.7197 10.7382 20.7197 10.5436C20.7197 10.349 20.6224 10.1002 20.5034 9.97048C20.2763 9.73259 20.2439 9.73259 16.5024 9.73259C12.8583 9.73259 12.7069 9.7434 12.5014 9.94886Z" fill="#191919"/>
<path d="M30.432 11.9926C29.4371 12.1981 28.4856 13.1497 28.3342 14.1121C28.2477 14.7176 28.5721 15.1394 29.1452 15.1394C29.5561 15.1394 30.0211 14.8041 30.0211 14.5122C30.0211 14.0256 30.778 13.5498 31.2538 13.7336C31.5998 13.8634 31.9675 14.3608 31.9675 14.696C31.9675 15.334 31.0267 16.8803 29.4804 18.8051C28.5072 20.0054 28.4099 20.3515 28.8857 20.8165C29.1452 21.0868 29.156 21.0868 31.3187 21.0868C33.4814 21.0868 33.4922 21.0868 33.7517 20.8165C34.1302 20.4488 34.1194 19.8865 33.7409 19.5837C33.4922 19.3891 33.2976 19.3566 32.3892 19.3566H31.3295L31.9783 18.4591C32.9624 17.0966 33.622 15.7125 33.676 14.869C33.7301 13.9931 33.5679 13.4957 33.0056 12.8901C32.3352 12.144 31.3511 11.8088 30.432 11.9926Z" fill="#191919"/>
<path d="M42.6086 12.0467C42.4248 12.1332 42.2409 12.2738 42.1977 12.3819C42.1653 12.4792 42.1328 14.3608 42.1328 16.5559V20.5569L42.4032 20.8165C42.5654 20.9895 42.7924 21.0868 42.9979 21.0868C43.2034 21.0868 43.4304 20.9895 43.5926 20.8165C43.8522 20.5677 43.863 20.5137 43.863 18.9241V17.3021H45.5931H47.3233V18.9782C47.3233 20.5137 47.3449 20.6759 47.5396 20.8705C47.6693 21.0003 47.8964 21.0868 48.1343 21.0868C48.3722 21.0868 48.5993 21.0003 48.7291 20.8705C48.9345 20.6651 48.9453 20.5137 48.9453 16.5127C48.9453 12.4684 48.9345 12.3603 48.7291 12.1656C48.5993 12.0467 48.3398 11.9602 48.1343 11.9602C47.9289 11.9602 47.6693 12.0467 47.5396 12.1656C47.3449 12.3495 47.3233 12.49 47.3233 13.9715V15.5719H45.5931H43.863V14.1121C43.863 12.49 43.7765 12.1765 43.2899 12.0034C43.1168 11.9494 42.9655 11.8953 42.9546 11.8953C42.9438 11.9061 42.7924 11.971 42.6086 12.0467Z" fill="#191919"/>
<path d="M37.4083 12.1872C36.9541 12.4467 36.9 12.5224 35.1807 15.3664C34.2507 16.9019 33.6992 17.9184 33.6992 18.1022C33.6992 18.2644 33.8182 18.5131 33.9696 18.6537C34.2183 18.9132 34.2723 18.924 35.8079 18.924H37.3758V19.7891C37.3758 20.5353 37.4083 20.6758 37.6137 20.8705C37.8624 21.0976 38.349 21.1516 38.6734 20.9786C38.9438 20.838 39.106 20.3082 39.106 19.562C39.106 19.0214 39.1384 18.924 39.3006 18.924C39.625 18.924 39.9711 18.4699 39.9711 18.0373C39.9711 17.7346 39.8954 17.5832 39.6899 17.421C39.5277 17.2912 39.3331 17.1939 39.2574 17.1939C39.1384 17.1939 39.106 16.8046 39.106 15.1393C39.106 12.836 39.0303 12.4576 38.468 12.1764C38.0463 11.9601 37.83 11.9601 37.4083 12.1872ZM37.3758 16.2207V17.1939H36.7811C36.4567 17.1939 36.1863 17.1723 36.1863 17.1506C36.1863 17.0749 37.2893 15.2474 37.3326 15.2474C37.3542 15.2474 37.3758 15.68 37.3758 16.2207Z" fill="#191919"/>
<path d="M36.8894 24.1362C34.3375 25.0446 34.0887 28.6779 36.4893 29.9215L37.1814 30.2783H39.3657C42.0042 30.2783 42.3395 30.1918 43.1721 29.37C44.0372 28.4941 44.3183 27.2289 43.9074 26.0286C43.6803 25.3582 42.9666 24.5688 42.2962 24.266C41.7772 24.0173 41.6474 24.0065 39.4847 24.0173C38.1654 24.0173 37.0733 24.0714 36.8894 24.1362ZM41.6258 25.8772C42.3178 26.3206 42.5341 27.2073 42.134 27.8669C41.7663 28.4833 41.496 28.5482 39.4306 28.5482C37.3004 28.5482 37.0841 28.4833 36.7272 27.7371C36.4569 27.1857 36.4569 27.0235 36.7164 26.5152C37.1165 25.7583 37.5383 25.6285 39.701 25.6609C41.0635 25.6826 41.3771 25.715 41.6258 25.8772Z" fill="#191919"/>
<path d="M19.685 31.7273C18.7118 32.0409 17.8683 32.8627 17.5223 33.8143C17.3276 34.3766 17.3385 35.6418 17.5439 36.2582C17.7818 36.9502 18.5388 37.7721 19.2957 38.1397C19.8147 38.3884 20.0526 38.4425 20.7772 38.4425C21.8693 38.4425 22.6371 38.0965 23.3616 37.2963C24.0104 36.5718 24.2267 35.9121 24.1618 34.7767C24.0861 33.425 23.4589 32.4626 22.291 31.9003C21.653 31.5867 20.3554 31.5002 19.685 31.7273ZM21.6422 33.5764C22.1829 33.89 22.4532 34.3874 22.4532 35.0687C22.4532 35.6959 22.1072 36.2041 21.48 36.5285C20.3771 37.0908 19.1011 36.2906 19.1011 35.0362C19.1011 34.3983 19.3822 33.89 19.9013 33.5764C20.4744 33.2304 21.0583 33.2304 21.6422 33.5764Z" fill="#191919"/>
</svg>
