<svg width="54" height="53" viewBox="0 0 54 53" fill="none" xmlns="http://www.w3.org/2000/svg">
<path d="M33.1252 0.0624847C30.4372 0.288193 27.8107 1.11921 25.2254 2.58632L24.5585 2.95566L22.4861 1.7553C20.3521 0.524162 19.9622 0.380527 19.2338 0.513901C18.6695 0.626755 18.3105 1.00636 17.5615 2.32983L16.8639 3.55071H15.407H13.9604L13.4782 2.69917C12.5857 1.14999 12.3907 0.883244 11.9598 0.657536C11.6418 0.503643 11.4161 0.462605 10.9749 0.493382C10.462 0.53442 10.1439 0.698574 7.85605 2.02205C4.96287 3.7046 4.80898 3.83797 4.80898 4.8947C4.80898 5.38716 4.8808 5.57183 5.52715 6.69011C5.92727 7.37749 6.24531 7.97255 6.24531 8.00333C6.24531 8.0341 6.0196 8.40345 5.7426 8.82409C5.46559 9.24472 5.15781 9.79873 5.05521 10.0552L4.86028 10.5169L3.2085 10.5477C1.59776 10.5785 1.55673 10.5887 1.19764 10.8555C0.520519 11.3787 0.5 11.4813 0.5 14.9593C0.5 17.9858 0.510259 18.0781 0.735968 18.468C0.879601 18.7245 1.13609 18.9604 1.41309 19.1143C1.82347 19.3298 1.99788 19.3503 3.38291 19.3503H4.89106L5.00391 19.6684C5.09625 19.9454 5.60922 20.8379 6.13246 21.6587C6.25557 21.8434 6.18375 22.0075 5.53741 23.1463C4.8808 24.2851 4.80898 24.4698 4.80898 24.9622C4.80898 25.5676 4.96287 25.9472 5.34248 26.2857C5.77337 26.6858 10.4209 29.3123 10.7903 29.3738C11.8162 29.538 12.3394 29.1379 13.2833 27.4758L13.9707 26.2755L15.4173 26.296L16.8639 26.3165L17.2948 27.0654L17.7257 27.8144L17.0075 28.5428C16.0226 29.5688 15.7456 30.3382 15.9918 31.3642L16.1252 31.8874L14.812 33.2006C13.6116 34.401 13.4782 34.5138 13.2525 34.4215C13.1192 34.3702 12.719 34.3292 12.3702 34.3292C11.1904 34.3292 11.2109 34.3189 5.76311 39.7769C2.23385 43.3267 0.777006 44.8554 0.664152 45.1427C0.428184 45.7069 0.458962 46.7842 0.715449 47.3587C0.982196 47.9537 4.97313 51.9857 5.5887 52.2833C6.16323 52.5705 7.52775 52.5705 8.0715 52.2935C8.27669 52.1807 10.7184 49.821 13.4885 47.0304C18.9568 41.5416 18.7619 41.7775 18.7619 40.608C18.7619 40.3207 18.7106 39.9616 18.6593 39.8077C18.5464 39.5307 18.5977 39.4692 19.8596 38.2072L21.1831 36.894L21.5217 37.0069C21.7166 37.0787 22.1578 37.0992 22.5681 37.0787L23.2761 37.0274V37.6327C23.2761 38.3509 23.4505 38.7305 23.9634 39.1203C24.3328 39.4076 24.3636 39.4076 25.964 39.4384L27.585 39.4692L27.9544 40.1976C28.1596 40.5977 28.4776 41.162 28.6725 41.4595L29.0316 41.993L28.3545 43.1421C27.9852 43.7781 27.6261 44.4963 27.5645 44.7323C27.4311 45.2452 27.5645 45.83 27.9133 46.2507C28.0467 46.4046 29.2778 47.1843 30.6629 47.9845C33.3406 49.5337 33.7099 49.6773 34.4794 49.4209C34.9821 49.2567 35.2694 48.9079 36.0286 47.6152L36.6749 46.4866H38.1523H39.6297L40.2965 47.6357C41.0763 48.9592 41.3327 49.2567 41.8252 49.4209C42.5947 49.6773 42.964 49.5337 45.6828 47.964C48.6067 46.2712 48.7709 46.1173 48.7606 45.1119C48.7606 44.5886 48.6991 44.4245 48.0219 43.2652L47.2832 41.9827L47.6321 41.4595C47.827 41.162 48.145 40.5977 48.3502 40.1976L48.7196 39.4692L50.3406 39.4384C51.941 39.4076 51.9718 39.4076 52.3412 39.1203C53.0286 38.5971 53.0286 38.5971 53.0286 35.0473C53.0286 31.4975 53.0286 31.4975 52.3412 30.9743C51.9718 30.687 51.941 30.687 50.3713 30.6563C49.489 30.6357 48.7298 30.5844 48.6888 30.5331C48.6375 30.4921 48.8222 30.1843 49.0889 29.856C50.7509 27.8041 52.1155 24.8802 52.7208 22.0691C53.0388 20.6122 53.1209 17.3908 52.8849 15.8005C52.2283 11.3377 49.9712 7.20309 46.6882 4.44328C42.7998 1.19103 38.0805 -0.337635 33.1252 0.0624847ZM37.4341 2.11438C43.2 3.04799 48.2169 7.23386 50.238 12.8048C50.8535 14.5078 51.11 15.9339 51.1613 17.9653C51.2126 20.1813 51.0074 21.6484 50.3713 23.5567C49.0376 27.5374 46.2881 30.8615 42.6049 32.9236C40.1119 34.3189 37.5675 34.9755 34.6641 34.9652C28.5597 34.9447 23.0811 31.6617 20.0648 26.2242C19.2236 24.7058 18.4849 22.4076 18.2386 20.5404C18.0642 19.1964 18.1771 16.2725 18.4438 15.0618C19.7365 9.2242 23.748 4.71003 29.3599 2.74021C31.853 1.86815 34.5923 1.65271 37.4341 2.11438ZM21.5422 3.39682L22.9477 4.19706L22.2809 4.79211C21.4396 5.53079 20.5265 6.55674 19.7776 7.60321C19.4493 8.05462 19.121 8.50604 19.0491 8.60863C18.926 8.78305 18.885 8.78305 18.2489 8.49578C17.2537 8.04436 16.5766 7.91099 15.325 7.91099C13.3859 7.92125 11.806 8.5676 10.4414 9.91159C9.56938 10.7734 9.02563 11.666 8.62551 12.8663C8.29721 13.882 8.25617 15.6466 8.54344 16.6726C9.10771 18.745 10.4107 20.3455 12.2574 21.2483C13.2936 21.751 14.1862 21.946 15.4891 21.9357H16.5766L16.7408 22.6744C16.8331 23.0745 16.9767 23.6183 17.0588 23.885L17.2127 24.3569L16.4432 24.4288C16.0123 24.4698 15.0787 24.4698 14.3606 24.4288L13.0473 24.3569L12.7909 24.6647C12.6575 24.8289 12.2266 25.5265 11.8367 26.2036C11.4469 26.891 11.098 27.4553 11.057 27.4553C10.9852 27.4553 7.2097 25.3008 6.84036 25.0443C6.68647 24.9417 6.74802 24.7878 7.48671 23.5362C8.49214 21.8023 8.51266 21.6177 7.82527 20.7353C7.29178 20.0377 6.75828 19.1143 6.5018 18.3962C6.18375 17.5446 6.0709 17.5036 4.08056 17.5036H2.34671V14.9387V12.3739H4.019C5.13729 12.3739 5.76311 12.3328 5.93753 12.2405C6.20427 12.1071 6.22479 12.0661 6.78906 10.8349C6.98399 10.4143 7.40463 9.7064 7.72268 9.26524C8.51266 8.16748 8.5024 8.07514 7.48671 6.32077C7.03529 5.56157 6.70699 4.90496 6.73777 4.86392C6.8814 4.73055 10.9339 2.42216 11.0365 2.42216C11.098 2.42216 11.4982 3.03773 11.9291 3.79694C12.3497 4.54588 12.7806 5.223 12.8729 5.29482C12.996 5.39742 13.6014 5.43845 15.3557 5.44872C16.6382 5.45897 17.7565 5.4282 17.8488 5.38716C17.9411 5.33586 18.3925 4.63821 18.8645 3.8072C19.675 2.39139 19.7263 2.32983 19.9315 2.45295C20.0546 2.52476 20.7727 2.9454 21.5422 3.39682ZM16.4125 9.85003C16.946 9.96289 17.818 10.3014 18.0232 10.4759C18.0335 10.4861 17.9103 10.8042 17.7359 11.1838C16.7202 13.4306 16.0739 16.8778 16.2483 19.1656L16.3201 20.0685H15.4583C14.9864 20.0685 14.3811 20.0069 14.0938 19.9248C12.3702 19.4632 10.9236 18.0371 10.4107 16.2827C10.226 15.6466 10.1952 14.395 10.3594 13.7076C10.6774 12.302 11.806 10.9273 13.1294 10.2809C14.3093 9.71666 15.2224 9.60381 16.4125 9.85003ZM21.573 31.3949C22.0962 31.9182 22.9067 32.6363 23.3786 32.9954L24.2199 33.6315L23.4197 34.442C22.7631 35.0986 22.5579 35.2525 22.3014 35.2525C22.0347 35.2525 21.6961 34.9652 19.9007 33.1596C17.3666 30.6152 17.4281 30.7999 18.608 29.6098L19.398 28.8096L20.0135 29.6201C20.3521 30.0715 21.0497 30.8615 21.573 31.3949ZM47.4269 32.226C47.6834 32.4824 47.7039 32.4824 49.4377 32.4824H51.1818V35.0473V37.6122H49.5506C48.6478 37.6122 47.7962 37.6532 47.6526 37.7148C47.4577 37.7866 47.2627 38.0944 46.8421 38.9664C46.5343 39.6025 46.0521 40.4438 45.7546 40.8439C45.3955 41.3364 45.2313 41.6544 45.2313 41.8699C45.2313 42.0751 45.5186 42.6804 46.0521 43.614C46.5035 44.3937 46.8421 45.0708 46.801 45.1119C46.7497 45.1529 45.7648 45.7377 44.5953 46.4148L42.4613 47.646L41.6303 46.1994C41.1788 45.3991 40.7274 44.7015 40.6351 44.6399C40.5325 44.5886 39.4245 44.5476 38.1215 44.5373C36.0901 44.5373 35.7516 44.5579 35.5977 44.7015C35.4951 44.7938 35.0745 45.471 34.6538 46.2199C34.2332 46.9586 33.8536 47.5639 33.8023 47.5639C33.7099 47.5639 29.8934 45.3889 29.5856 45.1632C29.4523 45.0708 29.5549 44.8451 30.2525 43.614C30.786 42.6906 31.0733 42.0751 31.0733 41.8699C31.0733 41.6544 30.9091 41.3364 30.55 40.8439C30.2525 40.4438 29.7703 39.6025 29.4625 38.9664C29.0419 38.0944 28.847 37.7866 28.652 37.7148C28.5084 37.6532 27.6569 37.6122 26.754 37.6122H25.1228V36.5144V35.4167L25.4921 35.0371L25.8614 34.6575L26.7951 35.0986C27.821 35.5706 29.6369 36.1861 30.6218 36.3913L31.2477 36.5144L31.381 37.0274C31.5657 37.7456 32.2121 39.0075 32.725 39.6128C33.6176 40.7003 35.0745 41.6134 36.4595 41.9725C37.2802 42.1879 38.9423 42.1879 39.8451 41.9827C42.0099 41.4698 43.9079 39.818 44.7184 37.7148C45.1082 36.6786 45.2929 35.2525 45.1493 34.3292C45.0467 33.7033 45.0569 33.652 45.2621 33.5084C45.3852 33.4263 45.8572 33.0467 46.3086 32.6671C46.76 32.2875 47.1396 31.9797 47.1499 31.9797C47.1601 31.9695 47.2832 32.0823 47.4269 32.226ZM18.5362 36.8632L17.3256 38.0739L16.1457 36.894L14.9659 35.7142L16.1662 34.5138L17.3769 33.3032L18.5567 34.483L19.7365 35.6629L18.5362 36.8632ZM43.3333 35.4372C43.005 38.0739 41.1583 39.9308 38.5627 40.2284C37.2802 40.372 35.5772 39.7462 34.5717 38.751C34.0485 38.238 33.3303 37.1813 33.3303 36.9248C33.3303 36.8632 33.9664 36.8222 34.9 36.812C37.4649 36.7914 39.6194 36.34 41.9996 35.3141C42.6767 35.0165 43.2718 34.8011 43.3231 34.8216C43.3641 34.8421 43.3744 35.1294 43.3333 35.4372ZM14.8428 38.2688C16.6074 40.0334 16.9152 40.3823 16.9152 40.649C16.9152 40.9055 16.433 41.4287 13.3962 44.4655L9.88743 47.9743L7.47645 45.5633L5.06547 43.1523L8.5024 39.7051C10.3901 37.8071 12.0317 36.2272 12.1445 36.1759C12.2574 36.1246 12.442 36.1143 12.5549 36.1451C12.6677 36.1656 13.6937 37.13 14.8428 38.2688ZM7.82527 50.0262C7.261 50.5699 7.02503 50.7443 6.79932 50.7443C6.55309 50.7443 6.15298 50.3955 4.42938 48.6617C1.91581 46.1481 1.95685 46.2609 3.03409 45.1837L3.73174 44.486L6.14272 46.897L8.55369 49.3183L7.82527 50.0262Z" fill="#191919"/>
<path d="M32.4802 3.61224C27.8634 4.33041 24.0264 6.95683 21.7077 10.9888C19.6353 14.6001 19.2249 19.2887 20.6099 23.3515C20.7331 23.7208 21.0306 24.4082 21.2563 24.8801C23.2671 29.0455 27.1247 32.0413 31.7928 33.0467C32.8392 33.2724 35.5375 33.3647 36.625 33.2109C43.5604 32.2362 48.7414 26.9833 49.5519 20.1198C49.6956 18.8886 49.6238 16.7444 49.3878 15.5748C48.0028 8.50602 41.7547 3.39679 34.5628 3.45835C33.9165 3.46861 32.9726 3.53017 32.4802 3.61224ZM36.2044 5.40765C37.9382 5.6231 39.7747 6.22841 41.1494 7.04917L41.8573 7.45955L39.2104 10.1783C37.4765 11.9635 36.5019 12.8868 36.3685 12.8868C36.2351 12.8868 35.4759 12.1994 34.2551 10.9991C33.1778 9.92182 32.2442 9.08055 32.1006 9.03951C31.9262 8.99847 31.5055 9.11133 30.7873 9.39859C29.3305 9.98338 28.243 10.2912 26.9195 10.4861C25.7602 10.6502 25.3909 10.7939 25.2883 11.1119C25.2575 11.2145 24.9497 12.3841 24.6111 13.7076C24.2623 15.031 23.934 16.1801 23.8725 16.2417C23.7186 16.4263 23.4723 16.4058 22.6105 16.1596L21.8513 15.9339L21.9129 15.6158C22.0258 15.0208 22.4772 13.6768 22.8055 12.9484C24.0571 10.2296 26.1295 8.08538 28.8175 6.73112C30.2436 6.01296 31.5363 5.63336 33.4343 5.35635C33.9986 5.27428 35.3836 5.30506 36.2044 5.40765ZM44.217 9.47041C45.0275 10.3425 45.8175 11.5018 46.4023 12.6508C46.7819 13.4203 47.3256 14.9285 47.2538 15.0105C47.223 15.031 46.9973 15.0003 46.7408 14.9285C46.3818 14.8464 46.1458 14.8464 45.7559 14.9387C44.8223 15.1644 44.5761 15.4312 43.2834 17.6883L42.1036 19.7607L41.3854 19.6889C40.4928 19.6068 39.0975 19.5863 37.969 19.6581L37.1072 19.7094L35.9786 17.7601C35.3631 16.6828 34.7578 15.6979 34.6347 15.5748C34.1422 15.0413 33.2291 14.7643 32.5212 14.9285C32.1313 15.0105 25.2883 18.8681 24.5188 19.4324C24.0879 19.7504 23.6878 20.5917 23.6878 21.197C23.6878 21.7613 23.893 22.1922 25.1139 24.3056C25.6268 25.1879 26.0577 25.9574 26.0782 26.0087C26.0988 26.1113 25.3088 27.3527 25.2267 27.3424C25.1344 27.3424 24.3034 26.2857 23.8417 25.6086C22.5079 23.6182 21.7898 21.4124 21.6667 18.9707L21.6051 17.8319L22.5695 18.0781C23.4005 18.2936 23.5955 18.3141 24.0571 18.2217C24.6317 18.0986 25.3293 17.5857 25.5858 17.0932C25.6679 16.9393 25.9859 15.8313 26.304 14.6309C26.6117 13.4203 26.8785 12.4251 26.899 12.4149C26.9093 12.4046 27.3196 12.3225 27.8121 12.2302C28.8791 12.025 30.2333 11.6454 31.0644 11.3069L31.6697 11.0606L33.2394 12.6508C35.0861 14.4976 35.5375 14.7848 36.4916 14.713C36.8097 14.6925 37.2406 14.5899 37.4458 14.4873C37.6715 14.3847 38.9539 13.1433 40.5646 11.4915C42.0728 9.94234 43.3347 8.68043 43.386 8.68043C43.427 8.68043 43.8066 9.03951 44.217 9.47041ZM34.6141 19.1451C35.3118 20.3557 35.9992 21.4432 36.1428 21.5458C36.389 21.7305 36.4608 21.7407 37.456 21.6074C38.7795 21.433 40.462 21.433 41.806 21.6074C42.5652 21.6997 42.8935 21.71 43.0474 21.6279C43.1705 21.5561 43.8477 20.4788 44.5761 19.2272C45.2943 17.9653 45.9509 16.888 46.0329 16.8162C46.2074 16.6726 46.3305 16.7136 47.1102 17.165L47.695 17.5138V18.5706C47.695 21.5253 46.6075 24.4595 44.6274 26.8089L44.1042 27.445L43.4578 27.1475C40.6878 25.8958 37.6715 25.9677 35.0963 27.3629C33.6908 28.1119 32.4802 29.2199 31.762 30.3998C31.5773 30.7075 31.3619 30.9435 31.2593 30.9435C31.0028 30.9435 29.6793 30.451 28.8791 30.0509C28.1507 29.6816 27.5864 29.343 27.0016 28.9121C26.6117 28.6249 26.5912 28.6659 27.5351 27.404C27.9968 26.7782 28.202 26.4191 28.202 26.2036C28.202 26.0087 27.7916 25.1982 27.0324 23.8747C25.5242 21.2586 25.514 21.2278 25.6166 21.0431C25.6576 20.9508 27.3299 19.9453 29.3305 18.786C32.4802 16.9701 32.9931 16.7033 33.1573 16.8162C33.2599 16.888 33.9165 17.9345 34.6141 19.1451ZM40.4107 28.1734C41.1802 28.2966 42.4626 28.6762 42.4626 28.789C42.4626 28.9121 41.4264 29.5585 40.4518 30.0509C38.6872 30.9332 36.8302 31.3847 34.8501 31.3949C34.1422 31.4052 33.5164 31.3744 33.4753 31.3334C33.3625 31.2103 34.3371 30.133 35.0245 29.6303C36.6763 28.4094 38.5948 27.8964 40.4107 28.1734Z" fill="#191919"/>
</svg>
