<svg width="53" height="53" viewBox="0 0 53 53" fill="none" xmlns="http://www.w3.org/2000/svg">
<path d="M1.9293 0.201038C1.69652 0.30685 1.35793 0.560791 1.16747 0.751247C0.447965 1.51308 0.50087 0.158714 0.50087 18.6225C0.50087 37.0862 0.447965 35.7318 1.16747 36.4937C1.83407 37.192 2.06685 37.2449 4.80731 37.2449H7.26209L7.29384 41.6572L7.32558 46.08L7.61126 46.662C8.15089 47.7624 9.12434 48.63 10.1613 48.9369L10.6057 49.0638L10.6586 50.6192C10.7009 52.0053 10.7326 52.1958 10.9125 52.3334C11.2194 52.5555 18.5625 52.5555 18.8694 52.3334C19.0493 52.1958 19.081 52.0053 19.1233 50.6192L19.1762 49.0638L19.6206 48.9369C20.6576 48.63 21.631 47.7624 22.1706 46.662L22.4563 46.08L22.4881 41.6572L22.5198 37.2449H36.8253C50.5382 37.2449 51.1519 37.2343 51.5539 37.0439C51.7867 36.9381 52.1253 36.6841 52.3158 36.4937C53.0353 35.7318 52.9824 37.0968 52.9824 18.6013C52.9824 2.50769 52.9718 1.83051 52.7813 1.42843C52.538 0.909962 51.9983 0.380917 51.4799 0.169296C51.1307 0.0211639 48.496 0 26.7205 0C3.20959 0 2.34195 0.010582 1.9293 0.201038ZM50.6545 1.80934C51.3317 2.0527 51.2894 1.04752 51.2894 18.6225C51.2894 36.1974 51.3317 35.1922 50.6545 35.4356C50.4006 35.5202 46.2846 35.552 35.5661 35.552H20.8163V34.7055V33.859H23.1441C25.3343 33.859 25.4825 33.8484 25.6835 33.6474C25.8951 33.4358 25.8951 33.2982 25.8951 27.0872C25.8951 20.8762 25.8951 20.7387 25.6835 20.527C25.4719 20.3154 25.3343 20.3154 14.891 20.3154C4.44756 20.3154 4.31001 20.3154 4.09839 20.527C3.88677 20.7387 3.88677 20.8762 3.88677 27.0872C3.88677 33.2982 3.88677 33.4358 4.09839 33.6474C4.29943 33.8484 4.44756 33.859 6.63782 33.859H8.96562V34.7055V35.552H6.06645C4.18304 35.552 3.06146 35.5096 2.82868 35.4356C2.1515 35.1922 2.19382 36.1974 2.19382 18.6436C2.19382 7.01517 2.22556 2.58175 2.31021 2.32781C2.39486 2.10561 2.55357 1.93631 2.76519 1.84109C3.0403 1.7247 7.07164 1.70353 26.6993 1.69295C44.052 1.69295 50.4006 1.7247 50.6545 1.80934ZM24.2022 27.0872V32.1661H22.5092H20.8163V31.3196V30.4731H21.4511C22.5092 30.4731 22.5092 30.4625 22.5092 27.9337C22.5092 25.9551 22.4987 25.8069 22.2976 25.6059C22.086 25.3943 21.9484 25.3943 14.891 25.3943C7.83346 25.3943 7.69591 25.3943 7.48429 25.6059C7.28326 25.8069 7.27267 25.9551 7.27267 27.9337C7.27267 30.4625 7.27267 30.4731 8.33077 30.4731H8.96562V31.3196V32.1661H7.27267H5.57972V27.0872V22.0084H14.891H24.2022V27.0872ZM20.8163 27.9337V28.7802H14.891H8.96562V27.9337V27.0872H14.891H20.8163V27.9337ZM19.1233 33.0125V35.552H14.891H10.6586V33.0125V30.4731H14.891H19.1233V33.0125ZM20.7951 41.2868C20.7634 45.1383 20.7528 45.3605 20.5412 45.8155C20.2767 46.3869 19.6206 47.0111 19.0598 47.2016C18.7424 47.318 17.7901 47.3497 14.838 47.3497C11.1876 47.3497 11.0077 47.3391 10.5528 47.1275C9.94965 46.8418 9.52641 46.4186 9.24073 45.8155C9.02911 45.3605 9.01853 45.1489 8.98679 41.2868L8.95504 37.2449H14.891H20.8269L20.7951 41.2868ZM17.4304 49.9421V50.7885H14.891H12.3515V49.9421V49.0956H14.891H17.4304V49.9421Z" fill="#191919"/>
<path d="M31.6504 3.53401C31.1742 3.74563 30.6029 4.28526 30.4018 4.70849L30.222 5.07883H29.0898H27.9682L25.4182 7.61825L22.8682 10.1577H18.4136C13.9696 10.1577 13.9485 10.1577 13.885 9.93548C13.7686 9.56515 13.0703 8.86681 12.6153 8.66577C12.0439 8.40124 10.9541 8.40124 10.3933 8.66577C9.48331 9.08901 8.96484 9.93548 8.96484 11.0042C8.96484 12.0728 9.48331 12.9193 10.3933 13.3425C10.9541 13.6071 12.0439 13.6071 12.6153 13.3425C13.0703 13.1415 13.7686 12.4432 13.885 12.0728C13.9485 11.8506 14.0014 11.8506 16.2974 11.8506H18.6358L21.1858 14.3901L23.7358 16.9295H25.2383H26.7408V17.5643C26.7408 18.6119 26.762 18.6224 29.2379 18.6224C30.3807 18.6224 31.3859 18.5801 31.5023 18.5166C31.8303 18.3368 31.9255 17.8077 31.9255 16.083C31.9255 14.3583 31.8303 13.8293 31.5023 13.6494C31.3859 13.5859 30.3807 13.5436 29.2379 13.5436C26.762 13.5436 26.7408 13.5542 26.7408 14.6017V15.2365H25.7039H24.6775L22.9846 13.5436L21.2916 11.8506H29.5236H37.745V12.9087C37.745 14.1361 37.8826 14.3901 38.5386 14.3901C38.9936 14.3901 44.3475 11.7554 44.4533 11.4803C44.538 11.2581 44.538 10.7502 44.4533 10.528C44.3475 10.2529 38.9936 7.61825 38.5386 7.61825C37.8826 7.61825 37.745 7.8722 37.745 9.09959V10.1577H31.6398H25.524L27.217 8.46473L28.9099 6.77178H29.5659C30.2114 6.77178 30.222 6.78236 30.4018 7.14211C30.6029 7.57593 31.1848 8.11556 31.6716 8.3166C32.1794 8.52822 33.2693 8.49647 33.7772 8.26369C35.1527 7.62883 35.6711 5.97821 34.9199 4.64501C34.4543 3.80911 33.8301 3.44936 32.7826 3.40704C32.2641 3.39646 31.862 3.43878 31.6504 3.53401ZM33.2481 5.39626C33.6925 5.88298 33.3539 6.66597 32.6979 6.66597C32.2535 6.66597 31.9255 6.34854 31.9255 5.9253C31.9255 5.26928 32.8143 4.92011 33.2481 5.39626ZM41.5542 11.0042C41.5542 11.0359 41.0992 11.2898 40.549 11.5649L39.5438 12.0623V11.0042V9.94606L40.549 10.4434C41.0992 10.7185 41.5542 10.9724 41.5542 11.0042ZM12.0862 10.4751C12.3613 10.782 12.3402 11.311 12.0439 11.5544C11.5149 11.967 10.7636 11.6496 10.7636 11.0042C10.7636 10.3481 11.6524 9.99897 12.0862 10.4751ZM30.1267 16.083V16.9295H29.3332H28.5396V16.083V15.2365H29.3332H30.1267V16.083Z" fill="#191919"/>
<path d="M27.8015 20.527C27.5898 20.7386 27.5898 20.8762 27.5898 27.0872C27.5898 33.2982 27.5898 33.4358 27.8015 33.6474C28.0131 33.859 28.1506 33.859 38.594 33.859C49.0374 33.859 49.175 33.859 49.3866 33.6474C49.5982 33.4358 49.5982 33.2982 49.5982 27.0872C49.5982 20.8762 49.5982 20.7386 49.3866 20.527C49.175 20.3154 49.0374 20.3154 38.594 20.3154C28.1506 20.3154 28.0131 20.3154 27.8015 20.527ZM47.9053 27.0872V32.1661H38.594H29.2828V27.0872V22.0084H38.594H47.9053V27.0872Z" fill="#191919"/>
<path d="M31.1843 25.6059C30.9832 25.8069 30.9727 25.9551 30.9727 27.9337C30.9727 29.9124 30.9832 30.0605 31.1843 30.2615C31.3959 30.4731 31.5334 30.4731 38.5909 30.4731C45.6484 30.4731 45.786 30.4731 45.9976 30.2615C46.1986 30.0605 46.2092 29.9124 46.2092 27.9337C46.2092 25.9551 46.1986 25.8069 45.9976 25.6059C45.786 25.3943 45.6484 25.3943 38.5909 25.3943C31.5334 25.3943 31.3959 25.3943 31.1843 25.6059ZM44.5163 27.9337V28.7802H38.5909H32.6656V27.9337V27.0872H38.5909H44.5163V27.9337Z" fill="#191919"/>
<path d="M12.3516 33.0125V33.859H13.198H14.0445V33.0125V32.1661H13.198H12.3516V33.0125Z" fill="#191919"/>
<path d="M15.7383 33.0125V33.859H16.5848H17.4312V33.0125V32.1661H16.5848H15.7383V33.0125Z" fill="#191919"/>
<path d="M10.6602 39.7844V40.6309H14.8925H19.1249V39.7844V38.9379H14.8925H10.6602V39.7844Z" fill="#191919"/>
</svg>
