<svg width="53" height="53" viewBox="0 0 53 53" fill="none" xmlns="http://www.w3.org/2000/svg">
<path d="M12.4806 0.266903L12.2138 0.544022V16.3706V32.1972L12.4806 32.4743L12.7577 32.7412H28.8512H44.9549V33.8188V34.8965H23.5038H2.05273V22.8367V10.7769H4.55707H7.05114L7.32826 10.51C7.70802 10.12 7.70802 9.38104 7.32826 8.99102L7.05114 8.72417H3.79756H0.543975L0.266855 8.99102L0 9.26814V25.8132V42.3582L0.266855 42.6353L0.543975 42.9022H9.45284H18.372V44.647V46.3918H16.1242H13.8867L13.6096 46.6587L13.3428 46.9358V49.4709V52.0061L13.6096 52.2832L13.8867 52.55H23.5038H33.1209L33.3775 52.2935C33.7367 51.9445 33.7675 51.6879 33.7675 49.4709C33.7675 47.254 33.7367 46.9974 33.3775 46.6484L33.1209 46.3918H30.9347H28.7383V44.647V42.9022H37.6061H46.4636L46.7408 42.6353L47.0076 42.3582V37.5548V32.7412H49.512H52.006L52.2831 32.4743L52.55 32.1972V16.3706V0.544022L52.2831 0.266903L52.006 4.57764e-05H32.3819H12.7577L12.4806 0.266903ZM50.4973 4.72134V7.38989H32.3819H14.2665V4.72134V2.05278H32.3819H50.4973V4.72134ZM50.4973 20.0655V30.6884H32.3819H14.2665V20.0655V9.44263H32.3819H50.4973V20.0655ZM44.9549 38.8994V40.8495H23.5038H2.05273V38.8994V36.9493H23.5038H44.9549V38.8994ZM26.5829 44.647V46.3918H23.5551H20.5273V44.647V42.9022H23.5551H26.5829V44.647ZM31.6121 49.4709V50.4973H23.5038H15.3955V49.4709V48.4446H23.5038H31.6121V49.4709Z" fill="#151515"/>
<path d="M18.3294 3.96192C18.1138 4.17746 18.0625 4.33142 18.0625 4.72144C18.0625 5.11146 18.1138 5.26541 18.3294 5.48095C18.5449 5.69648 18.6988 5.7478 19.0889 5.7478C19.4789 5.7478 19.6328 5.69648 19.8484 5.48095C20.0639 5.26541 20.1152 5.11146 20.1152 4.72144C20.1152 4.33142 20.0639 4.17746 19.8484 3.96192C19.6328 3.74639 19.4789 3.69507 19.0889 3.69507C18.6988 3.69507 18.5449 3.74639 18.3294 3.96192Z" fill="#151515"/>
<path d="M22.1394 3.96192C21.4415 4.65985 21.8726 5.7478 22.8681 5.7478C23.2274 5.7478 23.3711 5.68622 23.6174 5.45016C24.2845 4.77275 23.8227 3.69507 22.8579 3.69507C22.5089 3.69507 22.3447 3.75665 22.1394 3.96192Z" fill="#151515"/>
<path d="M25.9148 3.94139C25.6274 4.23903 25.5042 4.61879 25.5966 4.98828C25.8532 6.01465 27.4133 6.01465 27.6699 4.98828C27.7623 4.61879 27.6391 4.23903 27.3517 3.94139C27.167 3.75664 26.9925 3.69506 26.6333 3.69506C26.274 3.69506 26.0995 3.75664 25.9148 3.94139Z" fill="#151515"/>
<path d="M30.0325 3.96174C29.8169 4.17727 29.7656 4.33123 29.7656 4.72125C29.7656 5.11127 29.8169 5.26522 30.0325 5.48076L30.3096 5.74762H38.5616C47.7168 5.74762 47.1831 5.78867 47.4191 5.07021C47.5115 4.81362 47.5115 4.62887 47.4191 4.37228C47.1831 3.65383 47.7168 3.69488 38.5616 3.69488H30.3096L30.0325 3.96174Z" fill="#151515"/>
<path d="M30.2772 11.5569C28.2245 12.0085 26.0178 13.0862 23.9753 14.6566C22.6411 15.6829 20.5986 17.7562 19.7364 18.9673C19.1001 19.85 19.1001 20.1784 19.757 21.0919C20.0238 21.4717 20.8244 22.3749 21.5326 23.1036C27.3213 29.077 33.1921 30.2368 39.104 26.5522C40.9515 25.4026 43.1787 23.4012 44.6464 21.5743C45.3956 20.6506 45.6009 20.199 45.488 19.7576C45.3751 19.3471 44.5232 18.2694 43.3326 17.0275C40.428 13.9894 37.3592 12.1214 34.3211 11.5364C33.3461 11.3517 31.1702 11.3619 30.2772 11.5569ZM34.9985 13.9381C37.6158 14.8003 40.2433 16.7196 42.7373 19.5831L43.1171 20.0245L42.7065 20.5069C42.1626 21.1535 40.5306 22.7546 39.7711 23.3807C38.9192 24.0889 37.3694 25.0845 36.497 25.495C34.9677 26.2135 33.8079 26.4906 32.3197 26.4906C29.2714 26.4906 26.1102 24.7663 22.8566 21.3485C22.3024 20.7635 21.8097 20.2092 21.7584 20.1066C21.6763 19.9526 21.8508 19.7166 22.8053 18.721C25.2378 16.1961 27.5676 14.6155 29.8667 13.9279C31.0778 13.5584 31.0881 13.5584 32.6379 13.5892C33.8593 13.6199 34.1364 13.661 34.9985 13.9381Z" fill="#151515"/>
<path d="M31.6538 14.8823C30.494 15.0568 29.5498 15.5392 28.7081 16.3706C26.717 18.3617 26.7067 21.6564 28.6773 23.627C30.7711 25.7208 34.035 25.7208 36.098 23.6167C38.0583 21.6358 38.0481 18.3617 36.0877 16.4014C34.8971 15.2108 33.2344 14.6463 31.6538 14.8823ZM33.6244 17.2943C34.6611 17.7562 35.4103 18.8954 35.4103 20.0142C35.4103 22.149 33.1112 23.6475 31.1817 22.7648C29.2418 21.8719 28.7595 19.4394 30.2374 17.9204C31.1509 16.9864 32.4031 16.7503 33.6244 17.2943Z" fill="#151515"/>
<path d="M31.6835 19.2342C30.8316 20.0245 31.5809 21.3177 32.7201 21.0201C33.0896 20.9174 33.4591 20.435 33.4591 20.0347C33.4591 19.1521 32.3301 18.6389 31.6835 19.2342Z" fill="#151515"/>
<path d="M6.29222 14.8515C6.16905 14.8721 5.95352 15.0157 5.80982 15.1594L5.54297 15.4263V18.4951V21.564L5.7893 21.8103C6.08694 22.0977 6.4667 22.2208 6.83619 22.1285C6.97988 22.0874 7.21595 21.9437 7.34938 21.8103L7.5957 21.564V18.4951V15.4263L7.32885 15.1492C7.17489 15.0055 7.00041 14.8823 6.9183 14.8823C6.84646 14.8823 6.73355 14.8618 6.65145 14.8413C6.5796 14.8207 6.41538 14.831 6.29222 14.8515Z" fill="#151515"/>
<path d="M5.84017 24.1095C5.25514 24.7048 5.54253 25.7414 6.35336 25.9159C7.3592 26.1314 8.02634 24.8484 7.29762 24.1095C7.06155 23.8734 6.9076 23.8118 6.56889 23.8118C6.23019 23.8118 6.07624 23.8734 5.84017 24.1095Z" fill="#151515"/>
<path d="M5.86114 27.8762C5.58402 28.102 5.54297 28.2047 5.54297 28.6357C5.54297 29.3131 5.88167 29.6621 6.56934 29.6621C7.257 29.6621 7.5957 29.3131 7.5957 28.6357C7.5957 28.2047 7.55465 28.102 7.27753 27.8762C6.84646 27.517 6.29222 27.517 5.86114 27.8762Z" fill="#151515"/>
</svg>
