<svg width="58" height="53" viewBox="0 0 58 53" fill="none" xmlns="http://www.w3.org/2000/svg">
<path d="M6.23372 0.133495C4.38045 0.582773 2.9203 1.9643 2.35871 3.77264C2.17899 4.33424 2.13407 4.81721 2.13407 5.9404V7.38932H1.31414C0.595292 7.38932 0.460509 7.42302 0.247102 7.64766C0 7.90599 0 7.92845 0 13.1288V18.3629L0.29203 18.6325L0.58406 18.902L7.22213 18.9357C11.7935 18.9582 14.0062 18.9357 14.287 18.8459C15.062 18.6213 15.0508 18.6774 15.0508 13.1176C15.0508 7.90599 15.0283 7.64766 14.5454 7.45671C14.4443 7.42302 12.0519 7.38932 9.24388 7.38932H4.13335L4.17828 5.95163C4.22321 4.68243 4.2569 4.45779 4.51524 3.96358C5.13299 2.773 6.21126 2.09908 7.48047 2.08785C9.06417 2.07662 10.4906 3.2672 10.7377 4.80598C10.8388 5.4125 11.1758 5.80562 11.6924 5.88424C12.0069 5.9404 12.1529 5.89548 12.445 5.64837C12.7595 5.39004 12.8044 5.27772 12.8044 4.81721C12.8044 3.27844 11.5352 1.36901 9.97395 0.582773C8.87323 0.0211754 7.40184 -0.147303 6.23372 0.133495ZM12.9167 13.1176V16.8241H7.46923H2.02175V13.1176V9.41107H7.46923H12.9167V13.1176Z" fill="#151515"/>
<path d="M6.88522 11.489C6.20007 11.9719 6.245 14.4205 6.94138 14.7912C7.36819 15.0158 7.86239 14.9372 8.21058 14.589C8.52508 14.2633 8.53631 14.2296 8.53631 13.1176C8.53631 12.0056 8.52508 11.9719 8.21058 11.6462C7.8287 11.2756 7.28957 11.2082 6.88522 11.489Z" fill="#151515"/>
<path d="M48.7245 0.144728C46.9386 0.594004 45.5234 1.89691 44.9281 3.62663C44.8045 3.98605 44.7034 4.52518 44.7034 4.81721C44.7034 5.27772 44.7484 5.39004 45.0628 5.64837C45.748 6.2212 46.6129 5.79439 46.7701 4.80598C46.9273 3.78387 47.59 2.93025 48.5784 2.43604C50.252 1.61611 52.1053 2.25633 52.9926 3.96358C53.2509 4.45779 53.2846 4.68243 53.3295 5.95163L53.3745 7.38932H48.2639C45.456 7.38932 43.0636 7.42302 42.9625 7.45671C42.4795 7.64766 42.457 7.90599 42.457 13.1176C42.457 18.6774 42.4458 18.6213 43.2208 18.8459C43.5016 18.9357 45.7143 18.9582 50.2857 18.9357L56.9238 18.902L57.2158 18.6325L57.5078 18.3629V13.1176V7.87229L57.2495 7.63642C57.0361 7.43425 56.8564 7.38932 56.1937 7.38932H55.3962L55.3513 5.727C55.3176 4.33424 55.2614 3.97482 55.048 3.42445C54.4977 2.02046 53.2285 0.796179 51.8132 0.290743C50.9708 -0.00128746 49.5669 -0.0686798 48.7245 0.144728ZM55.4861 13.1176V16.8241H50.0386H44.5911V13.1176V9.41107H50.0386H55.4861V13.1176Z" fill="#151515"/>
<path d="M49.2984 11.6462C48.9839 11.9719 48.9727 12.0056 48.9727 13.1176C48.9727 14.2296 48.9839 14.2633 49.2984 14.589C49.86 15.1394 50.6574 15.0046 50.9495 14.297C51.1292 13.8477 51.1517 12.6796 50.9944 12.0843C50.7698 11.2756 49.8937 11.0509 49.2984 11.6462Z" fill="#151515"/>
<path d="M17.24 0.537914C17.1164 0.582841 16.6447 1.00965 16.2066 1.47016C15.499 2.18901 15.3867 2.36872 15.3867 2.70568C15.3867 3.3122 15.8023 3.73901 16.3864 3.73901C16.8132 3.73901 16.9143 3.66039 17.7454 2.84046C18.5766 2.02053 18.644 1.90821 18.644 1.49263C18.6327 0.683929 17.9813 0.22342 17.24 0.537914Z" fill="#151515"/>
<path d="M39.3687 0.560378C38.9981 0.773784 38.8745 1.02089 38.8633 1.49263C38.8633 1.90821 38.9307 2.02053 39.7618 2.84046C40.593 3.66039 40.6941 3.73901 41.1209 3.73901C41.705 3.73901 42.1205 3.3122 42.1205 2.70568C42.1205 2.35749 42.0082 2.18901 41.2557 1.414C40.3347 0.481754 39.8517 0.268347 39.3687 0.560378Z" fill="#151515"/>
<path d="M16.2846 4.72726C15.577 5.08668 15.577 6.15372 16.2846 6.52437C16.6103 6.69285 16.8911 6.72654 17.8459 6.69285C18.9578 6.65915 19.014 6.63669 19.2723 6.34466C19.6767 5.87292 19.643 5.24393 19.1937 4.87328C18.8792 4.60371 18.7781 4.58124 17.7111 4.58124C17.0147 4.58124 16.4531 4.6374 16.2846 4.72726Z" fill="#151515"/>
<path d="M38.3139 4.87328C37.8647 5.24393 37.831 5.87292 38.2353 6.34466C38.4936 6.63669 38.5498 6.65915 39.6618 6.69285C40.6165 6.72654 40.8973 6.69285 41.223 6.52437C41.9531 6.14248 41.9531 5.09791 41.223 4.72726C41.0545 4.6374 40.4929 4.58124 39.7965 4.58124C38.7295 4.58124 38.6284 4.60371 38.3139 4.87328Z" fill="#151515"/>
<path d="M27.6886 7.70376C25.8016 8.4563 24.1618 9.97261 22.4882 12.5335C21.0281 14.7799 18.9839 19.6096 18.7704 21.3506C18.7031 21.9122 18.7031 21.9234 18.1976 22.0469C15.4683 22.7658 12.5817 25.8209 9.36932 31.4256C8.13381 33.5934 5.33706 39.1082 5.06749 39.9282C4.56206 41.4332 4.85409 42.8709 5.8088 43.6572L6.23561 44.0054H3.86568C1.5519 44.0054 1.49574 44.0166 1.2711 44.2525C1.14755 44.3985 1.01277 44.6343 0.979072 44.7804C0.889216 45.1286 1.14755 45.7463 1.43958 45.9036C1.59683 45.9934 3.62981 46.0271 7.79685 46.0271H13.9295L13.9744 46.2742C14.0193 46.5213 14.2664 49.9021 14.2664 50.3177C14.2664 50.4974 14.1429 50.5199 13.1994 50.5199C12.211 50.5199 12.0987 50.5423 11.8516 50.8007C11.6494 50.9916 11.5708 51.1938 11.5708 51.4971C11.582 51.9688 11.7168 52.2047 12.0987 52.4068C12.4469 52.5978 45.0644 52.5978 45.4126 52.4068C45.7945 52.2047 45.9293 51.9688 45.9405 51.4971C45.9405 51.1938 45.8619 50.9916 45.6597 50.8007C45.4126 50.5423 45.3003 50.5199 44.3119 50.5199C43.3684 50.5199 43.2448 50.4974 43.2448 50.3177C43.2448 49.9021 43.4919 46.5213 43.5369 46.2742L43.5818 46.0271H49.7144C53.8815 46.0271 55.9144 45.9934 56.0717 45.9036C56.3637 45.7463 56.6445 45.0724 56.5434 44.7579C56.5097 44.6231 56.3637 44.3985 56.2402 44.2525C56.0155 44.0166 55.9594 44.0054 53.6456 44.0054H51.2757L51.7025 43.6572C52.6572 42.8709 52.938 41.4782 52.4438 39.9506C52.1742 39.1195 49.4112 33.6383 48.1419 31.4256C44.9184 25.8096 42.043 22.7658 39.3136 22.0469C38.8082 21.9234 38.8082 21.9122 38.7408 21.3506C38.5948 20.2049 37.4716 17.1723 36.3484 14.9034C34.4615 11.107 32.2488 8.6697 29.8227 7.70376C29.3959 7.53528 28.9129 7.4005 28.7556 7.4005C28.5984 7.4005 28.1154 7.53528 27.6886 7.70376ZM29.5306 9.86029C30.7998 10.5342 32.0129 11.7585 33.1586 13.4994C34.102 14.9259 35.8767 18.6212 35.697 18.7897C35.6633 18.8234 35.2926 18.7784 34.8658 18.6886C31.3727 17.9585 27.2506 17.9136 23.4205 18.565C22.5556 18.7111 21.8255 18.8121 21.8031 18.7784C21.6346 18.6212 23.4429 14.8697 24.3527 13.4994C25.1165 12.3313 25.9477 11.3654 26.7676 10.6802C27.3629 10.186 28.4748 9.53456 28.7444 9.52333C28.823 9.52333 29.1824 9.68058 29.5306 9.86029ZM31.6198 20.306C32.1701 20.3734 32.6419 20.452 32.6756 20.4857C32.7991 20.598 32.1926 21.5527 31.7546 21.9458C31.5075 22.1705 30.9796 22.5074 30.564 22.7096C29.8901 23.0241 29.7216 23.0578 28.7556 23.0578C27.7897 23.0578 27.6212 23.0241 26.9473 22.7096C26.5317 22.5074 26.0038 22.1705 25.7567 21.9458C25.3074 21.5415 24.7234 20.598 24.8357 20.4745C25.0828 20.2274 29.8788 20.115 31.6198 20.306ZM22.8027 21.0361C22.8027 21.4404 23.4766 22.5524 24.1393 23.26C25.3187 24.5067 26.8687 25.1357 28.7556 25.1357C30.4741 25.1357 32.0017 24.5741 33.0912 23.5408C34.0009 22.6872 34.3828 22.0806 34.7423 20.9574C34.8096 20.7665 35.0118 20.789 36.2024 21.1035C36.9212 21.2944 36.7977 21.5864 35.36 22.923C33.0125 25.1133 29.8564 27.7191 29.0589 28.1234C28.7669 28.2807 28.7107 28.2694 28.3401 28.056C27.2843 27.427 24.6897 25.2817 22.1625 22.923C20.7136 21.5864 20.5788 21.2944 21.3201 21.1035C22.7129 20.7553 22.8027 20.7553 22.8027 21.0361ZM21.5672 25.2368C24.1842 27.6404 26.6103 29.5611 27.7672 30.1452C28.4973 30.5158 29.0814 30.4933 29.8676 30.0778C31.0694 29.4375 34.0346 27.0564 36.3484 24.8774C37.0785 24.1922 37.3481 24.0013 37.7075 23.9451C39.1452 23.7205 41.2905 25.2256 43.3234 27.91C44.8959 29.9654 46.2774 32.268 48.4677 36.48C50.6242 40.6133 50.9162 41.422 50.4333 41.9275C50.2985 42.0735 49.9391 42.2981 49.6358 42.4329C49.1079 42.6575 43.8513 43.747 43.7615 43.6572C43.7278 43.6347 43.8626 41.5905 44.0423 39.1195C44.4354 33.6271 44.4354 33.4586 44.1321 33.0655L43.9075 32.7734H28.7781H13.6599L13.4016 33.0205C13.0646 33.335 13.0646 33.5035 13.469 39.1195C13.6487 41.5905 13.7835 43.6347 13.7498 43.6572C13.6599 43.747 8.40338 42.6575 7.87548 42.4329C7.57221 42.2981 7.21279 42.0622 7.06678 41.9162C6.81967 41.6579 6.81967 41.6017 6.93199 41.0401C7.13417 40.0854 10.3914 33.7281 12.0201 31.0886C15.0864 26.1466 17.6697 23.743 19.6802 23.9451C20.1857 24.0013 20.3092 24.0911 21.5672 25.2368ZM42.234 35.0423C42.234 35.4803 41.2231 49.7673 41.1557 50.1492L41.0995 50.5199H38.3589H35.6071V47.3412V44.1626L36.1575 43.6235C36.4607 43.3202 36.764 43.118 36.8314 43.1517C37.101 43.3202 38.4039 43.2304 38.8981 43.0169C40.1785 42.4441 40.83 40.9952 40.4144 39.6024C40.2459 39.0296 39.4934 38.1872 38.9205 37.9289C38.314 37.6481 37.1684 37.6481 36.5618 37.9289C35.36 38.468 34.6299 40.0517 35.0343 41.2086C35.1578 41.568 35.1466 41.5905 34.3716 42.388L33.5854 43.1967V46.8583V50.5199H31.6759H29.7665V47.2738C29.7665 44.084 29.7665 44.0166 30.0024 43.9492C30.373 43.8256 30.9908 43.2191 31.2604 42.7249C31.4401 42.3767 31.5075 42.0622 31.5075 41.4108C31.5075 40.6582 31.4738 40.501 31.1705 40.0068C30.0361 38.176 27.4752 38.176 26.3408 40.0068C26.0375 40.501 26.0038 40.6582 26.0038 41.4108C26.0038 42.0622 26.0712 42.3767 26.2509 42.7249C26.5205 43.2191 27.1382 43.8256 27.5089 43.9492C27.7448 44.0166 27.7448 44.084 27.7448 47.2738V50.5199H25.8353H23.9259V46.8583V43.1967L23.1397 42.388C22.3647 41.5905 22.3534 41.568 22.477 41.2086C22.6455 40.7481 22.5556 39.7934 22.3085 39.2767C22.0502 38.7264 21.4886 38.176 20.9494 37.9289C20.3542 37.6481 19.1973 37.6481 18.5907 37.9289C17.6023 38.3782 16.8947 39.58 16.9846 40.6582C17.1306 42.3767 18.6132 43.5224 20.298 43.2079C20.8259 43.1068 20.8259 43.1068 21.365 43.6347L21.9042 44.1626V47.3412V50.5199H19.1523H16.4117L16.3556 50.1492C16.2882 49.7673 15.2773 35.4691 15.2773 35.0423V34.7952H28.7556H42.234V35.0423ZM20.2755 40.018C20.6125 40.3437 20.6237 40.5235 20.3205 40.9053C19.8936 41.4557 19.0737 41.1637 19.0737 40.4448C19.0737 40.1079 19.4444 39.7372 19.7926 39.7372C19.9049 39.7372 20.1295 39.8608 20.2755 40.018ZM38.1905 39.9394C38.6847 40.3437 38.3814 41.1974 37.7299 41.1974C37.4155 41.1974 36.9549 40.7593 36.9549 40.4448C36.9549 40.209 37.4716 39.7372 37.7187 39.7372C37.8423 39.7372 38.0557 39.8271 38.1905 39.9394ZM29.16 40.838C29.8339 41.2872 29.3172 42.3318 28.531 42.1296C28.1828 42.0398 27.9245 41.4782 28.093 41.1637C28.2614 40.838 28.4074 40.7481 28.7556 40.7481C28.9129 40.7481 29.0926 40.793 29.16 40.838Z" fill="#151515"/>
<path d="M18.5894 25.7534C18.376 25.9556 18.3086 26.1465 18.3086 26.5059C18.3086 26.944 18.3648 27.0338 19.0162 27.6404C19.9485 28.5277 22.4195 30.6505 22.7901 30.8864C23.2057 31.1672 23.6213 31.1335 24.0256 30.7965C24.3064 30.5607 24.3738 30.4147 24.3738 30.0777C24.3738 29.5386 24.3064 29.4599 22.2959 27.7415C21.4311 27.0001 20.5999 26.2588 20.4427 26.0904C19.8249 25.4277 19.0499 25.2817 18.5894 25.7534Z" fill="#151515"/>
<path d="M37.6817 25.6075C37.5582 25.6749 37.1763 25.9894 36.8393 26.3151C36.5024 26.6409 35.6375 27.3934 34.9299 27.9999C33.2227 29.4376 33.1328 29.5499 33.1328 30.0778C33.1328 30.4148 33.2002 30.5608 33.481 30.7967C34.1549 31.3695 34.4694 31.2235 36.7832 29.1793C39.1531 27.0901 39.1981 27.034 39.1981 26.5061C39.1981 25.6749 38.4118 25.2032 37.6817 25.6075Z" fill="#151515"/>
<path d="M15.7124 7.82731C15.4766 8.07442 15.3867 8.26536 15.3867 8.56862C15.3867 8.92804 15.4878 9.09652 16.1505 9.77044C17.2288 10.9049 17.7679 11.0733 18.3969 10.5005C18.5766 10.332 18.644 10.1411 18.644 9.7929C18.644 9.38855 18.5654 9.24254 18.1161 8.72587C16.9929 7.47912 16.319 7.23202 15.7124 7.82731Z" fill="#151515"/>
<path d="M40.3684 7.81608C40.1325 7.99579 39.6944 8.40014 39.3912 8.72587C38.9419 9.24254 38.8633 9.38855 38.8633 9.7929C38.8633 10.1411 38.9307 10.332 39.1216 10.5005C39.7394 11.0733 40.2785 10.9049 41.368 9.77044C42.0195 9.09652 42.1205 8.92804 42.1205 8.56862C42.1205 8.26536 42.0307 8.07442 41.7948 7.82731C41.368 7.41173 40.9412 7.4005 40.3684 7.81608Z" fill="#151515"/>
</svg>
