<svg width="53" height="53" viewBox="0 0 53 53" fill="none" xmlns="http://www.w3.org/2000/svg">
<path d="M1.43261 0.201553C1.19929 0.30761 0.859913 0.562138 0.669015 0.753036C-0.0521556 1.51663 0.000871585 0.0636826 0.000871585 19.5353C0.000871585 36.4934 0.011477 37.1934 0.202375 37.5964C0.30843 37.8297 0.56296 38.1691 0.753858 38.36C1.422 38.9963 1.63411 39.0281 4.5294 39.0281H7.14894L3.9567 42.2416C1.05081 45.1474 0.722042 45.5186 0.403879 46.1868C0.0751097 46.8973 0.0538988 46.9928 0.0538988 48.1488C0.0538988 49.3048 0.0751097 49.4108 0.393273 50.079C0.828097 51.0123 1.59169 51.7759 2.52497 52.2107C3.19311 52.5288 3.29917 52.55 4.45516 52.55C5.61115 52.55 5.7066 52.5288 6.41717 52.2001C7.10652 51.8713 7.47771 51.5319 11.4548 47.5655L15.75 43.2809L15.3257 42.8461L14.9121 42.4218L15.7181 41.6052L16.5348 40.7886L17.468 41.2234C19.5043 42.1779 21.0315 42.4749 23.4813 42.39C24.7222 42.3476 25.3161 42.2734 26.1221 42.0613C27.819 41.6264 29.7067 40.6401 31.1279 39.4629L31.6581 39.0281H41.1818C51.6812 39.0281 51.1085 39.0599 51.8509 38.36C52.0418 38.1691 52.2963 37.8297 52.4024 37.5964C52.5933 37.1934 52.6039 36.4934 52.6039 19.5141C52.6039 2.53475 52.5933 1.83479 52.4024 1.43179C52.1585 0.912117 51.6176 0.381847 51.0979 0.169739C50.7479 0.0212593 48.1072 4.95911e-05 26.2812 4.95911e-05C2.71587 4.95911e-05 1.84622 0.0106544 1.43261 0.201553ZM50.2707 1.81358C50.8328 2.01508 50.907 2.35446 50.907 4.71947V6.78754H26.3024H1.69774V4.73008C1.69774 2.41809 1.77198 2.06811 2.27044 1.8454C2.54618 1.72874 6.58686 1.70753 26.26 1.69692C43.6529 1.69692 50.0162 1.72874 50.2707 1.81358ZM50.907 22.4306C50.907 37.9676 50.9494 37.0025 50.1965 37.2252C49.9101 37.31 47.333 37.3312 41.4894 37.31L33.1959 37.2782L33.5777 36.7055C34.2034 35.7828 34.9882 34.0435 35.2852 32.9088C35.5079 32.0391 35.5715 31.5725 35.6034 30.0665C35.6458 28.5075 35.6246 28.1151 35.4231 27.1606C34.5004 22.6427 31.2763 19.005 26.9281 17.5627C24.5313 16.7673 21.2648 16.7673 18.8892 17.5627C15.2515 18.7823 12.4623 21.4337 11.0305 24.9971C10.426 26.5031 10.1821 27.8712 10.1821 29.6741C10.1821 31.8376 10.4897 33.2163 11.3805 35.1359L11.8153 36.0692L11.1896 36.6949C10.6593 37.2252 10.5003 37.3312 10.1927 37.3312C9.95939 37.3312 9.73667 37.2464 9.57759 37.0979L9.33367 36.8752L9.08974 37.0979C8.84582 37.3312 8.78218 37.3312 5.75963 37.3312C3.73399 37.3312 2.56739 37.2888 2.33407 37.2146C1.66593 36.9706 1.69774 37.7767 1.69774 22.4306V8.48441H26.3024H50.907V22.4306ZM24.9767 18.9414C29.028 19.7156 32.2202 22.6639 33.4823 26.7788C33.7474 27.6697 33.7686 27.8606 33.7686 29.6953C33.7686 31.53 33.7474 31.7209 33.4823 32.6118C31.8915 37.8085 27.2357 41.0325 21.9223 40.5977C17.4893 40.2477 13.7031 37.0873 12.335 32.6118C12.0699 31.7209 12.0487 31.53 12.0487 29.6953C12.0487 27.8606 12.0699 27.6697 12.335 26.7788C14.0425 21.1791 19.377 17.8702 24.9767 18.9414ZM14.244 40.4068L13.5758 41.0962L12.5471 40.0674L11.5078 39.0281L12.1865 38.3494L12.8547 37.6812L13.8834 38.6993L14.9227 39.7175L14.244 40.4068ZM11.2426 41.4143L13.0986 43.2703L9.54578 46.8231C7.27621 49.0927 5.83387 50.4608 5.55813 50.588C5.04907 50.8426 3.98852 50.8744 3.45825 50.6517C2.93858 50.4396 2.27044 49.7926 2.02651 49.273C1.75077 48.7215 1.72956 47.6821 1.96288 47.1095C2.07954 46.8443 3.30977 45.5398 5.7066 43.1324C7.66861 41.1704 9.30185 39.5584 9.33367 39.5584C9.36548 39.5584 10.2245 40.3962 11.2426 41.4143Z" fill="#151515"/>
<path d="M3.39453 4.24214V5.09058H4.24297H5.0914V4.24214V3.3937H4.24297H3.39453V4.24214Z" fill="#151515"/>
<path d="M6.78906 4.24214V5.09058H7.6375H8.48593V4.24214V3.3937H7.6375H6.78906V4.24214Z" fill="#151515"/>
<path d="M10.1836 4.24214V5.09058H11.032H11.8805V4.24214V3.3937H11.032H10.1836V4.24214Z" fill="#151515"/>
<path d="M3.39453 11.0297V11.8782H4.24297H5.0914V11.0297V10.1813H4.24297H3.39453V11.0297Z" fill="#151515"/>
<path d="M6.78906 11.0297V11.8782H14.8492H22.9093V11.0297V10.1813H14.8492H6.78906V11.0297Z" fill="#151515"/>
<path d="M37.332 11.0297V11.8782H43.2711H49.2101V11.0297V10.1813H43.2711H37.332V11.0297Z" fill="#151515"/>
<path d="M3.39453 14.4235V15.272H13.1515H22.9086V14.4235V13.5751H13.1515H3.39453V14.4235Z" fill="#151515"/>
<path d="M37.332 14.4235V15.272H43.2711H49.2101V14.4235V13.5751H43.2711H37.332V14.4235Z" fill="#151515"/>
<path d="M3.39453 17.8171V18.6655H7.63671H11.8789V17.8171V16.9687H7.63671H3.39453V17.8171Z" fill="#151515"/>
<path d="M37.332 17.8171V18.6655H43.2711H49.2101V17.8171V16.9687H43.2711H37.332V17.8171Z" fill="#151515"/>
<path d="M3.39453 21.2109V22.0593H7.63671H11.8789V21.2109V20.3625H7.63671H3.39453V21.2109Z" fill="#151515"/>
<path d="M37.332 21.2109V22.0593H38.1805H39.0289V21.2109V20.3625H38.1805H37.332V21.2109Z" fill="#151515"/>
<path d="M40.7266 21.2109V22.0593H41.575H42.4234V21.2109V20.3625H41.575H40.7266V21.2109Z" fill="#151515"/>
<path d="M44.1211 21.2109V22.0593H44.9695H45.818V21.2109V20.3625H44.9695H44.1211V21.2109Z" fill="#151515"/>
<path d="M47.5117 21.2109V22.0593H48.3602H49.2086V21.2109V20.3625H48.3602H47.5117V21.2109Z" fill="#151515"/>
<path d="M37.332 29.6952V35.6343H43.2711H49.2101V29.6952V23.7562H43.2711H37.332V29.6952ZM47.5133 29.6952V33.9374H43.2711H39.0289V29.6952V25.453H43.2711H47.5133V29.6952Z" fill="#151515"/>
<path d="M44.2031 28.2847L42.4214 30.0664L41.8911 29.5361L41.3608 29.0059L40.6927 29.674L40.0352 30.3315L41.2336 31.5194L42.4214 32.7178L44.8818 30.2573L47.3529 27.7862L46.7166 27.1499C46.3666 26.7999 46.0591 26.5136 46.0272 26.5136C45.9954 26.5136 45.1788 27.309 44.2031 28.2847Z" fill="#151515"/>
<path d="M20.6296 20.5852C17.3419 21.3912 14.5845 24.1699 13.7891 27.4682C13.4922 28.709 13.4922 30.6816 13.7891 31.9225C14.627 35.401 17.4904 38.1691 21.022 38.8796C22.0826 39.0917 24.4264 39.0281 25.4021 38.763C26.4414 38.4872 28.0853 37.607 28.9443 36.8858C30.4185 35.645 31.5851 33.7572 32.0305 31.9225C32.3274 30.6816 32.3274 28.709 32.0305 27.4682C31.2351 24.1381 28.4671 21.37 25.1369 20.5746C23.9173 20.2883 21.8387 20.2883 20.6296 20.5852ZM24.4476 22.2927C25.943 22.6109 27.3323 23.4063 28.3928 24.5411C29.1988 25.3895 29.7079 26.2273 30.0897 27.3091C30.3654 28.0939 30.3866 28.2742 30.3866 29.6953C30.3866 31.1483 30.3654 31.2861 30.0579 32.1452C29.6549 33.2906 28.9443 34.3617 28.0534 35.1889C24.0128 38.9751 17.5965 37.3312 15.7193 32.0391C15.4542 31.3073 15.433 31.0952 15.433 29.6953C15.433 28.2742 15.4542 28.0939 15.7299 27.3091C17.0238 23.6608 20.7675 21.4973 24.4476 22.2927Z" fill="#151515"/>
<path d="M16.9688 29.6953V30.5437H17.8172H18.6656V29.6953V28.8468H17.8172H16.9688V29.6953Z" fill="#151515"/>
<path d="M20.3633 29.6953V30.5437H21.2117H22.0602V29.6953V28.8468H21.2117H20.3633V29.6953Z" fill="#151515"/>
<path d="M23.7578 29.6953V30.5437H24.6062H25.4547V29.6953V28.8468H24.6062H23.7578V29.6953Z" fill="#151515"/>
<path d="M27.1523 29.6953V30.5437H28.0008H28.8492V29.6953V28.8468H28.0008H27.1523V29.6953Z" fill="#151515"/>
</svg>
