<svg width="43" height="43" viewBox="0 0 43 43" fill="none" xmlns="http://www.w3.org/2000/svg">
<g clip-path="url(#clip0_109_1355)">
<path d="M33.918 0C34.2316 0.218735 34.3444 0.515991 34.3331 0.897376C34.3128 1.62313 34.3275 2.35 34.3275 3.1195C34.9773 2.90525 35.5854 2.69886 36.1969 2.5048C36.6391 2.36459 37.0859 2.24344 37.5303 2.10883C37.9049 1.99554 38.1993 2.08752 38.4791 2.37244C39.0996 3.00172 39.7472 3.60296 40.4173 4.24795C40.5256 4.19074 40.6813 4.10437 40.8426 4.02697C41.8061 3.56707 42.8869 4.17392 42.9873 5.2317C43.0019 5.38425 43.0008 5.53905 43.0008 5.69273C43.0019 11.7949 43.0019 17.8959 43.0008 23.9981C43.0008 24.1517 43.0053 24.3077 42.9839 24.4591C42.932 24.8158 42.7064 25.0155 42.3521 25.0099C42.0193 25.0043 41.8005 24.8091 41.7531 24.4714C41.7282 24.2931 41.7339 24.1091 41.7339 23.9274C41.7328 17.8813 41.7328 11.8353 41.7328 5.79032C41.7328 5.6501 41.7395 5.50877 41.7226 5.37079C41.6955 5.15767 41.5771 5.07354 41.3684 5.17786C41.2555 5.23394 41.1461 5.299 41.0367 5.3607C35.8753 8.24688 30.7185 11.1376 25.5504 14.0069C25.1093 14.2514 24.9581 14.5173 24.9592 15.0176C24.9761 23.4709 24.9716 31.923 24.9716 40.3763C24.9716 40.4885 24.9694 40.6006 24.9716 40.7117C24.9829 41.1537 25.0901 41.221 25.4759 41.0078C26.7169 40.3213 27.9545 39.6292 29.1921 38.9371C33.2241 36.6825 37.2528 34.4222 41.2916 32.1788C41.6177 31.9971 41.7497 31.8008 41.7395 31.4261C41.7136 30.4614 41.7249 29.4945 41.735 28.5298C41.7395 28.0609 41.981 27.8041 42.3736 27.8097C42.7255 27.8142 42.985 28.0396 42.9884 28.4199C43.0008 29.5809 43.0042 30.743 42.9805 31.904C42.9681 32.5086 42.5958 32.8922 42.0814 33.1771C39.7494 34.4738 37.4232 35.7795 35.0946 37.0818C32.1163 38.7476 29.1379 40.4111 26.1607 42.0779C25.7613 42.3012 25.3586 42.4795 24.8791 42.3763C24.799 42.3595 24.6727 42.4313 24.6072 42.5008C24.2643 42.8598 23.848 43.0045 23.3561 43.0011C22.1174 42.9933 20.8786 42.9933 19.6399 43.0011C19.148 43.0045 18.734 42.8575 18.3899 42.4986C18.3188 42.4246 18.1846 42.4021 18.074 42.3774C17.6972 42.29 17.2708 42.2978 16.9481 42.1183C11.5702 39.1334 6.20685 36.125 0.83679 33.1255C0.279477 32.8137 0.00533305 32.3526 0.00194855 31.7245C-0.00143594 31.2062 -0.000307775 30.688 -0.000307775 30.1709C-0.000307775 21.9835 -0.000307775 13.796 0.00082039 5.6086C0.00082039 4.62036 0.465624 3.94957 1.30159 3.8991C1.73707 3.87218 2.18608 4.06848 2.67119 4.1728C3.19014 3.67251 3.81063 3.12399 4.3702 2.51826C4.75378 2.10322 5.13284 1.97871 5.67549 2.16268C6.64345 2.49246 7.62834 2.77289 8.67302 3.09595C8.67302 2.37244 8.68656 1.65454 8.66738 0.938879C8.65723 0.549643 8.73507 0.2221 9.08142 0C9.22244 0 9.36346 0 9.50335 0C10.0663 0.250143 10.6349 0.486826 11.1911 0.752674C15.1622 2.64614 18.3809 5.35846 20.4883 9.26204C20.8561 9.94405 21.1595 10.6597 21.5115 11.4012C21.5544 11.3137 21.586 11.2576 21.6097 11.1992C23.2376 7.08142 26.0772 4.00342 29.8825 1.78914C31.0411 1.11499 32.2889 0.592268 33.4949 0C33.6359 0 33.7769 0 33.918 0ZM18.0278 27.7345C18.0278 23.4383 18.0233 19.1433 18.0368 14.8482C18.0379 14.4758 17.9217 14.2728 17.5946 14.0899C13.1281 11.6064 8.66964 9.10949 4.20887 6.61478C3.39998 6.16273 2.59221 5.70843 1.78219 5.25974C1.37041 5.03203 1.27903 5.09036 1.26888 5.57046C1.26775 5.61196 1.26888 5.65459 1.26888 5.69609C1.26888 14.2739 1.27113 22.8506 1.25985 31.4283C1.25985 31.8041 1.38621 31.9982 1.70999 32.1777C6.94806 35.0941 12.1782 38.0229 17.4095 40.9495C17.933 41.2423 18.0278 41.1851 18.0278 40.5793C18.0278 36.2977 18.0278 32.0161 18.0278 27.7345ZM3.73166 4.88285C3.95504 5.01633 4.08365 5.09822 4.21677 5.17225C8.81292 7.74211 13.4192 10.294 17.9962 12.8964C18.7881 13.3462 19.5677 13.4001 20.4522 13.3092C20.3856 13.1925 20.345 13.0893 20.2773 13.0097C19.5102 12.0989 18.7927 11.1409 17.9544 10.2996C17.1658 9.5077 16.2543 8.83691 15.3901 8.12125C15.0246 7.81839 14.9377 7.50318 15.1645 7.18462C15.407 6.84361 15.7365 6.81893 16.1528 7.11282C16.3242 7.23397 16.4991 7.35512 16.6593 7.48972C17.5348 8.22781 18.4057 8.97151 19.2439 9.68381C18.3087 7.05001 12.7152 2.18174 9.93995 1.63771C9.93995 2.19969 9.95123 2.75831 9.93431 3.31468C9.92754 3.55809 10.0054 3.68373 10.2367 3.78693C10.9925 4.12568 11.7394 4.48464 12.4795 4.85592C12.819 5.02643 12.9149 5.35397 12.766 5.66917C12.6081 6.00232 12.2775 6.12122 11.9188 5.96979C11.7766 5.90922 11.639 5.83743 11.5013 5.76788C9.62971 4.82003 7.68588 4.05502 5.66759 3.47509C5.52544 3.43471 5.30319 3.42012 5.21068 3.49977C4.71316 3.93163 4.2461 4.39602 3.73166 4.88285ZM19.3308 20.3424C19.3308 25.5831 19.3308 30.7878 19.3308 35.9949C20.7963 35.9949 22.2257 35.9949 23.6776 35.9949C23.6776 30.7688 23.6776 25.564 23.6776 20.3424C22.22 20.3424 20.7895 20.3424 19.3308 20.3424ZM22.4829 13.2688C23.602 13.5156 24.456 13.2139 25.3259 12.7158C28.8728 10.6877 32.4514 8.71352 36.0175 6.7191C37.0701 6.1302 38.1215 5.5413 39.2982 4.88285C38.8153 4.43864 38.3652 4.0595 37.9602 3.63886C37.7503 3.42124 37.5664 3.38535 37.2979 3.48518C35.8246 4.03258 34.3173 4.50146 32.8789 5.12626C29.5982 6.55309 26.6447 8.47684 24.2225 11.1342C23.6156 11.8005 23.0797 12.533 22.4829 13.2688ZM33.0594 1.56929C29.0364 3.35058 25.8268 5.91146 23.7216 9.7197C24.3624 9.18688 24.9648 8.61032 25.6068 8.07975C27.7514 6.30855 30.1397 4.92996 32.6826 3.80599C32.8327 3.73981 33.0324 3.56931 33.0414 3.43695C33.0809 2.84244 33.0594 2.24232 33.0594 1.56929ZM19.2958 16.2425C20.8042 16.2425 22.2426 16.2425 23.7036 16.2425C23.7036 15.777 23.7227 15.3429 23.69 14.9144C23.6821 14.8056 23.5061 14.6216 23.4057 14.6205C22.1422 14.6003 20.8775 14.6003 19.614 14.6194C19.5068 14.6205 19.3184 14.7921 19.3105 14.8942C19.2766 15.335 19.2958 15.7804 19.2958 16.2425ZM23.7036 40.0936C22.202 40.0936 20.7624 40.0936 19.2947 40.0936C19.2947 40.5535 19.2992 40.9843 19.2924 41.4161C19.2891 41.6483 19.394 41.7403 19.6241 41.7392C20.8741 41.7347 22.1253 41.7347 23.3753 41.7392C23.6065 41.7403 23.7081 41.6438 23.7047 41.4139C23.7002 40.9832 23.7036 40.5524 23.7036 40.0936ZM19.3173 17.5594C19.3173 18.0619 19.3173 18.5431 19.3173 19.0457C20.7794 19.0457 22.22 19.0457 23.6821 19.0457C23.6821 18.5443 23.6821 18.0631 23.6821 17.5594C22.22 17.5594 20.7794 17.5594 19.3173 17.5594ZM19.3094 38.7767C20.7952 38.7767 22.2358 38.7767 23.6742 38.7767C23.6742 38.2663 23.6742 37.7851 23.6742 37.3062C22.2042 37.3062 20.7636 37.3062 19.3094 37.3062C19.3094 37.8064 19.3094 38.2764 19.3094 38.7767Z" fill="#000"/>
<path d="M26.813 20.2852C26.813 19.6839 26.831 19.0816 26.8073 18.4815C26.7904 18.0653 26.9551 17.8118 27.3161 17.6076C30.4073 15.8622 33.4917 14.1045 36.5772 12.3501C37.3331 11.9205 38.0879 11.4864 38.8482 11.0647C39.4213 10.7472 39.8986 11.0187 39.9042 11.6749C39.9144 12.9334 39.8986 14.192 39.9121 15.4506C39.9166 15.8802 39.6842 16.1023 39.3424 16.2952C36.0459 18.1618 32.7539 20.035 29.4608 21.9072C28.9362 22.2056 28.4138 22.5062 27.8836 22.7956C27.2789 23.1254 26.8209 22.8584 26.8152 22.173C26.8085 21.5438 26.813 20.9145 26.813 20.2852ZM28.081 21.2319C28.38 21.0637 28.5989 20.9425 28.8166 20.8191C31.9044 19.0648 34.9854 17.2992 38.0856 15.5684C38.5154 15.3283 38.6835 15.0793 38.6497 14.5981C38.6068 13.9688 38.6395 13.3339 38.6395 12.7001C38.556 12.7046 38.5402 12.7001 38.5301 12.7057C35.1106 14.6429 31.6923 16.579 28.2773 18.523C28.1871 18.5746 28.0912 18.708 28.0901 18.8056C28.0743 19.5875 28.081 20.3693 28.081 21.2319Z" fill="#000"/>
<path d="M22.1345 28.1776C22.1345 29.324 22.1356 30.4704 22.1333 31.6168C22.1333 31.7705 22.1345 31.9264 22.1051 32.0756C22.0431 32.3919 21.8254 32.5658 21.5129 32.5703C21.18 32.5747 20.9567 32.3941 20.8912 32.0588C20.8675 31.9365 20.8675 31.8086 20.8675 31.683C20.8664 29.3341 20.8664 26.9863 20.8675 24.6375C20.8675 24.5264 20.8675 24.4131 20.8856 24.3032C20.942 23.9689 21.1496 23.776 21.488 23.7704C21.8479 23.7659 22.0634 23.9655 22.1176 24.3189C22.1379 24.4557 22.1345 24.5971 22.1345 24.7373C22.1345 25.8848 22.1345 27.0312 22.1345 28.1776Z" fill="#000"/>
</g>
<defs>
<clipPath id="clip0_109_1355">
<rect width="43" height="43" fill="#000"/>
</clipPath>
</defs>
</svg>
