<svg width="56" height="53" viewBox="0 0 56 53" fill="none" xmlns="http://www.w3.org/2000/svg">
<path d="M26.9381 0.253515C26.7768 0.40332 24.8293 2.53516 22.5822 5.0127C20.3467 7.47871 18.2955 9.74883 18.0189 10.0484C17.6041 10.4979 17.5234 10.6707 17.5234 11.0625C17.5234 11.3736 17.6041 11.6041 17.7539 11.7539C17.9729 11.9729 18.1342 11.9844 20.0586 11.9844H22.1328V14.5195C22.1328 16.9049 22.1443 17.0662 22.3633 17.2852C22.5131 17.435 22.7436 17.5156 23.0547 17.5156C23.3658 17.5156 23.5963 17.435 23.7461 17.2852C23.965 17.0662 23.9766 16.9049 23.9766 13.8973C23.9766 12.1572 23.942 10.6477 23.9074 10.5555C23.7691 10.2098 23.3543 10.083 22.0637 10.0254L20.773 9.96777L24.184 6.22266C26.0623 4.15996 27.6295 2.47754 27.6641 2.47754C27.6986 2.47754 29.2658 4.15996 31.1441 6.22266L34.5551 9.96777L33.2645 10.0254C31.9738 10.083 31.559 10.2098 31.4207 10.5555C31.3861 10.6477 31.3516 12.1572 31.3516 13.8973C31.3516 16.9049 31.3631 17.0662 31.582 17.2852C31.7318 17.435 31.9623 17.5156 32.2734 17.5156C32.5846 17.5156 32.815 17.435 32.9648 17.2852C33.1838 17.0662 33.1953 16.9049 33.1953 14.5195V11.9844H35.2695C37.1939 11.9844 37.3553 11.9729 37.5742 11.7539C37.724 11.6041 37.8047 11.3736 37.8047 11.0625C37.8047 10.6707 37.724 10.4979 37.3092 10.0484C37.0326 9.74883 34.9814 7.47871 32.7459 5.0127C30.4988 2.53516 28.5514 0.40332 28.39 0.253515C28.2057 0.0806637 27.9637 0 27.6641 0C27.3645 0 27.1225 0.0806637 26.9381 0.253515Z" fill="#151515"/>
<path d="M10.7 17.5502C10.458 17.6539 1.64262 25.5705 0.328948 26.8727C-0.0628487 27.2414 -0.108942 27.9559 0.213714 28.3246C0.317425 28.4514 2.70278 30.6293 5.50297 33.176C10.435 37.6471 10.6194 37.7969 11.0688 37.7969C11.3799 37.7969 11.6104 37.7162 11.7602 37.5664C11.9791 37.3475 11.9907 37.1861 11.9907 35.2617V33.1875H14.5258C16.9112 33.1875 17.0725 33.176 17.2914 32.957C17.545 32.7035 17.6026 32.0582 17.4067 31.6895C17.1993 31.2977 16.6577 31.2285 13.8344 31.2285C11.0112 31.2285 10.4696 31.2977 10.2622 31.6895C10.193 31.8047 10.1469 32.5307 10.1469 33.3027V34.6971L6.29809 31.2055C4.17778 29.2811 2.44926 27.6793 2.46078 27.6447C2.47231 27.6102 4.20082 26.0199 6.28657 24.1186L10.0893 20.6615L10.1469 22.148C10.193 23.4502 10.2276 23.6576 10.4235 23.8074C10.6079 23.9342 11.2762 23.9688 13.8575 23.9688C16.9112 23.9688 17.0725 23.9572 17.2914 23.7383C17.545 23.4848 17.6026 22.8395 17.4067 22.4707C17.1993 22.0904 16.6461 22.0098 14.2838 22.0098H11.9907V19.9932C11.9907 18.1264 11.9676 17.9535 11.7602 17.7461C11.6334 17.6193 11.4836 17.5156 11.426 17.5156C11.3684 17.5156 11.2532 17.4926 11.161 17.458C11.0803 17.435 10.8729 17.4695 10.7 17.5502Z" fill="#151515"/>
<path d="M26.6842 17.5271C22.4897 17.8613 19.194 20.6039 17.9149 24.8445C17.6383 25.7549 17.6037 26.066 17.5922 27.6562C17.5807 29.742 17.7305 30.4564 18.5026 32.0928C19.3323 33.8674 20.427 35.1004 22.0979 36.1836L22.9391 36.7252L22.2707 36.9902C18.0877 38.7188 14.9879 42.51 14.0776 46.9811C13.778 48.4215 13.7549 50.2768 14.02 50.9105C14.2504 51.4752 14.8266 52.0629 15.3912 52.3279C15.8291 52.5354 16.4053 52.5469 27.6637 52.5469C38.9221 52.5469 39.4983 52.5354 39.9362 52.3279C40.5008 52.0629 41.077 51.4752 41.3075 50.9105C41.7569 49.8504 41.4112 46.8543 40.6276 44.8031C39.2678 41.2885 36.3985 38.327 33.0451 36.9787L32.3883 36.7137L32.9299 36.3795C35.0618 35.0543 36.5828 33.1184 37.3664 30.7676C37.6776 29.7996 37.7237 29.477 37.7813 28.002C37.8389 25.9738 37.62 24.833 36.8248 23.1967C34.958 19.3594 31.0516 17.1699 26.6842 17.5271ZM29.3922 19.6475C33.2526 20.4541 35.8453 23.7037 35.8453 27.7254C35.8453 29.9264 35.0502 31.8047 33.4254 33.418C31.7891 35.0658 29.9338 35.8379 27.6637 35.8379C25.3936 35.8379 23.5383 35.0658 21.8905 33.418C20.1619 31.701 19.3899 29.7305 19.5166 27.3221C19.5858 25.9047 19.7932 25.0404 20.3578 23.8996C21.418 21.7447 23.4346 20.1891 25.8545 19.659C26.8225 19.44 28.4012 19.44 29.3922 19.6475ZM29.3346 38.0504C29.4844 38.1887 29.0811 38.9262 28.6778 39.2143C28.2168 39.56 27.2489 39.6061 26.7649 39.3064C26.35 39.0414 25.9121 38.4076 25.9582 38.1426C25.9813 38.0158 26.2002 37.9467 26.6842 37.9006C27.5485 37.8199 29.1848 37.9121 29.3346 38.0504ZM24.1951 39.1682C24.4948 39.9979 25.1746 40.7469 25.9928 41.1387C26.4768 41.3807 26.7303 41.4268 27.6637 41.4268C28.5971 41.4268 28.8506 41.3807 29.3346 41.1387C30.1528 40.7469 30.8326 39.9979 31.1323 39.1682C31.2705 38.7994 31.4319 38.4883 31.4895 38.4883C31.7315 38.4883 33.5868 39.4217 34.3358 39.9287C37.401 41.9914 39.5328 45.8057 39.5328 49.2627C39.5328 50.5533 39.4752 50.5879 37.5162 50.5879H35.9606V49.5393C35.9606 48.9631 35.9145 48.3984 35.8453 48.2832C35.5803 47.7877 34.4971 47.7877 34.2321 48.2832C34.1629 48.3984 34.1168 48.9631 34.1168 49.5393V50.5879H27.6637H21.2106V49.5393C21.2106 48.9631 21.1645 48.3984 21.0953 48.2832C20.8303 47.7877 19.7471 47.7877 19.4821 48.2832C19.4129 48.3984 19.3668 48.9631 19.3668 49.5393V50.5879H17.8112C15.8522 50.5879 15.7946 50.5533 15.7946 49.2742C15.7946 45.8057 17.9149 41.9914 20.9916 39.9287C21.7637 39.4102 23.5614 38.4998 23.8149 38.4883C23.884 38.4883 24.0569 38.7994 24.1951 39.1682Z" fill="#151515"/>
<path d="M43.8448 17.5617C43.6489 17.6539 43.453 17.8037 43.4069 17.9189C43.3724 18.0227 43.3378 18.9906 43.3378 20.0623V22.0098H41.0446C38.6823 22.0098 38.1292 22.0904 37.9218 22.4707C37.7259 22.8395 37.7835 23.4848 38.037 23.7383C38.256 23.9572 38.4173 23.9688 41.471 23.9688C44.0523 23.9688 44.7206 23.9342 44.905 23.8074C45.1009 23.6576 45.1355 23.4502 45.1815 22.148L45.2392 20.6615L49.0419 24.1186C51.1392 26.0199 52.8562 27.6102 52.8677 27.6447C52.8792 27.6793 51.1507 29.2811 49.0304 31.2055L45.1815 34.6971V33.3027C45.1815 32.5307 45.1355 31.8047 45.0663 31.6895C44.8589 31.2977 44.3173 31.2285 41.494 31.2285C38.6708 31.2285 38.1292 31.2977 37.9218 31.6895C37.7259 32.0582 37.7835 32.7035 38.037 32.957C38.256 33.176 38.4173 33.1875 40.8026 33.1875H43.3378V35.2617C43.3378 37.1861 43.3493 37.3475 43.5683 37.5664C43.7181 37.7162 43.9485 37.7969 44.2597 37.7969C44.7091 37.7969 44.8935 37.6471 49.8255 33.176C52.6257 30.6293 55.011 28.4514 55.1263 28.3246C55.4374 27.9559 55.3913 27.2414 55.011 26.8727C54.3888 26.2619 44.928 17.6885 44.7898 17.6193C44.4671 17.435 44.179 17.4234 43.8448 17.5617Z" fill="#151515"/>
</svg>
