<svg width="59" height="60" viewBox="0 0 59 60" fill="none" xmlns="http://www.w3.org/2000/svg">
<path d="M2.6504 0.115265C1.62481 0.426399 0.760554 1.19847 0.299617 2.20101C-0.0576096 2.95003 -0.103703 4.2637 0.172859 5.09339C0.829695 7.0178 3.06524 8.06644 5.0588 7.38655L5.80782 7.14456L7.88204 9.21878C9.47227 10.809 9.94473 11.3391 9.85255 11.4659C9.78341 11.5465 9.41465 12.0075 9.01134 12.4684C6.41856 15.5106 4.21759 20.0854 3.39942 24.1647C3.22657 24.9828 3.06524 25.6858 3.01915 25.7203C2.97305 25.7549 2.71954 25.8471 2.4545 25.9278C1.48653 26.1928 0.403328 27.3221 0.115242 28.3362C-0.0345628 28.8893 -0.0345628 30.1338 0.115242 30.6869C0.403328 31.701 1.48653 32.8303 2.4545 33.0953C2.71954 33.176 2.97305 33.2682 3.01915 33.3028C3.06524 33.3373 3.22657 34.0403 3.39942 34.8584C4.21759 38.9377 6.41856 43.5125 9.01134 46.5547C9.41465 47.0157 9.78341 47.4766 9.85255 47.5573C9.94473 47.684 9.47227 48.2141 7.88204 49.8043L5.80782 51.8785L5.0588 51.6366C3.08829 50.9682 0.933406 51.9362 0.218953 53.826C-0.115227 54.7018 -0.0806565 56.0039 0.299617 56.8221C0.656843 57.6172 1.26759 58.251 2.01661 58.6428C2.77716 59.0231 4.19454 59.1268 5.02423 58.8502C6.99473 58.1934 8.06641 55.9694 7.37501 53.9528L7.13301 53.2037L9.20723 51.1295C10.7975 49.5393 11.3275 49.0668 11.4543 49.159C11.535 49.2282 12.0074 49.6084 12.4914 50.0233C15.5336 52.5815 19.7627 54.6442 23.6807 55.4969C25.8816 55.9694 25.6857 55.8772 25.9162 56.5686C26.0315 56.9028 26.285 57.3752 26.4693 57.6057C26.8842 58.1358 27.76 58.735 28.3246 58.8963C28.8777 59.0461 30.1223 59.0461 30.6754 58.8963C31.6895 58.6082 32.8188 57.525 33.0838 56.5571C33.1645 56.292 33.2566 56.0385 33.2912 55.9924C33.3258 55.9463 34.0402 55.7735 34.8584 55.6121C38.9723 54.7709 43.501 52.593 46.5432 50.0002C47.0041 49.5969 47.465 49.2282 47.5457 49.159C47.6725 49.0668 48.2025 49.5393 49.7928 51.1295L51.867 53.2037L51.625 53.9528C50.9336 55.9694 52.0053 58.1934 53.9758 58.8502C54.8516 59.1498 56.2344 59.0346 57.018 58.6082C57.7209 58.228 58.2971 57.6287 58.6658 56.9143C59.0115 56.2459 59.1037 54.7709 58.8387 53.9873C58.1818 52.0168 55.9578 50.9451 53.9412 51.6366L53.1922 51.8785L51.118 49.8043C49.5277 48.2141 49.0553 47.684 49.1475 47.5573C49.2166 47.4766 49.5854 47.0157 49.9887 46.5547C52.5814 43.5125 54.7594 38.9838 55.6006 34.8699C55.7619 34.0403 55.9348 33.3373 55.9809 33.3028C56.027 33.2682 56.2805 33.176 56.5455 33.0953C57.5135 32.8303 58.5967 31.701 58.8848 30.6869C59.0346 30.1338 59.0346 28.8893 58.8848 28.3362C58.5967 27.3221 57.5135 26.1928 56.5455 25.9278C56.2805 25.8471 56.027 25.7549 55.9809 25.7203C55.9348 25.6858 55.7619 24.9713 55.6006 24.1532C54.7594 20.0393 52.5814 15.5106 49.9887 12.4684C49.5854 12.0075 49.2166 11.5465 49.1475 11.4659C49.0553 11.3391 49.5277 10.809 51.118 9.21878L53.1922 7.14456L53.9412 7.38655C55.9578 8.07796 58.1818 7.00628 58.8387 5.03577C59.1152 4.20609 59.0115 2.7887 58.6313 2.02816C58.274 1.33675 57.6287 0.702961 56.9258 0.345734C56.2113 -0.0114937 54.7709 -0.0921555 53.9412 0.184406C51.9938 0.82972 50.9336 3.05374 51.625 5.07034L51.867 5.81937L49.7928 7.89359C48.2025 9.48382 47.6725 9.95628 47.5457 9.86409C47.465 9.79495 47.0041 9.4262 46.5432 9.02288C43.501 6.43011 38.9723 4.25218 34.8584 3.41097C34.0402 3.24964 33.3258 3.07679 33.2912 3.03069C33.2566 2.9846 33.1645 2.73109 33.0838 2.46605C32.8188 1.49808 31.6895 0.414875 30.6754 0.126789C30.1223 -0.0230179 28.8777 -0.0230179 28.3246 0.126789C27.3106 0.414875 26.1813 1.49808 25.9162 2.46605C25.8356 2.73109 25.7434 2.9846 25.7088 3.03069C25.6742 3.07679 24.9713 3.23812 24.1531 3.41097C20.0738 4.22913 15.499 6.43011 12.4568 9.02288C11.9959 9.4262 11.535 9.79495 11.4543 9.86409C11.3275 9.95628 10.7975 9.48382 9.20723 7.89359L7.13301 5.81937L7.37501 5.07034C8.05489 3.07679 7.00626 0.84124 5.08184 0.184406C4.55177 3.05176e-05 3.14591 -0.0345383 2.6504 0.115265ZM4.69005 2.0512C5.16251 2.27015 5.62345 2.92698 5.72716 3.50315C5.91153 4.67855 4.79376 5.87698 3.60684 5.7387C1.72852 5.53128 1.1754 3.1805 2.75411 2.12034C3.22657 1.79769 4.10235 1.76311 4.69005 2.0512ZM30.6293 2.18948C31.0902 2.51214 31.459 3.21507 31.459 3.75667C31.459 4.98968 30.3066 5.94613 29.0852 5.72718C28.5666 5.62347 27.8291 4.95511 27.6447 4.42503C27.3451 3.51468 27.7715 2.46605 28.6012 2.03968C29.1313 1.76311 30.1453 1.84378 30.6293 2.18948ZM56.2459 2.12034C57.525 2.9846 57.4674 4.80531 56.1307 5.50823C55.0936 6.04984 54.0104 5.68108 53.4457 4.57484C53.0078 3.7221 53.4342 2.47757 54.2869 2.0512C54.8631 1.76311 55.7734 1.79769 56.2459 2.12034ZM26.0891 5.50823C26.4578 6.22269 27.2184 6.96019 27.9443 7.29436C28.4053 7.50179 28.7279 7.55941 29.5 7.55941C30.2721 7.55941 30.5947 7.50179 31.0557 7.29436C31.7816 6.96019 32.5422 6.22269 32.9109 5.51976C33.2336 4.88597 33.0607 4.88597 35.377 5.45061C39.7674 6.51077 43.6162 8.70022 46.9695 12.042C50.3113 15.3953 52.5123 19.2672 53.5609 23.6346C54.1256 25.9739 54.1256 25.778 53.4918 26.1006C52.7889 26.4694 52.0514 27.2299 51.7172 27.9559C51.5098 28.4168 51.4522 28.7395 51.4522 29.5116C51.4522 30.2836 51.5098 30.6063 51.7172 31.0672C52.0514 31.7932 52.7889 32.5537 53.4918 32.9225C54.1256 33.2451 54.1256 33.0492 53.5609 35.3885C52.5123 39.7559 50.2998 43.6278 46.958 46.9696C43.6162 50.3114 39.7674 52.5123 35.377 53.5725C33.0607 54.1371 33.2336 54.1371 32.9109 53.5034C32.5422 52.8004 31.7816 52.0629 31.0557 51.7287C30.2375 51.36 28.7625 51.36 27.9443 51.7287C27.2184 52.0629 26.4578 52.8004 26.0891 53.5034C25.7664 54.1371 25.9277 54.1371 23.6576 53.584C19.2326 52.5123 15.4068 50.3344 12.0305 46.9696C8.7002 43.6508 6.4877 39.7559 5.43907 35.3885C4.87442 33.0492 4.87442 33.2451 5.50821 32.9225C6.21114 32.5537 6.94864 31.7932 7.28282 31.0672C7.49024 30.6063 7.54786 30.2836 7.54786 29.5116C7.54786 28.7395 7.49024 28.4168 7.28282 27.9559C6.94864 27.2299 6.21114 26.4694 5.50821 26.1006C4.87442 25.778 4.87442 25.9508 5.43907 23.6346C7.66309 14.4389 15.2109 7.17913 24.6141 5.1971C25.1787 5.08187 25.6742 4.97816 25.7203 4.97816C25.7664 4.96663 25.9393 5.20863 26.0891 5.50823ZM4.59786 27.7139C5.78477 28.3362 6.10743 29.7881 5.26622 30.7446C4.62091 31.4821 3.72208 31.6664 2.88087 31.2401C2.17794 30.8828 1.90137 30.3989 1.90137 29.5C1.90137 28.8547 1.94747 28.6819 2.21251 28.3362C2.38536 28.1172 2.69649 27.8522 2.90391 27.7485C3.37637 27.5065 4.17149 27.4949 4.59786 27.7139ZM56.1191 27.783C56.8221 28.1403 57.0986 28.6242 57.0986 29.5116C57.0986 30.3989 56.8221 30.8828 56.1191 31.2401C55.2779 31.6664 54.3791 31.4821 53.7338 30.7446C52.9041 29.7996 53.1691 28.4744 54.333 27.7715C54.7824 27.4834 55.5545 27.4949 56.1191 27.783ZM4.52872 53.4342C5.04727 53.6992 5.28927 53.9412 5.54278 54.4252C5.83087 55.0014 5.81934 55.52 5.49669 56.1422C4.78223 57.4789 2.97305 57.5366 2.09727 56.2459C1.8668 55.9117 1.83223 55.7274 1.8668 55.1512C1.9129 54.2985 2.21251 53.8375 2.90391 53.4918C3.49161 53.2037 4.03321 53.1807 4.52872 53.4342ZM30.1568 53.3766C30.5947 53.5379 31.1133 54.0334 31.2977 54.4828C31.6434 55.301 31.3553 56.3266 30.6293 56.8451C30.0877 57.2254 28.9123 57.2254 28.3707 56.8451C27.6447 56.3266 27.3221 55.1512 27.7024 54.4252C28.1979 53.4803 29.2465 53.0309 30.1568 53.3766ZM56.1307 53.5149C57.8822 54.4483 57.26 57.1678 55.2895 57.1678C54.5404 57.1678 53.9758 56.8912 53.6186 56.3496C53.2152 55.7389 53.1461 55.0244 53.4457 54.4483C54.0104 53.3305 55.082 52.9617 56.1307 53.5149Z" fill="black"/>
<path d="M27.9674 10.6246C22.4476 10.9934 17.1238 14.0471 13.9088 18.6795C13.2174 19.6936 13.1136 20.2697 13.5861 20.65C14.1623 21.111 14.6693 20.9035 15.3261 19.9586L15.7756 19.2787L17.0777 20.0162C17.7922 20.4195 18.7717 20.9151 19.2672 21.111C19.7627 21.3184 20.166 21.5143 20.166 21.5604C20.166 21.5949 20.0623 22.0904 19.947 22.6551C19.6935 23.8535 19.3594 26.308 19.3594 27.034C19.3594 27.299 19.3248 27.76 19.2902 28.0596L19.2095 28.5897H15.8332H12.4453V28.1518C12.4453 27.5295 12.7564 25.8471 13.0791 24.7293C13.2404 24.1877 13.3672 23.6231 13.3672 23.4848C13.3672 22.8279 12.2609 22.4477 11.823 22.9317C11.5349 23.2543 11.0855 24.7408 10.8205 26.2735C10.4978 28.1287 10.4978 30.9059 10.8205 32.7612C12.1918 40.6201 18.4029 46.8313 26.2273 48.1795C28.1287 48.5137 30.8828 48.5137 32.7726 48.1795C37.8084 47.3153 42.3601 44.3768 45.1949 40.1707C46.1168 38.7994 47.0156 36.9903 47.0156 36.5063C47.0156 35.8149 46.2551 35.4 45.6328 35.7342C45.506 35.8033 45.2064 36.2873 44.9529 36.8289C44.6994 37.3705 44.2154 38.2463 43.8582 38.7764L43.2244 39.7559L41.9568 39.0299C41.2654 38.6266 40.2744 38.1311 39.7558 37.9121C38.8801 37.5549 38.8224 37.5088 38.8801 37.2322C39.0875 36.2988 39.5138 33.5793 39.5715 32.7957C39.6176 32.2887 39.6752 31.5512 39.7097 31.1479L39.7789 30.4334H43.1783H46.5892L46.4855 31.3207C46.3357 32.7842 46.3588 33.0838 46.6584 33.3258C47.0041 33.6139 47.4881 33.6024 47.8453 33.3143C48.2486 33.0031 48.4215 31.7586 48.4215 29.3963C48.3984 24.3721 46.6123 19.9586 43.1092 16.3287C39.1451 12.2379 33.8328 10.2328 27.9674 10.6246ZM28.5781 16.9625V21.3645L27.541 21.2838C26.3541 21.1916 24.3836 20.8574 23.2773 20.5463C22.4015 20.3043 22.4131 20.3965 23.0584 18.7371C24.0609 16.1559 25.8931 13.7475 27.4834 12.9408C28.6818 12.3186 28.5781 11.9498 28.5781 16.9625ZM31.4474 12.9063C33.1414 13.7705 34.8929 16.0291 35.9416 18.7371C36.5869 20.3965 36.5984 20.3043 35.7226 20.5463C34.6164 20.8574 32.6459 21.1916 31.459 21.2838L30.4219 21.3645V16.9625C30.4219 13.1022 30.4449 12.5721 30.5947 12.5721C30.6984 12.5721 31.0787 12.7219 31.4474 12.9063ZM23.381 14.2084C22.632 15.257 21.5027 17.435 21.0072 18.8063L20.6845 19.6936L19.7627 19.2672C19.2556 19.0367 18.426 18.6219 17.9304 18.3453L17.0086 17.8383L17.9304 16.9625C19.3824 15.5682 21.422 14.2776 23.3349 13.5401C23.7152 13.3903 24.0379 13.275 24.0494 13.2635C24.0609 13.2635 23.7613 13.6899 23.381 14.2084ZM36.9441 14.1393C38.3845 14.8192 39.9287 15.8678 41.0465 16.9395L41.9914 17.8383L41.081 18.3453C40.574 18.6219 39.7443 19.0367 39.2373 19.2672L38.3154 19.6936L37.9928 18.8063C37.4972 17.435 36.3679 15.257 35.6189 14.2199L34.9275 13.275L35.4115 13.4594C35.6765 13.5516 36.3679 13.8627 36.9441 14.1393ZM44.2039 20.7998C44.8953 21.9637 45.5521 23.4617 45.9324 24.7639C46.232 25.8125 46.5547 27.5871 46.5547 28.2094V28.5897H43.1668H39.7789L39.7097 27.8637C39.6752 27.4719 39.6176 26.7344 39.5715 26.2274C39.5138 25.4438 39.0875 22.7242 38.8801 21.7908C38.8224 21.5143 38.8801 21.4682 39.8365 21.0649C40.3896 20.8229 41.3691 20.3274 42.0029 19.9586L43.1553 19.2903L43.3972 19.5783C43.5355 19.7281 43.8927 20.2813 44.2039 20.7998ZM23.1275 22.4246C24.5103 22.7703 26.1006 23.0238 27.5179 23.1276L28.5781 23.2082V25.8932V28.5897H24.833H21.0879L21.157 27.6908C21.2953 25.6858 21.8138 22.1365 21.9636 22.1365C21.9867 22.1365 22.5052 22.2633 23.1275 22.4246ZM37.3244 23.4272C37.5549 24.6602 37.6931 25.8356 37.8429 27.7485L37.9121 28.5897H34.167H30.4219V25.8932V23.2082L31.4935 23.1276C32.8418 23.0354 35.1004 22.6551 36.0683 22.3785C36.4832 22.2518 36.875 22.1481 36.9441 22.1481C37.0248 22.1365 37.1746 22.6666 37.3244 23.4272ZM19.2902 30.9635C19.3248 31.2631 19.3594 31.724 19.3594 32.0006C19.3594 32.7266 19.6705 35.0428 19.947 36.3449C20.0738 36.9787 20.166 37.4973 20.1429 37.5203C20.1199 37.5319 19.659 37.7393 19.1174 37.9813C18.5642 38.2117 17.5963 38.7072 16.951 39.076L15.7871 39.7444L15.3377 39.099C13.8166 36.8404 12.6873 33.7752 12.4914 31.3207L12.4107 30.4334H15.8101H19.2095L19.2902 30.9635ZM28.5781 33.1414V35.8494H28.0711C26.9303 35.8494 23.6576 36.391 22.1711 36.8289C21.9406 36.8981 21.906 36.8289 21.6756 35.5959C21.4336 34.2707 21.2722 32.934 21.157 31.3207L21.0879 30.4334H24.833H28.5781V33.1414ZM37.8545 31.2055C37.6586 33.441 37.5318 34.5242 37.3244 35.619C37.1861 36.2873 37.0709 36.8404 37.0478 36.8635C37.0248 36.8865 36.633 36.7944 36.1605 36.6676C35.0197 36.3449 32.8648 35.9877 31.5166 35.8955L30.4219 35.8149V33.1299V30.4334H34.167H37.9236L37.8545 31.2055ZM28.5781 42.0721C28.5781 45.9209 28.5551 46.451 28.4052 46.451C28.3015 46.451 27.8982 46.2897 27.5064 46.0938C25.9047 45.2871 24.0724 42.9018 23.0584 40.286C22.3785 38.5574 22.3209 38.7303 23.7959 38.35C25.1556 38.0043 26.9994 37.7278 27.9789 37.7047L28.5781 37.6932V42.0721ZM32.6344 37.866C33.9365 38.0389 36.3795 38.5805 36.4601 38.7188C36.5408 38.8455 35.6535 41.1156 35.1926 41.9453C34.4666 43.2705 33.9711 43.9504 33.0722 44.8492C32.2541 45.6789 31.0556 46.451 30.5947 46.451C30.4449 46.451 30.4219 45.9209 30.4219 42.0721V37.6932H30.9174C31.1824 37.6932 31.9545 37.7738 32.6344 37.866ZM22.0097 42.4754C22.39 43.236 23.0123 44.2846 23.381 44.8031L24.0724 45.7481L23.5885 45.5637C21.5719 44.8031 19.4861 43.524 17.9765 42.1067L16.997 41.1848L17.9189 40.6778C18.426 40.4012 19.2556 39.9863 19.7627 39.7559L20.6845 39.3295L21.0072 40.2168C21.1801 40.7008 21.6295 41.7149 22.0097 42.4754ZM39.7558 39.9748C39.848 40.0094 40.3896 40.2975 40.9543 40.6086L41.9914 41.1848L41.0465 42.0836C39.5599 43.4895 37.2322 44.9299 35.3885 45.5867L34.939 45.7365L35.6189 44.8031C36.3449 43.8006 37.601 41.3576 38.0388 40.1016L38.3039 39.3295L38.9492 39.6176C39.2949 39.7789 39.6636 39.9287 39.7558 39.9748Z" fill="black"/>
</svg>
