<svg width="58" height="59" viewBox="0 0 58 59" fill="none" xmlns="http://www.w3.org/2000/svg">
<path d="M1.55661 1.16963C1.3031 1.28486 0.934345 1.56142 0.726924 1.76885C-0.0566701 2.59853 0.000947028 1.01982 0.000947028 22.1769C0.000947028 40.6028 0.0124705 41.3634 0.219892 41.8013C0.335127 42.0548 0.611689 42.4235 0.819111 42.631C1.54509 43.3224 1.77556 43.3569 4.92145 43.3569H7.76774L4.29919 46.8485C1.14177 50.006 0.784541 50.4093 0.438838 51.1353C0.0816111 51.9073 0.0585642 52.011 0.0585642 53.2671C0.0585642 54.5231 0.0816111 54.6384 0.427314 55.3644C0.899775 56.3784 1.72946 57.2081 2.74353 57.6806C3.4695 58.0263 3.58474 58.0493 4.84079 58.0493C6.09685 58.0493 6.20056 58.0263 6.97263 57.669C7.72165 57.3118 8.12497 56.9431 12.4463 52.6333L17.1133 47.9778L16.6523 47.5054L16.2029 47.0444L17.0787 46.1571L17.966 45.2698L18.98 45.7423C21.1925 46.7794 22.8519 47.1021 25.5138 47.0099C26.8621 46.9638 27.5074 46.8831 28.3832 46.6526C30.2269 46.1802 32.2781 45.1085 33.8222 43.8294L34.3984 43.3569H44.7465C56.1547 43.3569 55.5324 43.3915 56.339 42.631C56.5465 42.4235 56.823 42.0548 56.9383 41.8013C57.1457 41.3634 57.1572 40.6028 57.1572 22.1538C57.1572 3.70478 57.1457 2.94424 56.9383 2.50635C56.6732 1.9417 56.0855 1.36553 55.5209 1.13506C55.1406 0.973728 52.2713 0.950684 28.556 0.950684C2.95095 0.950684 2.00603 0.962208 1.55661 1.16963ZM54.622 2.92119C55.2328 3.14014 55.3134 3.50888 55.3134 6.07861V8.32568H28.5791H1.8447V6.09014C1.8447 3.57803 1.92536 3.19775 2.46696 2.95576C2.76657 2.829 7.157 2.80596 28.533 2.79443C47.4314 2.79443 54.3455 2.829 54.622 2.92119ZM55.3134 25.3228C55.3134 42.2046 55.3595 41.156 54.5414 41.3979C54.2302 41.4901 51.43 41.5132 45.0806 41.4901L36.0693 41.4556L36.4841 40.8333C37.164 39.8308 38.0168 37.9409 38.3394 36.7079C38.5814 35.763 38.6506 35.256 38.6851 33.6196C38.7312 31.9257 38.7082 31.4993 38.4892 30.4622C37.4867 25.5532 33.9836 21.6007 29.259 20.0335C26.6547 19.1692 23.1054 19.1692 20.5242 20.0335C16.5716 21.3587 13.541 24.2396 11.9853 28.1114C11.3285 29.7478 11.0634 31.2343 11.0634 33.1933C11.0634 35.544 11.3976 37.0421 12.3656 39.1278L12.8381 40.1419L12.1582 40.8218C11.582 41.3979 11.4092 41.5132 11.075 41.5132C10.8215 41.5132 10.5795 41.421 10.4066 41.2597L10.1416 41.0177L9.87653 41.2597C9.61149 41.5132 9.54235 41.5132 6.25817 41.5132C4.0572 41.5132 2.78962 41.4671 2.5361 41.3864C1.81013 41.1214 1.8447 41.9972 1.8447 25.3228V10.1694H28.5791H55.3134V25.3228ZM27.1386 21.5315C31.5406 22.3728 35.0092 25.5763 36.3804 30.0474C36.6685 31.0153 36.6916 31.2228 36.6916 33.2163C36.6916 35.2099 36.6685 35.4173 36.3804 36.3853C34.6519 42.0317 29.5931 45.5349 23.8199 45.0624C19.0031 44.6821 14.8892 41.2481 13.4027 36.3853C13.1146 35.4173 13.0916 35.2099 13.0916 33.2163C13.0916 31.2228 13.1146 31.0153 13.4027 30.0474C15.258 23.963 21.0543 20.3677 27.1386 21.5315ZM15.4769 44.855L14.7509 45.604L13.6332 44.4862L12.5039 43.3569L13.2414 42.6194L13.9674 41.8935L15.0851 42.9997L16.2144 44.106L15.4769 44.855ZM12.2158 45.9497L14.2324 47.9663L10.372 51.8267C7.90602 54.2927 6.33884 55.7792 6.03923 55.9175C5.4861 56.194 4.33376 56.2286 3.75759 55.9866C3.19294 55.7562 2.46696 55.0532 2.20192 54.4886C1.90231 53.8894 1.87927 52.7601 2.13278 52.1378C2.25954 51.8497 3.59626 50.4323 6.20056 47.8165C8.33239 45.6847 10.107 43.9331 10.1416 43.9331C10.1761 43.9331 11.1095 44.8435 12.2158 45.9497Z" fill="black"/>
<path d="M3.68848 5.56006V6.48193H4.61035H5.53223V5.56006V4.63818H4.61035H3.68848V5.56006Z" fill="black"/>
<path d="M7.37598 5.56006V6.48193H8.29785H9.21973V5.56006V4.63818H8.29785H7.37598V5.56006Z" fill="black"/>
<path d="M11.0635 5.56006V6.48193H11.9854H12.9072V5.56006V4.63818H11.9854H11.0635V5.56006Z" fill="black"/>
<path d="M3.68848 12.9351V13.8569H4.61035H5.53223V12.9351V12.0132H4.61035H3.68848V12.9351Z" fill="black"/>
<path d="M7.37598 12.9351V13.8569H16.1338H24.8916V12.9351V12.0132H16.1338H7.37598V12.9351Z" fill="black"/>
<path d="M40.5635 12.9351V13.8569H47.0166H53.4697V12.9351V12.0132H47.0166H40.5635V12.9351Z" fill="black"/>
<path d="M3.68848 16.6226V17.5444H14.29H24.8916V16.6226V15.7007H14.29H3.68848V16.6226Z" fill="black"/>
<path d="M40.5635 16.6226V17.5444H47.0166H53.4697V16.6226V15.7007H47.0166H40.5635V16.6226Z" fill="black"/>
<path d="M3.68848 20.3101V21.2319H8.29785H12.9072V20.3101V19.3882H8.29785H3.68848V20.3101Z" fill="black"/>
<path d="M40.5635 20.3101V21.2319H47.0166H53.4697V20.3101V19.3882H47.0166H40.5635V20.3101Z" fill="black"/>
<path d="M3.68848 23.9976V24.9194H8.29785H12.9072V23.9976V23.0757H8.29785H3.68848V23.9976Z" fill="black"/>
<path d="M40.5635 23.9976V24.9194H41.4854H42.4072V23.9976V23.0757H41.4854H40.5635V23.9976Z" fill="black"/>
<path d="M44.251 23.9976V24.9194H45.1729H46.0947V23.9976V23.0757H45.1729H44.251V23.9976Z" fill="black"/>
<path d="M47.9385 23.9976V24.9194H48.8604H49.7822V23.9976V23.0757H48.8604H47.9385V23.9976Z" fill="black"/>
<path d="M51.626 23.9976V24.9194H52.5479H53.4697V23.9976V23.0757H52.5479H51.626V23.9976Z" fill="black"/>
<path d="M40.5635 33.2163V39.6694H47.0166H53.4697V33.2163V26.7632H47.0166H40.5635V33.2163ZM51.626 33.2163V37.8257H47.0166H42.4072V33.2163V28.6069H47.0166H51.626V33.2163Z" fill="black"/>
<path d="M48.0307 31.6837L46.0947 33.6196L45.5186 33.0435L44.9424 32.4673L44.2164 33.1933L43.502 33.9077L44.8041 35.1983L46.0947 36.5005L48.7682 33.8271L51.4531 31.1421L50.7617 30.4507C50.3814 30.0704 50.0473 29.7593 50.0127 29.7593C49.9781 29.7593 49.0908 30.6235 48.0307 31.6837Z" fill="black"/>
<path d="M22.414 23.3177C18.8417 24.1935 15.8456 27.2126 14.9814 30.7964C14.6587 32.1446 14.6587 34.288 14.9814 35.6362C15.8917 39.4159 19.0031 42.4235 22.8404 43.1956C23.9927 43.4261 26.5394 43.3569 27.5995 43.0688C28.7288 42.7692 30.515 41.8128 31.4484 41.0292C33.0501 39.681 34.3177 37.6298 34.8017 35.6362C35.1243 34.288 35.1243 32.1446 34.8017 30.7964C33.9374 27.178 30.9298 24.1704 27.3115 23.3062C25.9863 22.995 23.7277 22.995 22.414 23.3177ZM26.5624 25.173C28.1872 25.5187 29.6968 26.3829 30.8491 27.6159C31.7249 28.5378 32.2781 29.4481 32.6929 30.6235C32.9925 31.4763 33.0156 31.6722 33.0156 33.2163C33.0156 34.795 32.9925 34.9448 32.6583 35.8782C32.2204 37.1228 31.4484 38.2866 30.4804 39.1855C26.09 43.2993 19.1183 41.5132 17.0786 35.763C16.7906 34.9679 16.7675 34.7374 16.7675 33.2163C16.7675 31.6722 16.7906 31.4763 17.0902 30.6235C18.496 26.6595 22.5638 24.3087 26.5624 25.173Z" fill="black"/>
<path d="M18.4385 33.2163V34.1382H19.3604H20.2822V33.2163V32.2944H19.3604H18.4385V33.2163Z" fill="black"/>
<path d="M22.126 33.2163V34.1382H23.0479H23.9697V33.2163V32.2944H23.0479H22.126V33.2163Z" fill="black"/>
<path d="M25.8135 33.2163V34.1382H26.7354H27.6572V33.2163V32.2944H26.7354H25.8135V33.2163Z" fill="black"/>
<path d="M29.501 33.2163V34.1382H30.4229H31.3447V33.2163V32.2944H30.4229H29.501V33.2163Z" fill="black"/>
</svg>
