<svg width="52" height="51" viewBox="0 0 52 51" fill="none" xmlns="http://www.w3.org/2000/svg">
<g clip-path="url(#clip0_109_1261)">
<path d="M0 4.03842C0.0800752 3.75035 0.149293 3.45958 0.244297 3.17555C0.865897 1.32595 2.60719 0.0201861 4.5765 0.0161477C12.9396 0.00134008 21.3027 -0.0134675 29.6658 0.0215322C33.128 0.0363398 35.3009 3.74766 33.6994 6.79264C33.6302 6.92321 33.5569 7.05244 33.4416 7.26244C33.6804 7.26244 33.8569 7.26244 34.0333 7.26244C36.5563 7.26244 39.078 7.24898 41.6011 7.26782C43.5772 7.28263 45.2845 8.51031 45.9441 10.3411C46.6065 12.1772 46.0609 14.1816 44.5449 15.4456C43.7129 16.1403 42.7452 16.5051 41.6594 16.5266C40.78 16.5441 39.9005 16.5306 38.9762 16.5306C39.1568 17.0274 39.3617 17.3545 39.9086 17.5443C46.6024 19.8516 50.7107 24.4554 51.7964 31.4096C53.2052 40.4301 47.1521 48.9081 38.1497 50.6406C32.1454 51.7969 26.9053 50.1412 22.5079 45.9197C22.227 45.6504 21.961 45.5441 21.5796 45.5454C17.7713 45.5575 13.9616 45.5683 10.1533 45.5468C7.43885 45.532 5.34739 43.3149 5.4994 40.6347C5.5754 39.2953 6.18615 38.1995 7.24205 37.2963C6.13729 36.327 5.49668 35.1478 5.49126 33.6872C5.48718 32.2226 6.10064 31.03 7.23934 30.0405C6.14136 29.0767 5.49804 27.8975 5.49126 26.4369C5.48583 24.971 6.09793 23.7783 7.32213 22.7148C7.16062 22.6152 6.99233 22.5533 6.88103 22.4362C5.51026 20.9971 5.1221 19.3306 5.81563 17.4689C6.46166 15.7337 8.17445 14.5626 10.046 14.5235C10.9255 14.506 11.805 14.5208 12.774 14.5208C11.7507 12.7776 11.7127 11.0626 12.7727 9.30454C12.5487 9.29512 12.3736 9.28031 12.1986 9.28031C9.77731 9.27896 7.35741 9.28031 4.93616 9.27896C2.4104 9.27492 0.675889 7.91532 0.0841468 5.47745C0.0651459 5.39938 0.0285013 5.32399 0 5.24726C0 4.84477 0 4.44092 0 4.03842ZM49.9832 33.8542C49.9764 25.5202 43.1225 18.737 34.7214 18.7504C26.3379 18.7639 19.5153 25.535 19.5071 33.8488C19.4976 42.1801 26.3434 48.9767 34.7431 48.9781C43.1415 48.9808 49.99 42.1841 49.9832 33.8542ZM17.1347 7.26244C21.2484 7.26244 25.3621 7.26648 29.4744 7.25975C31.0936 7.25705 32.2974 6.00783 32.1984 4.46246C32.1088 3.05574 30.9402 2.02459 29.4161 2.02459C23.3901 2.0219 17.3641 2.02325 11.3367 2.02325C9.11907 2.02325 6.90139 2.01652 4.68372 2.02594C3.47852 2.03132 2.46469 2.79459 2.13896 3.90112C1.63815 5.60938 2.90035 7.25436 4.74072 7.25975C8.87341 7.26917 13.0034 7.26244 17.1347 7.26244ZM29.1175 14.5182C33.2312 14.5182 37.3449 14.5222 41.4572 14.5155C43.0601 14.5128 44.2517 13.3026 44.1879 11.772C44.1282 10.3424 42.9515 9.27896 41.4084 9.27896C33.2149 9.27627 25.0228 9.27762 16.8294 9.27762C16.7276 9.27762 16.6258 9.27627 16.5253 9.28165C15.3975 9.33819 14.4162 10.1216 14.119 11.2013C13.6521 12.8987 14.9076 14.5101 16.7262 14.5141C20.8562 14.5249 24.9875 14.5182 29.1175 14.5182ZM35.8004 16.7581C35.8072 16.7124 35.8153 16.6666 35.8221 16.6208C35.4937 16.5912 35.1666 16.536 34.8381 16.536C26.6786 16.5306 18.5177 16.532 10.3582 16.5333C10.1383 16.5333 9.91575 16.5347 9.70131 16.5751C8.34003 16.8308 7.41713 18.0235 7.52571 19.3723C7.63293 20.701 8.76484 21.7618 10.1451 21.7658C14.157 21.7793 18.1703 21.7752 22.1822 21.7577C22.4007 21.7564 22.6626 21.6191 22.8282 21.4656C24.9943 19.4518 27.4997 18.0464 30.3702 17.2926C32.1481 16.8281 33.9614 16.6639 35.8004 16.7581ZM20.5888 23.7917C17.1157 23.7917 13.5653 23.785 10.0148 23.8025C9.68909 23.8039 9.34436 23.9115 9.04171 24.0448C7.94101 24.5321 7.32077 25.7665 7.56914 26.9094C7.83651 28.1452 8.85713 29.0134 10.122 29.0215C12.7089 29.0377 15.2971 29.0269 17.8839 29.0255C17.9803 29.0255 18.0753 29.008 18.1716 29C18.1309 28.9704 18.0888 28.9407 18.0481 28.9111C18.8937 27.2083 19.7392 25.5054 20.5888 23.7917ZM20.3079 43.5329C19.5031 41.7951 18.7077 40.0733 17.8866 38.3005C15.3378 38.3005 12.6817 38.2776 10.0257 38.3099C8.62912 38.3274 7.52028 39.5268 7.51892 40.9107C7.51756 42.2972 8.61962 43.5087 10.0162 43.5208C13.4676 43.5545 16.9203 43.5329 20.3079 43.5329ZM17.5758 36.2826C17.5758 34.5044 17.5758 32.7907 17.5758 31.0434C15.1396 31.0434 12.6559 31.034 10.1723 31.0475C8.68205 31.0555 7.52028 32.2186 7.51892 33.6617C7.51892 35.1047 8.67933 36.2651 10.1695 36.2799C11.7765 36.2947 13.3834 36.284 14.9903 36.284C15.8508 36.2826 16.7113 36.2826 17.5758 36.2826Z" fill="#000"/>
<path d="M35.7951 40.5485C35.6879 41.5689 35.3907 41.9728 34.7582 41.9849C34.1176 41.9983 33.819 41.6053 33.682 40.5459C32.8296 40.3103 32.0642 39.9078 31.4616 39.2334C30.8563 38.5562 30.5115 37.7714 30.4817 36.8641C30.46 36.214 30.8549 35.7576 31.4385 35.7253C32.018 35.693 32.4442 36.1076 32.508 36.7632C32.6043 37.7513 33.3277 38.4768 34.3456 38.6074C35.4803 38.7528 36.5117 38.2291 36.8592 37.3313C37.2663 36.2772 36.5321 35.1101 35.2875 34.8745C34.7745 34.7776 34.2398 34.787 33.7308 34.6767C31.9189 34.2849 30.5862 32.8136 30.4844 31.1377C30.3758 29.354 31.4806 27.7858 33.3128 27.1813C33.6548 27.0683 33.7403 26.9175 33.7376 26.5823C33.7308 25.9698 34.1651 25.531 34.7216 25.5188C35.2753 25.5067 35.7653 25.9456 35.7408 26.5433C35.7232 26.9821 35.9146 27.0952 36.2783 27.219C37.8418 27.7534 38.9235 29.14 39.0036 30.649C39.0375 31.3005 38.7199 31.7636 38.1784 31.8511C37.5541 31.9534 37.0315 31.5671 36.9881 30.9182C36.9311 30.05 36.4846 29.4671 35.7028 29.148C34.8234 28.7886 33.9683 28.8869 33.2178 29.4805C32.6288 29.9463 32.3695 30.5642 32.5745 31.3126C32.7862 32.0894 33.5327 32.6669 34.4067 32.7598C34.8437 32.8055 35.2902 32.8096 35.7164 32.9024C37.5758 33.3063 38.9099 34.7897 39.0036 36.5195C39.0986 38.2749 37.9544 39.8257 36.1114 40.4409C36.0136 40.4759 35.9173 40.5082 35.7951 40.5485Z" fill="#000"/>
<path d="M47.9584 33.5109C47.9353 35.9918 47.4508 38.0272 46.4437 39.9347C46.1859 40.4247 45.7624 40.6307 45.2711 40.5055C44.8124 40.3883 44.526 40.072 44.5192 39.6089C44.5151 39.341 44.6305 39.0543 44.7499 38.8039C46.2089 35.7576 46.3324 32.6696 45.0146 29.5546C43.9899 27.1329 42.2866 25.3035 39.9481 24.0623C39.8287 23.999 39.7066 23.9425 39.5898 23.8739C39.0456 23.5548 38.8597 23.011 39.1203 22.5062C39.3808 21.9987 39.9658 21.7766 40.5046 22.0916C41.4479 22.6421 42.4251 23.1766 43.2543 23.8739C46.3474 26.4719 47.8607 29.8359 47.9584 33.5109Z" fill="#000"/>
<path d="M21.5308 34.2432C21.5525 31.7434 22.0384 29.7094 23.04 27.7992C23.2802 27.3429 23.6494 27.1288 24.161 27.215C24.632 27.2944 24.936 27.604 24.9631 28.0631C24.9794 28.3444 24.8668 28.654 24.7406 28.9179C23.268 31.9817 23.1553 35.0886 24.4895 38.2143C25.506 40.597 27.193 42.4022 29.4894 43.6393C29.6523 43.7268 29.8233 43.8049 29.978 43.9058C30.4734 44.2289 30.6213 44.7808 30.3499 45.2627C30.0934 45.7191 29.5301 45.9398 29.0375 45.6572C28.1037 45.1227 27.1387 44.6045 26.3176 43.9233C23.1771 41.3212 21.6312 37.9397 21.5308 34.2432Z" fill="#000"/>
<path d="M37.3434 21.7968C37.3285 22.3568 36.8548 22.7902 36.2739 22.7781C35.6958 22.766 35.2411 22.3069 35.2547 21.7483C35.2683 21.1896 35.7419 20.7548 36.3215 20.767C36.901 20.7791 37.3597 21.2408 37.3434 21.7968Z" fill="#000"/>
<path d="M34.233 45.9466C34.2384 46.5039 33.7769 46.9575 33.1988 46.9616C32.6192 46.9656 32.151 46.5227 32.1456 45.9641C32.1388 45.4068 32.6016 44.9545 33.1811 44.9491C33.7593 44.945 34.2275 45.3893 34.233 45.9466Z" fill="#000"/>
</g>
<defs>
<clipPath id="clip0_109_1261">
<rect width="52" height="51" fill="#000"/>
</clipPath>
</defs>
</svg>
