<svg width="59" height="60" viewBox="0 0 59 60" fill="none" xmlns="http://www.w3.org/2000/svg">
<path d="M9.21875 24.8906V49.7812H6.45312H3.6875V50.7031V51.625H12.5951H21.5027L21.9291 52.4893C22.1596 52.9732 22.3555 53.3881 22.3555 53.4111C22.3555 53.4457 17.3313 53.4687 11.1777 53.4687H0V54.3906V55.3125H11.6732H23.3465L23.6922 56.027C24.1762 57.0641 25.1211 57.9744 26.2273 58.5045L27.1377 58.9424L35.0428 58.977L42.9479 59.0115L44.3191 57.1678L45.6904 55.324L52.351 55.3125H59V54.3906V53.4687H52.5469H46.0938V52.5469V51.625H50.7031H55.3125V50.7031V49.7812H52.5469H49.7812V24.8906V0H29.5H9.21875V24.8906ZM47.9375 25.8125V49.7812H47.0156H46.0938V47.5918C46.0938 45.1603 46.0246 44.8492 45.3678 44.1463C44.8031 43.5471 44.2154 43.3281 43.1898 43.3281C42.3947 43.3281 42.3025 43.3051 42.2334 43.0861C42.1066 42.6828 41.3461 41.9223 40.8506 41.7033C40.4934 41.5305 40.1016 41.4844 39.0414 41.4844C37.7738 41.4844 37.6932 41.4728 37.624 41.2424C37.4973 40.8391 36.7367 40.0785 36.2412 39.8596C35.884 39.6982 35.4922 39.6406 34.4897 39.6406H33.1875V38.2578V36.875H35.9531H38.7188V29.5V22.125H37.7969H36.875V19.6936C36.875 16.9164 36.7828 16.3633 36.0568 14.9689C35.2041 13.3326 33.7406 12.0535 32.0006 11.4313C30.9059 11.0395 28.7971 10.9357 27.6678 11.2354C25.5475 11.777 23.7729 13.2174 22.8395 15.1533C22.2172 16.4209 22.125 17.0086 22.125 19.6936V22.125H21.2031H20.2812V29.5V36.875H23.5078H26.7344V41.3922V45.9209L26.2619 45.1719C25.6281 44.1809 25.1787 43.7199 24.4873 43.3512C23.9918 43.0861 23.7613 43.04 22.9316 43.04C21.7793 43.04 21.1109 43.3051 20.3619 44.0541C19.682 44.734 19.4285 45.4023 19.417 46.4971C19.417 47.3613 19.4516 47.4881 19.9701 48.5482C20.2697 49.182 20.5117 49.7121 20.5117 49.7352C20.5117 49.7582 19.2211 49.7812 17.6309 49.7812H14.75V40.5625V31.3437H13.8281H12.9062V40.5625V49.7812H11.9844H11.0625V25.8125V1.84375H29.5H47.9375V25.8125ZM31.1709 13.252C32.8648 13.8396 34.2246 15.234 34.7432 16.9395C34.8814 17.4004 34.9506 18.1955 34.9967 19.8434L35.0658 22.125H29.5H23.9342L24.0033 19.8434C24.0494 18.1955 24.1186 17.4004 24.2568 16.9395C24.7754 15.2225 26.1928 13.782 27.8637 13.2404C28.7855 12.9523 30.2951 12.9523 31.1709 13.252ZM36.875 29.5V35.0312H35.0312H33.1875V33.441C33.1875 31.966 33.1645 31.8047 32.8879 31.2516C32.3117 30.0877 31.3322 29.5 29.9609 29.5C28.5896 29.5 27.6102 30.0877 27.034 31.2516C26.7574 31.8047 26.7344 31.966 26.7344 33.441V35.0312H24.4297H22.125V29.5V23.9688H29.5H36.875V29.5ZM30.7561 31.7586C30.952 31.9199 31.1594 32.2426 31.2285 32.473C31.2977 32.7381 31.3438 35.0543 31.3438 38.5689V44.25H32.2656H33.1875V42.8672V41.4844H34.0402C35.8148 41.4844 35.9531 41.6918 35.9531 44.3076V46.0937H36.875H37.7969V44.7109V43.3281H38.6496C40.4242 43.3281 40.5625 43.5355 40.5625 46.1514V47.9375H41.4844H42.4062V46.5547V45.1719H42.798C43.0055 45.1719 43.3512 45.2295 43.5586 45.2986C44.2154 45.5291 44.25 45.748 44.25 50.0809V53.9643L43.0746 55.5545L41.8877 57.1562L34.916 57.1217C27.0109 57.0871 27.3566 57.1332 26.2619 56.1537C25.7318 55.6697 25.5014 55.2434 23.4963 51.2562C22.0213 48.2947 21.3184 46.7736 21.3184 46.5201C21.3184 45.7711 22.125 44.9414 22.874 44.9414C23.6691 44.9414 23.9457 45.241 25.3516 47.5457L26.6768 49.7236L27.6332 49.7582L28.5781 49.7928V41.3461C28.5781 35.9416 28.6242 32.7496 28.6934 32.473C28.8547 31.8854 29.3963 31.459 29.9609 31.459C30.2721 31.459 30.5141 31.5512 30.7561 31.7586Z" fill="black"/>
<path d="M12.9062 11.0625V18.4375H13.8281H14.75V11.9844V5.53125H29.5H44.25V23.5078V41.4844H45.1719H46.0938V22.5859V3.6875H29.5H12.9062V11.0625Z" fill="black"/>
<path d="M14.4619 20.5002C13.8973 20.7652 13.3211 21.3529 13.0906 21.9176C12.8256 22.5398 12.8256 27.2414 13.0906 27.8637C13.517 28.8893 14.4734 29.5 15.6719 29.5C16.5592 29.5 17.1699 29.2465 17.7115 28.6818C18.3914 27.9674 18.4375 27.7023 18.4375 24.8676C18.4375 22.609 18.4029 22.2402 18.2186 21.8369C17.9535 21.2723 17.3658 20.6961 16.8012 20.4656C16.202 20.2121 15.0381 20.2352 14.4619 20.5002ZM16.1328 22.3555C16.49 22.5398 16.5938 23.1275 16.5938 24.9137C16.5938 26.8496 16.467 27.3682 15.9715 27.4949C15.4645 27.6217 15.0957 27.4488 14.9113 27.0225C14.7154 26.55 14.6809 23.358 14.8652 22.851C15.0842 22.2863 15.6143 22.0789 16.1328 22.3555Z" fill="black"/>
<path d="M27.3106 26.0891C26.3656 26.3656 25.6512 26.7113 24.9483 27.2068C23.9457 27.9213 23.9688 27.7945 24.6717 28.5436C25.0174 28.9123 25.3285 29.2234 25.3631 29.2465C25.3977 29.258 25.7549 29.0506 26.1697 28.774C28.1979 27.4143 30.7906 27.4143 32.7957 28.751C33.2221 29.0391 33.5793 29.2695 33.5908 29.2695C33.6139 29.2695 33.9135 28.9699 34.2707 28.6012L34.916 27.9443L34.4551 27.5295C33.8328 26.9648 32.6229 26.3426 31.5742 26.0545C30.3527 25.7088 28.4975 25.7318 27.3106 26.0891Z" fill="black"/>
<path d="M0 50.7031V51.625H0.921875H1.84375V50.7031V49.7812H0.921875H0V50.7031Z" fill="black"/>
<path d="M57.1562 50.7031V51.625H58.0781H59V50.7031V49.7812H58.0781H57.1562V50.7031Z" fill="black"/>
</svg>
