<svg width="58" height="56" viewBox="0 0 58 56" fill="none" xmlns="http://www.w3.org/2000/svg">
<path d="M6.62709 0.150578C4.9275 0.524487 3.45452 1.36295 2.24215 2.66597C1.36969 3.59508 0.859815 4.43354 0.395261 5.66858C0.0666733 6.56369 0.0553427 6.677 0.0440121 8.41058C0.0440121 10.0875 0.0666732 10.2915 0.349938 11.1299C0.519897 11.6285 0.848484 12.365 1.08643 12.7729C1.50566 13.4867 2.86533 14.971 3.5565 15.4695L3.89641 15.7188L3.5565 15.9681C3.37521 16.0927 2.80868 16.6253 2.2988 17.1238C1.56231 17.8716 1.29038 18.2569 0.871145 19.118C0.123326 20.6476 -0.0466327 21.4748 0.0100203 23.265C0.0666732 24.9419 0.361269 26.0183 1.08643 27.276C1.50566 27.9898 2.86533 29.4742 3.5565 29.9727L3.89641 30.222L3.5565 30.4712C3.37521 30.5959 2.80868 31.1284 2.2988 31.627C1.56231 32.3748 1.29038 32.76 0.871145 33.6212C0.123326 35.1508 -0.0466327 35.9779 0.0100203 37.7681C0.0666732 39.4451 0.361269 40.5215 1.08643 41.7678C1.95888 43.2522 3.63581 44.7251 5.16544 45.3483C6.67241 45.9602 6.92168 45.9715 15.5103 45.9715H23.4643L23.7816 45.6429C24.3708 45.065 24.3708 44.3852 23.7816 43.8074L23.4643 43.4788H15.7709C10.7741 43.4788 7.83946 43.4334 7.39757 43.3541C4.65556 42.8556 2.48009 40.2609 2.48009 37.4736C2.48009 34.6862 4.65556 32.0915 7.39757 31.593C7.83946 31.5137 10.7741 31.4683 15.7709 31.4683H23.4643L23.7816 31.1397C23.9629 30.9585 24.1442 30.6865 24.1895 30.5166C24.2915 30.086 24.1555 29.6781 23.7816 29.3042L23.4643 28.9756H15.7709C10.7741 28.9756 7.83946 28.9303 7.39757 28.851C4.65556 28.3524 2.48009 25.7577 2.48009 22.9704C2.48009 20.1831 4.65556 17.5884 7.39757 17.0898C7.86212 16.9992 13.8673 16.9652 26.6029 16.9652C42.0805 16.9652 45.2644 16.9992 45.8876 17.1238C46.6128 17.2824 47.5985 17.7243 48.3123 18.2002C48.7996 18.5401 49.5021 18.5175 49.9326 18.1549C50.6011 17.5997 50.4765 16.5913 49.6947 16.0587C49.4681 15.9001 49.2754 15.7528 49.2754 15.7188C49.2868 15.6848 49.5927 15.4355 49.9666 15.1523C52.2327 13.464 53.5244 10.3141 53.1505 7.44748C52.8333 5.09072 51.7002 3.09653 49.9213 1.73686C48.9808 1.03436 48.301 0.671783 47.1793 0.297874L46.3861 0.0259399L26.8975 0.00328064C9.96961 -0.00805283 7.30692 0.00328064 6.62709 0.150578ZM45.9103 2.63198C48.0177 3.07387 49.842 4.77346 50.4538 6.86962C50.6918 7.67409 50.6918 9.26037 50.4538 10.0648C49.842 12.161 48.0177 13.8606 45.9103 14.3025C45.2644 14.4385 42.2505 14.4724 26.6029 14.4724C13.8673 14.4724 7.86212 14.4385 7.39757 14.3478C4.10036 13.7586 1.82292 10.2575 2.65005 7.07357C3.21658 4.88676 5.17677 2.99456 7.29559 2.59798C7.63551 2.53 15.295 2.48468 26.5009 2.47335C42.2731 2.46202 45.2531 2.49601 45.9103 2.63198Z" fill="black"/>
<path d="M9.40985 5.07934C8.0955 5.58921 7.23438 6.92622 7.23438 8.46718C7.23438 10.552 8.60538 11.9797 10.6902 12.0703C11.8459 12.127 12.6731 11.8324 13.3869 11.1525C14.112 10.4387 14.418 9.72488 14.4633 8.63714C14.5199 7.4361 14.2254 6.63163 13.4662 5.86115C12.4578 4.86406 10.8035 4.5468 9.40985 5.07934ZM11.4154 7.49275C12.1745 7.88932 12.1519 9.11303 11.37 9.46428C10.7922 9.72488 10.1577 9.54359 9.88573 9.02238C9.3532 7.9913 10.3843 6.96022 11.4154 7.49275Z" fill="black"/>
<path d="M21.7087 5.00006C20.3037 5.50994 19.25 6.99424 19.25 8.46722C19.25 9.11306 19.5786 10.0762 19.9978 10.654C20.4284 11.2432 21.2102 11.7984 21.856 11.9797C22.4792 12.161 23.6689 12.1157 24.2921 11.9004C25.1192 11.6058 26.0597 10.6427 26.3883 9.77024C26.7282 8.85246 26.6715 7.65142 26.241 6.81295C25.8671 6.0878 24.9606 5.26066 24.2695 5.02272C23.6236 4.80744 22.2979 4.79611 21.7087 5.00006ZM23.6916 7.66275C23.9975 7.93468 24.0655 8.07065 24.0655 8.46722C24.0655 8.86379 23.9975 8.99976 23.6916 9.27169C23.193 9.72492 22.6378 9.72492 22.1846 9.27169C21.4821 8.5692 21.958 7.33416 22.9211 7.33416C23.2044 7.33416 23.431 7.43614 23.6916 7.66275Z" fill="black"/>
<path d="M9.40985 19.5825C8.0955 20.0924 7.23438 21.4294 7.23438 22.9704C7.23438 25.0552 8.60538 26.4828 10.6902 26.5735C11.8459 26.6301 12.6731 26.3355 13.3869 25.6557C14.112 24.9419 14.418 24.2281 14.4633 23.1403C14.5199 21.9393 14.2254 21.1348 13.4662 20.3643C12.4578 19.3672 10.8035 19.05 9.40985 19.5825ZM11.4154 21.9959C12.1745 22.3925 12.1519 23.6162 11.37 23.9675C10.7922 24.2281 10.1577 24.0468 9.88573 23.5256C9.3532 22.4945 10.3843 21.4634 11.4154 21.9959Z" fill="black"/>
<path d="M21.7087 19.5032C20.3037 20.0131 19.25 21.4974 19.25 22.9704C19.25 23.6162 19.5786 24.5793 19.9978 25.1572C20.4284 25.7464 21.2102 26.3016 21.856 26.4829C22.4792 26.6642 23.6689 26.6188 24.2921 26.4036C25.1192 26.109 26.0597 25.1459 26.3883 24.2734C26.7282 23.3556 26.6715 22.1546 26.241 21.3161C25.8671 20.591 24.9606 19.7638 24.2695 19.5259C23.6236 19.3106 22.2979 19.2993 21.7087 19.5032ZM23.6916 22.1659C23.9975 22.4379 24.0655 22.5738 24.0655 22.9704C24.0655 23.367 23.9975 23.5029 23.6916 23.7749C23.193 24.2281 22.6378 24.2281 22.1846 23.7749C21.4821 23.0724 21.958 21.8373 22.9211 21.8373C23.2044 21.8373 23.431 21.9393 23.6916 22.1659Z" fill="black"/>
<path d="M36.3004 24.0468C30.6578 25.9616 29.4681 26.3922 29.2528 26.6415L28.9922 26.9474V33.0319C28.9922 39.8416 29.0375 40.3741 29.7513 42.459C30.3405 44.2152 31.0657 45.5862 32.2327 47.1725C34.4762 50.2204 37.932 53.0417 41.8864 55.0246C43.4614 55.8177 43.586 55.8064 45.5009 54.8207C50.5316 52.2033 54.418 48.4982 56.5029 44.3285C57.0127 43.3088 57.6246 41.4052 57.8172 40.2042C57.9645 39.3204 57.9985 38.0627 57.9985 33.0206V26.9134L57.6926 26.6075C57.432 26.3582 56.0383 25.8483 50.577 24.0128C46.8379 22.7551 43.6313 21.724 43.4387 21.7353C43.2574 21.7353 40.0395 22.7777 36.3004 24.0468ZM49.5006 26.3469L55.4491 28.3524L55.4831 33.3945C55.5171 39.0031 55.4491 39.8076 54.8033 41.6545C53.3983 45.6769 49.7612 49.5179 44.6511 52.3732L43.4953 53.0191L42.3396 52.3732C37.2182 49.5179 33.6264 45.7222 32.1874 41.6545C31.5416 39.8189 31.4736 39.0031 31.5076 33.3945L31.5416 28.3524L37.4335 26.3582C40.674 25.2591 43.382 24.3527 43.4387 24.3414C43.5067 24.3414 46.226 25.2365 49.5006 26.3469Z" fill="black"/>
<path d="M50.0733 32.7827C49.9147 32.8847 48.1245 34.6296 46.085 36.6578C44.0454 38.6973 42.3572 40.3289 42.3345 40.3062C42.3119 40.2722 41.3828 39.1165 40.2837 37.7342C38.6634 35.706 38.1989 35.1961 37.8816 35.0941C37.0205 34.8109 36.25 35.3774 36.25 36.2838C36.25 36.7711 36.352 36.907 38.8787 40.0683C41.6434 43.5468 41.8133 43.7054 42.5725 43.5354C42.7991 43.4901 44.2721 42.0964 47.4446 38.9125L51.9995 34.3463V33.8591C51.9995 33.4512 51.9315 33.3039 51.6143 32.9866C51.3084 32.6807 51.1384 32.6014 50.7872 32.6014C50.5492 32.6014 50.2206 32.6807 50.0733 32.7827Z" fill="black"/>
<path d="M9.40985 34.0857C8.0955 34.5956 7.23438 35.9326 7.23438 37.4735C7.23438 39.5584 8.60538 40.986 10.6902 41.0767C11.8459 41.1333 12.6731 40.8387 13.3869 40.1589C14.112 39.4451 14.418 38.7312 14.4633 37.6435C14.5199 36.4424 14.2254 35.638 13.4662 34.8675C12.4578 33.8704 10.8035 33.5531 9.40985 34.0857ZM11.4154 36.4991C12.1745 36.8957 12.1519 38.1194 11.37 38.4706C10.7922 38.7312 10.1577 38.5499 9.88573 38.0287C9.3532 36.9976 10.3843 35.9666 11.4154 36.4991Z" fill="black"/>
<path d="M21.7087 34.0063C20.3037 34.5162 19.25 36.0005 19.25 37.4735C19.25 38.1194 19.5786 39.0825 19.9978 39.6603C20.4284 40.2495 21.2102 40.8047 21.856 40.986C22.4792 41.1673 23.6689 41.122 24.2921 40.9067C25.1192 40.6121 26.0597 39.649 26.3883 38.7765C26.7282 37.8587 26.6715 36.6577 26.241 35.8192C25.8671 35.0941 24.9606 34.2669 24.2695 34.029C23.6236 33.8137 22.2979 33.8024 21.7087 34.0063ZM23.6916 36.669C23.9975 36.941 24.0655 37.0769 24.0655 37.4735C24.0655 37.8701 23.9975 38.006 23.6916 38.278C23.193 38.7312 22.6378 38.7312 22.1846 38.278C21.4821 37.5755 21.958 36.3404 22.9211 36.3404C23.2044 36.3404 23.431 36.4424 23.6916 36.669Z" fill="black"/>
</svg>
