<svg width="58" height="57" viewBox="0 0 58 57" fill="none" xmlns="http://www.w3.org/2000/svg">
<path d="M41.2038 2.68952L38.3643 4.44159L37.0109 4.03076C34.268 3.19702 32.0568 2.88285 28.9393 2.88285C25.266 2.89494 22.3781 3.41452 19.1157 4.69534C10.452 8.06656 4.04788 15.7877 2.34415 24.8985L2.12665 26.0827H1.30499C0.326247 26.0827 0 26.3122 0 26.9889C0 27.5568 2.00582 32.5713 2.29581 32.7284C2.58581 32.8855 3.21414 32.8855 3.50414 32.7284C3.79413 32.5713 5.79995 27.5568 5.79995 26.9889C5.79995 26.3847 5.46162 26.0827 4.77288 26.0827C4.47079 26.0827 4.22913 26.0464 4.22913 26.0102C4.22913 25.6477 4.94204 22.8806 5.3287 21.781C8.60326 12.2715 17.4844 5.50492 27.3927 4.96117C29.1568 4.86451 31.6701 4.96117 32.8301 5.16658C34.123 5.39617 35.8872 5.81908 35.8872 5.89158C35.8872 5.93991 34.8964 6.58032 33.676 7.32948L31.4647 8.6828L28.7581 8.71906C25.7252 8.76739 24.6619 8.92447 22.2694 9.70988C14.7415 12.1749 9.08659 18.8931 7.91452 26.7351C7.67285 28.3664 7.67285 31.5322 7.91452 33.1634C8.42201 36.5588 9.82366 39.8817 11.9382 42.7575C12.8082 43.9175 15.0315 46.1408 16.1915 46.9987C19.0553 49.1254 22.1123 50.4183 25.6164 50.9862C26.9214 51.2037 27.4652 51.2279 29.6039 51.1795C32.226 51.107 33.2289 50.962 35.3555 50.3095C41.7596 48.352 47.1367 43.0717 49.2271 36.6917C50.0608 34.1663 50.1937 33.248 50.2179 29.9372L50.2421 26.9526L51.2208 26.0947C54.7854 22.941 57.1416 18.3373 57.8182 13.2019C58.0478 11.474 58.0599 9.28697 57.8545 9.02114C57.7699 8.91239 54.8216 7.05157 51.2933 4.88867C46.0854 1.68661 44.8167 0.949539 44.4663 0.949539C44.128 0.949539 43.4392 1.32412 41.2038 2.68952ZM50.2541 6.68907L55.9695 10.1932L55.897 11.4619C55.7158 15.1836 54.3383 19.1227 52.272 21.8535C50.6046 24.0768 47.8979 26.3002 45.5175 27.4118L44.4663 27.9072L43.415 27.4118C41.6146 26.566 40.0801 25.4664 38.4126 23.7989C36.7934 22.1798 35.9234 20.9956 35.0051 19.1348C33.8814 16.8994 33.1564 14.0961 33.0355 11.5465L32.963 10.1932L38.6905 6.67699C41.8321 4.73159 44.4421 3.16077 44.4784 3.17285C44.5146 3.17285 47.1125 4.75576 50.2541 6.68907ZM30.1235 10.737H30.9331V11.3532C30.9331 12.2836 31.2835 14.5069 31.6701 16.0173C32.9147 20.9231 35.7664 24.9952 39.8747 27.7743C40.4426 28.1489 41.1313 28.5839 41.4213 28.7289C41.9167 28.9826 41.9288 29.0068 41.7476 29.2605C41.4696 29.6593 41.5301 30.2393 41.9288 31.0247L42.2792 31.7376L41.0588 33.2722L39.8263 34.8067L39.1255 33.4172L38.4247 32.0155L37.4943 31.7255C36.9747 31.5684 35.6093 31.1818 34.4734 30.8555C33.3255 30.5293 32.3831 30.2151 32.3831 30.1668C32.3831 30.1185 32.7093 29.2605 33.108 28.2576C33.531 27.2064 33.833 26.2518 33.833 25.9981C33.833 25.5993 33.7001 25.4302 32.3831 24.0889L30.9331 22.6269V21.2131C30.9331 19.304 30.9451 19.316 29.0239 19.316H27.5981L26.9698 18.6756L26.3414 18.0352L26.7039 16.9598C27.1268 15.7032 27.1631 15.0628 26.8369 14.7365C26.716 14.6157 26.0635 14.3257 25.3869 14.1082L24.1665 13.7094V12.5253C24.1665 11.8849 24.2027 11.329 24.2631 11.2928C24.6619 11.0511 28.4077 10.5678 29.0602 10.6886C29.1931 10.7128 29.6643 10.737 30.1235 10.737ZM22.2331 13.4557C22.2331 15.2682 22.2331 15.2682 23.6952 15.7515C24.251 15.9327 24.7223 16.1019 24.7344 16.114C24.7585 16.1261 24.6377 16.5369 24.4685 17.0202C24.2994 17.5036 24.1665 18.1319 24.1665 18.3977C24.1665 18.8448 24.251 18.9536 25.3506 20.0652L26.5348 21.2494H27.7673H28.9997V22.4819V23.7023L30.3168 25.0435L31.6339 26.3847L30.8122 28.4389C29.9302 30.6139 29.8093 31.2422 30.1839 31.6168C30.3652 31.798 32.673 32.5109 36.588 33.5984C36.9505 33.6951 37.0593 33.8643 37.9413 35.6163C38.4609 36.6676 38.9805 37.5617 39.0892 37.6101C39.3551 37.7067 40.0197 37.6946 40.2009 37.5859C40.2734 37.5376 41.2642 36.3413 42.4001 34.9155C44.7442 31.9914 44.72 32.0276 44.1038 30.8072C43.9105 30.4205 43.7896 30.0701 43.8259 30.0218C43.8742 29.9855 44.128 29.9493 44.4179 29.9493C44.9738 29.9493 46.2183 29.466 47.475 28.7651L48.2483 28.3422L48.1758 30.5655C48.1033 33.0063 47.8738 34.2993 47.1246 36.4138C45.59 40.7638 42.1342 44.7754 38.1226 46.8779L37.1559 47.3854L32.7455 45.1742C30.3168 43.9658 28.311 42.9508 28.2748 42.9146C28.2506 42.8904 28.3956 41.7909 28.6131 40.4859C28.8306 39.1809 28.9997 37.9001 28.9997 37.6584C28.9997 37.2355 28.746 36.9092 25.6044 33.3084C23.7315 31.1576 22.1002 29.3089 21.9673 29.188C21.6773 28.9464 20.9161 28.9101 20.6019 29.1518C20.4448 29.2605 20.2273 29.913 19.889 31.2543L19.3936 33.1997L17.5207 34.6013C16.4936 35.3626 15.6115 36.0634 15.5632 36.148C15.5149 36.2326 15.4665 36.4984 15.4665 36.7642C15.4665 37.1751 15.5632 37.3201 16.3244 38.1176L17.1944 38.9996L16.4694 41.5009L15.7444 43.99L14.7536 42.8663C12.4457 40.2563 11.0078 37.4771 10.1862 34.0576C9.82366 32.4988 9.66658 29.031 9.89616 27.3997C10.6332 22.216 13.5815 17.3223 17.7744 14.3257C18.7532 13.6248 21.8344 11.9453 22.1244 11.9453C22.1848 11.9453 22.2331 12.6219 22.2331 13.4557ZM3.26247 28.1006C3.26247 28.2697 2.97247 28.9826 2.89997 28.9826C2.82748 28.9826 2.53748 28.2697 2.53748 28.1006C2.53748 28.0522 2.70664 28.016 2.89997 28.016C3.10539 28.016 3.26247 28.0522 3.26247 28.1006ZM24.4444 35.1572L26.9335 38.0088L26.5227 40.4738C26.0635 43.1442 26.0152 43.8208 26.2569 44.1108C26.3294 44.2196 28.2506 45.2346 30.5102 46.3583L34.6064 48.4004L33.531 48.6541C31.7426 49.077 30.8606 49.1737 28.9997 49.1737C25.1331 49.1737 21.7498 48.1708 18.5115 46.0683C17.7503 45.5729 17.5207 45.3554 17.569 45.1983C18.3303 42.7333 19.3332 38.9634 19.3332 38.613C19.3332 38.2263 19.2365 38.0571 18.729 37.5134C18.4028 37.163 18.1248 36.8488 18.1248 36.8126C18.1248 36.7763 18.7653 36.2688 19.5507 35.6888C20.324 35.1088 21.0248 34.553 21.1094 34.4563C21.1819 34.3597 21.3631 33.7918 21.5081 33.1997C21.6652 32.5955 21.8223 32.1484 21.8706 32.2089C21.919 32.2572 23.079 33.5863 24.4444 35.1572Z" fill="black"/>
<path d="M39.5983 8.22385C36.2271 10.3143 35.0188 11.1117 34.9221 11.3413C34.765 11.7159 35.0188 13.6371 35.4175 15.1475C36.5533 19.4975 39.2116 22.9654 43.1629 25.2733C44.3591 25.9741 44.5766 25.962 45.8453 25.225C49.8449 22.8808 52.5274 19.2679 53.5907 14.785C54.0378 12.9242 54.1828 11.6555 53.9894 11.2809C53.7719 10.8822 44.9149 5.42054 44.4679 5.42054C44.2624 5.42054 42.4862 6.44762 39.5983 8.22385ZM48.1895 9.96384C50.0986 11.1359 51.7299 12.163 51.8145 12.2476C51.9474 12.3684 51.9474 12.5617 51.7903 13.4196C51.2103 16.5009 49.6395 19.4129 47.4645 21.4308C46.5462 22.2766 44.7458 23.5454 44.4437 23.5454C44.0691 23.5454 42.2929 22.2283 41.1933 21.1287C39.8641 19.8238 38.8491 18.3496 38.1604 16.7425C37.6408 15.5342 37.1333 13.7217 37.0729 12.8396L37.0367 12.2597L40.722 9.988C42.752 8.73135 44.4799 7.74052 44.5645 7.77677C44.6491 7.81302 46.2803 8.79177 48.1895 9.96384Z" fill="black"/>
<path d="M45.6524 14.6883L43.5136 16.827L42.7886 16.1383C42.1603 15.5341 42.0153 15.4495 41.5803 15.4495C40.9157 15.4495 40.6016 15.7637 40.6016 16.4404C40.6016 16.9237 40.662 17.0083 41.7857 18.132C42.9336 19.2678 42.994 19.3162 43.5015 19.3162H44.0332L46.6673 16.682C49.2652 14.0841 49.3015 14.0479 49.3015 13.5404C49.3015 12.8637 48.9873 12.5496 48.3107 12.5496C47.8152 12.5496 47.7548 12.5979 45.6524 14.6883Z" fill="black"/>
<path d="M54.4594 27.1944C54.1694 27.4119 52.1999 32.3902 52.1999 32.9098C52.1999 33.514 52.5382 33.816 53.2269 33.816C53.529 33.816 53.7707 33.8523 53.7707 33.8885C53.7707 33.9369 53.6257 34.5894 53.4565 35.3506C51.6803 43.2651 46.3032 49.7538 38.8479 52.968C35.6338 54.3454 32.6009 54.9738 29.0484 54.9738C26.8251 54.9738 25.5322 54.8409 23.5868 54.4059C16.506 52.823 10.5611 48.3522 6.97234 41.8997C6.50109 41.0418 6.38026 40.9451 5.72776 40.9451C4.91819 40.9451 4.57986 41.7789 5.02694 42.673C6.46484 45.5126 9.20773 48.8476 11.9023 51.0105C15.2131 53.6809 19.2489 55.6142 23.2847 56.46C25.5684 56.9433 26.9701 57.0521 29.7734 56.9796C32.5163 56.9192 34.4375 56.6413 36.6125 55.9888C46.4603 53.0525 53.7948 44.9568 55.6557 34.9881L55.8732 33.816H56.6948C57.6736 33.816 57.9998 33.5865 57.9998 32.9098C57.9998 32.3419 55.994 27.3273 55.704 27.1703C55.3898 27.0011 54.7011 27.0253 54.4594 27.1944ZM55.3173 31.3148C55.5107 31.8706 55.5107 31.8827 55.0998 31.8827C54.9065 31.8827 54.7373 31.8465 54.7373 31.7981C54.7373 31.629 55.0273 30.9161 55.0998 30.9161C55.1361 30.9161 55.2328 31.0973 55.3173 31.3148Z" fill="black"/>
</svg>
