<svg width="58" height="58" viewBox="0 0 58 58" fill="none" xmlns="http://www.w3.org/2000/svg">
<path d="M3.17187 0.215237C1.94844 0.657032 0.917578 1.58594 0.328516 2.77539L0 3.45508V24.1289V44.8027L0.351172 45.5504C0.974218 46.8644 1.95977 47.7254 3.31914 48.1445C4.02148 48.3598 4.41797 48.3711 17.4566 48.3711H30.8691V50.3082C30.8691 52.4719 30.9824 53.1176 31.5828 54.3637C32.0812 55.3945 33.4746 56.7879 34.5281 57.2976C36.0234 58.0113 35.8082 58 44.4062 58C53.0156 58 52.8344 58.0113 54.3183 57.2863C55.3152 56.7992 56.7312 55.3832 57.2297 54.375C57.9547 52.9137 57.9433 53.1062 57.9433 44.1684V36.0574L57.6828 35.6836C57.241 35.0266 56.8898 34.8453 55.9496 34.8L55.1113 34.7547V32.0586C55.1113 28.9773 55.0094 28.0031 54.5336 26.5644C54.1258 25.3523 53.6387 24.4461 52.8004 23.3586L52.166 22.543L52.1433 13.0613L52.1094 3.56836L51.7582 2.82071C51.1578 1.56328 50.2515 0.725002 48.9601 0.237892L48.3031 0H26.0207C4.80312 0.0113297 3.71562 0.0226593 3.17187 0.215237ZM48.3598 2.19766C48.9375 2.43555 49.5719 3.05859 49.8551 3.68164C50.1043 4.19141 50.1269 4.40664 50.1269 5.96992V7.70312H26.0547H1.98242V5.94727C1.98242 3.95352 2.06172 3.625 2.75273 2.9C2.9793 2.66211 3.37578 2.36758 3.625 2.2543C4.0668 2.05039 4.87109 2.03906 26.032 2.03906C44.4062 2.03906 48.0426 2.06172 48.3598 2.19766ZM50.1269 15.293C50.1269 18.3402 50.1043 20.8437 50.0816 20.8437C50.059 20.8437 49.6285 20.6398 49.1187 20.3793C46.6492 19.1445 43.6019 18.9633 40.9172 19.8695C37.9266 20.8891 35.4457 23.3246 34.3808 26.2586C33.8484 27.7199 33.7012 29 33.7012 32.0699V34.7547L32.8629 34.8C31.9226 34.8453 31.5715 35.0266 31.1297 35.6836L30.8691 36.0574V41.2004V46.332L17.4227 46.3094L3.96484 46.2754L3.51172 46.0262C2.92266 45.709 2.50351 45.2559 2.22031 44.6328C1.99375 44.123 1.98242 43.9871 1.98242 26.9269V9.74219H26.0547H50.1269V15.293ZM45.6183 21.4215C47.5441 21.716 49.1301 22.543 50.5234 23.9477C51.5203 24.9672 52.0527 25.7715 52.4719 26.9383C52.959 28.241 53.0609 29.1812 53.0723 32.0812V34.7773H44.4062H35.7402V32.2398C35.7402 30.8352 35.7969 29.3059 35.8648 28.8187C36.3746 25.1258 39.2519 22.1352 42.9336 21.4668C43.9531 21.2742 44.6215 21.2629 45.6183 21.4215ZM55.9043 37.7226V38.6289H54.3297C52.823 38.6289 52.7324 38.6402 52.4265 38.9008C52.0187 39.2519 51.9847 39.9769 52.3699 40.3508C52.6078 40.5887 52.7437 40.6113 54.2617 40.6453L55.9043 40.6793V41.5855V42.4805H54.3297C52.823 42.4805 52.7324 42.4918 52.4265 42.7523C52.1773 42.9676 52.1094 43.1148 52.1094 43.5C52.1094 43.8851 52.1773 44.0324 52.4265 44.2476C52.7324 44.5082 52.823 44.5195 54.3297 44.5195H55.9043V45.4144V46.3207L54.2617 46.3547C52.7437 46.3887 52.6078 46.4113 52.3699 46.6492C51.9847 47.023 52.0187 47.748 52.4265 48.0992C52.7324 48.3598 52.823 48.3711 54.3297 48.3711H55.9043V49.2773V50.1836H54.443C53.6387 50.1836 52.8457 50.2289 52.6871 50.2969C52.3133 50.4328 52.0074 51.0219 52.1094 51.4183C52.1547 51.5769 52.2906 51.8262 52.4152 51.9621C52.6418 52.2113 52.7437 52.2226 54.2277 52.2226C55.1566 52.2226 55.791 52.268 55.791 52.3359C55.791 52.7437 55.2472 53.7859 54.7375 54.3297C54.0578 55.0773 53.5027 55.4512 52.6418 55.7457C52.0527 55.9496 51.5883 55.9609 44.4062 55.9609C37.1676 55.9609 36.7598 55.9496 36.1594 55.7457C34.698 55.2359 33.418 53.8992 33.0668 52.5172L32.9988 52.2226H34.5848H36.1707L36.4766 51.8601C36.7258 51.5656 36.7711 51.4183 36.7144 51.1012C36.5898 50.3309 36.3973 50.2402 34.5508 50.2062L32.9082 50.1723V49.266V48.3711H34.5055H36.1027L36.4426 48.0312C36.7371 47.7254 36.7824 47.6234 36.7258 47.2609C36.6805 47.0117 36.5332 46.7398 36.3633 46.5812C36.0914 46.3434 35.9668 46.332 34.4828 46.332H32.9082V45.4258V44.5195H34.4828C35.9894 44.5195 36.0801 44.5082 36.3859 44.2476C36.6351 44.0324 36.7031 43.8851 36.7031 43.5C36.7031 43.1148 36.6351 42.9676 36.3859 42.7523C36.0801 42.4918 35.9894 42.4805 34.4828 42.4805H32.9082V41.5742V40.668H34.4828C35.9668 40.668 36.0914 40.6566 36.3633 40.4074C36.5332 40.2601 36.6805 39.9883 36.7258 39.7391C36.7824 39.3766 36.7371 39.2746 36.4426 38.9687L36.1027 38.6289H34.5055H32.9082V37.7226V36.8164H44.4062H55.9043V37.7226Z" fill="black"/>
<path d="M5.17737 3.93086C4.90549 4.03281 4.67893 4.65586 4.75823 5.06367C4.86018 5.60742 5.35862 5.89062 6.20823 5.89062C7.0012 5.89062 7.45432 5.67539 7.6469 5.22227C7.81682 4.80313 7.7262 4.38398 7.39768 4.07813C7.19377 3.88555 7.0012 3.85156 6.24221 3.86289C5.73245 3.86289 5.25666 3.89688 5.17737 3.93086Z" fill="black"/>
<path d="M9.85993 4.13477C9.4861 4.49727 9.4861 5.08633 9.8486 5.5168C10.1091 5.81133 10.1771 5.83398 11.0267 5.83398C11.831 5.83398 11.967 5.8 12.2275 5.56211C12.4541 5.34688 12.522 5.17695 12.522 4.80313C12.522 4.0668 12.1822 3.85156 11.0267 3.85156C10.2338 3.85156 10.0978 3.88555 9.85993 4.13477Z" fill="black"/>
<path d="M14.6911 4.11211C14.3626 4.46328 14.3513 5.23359 14.6685 5.55078C14.963 5.84531 15.3368 5.92461 16.1638 5.86797C16.7415 5.82266 16.9001 5.76602 17.1267 5.50547C17.4779 5.08633 17.4779 4.49727 17.104 4.13477C16.8548 3.87422 16.7415 3.85156 15.8806 3.85156C15.0423 3.85156 14.9064 3.88555 14.6911 4.11211Z" fill="black"/>
<path d="M19.6829 3.93083C19.6036 3.96482 19.4677 4.13474 19.3657 4.32732C19.1052 4.83708 19.2411 5.39216 19.6943 5.66404C20.0454 5.87927 20.374 5.8906 33.288 5.8906C47.9126 5.8906 47.0403 5.93591 47.2896 5.17693C47.4368 4.74646 47.3689 4.47458 47.0403 4.10075L46.8138 3.85154L33.322 3.86286C25.9021 3.86286 19.7622 3.89685 19.6829 3.93083Z" fill="black"/>
<path d="M6.74039 13.7297C6.40055 13.8996 6.14 14.1488 5.98141 14.4434C5.72086 14.8965 5.72086 14.9078 5.74352 19.4504C5.7775 23.8457 5.78883 24.0043 6.01539 24.3102C6.14 24.4801 6.38922 24.7293 6.55914 24.8539C6.865 25.0805 7.00094 25.0918 11.5322 25.0918H16.1994L16.5732 24.8313C17.2755 24.3215 17.3888 23.9137 17.3888 21.8066V19.9148L17.0603 19.5863C16.8338 19.3598 16.6185 19.2578 16.3693 19.2578C16.1201 19.2578 15.9048 19.3598 15.6783 19.5863L15.3498 19.9148V21.5121V23.1094H11.5548H7.75992V19.3145V15.5195H9.85563C11.94 15.5195 11.9627 15.5195 12.2345 15.2363C12.631 14.8512 12.631 14.1488 12.2345 13.7637C11.9627 13.4805 11.9513 13.4805 9.60641 13.4805C7.37477 13.4805 7.21617 13.4918 6.74039 13.7297Z" fill="black"/>
<path d="M15.8789 13.6051C15.7769 13.673 14.7801 14.8059 13.6812 16.1199C12.5824 17.4453 11.6422 18.5668 11.5969 18.6234C11.5402 18.6914 11.223 18.4648 10.8379 18.091C10.0789 17.3773 9.72772 17.2414 9.21795 17.4566C8.81014 17.6152 8.50428 18.2043 8.61756 18.6234C8.65155 18.7707 9.22928 19.4277 9.89764 20.0961C10.9965 21.1723 11.1664 21.2969 11.5289 21.2969C11.8234 21.2969 12.0387 21.2063 12.2765 20.9797C12.707 20.5719 17.091 15.293 17.2609 14.9871C17.4988 14.534 17.4082 14.0922 17.0344 13.775C16.6719 13.4691 16.2301 13.4012 15.8789 13.6051Z" fill="black"/>
<path d="M20.4641 14.7945C20.1469 15.2023 20.1582 15.7687 20.498 16.1652L20.7699 16.4824L24.7234 16.5164C26.8871 16.539 28.8355 16.5164 29.0508 16.4824C29.9117 16.3238 30.2742 15.3609 29.6852 14.7832L29.4133 14.5H25.052H20.6906L20.4641 14.7945Z" fill="black"/>
<path d="M20.7258 19.3938C20.1368 19.7336 20.0235 20.5492 20.4993 21.0137L20.7711 21.2969H27.4434C33.9571 21.2969 34.127 21.2969 34.4102 21.0703C34.9766 20.6172 34.852 19.6203 34.195 19.3711C33.7645 19.2012 21.009 19.2238 20.7258 19.3938Z" fill="black"/>
<path d="M6.74053 30.1668C6.42334 30.3367 6.14014 30.5973 5.97022 30.8805C5.721 31.3223 5.721 31.3336 5.74366 35.8762C5.77764 40.2942 5.78897 40.4301 6.01553 40.7473C6.14014 40.9172 6.42334 41.1778 6.62725 41.325L7.01241 41.5856L11.623 41.5516C16.1089 41.5176 16.2448 41.5063 16.562 41.2797C16.7319 41.1551 16.9925 40.8492 17.1284 40.6C17.3663 40.1922 17.389 40.011 17.389 38.2664C17.389 36.4313 17.3776 36.3633 17.1171 36.0574C16.7319 35.6157 16.0069 35.6157 15.6218 36.0574C15.3612 36.3633 15.3499 36.4539 15.3499 37.9606V39.5352H11.555H7.76006V35.7403V31.9453H9.85576C11.9401 31.9453 11.9628 31.9453 12.2347 31.6621C12.5858 31.3223 12.6198 30.6199 12.3026 30.2348C12.0874 29.9629 12.0534 29.9629 9.66319 29.9289C7.30694 29.8949 7.23897 29.9063 6.74053 30.1668Z" fill="black"/>
<path d="M15.8825 30.0309C15.7806 30.0988 14.7837 31.2316 13.6849 32.5457C12.586 33.8711 11.6458 34.9926 11.6005 35.0492C11.5438 35.1172 11.2267 34.8906 10.8415 34.5168C10.0825 33.8031 9.73134 33.6672 9.22158 33.8824C8.81377 34.041 8.49658 34.6527 8.62119 35.0379C8.65517 35.1738 9.23291 35.8309 9.88994 36.4992C10.9435 37.5641 11.1474 37.7227 11.4759 37.7227C11.6798 37.7227 11.9517 37.6773 12.0649 37.6094C12.2915 37.4848 17.0493 31.8207 17.2532 31.4129C17.7177 30.552 16.7095 29.5438 15.8825 30.0309Z" fill="black"/>
<path d="M20.5027 31.209C20.1062 31.5941 20.1175 32.2625 20.514 32.6363L20.8086 32.9082H25.1132H29.4179L29.6898 32.591C30.0523 32.1605 30.0523 31.5715 29.6785 31.209L29.4066 30.9258H25.0906H20.7746L20.5027 31.209Z" fill="black"/>
<path d="M20.5738 35.9781C20.1093 36.3633 20.0754 37.0203 20.5058 37.4395L20.7777 37.7227H24.5613C28.2203 37.7227 28.3562 37.7113 28.6507 37.4848C28.8773 37.3035 28.9453 37.1563 28.9453 36.8164C28.9453 35.6949 28.9113 35.6836 24.5386 35.6836H20.925L20.5738 35.9781Z" fill="black"/>
<path d="M43.8142 41.5856C41.5146 42.0274 40.665 44.9387 42.3642 46.5813C42.6021 46.8078 42.9419 47.0571 43.1232 47.1364L43.4404 47.261V48.541C43.4404 49.7985 43.4517 49.8324 43.7349 50.059C44.1427 50.3762 44.7091 50.3649 45.1056 50.025C45.4115 49.7645 45.4228 49.7078 45.4568 48.5071L45.5021 47.261L46.0119 46.9324C47.8583 45.7657 47.7564 42.843 45.8193 41.9028C45.1056 41.5516 44.4939 41.4496 43.8142 41.5856ZM44.913 43.7266C45.4794 44.0324 45.3435 45.0633 44.7205 45.2899C44.324 45.4258 43.7462 45.2219 43.6216 44.916C43.3044 44.0664 44.1201 43.2961 44.913 43.7266Z" fill="black"/>
</svg>
