<svg width="58" height="55" viewBox="0 0 58 55" fill="none" xmlns="http://www.w3.org/2000/svg">
<path d="M11.1233 0.127357C9.88611 0.524616 8.89863 1.37589 8.30842 2.57902L7.94521 3.31679L7.91115 10.2064L7.8771 17.096L4.67632 19.5818C2.91703 20.9438 1.28258 22.2831 1.03288 22.5555C0.794521 22.8166 0.465362 23.3274 0.295108 23.6792L0 24.3148V37.8784V51.442L0.329159 52.1231C0.749119 52.9743 1.63444 53.8483 2.50841 54.291L3.17808 54.6201H29H54.8219L55.4802 54.3023C56.3429 53.871 57.2509 52.9743 57.6708 52.1231L58 51.442V37.8784V24.3148L57.7049 23.6792C57.5346 23.3274 57.2055 22.8166 56.9671 22.5555C56.7174 22.2831 55.083 20.9438 53.3237 19.5818L50.1229 17.096L50.0888 10.2064L50.0548 3.31679L49.6916 2.57902C49.2262 1.61425 48.4317 0.819725 47.501 0.377064L46.7632 0.0252037L29.1703 0.00250244C15.1753 -0.00884628 11.4865 0.013855 11.1233 0.127357ZM46.6611 2.64712C46.8313 2.77198 47.1378 3.06709 47.3194 3.30544L47.6712 3.73675L47.6939 16.6307L47.7166 29.536L41.6215 34.2577L35.5264 38.9681L32.4618 37.118C30.0442 35.6538 29.3178 35.2679 29 35.2679C28.6822 35.2679 27.9558 35.6651 25.5382 37.118L22.4736 38.9681L16.3785 34.2577L10.2834 29.536V16.8009C10.272 9.18489 10.3174 3.95241 10.3742 3.7935C10.5331 3.37354 11.1914 2.68118 11.5773 2.51092C11.8497 2.38607 15.0732 2.36337 29.1362 2.38607C46.3319 2.40877 46.3546 2.40877 46.6611 2.64712ZM7.88845 23.9176V27.6518L5.52759 25.8244C4.23366 24.8256 3.17808 23.9516 3.17808 23.8949C3.17808 23.8154 7.72955 20.206 7.86575 20.172C7.8771 20.172 7.88845 21.8518 7.88845 23.9176ZM53.2102 22.5555C54.1296 23.2593 54.8673 23.8835 54.856 23.9289C54.8333 23.9743 53.7663 24.8256 52.4724 25.8358L50.1115 27.6518V23.9062V20.1493L50.8266 20.7054C51.2125 21.0119 52.2795 21.8405 53.2102 22.5555ZM20.2262 40.3301C20.0333 40.5117 2.50841 51.0448 2.47436 50.9994C2.25871 50.7951 2.22466 48.7066 2.21331 38.1395V26.3125L11.2368 33.3043C16.1969 37.152 20.2489 40.3187 20.2262 40.3301ZM55.7867 38.1849C55.7753 48.7066 55.7413 50.7951 55.5256 50.9994C55.5029 51.0334 51.4849 48.6385 46.6157 45.6874C41.7464 42.7364 37.7738 40.296 37.8078 40.2733C38.0121 40.069 55.6391 26.426 55.7072 26.426C55.7526 26.4146 55.7867 31.7152 55.7867 38.1849ZM40.9859 45.1086L52.7675 52.2366L40.8838 52.2706C34.346 52.282 23.654 52.282 17.1162 52.2706L5.23249 52.2366L17.0935 45.0632C23.6086 41.1133 29 37.9011 29.0795 37.9352C29.1476 37.9579 34.5162 41.1814 40.9859 45.1086Z" fill="black"/>
<path d="M27.1289 4.66763C23.6784 5.46215 21.0565 8.01596 20.2619 11.3416C19.9895 12.4766 19.9668 14.304 20.1938 15.4164C20.6138 17.4027 21.7602 19.3095 23.213 20.4559L23.7805 20.9099V21.8974C23.7805 22.987 23.8713 23.3275 24.2459 23.6794C24.4956 23.9177 24.5978 23.9177 29.0017 23.9177C33.4056 23.9177 33.5077 23.9177 33.7574 23.6794C34.132 23.3275 34.2228 22.987 34.2228 21.8974V20.9099L34.7903 20.4559C36.2432 19.3095 37.3895 17.4027 37.8095 15.4164C38.0365 14.3154 38.0138 12.4766 37.7527 11.3757C37.015 8.33377 34.8357 5.96156 31.8392 4.95138C30.8858 4.63358 30.5907 4.58817 29.2854 4.55412C28.3093 4.52007 27.5829 4.56547 27.1289 4.66763ZM31.1242 7.23279C33.0083 7.89111 34.5747 9.45745 35.2557 11.387C35.5962 12.3177 35.6756 14.077 35.4259 15.0645C35.0173 16.6762 34.0185 18.095 32.6224 19.0371C32.2706 19.2868 31.9527 19.5592 31.9073 19.6614C31.8733 19.7635 31.8392 20.2289 31.8392 20.6942V21.5342H29.0017H26.1641V20.6942C26.1641 20.2289 26.13 19.7635 26.096 19.6614C26.0506 19.5592 25.7328 19.2868 25.3809 19.0371C24.0075 18.1064 22.986 16.6762 22.5888 15.1212C22.3731 14.2813 22.3731 12.7036 22.5774 11.9205C23.213 9.54825 25.0064 7.74356 27.4126 7.06254C28.3093 6.81283 30.1934 6.90364 31.1242 7.23279Z" fill="black"/>
<path d="M26.0613 11.5005C25.2327 12.102 25.3008 14.2472 26.1634 14.7013C26.5948 14.9169 27.3098 14.7921 27.6049 14.4402C27.8319 14.1791 27.866 14.0202 27.866 13.0782C27.866 12.1361 27.8319 11.9772 27.6049 11.7161C27.2758 11.3189 26.4699 11.2054 26.0613 11.5005Z" fill="black"/>
<path d="M30.7535 11.4324C30.2655 11.6253 30.1406 11.9772 30.1406 13.1009C30.1406 14.0202 30.1747 14.1791 30.4017 14.4402C30.6968 14.7921 31.4119 14.9169 31.8432 14.7013C32.7058 14.2472 32.7739 12.0907 31.9453 11.5005C31.6616 11.3075 31.1395 11.2735 30.7535 11.4324Z" fill="black"/>
<path d="M15.0678 26.4601C14.7954 26.6985 14.75 26.8233 14.75 27.3227C14.75 27.8221 14.7954 27.947 15.0678 28.1854L15.3856 28.4578H28.9946H42.6036L42.9214 28.1854C43.1938 27.947 43.2392 27.8221 43.2392 27.3227C43.2392 26.8233 43.1938 26.6985 42.9214 26.4601L42.6036 26.1877H28.9946H15.3856L15.0678 26.4601Z" fill="black"/>
<path d="M20.7946 31.0003C20.1703 31.5792 20.3405 32.6234 21.1124 32.9526C21.6912 33.1909 36.3104 33.1909 36.8893 32.9526C37.6611 32.6234 37.8314 31.5792 37.2071 31.0003L36.912 30.7279H29.0008H21.0897L20.7946 31.0003Z" fill="black"/>
</svg>
