<svg width="46" height="58" viewBox="0 0 46 58" fill="none" xmlns="http://www.w3.org/2000/svg">
<path d="M11.6575 0.283428C11.2606 0.66896 11.2266 0.95244 11.2266 3.40171C11.2266 5.85097 11.2606 6.13445 11.6575 6.51999L11.9409 6.80347H14.7304H17.5312L17.8373 6.48597L18.1435 6.16847V3.40171V0.634943L17.8373 0.317445L17.5312 -5.24521e-05H14.7304H11.9409L11.6575 0.283428ZM15.7622 3.40171V4.53563H14.685H13.6078V3.40171V2.26779H14.685H15.7622V3.40171Z" fill="black"/>
<path d="M22.0945 1.46281L21.7656 1.79165V6.35001V10.9084L22.0945 11.2372L22.4233 11.566H27.0157H31.5967L31.8802 11.2826C32.0389 11.1238 32.1977 10.8403 32.243 10.6476C32.2771 10.4435 32.3111 8.5158 32.3111 6.35001C32.3111 4.18422 32.2771 2.25656 32.243 2.05245C32.1977 1.85969 32.0389 1.57621 31.8802 1.41746L31.5967 1.13398H27.0157H22.4233L22.0945 1.46281ZM29.9298 6.35001V9.2982H27.0384H24.1469V6.35001V3.40182H27.0384H29.9298V6.35001Z" fill="black"/>
<path d="M4.39964 8.44776C4.24089 8.60651 4.08214 8.88999 4.03679 9.08276C3.94607 9.54766 3.94607 16.3058 4.03679 16.7707C4.08214 16.9635 4.24089 17.247 4.39964 17.4057L4.68312 17.6892H8.83327H12.9948L13.3009 17.3717L13.6071 17.0542V12.9154V8.7766L13.2896 8.47044L12.9721 8.16428H8.82193H4.68312L4.39964 8.44776ZM11.2258 12.9267V15.4214H8.78791H6.34998V12.9267V10.4321H8.78791H11.2258V12.9267Z" fill="black"/>
<path d="M30.5705 12.9834C29.9355 13.3123 29.9468 13.2896 29.9355 16.748V19.957H28.5748H27.2141V17.984V16.0223L26.9193 15.7162L26.6131 15.4213H22.9052H19.1973L18.8911 15.7162L18.5963 16.0223V17.984V19.957H9.61564H0.634995L0.317498 20.2632C0.056696 20.5126 0 20.6601 0 21.1023C0 21.5785 0.056696 21.6919 0.41955 22.0661C0.657673 22.2929 4.15015 25.5926 8.19824 29.4026L15.5347 36.3195V38.7801C15.5347 40.1408 15.5687 41.3994 15.6027 41.6036C15.7275 42.1819 16.1584 42.522 16.782 42.522C17.2583 42.522 17.3717 42.4767 17.6211 42.1705L17.9159 41.819V38.6213C17.9159 35.5371 17.9046 35.401 17.6778 35.1062C17.5531 34.9361 14.4575 31.9993 10.8176 28.5635C7.17771 25.1277 4.1955 22.2929 4.1955 22.2702C4.1955 22.2475 12.6319 22.2249 22.9392 22.2362H41.6716L40.4809 23.3588L39.2903 24.4927H34.4598H29.6293L29.3232 24.7875C28.9036 25.2184 28.9036 26.0348 29.3232 26.4544L29.618 26.7605L33.2239 26.7832L36.8297 26.8172L32.4868 30.8993C30.0942 33.1445 28.0759 35.0835 27.9851 35.2082C27.8717 35.3783 27.8264 36.2515 27.8037 38.8935L27.7697 42.3519L27.1574 42.6241C25.9327 43.157 24.9236 44.5064 24.7421 45.8671C24.2886 49.3029 27.4182 51.7748 30.6725 50.5615C31.557 50.2327 32.5322 49.3029 32.9517 48.3957C33.2465 47.7494 33.2805 47.568 33.2805 46.4907C33.2805 45.4249 33.2465 45.2321 32.9744 44.6765C32.5548 43.826 31.7271 43.0096 30.8766 42.6127L30.1623 42.2726V39.3357V36.4102L36.8864 30.0943C40.5717 26.6245 44.0981 23.2907 44.7105 22.6898C45.7877 21.6352 45.8104 21.5899 45.8104 21.0909C45.8104 20.6601 45.7537 20.5126 45.4929 20.2632C45.1867 19.9684 45.1413 19.957 43.7353 19.957H42.2952L42.2839 16.9748C42.2839 13.6071 42.2272 13.3236 41.6149 13.0174C41.252 12.836 40.7417 12.8133 36.0587 12.8133C31.6704 12.8133 30.854 12.836 30.5705 12.9834ZM39.914 17.5758V19.957H36.1153H32.3167V17.5758V15.1946H36.1153H39.914V17.5758ZM24.9462 18.8231V19.957H22.9052H20.8641V18.8231V17.6892H22.9052H24.9462V18.8231ZM29.6747 44.6878C30.0602 44.8352 30.5818 45.3115 30.7973 45.7197C31.0014 46.1166 31.0014 46.9783 30.7973 47.3865C30.5478 47.8628 29.8788 48.3957 29.4252 48.4864C27.5089 48.838 26.2843 46.4681 27.7017 45.1187C28.2346 44.6084 29.017 44.4384 29.6747 44.6878Z" fill="black"/>
<path d="M25.2401 24.7875C25.002 25.0256 24.9453 25.1957 24.9453 25.6266C24.9453 26.0575 25.002 26.2276 25.2401 26.4657C25.4783 26.7038 25.6483 26.7605 26.0792 26.7605C26.5101 26.7605 26.6802 26.7038 26.9183 26.4657C27.1565 26.2276 27.2132 26.0575 27.2132 25.6266C27.2132 25.1957 27.1565 25.0256 26.9183 24.7875C26.6802 24.5494 26.5101 24.4927 26.0792 24.4927C25.6483 24.4927 25.4783 24.5494 25.2401 24.7875Z" fill="black"/>
<path d="M16.1301 45.0166C15.2796 45.5269 15.5178 46.8763 16.5043 47.1257C17.2186 47.3071 17.9103 46.7515 17.9103 45.9918C17.899 45.0053 16.9692 44.495 16.1301 45.0166Z" fill="black"/>
<path d="M15.1564 49.711C13.3535 50.4708 12.3897 52.0242 12.4917 54.0199C12.5711 55.6414 13.4896 57.0135 14.941 57.6938C15.508 57.966 15.7234 58 16.7779 58C17.8212 58 18.0479 57.966 18.5922 57.7052C19.4994 57.2743 20.2251 56.5713 20.6333 55.7435C21.7559 53.4757 20.8487 50.8676 18.5922 49.7904C18.082 49.5523 17.7758 49.4956 16.8913 49.4616C15.9615 49.4389 15.7234 49.4729 15.1564 49.711ZM17.8892 52.1263C18.4561 52.5458 18.7056 53.0334 18.7056 53.7478C18.7056 54.8364 18.0479 55.5621 16.9707 55.6528C16.211 55.7095 15.644 55.4714 15.2131 54.9044C14.9523 54.5642 14.907 54.3941 14.907 53.7478C14.907 53.1015 14.9523 52.9314 15.2131 52.5912C15.3832 52.3758 15.6894 52.115 15.8935 52.0016C16.4038 51.7408 17.4583 51.8088 17.8892 52.1263Z" fill="black"/>
</svg>
