<svg width="56" height="55" viewBox="0 0 56 55" fill="none" xmlns="http://www.w3.org/2000/svg">
<path d="M28.4871 1.14626C26.7753 1.46068 24.947 2.22926 23.3632 3.32391C22.3967 3.98769 20.778 5.62965 20.1725 6.56127C19.858 7.03872 18.8915 8.86701 18.8449 9.08827C18.8333 9.09991 18.4955 9.00675 18.088 8.86701C17.0748 8.54095 14.7807 8.50601 13.6628 8.80878C12.0325 9.23966 10.3206 10.3343 9.26092 11.6036C8.0964 13.001 7.51414 14.5266 7.38605 16.448L7.31618 17.6475L6.50101 17.8571C3.35682 18.6606 1.02778 21.0013 0.212619 24.2037C-0.0668648 25.2634 -0.0668648 27.278 0.189329 28.361C0.829814 30.9696 2.65811 33.1705 5.09195 34.2768C6.36127 34.859 7.11821 34.9871 9.5637 35.057L11.7996 35.1269V39.6452V44.1752H9.50547H7.19973L6.99011 43.6628C6.67569 42.9059 6.0585 42.2537 5.30156 41.8927C4.39324 41.4502 3.06569 41.4269 2.1923 41.8462C0.538684 42.6497 -0.253188 44.5828 0.352362 46.3412C0.620201 47.1214 1.63333 48.1345 2.41356 48.4024C3.13556 48.6469 4.26514 48.6586 4.96385 48.414C5.68585 48.1695 6.55924 47.366 6.9086 46.6323L7.17643 46.0384H10.1343H13.0922L13.3717 45.7473C13.6395 45.4911 13.6628 45.3746 13.6628 44.4081V43.36H17.331H20.9993V45.6774V47.9948L20.5917 48.1345C19.9628 48.3442 18.973 49.3107 18.6702 50.0211C18.2626 50.9643 18.3092 52.1172 18.775 53.0837C19.3806 54.3181 20.3122 54.9004 21.7911 54.9819C22.6878 55.0285 22.8043 55.0052 23.503 54.6675C24.3531 54.2483 24.749 53.829 25.1799 52.9091C25.9717 51.1972 25.1799 49.0662 23.4564 48.251L22.8625 47.9832V45.0253V42.0674L22.5714 41.7879L22.2919 41.4968H17.9715H13.6628V38.2944V35.0919H17.6105H21.5466L21.6281 35.8955C22.1172 41.2522 26.03 46.1549 31.3402 48.0647C34.3912 49.1593 38.2225 49.1593 41.2852 48.0647C46.2809 46.283 49.9608 41.916 50.8808 36.7339C50.9739 36.1866 51.0555 35.0919 51.0555 34.3117C51.0671 32.9027 51.0671 32.891 51.3815 32.693C51.9871 32.2971 53.4893 30.7367 54.0133 29.9564C56.8431 25.7292 56.6335 20.1279 53.4893 16.1685C51.3932 13.5484 48.4236 12.0229 44.9767 11.8365L43.6375 11.7667L43.4512 10.87C42.4613 6.09546 38.1759 2.008 33.2616 1.14626C32.0622 0.936649 29.64 0.936649 28.4871 1.14626ZM33.6925 3.25404C37.9896 4.33704 41.192 7.84224 41.9256 12.2558C42.1818 13.8395 42.1003 13.7929 44.4177 13.8279C45.9782 13.8511 46.4789 13.9094 47.1776 14.119C49.9026 14.9225 52.1035 16.7857 53.3146 19.3011C53.9318 20.5821 54.188 21.537 54.2695 22.8529C54.4209 25.2984 53.2564 28.2562 51.3815 30.201L50.776 30.8415L50.4383 29.8167C49.0059 25.3566 45.7103 21.863 41.4365 20.2676C38.502 19.1613 34.7988 19.0682 31.8409 20.0231C26.7403 21.6767 22.8858 25.9854 21.8144 31.2374C21.6863 31.8779 21.5815 32.5766 21.5815 32.8095V33.2287H15.0369C11.0193 33.2287 8.18956 33.1821 7.72376 33.1006C4.33501 32.5533 1.85459 29.6769 1.86623 26.2998C1.86623 24.4366 2.56494 22.7714 3.89249 21.4671C4.99879 20.3608 6.88531 19.4874 8.16628 19.4874C8.57386 19.4874 9.00473 19.3127 9.14447 19.0915C9.19105 19.0216 9.23763 18.3345 9.23763 17.566C9.23763 15.2602 9.71508 14.0025 11.1591 12.5469C13.1155 10.5556 15.9569 9.99659 18.3209 11.1145C19.5902 11.7084 20.1026 11.5454 20.4752 10.3925C21.5815 7.02707 24.3764 4.36033 27.835 3.35884C29.8263 2.77658 31.6662 2.74165 33.6925 3.25404ZM39.2822 21.5603C43.1717 22.5967 46.1761 25.0189 47.8996 28.5124C48.7614 30.2592 49.0758 31.5169 49.1456 33.6363C49.2155 35.6276 49.0641 36.7456 48.4702 38.4458C47.3057 41.753 44.7438 44.5129 41.4948 45.9336C38.1875 47.3893 34.5193 47.3893 31.1422 45.9336C29.6633 45.3048 28.557 44.5245 27.2178 43.197C25.5991 41.5667 24.6326 40.0062 23.9921 37.945C23.3283 35.8139 23.2701 32.9027 23.8523 30.7832C25.1682 25.9621 29.1159 22.3405 34.0651 21.3972C35.2995 21.1643 38.1293 21.2575 39.2822 21.5603ZM4.76588 43.7676C5.77901 44.4314 5.73243 45.9685 4.67272 46.6207C3.47327 47.3543 1.87788 46.1316 2.25052 44.7574C2.36698 44.3033 2.83278 43.7909 3.29859 43.6046C3.68288 43.4415 4.39324 43.5231 4.76588 43.7676ZM22.7111 49.9978C24.3065 50.7198 23.7592 53.142 22.0007 53.142C21.0458 53.142 20.1841 52.1288 20.3471 51.2089C20.4869 50.4985 21.3137 49.7765 21.9891 49.7765C22.1172 49.7765 22.4433 49.8697 22.7111 49.9978Z" fill="black"/>
<path d="M28.5956 5.51336C26.3713 6.09562 24.4965 7.5862 23.46 9.58917C22.8778 10.6955 22.8428 11.2078 23.2854 11.5572C23.6231 11.825 24.0306 11.8716 24.38 11.6853C24.5081 11.6154 24.7992 11.1846 25.0438 10.7188C25.3233 10.1831 25.7658 9.57752 26.3131 9.04185C27.5358 7.79581 28.5606 7.3533 30.7965 7.08546C31.4836 7.00394 31.7048 6.82926 31.7863 6.32852C31.8329 6.0141 31.798 5.83942 31.6 5.59487C31.3671 5.2921 31.2972 5.28045 30.4006 5.2921C29.8532 5.2921 29.0847 5.38526 28.5956 5.51336Z" fill="black"/>
<path d="M5.28924 26.4279C4.98646 26.8122 4.97482 27.3013 5.26595 27.6507C5.42898 27.8603 5.60366 27.9302 5.9763 27.9302C6.57021 27.9302 6.90792 27.5808 6.90792 26.9869C6.90792 26.4396 6.57021 26.1252 5.98795 26.1252C5.62695 26.1252 5.47556 26.195 5.28924 26.4279Z" fill="black"/>
<path d="M9.69938 26.3581C9.33837 26.7191 9.38496 27.4411 9.76925 27.7439C10.2001 28.0816 10.5844 28.0466 11.0036 27.639C11.2948 27.3363 11.3413 27.2198 11.2831 26.917C11.2482 26.7074 11.1201 26.4512 11.0153 26.3348C10.7474 26.0437 10.0021 26.0553 9.69938 26.3581Z" fill="black"/>
<path d="M14.141 26.3229C14.0129 26.4394 13.8615 26.6956 13.8266 26.9052C13.7683 27.2196 13.8149 27.3361 14.1061 27.6388C14.5369 28.0697 14.9678 28.093 15.3521 27.6971C15.7247 27.3361 15.748 26.6956 15.4103 26.3579C15.1192 26.0667 14.4787 26.0551 14.141 26.3229Z" fill="black"/>
<path d="M35.062 23.6795C34.2701 23.8775 33.257 24.4714 32.6514 25.0886C31.6383 26.125 31.1259 27.5108 31.1259 29.2925V29.9679H30.6252C29.9614 29.9679 29.3791 30.3056 29.0647 30.8529C28.7969 31.3071 28.7969 31.342 28.7969 36.4776C28.7969 41.4151 28.8085 41.683 29.0298 42.1371C29.1812 42.4399 29.4257 42.7077 29.7168 42.8708C30.1594 43.127 30.2059 43.127 36.308 43.127C42.3519 43.127 42.4567 43.127 42.8875 42.8824C43.1321 42.7427 43.4349 42.4399 43.5746 42.1953C43.8192 41.7645 43.8192 41.6364 43.8192 36.5474C43.8192 31.9825 43.7959 31.2955 43.6328 30.9461C43.365 30.3755 42.8526 30.0494 42.1073 29.9912L41.4901 29.9446V29.1644C41.4785 26.7655 40.4421 24.9838 38.4857 24.0522C37.7404 23.6912 37.4958 23.6446 36.5642 23.6096C35.9703 23.5863 35.2949 23.6213 35.062 23.6795ZM37.7054 25.7523C38.8932 26.3579 39.4988 27.371 39.592 28.9315L39.6618 29.9679H36.308H32.9542L33.0241 28.9897C33.1056 27.7786 33.4084 27.0333 34.0838 26.3695C34.7709 25.6941 35.5278 25.4146 36.4827 25.4612C36.9485 25.4962 37.426 25.601 37.7054 25.7523ZM41.9559 36.5474V41.2637H36.308H30.6601V36.5474V31.8311H36.308H41.9559V36.5474Z" fill="black"/>
<path d="M35.0245 33.1472C33.662 33.7993 33.0797 35.4878 33.7435 36.9085C34.023 37.5141 34.7217 38.1895 35.1875 38.306C35.4204 38.3758 35.4437 38.4457 35.4437 39.1211C35.4437 39.75 35.4786 39.8781 35.6999 40.0294C36.0492 40.274 36.6431 40.2624 36.9576 40.0062C37.1439 39.8548 37.2254 39.6335 37.272 39.0978C37.3302 38.4341 37.3651 38.3758 37.7378 38.1662C39.5777 37.1764 39.6359 34.4048 37.8426 33.2869C37.0391 32.7978 35.8862 32.7396 35.0245 33.1472ZM36.7596 34.7542C37.3651 35.0337 37.4583 35.7673 36.9692 36.2681C36.5267 36.7106 36.1075 36.7106 35.6649 36.2681C34.8614 35.4529 35.7115 34.2767 36.7596 34.7542Z" fill="black"/>
</svg>
