<svg width="58" height="58" viewBox="0 0 58 58" fill="none" xmlns="http://www.w3.org/2000/svg">
<path d="M24.5705 0.152905C22.6674 0.617353 20.6397 2.11266 19.8128 3.6646L19.5522 4.16303L12.9706 4.20834C5.60739 4.25366 5.86793 4.21967 4.13474 5.11459C2.92264 5.73763 1.47265 7.16496 0.872267 8.33175C-0.011321 10.0423 7.08003e-06 9.84971 7.08003e-06 19.2067C7.08003e-06 27.3629 7.08694e-06 27.5101 0.226568 27.7367C0.464457 27.9746 1.0082 28.0312 1.35937 27.85C1.78984 27.6121 1.81249 27.2722 1.81249 19.0821C1.81249 10.4728 1.80117 10.6087 2.44686 9.28331C2.87733 8.39972 4.1574 7.14231 5.09763 6.68919C6.45699 6.02083 6.81949 5.98685 13.1745 5.98685H18.9178L18.8499 6.2927C18.8046 6.47395 18.7706 6.60989 18.7592 6.62122C16.1538 8.05988 14.8511 10.8466 15.4515 13.7012C15.7913 15.3098 16.9694 16.9864 18.3288 17.8133C18.9858 18.2098 20.0733 18.6063 20.8776 18.7309L21.3194 18.7989L21.2741 20.8039C21.2401 22.775 21.2288 22.8203 20.9229 23.3527C20.7303 23.6813 20.3905 24.0324 20.0846 24.225L19.5749 24.5535L19.2917 23.9984C18.7026 22.8203 17.5811 22.1406 16.1991 22.1406C15.1456 22.1293 14.2847 22.5031 13.605 23.2734C13.0386 23.9191 12.8007 24.6215 12.8007 25.6297C12.8007 26.5812 13.1179 27.3629 13.7523 27.9972C14.4206 28.6769 14.987 28.9035 16.0858 28.9601C17.0034 29.0054 17.0827 28.9828 17.785 28.6203C18.5667 28.2125 19.303 27.4082 19.4389 26.7965C19.4729 26.6152 19.5862 26.4453 19.6881 26.4113C19.8014 26.3887 20.2432 26.1848 20.685 25.9695C21.6479 25.5164 22.203 24.9387 22.6901 23.8965C23.0526 23.1488 23.0526 23.1375 23.0866 20.9625L23.1319 18.7875H25.6127H28.0936V20.4867V22.1746L27.5951 22.3899C25.8733 23.1602 25.069 25.2445 25.8506 26.9551C26.2244 27.782 26.5983 28.1898 27.3233 28.5863C27.867 28.8922 28.0143 28.9261 28.9998 28.9261C29.9853 28.9261 30.1326 28.8922 30.6764 28.5863C31.4013 28.1898 31.7752 27.782 32.149 26.9551C32.5568 26.0715 32.5455 24.916 32.1263 24.0664C31.7752 23.3527 31.1068 22.707 30.4045 22.3899L29.906 22.1746V20.4867V18.7875H32.3869H34.8677L34.913 20.9625C34.947 23.1375 34.947 23.1488 35.3095 23.8965C35.7966 24.9387 36.3517 25.5164 37.3146 25.9695C37.7564 26.1848 38.1982 26.3887 38.3115 26.4113C38.4134 26.4453 38.5267 26.6152 38.5607 26.7965C38.6966 27.4082 39.4329 28.2125 40.2146 28.6203C40.9169 28.9828 40.9962 29.0054 41.9138 28.9601C43.0126 28.9035 43.579 28.6769 44.2473 27.9972C44.8817 27.3629 45.1989 26.5812 45.1989 25.6297C45.1989 24.6215 44.961 23.9191 44.3946 23.2734C43.7149 22.5031 42.854 22.1293 41.8005 22.1406C40.4185 22.1406 39.297 22.8203 38.7079 23.9984L38.4247 24.5535L37.915 24.225C37.6091 24.0324 37.2693 23.6813 37.0767 23.3527C36.7708 22.8203 36.7595 22.775 36.7255 20.8039L36.6802 18.7989L37.122 18.7309C40.9056 18.1192 43.3298 14.6528 42.5481 10.9599C42.2196 9.40792 41.1095 7.78801 39.8407 6.99504C39.5236 6.79114 39.2404 6.62122 39.229 6.62122C39.2177 6.60989 39.1837 6.47395 39.1384 6.2927L39.0591 5.98685H41.8345C44.9157 5.98685 45.0177 5.96419 45.1536 5.22787C45.2102 4.92201 45.1649 4.80873 44.8817 4.5142L44.5419 4.17436H41.4153H38.2888L37.5865 3.46069C36.8048 2.69039 35.8873 2.14664 34.8451 1.85211C34.3127 1.69352 33.8822 1.65953 32.8287 1.70485L31.5033 1.76149L30.9596 1.36501C30.2459 0.855244 29.1697 0.35681 28.2861 0.152905C27.4139 -0.0510006 25.4315 -0.0510006 24.5705 0.152905ZM28.1615 2.02203C28.9092 2.25992 29.6228 2.66773 30.3592 3.26812C30.7556 3.57397 31.1521 3.83452 31.2428 3.83452C31.3221 3.83452 31.6845 3.75522 32.0244 3.65327C32.9646 3.3814 34.2107 3.47202 35.0263 3.8685C36.2724 4.48022 37.0994 5.55638 37.3826 6.94973C37.5525 7.76535 37.6091 7.85597 38.2888 8.19582C39.5915 8.85284 40.5204 10.1329 40.8036 11.6169C41.0642 13.0216 40.4978 14.6528 39.3989 15.6837C38.8439 16.2047 37.7337 16.7825 37.0767 16.9071L36.7029 16.9637V15.5024C36.7029 14.0637 36.7029 14.0411 36.4083 13.8145C36.0345 13.52 35.5587 13.5087 35.2189 13.7919C34.9584 13.9958 34.947 14.0977 34.913 15.4911L34.8677 16.9751H32.3869H29.906V15.559C29.906 14.1997 29.8947 14.1204 29.6228 13.8598C29.4529 13.6786 29.215 13.5766 28.9998 13.5766C28.7846 13.5766 28.5467 13.6786 28.3768 13.8598C28.1049 14.1204 28.0936 14.1997 28.0936 15.559V16.9751H25.6127H23.1319L23.0866 15.4911C23.0526 14.0977 23.0412 13.9958 22.7807 13.7919C22.4409 13.5087 21.9651 13.52 21.5913 13.8145C21.2967 14.0411 21.2967 14.0637 21.2967 15.5024V16.9751L20.9342 16.9071C20.2659 16.7825 19.1557 16.2047 18.6007 15.6837C17.5018 14.6528 16.9354 13.0216 17.196 11.6169C17.4792 10.1329 18.4081 8.85284 19.7108 8.19582C20.0053 8.04855 20.2885 7.8673 20.3565 7.77668C20.4131 7.69738 20.5491 7.19895 20.651 6.67786C21.0588 4.53686 22.3163 2.99624 24.344 2.14664C25.3862 1.70485 27.0287 1.65953 28.1615 2.02203ZM16.8108 24.0438C17.2639 24.2363 17.7284 24.8141 17.8417 25.3351C17.8983 25.5957 17.853 25.8336 17.6718 26.2074C17.3659 26.8305 16.8448 27.1703 16.1878 27.1703C14.4999 27.1703 14.0015 24.8934 15.5194 24.1004C15.9952 23.8398 16.3011 23.8285 16.8108 24.0438ZM29.906 24.225C31.2088 25.1539 30.5857 27.1703 28.9771 27.1703C27.9463 27.1703 27.1533 26.1621 27.4252 25.1992C27.7424 24.0438 28.9771 23.5566 29.906 24.225ZM42.4802 24.1004C43.0466 24.3949 43.3864 24.9387 43.3864 25.5504C43.3864 27.3176 41.0189 27.8047 40.3052 26.1848C40.0446 25.5957 40.1013 25.1426 40.5204 24.5762C41.0302 23.9078 41.7892 23.7266 42.4802 24.1004Z" fill="black"/>
<path d="M47.8383 4.2764C47.3059 4.51429 47.1813 5.32991 47.6118 5.73772C47.8497 5.96428 47.9969 5.98694 49.2317 5.98694C51.7125 5.98694 53.0719 6.47404 54.4426 7.84474C54.9184 8.33184 55.3602 8.89825 55.5527 9.2834C56.2098 10.6428 56.1871 10.1217 56.1871 23.0017V34.8735H29.0111H1.82382L1.78983 32.7778C1.75585 30.7954 1.74452 30.6707 1.50663 30.4329C1.18944 30.1157 0.555074 30.1043 0.226561 30.3989C0.011328 30.6028 0 30.7161 0 34.5903C0 39.0988 0.0679683 39.5859 0.872259 41.1379C1.50663 42.3613 2.93396 43.7546 4.19138 44.3664C6.02652 45.2613 5.51676 45.2273 14.7604 45.2726L22.9959 45.3066V47.3456V49.3734H22.033C20.8209 49.3734 20.0506 49.5319 19.2237 49.9737C16.1991 51.5597 16.3237 56.0682 19.4389 57.5975L20.1073 57.926H28.9998H37.8923L38.5607 57.5975C41.6759 56.0682 41.8005 51.5597 38.7759 49.9737C37.949 49.5319 37.1786 49.3734 35.9665 49.3734H35.0037V47.3456V45.3066L43.2505 45.2726C52.4828 45.2273 51.9731 45.2613 53.8082 44.3664C55.1789 43.698 56.5383 42.3386 57.184 40.9906C58.0449 39.2121 57.9996 40.1637 57.9996 24.7235C57.9996 11.3224 57.9883 10.8693 57.773 10.0197C57.4219 8.6377 56.8441 7.65216 55.734 6.54201C54.6805 5.4885 53.559 4.80882 52.2789 4.45765C51.486 4.24242 48.2235 4.10648 47.8383 4.2764ZM56.1871 37.5016C56.1871 40.073 54.4539 42.3839 51.9391 43.1769L51.1461 43.4261H28.9998H6.85347L6.0605 43.1769C3.54568 42.3839 1.81249 40.073 1.81249 37.5016V36.6859H28.9998H56.1871V37.5016ZM33.1912 47.3343V49.3734H28.9998H24.8084V47.3343V45.2953H28.9998H33.1912V47.3343ZM37.9036 51.5823C39.92 52.8397 39.3876 55.7284 37.054 56.1702C36.2384 56.3288 21.7612 56.3288 20.9456 56.1702C18.3514 55.6717 18.1022 52.2393 20.6057 51.3444C20.9342 51.2198 22.7014 51.1972 29.181 51.2198L37.3486 51.2425L37.9036 51.5823Z" fill="black"/>
<path d="M21.2287 38.3965C21.0588 38.589 21.0022 38.8496 20.9795 39.6199C20.9342 40.5375 20.9569 40.6394 21.2174 40.9339C21.4326 41.1832 21.5912 41.2625 21.9198 41.2625C22.6108 41.2625 22.7694 40.9566 22.7694 39.6765C22.7694 38.759 22.7354 38.5777 22.5428 38.3851C22.2256 38.0679 21.5233 38.0793 21.2287 38.3965Z" fill="black"/>
<path d="M35.4609 38.3851C35.2684 38.5777 35.2344 38.759 35.2344 39.6765C35.2344 40.9566 35.393 41.2625 36.084 41.2625C36.4125 41.2625 36.5711 41.1832 36.7863 40.9339C37.0469 40.6394 37.0695 40.5375 37.0242 39.6199C37.0016 38.8496 36.9449 38.589 36.775 38.3965C36.4805 38.0793 35.7781 38.0679 35.4609 38.3851Z" fill="black"/>
<path d="M26.5871 39.6311C26.3492 39.8237 26.2812 39.971 26.2812 40.3108C26.2812 40.8885 26.6664 41.3417 27.5047 41.7495C28.0371 42.01 28.2976 42.0667 29 42.0667C29.7023 42.0667 29.9629 42.01 30.4953 41.7495C31.3336 41.3417 31.7187 40.8885 31.7187 40.3108C31.7187 39.971 31.6507 39.8237 31.4129 39.6311C31.0164 39.3139 30.6199 39.3932 30.0082 39.8803C29.3512 40.4128 28.6488 40.4128 27.9918 39.8803C27.3801 39.3932 26.9836 39.3139 26.5871 39.6311Z" fill="black"/>
</svg>
