<svg width="58" height="58" viewBox="0 0 58 58" fill="none" xmlns="http://www.w3.org/2000/svg">
<path d="M3.66434 0.303165C2.21442 0.84359 0.98858 2.00352 0.303165 3.4798L0 4.13886V20.5493V36.9597L0.303165 37.6188C1.00176 39.1214 2.2276 40.2682 3.70388 40.7954C4.53429 41.0986 4.67928 41.1118 8.75223 41.1118H12.9438L13.1811 41.9949C13.7347 44.0775 14.9342 46.7137 16.2391 48.6513C18.8489 52.5661 22.9482 55.9668 26.9816 57.5749C28.3788 58.1417 29.4861 58.1417 30.8832 57.5749C35.2198 55.8482 39.4905 52.1707 42.1135 47.9C43.1812 46.1733 44.4597 43.1416 44.8156 41.5467L44.9079 41.1118H49.0995C53.1856 41.1118 53.3306 41.0986 54.161 40.7954C55.6373 40.2682 56.8631 39.1214 57.5617 37.6188L57.8649 36.9597V20.5493V4.13886L57.4431 3.26891C56.8763 2.12215 55.7955 1.04131 54.6487 0.474522L53.7788 0.0527267L29.1302 0.0263634L4.48156 0L3.66434 0.303165ZM18.124 7.89546V12.6406H10.5976H3.07119L3.12391 8.9104C3.16346 5.58878 3.18982 5.14062 3.4139 4.73201C3.87523 3.86205 4.41566 3.46662 5.33833 3.26891C5.58877 3.21618 8.5677 3.17664 11.9684 3.16346L18.124 3.15028V7.89546ZM36.4457 7.89546V12.6406H28.9324H21.4192V7.89546V3.15028H28.9324H36.4457V7.89546ZM53.2515 3.49298C53.8579 3.82251 54.1083 4.08613 54.451 4.73201C54.6751 5.14062 54.7014 5.58878 54.741 8.9104L54.7937 12.6406H47.2673H39.7409V7.88228V3.1371L46.2392 3.17664C52.5793 3.21618 52.7375 3.21618 53.2515 3.49298ZM9.02903 20.5493V25.2945H6.1292H3.22936V20.5493V15.8041H6.1292H9.02903V20.5493ZM27.3507 18.0449V20.2857L26.8103 20.5493C26.5203 20.7075 25.9667 21.0238 25.5976 21.2611C22.7242 23.1064 18.9148 24.3323 15.1187 24.6354C13.9588 24.7277 13.3524 24.8463 12.9834 25.0308C12.7066 25.1758 12.4297 25.2945 12.3902 25.2945C12.3507 25.2945 12.3243 23.1591 12.3243 20.5493V15.8041H19.8375H27.3507V18.0449ZM45.5406 20.5493V25.2945L45.0265 25.0308C44.6443 24.8463 44.0511 24.7409 42.733 24.6354C38.7787 24.3323 35.523 23.2778 31.9641 21.1688C31.2787 20.747 30.6723 20.4175 30.6196 20.4175C30.5669 20.4175 30.5142 19.3762 30.5142 18.1108V15.8041H38.0274H45.5406V20.5493ZM54.7673 20.5493V25.2945H51.8016H48.8359V20.5493V15.8041H51.8016H54.7673V20.5493ZM30.0001 23.8577C33.6381 26.2171 37.6583 27.5616 42.4299 27.9966L43.3394 28.0889L43.2471 29.8156C42.7067 40.0705 40.255 46.6346 35.3912 50.8262C33.704 52.2893 29.5783 54.8201 28.9061 54.8201C28.7611 54.8201 28.0625 54.5169 27.3507 54.1478C23.4755 52.1707 20.4307 49.3895 18.493 46.081C16.3182 42.3508 14.9605 36.7093 14.6178 29.8815L14.5255 28.0889L15.435 28.0098C20.1407 27.5748 24.2268 26.2171 27.8648 23.8577C28.3261 23.5678 28.8138 23.3173 28.9324 23.3173C29.0511 23.3173 29.5388 23.5678 30.0001 23.8577ZM11.3753 30.8569C11.5203 33.0977 11.9552 36.8938 12.1398 37.6451L12.232 37.9747L8.68633 37.9219C5.3647 37.8824 5.10107 37.856 4.61337 37.5924C4.00705 37.2761 3.7566 37.0124 3.4139 36.3666C3.18982 35.958 3.16346 35.5098 3.12391 32.175L3.07119 28.4579H7.14414H11.2171L11.3753 30.8569ZM54.741 32.175C54.7014 35.5098 54.6751 35.958 54.451 36.3666C54.1083 37.0124 53.8579 37.2761 53.2515 37.5924C52.7638 37.856 52.5002 37.8824 49.1918 37.9219L45.6592 37.9747L45.7251 37.5265C45.7647 37.2892 45.8569 36.7356 45.936 36.3007C46.1337 35.0353 46.4369 31.9641 46.5424 30.1319L46.6346 28.4579H50.7076H54.7937L54.741 32.175Z" fill="black"/>
<path d="M27.8123 33.8754C26.6524 34.5081 26.0197 35.3385 25.8352 36.4589C25.6902 37.342 26.0724 38.4097 26.771 39.1215L27.351 39.7014V41.5336V43.379L27.7991 43.8271C28.1946 44.2225 28.3264 44.2753 28.9327 44.2753C29.539 44.2753 29.6709 44.2225 30.0663 43.8271L30.5144 43.379V41.5204V39.6619L31.0285 39.1874C32.6761 37.7111 32.2148 34.9167 30.1849 33.9809C29.5918 33.7041 28.2341 33.6513 27.8123 33.8754Z" fill="black"/>
</svg>
