<svg width="58" height="58" viewBox="0 0 58 58" fill="none" xmlns="http://www.w3.org/2000/svg">
<path d="M3.86874 0.260376C2.09144 0.871677 0.721675 2.28672 0.200937 4.06403C0.0424514 4.61872 0.0198107 6.80356 0.0198107 25.7086V46.7419L0.268859 47.3985C0.59715 48.2815 1.4009 49.1192 2.31785 49.5267C2.88387 49.7871 3.2348 49.855 4.11779 49.9003L5.22719 49.9569V52.8209V55.6963H2.91783H0.619791L0.314141 55.9906C-0.104714 56.4208 -0.104714 57.2359 0.314141 57.6661L0.619791 57.9604H29H57.3802L57.6859 57.6661C58.1047 57.2359 58.1047 56.4208 57.6859 55.9906L57.3802 55.6963H55.0822H52.7728V52.8209V49.9569L53.8822 49.9003C54.7652 49.855 55.1161 49.7871 55.6821 49.5267C56.5991 49.1192 57.4028 48.2815 57.7311 47.3985L57.9802 46.7419V25.7086C57.9802 6.80356 57.9575 4.61872 57.7991 4.06403C57.267 2.26408 55.8067 0.781113 54.0294 0.226414C53.3275 7.62939e-06 52.9087 7.62939e-06 28.9547 7.62939e-06L4.60457 0.0113258L3.86874 0.260376ZM53.5652 2.61502C54.4595 3.03387 54.8671 3.43008 55.2746 4.25647C55.6142 4.9357 55.6369 5.07154 55.6935 6.56583L55.7501 8.15068H29H2.24993L2.30653 6.57715C2.37445 4.89042 2.5669 4.22251 3.22348 3.45272C3.59705 2.99991 4.53664 2.49049 5.20455 2.37729C5.49888 2.332 16.3551 2.29805 29.3396 2.30936L52.9426 2.32069L53.5652 2.61502ZM55.6935 28.3236C55.6595 46.0174 55.6595 46.2438 55.4331 46.6287C55.0369 47.2966 54.6746 47.4777 53.6671 47.5343L52.7728 47.5683V38.6591C52.7728 32.7725 52.7388 29.6821 52.6596 29.5349C52.3766 29.0142 52.1275 28.9802 48.0182 28.9802C43.9089 28.9802 43.6599 29.0142 43.3769 29.5349C43.309 29.6707 43.2637 31.0179 43.2637 33.0895V36.4177L43.558 36.7233C43.9882 37.1422 44.8033 37.1422 45.2334 36.7233L45.5278 36.4177V33.8932V31.3575H48.0182H50.5087V43.5269V55.6963H48.0182H45.5278V49.3456V42.9948L45.1995 42.6665C44.7353 42.2024 44.0561 42.2024 43.592 42.6665L43.2637 42.9948V49.3456V55.6963H41.6788H40.094V48.2928V40.9006L39.7996 40.5949L39.494 40.3006H35.3394H31.1848L30.8792 40.5949L30.5849 40.9006V48.2928V55.6963H29H27.4151V43.5722C27.4151 35.4781 27.3812 31.3801 27.3019 31.233C27.0189 30.7122 26.7699 30.6783 22.6606 30.6783C18.5513 30.6783 18.3022 30.7122 18.0192 31.233C17.94 31.3801 17.906 35.4781 17.906 43.5722V55.6963H16.3212H14.7363V49.7644V43.8439L14.442 43.5382L14.1363 43.2439H9.98175H5.82717L5.52152 43.5382C5.22719 43.8439 5.22719 43.8439 5.22719 45.7004V47.5683L4.33288 47.5343C3.32536 47.4777 2.96311 47.2966 2.5669 46.6287C2.34049 46.2438 2.34049 46.0174 2.30653 28.3236L2.28389 10.4148H29H55.7161L55.6935 28.3236ZM25.1511 44.3759V55.6963H22.6606H20.1701V44.3759V33.0555H22.6606H25.1511V44.3759ZM37.8299 49.1305V55.6963H35.3394H32.8489V49.1305V42.5647H35.3394H37.8299V49.1305ZM12.4722 50.6021V55.6963H9.98175H7.49127V50.6021V45.508H9.98175H12.4722V50.6021Z" fill="black"/>
<path d="M6.42714 4.36967C6.18941 4.6074 6.13281 4.7772 6.13281 5.20738C6.13281 5.95452 6.51771 6.33942 7.26485 6.33942C8.012 6.33942 8.39689 5.95452 8.39689 5.20738C8.39689 4.46023 8.012 4.07534 7.26485 4.07534C6.83468 4.07534 6.66487 4.13194 6.42714 4.36967Z" fill="black"/>
<path d="M10.9506 4.36967C10.7129 4.6074 10.6562 4.7772 10.6562 5.20738C10.6562 5.95452 11.0411 6.33942 11.7883 6.33942C12.5354 6.33942 12.9203 5.95452 12.9203 5.20738C12.9203 4.7772 12.8637 4.6074 12.626 4.36967C12.3883 4.13194 12.2185 4.07534 11.7883 4.07534C11.3581 4.07534 11.1883 4.13194 10.9506 4.36967Z" fill="black"/>
<path d="M15.4818 4.36967C15.2441 4.6074 15.1875 4.7772 15.1875 5.20738C15.1875 5.63755 15.2441 5.80736 15.4818 6.04509C15.7196 6.28281 15.8894 6.33942 16.3195 6.33942C16.7497 6.33942 16.9195 6.28281 17.1572 6.04509C17.395 5.80736 17.4516 5.63755 17.4516 5.20738C17.4516 4.7772 17.395 4.6074 17.1572 4.36967C16.9195 4.13194 16.7497 4.07534 16.3195 4.07534C15.8894 4.07534 15.7196 4.13194 15.4818 4.36967Z" fill="black"/>
<path d="M24.3213 4.39231C24.0835 4.64136 24.0156 4.82248 24.0156 5.20738C24.0156 5.59227 24.0835 5.7734 24.3213 6.02245L24.6269 6.33942H37.951H51.2638L51.5694 6.04509C51.9883 5.61491 51.9883 4.79984 51.5694 4.36967L51.2638 4.07534H37.951H24.6269L24.3213 4.39231Z" fill="black"/>
<path d="M5.5187 14.558C5.09984 14.9769 5.09984 15.8033 5.50737 16.2108C5.89227 16.5957 6.2432 16.641 9.0733 16.641C11.9034 16.641 12.2543 16.5957 12.6392 16.2108C13.0468 15.8033 13.0468 14.9769 12.6279 14.558L12.3222 14.2637H9.0733H5.82435L5.5187 14.558Z" fill="black"/>
<path d="M15.1805 14.592C14.3767 15.3957 15.0446 16.6636 16.2106 16.5391C16.7993 16.4712 17.3087 15.7693 17.1729 15.1693C16.9804 14.2637 15.8371 13.9354 15.1805 14.592Z" fill="black"/>
<path d="M21.4624 15.407C20.1266 15.5768 18.8474 16.5164 18.27 17.7504C18.0097 18.3051 17.9644 18.5428 17.9644 19.4711C17.9644 20.3314 18.0097 20.6484 18.2021 21.0672L18.4512 21.588L15.1456 24.8822L11.8514 28.1764L11.1721 27.9387C9.259 27.2821 7.05152 28.267 6.16853 30.1688C5.89684 30.7575 5.85156 30.9839 5.85156 31.8669C5.85156 32.7499 5.89684 32.9763 6.16853 33.5649C6.77983 34.8668 7.83263 35.6592 9.28164 35.9083C11.1948 36.2366 13.1645 35.0706 13.7985 33.2253C14.0588 32.4442 14.0588 31.1197 13.7872 30.4066L13.5721 29.8632L16.9116 26.5237L20.2398 23.1955L20.7266 23.3766C21.4058 23.6143 22.8095 23.5917 23.4548 23.3313L23.9642 23.1275L27.8244 26.9652L31.6847 30.8141L31.4583 31.2895C31.1639 31.8895 31.0621 33.3046 31.2772 34.0517C31.5828 35.1724 32.3752 36.112 33.4959 36.678C33.9714 36.9271 34.1865 36.9611 35.228 36.9611C36.326 36.9611 36.4732 36.9384 37.0732 36.6214C37.9335 36.1913 38.7599 35.2856 39.0769 34.4479C39.3825 33.6329 39.4052 32.3989 39.1335 31.5726L38.9411 30.9952L42.756 27.1689C46.537 23.3879 46.5823 23.3426 46.9332 23.4445C47.4313 23.5917 48.6426 23.569 49.1973 23.4106C50.2728 23.0936 51.201 22.2898 51.7557 21.2031C52.0048 20.7276 52.0387 20.5125 52.0387 19.4711C52.0387 18.3843 52.0161 18.2258 51.7104 17.6258C50.4539 15.158 47.2163 14.592 45.1786 16.4938C44.8956 16.7542 44.5107 17.2636 44.3296 17.6258C44.0239 18.2258 44.0013 18.3843 44.0013 19.4711C44.0013 20.5465 44.0352 20.7163 44.3182 21.271L44.6352 21.8936L42.1108 24.4294C40.7184 25.8218 39.0429 27.4633 38.375 28.0972L37.1524 29.2292L36.6204 29.0481C35.9298 28.8104 34.4808 28.8104 33.9261 29.0481L33.4959 29.2292L29.5904 25.3237L25.6849 21.4182L25.9 20.8748C26.0471 20.4899 26.1151 20.0484 26.1037 19.4031C26.1037 18.6334 26.0471 18.3843 25.7528 17.7617C24.9604 16.0863 23.3076 15.1693 21.4624 15.407ZM23.0359 18.0447C23.1944 18.1579 23.4434 18.4749 23.5793 18.7466C24.5302 20.7163 21.4963 22.1993 20.5115 20.2522C19.6851 18.6447 21.5077 17.0485 23.0359 18.0447ZM48.903 17.9994C50.3746 18.8937 49.7407 21.1691 48.02 21.1691C47.0578 21.1691 46.3219 20.4333 46.3219 19.4711C46.3219 18.5088 47.0578 17.773 48.02 17.773C48.3257 17.773 48.6766 17.8636 48.903 17.9994ZM10.5948 30.2707C11.4552 30.633 11.8627 31.6631 11.4778 32.5121C10.7759 34.1083 8.48921 33.8366 8.21752 32.1273C8.12696 31.5726 8.21752 31.2216 8.5911 30.7801C9.12315 30.1575 9.85898 29.9651 10.5948 30.2707ZM36.111 31.4707C37.5826 32.365 36.9487 34.6404 35.228 34.6404C33.5073 34.6404 32.8733 32.365 34.345 31.4707C34.8318 31.1763 35.6242 31.1763 36.111 31.4707Z" fill="black"/>
<path d="M5.5187 19.9918C5.09984 20.4107 5.09984 21.2371 5.50737 21.6446C5.89227 22.0295 6.2432 22.0748 9.0733 22.0748C11.9034 22.0748 12.2543 22.0295 12.6392 21.6446C13.0468 21.2371 13.0468 20.4107 12.6279 19.9918L12.3222 19.6975H9.0733H5.82435L5.5187 19.9918Z" fill="black"/>
<path d="M43.9375 38.8402C43.2357 39.1119 43.0206 40.1194 43.53 40.7194C43.7677 40.9911 43.8922 41.0364 44.3903 41.0364C44.8884 41.0364 45.013 40.9911 45.2507 40.7194C45.7714 40.1081 45.545 39.0893 44.8205 38.8402C44.4017 38.6931 44.3111 38.6931 43.9375 38.8402Z" fill="black"/>
</svg>
