<svg width="51" height="58" viewBox="0 0 51 58" fill="none" xmlns="http://www.w3.org/2000/svg">
<path d="M12.5313 4.50951C3.37644 7.90861 0.373901 9.0643 0.215276 9.26825C0.0113303 9.51751 0 9.86876 0 18.2192C0 25.21 0.033991 27.1815 0.169955 28.3712C0.940417 35.0221 3.47841 41.1291 7.6593 46.3864C8.79234 47.8027 11.5456 50.6013 12.8033 51.6097C15.4659 53.7511 18.3098 55.462 21.301 56.731C22.9666 57.4335 24.6775 58 25.1533 58C25.3913 58 26.1164 57.8187 26.7622 57.5921C35.8832 54.4309 43.2932 47.6327 47.3041 38.7838C48.7318 35.6113 49.7175 31.9969 50.1367 28.3712C50.2727 27.1815 50.3067 25.21 50.3067 18.2079V9.51751L50.0574 9.23426C49.7175 8.87169 42.2848 6.10709 41.6276 6.10709C41.0498 6.10709 40.7099 6.34502 40.5513 6.88888C40.438 7.26278 40.4493 7.39874 40.6306 7.77264C40.8572 8.23719 40.6759 8.15788 47.1908 10.5712L48.0633 10.8885L48.0066 18.8424C47.9613 25.1534 47.9046 27.0795 47.7687 28.1899C46.9642 34.4329 44.8115 39.6902 41.0158 44.6302C40.0187 45.9219 37.0275 48.9357 35.6905 49.9895C34.5009 50.9412 32.5634 52.2329 31.2151 52.9807C29.3002 54.0457 25.7765 55.5413 25.1533 55.5413C24.8248 55.5413 23.0572 54.8842 21.505 54.193C19.2729 53.1959 16.5989 51.5644 14.6161 49.9895C13.2791 48.9357 10.2879 45.9219 9.29087 44.6302C5.50654 39.6902 3.34245 34.4329 2.53799 28.1899C2.40203 27.0795 2.34538 25.1534 2.30006 18.8424L2.24341 10.8998L2.73061 10.7072C3.00254 10.6052 8.16917 8.6904 14.1969 6.45832L25.1647 2.40207L28.4731 3.62574C30.2973 4.30556 31.9515 4.86075 32.1555 4.86075C33.1752 4.86075 33.6964 3.5351 32.9373 2.85528C32.552 2.49271 25.6519 -0.0112915 25.0967 3.8147e-05C24.8021 3.8147e-05 20.5079 1.54096 12.5313 4.50951Z" fill="black"/>
<path d="M36.1199 4.62282C35.3948 5.26865 35.7234 6.447 36.6865 6.62829C37.1737 6.71893 37.7515 6.447 37.9441 6.03911C38.4993 4.81543 37.1057 3.73905 36.1199 4.62282Z" fill="black"/>
<path d="M15.3586 9.3249C9.45547 11.625 5.86376 13.0866 5.6938 13.2452L5.42188 13.5058L5.4672 20.7119C5.52385 28.6544 5.51252 28.5865 6.29431 31.7136C8.31111 39.8601 13.7043 46.715 21.1824 50.6693C22.542 51.3944 24.7967 52.3348 25.148 52.3348C25.2839 52.3348 25.9638 52.0969 26.6549 51.8136C30.1447 50.3974 33.5438 48.12 36.2517 45.4233C38.5744 43.1006 40.3646 40.5966 41.8036 37.6621C42.88 35.4753 43.4578 33.9004 44.0017 31.7136C44.7834 28.5865 44.7721 28.6544 44.8288 20.7119L44.8741 13.5058L44.6022 13.2452C44.2283 12.8826 25.6918 5.66521 25.148 5.66521C24.8987 5.66521 21.3297 7.00219 15.3586 9.3249ZM34.0423 11.557L42.5967 14.8881V19.2503C42.5854 26.1165 42.4041 28.4278 41.5883 31.555C39.8548 38.1833 35.4133 44.1203 29.5328 47.6781C28.1505 48.5052 25.5106 49.7629 25.148 49.7629C24.978 49.7629 24.0036 49.355 22.9839 48.8564C20.106 47.4288 17.8966 45.8652 15.7438 43.7238C11.8802 39.8828 9.34217 35.1014 8.25446 29.6175C7.86923 27.7027 7.80124 26.4224 7.73326 20.7232L7.67661 14.8881L16.3217 11.523C21.3183 9.57417 25.0913 8.16921 25.2386 8.19187C25.3746 8.21453 29.3402 9.7328 34.0423 11.557Z" fill="black"/>
<path d="M24.176 12.6674C22.0799 12.996 20.369 14.2196 19.2926 16.1458C18.7375 17.1429 18.5788 17.9813 18.5788 19.8508V21.4824L17.967 21.5504C16.8226 21.6637 15.8482 22.3662 15.293 23.4652L14.9531 24.1563V30.5693V36.9823L15.2704 37.6621C15.6216 38.3872 16.1428 38.9198 16.9133 39.3277L17.3891 39.5883H25.1504H32.9117L33.3989 39.3277C34.1127 38.9538 34.6906 38.3759 35.0078 37.7527L35.2911 37.2089L35.3251 30.7053L35.3477 24.213L35.0871 23.6238C34.5433 22.4455 33.5235 21.675 32.3452 21.5504L31.722 21.4824V19.8508C31.722 17.5281 31.3934 16.4291 30.2604 15.0241C28.8554 13.2906 26.3741 12.3275 24.176 12.6674ZM26.714 15.3074C27.4845 15.5906 28.5269 16.5537 28.9234 17.3468C29.2747 18.038 29.4559 19.1143 29.4559 20.5193V21.5164H25.1504H20.8449V20.5193C20.8449 19.2503 21.0149 18.1059 21.2981 17.4828C21.4114 17.2109 21.774 16.701 22.1026 16.3611C23.3376 15.0468 25.0031 14.6729 26.714 15.3074ZM32.5491 24.1224C32.7191 24.2583 32.9004 24.5529 32.9684 24.7795C33.127 25.346 33.127 35.8153 32.9684 36.3818C32.9004 36.6084 32.7191 36.903 32.5491 37.0389C32.2659 37.2655 32.1412 37.2655 25.1504 37.2655C18.1596 37.2655 18.035 37.2655 17.7517 37.0389C17.5818 36.903 17.4005 36.6084 17.3325 36.3818C17.1739 35.8153 17.1739 25.346 17.3325 24.7795C17.4005 24.5529 17.5818 24.2583 17.7517 24.1224C18.035 23.8957 18.1596 23.8957 25.1504 23.8957C32.1412 23.8957 32.2659 23.8957 32.5491 24.1224Z" fill="black"/>
<path d="M23.5855 26.3997C22.3618 27.0002 21.75 28.0313 21.75 29.4476C21.7613 30.7959 22.3052 31.793 23.4042 32.4048L24.0161 32.756V33.4132C24.0161 33.957 24.0614 34.1043 24.2993 34.3536C24.4579 34.5009 24.7185 34.6595 24.8658 34.6822C25.3077 34.7728 25.6816 34.6595 25.9989 34.3536C26.2368 34.1043 26.2821 33.957 26.2821 33.4132V32.756L26.894 32.4048C27.993 31.793 28.5369 30.7959 28.5482 29.4362C28.5482 28.6998 28.5029 28.4732 28.197 27.884C27.5965 26.6603 26.5767 26.0485 25.1378 26.0485C24.4013 26.0485 24.1747 26.0938 23.5855 26.3997ZM25.8856 28.7111C26.5314 29.3456 26.0555 30.4673 25.1491 30.4673C24.2427 30.4673 23.7668 29.3456 24.4126 28.7111C24.7979 28.3145 25.5003 28.3145 25.8856 28.7111Z" fill="black"/>
</svg>
