<svg width="47" height="53" viewBox="0 0 47 53" fill="none" xmlns="http://www.w3.org/2000/svg">
<path d="M23.2393 0.124222C23.1255 0.186333 22.7114 0.548637 22.3077 0.921291C21.376 1.80117 20.3719 2.46368 18.9745 3.12617C15.31 4.85489 9.69948 5.95215 3.35397 6.19024C1.1905 6.27305 1.01452 6.32481 0.621159 6.9666C0.42448 7.2875 0.414128 7.59805 0.414128 20.7652C0.414128 35.6715 0.393425 35.1229 1.08698 37.2242C2.74323 42.224 7.08053 46.5096 13.778 49.791C16.987 51.3541 21.904 53 23.3946 53C25.0612 53 29.6676 51.4576 33.2803 49.6875C40.7438 46.023 45.1225 41.251 46.3337 35.4541C46.52 34.5742 46.5303 33.8393 46.5303 20.8895C46.5303 7.2875 46.5303 7.25645 46.313 6.97696C45.8678 6.37656 45.609 6.2627 44.5842 6.23164C38.3319 6.05567 33.0319 5.12403 29.3881 3.56094C27.8561 2.90879 26.9348 2.29805 25.8583 1.22149C25.2993 0.672855 24.761 0.165627 24.6471 0.103519C24.378 -0.0310516 23.4981 -0.0206985 23.2393 0.124222ZM25.6823 5.20684C28.5704 7.03907 32.8663 8.38477 37.7833 8.99551C39.3671 9.19219 42.193 9.41993 43.0212 9.41993H43.3731V21.3553C43.3731 28.9223 43.3317 33.6012 43.2696 34.1395C42.6796 38.8494 39.0669 43.0211 32.7628 46.2818C30.3405 47.5344 27.3799 48.7041 24.6471 49.4805L23.4774 49.8117L22.7839 49.6357C21.6555 49.3252 18.6639 48.3004 17.4424 47.7932C13.1983 46.0438 9.95827 44.0045 7.56706 41.6029C5.57956 39.5947 4.35807 37.483 3.79909 35.04C3.59206 34.1291 3.58171 33.7875 3.55065 21.7797L3.50925 9.44063L4.83425 9.37852C9.87546 9.10938 14.1403 8.35371 17.6805 7.09082C19.3575 6.49043 21.8419 5.25859 22.9805 4.47188L23.8604 3.86113L24.4815 4.34766C24.8231 4.6168 25.3614 5.01016 25.6823 5.20684Z" fill="black"/>
<path d="M22.5723 12.4943C19.7877 12.8152 17.3447 14.6474 16.2682 17.225C15.7609 18.4465 15.6367 19.4609 15.6367 22.3697V24.9473H14.674C13.5146 24.9473 13.1109 25.1232 12.7693 25.7754L12.5312 26.2205V32.7627V39.3049L12.7693 39.75C13.2352 40.6402 12.4277 40.5781 23.5143 40.5781H33.3068L33.6588 40.34C34.4041 39.8431 34.373 40.1433 34.373 32.7627C34.373 25.382 34.4041 25.6822 33.6588 25.1853L33.3068 24.9473H26.0814H18.8457V22.4318C18.8457 19.0158 19.0527 18.2291 20.2639 17.018C22.3652 14.9062 25.9365 15.4031 27.4686 18.0117C27.7791 18.55 28.0586 19.5334 28.0586 20.1234C28.0586 21.1379 28.8557 21.9142 29.8184 21.8211C31.0916 21.6969 31.5057 20.7135 31.1227 18.6949C30.367 14.7717 26.599 12.0389 22.5723 12.4943ZM31.1641 32.7627V37.3691H23.4521H15.7402V32.7627V28.1562H23.4521H31.1641V32.7627Z" fill="black"/>
<path d="M22.667 31.3859C22.0977 31.7793 21.8906 32.1416 21.8906 32.7627C21.8906 33.3838 22.0873 33.7461 22.6773 34.1395C23.4123 34.6467 24.6648 34.2223 24.9443 33.3734C25.11 32.8766 25.0271 32.183 24.758 31.8C24.2922 31.1582 23.2984 30.9615 22.667 31.3859Z" fill="black"/>
</svg>
