<svg width="53" height="51" viewBox="0 0 53 51" fill="none" xmlns="http://www.w3.org/2000/svg">
<path d="M25.834 0.801171C25.7201 0.883984 25.1405 1.91914 24.5504 3.11992L23.4739 5.2834L21.2276 5.6043C19.9957 5.78027 18.8674 5.97695 18.7121 6.04941C18.3498 6.21504 18.0807 6.78437 18.1635 7.22949C18.2153 7.49863 18.5879 7.92305 19.9543 9.24805L21.6727 10.9146L21.269 13.2748C20.917 15.3762 20.886 15.6557 21.0102 15.9559C21.1655 16.3285 21.5795 16.5977 22.0143 16.5977C22.2524 16.5977 23.6498 15.9145 25.8961 14.7033L26.4758 14.3928L28.4737 15.4486C29.5709 16.0387 30.6164 16.5355 30.8028 16.5666C31.1858 16.6287 31.724 16.3906 31.8897 16.0904C32.0553 15.7695 32.0139 15.2727 31.6309 13.0471L31.2686 10.9664L33.0283 9.19629C34.55 7.66426 34.7881 7.38477 34.7881 7.10527C34.7881 6.6498 34.6328 6.2875 34.3533 6.10117C34.2188 6.00801 33.1422 5.81133 31.7758 5.61465L29.4364 5.2834L28.4219 3.17168C27.8112 1.91914 27.2936 0.977148 27.1487 0.852929C26.8485 0.614843 26.1342 0.583788 25.834 0.801171ZM28.0389 7.10527C28.1942 7.25019 28.6703 7.36406 29.7573 7.51934C30.5854 7.64355 31.2686 7.76777 31.2686 7.80918C31.2686 7.84023 30.7821 8.33711 30.192 8.9168C29.4881 9.6 29.0948 10.0658 29.0533 10.2625C28.9912 10.5006 29.2293 12.2086 29.4674 13.2645C29.5088 13.4818 29.3846 13.4404 28.0907 12.7676C26.9416 12.1775 26.6 12.043 26.3516 12.0947C26.1756 12.1258 25.4717 12.4363 24.7989 12.7986C24.1157 13.1609 23.536 13.4197 23.5256 13.368C23.5049 13.3162 23.5877 12.6744 23.7119 11.9291C23.8465 11.1631 23.9086 10.4281 23.8776 10.2314C23.8258 9.95195 23.567 9.65176 22.7078 8.84434C22.0971 8.275 21.6209 7.78848 21.652 7.76777C21.6727 7.74707 22.3041 7.64355 23.0391 7.54004C25.0369 7.2709 24.9438 7.34336 25.7615 5.6457L26.4551 4.20684L27.1383 5.56289C27.5213 6.3082 27.925 7.00176 28.0389 7.10527Z" fill="black"/>
<path d="M8.17324 10.1693C8.03867 10.2729 7.60391 11.0182 7.21055 11.8049L6.49629 13.2541L4.8918 13.4818C4.00156 13.6061 3.19414 13.7613 3.09063 13.8131C2.83184 13.9477 2.59375 14.4549 2.59375 14.8482C2.59375 15.1381 2.76973 15.3555 3.83594 16.432L5.06777 17.6846L4.80898 19.2684C4.66406 20.1379 4.5709 20.966 4.60195 21.1109C4.64336 21.2559 4.78828 21.4939 4.92285 21.6285C5.34727 22.0529 5.76133 21.9701 7.40723 21.1316L8.8668 20.3967L10.2643 21.1316C11.8584 21.9805 12.2104 22.0426 12.7279 21.6078C13.1316 21.2766 13.142 20.9246 12.8211 19.0096L12.583 17.6432L13.7424 16.5459C15.1709 15.2002 15.3779 14.693 14.7775 14.0305C14.5188 13.751 14.1979 13.6578 12.5002 13.4301L11.1648 13.2541L10.3988 11.7221C9.98477 10.8732 9.55 10.1383 9.43613 10.0762C9.10488 9.91055 8.44238 9.95195 8.17324 10.1693ZM9.79844 15.107C9.93301 15.2002 10.3988 15.3244 10.8232 15.3865L11.5893 15.5004L10.9785 16.1422C10.2953 16.8564 10.2436 17.0221 10.4609 18.1504C10.523 18.4506 10.5438 18.7197 10.523 18.7404C10.5023 18.7611 10.1711 18.6162 9.78809 18.4195C9.40508 18.2125 8.98066 18.0469 8.84609 18.0469C8.70117 18.0469 8.26641 18.2125 7.8627 18.4195L7.12773 18.7818L7.21055 18.2332C7.40723 17.0221 7.36582 16.8771 6.64121 16.1422L5.98906 15.49L6.70332 15.4072C7.77988 15.2934 8.00762 15.1484 8.46309 14.2686L8.85645 13.5025L9.19805 14.2271C9.38438 14.6205 9.65352 15.0139 9.79844 15.107Z" fill="black"/>
<path d="M43.3686 10.1693C43.234 10.2729 42.7992 11.0182 42.4059 11.8049L41.6916 13.2541L40.0871 13.4818C39.1969 13.6061 38.3895 13.7613 38.2859 13.8131C38.0271 13.9477 37.7891 14.4549 37.7891 14.8482C37.7891 15.1381 37.965 15.3555 39.0312 16.432L40.2631 17.6846L40.0043 19.2684C39.8594 20.1379 39.7662 20.966 39.7973 21.1109C39.8387 21.2559 39.9836 21.4939 40.1182 21.6285C40.5426 22.0529 40.9566 21.9701 42.6025 21.1316L44.0621 20.3967L45.4596 21.1316C47.0537 21.9805 47.4057 22.0426 47.9232 21.6078C48.327 21.2766 48.3373 20.9246 48.0164 19.0096L47.7783 17.6432L48.9377 16.5459C50.3662 15.2002 50.5732 14.693 49.9729 14.0305C49.7141 13.751 49.3932 13.6578 47.6955 13.4301L46.3602 13.2541L45.5941 11.7221C45.1801 10.8732 44.7453 10.1383 44.6314 10.0762C44.3002 9.91055 43.6377 9.95195 43.3686 10.1693ZM44.9938 15.107C45.1283 15.2002 45.5941 15.3244 46.0186 15.3865L46.7846 15.5004L46.1738 16.1422C45.4906 16.8564 45.4389 17.0221 45.6563 18.1504C45.7184 18.4506 45.7391 18.7197 45.7184 18.7404C45.6977 18.7611 45.3664 18.6162 44.9834 18.4195C44.6004 18.2125 44.176 18.0469 44.0414 18.0469C43.8965 18.0469 43.4617 18.2125 43.058 18.4195L42.323 18.7818L42.4059 18.2332C42.6025 17.0221 42.5611 16.8771 41.8365 16.1422L41.1844 15.49L41.8986 15.4072C42.9752 15.2934 43.2029 15.1484 43.6584 14.2686L44.0518 13.5025L44.3934 14.2271C44.5797 14.6205 44.8488 15.0139 44.9938 15.107Z" fill="black"/>
<path d="M24.6936 19.434C23.0684 19.8066 21.8779 20.4795 20.6461 21.7113C19.5902 22.7672 19.0209 23.6678 18.5654 25.0342C18.3066 25.8002 18.2859 25.9865 18.2859 27.5703C18.2859 29.1541 18.3066 29.3404 18.5654 30.1064C18.7207 30.5619 19.0416 31.2865 19.2693 31.7109C19.8594 32.7668 21.3086 34.216 22.3645 34.8061C23.1822 35.2512 24.5693 35.748 25.0248 35.748C25.4906 35.748 25.2215 35.8516 24.352 36.0068C21.6191 36.483 19.0934 37.8701 17.2611 39.9094L16.5779 40.665L16.2363 40.3441C15.7395 39.868 14.7354 39.2158 13.9693 38.8639C13.2654 38.5326 11.6195 38.0254 11.2469 38.0254C11.133 38.0254 10.9674 37.984 10.8846 37.9322C10.7811 37.8701 10.8742 37.8184 11.1641 37.7666C11.4021 37.7252 11.9715 37.5182 12.4373 37.2904C14.0004 36.5348 15.2322 35.0027 15.6773 33.2947C15.8947 32.4873 15.8947 30.9346 15.6773 30.1271C15.1184 27.974 13.3689 26.2246 11.2158 25.6656C10.4084 25.4482 8.85566 25.4482 8.04824 25.6656C5.89512 26.2246 4.1457 27.974 3.58672 30.1271C3.36934 30.9346 3.36934 32.4873 3.58672 33.2947C4.13535 35.4064 5.8123 37.1145 7.92402 37.7252C8.50371 37.8908 8.52441 37.9012 8.23457 37.9633C6.18496 38.4084 4.83926 38.9984 3.60742 39.9715C2.31348 40.9963 1.44395 42.1039 0.781445 43.5428C0.170703 44.8678 0.0878906 45.3232 0.0361328 47.6523L-0.015625 49.7744L0.263867 50.0643L0.553711 50.3438H26.5051H52.4564L52.7463 50.0643L53.0258 49.7744L52.974 47.6523C52.9223 45.3232 52.8395 44.8678 52.2287 43.5428C51.5662 42.1039 50.6967 40.9963 49.4027 39.9715C48.1709 38.9984 46.8252 38.4084 44.7756 37.9633C44.4857 37.9012 44.5064 37.8908 45.0861 37.7252C47.1979 37.1145 48.8748 35.4064 49.4234 33.2947C49.6408 32.4873 49.6408 30.9346 49.4234 30.1271C48.8645 27.974 47.115 26.2246 44.9619 25.6656C44.1545 25.4482 42.6018 25.4482 41.7943 25.6656C39.6412 26.2246 37.8918 27.974 37.3328 30.1271C37.2397 30.4791 37.1672 31.183 37.1672 31.7109C37.1672 33.4914 37.7469 34.8992 38.9787 36.1311C39.7758 36.9281 40.9869 37.6217 41.8461 37.7666C42.1359 37.8184 42.2291 37.8701 42.1256 37.9322C42.0428 37.984 41.8772 38.0254 41.7633 38.0254C41.3906 38.0254 39.7447 38.5326 39.0408 38.8639C38.2748 39.2158 37.2707 39.868 36.7738 40.3441L36.4322 40.665L35.749 39.9094C33.8961 37.8598 31.4738 36.5244 28.6271 35.9965L27.6955 35.8205L28.3166 35.6859C29.8693 35.365 31.1219 34.6715 32.3641 33.4293C33.4199 32.3734 33.9893 31.4729 34.4447 30.1064C34.7035 29.3404 34.7242 29.1541 34.7242 27.5703C34.7242 25.9865 34.7035 25.8002 34.4447 25.0342C33.9893 23.6781 33.4199 22.7672 32.3641 21.7113C31.3082 20.6555 30.3869 20.0758 29.0412 19.641C28.3477 19.4029 27.9854 19.3615 26.7639 19.3305C25.7805 19.3098 25.118 19.3408 24.6936 19.434ZM28.0061 21.6182C29.093 21.8977 29.9004 22.3738 30.801 23.2744C32.0846 24.5477 32.6125 25.8105 32.6125 27.5703C32.6125 29.3301 32.0846 30.593 30.801 31.8662C29.5277 33.1498 28.2648 33.6777 26.5051 33.6777C24.7453 33.6777 23.4824 33.1498 22.2092 31.8662C20.9256 30.593 20.3977 29.3301 20.3977 27.5703C20.3977 25.8105 20.9256 24.5477 22.2092 23.2744C23.0891 22.3842 23.9068 21.8977 24.9523 21.6285C25.708 21.4318 27.24 21.4215 28.0061 21.6182ZM11.3504 28.0361C12.1371 28.4191 12.9238 29.2162 13.3172 30.0029C13.5863 30.5723 13.6174 30.7172 13.6174 31.7109C13.6174 32.7047 13.5863 32.8496 13.3172 33.4189C12.9238 34.216 12.1371 35.0027 11.34 35.3961C10.7707 35.6652 10.6258 35.6963 9.63203 35.6963C8.63828 35.6963 8.49336 35.6652 7.92402 35.3961C7.12695 35.0027 6.34023 34.216 5.94688 33.4189C5.67773 32.8496 5.64668 32.7047 5.64668 31.7109C5.64668 30.7379 5.67773 30.5619 5.92617 30.0547C6.29883 29.299 6.81641 28.709 7.4582 28.2949C8.23457 27.798 8.72109 27.6738 9.79766 27.7049C10.5844 27.7256 10.8328 27.7773 11.3504 28.0361ZM45.0965 28.0361C45.8832 28.4191 46.6699 29.2162 47.0633 30.0029C47.3324 30.5723 47.3635 30.7172 47.3635 31.7109C47.3635 32.7047 47.3324 32.8496 47.0633 33.4189C46.6699 34.216 45.8832 35.0027 45.0861 35.3961C44.5168 35.6652 44.3719 35.6963 43.3781 35.6963C42.3844 35.6963 42.2395 35.6652 41.6701 35.3961C40.873 35.0027 40.0863 34.216 39.693 33.4189C39.4238 32.8496 39.3928 32.7047 39.3928 31.7109C39.3928 30.7379 39.4238 30.5619 39.6723 30.0547C40.0449 29.299 40.5625 28.709 41.2043 28.2949C41.9807 27.798 42.4672 27.6738 43.5438 27.7049C44.3305 27.7256 44.5789 27.7773 45.0965 28.0361ZM29.1861 38.3359C30.7182 38.7707 32.333 39.6713 33.482 40.7271C35.3764 42.4559 36.7531 45.3957 36.7531 47.7248V48.2734H26.5051H16.257V47.7248C16.257 45.8615 17.1266 43.5945 18.5033 41.8555C19.8697 40.1164 21.8262 38.8742 24.0725 38.2945C25.0455 38.0461 25.118 38.0357 26.8156 38.0771C28.0785 38.0979 28.5857 38.16 29.1861 38.3359ZM12.1371 40.4787C13.224 40.8514 14.0004 41.3068 14.7871 42.0211L15.3771 42.5594L15.2322 42.901C14.4869 44.7436 14.0832 46.3895 14.0832 47.6006V48.2734H8.06895H2.05469L2.12715 47.259C2.24102 45.5717 2.62402 44.4434 3.4625 43.2633C4.51836 41.7934 5.96758 40.7893 7.78945 40.2924C8.41055 40.1268 8.79356 40.1061 9.89082 40.1371C11.0502 40.1682 11.3607 40.2199 12.1371 40.4787ZM45.6865 40.4373C48.1295 41.2344 50.0549 43.2529 50.6656 45.6545C50.7484 45.9857 50.852 46.7104 50.883 47.259L50.9555 48.2734H44.9412H38.927V47.6006C38.927 46.3895 38.5232 44.7436 37.7779 42.901L37.633 42.5594L38.223 42.0211C38.9684 41.3379 39.7551 40.8721 40.6867 40.5512C41.815 40.1578 42.1773 40.1061 43.5852 40.1371C44.6307 40.1578 45.0344 40.2199 45.6865 40.4373Z" fill="black"/>
<path d="M25.7379 40.2613C25.5205 40.4787 25.4688 40.634 25.4688 41.0273C25.4688 41.7105 25.8207 42.0625 26.5039 42.0625C27.1871 42.0625 27.5391 41.7105 27.5391 41.0273C27.5391 40.634 27.4873 40.4787 27.2699 40.2613C27.0525 40.0439 26.8973 39.9922 26.5039 39.9922C26.1105 39.9922 25.9553 40.0439 25.7379 40.2613Z" fill="black"/>
<path d="M29.7582 41.4828C29.4891 41.752 29.4062 41.9176 29.4062 42.2178C29.4062 42.5697 29.4994 42.6939 30.4725 43.6566C31.1246 44.2881 31.6732 44.9299 31.8699 45.2922C32.2633 45.9961 32.5324 46.2031 33.0604 46.2031C33.5986 46.2031 33.9402 45.9547 34.0645 45.4682C34.1576 45.1266 34.1473 44.9816 33.9609 44.5883C33.64 43.843 32.9051 42.8803 32.108 42.1453C30.9176 41.0377 30.3586 40.8824 29.7582 41.4828Z" fill="black"/>
</svg>
