<svg width="51" height="53" viewBox="0 0 51 53" fill="none" xmlns="http://www.w3.org/2000/svg">
<path d="M38.8527 0.238102C38.4283 0.372669 37.4449 0.766029 36.6686 1.11798C34.8674 1.93576 34.1324 2.13243 33.501 1.97716C32.9006 1.82189 32.3934 1.9254 32.0414 2.27736C31.4617 2.84669 30.8199 5.63126 30.7061 7.97072L30.6439 9.39923L29.8365 9.09904C25.5199 7.5256 20.2924 7.4842 15.7791 8.99552C8.8332 11.3143 3.49179 17.049 1.69062 24.1088C0.707224 27.9596 0.841794 32.3797 2.05293 36.1166L2.41523 37.2139L1.53535 38.0938C1.05918 38.5803 0.614059 39.1082 0.562302 39.2635C0.407028 39.6776 0.41738 40.2262 0.593356 40.5574C0.779684 40.899 12.6219 52.7205 12.9428 52.8861C13.2844 53.0621 14.1332 53.0207 14.423 52.8344C14.568 52.7412 15.1994 52.1512 15.8412 51.5197L16.9902 50.3811L17.6527 50.5467C20.5615 51.2817 24.433 51.3024 27.3936 50.6088L28.3148 50.3914L29.526 51.5818C30.1885 52.234 30.8303 52.824 30.9545 52.8861C31.2754 53.0518 32.0828 53.0311 32.4141 52.8551C32.5693 52.7723 33.7494 51.644 35.0434 50.3397C37.6312 47.7414 37.7348 47.5861 37.2689 47.0479C37.0723 46.8098 36.9377 46.7477 36.6271 46.758C36.2545 46.7684 36.0889 46.9133 33.9461 49.0561L31.6584 51.3438L29.6916 49.377L27.7248 47.4102L33.4699 41.6651L39.215 35.9199L41.1818 37.8867L43.1486 39.8535L40.7781 42.224C38.5629 44.4393 38.418 44.6049 38.4076 44.9776C38.3973 45.2881 38.4594 45.4227 38.6975 45.6193C39.2461 46.0955 39.3807 46.0024 42.1859 43.1867C44.3805 40.9922 44.7428 40.5781 44.8049 40.2365C44.9498 39.4602 44.8049 39.1496 43.8111 38.1455L42.8898 37.2035L43.0969 36.5824C43.366 35.8061 43.8629 33.8289 44.0492 32.8145C44.1424 32.2969 44.1838 31.1582 44.1734 29.3985C44.1734 26.9555 44.1527 26.6656 43.8939 25.4131C43.7387 24.6678 43.4799 23.6223 43.3039 23.084L42.9934 22.1006L43.2729 21.8936C43.4178 21.7797 43.9043 21.4174 44.3494 21.0965C46.2541 19.668 47.8896 17.7115 48.9455 15.5791C50.1463 13.1465 50.6121 10.9209 50.5189 8.07423C50.4568 6.34552 50.3016 5.28966 49.8668 3.77834C49.5252 2.57755 49.3078 2.2049 48.8109 1.99787C48.49 1.8633 48.3244 1.85294 47.8068 1.95646C47.0201 2.11173 46.4611 1.97716 44.8359 1.23185C42.5896 0.207047 42.1445 0.0724754 40.8195 0.0310707C39.7947 1.52588e-05 39.5152 0.0310707 38.8527 0.238102ZM41.8547 1.82189C42.1652 1.91505 43.0658 2.27736 43.8732 2.63966C45.6951 3.45744 46.368 3.65412 47.341 3.66447L48.1174 3.67482L48.3451 4.5547C50.1049 11.2108 47.6102 17.2768 41.6373 20.9102C41.1715 21.1897 40.7057 21.4277 40.6125 21.4277C40.3951 21.4277 38.832 20.4547 37.859 19.7197C36.8549 18.9434 35.385 17.401 34.7121 16.4072C33.0869 13.9953 32.3934 11.6559 32.3934 8.59181C32.3934 6.83205 32.5383 5.77619 32.9523 4.34767L33.1594 3.66447H33.9047C34.8363 3.66447 35.5402 3.45744 37.1965 2.72248C39.1529 1.84259 39.7326 1.65627 40.5711 1.65627C40.9748 1.65627 41.5545 1.72873 41.8547 1.82189ZM26.0271 9.82365C27.4557 10.0824 28.5115 10.3826 29.8158 10.8899C30.7475 11.2418 30.8924 11.335 30.9441 11.5731C31.7102 15.1029 33.0145 17.4838 35.4574 19.8233C36.6271 20.9516 37.6934 21.7486 39.1219 22.5871C39.9293 23.0633 40.1156 23.1254 40.6125 23.1254C40.923 23.1358 41.2646 23.0943 41.3578 23.0529C41.5027 22.9805 41.5648 23.0736 41.7408 23.674C41.865 24.057 42.0824 24.9576 42.2377 25.6719C42.4965 26.8727 42.5172 27.1522 42.5275 29.4502C42.5275 31.4274 42.4861 32.1209 42.3412 32.8662C42.1549 33.8289 41.658 35.7336 41.5855 35.8061C41.5648 35.8268 41.2025 35.5266 40.7885 35.1229C39.95 34.3051 39.4945 34.1084 38.8113 34.2637C38.5939 34.3051 38.2834 34.4811 38.1178 34.6363L37.8072 34.9262L37.2275 34.3361L36.6375 33.7565L38.3973 31.9656C40.4262 29.916 40.5607 29.6779 40.5607 28.3633C40.5504 27.7318 40.4986 27.4938 40.2812 27.0693C39.8051 26.1481 38.9873 25.5684 37.9418 25.4027C37.5484 25.3406 37.507 25.3096 37.4553 24.9576C37.2068 23.4567 35.9646 22.2559 34.6604 22.2559C34.3395 22.2559 34.3291 22.2352 34.267 21.7486C34.1014 20.3719 32.9937 19.285 31.5652 19.0883L31.0891 19.0158V18.5914C31.0787 17.7736 30.4369 16.8006 29.557 16.283C28.9359 15.9207 27.6937 15.8276 26.9898 16.0967L26.5137 16.2727L26.1928 15.9621C26.0064 15.7965 25.6545 15.5481 25.3957 15.4135C24.9402 15.1754 24.8678 15.1651 22.1867 15.1651C20.1061 15.1651 19.3814 15.1961 19.2055 15.2996C19.0709 15.3721 18.6568 15.4445 18.2738 15.4652C16.7211 15.517 15.541 16.5936 15.3857 18.0738L15.3236 18.6328H14.8992C13.6467 18.6328 12.3734 19.8647 12.1871 21.2518C12.125 21.7176 12.1146 21.7176 11.6385 21.7901C10.1064 22.0178 9.04023 23.2289 9.04023 24.761C9.04023 25.144 9.08164 25.558 9.1334 25.6926C9.21621 25.9203 9.18515 25.9514 8.74004 26.117C8.06718 26.3551 7.44609 26.9141 7.11484 27.5869C6.89746 28.0424 6.8457 28.3115 6.83535 28.9016C6.83535 30.0299 7.06308 30.444 8.43984 31.8518L9.59922 33.0215L8.59511 34.0256L7.59101 35.0297L7.23906 34.6881C7.05273 34.5018 6.71113 34.3051 6.49375 34.2637C5.81054 34.1084 5.36543 34.3051 4.5166 35.1229C4.10254 35.5266 3.74023 35.8268 3.71953 35.8061C3.69883 35.7854 3.58496 35.4334 3.47109 35.0401C1.45254 28.177 3.39863 20.5893 8.48125 15.486C11.7627 12.1942 15.8516 10.1963 20.5305 9.62697C21.7209 9.48204 24.7539 9.59591 26.0271 9.82365ZM24.6607 16.9145C25.3336 17.2664 25.3129 17.3078 24.1432 18.4879L23.0666 19.5645H22.1453C20.5719 19.5645 19.8473 19.0055 19.7334 17.7115C19.6402 16.7385 19.5678 16.7695 22.1557 16.7695C23.874 16.7695 24.433 16.8006 24.6607 16.9145ZM18.0771 17.9082C18.191 19.2332 18.8742 20.2684 20.0336 20.8791C20.5201 21.1276 20.7168 21.169 21.8451 21.2L23.0977 21.2414L23.9775 22.142C25.0334 23.2186 25.1576 23.5705 24.7746 24.2848C24.433 24.9473 23.7498 25.2061 23.0459 24.9369C22.7146 24.8127 17.3836 19.5541 17.1559 19.1297C17.073 18.9744 17.0109 18.6535 17.0109 18.4154C17.0109 18.0531 17.073 17.9186 17.4146 17.5873C17.632 17.3596 17.8598 17.1836 17.9115 17.1836C17.9736 17.1836 18.0461 17.5149 18.0771 17.9082ZM28.7186 17.7529C29.4639 18.1463 29.6398 19.0883 29.1223 19.875C28.76 20.4236 28.7393 20.6824 29.0291 21.0551C29.3189 21.4277 29.8469 21.4174 30.4059 21.0344C31.7619 20.0924 33.2939 21.7072 32.2898 23.0322C31.9275 23.5084 31.9275 24.026 32.2898 24.3158C32.6625 24.616 33.0248 24.585 33.5631 24.2227C34.1014 23.8604 34.6086 23.819 35.0951 24.1192C35.623 24.4401 35.799 24.8127 35.7576 25.527C35.7473 25.6512 35.6127 25.9514 35.4367 26.1998C35.0641 26.7485 35.0537 27.0176 35.3643 27.3902C35.6852 27.7526 36.1303 27.7629 36.6479 27.4109C37.1551 27.0693 37.4346 26.9865 37.8176 27.0693C38.5422 27.2246 39.0494 28.0113 38.9045 28.7567C38.8424 29.0879 38.3973 29.5848 35.7887 32.1934C32.8902 35.1022 32.7453 35.2781 32.7453 35.6404C32.7453 36.1477 33.0352 36.4375 33.532 36.4375C33.8529 36.4375 34.0082 36.334 34.6707 35.6922L35.4471 34.9469L36.0371 35.5369L36.6271 36.127L32.559 40.1951L28.5012 44.2529L26.317 42.0688L24.1225 39.8742L24.6607 39.7604C24.9609 39.6983 25.9961 39.6465 26.9795 39.6465C28.9463 39.6465 29.6191 39.5326 30.7164 39.0358C31.4203 38.7149 31.6066 38.5078 31.6066 38.0006C31.6066 37.2967 30.8613 37.0586 30.0229 37.483C29.2672 37.8764 29.0084 37.9178 26.6896 37.9902C24.5779 38.0524 24.3502 38.0834 23.5842 38.3422C22.1764 38.8287 21.6898 39.191 19.102 41.7582L16.7004 44.1391L12.7668 40.2158L8.8332 36.2822L9.87871 35.2367L10.9346 34.1809L11.2865 34.3258C11.7109 34.5121 12.7771 34.5328 13.3568 34.3776C13.5846 34.3154 13.9676 34.1188 14.2057 33.9531C14.6301 33.6426 15.2512 32.8041 15.2512 32.5453C15.2512 32.3176 15.4064 32.3072 15.8826 32.4729C17.3008 32.9697 19.1123 32.1106 19.6609 30.682C19.8162 30.2783 19.8473 30.2473 20.0854 30.3404C20.4787 30.4854 21.576 30.4543 22.1039 30.268C22.7353 30.061 23.315 29.5434 23.6877 28.8705C23.9465 28.3943 23.9982 28.1977 23.9982 27.5145V26.7174L24.4123 26.6139C25.7994 26.2619 26.7621 24.8231 26.6068 23.3428C26.524 22.5768 26.2031 22.0074 25.3853 21.169L24.6711 20.434L26.0996 19.0158C27.4867 17.6391 27.5488 17.5977 27.9732 17.5977C28.2113 17.5977 28.5426 17.6701 28.7186 17.7529ZM15.8516 20.434C16.0068 20.5168 17.5182 21.9764 19.2055 23.674C21.8762 26.3551 22.2799 26.8106 22.342 27.1522C22.549 28.2805 21.3482 29.1604 20.3441 28.6324C20.1889 28.5496 18.6775 27.0901 16.9902 25.3924C13.5639 21.9453 13.5742 21.966 13.9986 21.0965C14.1125 20.8481 14.3402 20.5686 14.4955 20.4754C14.8475 20.258 15.4789 20.2373 15.8516 20.434ZM12.5287 23.4981C12.86 23.6223 17.777 28.4772 18.0047 28.9016C18.5326 29.9057 17.6527 31.1065 16.5244 30.8994C16.1828 30.8373 15.7791 30.475 13.5639 28.2805C12.1457 26.8727 10.9242 25.5994 10.8414 25.4442C10.4895 24.7713 10.7689 23.9535 11.4728 23.6016C11.949 23.3635 12.1146 23.3531 12.5287 23.4981ZM10.4377 27.7008C10.624 27.7836 11.4314 28.5186 12.2285 29.3363C13.802 30.9305 13.9469 31.1789 13.7088 31.9139C13.5639 32.3486 13.3154 32.5867 12.8082 32.7627C12.0836 33.0111 11.8352 32.8662 10.21 31.241C9.38183 30.4233 8.66758 29.6779 8.61582 29.5744C8.43984 29.2639 8.48125 28.6014 8.69863 28.2391C8.90566 27.8664 9.46465 27.5352 9.84765 27.5352C9.98222 27.5352 10.2514 27.6076 10.4377 27.7008ZM15.6135 49.377L13.6467 51.3438L7.90156 45.5986L2.15644 39.8535L4.12324 37.8867L6.09004 35.9199L11.8352 41.6651L17.5803 47.4102L15.6135 49.377ZM24.9816 43.1143L27.3107 45.4434L26.7725 45.9817C26.141 46.6338 26.0168 46.8615 26.0168 47.3481C26.0168 47.8449 26.1824 48.2279 26.5551 48.6213C26.7414 48.8076 26.8656 48.9836 26.8346 49.0043C26.8139 49.025 26.3273 49.1285 25.758 49.232C24.2674 49.5012 21.2137 49.5012 19.5678 49.232L18.3463 49.0354L18.6568 48.7145C19.2469 48.083 19.4228 47.4619 19.1744 46.8201C19.1227 46.6649 18.8018 46.2611 18.4809 45.9299L17.8908 45.3399L20.1682 43.0625C21.4207 41.81 22.4869 40.7852 22.549 40.7852C22.6111 40.7852 23.698 41.8307 24.9816 43.1143Z" fill="black"/>
<path d="M39.4271 4.42014C37.5535 4.8342 35.9387 6.05569 35.1313 7.66018C34.6447 8.63323 34.4688 9.36819 34.4688 10.5069C34.4688 12.6393 35.4211 14.4612 37.1395 15.6102C38.2264 16.3348 38.9717 16.5729 40.3588 16.635C42.2945 16.7281 43.7023 16.1899 45.017 14.8649C46.2695 13.602 46.7354 12.3805 46.1453 11.9147C45.576 11.4696 45.0895 11.6662 44.6857 12.5047C44.2924 13.3121 43.4229 14.1713 42.543 14.5957C41.2904 15.2168 39.5928 15.1444 38.3506 14.4094C36.7875 13.4985 35.8352 11.5006 36.1561 9.81331C36.8289 6.23166 40.9695 4.78245 43.692 7.17366C44.1268 7.55666 44.665 8.36409 44.8721 8.94377C45.1309 9.67873 45.8244 9.95823 46.2902 9.52346C46.6318 9.20256 46.6525 8.90237 46.4145 8.25022C45.752 6.49045 44.0646 4.98948 42.2117 4.5133C41.6113 4.35803 39.9447 4.30627 39.4271 4.42014Z" fill="black"/>
<path d="M41.5776 9.64768L40.3147 10.9106L39.3935 10.01C38.5343 9.18185 38.4411 9.10939 38.0478 9.10939C37.7165 9.10939 37.5819 9.1715 37.4163 9.37853C37.0022 9.90646 37.0954 10.0721 38.5653 11.5627C40.4079 13.4156 40.1595 13.4363 42.3437 11.2522C43.886 9.70978 44.031 9.53381 44.031 9.20256C44.031 8.72639 43.6894 8.38478 43.1925 8.38478C42.8819 8.38478 42.706 8.51935 41.5776 9.64768Z" fill="black"/>
</svg>
