<svg width="59" height="59" viewBox="0 0 59 59" fill="none" xmlns="http://www.w3.org/2000/svg">
<path d="M39.9469 0.951641V1.90326H42.5282H45.1213L41.5885 5.43612L38.0437 8.98088L35.736 6.67321C34.3086 5.2458 33.3689 4.38934 33.2618 4.42503C33.1786 4.46071 31.5014 5.91192 29.5625 7.66051C27.6116 9.39721 26.0058 10.8246 25.982 10.8246C25.9582 10.8246 25.5776 10.5748 25.1256 10.2656C23.4127 9.11172 21.0217 8.172 18.8449 7.79136C17.4889 7.56535 14.7173 7.55346 13.385 7.79136C7.5683 8.80245 2.56044 13.1799 0.70479 18.8539C0.121927 20.6738 -0.0565005 22.0893 0.0148704 24.4208C0.0624511 26.0861 0.133822 26.6928 0.38362 27.692C1.44229 31.8791 4.05923 35.4357 7.71104 37.672C8.57939 38.2073 10.1258 38.921 10.887 39.147L11.3866 39.2897L11.4223 47.4498L11.458 55.6099L11.803 56.3236C12.255 57.2395 13.159 58.1436 14.075 58.5956C14.7411 58.9168 14.8838 58.9406 16.1566 58.9406C17.4294 58.9406 17.5721 58.9168 18.2383 58.5956C19.7133 57.87 20.7006 56.4783 20.9147 54.8367C20.9741 54.349 21.0336 50.6496 21.0336 46.6172V39.2897L21.783 39.0162C23.7695 38.3024 25.6846 37.0772 27.35 35.4714L28.5276 34.3533V35.2573V36.1613H35.1889H41.8502V35.2097V34.2581L35.2483 34.2343L28.6465 34.1986L29.3483 33.2232C29.729 32.6879 30.2524 31.8553 30.5022 31.3557C30.752 30.8561 31.0256 30.4754 31.085 30.4992C33.5949 31.6174 34.7131 31.9623 36.5925 32.2359C37.8891 32.4262 41.3625 32.3192 42.5639 32.0575C46.1086 31.2843 49.2133 29.4643 51.961 26.5738C53.0435 25.4319 53.2695 24.9561 53.2695 23.7904C53.2695 22.6246 53.0435 22.1488 51.961 21.0069C49.6891 18.6278 47.2506 17.0101 44.5266 16.0823C42.7899 15.4875 41.8264 15.3329 39.6258 15.2615C36.2475 15.1545 34.606 15.4994 31.085 17.0815C31.0137 17.1053 30.8114 16.8198 30.6211 16.451C30.1215 15.4162 29.1223 13.9531 28.2897 13.049C27.8496 12.5732 27.5879 12.1926 27.6473 12.1331C27.7068 12.0736 28.9915 10.9317 30.4903 9.58753L33.2262 7.14902L35.6409 9.55184L38.0437 11.9547L42.326 7.67241L46.6082 3.39015V5.9833V8.56454H47.5598H48.5114V4.28229V2.67029e-05H44.2292H39.9469V0.951641ZM18.2977 9.76596C20.0225 10.0158 22.4729 10.9674 23.8766 11.9309L24.4 12.2877L23.7576 12.8468L23.1153 13.4178L22.2707 12.9539C20.3437 11.8952 18.4286 11.4194 16.0733 11.4194C13.7181 11.4194 11.7197 11.9666 9.70943 13.1561C8.35338 13.9531 6.31931 15.9871 5.52233 17.3432C4.30902 19.3772 3.78564 21.3399 3.78564 23.7904C3.78564 27.1805 4.8681 29.9045 7.16386 32.3192C8.7816 34.0202 10.4707 35.0551 12.7903 35.7688C13.7776 36.0662 13.9798 36.0899 16.1566 36.0899C18.3572 36.0899 18.5356 36.0781 19.5348 35.7688C23.0677 34.6744 25.8274 32.3668 27.3024 29.2621C27.5403 28.7744 27.7425 28.3462 27.7663 28.3224C27.8258 28.251 29.1223 29.274 29.1223 29.4049C29.1223 29.5952 28.3848 30.9869 27.8258 31.8196C27.1834 32.7831 25.5419 34.496 24.6022 35.174C21.9852 37.0535 19.2375 37.9575 16.1685 37.9575C12.1836 37.9456 8.97193 36.6133 6.15277 33.7942C4.53503 32.1764 3.51205 30.5825 2.78644 28.5722C2.156 26.8117 2.06084 26.1575 2.07273 23.7309C2.07273 21.6611 2.09652 21.3637 2.3939 20.2813C2.77455 18.842 3.8808 16.57 4.76104 15.4043C7.99652 11.1101 13.0282 9.01656 18.2977 9.76596ZM18.7735 13.7389C19.5943 13.9531 21.3905 14.7262 21.3905 14.869C21.3905 14.9166 20.7006 15.5708 19.856 16.3321L18.3215 17.7119L17.81 17.4502C17.0368 17.0577 15.6094 17.022 14.6935 17.367C11.684 18.497 11.5175 22.9577 14.4318 24.3851C15.2883 24.8133 16.68 24.8609 17.6197 24.5041C18.5356 24.1591 19.3802 23.3145 19.7252 22.3986C19.9393 21.8276 19.975 21.5422 19.9274 20.7571C19.8917 20.2337 19.8322 19.6746 19.7846 19.5081C19.7133 19.2464 19.8679 19.068 21.1169 17.9617C21.8901 17.2718 22.6752 16.5819 22.8655 16.4154L23.2104 16.1299L23.8885 16.8793C24.6616 17.7357 25.4586 19.0561 25.8631 20.1504L26.1366 20.8998L25.7203 21.3043C25.0304 21.9704 24.7211 22.7436 24.7211 23.7785C24.7211 24.8371 24.9352 25.3724 25.6371 26.1694L26.1129 26.7047L25.8987 27.347C25.4348 28.6674 24.3762 30.297 23.3056 31.3438L22.8179 31.8077V29.2264V26.6452H19.9631H17.1082V30.3803V34.1154L16.6324 34.1629C16.3707 34.1867 15.9425 34.1867 15.6808 34.1629L15.205 34.1154V31.3319V28.5484H12.3502H9.49531V30.1781V31.8077L8.94814 31.2843C5.68886 28.0964 4.8562 23.0766 6.92596 19.0561C9.16225 14.75 14.1225 12.5137 18.7735 13.7389ZM26.6243 14.2385C27.6235 15.3567 29.1223 17.7357 29.1223 18.1877C29.1223 18.2829 27.9209 19.2702 27.7901 19.2702C27.7544 19.2702 27.6354 19.0442 27.5165 18.7587C27.1953 17.9498 26.4221 16.7008 25.5895 15.6779L24.8163 14.7262L25.3278 14.2029C25.6133 13.9174 25.9106 13.6795 25.982 13.6795C26.0653 13.6795 26.3508 13.9293 26.6243 14.2385ZM41.1959 17.5811C43.0278 18.2591 44.6574 19.9125 45.2522 21.7206C45.5733 22.7079 45.5733 24.8728 45.2522 25.8601C44.6455 27.7039 42.9088 29.4406 41.0651 30.0472C40.0778 30.3684 37.9129 30.3684 36.9256 30.0472C35.1175 29.4524 33.4522 27.8228 32.786 25.991C32.4649 25.0988 32.3578 23.3145 32.5719 22.3748C33.0953 20.0196 34.9391 18.1045 37.33 17.4145C38.1746 17.1647 40.3157 17.2599 41.1959 17.5811ZM17.0844 19.3891C18.6308 20.3289 17.9647 22.7198 16.1566 22.7198C15.1455 22.7198 14.3723 21.9466 14.3723 20.9355C14.3723 20.2932 14.6935 19.7222 15.2288 19.3891C15.4667 19.2464 15.8354 19.1512 16.1566 19.1512C16.4778 19.1512 16.8465 19.2464 17.0844 19.3891ZM31.311 19.9125C30.1215 22.1488 30.1215 25.4319 31.311 27.6801C31.5846 28.2035 31.6679 28.4295 31.5371 28.3819C30.9304 28.144 29.4673 26.9901 28.1945 25.7531C26.7671 24.3494 26.7433 24.3137 26.7433 23.7904C26.7433 23.267 26.7671 23.2313 28.1945 21.8276C29.4078 20.6381 31.3229 19.1512 31.6322 19.1512C31.6798 19.1512 31.5252 19.4962 31.311 19.9125ZM47.4885 19.8412C47.9524 20.1504 48.9873 21.0426 49.7961 21.8276C51.2235 23.2313 51.2473 23.267 51.2473 23.7904C51.2473 24.3137 51.2235 24.3494 49.7961 25.7531C48.5233 26.9901 47.0602 28.144 46.4536 28.3819C46.3227 28.4295 46.406 28.2035 46.6796 27.6801C47.8691 25.4319 47.8691 22.1488 46.6796 19.9006C46.2038 19.0204 46.2514 19.0204 47.4885 19.8412ZM20.9147 30.7966V33.0329L20.2366 33.3422C19.856 33.5087 19.4278 33.6752 19.285 33.7228L19.0114 33.7942V31.1772V28.5484H19.9631H20.9147V30.7966ZM13.3018 32.117C13.3018 33.0329 13.2661 33.7823 13.2304 33.7823C13.1947 33.7823 12.7665 33.6158 12.2788 33.4135L11.3985 33.0448V31.7482V30.4516H12.3502H13.3018V32.117ZM16.1566 39.9559C17.1082 39.9559 18.1312 39.9083 18.4524 39.8607L19.0114 39.7656V40.8242V41.871H16.1566H13.3018V40.8242V39.7656L13.8727 39.8607C14.182 39.9083 15.205 39.9559 16.1566 39.9559ZM18.9877 49.2698C18.952 54.2658 18.9282 54.8248 18.7379 55.2531C17.8933 57.1206 15.5381 57.5726 14.1701 56.1333C13.3493 55.2649 13.3612 55.372 13.3256 49.2698L13.2899 43.7742H16.1566H19.0233L18.9877 49.2698Z" fill="black"/>
<path d="M37.3658 19.2582C36.1168 19.7222 35.2247 20.531 34.618 21.7681C34.3207 22.3629 34.2969 22.5413 34.2969 23.7903C34.2969 25.0631 34.3207 25.2058 34.6418 25.872C35.0939 26.7879 35.9979 27.6919 36.9138 28.1439C37.5799 28.4651 37.7227 28.4889 38.9955 28.4889C40.2682 28.4889 40.411 28.4651 41.0771 28.1439C41.993 27.6919 42.8971 26.7879 43.3491 25.872C43.6703 25.2058 43.6941 25.0631 43.6941 23.7903C43.6941 22.5175 43.6703 22.3748 43.3491 21.7086C42.8971 20.7927 41.993 19.8887 41.0771 19.4486C40.4586 19.1393 40.2088 19.0917 39.1739 19.056C38.2342 19.0322 37.8535 19.0798 37.3658 19.2582ZM40.0422 21.2447C41.8622 21.9941 42.3142 24.4207 40.8868 25.7768C39.1382 27.4302 36.2596 26.205 36.2596 23.7903C36.2596 22.7197 36.8662 21.78 37.8654 21.2566C38.3293 21.0068 39.4713 21.0068 40.0422 21.2447Z" fill="black"/>
<path d="M38.2809 23.0766C38.1262 23.2313 38.043 23.4692 38.043 23.7903C38.043 24.1115 38.1262 24.3494 38.2809 24.504C38.4355 24.6587 38.6734 24.7419 38.9946 24.7419C39.3158 24.7419 39.5537 24.6587 39.7083 24.504C39.8629 24.3494 39.9462 24.1115 39.9462 23.7903C39.9462 23.4692 39.8629 23.2313 39.7083 23.0766C39.5537 22.922 39.3158 22.8387 38.9946 22.8387C38.6734 22.8387 38.4355 22.922 38.2809 23.0766Z" fill="black"/>
<path d="M56.2438 33.6038C55.5658 34.2819 55.2208 34.5673 55.1971 34.4365C55.1614 34.2819 54.4833 34.2581 49.4517 34.2581H43.7539V39.9678V45.6774H49.4636H55.1733V41.6688V37.6482L56.9813 35.8401L58.8013 34.0202L58.0876 33.3065C57.695 32.9139 57.3501 32.5928 57.3144 32.5928C57.2787 32.5928 56.791 33.0448 56.2438 33.6038ZM53.27 36.3754C53.27 36.4825 52.4136 37.4341 51.3668 38.4809L49.4636 40.3841L48.393 39.3135L47.3225 38.243L46.585 38.9923L45.8356 39.7298L47.6555 41.5379L49.4636 43.3579L51.3668 41.4546L53.27 39.5514V41.6688V43.7742H49.4636H45.6571V39.9678V36.1613H49.4636C53.0202 36.1613 53.27 36.1732 53.27 36.3754Z" fill="black"/>
<path d="M28.5273 39.0161V39.9677H35.1886H41.8499V39.0161V38.0645H35.1886H28.5273V39.0161Z" fill="black"/>
<path d="M28.5273 42.8226V43.7742H33.2854H38.0435V42.8226V41.8709H33.2854H28.5273V42.8226Z" fill="black"/>
<path d="M39.9453 42.8226V43.7742H40.8969H41.8485V42.8226V41.8709H40.8969H39.9453V42.8226Z" fill="black"/>
<path d="M56.2438 46.9264C55.5658 47.6044 55.2208 47.8899 55.1971 47.7591C55.1614 47.6044 54.4833 47.5806 49.4517 47.5806H43.7539V53.2903V59H49.4636H55.1733V54.9913V50.9708L56.9813 49.1627L58.8013 47.3427L58.0876 46.629C57.695 46.2365 57.3501 45.9153 57.3144 45.9153C57.2787 45.9153 56.791 46.3673 56.2438 46.9264ZM53.27 49.698C53.27 49.805 52.4136 50.7567 51.3668 51.8034L49.4636 53.7067L48.393 52.6361L47.3225 51.5655L46.585 52.3149L45.8356 53.0524L47.6555 54.8605L49.4636 56.6804L51.3668 54.7772L53.27 52.874V54.9913V57.0968H49.4636H45.6571V53.2903V49.4839H49.4636C53.0202 49.4839 53.27 49.4958 53.27 49.698Z" fill="black"/>
<path d="M28.5273 48.5323V49.4839H35.1886H41.8499V48.5323V47.5807H35.1886H28.5273V48.5323Z" fill="black"/>
<path d="M28.5273 52.3387V53.2903H35.1886H41.8499V52.3387V51.3871H35.1886H28.5273V52.3387Z" fill="black"/>
<path d="M28.5273 56.1452V57.0968H33.2854H38.0435V56.1452V55.1936H33.2854H28.5273V56.1452Z" fill="black"/>
<path d="M39.9453 56.1452V57.0968H40.8969H41.8485V56.1452V55.1936H40.8969H39.9453V56.1452Z" fill="black"/>
</svg>
