<svg width="59" height="59" viewBox="0 0 59 59" fill="none" xmlns="http://www.w3.org/2000/svg">
<path d="M8.21085 0.135231C7.94044 0.28273 7.74377 0.995646 7.74377 1.7946C7.74377 2.3846 7.71919 2.43377 7.36273 2.58127C7.00627 2.74106 6.96939 2.72877 6.35481 2.10189C5.80169 1.56106 5.6419 1.47502 5.22398 1.47502C4.76919 1.47502 4.64627 1.56106 3.10981 3.10981C1.57336 4.64627 1.47502 4.76918 1.47502 5.22398C1.47502 5.61731 1.57336 5.81398 2.08961 6.39168C2.66731 7.06772 2.6919 7.11689 2.5444 7.48564L2.40919 7.86668H1.45044C-0.0245577 7.86668 2.5581e-05 7.81752 2.5581e-05 10.7921C2.5581e-05 12.5744 0.0369005 13.2873 0.159817 13.4471C0.344192 13.6929 1.05711 13.8773 1.85607 13.8896C2.37232 13.8896 2.44606 13.9265 2.58127 14.2706C2.74106 14.6271 2.72877 14.664 2.1019 15.2786C1.56107 15.8317 1.47502 15.9915 1.47502 16.4094C1.47502 16.8642 1.56107 16.9871 3.10981 18.5235C4.64627 20.06 4.76919 20.1583 5.22398 20.1583C5.61731 20.1583 5.81398 20.06 6.39169 19.5438C7.06773 18.966 7.11689 18.9415 7.48564 19.089L7.86669 19.2242V20.1829C7.86669 21.6579 7.81752 21.6333 10.7675 21.6333C12.1442 21.6333 13.2627 21.5842 13.3979 21.5104C13.6929 21.3506 13.8896 20.6746 13.8896 19.8388C13.8896 19.2488 13.9142 19.1996 14.2706 19.0521C14.6271 18.8923 14.664 18.9046 15.2786 19.5315C15.8317 20.0723 15.9915 20.1583 16.4094 20.1583C16.8642 20.1583 16.9871 20.0723 18.5236 18.5235C20.06 16.9871 20.1583 16.8642 20.1583 16.4094C20.1583 16.016 20.06 15.8194 19.5438 15.2294C18.9661 14.5656 18.9415 14.5042 19.0644 14.1477L19.1996 13.7667H20.1706C21.6579 13.7667 21.6333 13.8158 21.6333 10.8658C21.6333 9.48918 21.5842 8.37064 21.5104 8.23543C21.3506 7.94043 20.6746 7.74376 19.8388 7.74376C19.2488 7.74376 19.1996 7.71918 19.0521 7.36272C18.8923 7.00627 18.9046 6.96939 19.5315 6.35481C20.0723 5.80168 20.1583 5.64189 20.1583 5.22398C20.1583 4.76918 20.0723 4.64627 18.5236 3.10981C16.9871 1.57335 16.8642 1.47502 16.4094 1.47502C16.0161 1.47502 15.8194 1.57335 15.2417 2.0896C14.5656 2.66731 14.5165 2.69189 14.1477 2.5444L13.7667 2.40919V1.45044C13.7667 -0.0245609 13.8158 2.28882e-05 10.8536 2.28882e-05C9.4646 2.28882e-05 8.33377 0.0614796 8.21085 0.135231ZM11.8 2.56898C11.8 3.40481 12.1565 3.89648 13.1521 4.38814C14.3567 4.99043 15.3277 4.94127 16.0775 4.26523L16.3602 4.0071L16.9871 4.64627L17.6263 5.27314L17.3681 5.55585C16.6552 6.34252 16.6183 7.23981 17.2206 8.45668C17.7369 9.47689 18.2163 9.83335 19.0644 9.83335H19.6667V10.8167V11.8H19.0644C18.204 11.8 17.7369 12.1565 17.2206 13.2013C16.6183 14.4427 16.6675 15.3031 17.3681 16.0775L17.6263 16.3602L16.9871 16.9871L16.3602 17.6263L16.0775 17.3681C15.3277 16.6921 14.3567 16.6429 13.1521 17.2452C12.1565 17.7369 11.8 18.2285 11.8 19.0644V19.6667H10.8167H9.83335V19.0644C9.83335 18.2285 9.47689 17.7369 8.48127 17.2452C7.27669 16.6429 6.30564 16.6921 5.55585 17.3681L5.27315 17.6263L4.64627 16.9871L4.00711 16.3602L4.26523 16.0775C4.96585 15.3031 5.01502 14.369 4.40044 13.1644C3.89648 12.1565 3.41711 11.8 2.56898 11.8H1.96669V10.8167V9.83335H2.56898C3.41711 9.83335 3.89648 9.47689 4.40044 8.44439C5.00273 7.21522 4.96585 6.33022 4.26523 5.55585L4.00711 5.27314L4.64627 4.64627L5.27315 4.0071L5.55585 4.26523C6.30564 4.94127 7.27669 4.99043 8.48127 4.38814C9.47689 3.89648 9.83335 3.40481 9.83335 2.56898V1.96669H10.8167H11.8V2.56898Z" fill="black"/>
<path d="M9.13218 6.13355C7.84156 6.61292 6.91969 7.44876 6.29281 8.72709C5.98552 9.34167 5.96094 9.52605 5.96094 10.8167C5.96094 12.1319 5.98552 12.2794 6.3174 12.9677C6.78448 13.9142 7.71864 14.8483 8.6651 15.3154C9.35343 15.6473 9.50093 15.6719 10.8161 15.6719C12.1313 15.6719 12.2788 15.6473 12.9672 15.3154C13.9136 14.8483 14.8478 13.9142 15.3149 12.9677C15.6468 12.2794 15.6713 12.1319 15.6713 10.8167C15.6713 9.50146 15.6468 9.35396 15.3149 8.66563C14.8478 7.71917 13.9136 6.78501 12.9672 6.33022C12.328 6.01063 12.0699 5.96147 11.0005 5.92459C10.0295 5.90001 9.63614 5.94917 9.13218 6.13355ZM11.8978 8.18626C13.7784 8.96063 14.2455 11.4681 12.7705 12.8694C10.9636 14.5779 7.98906 13.3119 7.98906 10.8167C7.98906 9.71042 8.61594 8.73938 9.64843 8.19855C10.1278 7.94042 11.3078 7.94042 11.8978 8.18626Z" fill="black"/>
<path d="M50.3955 11.0625C50.1866 11.2715 50.1497 11.4682 50.1497 12.5252V13.7544L45.7001 13.7913L41.2383 13.8282L40.046 14.2461C39.3822 14.4673 38.4235 14.8975 37.9195 15.2048C36.8256 15.844 35.3506 17.2084 34.6008 18.2532C34.3058 18.6588 32.8799 21.3875 31.4172 24.3129C28.4918 30.1638 28.3074 30.4588 27.0045 31.0488L26.2424 31.4052L18.5233 31.4421L10.8164 31.479V32.45V33.4334H18.6708C26.1318 33.4334 26.562 33.4211 27.2995 33.1875C27.7297 33.0646 28.3443 32.7819 28.6639 32.5852C29.9791 31.7494 30.1881 31.4175 33.1872 25.4438C34.9326 21.9775 36.211 19.5929 36.5428 19.1627C37.686 17.7246 39.4437 16.5692 41.2505 16.0898C42.1478 15.844 42.6026 15.8194 46.917 15.758C50.4816 15.7211 51.6616 15.6719 51.8337 15.549C51.9689 15.4507 52.0672 15.1557 52.1164 14.75L52.1778 14.0986L54.206 15.8317C55.3245 16.7905 56.2341 17.6263 56.2341 17.7C56.2341 17.7738 55.3245 18.6096 54.206 19.5684L52.1778 21.3015L52.1164 20.65C52.0672 20.2198 51.9689 19.9494 51.8091 19.8388C51.6247 19.7036 50.7766 19.6667 47.4333 19.6667C42.8362 19.6667 42.3937 19.7282 41.1399 20.5271C39.8247 21.3507 39.6403 21.6457 36.6412 27.6317C34.3918 32.1181 33.6789 33.4211 33.1258 34.0848C31.9581 35.4984 30.3233 36.5431 28.5287 37.0225C27.7051 37.2438 27.1274 37.2806 23.6366 37.3298L19.6664 37.3913V38.3746V39.3456L24.1283 39.3088L28.5778 39.2719L29.7701 38.854C30.4339 38.6327 31.3926 38.2025 31.8966 37.8952C32.9906 37.2561 34.4656 35.8917 35.2153 34.8469C35.5103 34.4413 36.9362 31.7125 38.3989 28.7871C41.3243 22.9363 41.521 22.6413 42.8116 22.0513L43.5737 21.6948L46.8678 21.6579L50.1497 21.6088V22.8502C50.1497 24.3129 50.2972 24.5834 51.133 24.5834C51.6001 24.5834 51.8214 24.4113 55.091 21.6211C57.0084 19.9863 58.6678 18.5482 58.7907 18.413C58.9137 18.2655 58.9997 17.9705 58.9997 17.7C58.9997 17.4296 58.9137 17.1346 58.7907 16.9871C58.6678 16.8519 57.0084 15.4138 55.091 13.779C51.8214 10.9888 51.6001 10.8167 51.133 10.8167C50.8012 10.8167 50.5553 10.9027 50.3955 11.0625Z" fill="black"/>
<path d="M19.668 21.621V22.5921L23.6382 22.6535C27.7682 22.715 28.3582 22.7887 29.6611 23.3419L30.2388 23.5877L30.669 22.7396C30.9025 22.2725 31.0992 21.83 31.0992 21.7563C31.0992 21.5842 30.3494 21.2892 29.0219 20.945C27.9157 20.6623 27.7067 20.65 23.7734 20.65H19.668V21.621Z" fill="black"/>
<path d="M2.94922 27.5333V28.5167H3.93255H4.91588V27.5333V26.55H3.93255H2.94922V27.5333Z" fill="black"/>
<path d="M6.88281 27.5333V28.5167H7.86615H8.84948V27.5333V26.55H7.86615H6.88281V27.5333Z" fill="black"/>
<path d="M10.8164 27.5333V28.5167H17.9824C24.3618 28.5167 25.7016 28.5658 26.9185 28.824C27.2012 28.8854 27.2626 28.8117 27.6314 28.0004C27.8526 27.521 27.9879 27.0785 27.9387 27.0294C27.8895 26.9802 27.5453 26.8573 27.1766 26.7467C26.5989 26.5746 25.4681 26.55 18.6585 26.55H10.8164V27.5333Z" fill="black"/>
<path d="M2.94922 32.45V33.4333H3.93255H4.91588V32.45V31.4667H3.93255H2.94922V32.45Z" fill="black"/>
<path d="M6.88281 32.45V33.4333H7.86615H8.84948V32.45V31.4667H7.86615H6.88281V32.45Z" fill="black"/>
<path d="M38.2625 33.3964L37.3775 33.8512L38.41 35.8793C39.7867 38.6204 40.6594 39.5054 42.5155 40.0708C43.2161 40.292 43.6586 40.3166 47.4321 40.3166C50.7755 40.3166 51.6236 40.2798 51.808 40.1446C51.9677 40.0339 52.0661 39.7635 52.1152 39.3333L52.1767 38.6818L54.2048 40.415C55.3234 41.3737 56.233 42.2095 56.233 42.2833C56.233 42.357 55.3234 43.1929 54.2048 44.1516L52.1767 45.8848L52.1152 45.2333C52.0661 44.8277 51.9677 44.5327 51.8325 44.4343C51.6605 44.3114 50.4805 44.2623 46.9159 44.2254C42.6507 44.1639 42.1344 44.1393 41.2863 43.9058C39.5655 43.4387 37.9184 42.4185 36.8244 41.1402C36.3573 40.587 35.0298 38.4237 34.8701 37.9443C34.8578 37.8829 34.4153 38.0427 33.899 38.3008L32.9648 38.7679L33.518 39.8741C34.2678 41.3737 34.9315 42.2956 36.05 43.3527C37.1932 44.4343 38.4592 45.1964 40.0448 45.7373L41.2371 46.1552L45.699 46.192L50.1486 46.2289V47.4581C50.1486 48.8962 50.2961 49.1666 51.1319 49.1666C51.599 49.1666 51.8202 48.9945 55.0898 46.2043C57.0073 44.5695 58.6667 43.1314 58.7896 42.9962C58.9125 42.8487 58.9986 42.5537 58.9986 42.2833C58.9986 42.0129 58.9125 41.7179 58.7896 41.5704C58.6667 41.4352 57.0073 39.9971 55.0898 38.3623C51.8202 35.5721 51.599 35.4 51.1319 35.4C50.2961 35.4 50.1486 35.6704 50.1486 37.1331V38.3746L46.8544 38.3254L43.5725 38.2885L42.749 37.8829C42.3065 37.6616 41.7411 37.2683 41.4953 36.9979C41.2494 36.7275 40.6471 35.695 40.1678 34.7239C39.6761 33.7406 39.2459 32.9416 39.209 32.9539C39.1721 32.9539 38.7542 33.1629 38.2625 33.3964Z" fill="black"/>
<path d="M8.21085 37.5019C7.94044 37.6494 7.74377 38.3623 7.74377 39.1612C7.74377 39.7512 7.71919 39.8004 7.36273 39.9479C7.00627 40.1077 6.96939 40.0954 6.35481 39.4685C5.80169 38.9277 5.6419 38.8417 5.22398 38.8417C4.76919 38.8417 4.64627 38.9277 3.10981 40.4764C1.57336 42.0129 1.47502 42.1358 1.47502 42.5906C1.47502 42.9839 1.57336 43.1806 2.08961 43.7583C2.66731 44.4344 2.6919 44.4835 2.5444 44.8523L2.40919 45.2333H1.45044C-0.0245577 45.2333 2.5581e-05 45.1842 2.5581e-05 48.1587C2.5581e-05 49.941 0.0369005 50.6539 0.159817 50.8137C0.344192 51.0596 1.05711 51.2439 1.85607 51.2562C2.37232 51.2562 2.44606 51.2931 2.58127 51.6373C2.74106 51.9937 2.72877 52.0306 2.1019 52.6452C1.56107 53.1983 1.47502 53.3581 1.47502 53.776C1.47502 54.2308 1.56107 54.3537 3.10981 55.8902C4.64627 57.4266 4.76919 57.525 5.22398 57.525C5.61731 57.525 5.81398 57.4266 6.39169 56.9104C7.06773 56.3327 7.11689 56.3081 7.48564 56.4556L7.86669 56.5908V57.5496C7.86669 59.0246 7.81752 59 10.7675 59C12.1442 59 13.2627 58.9508 13.3979 58.8771C13.6929 58.7173 13.8896 58.0412 13.8896 57.2054C13.8896 56.6154 13.9142 56.5662 14.2706 56.4187C14.6271 56.2589 14.664 56.2712 15.2786 56.8981C15.8317 57.4389 15.9915 57.525 16.4094 57.525C16.8642 57.525 16.9871 57.4389 18.5236 55.8902C20.06 54.3537 20.1583 54.2308 20.1583 53.776C20.1583 53.3827 20.06 53.186 19.5438 52.596C18.9661 51.9323 18.9415 51.8708 19.0644 51.5144L19.1996 51.1333H20.1706C21.6579 51.1333 21.6333 51.1825 21.6333 48.2325C21.6333 46.8558 21.5842 45.7373 21.5104 45.6021C21.3506 45.3071 20.6746 45.1104 19.8388 45.1104C19.2488 45.1104 19.1996 45.0858 19.0521 44.7294C18.8923 44.3729 18.9046 44.336 19.5315 43.7214C20.0723 43.1683 20.1583 43.0085 20.1583 42.5906C20.1583 42.1358 20.0723 42.0129 18.5236 40.4764C16.9871 38.94 16.8642 38.8417 16.4094 38.8417C16.0161 38.8417 15.8194 38.94 15.2417 39.4562C14.5656 40.0339 14.5165 40.0585 14.1477 39.911L13.7667 39.7758V38.8171C13.7667 37.3421 13.8158 37.3667 10.8536 37.3667C9.4646 37.3667 8.33377 37.4281 8.21085 37.5019ZM11.8 39.9356C11.8 40.7714 12.1565 41.2631 13.1521 41.7548C14.3567 42.3571 15.3277 42.3079 16.0775 41.6319L16.3602 41.3737L16.9871 42.0129L17.6263 42.6398L17.3681 42.9225C16.6552 43.7092 16.6183 44.6064 17.2206 45.8233C17.7369 46.8435 18.2163 47.2 19.0644 47.2H19.6667V48.1833V49.1666H19.0644C18.204 49.1666 17.7369 49.5231 17.2206 50.5679C16.6183 51.8094 16.6675 52.6698 17.3681 53.4441L17.6263 53.7269L16.9871 54.3537L16.3602 54.9929L16.0775 54.7348C15.3277 54.0587 14.3567 54.0096 13.1521 54.6119C12.1565 55.1035 11.8 55.5952 11.8 56.431V57.0333H10.8167H9.83335V56.431C9.83335 55.5952 9.47689 55.1035 8.48127 54.6119C7.27669 54.0096 6.30564 54.0587 5.55585 54.7348L5.27315 54.9929L4.64627 54.3537L4.00711 53.7269L4.26523 53.4441C4.96585 52.6698 5.01502 51.7356 4.40044 50.531C3.89648 49.5231 3.41711 49.1666 2.56898 49.1666H1.96669V48.1833V47.2H2.56898C3.41711 47.2 3.89648 46.8435 4.40044 45.811C5.00273 44.5819 4.96585 43.6969 4.26523 42.9225L4.00711 42.6398L4.64627 42.0129L5.27315 41.3737L5.55585 41.6319C6.30564 42.3079 7.27669 42.3571 8.48127 41.7548C9.47689 41.2631 9.83335 40.7714 9.83335 39.9356V39.3333H10.8167H11.8V39.9356Z" fill="black"/>
<path d="M9.13218 43.5002C7.84156 43.9796 6.91969 44.8154 6.29281 46.0937C5.98552 46.7083 5.96094 46.8927 5.96094 48.1833C5.96094 49.4985 5.98552 49.646 6.3174 50.3343C6.78448 51.2808 7.71864 52.215 8.6651 52.6821C9.35343 53.0139 9.50093 53.0385 10.8161 53.0385C12.1313 53.0385 12.2788 53.0139 12.9672 52.6821C13.9136 52.215 14.8478 51.2808 15.3149 50.3343C15.6468 49.646 15.6713 49.4985 15.6713 48.1833C15.6713 46.8681 15.6468 46.7206 15.3149 46.0323C14.8478 45.0858 13.9136 44.1516 12.9672 43.6969C12.328 43.3773 12.0699 43.3281 11.0005 43.2912C10.0295 43.2666 9.63614 43.3158 9.13218 43.5002ZM11.8978 45.5529C13.7784 46.3273 14.2455 48.8348 12.7705 50.236C10.9636 51.9446 7.98906 50.6785 7.98906 48.1833C7.98906 47.0771 8.61594 46.106 9.64843 45.5652C10.1278 45.3071 11.3078 45.3071 11.8978 45.5529Z" fill="black"/>
</svg>
