<svg width="60" height="59" viewBox="0 0 60 59" fill="none" xmlns="http://www.w3.org/2000/svg">
<path d="M9.29363 0.0832977C9.25793 0.142792 9.17464 0.416477 9.09134 0.713963C8.49637 2.98674 8.48447 2.99864 6.87806 2.07049L5.72382 1.40413L3.83182 3.30803L1.92792 5.20002L2.59429 6.35426C3.52244 7.97258 3.54624 7.93688 1.17826 8.59134L0.583296 8.75793L0.547597 11.4472L0.523799 14.1364L1.14257 14.3268C1.48765 14.422 2.02312 14.5648 2.3325 14.6362C3.34395 14.898 3.37965 15.1598 2.59429 16.552L1.95172 17.6706L3.83182 19.5388C4.85517 20.574 5.73572 21.4189 5.78332 21.4189C5.84281 21.4189 6.36639 21.1452 6.96135 20.812C8.29408 20.0504 8.49637 20.0861 8.80576 21.1452C8.91285 21.526 9.06754 22.0733 9.13894 22.3708L9.29363 22.9063L11.971 22.942L14.6483 22.9658L15.0053 21.6925C15.4694 20.0028 15.5646 19.9671 17.0401 20.812C17.6113 21.1452 18.1349 21.4189 18.1944 21.4189C18.2658 21.4189 19.1463 20.5859 20.1577 19.5745L22.0022 17.7301L21.7047 17.1589C21.5381 16.8495 21.2525 16.3259 21.0621 16.0046C20.8003 15.5287 20.7527 15.3502 20.8479 15.1122C20.9431 14.8623 21.1454 14.7671 22.2282 14.4696L23.4896 14.1364V13.2559V12.3753H26.2859H29.0823V13.2321C29.0823 14.2435 29.3203 14.8623 29.9271 15.4335C30.7482 16.2188 30.3674 16.1831 39.5537 16.1831C48.74 16.1831 48.3592 16.2188 49.1803 15.4335C49.7872 14.8623 50.0252 14.2435 50.0252 13.2321V12.3753H51.3103C53.8924 12.3872 55.0348 12.7323 56.1652 13.8509C56.9387 14.6362 57.3552 15.4692 57.5218 16.5996C57.6764 17.6825 57.6764 23.2514 57.5218 24.3342C57.3552 25.4646 56.9387 26.2976 56.1652 27.083C55.3799 27.8564 54.5469 28.2729 53.4165 28.4395C52.9405 28.499 49.9538 28.5585 46.5505 28.5585H40.5057V27.6898C40.5057 26.6903 40.2677 26.0715 39.6608 25.5003C38.8398 24.715 39.2205 24.7507 30.0342 24.7507C20.8479 24.7507 21.2287 24.715 20.4076 25.5003C19.8008 26.0715 19.5628 26.6903 19.5628 27.6898V28.5585H12.8039C5.30734 28.5585 5.50963 28.5466 3.95082 29.3557C2.47529 30.1292 1.22586 31.6999 0.714189 33.4253C0.428604 34.3892 0.428604 43.6707 0.714189 44.6345C1.22586 46.3599 2.47529 47.9306 3.95082 48.7041C5.28354 49.3943 5.80712 49.5014 8.0442 49.5014H10.0433V50.3581C10.0433 51.3696 10.2813 51.9883 10.8881 52.5595C11.7092 53.3449 11.3165 53.3092 20.5385 53.3092C29.8795 53.3092 29.3917 53.3449 30.2365 52.4643C30.7839 51.8812 30.9862 51.3101 30.9862 50.3343V49.5014H34.7821H38.578L38.6613 50.1201C39.042 52.9403 40.8269 55.7366 43.2782 57.3311C45.2654 58.6282 46.9908 59.0922 49.5373 58.9851C51.465 58.9138 52.1789 58.7353 53.7735 57.9499C56.5222 56.5934 58.5927 53.9993 59.3067 51.0483C59.6398 49.656 59.6398 47.4428 59.3067 46.0505C58.4142 42.3141 55.3085 39.2084 51.5721 38.316C50.1798 37.9947 47.9666 37.9828 46.5981 38.316C42.4572 39.3155 39.2562 42.8258 38.6494 47.0263L38.578 47.5975H34.7821H30.9862V46.7288C30.9862 45.7293 30.7482 45.1105 30.1413 44.5393C29.3203 43.754 29.7129 43.7897 20.4909 43.7897C11.1499 43.7897 11.6378 43.754 10.7929 44.6345C10.2456 45.2176 10.0433 45.7888 10.0433 46.7645V47.5975H8.77006C6.176 47.5856 5.03366 47.2405 3.90322 46.1219C3.12976 45.3366 2.71328 44.5036 2.54669 43.3732C2.392 42.2903 2.392 35.7695 2.54669 34.6866C2.71328 33.5562 3.12976 32.7233 3.90322 31.9379C4.68858 31.1644 5.52153 30.748 6.65197 30.5814C7.12795 30.5219 10.1147 30.4624 13.5298 30.4624H19.5628V31.2953C19.5628 32.2711 19.7651 32.8422 20.3124 33.4253C21.1573 34.3059 20.6575 34.2702 30.0342 34.2702C39.4109 34.2702 38.9111 34.3059 39.756 33.4253C40.3034 32.8422 40.5057 32.2711 40.5057 31.2953V30.4624H47.2645C54.7611 30.4624 54.5588 30.4743 56.1176 29.6651C57.5932 28.8917 58.8426 27.3209 59.3543 25.5955C59.6398 24.6317 59.6398 16.3021 59.3543 15.3383C58.7117 13.1488 57.1172 11.4948 54.9872 10.7689C54.1661 10.4952 53.9162 10.4714 52.0599 10.4714H50.0252V9.60279C50.0252 8.60324 49.7872 7.98447 49.1803 7.4133C48.3592 6.62794 48.7519 6.66364 39.5299 6.66364C30.1889 6.66364 30.6768 6.62794 29.8319 7.5085C29.2846 8.09157 29.0823 8.66274 29.0823 9.63848V10.4714H26.2859H23.5015L23.4658 9.62659L23.4301 8.76983L22.8946 8.61514C21.0145 8.09157 20.9788 8.07967 20.8479 7.79408C20.7408 7.5442 20.8003 7.36571 21.3358 6.43756C21.669 5.84259 21.9427 5.31902 21.9427 5.25952C21.9427 5.21192 21.0978 4.33137 20.0745 3.30803L18.1944 1.42793L17.0758 2.07049C15.6836 2.85585 15.4218 2.82015 15.16 1.8087C15.0886 1.49932 14.9458 0.963848 14.8506 0.618767L14.6721 0H12.0067C10.5431 0 9.31743 0.0356979 9.29363 0.0832977ZM13.387 3.05814C13.6488 3.99819 13.7083 4.09338 14.0296 4.20048C14.2319 4.25997 14.7554 4.47416 15.2076 4.67645C15.9692 5.02153 16.0406 5.03343 16.3381 4.86684C16.5046 4.77164 16.933 4.53366 17.2662 4.33137L17.8969 3.98629L18.6822 4.77164L19.4676 5.557L18.9321 6.49706L18.3966 7.42521L18.6584 7.96067C18.8131 8.25816 19.0273 8.78173 19.1344 9.12681C19.3605 9.79318 19.3486 9.79318 20.9907 10.1978L21.4072 10.3049L21.4429 11.4472L21.4786 12.5776L20.4076 12.8632L19.3486 13.1369L19.2058 13.6248C19.1225 13.8866 18.9083 14.4101 18.7179 14.7909L18.3609 15.4811L18.8607 16.3378C19.1344 16.8019 19.3724 17.2303 19.3962 17.266C19.42 17.3017 19.0749 17.6825 18.6346 18.1227L17.8374 18.9081L16.9211 18.3726L15.993 17.849L15.3147 18.1941C14.9339 18.3845 14.4104 18.5987 14.1486 18.682L13.6607 18.8248L13.387 19.8838L13.1133 20.9429H12.0067H10.9L10.7811 20.5502C10.7097 20.3479 10.5669 19.86 10.4717 19.4912C10.2813 18.8367 10.2694 18.8129 9.65061 18.6106C9.31743 18.5035 8.78196 18.2893 8.48447 18.1346L7.949 17.8728L7.02085 18.4083L6.0808 18.9438L5.29544 18.1584C4.51009 17.3731 4.51009 17.3731 4.70048 17.0399C4.79567 16.8614 5.03366 16.4449 5.22405 16.1117L5.56913 15.493L5.20025 14.6838C4.99796 14.2316 4.78377 13.7081 4.72427 13.5058C4.61718 13.1845 4.52199 13.125 3.57004 12.8632L2.53479 12.5776L2.57049 11.4472L2.60619 10.3049L3.54624 10.055C4.06981 9.91217 4.53388 9.72178 4.58148 9.62659C4.64098 9.53139 4.86707 8.99592 5.10505 8.42475L5.54533 7.37761L5.05746 6.53275C4.78377 6.06868 4.56958 5.6522 4.56958 5.6165C4.56958 5.50941 6.0332 4.04578 6.1284 4.04578C6.176 4.04578 6.59247 4.25997 7.05655 4.53366L7.9014 5.02153L8.94855 4.58126C9.51972 4.34327 10.0552 4.11718 10.1504 4.05769C10.2456 4.01009 10.4241 3.60551 10.5431 3.14143C10.6621 2.68926 10.7929 2.24898 10.8167 2.16568C10.8524 2.07049 11.1975 2.02289 11.9829 2.02289H13.1133L13.387 3.05814ZM47.4549 8.73413C48.0142 8.97212 48.1213 9.3767 48.1213 11.4234C48.1213 13.4701 48.0142 13.8747 47.4549 14.1126C46.8718 14.3625 32.2356 14.3625 31.6525 14.1126C31.0933 13.8747 30.9862 13.4701 30.9862 11.4234C30.9862 9.4124 31.0933 8.97212 31.6287 8.73413C32.1761 8.49615 46.8718 8.49615 47.4549 8.73413ZM37.9354 26.8212C38.4947 27.0592 38.6018 27.4637 38.6018 29.5104C38.6018 31.5571 38.4947 31.9617 37.9354 32.1997C37.3523 32.4496 22.7161 32.4496 22.133 32.1997C21.5738 31.9617 21.4667 31.5571 21.4667 29.5104C21.4667 27.4994 21.5738 27.0592 22.1092 26.8212C22.6566 26.5832 37.3523 26.5832 37.9354 26.8212ZM50.2869 40.1604C50.6677 40.1961 51.4055 40.3745 51.9291 40.5649C54.3327 41.4455 56.2604 43.4089 57.1291 45.872C57.4385 46.7526 57.4623 46.9549 57.4623 48.5494C57.4623 50.1201 57.4385 50.3581 57.141 51.1792C56.665 52.5119 56.0462 53.4995 55.0348 54.511C53.1666 56.3792 50.7986 57.2359 48.2046 56.9861C45.0274 56.6767 42.1597 54.4039 41.053 51.2982C40.708 50.3343 40.6842 50.1796 40.6842 48.5494C40.6842 46.9549 40.708 46.7526 41.0173 45.872C41.9098 43.3613 43.8494 41.3979 46.3363 40.5173C47.1931 40.2199 48.6805 39.9819 49.3112 40.0533C49.4778 40.0771 49.9181 40.1247 50.2869 40.1604ZM28.4159 45.8602C28.9752 46.0981 29.0823 46.5027 29.0823 48.5494C29.0823 50.5961 28.9752 51.0007 28.4159 51.2387C27.8328 51.4885 13.1966 51.4885 12.6136 51.2387C12.0543 51.0007 11.9472 50.5961 11.9472 48.5494C11.9472 46.5384 12.0543 46.0981 12.5898 45.8602C13.1371 45.6222 27.8328 45.6222 28.4159 45.8602Z" fill="black"/>
<path d="M10.4135 5.90203C9.47344 6.15192 8.65238 6.63979 7.90272 7.37755C4.5709 10.7094 6.4748 16.4211 11.1512 17.1588C14.2213 17.6348 17.1128 15.5167 17.6721 12.3634C18.1719 9.55513 16.3632 6.73499 13.5073 5.90203C12.7101 5.66404 11.2821 5.66404 10.4135 5.90203ZM13.2574 7.96062C14.1856 8.3176 14.8519 8.93637 15.3041 9.84072C15.6373 10.5071 15.6849 10.757 15.6849 11.4709C15.6849 12.4943 15.3993 13.1844 14.6854 13.9698C13.9476 14.7671 13.0551 15.1597 11.9961 15.1597C11.2464 15.1597 11.0323 15.1121 10.3302 14.7552C8.05741 13.589 7.55764 10.7332 9.31874 8.88877C9.73522 8.43659 10.4016 8.03202 10.9966 7.84163C11.5558 7.67504 12.6506 7.73453 13.2574 7.96062Z" fill="black"/>
<path d="M32.8906 11.4234V12.3754H33.8426H34.7945V11.4234V10.4715H33.8426H32.8906V11.4234Z" fill="black"/>
<path d="M36.6992 11.4234V12.3754H37.6512H38.6031V11.4234V10.4715H37.6512H36.6992V11.4234Z" fill="black"/>
<path d="M40.5039 11.4234V12.3754H41.4559H42.4078V11.4234V10.4715H41.4559H40.5039V11.4234Z" fill="black"/>
<path d="M44.3125 11.4234V12.3754H45.2644H46.2164V11.4234V10.4715H45.2644H44.3125V11.4234Z" fill="black"/>
<path d="M23.3711 29.5105V30.4624H24.323H25.275V29.5105V28.5585H24.323H23.3711V29.5105Z" fill="black"/>
<path d="M27.1797 29.5105V30.4624H28.1316H29.0836V29.5105V28.5585H28.1316H27.1797V29.5105Z" fill="black"/>
<path d="M30.9844 29.5105V30.4624H31.9363H32.8883V29.5105V28.5585H31.9363H30.9844V29.5105Z" fill="black"/>
<path d="M34.793 29.5105V30.4624H35.7449H36.6969V29.5105V28.5585H35.7449H34.793V29.5105Z" fill="black"/>
<path d="M49.6434 47.4427L46.2164 50.8698L45.6215 50.2748L45.0265 49.6798L44.2768 50.4295L43.5391 51.1672L44.8837 52.5L46.2164 53.8446L50.405 49.656L54.6055 45.4556L53.8915 44.7416C53.4988 44.3489 53.1537 44.0276 53.1181 44.0276C53.0824 44.0276 51.5235 45.5626 49.6434 47.4427Z" fill="black"/>
<path d="M13.8516 48.5494V49.5013H14.8035H15.7555V48.5494V47.5974H14.8035H13.8516V48.5494Z" fill="black"/>
<path d="M17.6602 48.5494V49.5013H18.6121H19.5641V48.5494V47.5974H18.6121H17.6602V48.5494Z" fill="black"/>
<path d="M21.4648 48.5494V49.5013H22.4168H23.3687V48.5494V47.5974H22.4168H21.4648V48.5494Z" fill="black"/>
<path d="M25.2734 48.5494V49.5013H26.2254H27.1773V48.5494V47.5974H26.2254H25.2734V48.5494Z" fill="black"/>
</svg>
