<svg width="60" height="59" viewBox="0 0 60 59" fill="none" xmlns="http://www.w3.org/2000/svg">
<path d="M8.76554 0.132898C6.72062 0.604803 5.07501 1.51231 3.55039 3.03692C2.40088 4.19854 1.69908 5.23914 1.19087 6.55806C0.585866 8.11897 0.452765 8.99018 0.513265 10.9141C0.561665 12.3903 0.610066 12.7533 0.936769 13.7576C1.49337 15.4274 2.24358 16.6374 3.55039 17.9443C5.69211 20.086 7.99113 21.0298 11.0162 21.0298C13.9444 21.0298 16.2192 20.1223 18.3125 18.1258C20.4905 16.0324 21.5554 13.5277 21.5554 10.4906C21.5554 7.44136 20.4905 4.94874 18.2762 2.83122C17.1025 1.71801 15.7957 0.931505 14.2711 0.423302C13.2305 0.0844975 12.9522 0.0481987 11.3066 0.011898C10.0724 -0.0244026 9.26164 0.0239983 8.76554 0.132898ZM11.3792 2.21412C12.0931 2.57712 13.17 4.80354 13.4725 6.52176L13.5572 6.95736L12.2746 7.04206C11.5728 7.09046 10.4354 7.09046 9.73355 7.04206L8.46304 6.95736L8.53564 6.64276C9.08014 4.22273 9.83035 2.63762 10.6169 2.21412C11.0283 1.98421 10.9557 1.98421 11.3792 2.21412ZM7.72493 3.07323C7.51923 3.53303 7.19252 4.48894 7.01102 5.22704L6.66012 6.55806L6.21242 6.53386C5.54691 6.48546 3.74399 5.90465 3.74399 5.73525C3.74399 5.45695 4.9177 4.13803 5.65581 3.59353C6.34552 3.09743 7.79753 2.26252 8.00323 2.26252C8.05163 2.26252 7.91853 2.62552 7.72493 3.07323ZM15.1181 2.77072C16.1103 3.32733 17.1025 4.15014 17.7801 4.97294C18.1189 5.38435 18.3851 5.74735 18.3851 5.78365C18.3851 5.88045 15.8804 6.61856 15.5779 6.61856C15.4448 6.61856 15.3359 6.49756 15.2875 6.27975C15.0697 5.27544 14.5978 3.73873 14.2832 3.04902C13.9202 2.26252 13.9202 2.25042 14.1864 2.32302C14.3316 2.37142 14.7551 2.57712 15.1181 2.77072ZM4.0707 7.88907C4.5426 8.04637 5.26861 8.23997 5.66791 8.32467L6.40602 8.46987V10.4906V12.5113L5.65581 12.6686C5.23231 12.7654 4.4337 12.9832 3.8771 13.1768C3.09059 13.443 2.82439 13.4793 2.75179 13.3704C2.70338 13.2857 2.57028 12.8138 2.46138 12.3298C2.08628 10.6479 2.44928 7.30826 2.99379 7.52606C3.10269 7.57446 3.58669 7.73177 4.0707 7.88907ZM19.5346 8.49407C19.8008 9.57098 19.8008 11.3618 19.5346 12.5113C19.4257 12.9953 19.2926 13.4188 19.2442 13.443C19.1958 13.4793 18.6997 13.3462 18.131 13.1526C17.5744 12.9711 16.7758 12.7412 16.3644 12.6686L15.6142 12.5234V10.5027V8.49407L16.5701 8.27627C17.0904 8.15527 17.889 7.93747 18.3488 7.78017C18.7965 7.62287 19.2079 7.52606 19.2442 7.57446C19.2926 7.61077 19.4136 8.02217 19.5346 8.49407ZM13.8113 9.66778C13.8355 10.1276 13.8355 10.8657 13.8113 11.3134L13.7629 12.1483H10.992H8.22103V10.5027V8.85708H10.992H13.775L13.8113 9.66778ZM12.5529 13.9633L13.5451 14.0359L13.4725 14.4715C13.17 16.1534 12.1415 18.3194 11.4276 18.7913C11.1372 18.9849 11.0767 18.9849 10.7016 18.8034C9.99975 18.4646 9.20114 17.0488 8.78974 15.3911C8.40253 13.8544 8.35413 14.0117 9.21324 13.9633C10.7016 13.8786 11.5607 13.8786 12.5529 13.9633ZM6.85372 15.1733C7.04732 16.1776 7.56763 17.6902 7.91853 18.3194L8.19683 18.8276L7.56763 18.5493C6.22452 17.9564 5.05081 17.0488 4.1675 15.9235L3.61089 15.2096L3.9497 15.0765C4.712 14.7861 6.23662 14.3747 6.46652 14.3989C6.64802 14.4231 6.73272 14.5804 6.85372 15.1733ZM16.6911 14.653C18.3004 15.1007 18.4456 15.1733 18.252 15.4274C17.042 17.0125 15.4932 18.2468 14.1864 18.6461C13.9202 18.7308 13.9202 18.7187 14.2711 17.9685C14.5736 17.303 15.0697 15.742 15.2875 14.6893C15.3843 14.29 15.4085 14.29 16.6911 14.653Z" fill="black"/>
<path d="M37.372 1.27035C36.3193 1.94795 36.3556 1.68175 36.3556 8.82081V15.0645L36.7186 15.5848C37.372 16.5044 37.5414 16.5407 40.6996 16.5407H43.4705L43.3858 17.0489C43.3374 17.3393 43.2406 17.7749 43.168 18.0169L43.0349 18.4767H42.079C41.2925 18.4767 41.0989 18.513 40.8932 18.7187C40.5907 19.0212 40.5786 19.5778 40.8811 19.9408L41.111 20.2312L46.6044 20.2675C50.2344 20.2917 52.231 20.2675 52.5335 20.1707C53.2232 19.9771 53.4047 19.0938 52.8481 18.634C52.7513 18.5493 52.2431 18.4767 51.7228 18.4525L50.7668 18.4162L50.6216 17.9322C50.549 17.666 50.4522 17.2425 50.4159 16.9884L50.3433 16.5407H53.1264C56.1393 16.5407 56.2603 16.5165 56.8895 15.851C57.071 15.6695 57.2767 15.3549 57.3372 15.1734C57.4219 14.9435 57.4703 12.7412 57.4703 8.72401C57.4703 2.86756 57.4582 2.60136 57.2283 2.14155C57.0952 1.88745 56.7927 1.52445 56.5386 1.33085L56.103 0.992044L47.0158 0.955744L37.9165 0.931543L37.372 1.27035ZM55.5101 2.89176C55.619 3.00066 55.6553 4.19857 55.6553 7.5503V12.0636H46.8827H38.1101V7.635C38.1101 4.81568 38.1585 3.13376 38.2311 2.97646C38.3521 2.75866 38.582 2.74656 46.8585 2.74656C53.32 2.74656 55.4012 2.78286 55.5101 2.89176ZM55.6553 14.2417C55.6553 14.5321 55.5827 14.641 55.3407 14.7257C55.1592 14.7983 51.868 14.8467 46.8464 14.8467C37.9044 14.8467 38.1101 14.8588 38.1101 14.1691V13.8787H46.8827H55.6553V14.2417ZM48.6251 17.3272C48.6977 17.7628 48.7945 18.1984 48.8308 18.2952C48.8913 18.4525 48.6372 18.4767 46.9432 18.4767H44.983L45.0556 18.0774C45.104 17.8717 45.1766 17.4361 45.2129 17.1094L45.2855 16.5407H46.8827H48.492L48.6251 17.3272Z" fill="black"/>
<path d="M27.46 2.15366C25.1489 2.27467 22.2569 2.81917 21.7124 3.24267C21.3252 3.55728 21.301 4.21068 21.664 4.57369C21.9665 4.87619 22.1238 4.86409 24.314 4.40428C27.0849 3.82348 30.1704 3.75088 33.1712 4.22278C34.0908 4.35588 34.1271 4.35588 34.4176 4.07758C34.8048 3.71458 34.8169 3.12167 34.4538 2.77077C33.9456 2.29887 30.5213 1.99636 27.46 2.15366Z" fill="black"/>
<path d="M3.75561 21.1992C3.62251 21.3686 3.44101 21.8768 3.33211 22.3245C2.2189 27.225 2.4004 32.2103 3.86451 36.7841C4.13072 37.6069 4.44532 38.3692 4.56632 38.4781C4.86882 38.7564 5.58273 38.7443 5.83683 38.466C6.13934 38.1393 6.09093 37.7158 5.61903 36.2517C4.34852 32.3071 4.08232 27.7574 4.90512 23.8249C5.37703 21.6106 5.38913 21.4533 5.08663 21.1508C4.72362 20.7878 4.07022 20.812 3.75561 21.1992Z" fill="black"/>
<path d="M26.9407 21.6953C24.9321 22.0583 22.6331 23.1836 21.1447 24.5267C20.4792 25.1317 20.3945 25.2648 20.3945 25.6762C20.3945 26.0029 20.4671 26.1965 20.6728 26.3538C21.1568 26.741 21.544 26.6442 22.391 25.9061C26.3478 22.4576 31.9622 22.4576 35.919 25.9061C36.766 26.6442 37.1532 26.7531 37.6372 26.3538C37.8429 26.1965 37.9155 26.0029 37.9155 25.6762C37.9155 25.2769 37.8308 25.1438 37.2742 24.6235C34.5517 22.1309 30.6554 21.0177 26.9407 21.6953Z" fill="black"/>
<path d="M53.4629 22.1188C53.1725 22.4092 53.1846 22.5423 53.5234 24.4057C54.3825 29.0159 53.7291 34.3399 51.7689 38.6718C51.5753 39.0953 51.418 39.5551 51.418 39.7003C51.418 40.3174 52.0714 40.7288 52.6885 40.4989C53.5113 40.1843 55.0722 35.441 55.5441 31.8473C55.9555 28.7013 55.4352 22.5423 54.7213 22.022C54.3946 21.78 53.7533 21.8284 53.4629 22.1188Z" fill="black"/>
<path d="M28.3664 26.9589C27.0354 27.092 25.6197 27.7091 24.7364 28.5561C24.1193 29.1611 24.0104 29.6693 24.4339 30.0928C24.8211 30.48 25.3535 30.4074 26.0674 29.8508C28.0397 28.3262 30.5081 28.3504 32.3232 29.9113C33.1702 30.6373 34.114 30.3832 34.114 29.4394C34.114 29.1006 34.0172 28.9312 33.5453 28.5198C32.1901 27.3219 30.3145 26.7532 28.3664 26.9589Z" fill="black"/>
<path d="M46.0336 30.9882C44.6179 31.6537 43.9645 33.1783 44.4243 34.715C44.5937 35.3079 45.3439 36.167 45.9126 36.4332L46.3361 36.6389V38.6113V40.5836L45.5859 40.7893C43.5046 41.3701 41.8348 43.0641 41.2903 45.1453L41.0725 45.9439H39.1365H37.1884L36.9706 45.4599C36.7044 44.8549 35.8453 44.0926 35.2282 43.9111C33.1954 43.294 31.2109 44.7218 31.2109 46.7909C31.2109 49.0053 33.51 50.4694 35.5065 49.5256C36.1599 49.2231 36.8496 48.5334 37.0432 47.9767L37.1642 47.6379H39.1244H41.0967L41.2298 48.2187C41.738 50.421 43.5167 52.2481 45.7311 52.841C46.3966 53.0225 48.2116 53.0225 48.8892 52.841C49.4095 52.6958 50.2807 52.3086 50.7768 51.994C51.043 51.8246 51.1156 51.873 52.4345 53.1919L53.8018 54.5592L53.6324 55.1279C53.2694 56.2774 53.6445 57.5358 54.5762 58.3344C55.2418 58.891 55.7379 59.0483 56.7422 58.9878C58.3394 58.9031 59.4163 57.8262 59.501 56.229C59.5615 55.2247 59.4042 54.7286 58.8476 54.0631C58.049 53.1435 56.7785 52.7684 55.6411 53.1193L55.0724 53.2887L53.7171 51.9335L52.3619 50.5662L52.858 49.5619C53.4388 48.376 53.6324 47.2628 53.4751 45.9681C53.1484 43.4271 51.2245 41.2854 48.7319 40.7167L48.1511 40.5836V38.6113V36.651L48.4899 36.53C49.4821 36.1912 50.3291 34.8965 50.3291 33.7228C50.3291 31.5085 48.018 30.0444 46.0336 30.9882ZM48.1027 32.9242C48.5504 33.3719 48.623 33.7712 48.3447 34.3157C48.1632 34.6545 47.7034 34.9328 47.3041 34.9328C46.1062 34.9328 45.6585 33.263 46.7112 32.6822C47.2194 32.4039 47.655 32.4765 48.1027 32.9242ZM49.0707 42.7979C50.0387 43.2335 50.6921 43.8385 51.1519 44.7097C52.5797 47.3838 51.0067 50.5783 47.9938 51.1349C46.2393 51.4616 44.3275 50.5057 43.4562 48.8843C42.5003 47.0813 42.7907 45.1211 44.2186 43.7054C45.5738 42.3381 47.3646 42.0114 49.0707 42.7979ZM34.8289 45.7503C35.93 46.319 35.4339 48.0009 34.1634 48.0009C33.7157 48.0009 33.026 47.2749 33.026 46.8272C33.0381 45.8713 33.9698 45.3147 34.8289 45.7503ZM56.8995 54.8859C58.17 55.3699 57.8675 57.197 56.5244 57.197C55.3023 57.197 54.903 55.5514 55.992 54.9706C56.3792 54.7528 56.5123 54.7407 56.8995 54.8859Z" fill="black"/>
<path d="M28.5614 32.3072C27.5934 32.8033 27.5208 34.2795 28.4525 34.7635C29.1301 35.1144 30.074 34.8603 30.3523 34.2432C30.5459 33.8197 30.5096 33.0937 30.2918 32.7791C29.9045 32.2225 29.1301 32.0047 28.5614 32.3072Z" fill="black"/>
<path d="M10.1589 37.123C6.40791 37.8853 5.4157 42.8463 8.59803 44.9639C10.8123 46.4401 13.7769 45.6294 14.9506 43.2093C15.2531 42.5922 15.2894 42.3502 15.3015 41.4064C15.3015 40.4142 15.2652 40.2448 14.9022 39.5067C14.031 37.728 12.0466 36.7358 10.1589 37.123ZM12.3007 39.2405C13.2324 39.7729 13.7164 40.9708 13.426 42.0114C12.9662 43.6691 11.018 44.4073 9.63863 43.4513C8.92473 42.9552 8.42862 41.963 8.51332 41.2007C8.71903 39.301 10.6671 38.2967 12.3007 39.2405Z" fill="black"/>
<path d="M9.37124 46.0286C5.51131 46.8877 2.75248 50.1427 2.72828 53.8695C2.71618 54.777 2.76458 55.0432 2.98238 55.4667C3.88989 57.1607 6.86652 58.165 11.0048 58.165C14.6348 58.165 17.4299 57.3785 18.6157 56.0354C19.378 55.1642 19.5232 54.2446 19.1602 52.5022C18.531 49.4288 16.0384 46.8393 13.0376 46.1254C12.3237 45.956 9.96415 45.8955 9.37124 46.0286ZM12.6867 47.9646C15.3124 48.6907 17.2121 50.9292 17.4904 53.6517L17.5751 54.414L17.1032 54.8738C16.595 55.382 15.7238 55.7571 14.3323 56.0838C13.1344 56.3621 8.87514 56.3621 7.67723 56.0838C6.29781 55.7692 5.41451 55.382 4.9305 54.898C4.4102 54.3777 4.386 54.1962 4.6522 52.9015C5.41451 49.2594 9.12924 46.9724 12.6867 47.9646Z" fill="black"/>
<path d="M39.1355 51.268C36.2073 52.6353 32.7467 53.3492 29.1529 53.3492C26.8781 53.3492 25.4019 53.1798 23.2481 52.6595C21.7598 52.2965 21.3847 52.2844 21.1305 52.5748C20.8401 52.8894 20.8643 53.6033 21.1668 53.8695C21.2879 53.9784 21.8808 54.2083 22.4616 54.3535C28.2333 55.8539 34.7916 55.2973 40.0188 52.9015C40.6601 52.599 40.9263 52.4054 41.011 52.1755C41.253 51.5342 40.8295 50.8929 40.164 50.9171C39.9946 50.9171 39.5348 51.0744 39.1355 51.268Z" fill="black"/>
</svg>
