<svg width="60" height="59" viewBox="0 0 60 59" fill="none" xmlns="http://www.w3.org/2000/svg">
<path d="M39.1972 0.0805893C38.8629 0.218914 38.7707 0.668472 38.713 2.57044L38.6554 4.50699L37.8139 4.86433L36.9609 5.22167L35.6814 3.94217C34.2751 2.54739 33.9408 2.3399 33.3645 2.53586C32.9264 2.67419 28.6384 6.95074 28.5116 7.35419C28.3502 7.88443 28.5807 8.24177 29.9179 9.59044L31.255 10.9276L30.8977 11.7806L30.5403 12.6221L28.6038 12.6797C27.3934 12.7143 26.575 12.795 26.4252 12.8757C25.9756 13.1293 25.918 13.6019 25.918 16.7142C25.918 19.8265 25.9756 20.2991 26.4252 20.5527C26.575 20.6334 27.3819 20.7141 28.6038 20.7487L30.5403 20.8063L30.8977 21.6478L31.255 22.4893L29.9179 23.8379C28.5346 25.2442 28.3271 25.5901 28.5577 26.1549C28.7536 26.616 33.0532 30.8579 33.4336 30.9502C33.9524 31.077 34.229 30.904 35.6238 29.5323L36.9725 28.2067L37.8139 28.564L38.6554 28.9214L38.713 30.8579C38.7707 32.9789 38.8398 33.2095 39.4162 33.417C39.9119 33.5899 45.5832 33.5899 46.0789 33.417C46.6552 33.2095 46.7244 32.9789 46.782 30.8579L46.8396 28.9214L47.6811 28.564L48.5341 28.2067L49.8136 29.4862C51.2661 30.9156 51.4851 31.0539 52.0038 30.9386C52.4879 30.8349 56.7414 26.6505 56.9259 26.1088C57.1218 25.5209 56.9143 25.1866 55.5196 23.7803L54.24 22.5008L54.5974 21.6478L54.9547 20.8063L56.8913 20.7487C58.8394 20.691 59.2428 20.6103 59.3927 20.2184C59.4272 20.1262 59.4618 18.5239 59.4618 16.6681V13.2906L59.1621 13.014C58.8855 12.7489 58.7817 12.7373 56.9028 12.6797L54.9317 12.6221L54.5859 11.7806L54.2516 10.9276L55.5657 9.59044C56.8797 8.2533 57.1333 7.86138 56.9489 7.4003C56.8221 7.05448 52.4764 2.66266 52.1306 2.53586C51.6003 2.32837 51.2545 2.53586 49.8713 3.89606L48.5226 5.22167L47.6811 4.87586L46.8396 4.54158L46.782 2.57044C46.7244 0.68 46.7129 0.576256 46.4477 0.299606L46.1711 -9.91821e-05L42.7591 0.0114288C40.8801 0.0114288 39.2779 0.0460091 39.1972 0.0805893ZM44.7071 3.90759C44.7071 6.08621 44.6956 6.07468 46.0097 6.50118C46.5054 6.67409 47.2661 6.98532 47.7042 7.20433C48.1422 7.42335 48.6494 7.60778 48.8108 7.60778C49.0529 7.60778 49.4217 7.31961 50.4361 6.31675L51.7502 5.02571L53.0873 6.37438L54.436 7.71153L53.145 9.02562C52.1421 10.04 51.8539 10.4089 51.8539 10.6509C51.8539 10.8123 52.0384 11.3195 52.2574 11.7575C52.4764 12.1956 52.7876 12.9564 52.9605 13.452C53.387 14.7661 53.3755 14.7546 55.5541 14.7546H57.3869V16.7142V18.6738H55.5541C53.3755 18.6738 53.387 18.6623 52.9605 19.9764C52.7876 20.472 52.4764 21.2328 52.2574 21.6708C52.0384 22.1089 51.8539 22.6161 51.8539 22.7774C51.8539 23.0195 52.1536 23.3884 53.1796 24.4258L54.5052 25.7745L53.145 27.1232L51.7963 28.4718L50.4592 27.1462C49.4217 26.1203 49.0529 25.8206 48.8108 25.8206C48.6494 25.8206 48.1076 26.0166 47.612 26.2702C47.1278 26.5122 46.367 26.8235 45.9175 26.9733C44.7071 27.3537 44.7071 27.3537 44.7071 29.5784V31.4689H42.7475H40.7879V29.5669C40.7879 27.3422 40.811 27.3768 39.5661 26.9733C39.128 26.8235 38.3672 26.5122 37.8831 26.2702C37.3874 26.0166 36.8457 25.8206 36.6843 25.8206C36.4422 25.8206 36.0733 26.1203 35.0359 27.1462L33.6988 28.4718L32.3501 27.1232L30.9899 25.7745L32.3155 24.4258C33.3414 23.3884 33.6411 23.0195 33.6411 22.7774C33.6411 22.6161 33.4452 22.0743 33.1916 21.5786C32.9495 21.0945 32.6383 20.3337 32.4884 19.8957C32.085 18.6507 32.1195 18.6738 29.8948 18.6738H27.9928V16.7142V14.7546H29.8833C32.108 14.7546 32.108 14.7546 32.4884 13.5442C32.6383 13.0947 32.9495 12.3339 33.1916 11.8498C33.4452 11.3541 33.6411 10.8123 33.6411 10.6509C33.6411 10.4089 33.3414 10.04 32.3155 9.00256L30.9899 7.66542L32.3386 6.31675L33.6872 4.95655L35.0359 6.28217C36.0733 7.30808 36.4422 7.60778 36.6843 7.60778C36.8457 7.60778 37.3528 7.42335 37.7909 7.20433C38.2289 6.98532 38.9897 6.67409 39.4854 6.50118C40.7994 6.07468 40.7879 6.08621 40.7879 3.90759V2.07478H42.7475H44.7071V3.90759Z" fill="black"/>
<path d="M40.8335 7.99974C36.6952 8.94496 33.8711 12.4838 33.8711 16.7142C33.8711 21.717 37.7442 25.5901 42.747 25.5901C47.035 25.5901 50.5739 22.7198 51.473 18.524C51.6805 17.4981 51.6228 15.3656 51.3462 14.3512C51.0695 13.3483 50.3318 11.919 49.6632 11.1005C48.5566 9.74033 46.793 8.58762 45.11 8.11501C44.1648 7.86141 41.7556 7.79225 40.8335 7.99974ZM44.3031 10.0861C48.0264 11.0314 50.3087 14.8353 49.3059 18.4433C48.7756 20.3683 47.4615 21.9821 45.7209 22.8005C44.6143 23.3308 43.8651 23.5152 42.747 23.5152C41.6288 23.5152 40.8796 23.3308 39.7499 22.8005C37.4445 21.6939 35.946 19.2963 35.946 16.7142C35.946 15.5961 36.1304 14.8468 36.6607 13.7287C37.2024 12.5875 38.3667 11.3426 39.4041 10.7778C40.8911 9.9824 42.8161 9.70575 44.3031 10.0861Z" fill="black"/>
<path d="M42.1144 12.8066C40.5006 13.0371 39.3018 14.1322 38.8753 15.7806C38.1491 18.6624 40.8003 21.3136 43.6705 20.5874C44.6158 20.3453 45.3996 19.8381 45.9183 19.135C46.4947 18.3511 46.6906 17.7287 46.6906 16.6797C46.6906 15.9304 46.633 15.6768 46.3448 15.0659C45.5264 13.3714 43.9818 12.5415 42.1144 12.8066ZM43.7973 15.1581C44.3045 15.5385 44.512 15.9304 44.5697 16.5414C44.7426 18.5702 42.1951 19.4001 41.1231 17.671C40.5813 16.795 40.9271 15.527 41.8377 15.0544C42.3449 14.8008 43.3939 14.8584 43.7973 15.1581Z" fill="black"/>
<path d="M4.47685 10.847C3.00138 11.0891 1.56049 12.1841 0.868867 13.5904L0.5 14.3512V34.9271V55.503L0.834286 56.1946C1.3069 57.1513 2.24059 58.0966 3.18581 58.5692L3.95813 58.9611L26.897 58.9957C39.5192 59.0072 49.9512 58.9957 50.0896 58.9611C50.7236 58.8112 50.7005 59.3069 50.7005 45.3015V32.3911H49.6631H48.6256V44.6675V56.9439H26.6435C5.61803 56.9439 4.6267 56.9323 4.18867 56.7248C3.65842 56.4828 2.90916 55.7105 2.67862 55.1456C2.20601 54.0275 2.67862 52.4829 3.71606 51.7912C4.46532 51.2725 4.90335 51.1803 6.45951 51.1803H7.79665L8.09636 50.823L8.39606 50.4656V35.6072V20.7488H16.2345H24.0729V19.7113V18.6739H16.2345H8.39606V15.1581C8.39606 11.2504 8.37301 11.0891 7.69291 10.847C7.26641 10.6971 5.39902 10.6971 4.47685 10.847ZM6.32118 30.9503V49.1054H5.62956C4.74197 49.1054 3.86591 49.3014 3.18581 49.6357C2.88611 49.7855 2.60946 49.9123 2.57488 49.9123C2.5403 49.9123 2.51724 42.0624 2.51724 32.4718C2.51724 15.8382 2.52877 15.0198 2.73626 14.5818C3.24345 13.4636 4.30394 12.8412 5.77941 12.8066L6.32118 12.7951V30.9503Z" fill="black"/>
<path d="M10.8647 23.6307C10.2422 23.8843 10.2422 23.9188 10.2422 28.5527V32.8408L10.5188 33.1636L10.7955 33.4863H17.1354H23.4753L23.775 33.2097C24.0747 32.933 24.0747 32.91 24.0747 31.2155V29.5095H26.0343H27.9939V28.472V27.4346H26.0343H24.0747V25.7862C24.0747 24.1609 24.0747 24.1263 23.775 23.8497L23.4753 23.573L17.2968 23.55C13.8963 23.5384 10.9914 23.573 10.8647 23.6307ZM21.9998 28.5297V31.4691H17.1584H12.3171V28.5297V25.5903H17.1584H21.9998V28.5297Z" fill="black"/>
<path d="M37.7919 38.3277V41.2671H35.1407H32.478L32.2013 41.5553C31.9247 41.8204 31.9131 41.8781 31.9131 43.5149V45.1863H27.9939H24.0747V43.5149C24.0747 41.8781 24.0632 41.8204 23.7865 41.5553L23.5099 41.2671H17.1584H10.807L10.5304 41.5553L10.2422 41.8319V46.2238V50.6156L10.5304 50.8922L10.807 51.1804H17.1584H23.5099L23.7865 50.8922C24.0632 50.6271 24.0747 50.5695 24.0747 48.9326V47.2612H27.9939H31.9131V48.9326C31.9131 50.5695 31.9247 50.6271 32.2013 50.8922L32.478 51.1804H38.7602C42.2068 51.1804 45.1232 51.1458 45.2269 51.1113C45.7111 50.9268 45.7456 50.5925 45.7456 46.2353C45.7456 43.4342 45.6995 41.9933 45.6188 41.8089C45.3998 41.3248 45.0886 41.2671 42.4028 41.2671H39.8668V38.3277V35.3883H38.8294H37.7919V38.3277ZM21.9998 46.2238V49.1055H17.1584H12.3171V46.2238V43.342H17.1584H21.9998V46.2238ZM43.6708 46.2238V49.1055H38.8294H33.988V46.2238V43.342H38.8294H43.6708V46.2238Z" fill="black"/>
</svg>
