<svg width="56" height="59" viewBox="0 0 56 59" fill="none" xmlns="http://www.w3.org/2000/svg">
<path d="M0.730469 0.230469C0.5 0.460938 0.5 0.610741 0.5 23.9918V47.5342L6.23867 53.2613L11.9658 59H29.2855H46.5938V58.0781V57.1562H30H13.4062V51.8555C13.4062 46.7045 13.3947 46.5432 13.1758 46.3242C12.9568 46.1053 12.7955 46.0938 7.64453 46.0938H2.34375V23.9688V1.84375H24.4688H46.5938V22.125V42.4062H47.5156H48.4375V21.4336C48.4375 0.610741 48.4375 0.460938 48.207 0.230469C47.9766 0 47.8268 0 24.4688 0C1.11074 0 0.960938 0 0.730469 0.230469ZM11.5625 51.7979C11.5625 53.9182 11.551 55.6582 11.5279 55.6582C11.5164 55.6582 9.76484 53.9182 7.64453 51.7979L3.78418 47.9375H7.6791H11.5625V51.7979Z" fill="black"/>
<path d="M4.41797 3.91797C4.19902 4.13691 4.1875 4.29824 4.1875 7.375C4.1875 10.4518 4.19902 10.6131 4.41797 10.832C4.63691 11.051 4.79824 11.0625 8.79688 11.0625C12.7955 11.0625 12.9568 11.051 13.1758 10.832C13.3947 10.6131 13.4062 10.4518 13.4062 7.375C13.4062 4.29824 13.3947 4.13691 13.1758 3.91797C12.9568 3.69902 12.7955 3.6875 8.79688 3.6875C4.79824 3.6875 4.63691 3.69902 4.41797 3.91797ZM11.5625 7.375V9.21875H8.79688H6.03125V7.375V5.53125H8.79688H11.5625V7.375Z" fill="black"/>
<path d="M15.25 4.60938V5.53125H16.1719H17.0938V4.60938V3.6875H16.1719H15.25V4.60938Z" fill="black"/>
<path d="M18.9375 4.60938V5.53125H31.3828H43.8281V4.60938V3.6875H31.3828H18.9375V4.60938Z" fill="black"/>
<path d="M21.4277 8.46973C18.4777 8.95371 15.6314 10.1176 13.177 11.8461C11.7826 12.8256 9.6623 14.9574 8.64824 16.3633C7.19629 18.4145 6.00938 21.1455 5.4332 23.7729C5.20273 24.7984 5.17969 25.2824 5.17969 27.6562C5.17969 30.0301 5.20273 30.5141 5.4332 31.5396C5.99785 34.1439 7.19629 36.8865 8.65977 38.9492C9.65078 40.3436 11.7711 42.4754 13.177 43.4779C15.2281 44.9299 17.9707 46.1283 20.5865 46.693C22.1998 47.0387 26.4865 47.0732 28.0998 46.7506C30.6234 46.232 33.2738 45.1258 35.348 43.7314L36.4889 42.9594L38.275 44.7455L40.0727 46.5432L39.6463 47.0041C39.3006 47.3959 39.2199 47.5687 39.2199 47.9605V48.4561L44.4977 53.7223L49.7639 59H50.2824H50.7895L53.3016 56.4879L55.8137 53.9758V53.4688V52.9502L50.5359 47.684L45.2697 42.4062H44.7742C44.3824 42.4062 44.2096 42.4869 43.8178 42.8326L43.3568 43.259L41.5592 41.4613L39.773 39.6752L40.5451 38.5344C41.951 36.4602 43.0457 33.8098 43.5643 31.2861C43.7256 30.4564 43.7717 29.7189 43.7717 27.5986C43.7717 25.2824 43.7371 24.7984 43.5066 23.7729C42.9305 21.1455 41.7436 18.4145 40.2916 16.3633C39.2891 14.9574 37.1572 12.8371 35.7629 11.8461C33.7002 10.3826 30.9691 9.18418 28.4225 8.63105C26.9359 8.3084 22.9834 8.21621 21.4277 8.46973ZM26.0371 10.302C28.9641 10.4863 32.2943 11.7539 34.8986 13.7014C36.3736 14.7961 38.2289 16.8012 39.243 18.3914C40.2109 19.901 41.1789 22.3324 41.6053 24.3145C41.9049 25.7088 41.9049 29.6037 41.6053 30.998C40.8908 34.3629 39.3582 37.2668 37.0305 39.6752C35.5439 41.2193 34.2648 42.1873 32.5248 43.0861C30.2547 44.273 28.0191 44.9068 25.6223 45.0336C22.2459 45.2295 19.365 44.6187 16.415 43.0861C13.2576 41.4498 10.6764 38.8686 9.04004 35.7111C7.50742 32.7611 6.89668 29.8803 7.09258 26.5039C7.21934 24.107 7.85313 21.883 9.04004 19.5898C11.7826 14.2775 17.2563 10.6822 23.2023 10.2674C23.8707 10.2213 24.5736 10.1982 24.758 10.2213C24.9539 10.2328 25.5186 10.2674 26.0371 10.302ZM40.1994 42.9824C41.8357 44.6187 41.9164 44.7225 41.7205 44.9068C41.5361 45.1027 41.4324 45.0221 39.773 43.3627C38.2635 41.8531 38.0445 41.5881 38.1713 41.4383C38.2635 41.3346 38.3557 41.2539 38.4018 41.2539C38.4363 41.2539 39.2545 42.026 40.1994 42.9824ZM45.4426 45.46L46.0764 46.0938L44.4861 47.684L42.9074 49.2627L42.2506 48.5943L41.5822 47.9375L43.1379 46.3818C43.9906 45.5291 44.7166 44.8262 44.7512 44.8262C44.7857 44.8262 45.0969 45.1143 45.4426 45.46ZM50.5129 50.5303L53.4514 53.4688L51.8611 55.0475L50.2824 56.6377L47.3209 53.6762L44.3479 50.7031L45.9035 49.1475C46.7563 48.2947 47.4822 47.5918 47.5168 47.5918C47.5514 47.5918 48.8996 48.917 50.5129 50.5303Z" fill="black"/>
<path d="M21.7953 13.0906C18.7877 13.6322 16.0797 15.0842 13.9018 17.3197C12.6803 18.5758 11.9773 19.5438 11.2744 20.9266C10.2027 23.0123 9.71875 25.1326 9.71875 27.6563C9.71875 30.7906 10.5023 33.3949 12.2193 35.9992C12.9338 37.0709 14.6738 38.8571 15.7916 39.6637C17.5316 40.9197 19.7787 41.8647 21.899 42.2334C23.1896 42.4639 25.7709 42.4524 27.073 42.2334C31.5902 41.4383 35.6119 38.4307 37.7092 34.2707C38.7578 32.185 39.2188 30.1684 39.2188 27.6563C39.2188 23.5424 37.8359 20.143 34.9781 17.2506C32.7771 15.0266 30.0807 13.6092 27.0385 13.0791C25.8055 12.8602 23.0053 12.8717 21.7953 13.0906ZM25.7939 14.9113C30.8182 15.2686 35.4506 19.2211 36.891 24.3951C37.1791 25.4322 37.2021 25.6858 37.2021 27.6563C37.2021 29.6153 37.1791 29.8803 36.891 30.8944C35.635 35.4115 32.2355 38.811 27.7414 40.067C26.6812 40.3666 26.4393 40.3897 24.4688 40.3897C22.5674 40.3897 22.2332 40.3551 21.3574 40.1131C18.9605 39.4332 16.99 38.3039 15.3998 36.6906C10.3986 31.6434 10.3986 23.6115 15.4113 18.5988C17.0361 16.9856 19.0182 15.8332 21.1961 15.2571C22.2447 14.9805 24.0885 14.75 24.6416 14.8192C24.7684 14.8422 25.2869 14.8768 25.7939 14.9113Z" fill="black"/>
<path d="M25.1371 23.7037L21.7146 27.1262L21.0232 26.4693C20.4125 25.8816 20.2857 25.8125 19.8479 25.8125C19.3639 25.8125 19.3063 25.8586 17.7621 27.4027C16.1949 28.9699 16.1719 28.993 16.1719 29.5V30.007L18.684 32.5191L21.1961 35.0312H21.7031H22.2217L27.4879 29.7535L32.7656 24.4873V23.9688C32.7656 23.4617 32.7426 23.4387 31.1754 21.8715C29.6082 20.3043 29.5736 20.2812 29.0781 20.2812H28.5711L25.1371 23.7037ZM29.7695 23.335L30.4033 23.9688L26.0475 28.3246L21.7031 32.6689L20.1244 31.0902L18.5342 29.5L19.191 28.8432L19.8479 28.1863L20.5393 28.8432C21.15 29.4309 21.2768 29.5 21.7146 29.5C22.2102 29.5 22.2102 29.5 25.6211 26.1006C27.4879 24.2338 29.0436 22.7012 29.0781 22.7012C29.1127 22.7012 29.4238 22.9893 29.7695 23.335Z" fill="black"/>
<path d="M4.41807 13.1367C4.19913 13.3557 4.1876 13.517 4.1876 16.5937C4.1876 20.3965 4.15303 20.2812 5.33995 20.2812H6.03135V17.5156V14.75H7.41417H8.79698V13.8281V12.9062H6.72276C4.79835 12.9062 4.63702 12.9178 4.41807 13.1367Z" fill="black"/>
<path d="M15.25 50.7031V51.625H23.5469H31.8438V50.7031V49.7812H23.5469H15.25V50.7031Z" fill="black"/>
<path d="M15.25 54.3906V55.3125H16.1719H17.0938V54.3906V53.4688H16.1719H15.25V54.3906Z" fill="black"/>
<path d="M18.9375 54.3906V55.3125H27.2344H35.5312V54.3906V53.4688H27.2344H18.9375V54.3906Z" fill="black"/>
</svg>
