<svg width="60" height="59" viewBox="0 0 60 59" fill="none" xmlns="http://www.w3.org/2000/svg">
<path d="M8.15291 0.161327C7.57674 0.414845 6.93142 1.06015 6.65486 1.6709C6.40135 2.20098 6.3783 2.4084 6.3783 4.05625V5.87695H4.56912C2.90974 5.87695 2.70232 5.9 2.17224 6.15351C1.53846 6.4416 0.904666 7.08691 0.662674 7.67461C0.524393 7.99726 0.501346 12.0189 0.501346 32.4385C0.501346 59.5301 0.432206 57.2254 1.28494 58.1242C1.51541 58.3662 1.91873 58.6658 2.17224 58.7811C2.61014 58.9885 3.25545 59 17.3947 59H32.1562L32.3982 58.735C32.767 58.3432 32.7439 57.6287 32.3521 57.26L32.0525 56.9834L17.5791 56.9488L3.10564 56.9258L2.8406 56.6723L2.57556 56.4303V32.427V8.42363L2.87517 8.19316C3.18631 7.95117 3.20935 7.95117 15.551 7.95117H27.9156L27.9502 12.6988C27.9847 17.9535 27.9732 17.8383 28.7453 18.7256C28.9642 18.9676 29.3906 19.2902 29.7133 19.4285C30.2894 19.7051 30.3125 19.7051 35.0486 19.7051H39.7963V21.0187C39.7963 22.2518 39.8193 22.367 40.0728 22.6666C40.4646 23.116 41.2021 23.116 41.5939 22.6666C41.859 22.3555 41.8705 22.2863 41.8705 20.3043V18.2646L35.6709 12.0766L29.4828 5.87695H18.9619H8.45252V4.2752C8.45252 2.83477 8.47556 2.65039 8.69451 2.37383L8.92498 2.07422H21.739H34.5531L40.1189 7.64004L45.6732 13.1943V17.0316C45.6732 20.9496 45.6963 21.1916 46.1226 21.5143C46.4453 21.7678 47.1482 21.6986 47.4594 21.376L47.7474 21.0994V16.6859V12.284L41.6054 6.14199L35.475 0H21.9926C10.9877 0.0115242 8.44099 0.0345688 8.15291 0.161327ZM34.1498 13.54L38.2406 17.6309H34.4724H30.7043L30.3816 17.3543L30.059 17.0777L30.0244 13.2635C30.0013 11.1662 30.0013 9.44922 30.0244 9.44922C30.0474 9.44922 31.9027 11.293 34.1498 13.54Z" fill="black"/>
<path d="M13.752 10.8435C12.1271 11.0509 10.1797 11.8345 8.85449 12.814C5.96211 14.9459 4.41797 18.0457 4.41797 21.7101C4.42949 27.4603 8.85449 32.1158 14.6277 32.4615C19.8594 32.7726 24.4227 29.4193 25.8055 24.2568C26.1166 23.1045 26.1166 20.1084 25.8055 18.956C24.9873 15.9138 22.8785 13.275 20.2051 11.9267C18.2346 10.9357 15.976 10.5554 13.752 10.8435ZM17.3703 13.1482C20.7006 13.9433 23.2588 16.6744 23.8926 20.0968C24.3074 22.367 23.6506 25.1095 22.2447 26.8841L21.899 27.3336L21.5188 26.5615C20.9311 25.3746 20.1705 24.4757 19.2486 23.842C19.191 23.7959 19.2832 23.5654 19.4445 23.3234C20.1014 22.367 20.3664 20.7306 20.0783 19.4861C19.652 17.5963 18.0271 16.0982 16.0566 15.764C13.5215 15.3261 10.9863 16.997 10.4217 19.4861C10.1336 20.7306 10.3986 22.367 11.0555 23.3234C11.2168 23.5654 11.309 23.7959 11.2514 23.842C10.3295 24.4757 9.56895 25.3746 8.98125 26.5615L8.60098 27.3336L8.25527 26.8841C7.7252 26.2158 7.22969 25.2709 6.87246 24.2568C6.58438 23.4041 6.56133 23.1966 6.5498 21.6064C6.5498 19.9701 6.57285 19.8318 6.90703 18.8754C7.88652 16.1328 10.0068 14.0701 12.6803 13.2519C14.259 12.7795 15.6879 12.7449 17.3703 13.1482ZM16.483 18.0687C18.6264 19.175 18.6609 22.0789 16.5291 23.1851C14.766 24.107 12.6111 22.9316 12.4037 20.9381C12.1732 18.7371 14.5355 17.0777 16.483 18.0687ZM15.25 25.582C15.6994 25.582 16.3332 25.4898 16.7365 25.3631L17.4395 25.1441L18.0617 25.5935C19.0297 26.2849 19.698 27.299 19.9631 28.4629C20.0668 28.9238 20.0668 28.9353 19.6289 29.2119C18.3613 30.0185 16.9785 30.3642 15.1348 30.3527C13.8211 30.3527 13.5906 30.3181 12.5996 29.9724C11.5625 29.6152 10.6061 29.1543 10.4793 28.9353C10.341 28.7279 10.8826 27.3336 11.332 26.6998C11.5855 26.3425 12.0811 25.847 12.4268 25.5935L13.0605 25.1441L13.7635 25.3631C14.1668 25.4898 14.8006 25.582 15.25 25.582Z" fill="black"/>
<path d="M45.3607 23.6346C42.791 23.9688 40.6477 25.0635 38.8615 26.9418C37.8359 28.025 37.1445 29.0852 36.649 30.3182C36.0152 31.8969 35.9576 32.2656 35.9 35.1465L35.8539 37.8545L35.416 38.1656C34.8744 38.5459 34.2867 39.3871 34.0793 40.0785C33.9525 40.4934 33.918 42.1182 33.918 48.2371C33.918 55.6697 33.9295 55.9002 34.16 56.5109C34.448 57.3061 35.2086 58.1588 36.0152 58.5967L36.626 58.9424H46.709H56.792L57.3682 58.6313C58.0596 58.2625 58.7971 57.5135 59.1658 56.8105L59.4424 56.292L59.477 48.3869C59.5 40.6316 59.5 40.4588 59.2695 39.8365C59.016 39.1682 58.3361 38.3039 57.8521 38.0389L57.5641 37.8891L57.5064 35.1004C57.4719 32.6689 57.4258 32.2195 57.2068 31.482C55.9277 27.1723 52.4131 24.1646 48.0342 23.6346C46.8818 23.4963 46.4094 23.4963 45.3607 23.6346ZM48.7832 25.8932C49.8549 26.1467 51.2607 26.8381 52.1135 27.5295C53.5078 28.6473 54.4412 29.9609 55.0404 31.6549C55.3977 32.6344 55.4092 32.7381 55.4438 34.9967L55.4898 37.3359H54.5564H53.623V35.4C53.623 33.1645 53.4732 32.3924 52.851 31.1939C52.0098 29.5922 50.5348 28.3592 48.8408 27.8176C47.7346 27.4604 46.0291 27.4143 44.9574 27.7023C42.5145 28.3592 40.6016 30.3182 39.9678 32.7842C39.8525 33.2566 39.7949 34.0518 39.7949 35.4V37.3359H38.873H37.9512V35.3424C37.9512 33.7867 37.9973 33.1645 38.1701 32.4385C38.5965 30.6754 39.3916 29.3272 40.7514 28.048C42.9523 25.9623 45.8447 25.1902 48.7832 25.8932ZM48.691 30.007C49.7051 30.491 50.5463 31.3322 51.0533 32.3578L51.4912 33.2336L51.5258 35.2848L51.5719 37.3359H46.7205H41.8691V35.5729C41.8691 33.7291 41.9844 33.0492 42.4338 32.1734C42.9523 31.1594 44.001 30.249 45.1303 29.8342C46.0637 29.5 47.8152 29.5807 48.691 30.007ZM56.5846 39.7098C56.7574 39.8365 57.0225 40.1246 57.1723 40.332L57.4258 40.7123V48.168V55.6236L57.1607 56.0154C57.0225 56.2229 56.7229 56.5225 56.5154 56.6607L56.1236 56.9258H46.709H37.2943L36.9025 56.6607C36.6951 56.5225 36.3955 56.2229 36.2572 56.0154L35.9922 55.6236V48.2602C35.9922 40.4703 35.9922 40.4357 36.5223 39.9633C37.1791 39.3871 36.7412 39.4102 46.8473 39.4332C56.1928 39.4678 56.2619 39.4678 56.5846 39.7098Z" fill="black"/>
<path d="M46.0066 42.291C44.7852 42.4985 43.6674 43.3627 43.1143 44.5611C42.5381 45.7826 42.6764 47.4766 43.4139 48.4561C43.6674 48.7903 43.6904 48.9401 43.7365 50.4266C43.7711 51.7863 43.8172 52.0975 44.0246 52.5008C44.9926 54.3215 47.4586 54.6903 48.8644 53.2153C49.5443 52.5123 49.7057 51.9707 49.7057 50.3459C49.7057 49.0438 49.7287 48.8594 49.9477 48.5828C50.593 47.7647 50.858 46.3819 50.5814 45.2756C50.0398 43.1899 48.15 41.9569 46.0066 42.291ZM47.5853 44.5496C48.3344 44.9069 48.7723 45.8518 48.5533 46.6354C48.4957 46.8774 48.2537 47.3037 48.0348 47.5803L47.6314 48.0873V49.7467V51.4176L47.2973 51.7518C46.8709 52.1781 46.5482 52.1781 46.1219 51.7518L45.7877 51.4176V49.7467V48.0873L45.3728 47.5572C44.935 46.9926 44.7852 46.3934 44.9119 45.7135C44.981 45.3102 45.5572 44.6418 45.9605 44.469C46.3523 44.3192 47.1705 44.3537 47.5853 44.5496Z" fill="black"/>
<path d="M4.70894 35.665C4.16734 36.195 4.42086 37.2206 5.14683 37.3935C5.28511 37.4281 10.6089 37.4396 16.9584 37.4281L28.5279 37.3935L28.8045 37.0708C28.9543 36.898 29.081 36.6214 29.081 36.4601C29.081 36.0913 28.7929 35.5382 28.5625 35.446C28.4587 35.4115 23.1119 35.3769 16.6818 35.3769H4.98551L4.70894 35.665Z" fill="black"/>
<path d="M5.11161 40.2974C4.43173 40.5509 4.20126 41.4037 4.6622 41.9914L4.89267 42.291H16.6927C29.9561 42.291 28.919 42.3601 29.0458 41.4152C29.0919 41.0349 29.0573 40.8967 28.8153 40.6086L28.5272 40.2744L16.9001 40.2513C10.5161 40.2398 5.2038 40.2629 5.11161 40.2974Z" fill="black"/>
<path d="M4.9131 45.2871C4.34845 45.5176 4.22169 46.4855 4.70567 46.958L4.98224 47.2461H16.69H28.4094L28.7436 46.9119C29.193 46.451 29.193 45.967 28.7436 45.5061L28.4094 45.1719L16.7822 45.1834C10.3752 45.1834 5.05138 45.2295 4.9131 45.2871Z" fill="black"/>
<path d="M4.70622 50.415C4.38356 50.7262 4.31442 51.4291 4.56794 51.7518C4.90212 52.1896 5.07497 52.2012 10.8136 52.2012C16.9556 52.2012 16.9556 52.2012 17.1861 51.5213C17.3359 51.1064 17.2552 50.7262 16.9441 50.3805L16.7136 50.127H10.8482H4.98278L4.70622 50.415Z" fill="black"/>
</svg>
