<svg width="56" height="61" viewBox="0 0 56 61" fill="none" xmlns="http://www.w3.org/2000/svg">
<path d="M20.7928 1.11649C20.3664 1.37001 20.2512 1.83094 20.2512 3.40966V4.9077H18.684C17.8313 4.9077 17.0246 4.96532 16.8979 5.02294C16.3447 5.32255 16.3332 5.4493 16.3332 11.2341V16.6616L9.76484 19.9458C3.55371 23.0571 3.18496 23.2645 2.88535 23.714L2.5627 24.1979V29.0378C2.5627 34.0159 2.65488 35.2143 3.12734 37.0005L3.27715 37.5766L2.55117 38.3487C1.74453 39.2015 1.01855 40.5612 0.695898 41.7827C0.569141 42.2667 0.5 42.9811 0.5 43.7993C0.5 45.2973 0.695898 46.1731 1.34121 47.4868C2.34375 49.5265 4.10684 50.9899 6.42305 51.7044C7.59844 52.0731 9.79941 52.0847 10.8826 51.7274L11.6086 51.4854V53.8362C11.6086 56.3944 11.6777 56.7862 12.2193 57.1434C12.3922 57.2587 12.7494 57.3393 13.049 57.3393C13.6252 57.3393 13.4984 57.4315 15.8031 55.3458L17.0477 54.205L17.474 54.5968C18.7992 55.8413 20.2281 57.0974 20.4471 57.2126C20.9195 57.4546 21.5994 57.3739 22.0027 57.0052L22.383 56.671L22.4176 52.972L22.4521 49.2729H25.8516H29.251L29.5275 48.9849C29.9078 48.6161 29.9078 48.086 29.5275 47.7173C29.251 47.4292 29.251 47.4292 26.7965 47.4292H24.3535L25.6326 46.127C26.9578 44.8018 27.8336 43.7647 28.3982 42.8659L28.7209 42.3589H36.4762C44.0701 42.3589 44.2199 42.3589 44.4504 42.1284C44.8307 41.7481 44.7961 41.1489 44.3813 40.7686L44.0932 40.5151H36.9486C31.2791 40.5151 29.8041 40.4806 29.8387 40.3653C29.8617 40.2962 30.0346 39.8237 30.2189 39.3397L30.5646 38.4409H32.1549C33.6875 38.4409 33.7566 38.4294 34.0217 38.1528C34.402 37.7841 34.402 37.254 34.0217 36.8852C33.7566 36.6087 33.676 36.5972 32.4084 36.5972C31.6824 36.5972 31.0832 36.5626 31.0832 36.505C31.0832 36.4589 31.1639 36.0095 31.2561 35.5024C31.3482 34.9954 31.4174 34.569 31.4289 34.546C31.4289 34.5345 34.2752 34.5229 37.7553 34.5229C43.9779 34.5229 44.0816 34.5229 44.3813 34.2809C44.7615 33.9813 44.8076 33.2669 44.4504 32.9097C44.2199 32.6792 44.0701 32.6792 37.882 32.6792H31.5441V31.5845V30.4897H37.859C45.0035 30.4897 44.6809 30.5358 44.6809 29.637C44.6809 29.2798 44.6117 29.0839 44.4389 28.9225C44.2084 28.7151 43.9088 28.7036 37.8705 28.669L31.5441 28.6345V27.6089V26.5718H33.9064C36.2687 26.5718 36.2803 26.5718 36.5568 26.2837C36.9025 25.9495 36.9256 25.4309 36.626 25.0622C36.407 24.7856 36.3725 24.7856 33.9871 24.7511L31.5672 24.7165L31.498 24.3247C31.3943 23.7946 30.9449 23.2876 30.2881 22.9419L29.758 22.6653L36.9141 22.6538C43.9779 22.6538 44.0816 22.6538 44.3813 22.4118C44.7615 22.1122 44.8076 21.3977 44.4504 21.0405C44.2199 20.81 44.0701 20.81 35.1164 20.81H26.0129L22.0949 18.8511L18.177 16.8921V11.7641V6.63622H34.1945H50.2121V10.0356V13.4466L50.5002 13.7231C50.8344 14.0688 51.3529 14.0919 51.7217 13.7923L51.9982 13.5733L52.0328 9.89735C52.0559 7.88075 52.0328 6.07157 51.9982 5.87567C51.9637 5.66825 51.8023 5.36864 51.6295 5.20731L51.3299 4.9077H36.7182H22.0949V3.81298V2.71825H38.1125H54.1301V23.1147V43.5112H53.093H52.0559L52.0328 30.0749L51.9982 16.6386L51.7217 16.4196C51.376 16.1315 50.892 16.1431 50.5117 16.4427L50.2121 16.6731V32.0569V47.4292H41.3967H32.5697L32.2932 47.7173C31.9129 48.086 31.9129 48.6161 32.2932 48.9849L32.5697 49.2729H41.8C51.9291 49.2729 51.5143 49.296 51.883 48.5815C52.0098 48.3395 52.0559 47.8671 52.0559 46.7954V45.355H53.4963C54.568 45.355 55.0404 45.3089 55.2824 45.1821C56.0199 44.8018 55.9738 46.4266 55.9738 23.1839C55.9738 10.2891 55.9277 1.93465 55.8701 1.7618C55.801 1.60048 55.6396 1.35848 55.5014 1.23173L55.2363 0.989735H38.124C26.7043 1.00126 20.9311 1.03583 20.7928 1.11649ZM29.6773 29.5448C29.6313 33.9583 29.6082 34.4538 29.3662 35.5946C28.8246 38.2681 27.8221 40.5266 26.301 42.5663C25.4598 43.6956 23.8004 45.4472 22.9016 46.1616L22.4406 46.5304V43.2577V39.985L23.3395 39.0747C25.2869 37.0811 26.1396 34.6612 25.8861 31.8956C25.7709 30.7893 25.6211 30.1786 25.1832 29.2106C24.7223 28.185 24.1807 27.92 23.5469 28.427C23.1666 28.7266 23.1551 29.2106 23.5123 30.0403C23.9271 30.9737 24.0654 31.6766 24.0654 32.7944C24.0654 34.7649 23.4086 36.3321 21.9797 37.7495C20.5393 39.2015 19.0297 39.8237 16.99 39.8237H15.9068L15.492 39.2015C14.524 37.738 12.8646 36.4819 11.2744 36.0095C10.6521 35.8251 10.4102 35.4679 10.1566 34.304C9.90312 33.1516 9.98379 31.6421 10.3756 30.5819C11.8852 26.422 16.4254 24.5897 20.2973 26.5718C21.3459 27.1018 21.657 27.1364 22.0373 26.7446C22.4176 26.3759 22.4176 25.8458 22.0373 25.4655C21.6801 25.1083 20.2973 24.4515 19.3639 24.1979C18.2922 23.9099 16.4369 23.8522 15.2961 24.0827C10.4332 25.0622 7.3334 29.7638 8.33594 34.5921C8.42812 35.0761 8.49727 35.4794 8.47422 35.5024C8.45117 35.514 7.96719 35.6061 7.40254 35.6983C6.82637 35.802 6.04277 36.0095 5.65098 36.1593C4.80977 36.505 4.89043 36.5856 4.61387 35.0645C4.48711 34.3731 4.42949 32.8751 4.3834 29.4296L4.32578 24.7395L10.6982 21.5821L17.0822 18.4247L23.3971 21.5821L29.7234 24.7395L29.6773 29.5448ZM10.583 37.738C12.4844 38.3257 14.1438 40.0196 14.7545 41.9556C16.1488 46.4612 12.0465 51.0015 7.46016 50.0335C6.13496 49.7569 5.23613 49.2499 4.22207 48.2474C3.23105 47.2448 2.7125 46.3345 2.44746 45.0669C2.24004 44.0528 2.24004 43.5458 2.44746 42.5317C2.7125 41.2641 3.23105 40.3538 4.22207 39.3513C5.98516 37.5882 8.24375 37.0235 10.583 37.738ZM20.5738 51.3702L20.5393 54.8503L19.1219 53.5597C17.0822 51.7159 17.0016 51.7159 14.8121 53.7095L13.4523 54.9309V52.7069L13.4639 50.4829L13.9133 50.1372C15.0195 49.296 16.0912 47.6597 16.5752 46.0464C16.8518 45.1245 16.9324 43.4536 16.7596 42.2897L16.6789 41.702L17.7967 41.6444C18.5572 41.5983 19.191 41.4946 19.7326 41.3102L20.5393 41.0337L20.5738 44.4677C20.5854 46.346 20.5854 49.4573 20.5738 51.3702Z" fill="black"/>
<path d="M18.3256 32.1261L16.6777 33.7624L15.6637 32.7714C14.5229 31.6421 14.2693 31.4808 13.7854 31.5845C13.3705 31.6767 13.1055 32.0339 13.1055 32.5063C13.1055 32.806 13.3475 33.094 14.6957 34.4423C16.1131 35.8597 16.3205 36.021 16.6662 36.021C17.0234 36.021 17.2539 35.8366 19.017 34.0851C20.0887 33.0249 21.0336 32.0108 21.1373 31.8265C21.4484 31.2272 20.999 30.4897 20.3191 30.4897C20.0311 30.4897 19.7084 30.7548 18.3256 32.1261Z" fill="black"/>
<path d="M7.91078 39.6969C7.76098 39.8121 7.46137 40.2731 7.24243 40.7225L6.85063 41.5406L6.03246 41.6674C4.46528 41.9209 4.14262 42.2205 4.21176 43.3729C4.22328 43.5342 4.53442 43.949 4.93774 44.3869L5.65219 45.1244L5.51391 45.9887C5.34106 47.0488 5.4102 47.4522 5.87114 47.8324C6.37817 48.2588 6.96586 48.2242 7.92231 47.7057L8.69438 47.2793L9.4434 47.7057C10.4575 48.2703 11.0221 48.2703 11.5637 47.7287C12.0016 47.2908 12.0362 47.0488 11.8288 45.8389L11.702 45.1014L12.3358 44.4561C13.1194 43.6609 13.2692 43.3152 13.1079 42.693C12.9581 42.1398 12.5202 41.8402 11.7366 41.7365C10.5727 41.5752 10.5957 41.5867 10.1694 40.7455C9.95043 40.3191 9.6393 39.8582 9.46645 39.7199C9.07465 39.4088 8.29106 39.3973 7.91078 39.6969ZM9.59321 43.2231C9.80063 43.3152 10.1463 43.3959 10.3538 43.3959H10.734L10.3768 43.7647C9.89282 44.2717 9.74301 44.7096 9.8352 45.3203L9.91586 45.8389L9.4434 45.5969C8.84418 45.2973 8.49848 45.2973 7.91078 45.5969L7.43832 45.8273L7.51899 45.2627C7.61118 44.6059 7.50746 44.3408 6.96586 43.7647L6.60864 43.3959H6.98891C7.59965 43.3959 8.09516 43.0848 8.39477 42.5316L8.65981 42.0246L8.94789 42.5316C9.10922 42.8428 9.37426 43.1078 9.59321 43.2231Z" fill="black"/>
<path d="M27.7649 11.3147C27.6151 11.4185 27.4538 11.6259 27.3962 11.7757C27.2694 12.1099 27.4538 12.7091 27.7419 12.8589C27.8801 12.928 30.3577 12.9741 34.2296 12.9741H40.4983L40.7403 12.7091C41.1091 12.3173 41.086 11.6835 40.6942 11.3724C40.3946 11.1304 40.2794 11.1304 34.2065 11.1304C28.7214 11.1304 27.9954 11.1534 27.7649 11.3147Z" fill="black"/>
<path d="M23.835 17.1917C23.5123 17.595 23.5354 17.9638 23.8695 18.3556L24.1461 18.6782H34.183H44.2084L44.4619 18.4362C44.7961 18.0905 44.7961 17.3761 44.4504 17.0995C44.2084 16.9036 43.6322 16.8921 34.1369 16.8921H24.0654L23.835 17.1917Z" fill="black"/>
<path d="M38.5146 25.0161C38.3303 25.189 38.2266 25.431 38.2266 25.6499C38.2266 25.8688 38.3303 26.1108 38.5146 26.2837L38.7912 26.5718H41.5107C44.0689 26.5718 44.2303 26.5603 44.4492 26.3413C44.8295 25.961 44.7949 25.3618 44.3801 24.9815C44.092 24.7396 44.0229 24.728 41.4416 24.728H38.7912L38.5146 25.0161Z" fill="black"/>
<path d="M35.8662 36.8853C35.6818 37.0581 35.5781 37.3001 35.5781 37.519C35.5781 37.738 35.6818 37.98 35.8662 38.1528L36.1428 38.4409H40.1068C43.9441 38.4409 44.0824 38.4294 44.382 38.1989C44.7738 37.8878 44.8084 37.1849 44.4281 36.8276C44.1861 36.6087 44.0479 36.5972 40.1645 36.5972H36.1428L35.8662 36.8853Z" fill="black"/>
<path d="M28.698 50.6673C28.2717 50.794 28.0066 51.1282 27.5457 52.1653L27.2 52.9259L26.1283 53.0642C24.7686 53.2601 24.3998 53.5366 24.3076 54.4354L24.25 55.0347L25.0912 55.8989L25.9324 56.7632L25.8057 57.5007C25.5406 58.8835 25.6904 59.5749 26.3012 59.8515C26.8312 60.0935 27.3613 60.0128 28.2947 59.5403L29.1936 59.0909L30.0463 59.5403C31.2678 60.1741 32.0744 60.128 32.5008 59.4136C32.7312 59.0333 32.7428 58.6415 32.5584 57.5583L32.4316 56.7517L33.2268 55.945C34.0219 55.1499 34.0219 55.1384 34.0219 54.5046C34.0219 53.9284 33.9873 53.8247 33.6531 53.5366C33.3535 53.2716 33.123 53.1909 32.2357 53.0757L31.1871 52.9259L30.6801 51.9349C30.4035 51.3933 30.0809 50.8862 29.9656 50.8171C29.6314 50.6097 29.1014 50.552 28.698 50.6673ZM30.1385 54.5046C30.3229 54.5968 30.7377 54.712 31.0719 54.7581L31.6711 54.8388L31.2217 55.3112C30.5764 55.9681 30.4727 56.2331 30.5648 56.8669C30.5994 57.155 30.6686 57.4892 30.6916 57.6044C30.7492 57.7888 30.6916 57.7772 30.173 57.5237C29.4125 57.1319 28.8018 57.1319 28.1219 57.5353C27.6494 57.8118 27.6033 57.8118 27.6609 57.6159C27.9605 56.5558 27.8453 56.0257 27.1539 55.3112L26.693 54.8388L27.2691 54.7696C28.1449 54.6659 28.5137 54.4239 28.8709 53.6979L29.1705 53.0642L29.4932 53.6979C29.6891 54.0897 29.9426 54.4009 30.1385 54.5046Z" fill="black"/>
<path d="M39.2637 50.7364C38.9525 50.8977 38.7451 51.1628 38.3533 51.9348L37.8348 52.9374L36.7977 53.0756C35.8643 53.2024 35.7145 53.26 35.3803 53.5942C35.0576 53.9169 35 54.0551 35 54.5161C35 55.0346 35.0346 55.1038 35.8066 55.8989L36.6133 56.7286L36.452 57.7426C36.2676 58.918 36.3482 59.402 36.8092 59.7592C37.2816 60.128 37.9615 60.0704 39.0102 59.5403L39.909 59.0909L40.7156 59.5403C41.7988 60.151 42.4557 60.1626 43.0203 59.5979C43.4582 59.16 43.4812 58.9987 43.2738 57.662L43.1471 56.7631L43.9076 55.9796C44.7488 55.1038 44.8871 54.7696 44.6912 54.1243C44.4838 53.3983 44.0805 53.1909 42.5709 53.0065L41.9025 52.9374L41.4646 52.0501C41.2111 51.5661 40.8885 51.059 40.7502 50.9208C40.3584 50.5635 39.7592 50.4829 39.2637 50.7364ZM40.7041 54.4239C40.9 54.5967 41.2227 54.7004 41.6951 54.7581L42.398 54.8387L41.868 55.3688C41.2688 55.9796 41.1535 56.3483 41.3148 57.1895L41.4186 57.7887L40.8654 57.5006C40.151 57.1434 39.4711 57.1434 38.8488 57.5006L38.3648 57.7772L38.4225 56.8784L38.4916 55.9796L37.95 55.4034L37.4199 54.8387L38.0076 54.7581C38.9064 54.6428 39.2061 54.4354 39.5633 53.6979L39.8859 53.0526L40.151 53.6057C40.3008 53.9169 40.5428 54.2856 40.7041 54.4239Z" fill="black"/>
<path d="M49.9824 50.7364C49.6713 50.8977 49.4639 51.1627 49.0721 51.9348L48.5535 52.9373L47.574 53.0641C46.0529 53.2831 45.7188 53.5596 45.7188 54.6543C45.7188 55.1498 45.7533 55.219 46.5254 55.945L47.332 56.717L47.1477 57.7311C47.0094 58.5147 47.0094 58.8258 47.1016 59.137C47.4242 60.1164 48.3691 60.2547 49.7289 59.5403L50.5816 59.0909L51.3998 59.5403C52.4715 60.1164 53.1744 60.1625 53.6699 59.6555C54.1309 59.2061 54.177 58.8834 53.9926 57.7541L53.8197 56.7747L54.5572 56.0487C55.41 55.2075 55.5943 54.735 55.3754 54.0436C55.1795 53.4559 54.7301 53.2139 53.5432 53.0526L52.5752 52.9143L52.1143 51.9924C51.4689 50.6903 50.8236 50.31 49.9824 50.7364ZM50.8467 53.6633C51.1693 54.3663 51.5957 54.6659 52.4139 54.7581L53.1053 54.8387L52.6904 55.1729C52.0566 55.703 51.8953 56.0948 51.9875 56.959C52.0336 57.3623 52.0336 57.685 51.999 57.685C51.9645 57.685 51.734 57.5813 51.4805 57.4545C51.227 57.3278 50.8121 57.2241 50.5586 57.2241C50.3051 57.2241 49.8902 57.3278 49.6367 57.4545C49.3832 57.5813 49.1527 57.685 49.1182 57.685C49.0836 57.685 49.0951 57.4084 49.1297 57.0627C49.2334 56.2215 49.1412 55.9219 48.5881 55.3342L48.1387 54.8272L48.7725 54.7465C49.5215 54.6543 49.9594 54.3432 50.2705 53.6633C50.3857 53.3983 50.5125 53.1909 50.5586 53.1909C50.6047 53.1909 50.7314 53.3983 50.8467 53.6633Z" fill="black"/>
</svg>
