<svg width="51" height="51" viewBox="0 0 51 51" fill="none" xmlns="http://www.w3.org/2000/svg">
<g clip-path="url(#clip0_109_1278)">
<path d="M24.0096 51.0001C23.0422 50.8693 22.067 50.7847 21.1111 50.6039C13.0522 49.0751 7.02247 44.6943 3.04879 37.5424C0.783068 33.4635 -0.245933 29.0289 0.0502655 24.3789C0.656126 14.852 5.19527 7.70777 13.5042 3.03277C17.5548 0.753928 21.9863 -0.232611 26.6216 0.0462353C35.6614 0.592389 42.6028 4.77893 47.3862 12.4559C49.4981 15.8443 50.631 19.5885 50.9156 23.5789C50.9252 23.7232 50.9714 23.8655 51.0003 24.0078C51.0003 25.0039 51.0003 26.0001 51.0003 26.9962C50.9714 27.1385 50.9252 27.2809 50.9156 27.4251C50.6656 30.9982 49.7174 34.3847 47.9786 37.5078C43.9954 44.6732 37.9694 49.0693 29.8952 50.602C28.9392 50.7828 27.9641 50.8693 26.9966 50.9982C26.0023 51.0001 25.006 51.0001 24.0096 51.0001ZM2.21405 25.5039C2.21598 38.3212 12.6695 48.7789 25.4926 48.7924C38.3003 48.8059 48.7634 38.3597 48.7922 25.5251C48.8211 12.7097 38.3118 2.19431 25.4887 2.21162C12.6637 2.23085 2.21213 12.6905 2.21405 25.5039Z" fill="#000"/>
<path d="M19.9703 31.0365C19.7125 31.0365 19.5183 31.0365 19.3259 31.0365C17.1025 31.0365 14.8791 31.0385 12.6557 31.0365C11.494 31.0346 11.1382 30.6808 11.1382 29.525C11.1362 26.8365 11.1362 24.1481 11.1382 21.4596C11.1382 20.3327 11.4978 19.9712 12.6268 19.9692C14.8503 19.9673 17.0737 19.9692 19.2971 19.9692C19.4933 19.9692 19.6895 19.9692 19.9703 19.9692C19.9703 19.7385 19.9703 19.5481 19.9703 19.3558C19.9703 17.1154 19.9683 14.875 19.9703 12.6346C19.9722 11.5019 20.3338 11.1346 21.4493 11.1346C24.1536 11.1327 26.8598 11.1327 29.564 11.1346C30.6584 11.1346 31.0335 11.5038 31.0354 12.5923C31.0392 14.8327 31.0373 17.0731 31.0373 19.3135C31.0373 19.5096 31.0373 19.7038 31.0373 19.9692C31.2816 19.9692 31.4739 19.9692 31.6682 19.9692C33.8916 19.9692 36.115 19.9673 38.3384 19.9692C39.4655 19.9692 39.8713 20.375 39.8713 21.4962C39.8733 24.1519 39.8713 26.8058 39.8713 29.4615C39.8713 30.6981 39.5386 31.0365 38.3173 31.0365C36.1112 31.0385 33.9031 31.0365 31.697 31.0365C31.5009 31.0365 31.3066 31.0365 31.0392 31.0365C31.0392 31.2788 31.0392 31.4712 31.0392 31.6635C31.0392 33.8865 31.0412 36.1115 31.0392 38.3346C31.0392 39.5288 30.695 39.8692 29.4948 39.8692C26.8232 39.8692 24.1517 39.8712 21.4801 39.8692C20.3242 39.8692 19.9741 39.5135 19.9722 38.3462C19.9703 36.1385 19.9722 33.9327 19.9722 31.725C19.9703 31.5288 19.9703 31.3308 19.9703 31.0365ZM22.1956 13.3692C22.1956 13.5865 22.1956 13.7654 22.1956 13.9442C22.1956 16.1846 22.1956 18.425 22.1956 20.6673C22.1956 21.8019 21.8052 22.1942 20.6742 22.1962C18.4162 22.1981 16.1601 22.1962 13.902 22.1962C13.727 22.1962 13.5539 22.1962 13.377 22.1962C13.377 24.4385 13.377 26.6038 13.377 28.8135C13.5847 28.8135 13.7655 28.8135 13.9444 28.8135C16.1851 28.8135 18.4258 28.8115 20.6665 28.8135C21.8013 28.8135 22.1937 29.2038 22.1956 30.3346C22.1975 32.5923 22.1956 34.85 22.1956 37.1077C22.1956 37.2827 22.1956 37.4558 22.1956 37.6327C24.4382 37.6327 26.604 37.6327 28.8139 37.6327C28.8139 37.425 28.8139 37.2442 28.8139 37.0654C28.8139 34.825 28.812 32.5846 28.8139 30.3423C28.8139 29.2077 29.2043 28.8154 30.3353 28.8135C32.6087 28.8115 34.8841 28.8135 37.1575 28.8135C37.3344 28.8135 37.5114 28.8135 37.7095 28.8135C37.7095 26.5846 37.7095 24.4192 37.7095 22.1962C37.4883 22.1962 37.294 22.1962 37.0978 22.1962C34.8398 22.1962 32.5837 22.1981 30.3257 22.1942C29.2851 22.1923 28.887 21.7885 28.887 20.7462C28.8851 18.4731 28.887 16.1981 28.887 13.925C28.887 13.7481 28.887 13.5712 28.887 13.3712C26.6463 13.3692 24.4613 13.3692 22.1956 13.3692Z" fill="#000"/>
</g>
<defs>
<clipPath id="clip0_109_1278">
<rect width="51" height="51" fill="#000"/>
</clipPath>
</defs>
</svg>
