<svg width="59" height="59" viewBox="0 0 59 59" fill="none" xmlns="http://www.w3.org/2000/svg">
<circle cx="29.5001" cy="29.5001" r="20.3605" stroke="#191919" stroke-width="1.2"/>
<mask id="path-2-inside-1_109_970" fill="white">
<path d="M15.4214 55.4238C18.8257 57.2726 22.5609 58.4328 26.4136 58.8381C30.2664 59.2434 34.1612 58.8859 37.8758 57.786C41.5903 56.6861 45.0519 54.8653 48.0628 52.4276C51.0737 49.9899 53.5749 46.983 55.4238 43.5786C57.2726 40.1743 58.4328 36.4391 58.8381 32.5864C59.2434 28.7336 58.8859 24.8388 57.786 21.1242C56.6861 17.4096 54.8653 13.9481 52.4276 10.9372C49.9899 7.92632 46.983 5.42505 43.5786 3.57622L29.5 29.5L15.4214 55.4238Z"/>
</mask>
<path d="M15.4214 55.4238C18.8257 57.2726 22.5609 58.4328 26.4136 58.8381C30.2664 59.2434 34.1612 58.8859 37.8758 57.786C41.5903 56.6861 45.0519 54.8653 48.0628 52.4276C51.0737 49.9899 53.5749 46.983 55.4238 43.5786C57.2726 40.1743 58.4328 36.4391 58.8381 32.5864C59.2434 28.7336 58.8859 24.8388 57.786 21.1242C56.6861 17.4096 54.8653 13.9481 52.4276 10.9372C49.9899 7.92632 46.983 5.42505 43.5786 3.57622L29.5 29.5L15.4214 55.4238Z" stroke="#191919" stroke-width="2.4" mask="url(#path-2-inside-1_109_970)"/>
<circle cx="29.5001" cy="29.4999" r="12.2092" stroke="#191919" stroke-width="1.2"/>
</svg>
