<svg width="59" height="59" viewBox="0 0 59 59" fill="none" xmlns="http://www.w3.org/2000/svg">
<path d="M2.00589 0.737499C1.24534 1.0832 0.623075 1.72852 0.277372 2.47754L0.00080911 3.07676L0.023856 17.2391L0.0584263 31.4014L0.323465 31.8854C1.00335 33.1645 2.12112 33.7637 3.84964 33.7637H4.92132L4.56409 34.4781L4.20686 35.1926L4.17229 38.4076C4.14925 40.4703 4.18382 41.8301 4.26448 42.2334C4.4719 43.2475 5.03655 44.227 5.90081 45.0797C6.6844 45.8518 6.6844 45.8518 6.6844 46.4971V47.1309H5.91233C3.36565 47.1424 0.911161 49.0092 0.185184 51.4982C-0.0337612 52.2588 -0.079855 56.8105 0.127567 57.3521C0.288895 57.79 0.657645 58.1703 1.1762 58.4354C1.59104 58.6428 1.97132 58.6543 9.84182 58.6543C17.1823 58.6543 18.1272 58.6312 18.4729 58.4699C18.8301 58.2971 18.8877 58.2971 19.2219 58.4699C19.5446 58.6312 20.478 58.6543 27.8299 58.6543C35.1127 58.6543 36.1268 58.6312 36.4264 58.4699C36.749 58.3086 36.8182 58.3086 37.233 58.4699C37.6364 58.6312 38.6965 58.6543 45.8641 58.6543C51.3492 58.6543 54.1379 58.6197 54.3569 58.5275C54.7602 58.3777 55.2672 57.9053 55.5207 57.4443C55.6821 57.1562 55.7166 56.7184 55.7166 54.6787C55.7051 51.9707 55.6129 51.4521 54.8985 50.1615L54.5067 49.4586V44.6879V39.9057L54.2416 39.6637C53.8844 39.3295 53.2391 39.3295 52.9395 39.6521C52.7321 39.8826 52.7205 40.1477 52.686 43.8697C52.6514 47.5687 52.6399 47.8338 52.4555 47.7646C51.3953 47.3152 50.992 47.2115 50.1047 47.1539L49.0906 47.0963V46.4395C49.0906 45.7711 49.0906 45.7711 49.8281 45.0336C50.6117 44.25 51.0266 43.5471 51.3377 42.4984C51.499 41.9453 51.5221 41.3346 51.4875 38.4652L51.453 35.0889L51.0842 34.4205L50.727 33.7637H51.6949H52.6629V35.0543C52.6629 36.4832 52.7781 36.8404 53.2621 37.0709C53.6194 37.2553 54.2186 37.0824 54.3914 36.7598C54.4606 36.6445 54.5067 35.9301 54.5067 35.1695V33.7982L55.152 33.7291C56.7883 33.5562 58.3555 32.2656 58.8395 30.6639C59.0815 29.8687 59.0699 18.5182 58.828 17.7115C58.5975 16.9625 57.9522 16.0061 57.3069 15.5105C56.4196 14.8191 55.6936 14.6117 54.0112 14.5426L52.5477 14.4965V13.9779C52.5477 13.5055 52.5938 13.4248 53.2391 12.8371C53.6194 12.4799 54.0803 11.9268 54.2647 11.6041C54.9215 10.4402 54.9676 10.083 54.9561 6.34941C54.9561 4.04473 54.91 2.82324 54.8178 2.56973C54.5758 1.92441 53.9651 1.18691 53.3889 0.841209L52.8358 0.518555L49.7936 0.483982C47.1317 0.449413 46.6707 0.472462 46.2213 0.645313C45.5184 0.910351 44.7924 1.61328 44.4697 2.33926C44.2162 2.9039 44.1932 3.0998 44.1586 5.73867C44.1356 7.36348 44.1701 8.93066 44.2393 9.48379C44.4006 10.7283 44.9653 11.8922 45.818 12.7334C46.4057 13.3096 46.4403 13.3672 46.4403 13.9318V14.5195H42.9832H39.5262V8.87305C39.5262 3.51465 39.5147 3.20351 39.2957 2.61582C39.0422 1.92441 38.3278 1.14082 37.6248 0.760548L37.1639 0.518555L22.8518 0.483982L8.53968 0.460938L8.30921 0.714451C7.98655 1.06015 7.99807 1.62481 8.33225 1.93594L8.59729 2.18945L22.5291 2.2125C35.8157 2.24707 36.484 2.25859 36.8182 2.45449C37.0141 2.56973 37.2676 2.81172 37.3944 2.97305C37.6133 3.27266 37.6248 3.4916 37.6594 8.89609L37.694 14.5195H33.8682C30.2844 14.5195 30.0539 14.508 30.1346 14.3121C30.3535 13.8051 30.3881 13.1828 30.2498 12.6297L30.1 12.042L31.5865 10.1867L33.0731 8.33144L33.6377 8.38906C35.1127 8.52734 36.2996 7.40957 36.2996 5.9C36.2996 4.55176 35.4239 3.57227 34.1102 3.48008C33.2114 3.41094 32.5315 3.66445 31.9899 4.26367C31.3791 4.94355 31.1948 5.84238 31.5059 6.69512L31.6557 7.10996L30.1576 8.96523L28.6711 10.832H28.0258C27.6571 10.832 27.2653 10.8666 27.1385 10.9012C26.9657 10.9473 26.7352 10.7629 26.136 10.1061L25.3754 9.25332L25.4907 8.80391C25.894 7.30586 24.6725 5.76172 23.1053 5.76172C22.1143 5.77324 21.227 6.32637 20.8006 7.21367C20.6047 7.61699 20.6047 8.71172 20.7891 9.27637C20.8467 9.44922 20.6393 9.77187 19.9133 10.6477L18.9569 11.7885L18.2078 11.8C17.6778 11.8115 17.3205 11.8807 16.9864 12.065L16.5139 12.307L15.4768 11.7424L14.4282 11.1777L14.3475 10.6361C14.1285 9.13808 13.126 8.33144 11.628 8.43515C10.176 8.53887 9.12737 9.92168 9.45003 11.3275L9.54221 11.7539L8.32073 12.9062C7.32971 13.8396 7.0762 14.024 6.90335 13.9434C6.56917 13.759 5.50901 13.8166 5.0135 14.0471C4.13772 14.4389 3.57307 15.3492 3.57307 16.3748C3.57307 16.9855 4.1262 17.9766 4.67932 18.3568C5.65882 19.0367 7.0762 18.8639 7.89436 17.965C8.44749 17.3543 8.5512 17.0316 8.50511 16.1098L8.47054 15.3377L9.64593 14.243C10.7407 13.2059 10.8328 13.1482 11.1209 13.252C11.6395 13.4478 12.377 13.3902 12.9532 13.0906L13.5063 12.8141L14.5895 13.3902C15.6381 13.9434 15.6727 13.9779 15.6727 14.3582C15.6727 15.1994 16.2489 16.0637 17.1016 16.5016C17.7699 16.8473 18.9338 16.7666 19.5446 16.3287C20.2475 15.8447 20.5586 15.3031 20.6047 14.4504C20.6393 14.0125 20.5932 13.5631 20.5125 13.3672C20.3742 13.0445 20.3973 12.9984 21.3422 11.8461L22.3217 10.6592H23.2205H24.1194L24.8453 11.4658C25.4676 12.1457 25.5598 12.307 25.4907 12.5605C25.2256 13.517 25.652 14.8537 26.378 15.2801L26.7121 15.476L26.7582 16.9279C26.7928 18.0803 26.8504 18.4836 27.0463 18.8984C27.3459 19.5553 27.9221 20.1314 28.5789 20.4426C29.086 20.673 29.2703 20.6846 36.0461 20.7191L42.9832 20.7537V26.4809V32.2195L42.4762 32.4615C41.4391 32.9686 40.6324 33.948 40.2867 35.135C40.1369 35.642 40.1024 36.3564 40.1024 38.6727C40.1024 40.3551 40.16 41.8416 40.2291 42.1988C40.4596 43.282 40.9897 44.227 41.8424 45.0682C42.6375 45.8518 42.6375 45.8518 42.6375 46.4971V47.1309H41.8424C40.8399 47.1309 39.4686 47.5457 38.6504 48.0988C38.3162 48.3178 37.7862 48.8018 37.452 49.182L36.8412 49.8504L35.9655 48.9746C34.6518 47.6725 33.4418 47.1309 31.7824 47.1309H30.9989V46.4625C30.9989 45.8172 31.0104 45.7941 31.5865 45.2986C32.3471 44.6418 33.0155 43.6047 33.3151 42.6252C33.534 41.9223 33.5455 41.5996 33.511 38.5229L33.4764 35.1926L33.1192 34.4781L32.7619 33.7637H34.744C37.1869 33.7637 37.5787 33.66 38.5006 32.7381C39.5032 31.724 39.5262 31.6088 39.5262 27.4027C39.5262 25.2939 39.4801 23.7498 39.411 23.623C39.2381 23.3004 38.6389 23.1275 38.2817 23.3119C37.717 23.577 37.6824 23.7844 37.6824 27.3451C37.6824 30.9289 37.6709 30.998 37.0487 31.5742L36.7375 31.8623L19.9018 31.8969C1.07249 31.9314 2.59358 32.0006 2.04046 31.1248L1.78694 30.71V17.1123V3.51465L2.04046 3.11133C2.46682 2.41992 2.87014 2.25859 4.41429 2.2125C5.69339 2.1664 5.78557 2.14336 5.993 1.86679C6.29261 1.49805 6.28108 1.14082 5.98147 0.760548C5.751 0.460938 5.73948 0.460938 4.17229 0.460938C2.75491 0.460938 2.53597 0.495506 2.00589 0.737499ZM52.467 2.46601C52.951 2.78867 53.1239 3.22656 53.1239 4.10234C53.1239 4.83984 53.1123 4.86289 52.8703 4.78223C52.7205 4.73613 51.8563 4.66699 50.9344 4.64394L49.2635 4.58633L49.0906 4.2291C48.7565 3.52617 47.8 3.52617 47.5004 4.21758C47.3621 4.50566 47.2239 4.58633 46.6592 4.73613L45.9793 4.92051V4.2291C45.9793 3.16895 46.4518 2.43145 47.2469 2.27011C47.4082 2.23555 48.5721 2.22402 49.8397 2.22402C51.8908 2.24707 52.1789 2.27011 52.467 2.46601ZM34.2715 5.48516C34.525 5.72715 34.502 6.14199 34.2254 6.39551C33.6953 6.86797 32.8887 6.06133 33.3612 5.53125C33.6147 5.25469 34.0295 5.23164 34.2715 5.48516ZM52.3172 6.62598C52.9856 6.97168 53.1239 7.29433 53.1239 8.51582C53.1239 9.49531 53.0893 9.70273 52.7897 10.3135C51.6949 12.5951 48.8487 13.1021 47.0856 11.3391C46.3481 10.59 46.06 9.82949 46.0485 8.53887C46.0369 7.32891 46.1291 7.07539 46.7514 6.67207C47.0395 6.47617 47.3391 6.45312 49.5285 6.45312C51.476 6.45312 52.0522 6.48769 52.3172 6.62598ZM23.5317 7.80136C23.7852 8.03183 23.7967 8.38906 23.5432 8.66562C23.1629 9.08047 22.4715 8.81543 22.4715 8.23926C22.4715 7.67461 23.1053 7.40957 23.5317 7.80136ZM12.3885 10.5324C12.7227 11.0395 12.2387 11.6617 11.651 11.4658C11.409 11.3967 11.2246 11.0164 11.2823 10.7168C11.386 10.1867 12.0889 10.0715 12.3885 10.5324ZM28.2563 12.8141C28.8555 13.275 28.2217 14.1969 27.5649 13.8396C27.2307 13.6553 27.1385 13.2865 27.3574 12.9639C27.5649 12.6527 27.9567 12.5836 28.2563 12.8141ZM18.5766 13.7936C18.9799 14.1623 18.7264 14.8652 18.1848 14.8652C17.8737 14.8652 17.5164 14.5426 17.5164 14.266C17.5164 14.001 17.9082 13.5977 18.1733 13.5977C18.277 13.5977 18.4614 13.6783 18.5766 13.7936ZM50.8192 14.6348C50.8192 15.8678 50.3582 16.5938 49.5862 16.5938C48.7565 16.5938 48.284 15.9369 48.284 14.75V14.2314H49.5516H50.8192V14.6348ZM6.50003 15.8563C6.75354 16.0982 6.7305 16.5131 6.45393 16.7666C5.92386 17.2391 5.11721 16.4324 5.58968 15.9023C5.84319 15.6258 6.25804 15.6027 6.50003 15.8563ZM46.8436 16.8242C47.2469 17.723 48.1688 18.3223 49.2635 18.4029C50.5656 18.5066 51.6028 17.9881 52.1789 16.9279L52.4901 16.3518L53.8729 16.3863C55.1405 16.4209 55.3018 16.4439 55.7973 16.7436C56.5463 17.1814 57.0303 17.9189 57.1686 18.8408C57.2377 19.2672 57.2723 21.6871 57.2492 24.7408C57.2147 29.8918 57.2147 29.9033 56.9496 30.4104C56.4887 31.2631 55.5783 31.9084 54.8293 31.9199H54.5067V26.7574C54.5067 21.7217 54.5067 21.5834 54.2762 21.3414C53.9305 20.9727 53.3313 20.9611 52.951 21.3299C52.7321 21.5488 52.7205 21.7332 52.686 26.7344L52.6514 31.9199H48.7449H44.8385L44.8039 25.7549L44.7694 19.5898L44.4467 19.2787L44.1356 18.9561L36.7836 18.8984C28.9592 18.8408 29.1666 18.8523 28.8094 18.2762C28.7287 18.1379 28.6365 17.6539 28.602 17.193L28.5444 16.3633H37.5903H46.6362L46.8436 16.8242ZM12.4 34.1785C12.7112 34.3629 13.1145 34.7432 13.3104 35.0197C13.6446 35.5037 13.6561 35.5383 13.6561 36.9096C13.6561 38.1887 13.633 38.373 13.3449 38.9723C12.9647 39.7789 12.2387 40.5049 11.409 40.8967C10.5102 41.3115 9.19651 41.3115 8.29768 40.8967C7.49104 40.5164 6.7305 39.7559 6.35022 38.9492C6.10823 38.4307 6.03909 38.108 6.01604 37.1746C5.95843 35.8379 6.08518 35.3078 6.59221 34.7316C7.30667 33.925 7.91741 33.7637 10.1645 33.7982C11.8123 33.8328 11.8584 33.8443 12.4 34.1785ZM22.5407 34.4781L22.1834 35.1926L22.1489 38.4076C22.1258 40.4242 22.1604 41.8416 22.241 42.2104C22.46 43.259 23.0246 44.2385 23.8658 45.0682C24.6494 45.8402 24.661 45.8518 24.661 46.474V47.0963L23.6008 47.1654C21.8838 47.2576 20.6508 47.8684 19.4639 49.182L18.8647 49.8504L17.9889 48.9746C16.7098 47.684 15.4768 47.1424 13.8059 47.1309H13.0223V46.4971C13.0223 45.8518 13.0223 45.8518 13.8059 45.0797C14.6701 44.227 15.2348 43.2475 15.4422 42.2334C15.5229 41.8301 15.5574 40.4703 15.5344 38.4076L15.4998 35.1926L15.1426 34.4781L14.7854 33.7637H18.8416H22.8979L22.5407 34.4781ZM30.2614 34.0863C30.8606 34.3975 31.4137 35.0197 31.5865 35.5959C31.6672 35.8609 31.7018 36.5063 31.6672 37.2322C31.6326 38.2578 31.575 38.5229 31.31 39.0414C30.8836 39.848 30.1922 40.5164 29.3971 40.8852C28.4867 41.3115 27.1846 41.323 26.2742 40.8967C25.4676 40.5164 24.7071 39.7559 24.3268 38.9492C24.0733 38.4191 24.0156 38.1195 23.9926 37.0939C23.9465 35.7572 24.0502 35.3654 24.6033 34.7086C25.2717 33.9135 25.8594 33.7637 28.118 33.8098C29.5584 33.8328 29.858 33.8674 30.2614 34.0863ZM48.2379 34.0863C48.8371 34.3975 49.3903 35.0197 49.5631 35.5844C49.6323 35.8379 49.6668 36.5293 49.6438 37.2207C49.6207 38.2348 49.5631 38.5229 49.3211 39.0068C48.261 41.1271 45.6336 41.8646 43.7207 40.574C42.9602 40.0555 42.4877 39.4562 42.1766 38.6266C41.9692 38.085 41.9346 37.7738 41.9692 36.8174C42.0037 35.4922 42.2112 34.9736 42.9026 34.4205C43.5594 33.8789 44.1932 33.7637 46.0946 33.7982C47.5235 33.8328 47.8346 33.8674 48.2379 34.0863ZM13.5985 41.9453C13.4141 42.5791 12.8494 43.4779 12.4116 43.8352C12.158 44.0311 11.8008 44.3307 11.5934 44.5035L11.2362 44.8031L11.1785 46.5777L11.1209 48.3408H9.85335H8.58577L8.52815 46.5662L8.47054 44.7916L8.02112 44.4344C7.19143 43.7891 6.66136 43.1783 6.38479 42.5906C6.00452 41.784 6.02757 41.6457 6.4885 41.9914C7.58323 42.8211 9.2887 43.2359 10.7291 42.9939C11.6395 42.8557 13.0569 42.2449 13.4256 41.8301C13.7022 41.5305 13.7137 41.5305 13.5985 41.9453ZM31.575 41.9453C31.4022 42.533 30.849 43.4434 30.4688 43.766C30.2729 43.9389 29.9156 44.227 29.6852 44.3998L29.2703 44.7225V46.2666C29.2703 47.1078 29.2242 47.9375 29.1551 48.1104L29.0399 48.41L27.8069 48.3754L26.5623 48.3408L26.5047 46.5662L26.4471 44.7916L25.9285 44.3768C25.0758 43.6854 24.6379 43.1898 24.3614 42.5791C23.9811 41.784 24.0041 41.6457 24.4651 41.9799C25.6865 42.9018 27.4381 43.2705 29.0168 42.9363C29.8811 42.7635 31.068 42.1988 31.4137 41.8186C31.6787 41.5305 31.6903 41.542 31.575 41.9453ZM43.2022 42.4523C44.2739 43.0055 45.7489 43.2014 46.9703 42.9479C47.8461 42.7635 48.8602 42.3025 49.2981 41.9107C49.5401 41.6803 49.5516 41.6803 49.5516 41.8992C49.5401 42.5215 48.8141 43.4895 47.6157 44.492L47.2469 44.8031V46.4049C47.2469 47.5111 47.2008 48.0643 47.0971 48.2025C46.9819 48.3754 46.786 48.3984 45.7489 48.3754L44.5389 48.3408L44.4813 46.5777L44.4237 44.8031L44.0664 44.5035C43.859 44.3307 43.4903 44.0195 43.2367 43.8236C42.9602 43.6047 42.626 43.1553 42.4186 42.7404C41.9461 41.7955 41.9461 41.5996 42.4416 41.9684C42.6375 42.1297 42.9832 42.3486 43.2022 42.4523ZM7.03011 49.2627C7.11077 49.4125 7.38733 49.6891 7.64085 49.8619C8.09026 50.173 8.17093 50.1846 9.70354 50.2191C11.1555 50.2537 11.3514 50.2422 11.8239 50.0117C12.1235 49.8619 12.4576 49.5854 12.5959 49.3549L12.8494 48.9631L13.7713 48.9977C14.9813 49.0553 15.9032 49.4586 16.6867 50.2883C17.3666 51.0143 17.7008 51.6826 17.8506 52.6621C18.0119 53.6301 18.0119 56.3035 17.8621 56.5916C17.7469 56.7875 17.6086 56.8105 16.3641 56.8105H14.9813V55.8311C14.9813 55.301 14.9237 54.7363 14.8545 54.575C14.5895 53.9988 13.6676 53.9182 13.3104 54.4252C13.1836 54.598 13.1375 54.9898 13.1375 55.7389V56.8105H9.92249H6.70745L6.66136 55.7043C6.62679 54.6557 6.60374 54.5865 6.30413 54.3215C5.91233 53.9873 5.54358 53.9643 5.14026 54.2869C4.85218 54.5174 4.84065 54.5635 4.84065 55.6697V56.8105H3.40022C2.09807 56.8105 1.95979 56.7875 1.84456 56.5916C1.69475 56.3035 1.69475 53.7799 1.84456 52.7197C2.16722 50.5303 3.88421 49.0092 6.06214 48.9861C6.81116 48.9746 6.89182 48.9977 7.03011 49.2627ZM25.0067 49.2627C25.0873 49.4125 25.3639 49.6891 25.6174 49.8619C26.0668 50.173 26.1475 50.1846 27.6801 50.2191C29.1321 50.2537 29.328 50.2422 29.8004 50.0117C30.0885 49.8619 30.4342 49.5738 30.5725 49.3664C30.8145 48.9861 30.849 48.9746 31.575 48.9746C33.7645 48.9746 35.5276 50.5188 35.8387 52.6736C35.9885 53.6762 35.977 56.315 35.8387 56.5916C35.7235 56.7875 35.5852 56.8105 34.3406 56.8105H32.9578V55.785C32.9578 55.2203 32.9233 54.6672 32.8887 54.5635C32.7735 54.2754 32.1742 54.0219 31.794 54.1025C31.2408 54.2293 31.1141 54.5404 31.1141 55.7389V56.8105H27.8875H24.661V55.9002C24.661 54.817 24.5227 54.3561 24.1309 54.1717C23.716 53.9873 23.4625 54.0104 23.1168 54.2869C22.8287 54.5174 22.8172 54.5635 22.8172 55.6697V56.8221L21.3537 56.7875L19.8787 56.7529L19.8442 54.6787C19.7981 51.9822 19.9594 51.383 21.0196 50.2652C21.8147 49.424 22.8287 48.9977 24.0387 48.9861C24.7877 48.9746 24.8684 48.9977 25.0067 49.2627ZM43.0293 49.2973C43.1446 49.4816 43.4326 49.7467 43.6516 49.908C44.0319 50.1615 44.1817 50.1846 45.6797 50.2191C47.1893 50.2537 47.3391 50.2307 47.8231 49.9887C48.1112 49.8389 48.4453 49.5623 48.5721 49.3549C48.791 48.9977 48.8371 48.9861 49.5631 48.9746C50.8307 48.9746 51.8563 49.424 52.7436 50.392C53.7115 51.4406 53.9305 52.2703 53.9305 54.9207C53.9305 56.027 53.8844 56.5801 53.7922 56.6723C53.7 56.7645 53.193 56.8105 52.2942 56.8105H50.9344V55.7389C50.9344 54.9898 50.8883 54.598 50.7615 54.4252C50.4043 53.9182 49.4824 53.9988 49.2174 54.575C49.1483 54.7363 49.0906 55.301 49.0906 55.8311V56.8105H45.8641H42.6375V55.9002C42.6375 54.817 42.4992 54.3561 42.1074 54.1717C41.6696 53.9758 41.3815 54.0219 41.0819 54.333C40.8168 54.5865 40.7938 54.7018 40.7938 55.7158V56.8221L39.3303 56.7875L37.8553 56.7529L37.8207 54.598C37.7977 52.6506 37.8207 52.3971 38.0397 51.8094C38.6735 50.0924 40.2291 48.9861 42.0037 48.9746C42.7643 48.9746 42.8219 48.9977 43.0293 49.2973Z" fill="black"/>
<path d="M4.32266 24.6602C4.04609 24.9713 4.04609 25.6166 4.32266 25.9277C4.53008 26.1582 4.55312 26.1582 19.7064 26.1582C34.007 26.1582 34.9059 26.1467 35.1248 25.9508C35.4936 25.6396 35.5051 25.0174 35.1479 24.6602C34.9174 24.4297 34.7676 24.4297 19.7295 24.4297C4.55312 24.4297 4.53008 24.4297 4.32266 24.6602Z" fill="black"/>
<path d="M4.32266 28.002C4.04609 28.3131 4.04609 28.9584 4.32266 29.2695C4.53008 29.5 4.61074 29.5 12.5734 29.5H20.6168L20.8588 29.2465C21.1584 28.9238 21.1584 28.3477 20.8588 28.025L20.6168 27.7715H12.5734C4.61074 27.7715 4.53008 27.7715 4.32266 28.002Z" fill="black"/>
</svg>
