<svg width="59" height="59" viewBox="0 0 59 59" fill="none" xmlns="http://www.w3.org/2000/svg">
<path d="M46.9816 0.126759C46.7396 0.184376 46.4054 0.29961 46.2326 0.391796C46.0597 0.483982 43.3517 3.13437 40.2173 6.26875L34.5132 11.9844H21.123H7.72124V7.55938C7.72124 3.48008 7.70972 3.11133 7.51382 2.88086C7.23726 2.53516 6.49976 2.46601 5.41655 2.69648C2.90444 3.21504 0.818701 5.20859 0.173389 7.68613C-0.0916504 8.68867 -0.0916504 46.5086 0.173389 47.5342C0.726514 49.7006 2.42046 51.4867 4.60991 52.2357L5.35894 52.4893L19.0603 52.5238L32.7732 52.5584L30.2726 55.059C27.9449 57.3982 27.772 57.6057 27.772 57.9859C27.772 58.2164 27.8642 58.516 27.991 58.6658L28.2099 58.9424H43.3632C58.1017 58.9424 58.5165 58.9309 58.7585 58.7234L59.0005 58.5045V43.3051C59.0005 28.267 59.0005 28.1172 58.7701 27.8867C58.6203 27.7369 58.3898 27.6562 58.1132 27.6562C57.733 27.6562 57.5716 27.783 56.3271 29.0045L54.9673 30.3527V21.4566V12.549L54.6792 12.2725L54.4027 11.9844H50.9687H47.5347L50.0353 9.47226C51.4066 8.10098 52.6166 6.7873 52.7318 6.56836C53.0314 5.98066 53.0083 4.80527 52.6972 4.20605C52.363 3.58379 49.2517 0.518555 48.7447 0.311131C48.1685 0.0691414 47.4886 0 46.9816 0.126759ZM49.655 3.61836C51.4757 5.43906 51.4642 5.40449 50.1505 6.71816L49.2056 7.66309L47.2812 5.73867L45.3453 3.80273L46.1519 2.98457C47.1083 2.00508 47.5117 1.79766 47.938 2.0166C48.0994 2.10879 48.8714 2.82324 49.655 3.61836ZM5.87749 17.5732C5.87749 27.1607 5.91206 30.7215 6.00425 30.9289C6.20015 31.3438 6.79936 31.5281 7.23726 31.2977C7.42163 31.2055 7.60601 31.0326 7.6521 30.9404C7.68667 30.8367 7.72124 26.9418 7.72124 22.2863V13.8281H20.1896H32.658L30.215 16.2826C27.9218 18.5873 27.772 18.7602 27.772 19.1635C27.772 19.7281 28.0947 20.0508 28.6593 20.0508C29.0742 20.0508 29.3162 19.8318 35.147 14.001L41.1968 7.95117L43.1328 9.88711L45.0572 11.8115L36.1496 20.7191L27.2535 29.6152L25.3291 27.6908L23.3931 25.7549L25.1792 23.9572C26.8386 22.2979 26.9654 22.1365 26.9654 21.7447C26.9654 21.1801 26.6427 20.8574 26.0781 20.8574C25.6863 20.8574 25.5134 20.9957 23.4392 23.0584L21.2267 25.2594L19.7517 29.4539L18.2767 33.6484H16.6519C15.1539 33.6484 15.0041 33.6715 14.8082 33.8789C14.5085 34.2131 14.5201 34.8584 14.8427 35.1811L15.1078 35.4346H27.4955H39.8947L40.1136 35.158C40.3671 34.8469 40.4017 34.2477 40.1712 33.925C40.0099 33.7176 39.7449 33.7061 31.3212 33.6484L22.6441 33.5908L25.1216 32.7381L27.5992 31.8738L36.6451 22.851L45.691 13.8281H49.413H53.1236V23.0123V32.208L46.8433 38.4883C43.0521 42.2795 40.563 44.8607 40.5515 44.999C40.5169 45.4945 40.5861 45.702 40.8626 45.9555C41.4964 46.5201 41.1738 46.8082 49.4591 38.5229L57.1568 30.8252V34.5473V38.2578H56.2349C55.3937 38.2578 55.2785 38.2924 55.0249 38.5459C54.7138 38.8455 54.6677 39.1336 54.8636 39.56C55.048 39.9633 55.4283 40.1016 56.3501 40.1016H57.1568V41.3V42.4984L56.2234 42.5445C55.3707 42.5791 55.2669 42.6137 55.0134 42.9018C54.6792 43.2936 54.6562 43.6623 54.9789 44.0656C55.1978 44.3422 55.2785 44.3652 56.1888 44.3652H57.1568V45.6328V46.9004H56.3501C55.9123 46.9004 55.4283 46.958 55.2669 47.0271C54.6908 47.2922 54.6101 48.2141 55.1171 48.5713C55.29 48.6865 55.6587 48.7441 56.258 48.7441H57.1568V50.0117V51.2793H56.2349C55.3937 51.2793 55.2785 51.3139 55.0249 51.5674C54.7138 51.867 54.6677 52.1551 54.8636 52.5814C55.048 52.9848 55.4283 53.123 56.3501 53.123H57.1568V55.1396V57.1562H43.997H30.8257L35.2968 52.6852C39.549 48.433 39.7564 48.2025 39.7564 47.7992C39.7564 47.2922 39.3415 46.9004 38.7999 46.9004C38.5119 46.9004 38.1662 47.2 36.5298 48.8018L34.6054 50.7146L20.155 50.6686C4.28726 50.634 5.31284 50.6801 4.13745 49.9541C3.423 49.5162 3.01968 49.1244 2.59331 48.4561C2.00561 47.5457 1.80972 46.7852 1.86733 45.7365C2.00561 43.4318 3.83784 41.565 6.33843 41.2078C7.81343 41.0004 7.72124 41.2654 7.72124 37.1285C7.72124 33.6715 7.72124 33.6023 7.46772 33.3373C7.12202 32.9686 6.53433 32.9801 6.16558 33.3604L5.87749 33.6369V36.5063V39.3756L5.11694 39.56C4.17202 39.802 3.35386 40.2053 2.50112 40.8621L1.84429 41.3807V25.0059C1.84429 6.77578 1.78667 8.03183 2.6394 6.71816C3.12339 5.96914 3.80327 5.3584 4.60991 4.95508C5.08237 4.71309 5.56636 4.52871 5.79683 4.50566C5.84292 4.49414 5.87749 10.3826 5.87749 17.5732ZM45.979 7.08691L47.8804 8.98828L47.1314 9.7373L46.3824 10.4863L44.458 8.56191L42.522 6.62598L43.2365 5.91152C43.6283 5.5082 43.9855 5.18555 44.0201 5.18555C44.0546 5.18555 44.9304 6.03828 45.979 7.08691ZM24.0269 29.0391C24.8451 29.8572 25.4904 30.5602 25.4558 30.5832C25.4212 30.6178 24.9027 30.8137 24.2919 31.0326L23.1742 31.4244L22.3906 30.6293L21.607 29.8457L22.0103 28.6934C22.2292 28.0596 22.4367 27.541 22.4712 27.541C22.5058 27.541 23.2087 28.2094 24.0269 29.0391Z" fill="black"/>
<path d="M51.452 41.6111C51.0832 41.8186 41.8299 51.0719 41.6455 51.4176C41.4266 51.8439 41.4381 52.1205 41.7262 52.4777L41.9567 52.7773H47.1192H52.2817L52.5236 52.5123C52.7772 52.2473 52.7772 52.2242 52.7772 47.1654C52.7772 42.4984 52.7656 42.0721 52.5813 41.8416C52.3277 41.5535 51.7631 41.4383 51.452 41.6111ZM50.9334 47.8223V50.9336H47.799H44.6531L47.7645 47.8223C49.4699 46.1053 50.8873 44.7109 50.8988 44.7109C50.9219 44.7109 50.9334 46.1053 50.9334 47.8223Z" fill="black"/>
</svg>
