<svg width="56" height="59" viewBox="0 0 56 59" fill="none" xmlns="http://www.w3.org/2000/svg">
<path d="M0.230469 0.230469C0 0.460938 0 0.610741 0 23.9918V47.5342L5.73867 53.2613L11.4658 59H28.7855H46.0938V58.0781V57.1562H29.5H12.9062V51.8555C12.9062 46.7045 12.8947 46.5432 12.6758 46.3242C12.4568 46.1053 12.2955 46.0938 7.14453 46.0938H1.84375V23.9688V1.84375H23.9688H46.0938V22.125V42.4062H47.0156H47.9375V21.4336C47.9375 0.610741 47.9375 0.460938 47.707 0.230469C47.4766 0 47.3268 0 23.9688 0C0.610742 0 0.460938 0 0.230469 0.230469ZM11.0625 51.7979C11.0625 53.9182 11.051 55.6582 11.0279 55.6582C11.0164 55.6582 9.26484 53.9182 7.14453 51.7979L3.28418 47.9375H7.1791H11.0625V51.7979Z" fill="black"/>
<path d="M3.91797 3.91797C3.69902 4.13691 3.6875 4.29824 3.6875 7.375C3.6875 10.4518 3.69902 10.6131 3.91797 10.832C4.13691 11.051 4.29824 11.0625 8.29688 11.0625C12.2955 11.0625 12.4568 11.051 12.6758 10.832C12.8947 10.6131 12.9062 10.4518 12.9062 7.375C12.9062 4.29824 12.8947 4.13691 12.6758 3.91797C12.4568 3.69902 12.2955 3.6875 8.29688 3.6875C4.29824 3.6875 4.13691 3.69902 3.91797 3.91797ZM11.0625 7.375V9.21875H8.29688H5.53125V7.375V5.53125H8.29688H11.0625V7.375Z" fill="black"/>
<path d="M14.75 4.60938V5.53125H15.6719H16.5938V4.60938V3.6875H15.6719H14.75V4.60938Z" fill="black"/>
<path d="M18.4375 4.60938V5.53125H30.8828H43.3281V4.60938V3.6875H30.8828H18.4375V4.60938Z" fill="black"/>
<path d="M20.9258 8.46973C17.9758 8.95371 15.1295 10.1176 12.675 11.8461C11.2807 12.8256 9.16035 14.9574 8.14629 16.3633C6.69434 18.4145 5.50742 21.1455 4.93125 23.7729C4.70078 24.7984 4.67773 25.2824 4.67773 27.6562C4.67773 30.0301 4.70078 30.5141 4.93125 31.5396C5.4959 34.1439 6.69434 36.8865 8.15781 38.9492C9.14883 40.3436 11.2691 42.4754 12.675 43.4779C14.7262 44.9299 17.4688 46.1283 20.0846 46.693C21.6979 47.0387 25.9846 47.0732 27.5979 46.7506C30.1215 46.232 32.7719 45.1258 34.8461 43.7314L35.9869 42.9594L37.773 44.7455L39.5707 46.5432L39.1443 47.0041C38.7986 47.3959 38.718 47.5687 38.718 47.9605V48.4561L43.9957 53.7223L49.2619 59H49.7805H50.2875L52.7996 56.4879L55.3117 53.9758V53.4688V52.9502L50.034 47.684L44.7678 42.4062H44.2723C43.8805 42.4062 43.7076 42.4869 43.3158 42.8326L42.8549 43.259L41.0572 41.4613L39.2711 39.6752L40.0432 38.5344C41.449 36.4602 42.5438 33.8098 43.0623 31.2861C43.2236 30.4564 43.2697 29.7189 43.2697 27.5986C43.2697 25.2824 43.2352 24.7984 43.0047 23.7729C42.4285 21.1455 41.2416 18.4145 39.7896 16.3633C38.7871 14.9574 36.6553 12.8371 35.2609 11.8461C33.1982 10.3826 30.4672 9.18418 27.9205 8.63105C26.434 8.3084 22.4814 8.21621 20.9258 8.46973ZM25.5352 10.302C28.4621 10.4863 31.7924 11.7539 34.3967 13.7014C35.8717 14.7961 37.727 16.8012 38.741 18.3914C39.709 19.901 40.677 22.3324 41.1033 24.3145C41.4029 25.7088 41.4029 29.6037 41.1033 30.998C40.3889 34.3629 38.8563 37.2668 36.5285 39.6752C35.042 41.2193 33.7629 42.1873 32.0229 43.0861C29.7527 44.273 27.5172 44.9068 25.1203 45.0336C21.7439 45.2295 18.8631 44.6187 15.9131 43.0861C12.7557 41.4498 10.1744 38.8686 8.53809 35.7111C7.00547 32.7611 6.39473 29.8803 6.59063 26.5039C6.71738 24.107 7.35117 21.883 8.53809 19.5898C11.2807 14.2775 16.7543 10.6822 22.7004 10.2674C23.3687 10.2213 24.0717 10.1982 24.2561 10.2213C24.452 10.2328 25.0166 10.2674 25.5352 10.302ZM39.6975 42.9824C41.3338 44.6187 41.4145 44.7225 41.2186 44.9068C41.0342 45.1027 40.9305 45.0221 39.2711 43.3627C37.7615 41.8531 37.5426 41.5881 37.6693 41.4383C37.7615 41.3346 37.8537 41.2539 37.8998 41.2539C37.9344 41.2539 38.7525 42.026 39.6975 42.9824ZM44.9406 45.46L45.5744 46.0938L43.9842 47.684L42.4055 49.2627L41.7486 48.5943L41.0803 47.9375L42.6359 46.3818C43.4887 45.5291 44.2146 44.8262 44.2492 44.8262C44.2838 44.8262 44.5949 45.1143 44.9406 45.46ZM50.0109 50.5303L52.9494 53.4688L51.3592 55.0475L49.7805 56.6377L46.8189 53.6762L43.8459 50.7031L45.4016 49.1475C46.2543 48.2947 46.9803 47.5918 47.0148 47.5918C47.0494 47.5918 48.3977 48.917 50.0109 50.5303Z" fill="black"/>
<path d="M21.2953 13.0906C18.2877 13.6322 15.5797 15.0842 13.4018 17.3197C12.1803 18.5758 11.4773 19.5438 10.7744 20.9266C9.70273 23.0123 9.21875 25.1326 9.21875 27.6563C9.21875 30.7906 10.0023 33.3949 11.7193 35.9992C12.4338 37.0709 14.1738 38.8571 15.2916 39.6637C17.0316 40.9197 19.2787 41.8647 21.399 42.2334C22.6896 42.4639 25.2709 42.4524 26.573 42.2334C31.0902 41.4383 35.1119 38.4307 37.2092 34.2707C38.2578 32.185 38.7188 30.1684 38.7188 27.6563C38.7188 23.5424 37.3359 20.143 34.4781 17.2506C32.2771 15.0266 29.5807 13.6092 26.5385 13.0791C25.3055 12.8602 22.5053 12.8717 21.2953 13.0906ZM25.2939 14.9113C30.3182 15.2686 34.9506 19.2211 36.391 24.3951C36.6791 25.4322 36.7021 25.6858 36.7021 27.6563C36.7021 29.6153 36.6791 29.8803 36.391 30.8944C35.135 35.4115 31.7355 38.811 27.2414 40.067C26.1812 40.3666 25.9393 40.3897 23.9688 40.3897C22.0674 40.3897 21.7332 40.3551 20.8574 40.1131C18.4605 39.4332 16.49 38.3039 14.8998 36.6906C9.89863 31.6434 9.89863 23.6115 14.9113 18.5988C16.5361 16.9856 18.5182 15.8332 20.6961 15.2571C21.7447 14.9805 23.5885 14.75 24.1416 14.8192C24.2684 14.8422 24.7869 14.8768 25.2939 14.9113Z" fill="black"/>
<path d="M24.6371 23.7037L21.2146 27.1262L20.5232 26.4693C19.9125 25.8816 19.7857 25.8125 19.3479 25.8125C18.8639 25.8125 18.8063 25.8586 17.2621 27.4027C15.6949 28.9699 15.6719 28.993 15.6719 29.5V30.007L18.184 32.5191L20.6961 35.0312H21.2031H21.7217L26.9879 29.7535L32.2656 24.4873V23.9688C32.2656 23.4617 32.2426 23.4387 30.6754 21.8715C29.1082 20.3043 29.0736 20.2812 28.5781 20.2812H28.0711L24.6371 23.7037ZM29.2695 23.335L29.9033 23.9688L25.5475 28.3246L21.2031 32.6689L19.6244 31.0902L18.0342 29.5L18.691 28.8432L19.3479 28.1863L20.0393 28.8432C20.65 29.4309 20.7768 29.5 21.2146 29.5C21.7102 29.5 21.7102 29.5 25.1211 26.1006C26.9879 24.2338 28.5436 22.7012 28.5781 22.7012C28.6127 22.7012 28.9238 22.9893 29.2695 23.335Z" fill="black"/>
<path d="M3.91807 13.1367C3.69913 13.3557 3.6876 13.517 3.6876 16.5937C3.6876 20.3965 3.65303 20.2812 4.83995 20.2812H5.53135V17.5156V14.75H6.91417H8.29698V13.8281V12.9062H6.22276C4.29835 12.9062 4.13702 12.9178 3.91807 13.1367Z" fill="black"/>
<path d="M14.75 50.7031V51.625H23.0469H31.3438V50.7031V49.7812H23.0469H14.75V50.7031Z" fill="black"/>
<path d="M14.75 54.3906V55.3125H15.6719H16.5938V54.3906V53.4688H15.6719H14.75V54.3906Z" fill="black"/>
<path d="M18.4375 54.3906V55.3125H26.7344H35.0312V54.3906V53.4688H26.7344H18.4375V54.3906Z" fill="black"/>
</svg>
