<svg width="59" height="59" viewBox="0 0 59 59" fill="none" xmlns="http://www.w3.org/2000/svg">
<path d="M24.7981 0.29961C24.464 0.460938 24.0261 0.806641 23.8071 1.06015C23.1733 1.78613 23.0466 2.33926 23.0466 4.2291C23.0466 6.46465 22.9313 6.67207 21.4333 7.21367C20.9608 7.375 20.1312 7.7207 19.6011 7.9627C18.9903 8.25078 18.4603 8.41211 18.1722 8.41211C17.7458 8.41211 17.6306 8.33144 16.4206 7.14453C14.8995 5.65801 14.3925 5.38144 13.2517 5.38144C11.938 5.38144 11.6845 5.55429 8.65381 8.56191C5.58857 11.6041 5.41572 11.8576 5.41572 13.1943C5.41572 14.3582 5.66924 14.8076 7.13271 16.3057C7.98545 17.1699 8.41182 17.7 8.45791 17.942C8.52705 18.2301 8.42334 18.5758 7.97393 19.6129C7.66279 20.3273 7.31709 21.1801 7.21338 21.5143C6.99443 22.1711 6.6833 22.632 6.30303 22.8395C6.1417 22.9316 5.32354 23.0123 4.09053 23.0469C2.21221 23.1045 2.1085 23.116 1.58994 23.4156C0.921582 23.8189 0.403027 24.4297 0.172559 25.1096C-0.080957 25.8701 -0.080957 33.1299 0.172559 33.8904C0.403027 34.5703 0.921582 35.1811 1.58994 35.5844C2.1085 35.884 2.21221 35.8955 4.09053 35.9531C6.55654 36.0338 6.67178 36.0799 7.21338 37.5088C7.37471 37.9582 7.74346 38.8455 8.03154 39.5023C8.43486 40.4473 8.52705 40.7584 8.45791 41.058C8.41182 41.3 7.98545 41.8186 7.13271 42.6943C5.66924 44.1924 5.41572 44.6418 5.41572 45.8057C5.41572 47.1424 5.58857 47.3959 8.65381 50.4381C11.6845 53.4457 11.938 53.6186 13.2517 53.6186C14.3925 53.6186 14.8995 53.342 16.4206 51.8555C17.6306 50.6686 17.7458 50.5879 18.1722 50.5879C18.4718 50.5879 18.9903 50.7492 19.6011 51.0373C20.1427 51.2793 20.9724 51.625 21.4563 51.7979C21.9979 51.9822 22.4589 52.2357 22.6663 52.4547L22.989 52.7889L23.0466 54.7709C23.1042 56.5916 23.1272 56.799 23.3923 57.3061C23.7149 57.9514 24.2681 58.4814 24.9364 58.7811C25.3052 58.9424 25.697 59 26.6419 59C27.8288 59 27.8749 58.9885 28.1054 58.7004C28.405 58.3201 28.4165 57.9629 28.1169 57.5941C27.921 57.3291 27.7942 57.2945 26.8724 57.2484C25.0978 57.1447 24.8903 56.8566 24.8903 54.5289C24.8903 52.4432 24.7405 51.9016 23.9224 51.0949C23.5536 50.7262 23.1157 50.4266 22.7585 50.2998C22.4474 50.1846 21.4679 49.7812 20.6036 49.4125C19.1978 48.8133 18.9442 48.7441 18.2413 48.7441C17.112 48.7557 16.628 49.0092 15.2683 50.3574C14.6345 50.9912 13.9315 51.5789 13.7011 51.6711C12.9175 51.9938 12.7331 51.867 9.87529 48.9977L7.25947 46.3703V45.8172C7.25947 45.2641 7.271 45.2525 8.52705 43.9619C10.0366 42.4178 10.3017 41.9338 10.3017 40.7354C10.3017 40.0209 10.2325 39.7904 9.72549 38.6611C9.40283 37.9582 9.02256 37.0363 8.86123 36.5984C8.52705 35.642 7.84717 34.8238 7.06357 34.4551C6.57959 34.2246 6.27998 34.1785 4.6667 34.1324C2.6501 34.0748 2.30439 33.9826 2.01631 33.418C1.76279 32.9225 1.76279 26.0775 2.01631 25.582C2.30439 25.0174 2.6501 24.9252 4.60908 24.8561C5.61162 24.8215 6.60264 24.7293 6.85615 24.6486C7.13271 24.5564 7.57061 24.2338 7.95088 23.8535C8.45791 23.3465 8.64229 23.0584 8.86123 22.4131C9.02256 21.9637 9.40283 21.0303 9.72549 20.3389C10.2325 19.2096 10.3017 18.9791 10.3017 18.2646C10.3017 17.0662 10.0366 16.5822 8.52705 15.0381C7.271 13.7475 7.25947 13.7359 7.25947 13.1828V12.6297L9.87529 10.0023C12.7331 7.13301 12.9175 7.00625 13.7011 7.32891C13.9315 7.42109 14.6345 8.00879 15.2683 8.64258C16.628 9.99082 17.112 10.2443 18.2413 10.2559C18.9442 10.2559 19.1978 10.1867 20.6036 9.5875C21.4679 9.21875 22.4474 8.81543 22.7585 8.7002C23.1157 8.57344 23.5536 8.27383 23.9224 7.90508C24.7405 7.09844 24.8903 6.55684 24.8903 4.47109C24.8903 2.71953 24.9825 2.39687 25.5472 2.00508C25.8353 1.80918 26.1464 1.78613 28.9235 1.75156C32.7263 1.70547 33.1065 1.74004 33.6136 2.24707C33.8325 2.46601 33.9938 2.74258 33.9938 2.9039C33.9938 3.05371 33.7864 3.71054 33.5329 4.36738C33.2794 5.0127 33.072 5.64648 33.072 5.77324C33.072 6.14199 33.579 6.56836 34.0284 6.56836C34.2358 6.56836 34.5009 6.49922 34.6046 6.41855C34.9388 6.17656 35.8722 3.59531 35.8606 2.93848C35.8491 1.84375 35.1231 0.772068 34.0515 0.276562C33.4868 0 33.4292 0 29.4306 0H25.3974L24.7981 0.29961Z" fill="black"/>
<path d="M53.0992 0.218948C52.477 0.460941 51.4514 1.18692 51.3592 1.44043C51.3016 1.57872 50.6332 1.61329 47.1646 1.63633C43.385 1.6709 43.0047 1.69395 42.6359 1.88985C42.417 2.00508 41.0803 3.24961 39.6744 4.65547C37.8422 6.47617 37.0471 7.35196 36.8857 7.72071C36.6783 8.18164 36.6438 8.48125 36.6438 10.567V12.9063L36.1943 13.3557C35.3186 14.2314 34.7654 15.8908 34.9959 17.0201L35.1111 17.5963L33.6131 19.6014C32.7949 20.7076 32.0689 21.6986 31.9883 21.8023C31.85 21.9867 31.7809 21.9982 31.0434 21.8369C27.2176 21.0303 23.3803 23.2082 22.032 26.9879C21.767 27.7484 21.7324 27.9904 21.7324 29.5C21.7324 31.0096 21.767 31.2516 22.032 32.0121C23.1844 35.2271 26.1344 37.3359 29.5107 37.3359C30.0984 37.3359 31.1125 37.1977 31.585 37.0479C31.7232 37.0018 32.2188 37.5895 33.4287 39.2027L35.0996 41.4268L34.9844 41.9914C34.7654 43.1553 35.2725 44.6764 36.1713 45.6098L36.6438 46.0938V48.433C36.6438 50.5188 36.6783 50.8184 36.8857 51.2793C37.0471 51.648 37.8422 52.5238 39.6744 54.3445C41.0803 55.7504 42.417 56.9949 42.6359 57.1102C43.0047 57.3061 43.385 57.3291 47.107 57.3637L51.1748 57.3982L51.6357 57.8477C51.9008 58.1012 52.3963 58.4469 52.7535 58.6197C53.3527 58.9078 53.5256 58.9424 54.6779 58.9424C55.8994 58.9424 55.9686 58.9309 56.6715 58.5506C57.5357 58.0781 58.2271 57.3637 58.6305 56.4879C58.907 55.9117 58.9416 55.6813 58.9416 54.6787C58.9416 53.6762 58.907 53.4457 58.6305 52.8695C58.2271 51.9938 57.5357 51.2793 56.6715 50.8068C55.9686 50.4266 55.8994 50.415 54.6779 50.415C53.5141 50.415 53.3527 50.4381 52.7189 50.7492C52.3502 50.9336 51.8201 51.3139 51.5551 51.5904L51.0711 52.0859H48.0404H44.9982L43.4771 50.5648L41.9445 49.0322V47.5918V46.1398L42.44 45.6559L42.9355 45.1719H47.0033H51.0711L51.5551 45.6674C51.8201 45.9439 52.3502 46.3242 52.7189 46.5086C53.3527 46.8197 53.5141 46.8428 54.6779 46.8428C55.8994 46.8428 55.9686 46.8313 56.6715 46.451C57.5357 45.9785 58.2271 45.2641 58.6305 44.3883C58.907 43.8121 58.9416 43.5816 58.9416 42.5791C58.9416 41.5766 58.907 41.3461 58.6305 40.7699C58.2271 39.8941 57.5357 39.1797 56.6715 38.7072C55.9686 38.327 55.8994 38.3154 54.6779 38.3154C53.5141 38.3154 53.3527 38.3385 52.7189 38.6496C52.3502 38.834 51.8201 39.2143 51.5551 39.4908L51.0711 39.9863H47.0033H42.9471L42.4055 39.4793C41.691 38.8109 40.8037 38.373 40.0201 38.2924L39.3863 38.2232L37.727 36.0107L36.0676 33.8098L36.4824 32.9801L36.8973 32.1504H43.9842H51.0826L51.6242 32.6574C51.9238 32.934 52.3732 33.2682 52.6152 33.3949C54.8162 34.5012 57.5357 33.5793 58.6189 31.3668C58.907 30.7791 58.9416 30.5947 58.9416 29.5C58.9416 28.4053 58.907 28.2209 58.6189 27.6332C57.5357 25.4207 54.8162 24.4988 52.6152 25.6051C52.3732 25.7318 51.9238 26.066 51.6242 26.3426L51.0826 26.8496H48.4898C46.0354 26.8496 45.874 26.8611 45.5859 27.0916C45.1596 27.4258 45.1596 28.1172 45.5859 28.4514C45.874 28.6818 46.0469 28.6934 48.098 28.6934H50.299V29.5V30.3066H43.7883H37.2775V29.5V28.6934H39.8242C42.1635 28.6934 42.4055 28.6703 42.6475 28.4744C42.8549 28.3131 42.924 28.1402 42.924 27.7715C42.924 27.4027 42.8549 27.2299 42.6475 27.0686C42.4055 26.8727 42.152 26.8496 39.6398 26.8496H36.8973L36.4939 26.0314L36.0791 25.2133L37.75 22.9893L39.4094 20.7768L40.0316 20.7076C40.8037 20.627 41.7025 20.1775 42.4055 19.5207L42.9471 19.0137H47.0033H51.0711L51.5551 19.5092C51.8201 19.7857 52.3502 20.166 52.7189 20.3504C53.3527 20.6615 53.5141 20.6846 54.6779 20.6846C55.8994 20.6846 55.9686 20.673 56.6715 20.2928C57.5357 19.8203 58.2271 19.1059 58.6305 18.2301C58.907 17.6539 58.9416 17.4234 58.9416 16.4209C58.9416 15.4184 58.907 15.1879 58.6305 14.6117C58.2271 13.7359 57.5357 13.0215 56.6715 12.549C55.9686 12.1688 55.8994 12.1572 54.6779 12.1572C53.5141 12.1572 53.3527 12.1803 52.7189 12.4914C52.3502 12.6758 51.8201 13.0561 51.5551 13.3326L51.0711 13.8281H46.9918H42.9125L42.4285 13.3326L41.9445 12.8371V11.3967V9.96778L43.4771 8.43516L44.9982 6.91407H48.0289H51.0711L51.5781 7.4211C51.8547 7.70918 52.3848 8.07793 52.7535 8.26231C53.3527 8.56192 53.5256 8.58496 54.6779 8.58496C55.8994 8.58496 55.9686 8.57344 56.6715 8.19317C57.5357 7.72071 58.2271 7.00625 58.6305 6.13047C58.907 5.5543 58.9416 5.32383 58.9416 4.32129C58.9416 3.31875 58.907 3.08828 58.6305 2.51211C58.2271 1.63633 57.5357 0.921879 56.6715 0.449417C56.0031 0.103714 55.8533 0.057621 54.7932 0.0345726C53.8713 3.8147e-06 53.5371 0.0460968 53.0992 0.218948ZM55.7496 2.0627C56.6254 2.51211 57.1555 3.36485 57.1555 4.32129C57.1555 5.80782 55.9455 6.89102 54.4014 6.77578C53.2951 6.69512 52.4885 5.98067 52.2004 4.8168C51.9354 3.77969 52.6152 2.45449 53.6293 2.00508C54.1709 1.77461 55.2426 1.79766 55.7496 2.0627ZM50.299 4.26368V5.07032H47.2453H44.2031L42.152 7.12149L40.1008 9.17266V10.6361V12.0996H39.2941H38.4875V10.348V8.58496L41.0457 6.02676L43.6154 3.45704H46.9572H50.299V4.26368ZM40.435 14.1738C41.2762 14.6002 41.8293 15.4875 41.8293 16.4209C41.8293 17.9074 40.6193 18.9906 39.0752 18.8754C37.9689 18.7947 37.1623 18.0803 36.8742 16.9164C36.6092 15.8793 37.2891 14.5541 38.3031 14.1047C38.8447 13.8742 39.9164 13.8973 40.435 14.1738ZM55.7611 14.1738C56.6023 14.6002 57.1555 15.4875 57.1555 16.4209C57.1555 17.9074 55.9455 18.9906 54.4014 18.8754C53.2951 18.7947 52.4885 18.0803 52.2004 16.9164C51.9354 15.8793 52.6152 14.5541 53.6293 14.1047C54.1709 13.8742 55.2426 13.8973 55.7611 14.1738ZM50.299 16.4209V17.2852H46.9918H43.673V16.4209V15.5566H46.9918H50.299V16.4209ZM37.3121 20.3504C37.3467 20.3734 35.1457 23.4156 34.9037 23.6691C34.8576 23.7268 34.5926 23.5885 34.3275 23.3465C34.0625 23.116 33.7975 22.9316 33.7398 22.9316C33.5209 22.9316 33.7168 22.5975 34.8691 21.0764L36.0791 19.4631L36.6783 19.8895C37.0125 20.1314 37.2891 20.3389 37.3121 20.3504ZM31.4006 23.8535C34.074 24.7869 35.8371 27.6793 35.3762 30.3988C35.0189 32.5422 33.4057 34.4551 31.4006 35.1465C27.5863 36.4602 23.507 33.5447 23.507 29.5C23.507 26.815 25.443 24.349 28.0703 23.6807C28.9691 23.4617 30.4902 23.5309 31.4006 23.8535ZM55.9686 27.3797C56.66 27.8061 57.1555 28.6934 57.1555 29.5C57.1555 30.6869 56.1529 31.8393 54.9775 32.0006C53.5141 32.1965 52.1543 30.998 52.1543 29.5C52.1543 27.5295 54.2861 26.3426 55.9686 27.3797ZM36.0676 36.9441L37.3352 38.6381L36.6898 39.0875C36.3441 39.341 36.033 39.5254 36.0215 39.5139C35.9984 39.4908 35.4338 38.7303 34.7654 37.8314L33.5324 36.1951L33.9127 35.9646C34.1316 35.8379 34.3967 35.6305 34.5119 35.4922C34.6271 35.3654 34.7424 35.2617 34.7539 35.2617C34.777 35.2617 35.3646 36.0223 36.0676 36.9441ZM40.4234 40.3205C41.2992 40.7699 41.8293 41.6227 41.8293 42.5791C41.8293 44.0656 40.6193 45.1488 39.0752 45.0336C37.9689 44.9529 37.1623 44.2385 36.8742 43.0746C36.6092 42.0375 37.2891 40.7123 38.3031 40.2629C38.8447 40.0324 39.9164 40.0555 40.4234 40.3205ZM55.7496 40.3205C56.6254 40.7699 57.1555 41.6227 57.1555 42.5791C57.1555 44.0656 55.9455 45.1488 54.4014 45.0336C53.2951 44.9529 52.4885 44.2385 52.2004 43.0746C51.9354 42.0375 52.6152 40.7123 53.6293 40.2629C54.1709 40.0324 55.2426 40.0555 55.7496 40.3205ZM50.299 42.5791V43.4434H46.9918H43.673V42.5791V41.7148H46.9918H50.299V42.5791ZM40.1008 48.3639V49.8273L42.152 51.8785L44.2031 53.9297H47.2453H50.299V54.7363V55.543H46.9572H43.6154L41.0572 52.9848L38.4875 50.415V48.6635V46.9004H39.2941H40.1008V48.3639ZM55.7496 52.4201C56.6254 52.8695 57.1555 53.7223 57.1555 54.6787C57.1555 56.1652 55.9455 57.2484 54.4014 57.1332C53.2951 57.0525 52.4885 56.3381 52.2004 55.1742C51.9354 54.1371 52.6152 52.8119 53.6293 52.3625C54.1709 52.132 55.2426 52.1551 55.7496 52.4201Z" fill="black"/>
<path d="M32.0226 8.74628C31.8498 8.88457 31.5732 9.42617 31.2851 10.1637L30.8242 11.3736L29.0381 11.4428C26.9638 11.5234 25.3045 11.8115 23.5875 12.3992C17.5031 14.508 13.1588 19.44 11.7299 25.8932C11.3841 27.4488 11.3496 31.3207 11.6722 32.8994C12.1447 35.2156 13.032 37.4051 14.2881 39.341C15.3597 40.9889 15.8552 41.3115 16.5236 40.7814C16.9961 40.4127 16.9384 39.8365 16.3508 39.0529C14.8066 36.9787 13.7004 34.19 13.3547 31.5051C13.1588 29.9148 13.2855 27.4488 13.6427 25.9277C15.3021 18.7832 21.4326 13.6553 28.7269 13.2865C29.4644 13.2519 30.0752 13.2404 30.0752 13.275C30.0752 13.4018 28.8998 16.3057 28.7961 16.4324C28.7384 16.5016 28.3351 16.6053 27.8972 16.6398C23.8295 17.0432 19.923 19.7742 17.9871 23.5654C16.95 25.582 16.5351 27.5064 16.6273 29.9033C16.7195 32.3002 17.2496 34.1324 18.4019 36.0914C20.3955 39.4332 24.1521 41.8531 27.9433 42.2449C28.3582 42.291 28.7384 42.3832 28.8076 42.4523C28.9113 42.5791 29.8216 44.8838 30.0175 45.5061L30.0982 45.7826L28.7961 45.7135C25.6617 45.5637 22.7808 44.5842 20.1996 42.798C18.955 41.9453 18.5056 41.8531 18.1023 42.3602C17.6068 42.9939 17.8258 43.4203 19.1049 44.3307C22.0664 46.4395 25.7884 47.5918 29.6834 47.5918H30.8357L32.4144 51.7172C33.2787 53.9758 33.9931 55.9463 33.9931 56.0846C33.9931 56.4879 33.4285 57.041 32.8984 57.1562C32.6449 57.2139 32.1148 57.2715 31.723 57.2715C30.8472 57.2715 30.5361 57.502 30.5361 58.1357C30.5361 58.8617 30.8011 59 32.23 59C33.2902 59 33.5552 58.9539 34.0507 58.7234C34.7076 58.4238 35.399 57.7094 35.664 57.0756C36.0904 56.0846 36.0674 56.0154 33.198 48.5367C31.7345 44.7225 30.4554 41.4613 30.3517 41.3115C30.0291 40.816 29.499 40.5855 28.4043 40.4473C24.4172 39.9633 21.2136 37.6932 19.5197 34.167C18.69 32.4615 18.5056 31.5973 18.5056 29.4424C18.5056 27.3105 18.69 26.4232 19.4736 24.7984C21.2021 21.1801 24.3595 18.933 28.3697 18.4375C29.499 18.2992 30.0291 18.0687 30.3517 17.5732C30.4554 17.4234 31.2045 15.5451 32.0341 13.4133C33.4285 9.80644 33.5322 9.49531 33.4054 9.13808C33.198 8.51582 32.5527 8.33144 32.0226 8.74628Z" fill="black"/>
</svg>
