<svg width="55" height="59" viewBox="0 0 55 59" fill="none" xmlns="http://www.w3.org/2000/svg">
<path d="M14.4671 0.184376C14.1214 0.276562 13.4991 0.518555 13.0843 0.714451C12.3929 1.03711 11.7936 1.60176 6.83856 6.55684C1.88348 11.5119 1.31883 12.1227 0.938559 12.8602C0.120395 14.4389 0.166488 13.3096 0.166488 32.0928C0.166488 50.5533 0.131918 49.6199 0.811801 50.9566C1.19207 51.6941 2.21766 52.7312 3.00125 53.1461C4.26883 53.826 4.06141 53.8145 14.5708 53.8145H24.1929V54.8285C24.1929 55.6812 24.2505 55.9348 24.527 56.5455C24.9073 57.3867 25.8177 58.3086 26.6358 58.6889L27.1889 58.9424H39.5766H51.9643L52.5175 58.6889C53.2665 58.3432 54.2229 57.3982 54.6263 56.6146C54.9259 56.0039 54.9604 55.8426 54.9604 54.7939C54.9604 53.7684 54.9259 53.5609 54.6378 52.9502C54.2806 52.1896 53.5776 51.3945 52.9323 51.0258L52.5175 50.7953L52.4483 49.6199C52.3792 48.3293 52.0335 46.9926 51.6417 46.5777C51.3536 46.2666 50.7659 46.2436 50.3972 46.5316C50.063 46.8082 50.063 47.2576 50.3856 48.4445C50.5239 48.9516 50.6391 49.6084 50.6391 49.9195V50.4727H39.7495H28.8598V49.8043C28.8598 47.5227 30.3809 45.1949 32.5589 44.1578C33.7112 43.6047 34.4948 43.4434 36.085 43.4434C37.2028 43.4434 37.3065 43.4203 37.56 43.1553C37.9634 42.7635 37.9518 42.1643 37.5485 41.8416C37.2835 41.6342 37.0761 41.5996 35.9468 41.5996C34.2874 41.5996 33.5153 41.4498 32.3399 40.8967C30.9917 40.2744 29.8393 39.1221 29.2171 37.7738C28.7677 36.8174 28.5141 35.8264 28.5141 35.0082V34.5703H39.4729H50.4317L50.3511 35.3539C50.1552 37.14 49.36 38.7648 48.1386 39.8596C46.7903 41.058 45.2347 41.5996 43.1259 41.5996C41.9505 41.5996 41.8583 41.6111 41.5932 41.8877C41.2475 42.2219 41.2245 42.7404 41.5241 43.1092C41.7315 43.3742 41.8352 43.3857 43.5177 43.4549C45.5458 43.524 46.5022 43.7891 47.6085 44.5611C48.7147 45.3332 48.9452 45.4254 49.36 45.2756C49.7749 45.1258 49.9477 44.8723 49.9477 44.3768C49.9477 43.9619 49.4522 43.4664 48.4497 42.8557L47.7583 42.4293L48.2653 42.1297C49.0028 41.7033 49.9938 40.7469 50.5931 39.9172C51.561 38.5574 52.045 37.1746 52.1948 35.2387L52.2755 34.3514L52.8747 34.0172C53.6237 33.5908 54.269 32.8764 54.6608 32.0467C54.9259 31.482 54.9604 31.2516 54.9604 30.249C54.9604 29.2234 54.9259 29.0275 54.6493 28.4514C54.0155 27.1838 52.794 26.2734 51.3766 26.043C51.0079 25.9738 49.9593 25.9277 49.0604 25.9277H47.4126V15.6373C47.4126 9.14961 47.3665 5.08184 47.2973 4.60938C47.0093 2.83477 45.88 1.31367 44.2321 0.495506L43.3333 0.0576172L29.2171 0.0345688C17.1059 0.0115242 14.9972 0.0345688 14.4671 0.184376ZM42.2731 1.84375C43.6214 2.06269 44.647 2.81172 45.2116 4.02168L45.5112 4.66699L45.5458 15.2916L45.5804 25.9162L36.5575 25.9508L27.5347 25.9854L26.8778 26.2504C25.5526 26.792 24.3888 28.2209 24.1813 29.5807L24.1122 30.0762H15.4581H6.80399L6.53895 30.3297C6.20477 30.6408 6.19325 31.217 6.49286 31.5857L6.7118 31.8623L15.5733 31.8969L24.4348 31.9199L24.6307 32.3232C24.8958 32.8764 25.5872 33.6139 26.1749 33.9596C26.5782 34.19 26.6704 34.3053 26.6704 34.5818V34.916H16.7372H6.80399L6.53895 35.1695C6.20477 35.4807 6.19325 36.0568 6.49286 36.4256L6.7118 36.7021L16.7833 36.7367L26.8548 36.7598L27.1198 37.624C27.2581 38.085 27.5577 38.7648 27.7651 39.1105L28.1569 39.7559H17.4747H6.80399L6.53895 40.0094C6.20477 40.3205 6.19325 40.8967 6.49286 41.2654L6.7118 41.542L18.3389 41.5996L29.9546 41.6572L30.6806 42.1412L31.395 42.6137L30.8764 42.9248C30.5884 43.0861 30.0237 43.5355 29.6204 43.9158L28.8829 44.5957H17.8434H6.80399L6.53895 44.8492C6.1702 45.1949 6.18172 45.7826 6.562 46.1514L6.83856 46.4395H17.2788C23.0175 46.4395 27.7075 46.451 27.7075 46.4625C27.7075 46.4855 27.5692 46.8889 27.4079 47.3613C27.1774 48.0066 27.0852 48.5367 27.0507 49.4471L26.9931 50.6801L26.4284 50.9336C26.1288 51.0834 25.7024 51.3715 25.5065 51.5789L25.1263 51.9707H15.0663C5.05243 51.9707 5.01786 51.9707 4.3495 51.7172C3.45067 51.383 2.59793 50.5303 2.25223 49.6314L2.01024 48.9631L2.03329 32.5652L2.06786 16.1789L2.37899 15.6949C2.55184 15.4414 2.94364 15.0727 3.24325 14.8998L3.79637 14.5771L7.19579 14.5195C10.3763 14.4504 10.6298 14.4389 11.2175 14.1969C13.2341 13.3557 14.686 11.3621 14.686 9.42617C14.686 8.72324 14.4095 8.41211 13.7872 8.41211C13.211 8.41211 13.0151 8.64258 12.8538 9.49531C12.6233 10.7514 11.9204 11.7309 10.8257 12.307L10.2495 12.6182L6.85008 12.6758C4.98329 12.7104 3.38153 12.7795 3.30086 12.8256C3.23172 12.8832 3.16258 12.9062 3.16258 12.8832C3.16258 12.8602 5.37508 10.6361 8.09461 7.9166L13.0151 2.99609L12.9806 4.64394C12.946 6.16504 12.9575 6.30332 13.1764 6.49922C13.4876 6.7873 14.1905 6.77578 14.4901 6.46465C14.6975 6.26875 14.7321 6.03828 14.7897 4.8168C14.8473 3.59531 14.905 3.3418 15.1354 2.96152C15.4696 2.4084 16.1034 1.98203 16.7718 1.85527C17.4862 1.71699 41.4204 1.70547 42.2731 1.84375ZM51.3997 27.9443C52.0565 28.1402 52.7249 28.751 53.0014 29.4078C53.4854 30.5832 52.9208 31.9545 51.7339 32.5076C51.296 32.715 50.7198 32.7266 39.5766 32.7266C28.445 32.7266 27.8573 32.715 27.4079 32.5076C26.5667 32.1273 25.979 31.1709 25.979 30.1914C25.9905 29.2811 26.8893 28.1518 27.7997 27.9098C28.0647 27.8406 32.5934 27.7945 39.5306 27.783C49.1526 27.7715 50.9157 27.7945 51.3997 27.9443ZM51.7684 52.5354C53.6468 53.5033 53.6352 55.9348 51.7339 56.9604L51.2729 57.2139H39.5766H27.8804L27.4194 56.9604C25.5065 55.9348 25.5065 53.4227 27.4194 52.5354C27.8573 52.3279 28.4335 52.3164 39.6112 52.3164C50.9272 52.3164 51.3536 52.3279 51.7684 52.5354Z" fill="black"/>
<path d="M9.71895 16.6514C9.47695 16.7896 9.21191 17.3773 8.08262 20.3619C7.33359 22.3094 6.73438 24.0494 6.73438 24.2107C6.73438 24.6256 7.18379 25.0059 7.6793 25.0059C8.16328 25.0059 8.3707 24.81 8.67031 24.0264L8.90078 23.4502L10.2836 23.4156L11.6664 23.3811L11.8738 23.9111C12.185 24.7523 12.4385 25.0059 12.957 25.0059C13.3027 25.0059 13.4525 24.9367 13.6369 24.7062C13.7752 24.5334 13.8789 24.2914 13.8789 24.1646C13.8789 24.0264 13.2682 22.3209 12.5307 20.3619C11.3438 17.2275 11.1479 16.7896 10.8713 16.6398C10.468 16.4439 10.1107 16.4439 9.71895 16.6514ZM10.6754 20.7076L10.9635 21.4912L10.6293 21.5258C10.4564 21.5488 10.1568 21.5488 9.98398 21.5258L9.6498 21.4912L9.93789 20.7076C10.0992 20.2812 10.2605 19.9355 10.3066 19.9355C10.3527 19.9355 10.5141 20.2812 10.6754 20.7076Z" fill="black"/>
<path d="M15.4461 16.7205L15.1465 16.9509V19.7281C15.1465 21.5718 15.1926 22.6666 15.2848 22.9777C15.4807 23.6345 16.4256 24.5679 17.1516 24.8099C18.373 25.2248 19.6982 24.9828 20.6316 24.1646C21.5535 23.3464 21.5996 23.1851 21.5996 19.8664C21.5996 16.997 21.5996 16.974 21.3346 16.732C21.0465 16.4669 20.574 16.4093 20.2168 16.5937C19.8365 16.8011 19.7559 17.3542 19.7559 19.9355C19.7559 22.3785 19.7559 22.4361 19.5023 22.6666C18.9146 23.1966 18.2924 23.3003 17.6816 22.9892C17.0133 22.6435 16.9902 22.5513 16.9902 19.6705V17.0431L16.7021 16.7666C16.3564 16.4093 15.8609 16.3978 15.4461 16.7205Z" fill="black"/>
<path d="M23.7098 16.7321C23.4447 17.0087 23.4447 17.0317 23.4447 20.7769C23.4447 25.4669 23.2258 25.0405 25.6111 24.9829C27.5586 24.9368 27.8928 24.8216 28.7225 23.9228C30.6353 21.8485 30.0707 17.8614 27.7199 16.7782C27.282 16.5823 26.9133 16.5362 25.5766 16.5017C23.9978 16.4556 23.9633 16.4671 23.7098 16.7321ZM26.8902 18.4952C28.25 19.1981 28.4228 21.6642 27.1898 22.8165C26.9478 23.047 26.7404 23.1046 26.0951 23.1392L25.2885 23.1853V20.7538V18.3224H25.9223C26.2795 18.3224 26.7174 18.403 26.8902 18.4952Z" fill="black"/>
<path d="M32.0283 16.7666L31.7402 17.0432V20.7191C31.7402 24.2684 31.7518 24.4066 31.9822 24.7062C32.1666 24.9367 32.3164 25.0059 32.6621 25.0059C33.0078 25.0059 33.1576 24.9367 33.342 24.7062C33.5725 24.4066 33.584 24.2684 33.584 20.7191V17.0432L33.2959 16.7666C33.123 16.5822 32.8811 16.4785 32.6621 16.4785C32.4432 16.4785 32.2012 16.5822 32.0283 16.7666Z" fill="black"/>
<path d="M35.6006 16.7666C35.4162 16.9395 35.3125 17.1814 35.3125 17.4004C35.3125 17.9881 35.7504 18.3223 36.5225 18.3223H37.1562V21.3645C37.1562 24.2568 37.1678 24.4182 37.3982 24.7062C37.5826 24.9367 37.7324 25.0059 38.0781 25.0059C38.4238 25.0059 38.5736 24.9367 38.758 24.7062C38.9885 24.4182 39 24.2568 39 21.3645V18.3223H39.6223C40.452 18.3223 40.8438 18.0227 40.8438 17.4004C40.8438 17.0547 40.7746 16.9049 40.5441 16.7205C40.2561 16.49 40.0832 16.4785 38.0551 16.4785C35.9002 16.4785 35.8771 16.4785 35.6006 16.7666Z" fill="black"/>
</svg>
