<svg width="60" height="59" viewBox="0 0 60 59" fill="none" xmlns="http://www.w3.org/2000/svg">
<path d="M12.71 0.184326C7.17871 1.22144 2.62695 5.1855 0.852344 10.4978C0.287695 12.1687 0.0917969 13.4478 0.0917969 15.3837C0.0917969 19.0021 1.12891 22.1365 3.18008 24.6716C4.6666 26.5384 5.56543 28.2669 6.08398 30.2951C6.22227 30.8251 6.42969 31.4589 6.54492 31.6894C6.83301 32.2541 7.43223 32.7611 8.08906 33.0146L8.61914 33.222V34.4896C8.61914 35.5382 8.66523 35.8494 8.84961 36.2412C9.12617 36.8173 9.78301 37.4972 10.2209 37.6816C10.4514 37.7738 10.5896 37.9466 10.6934 38.2923C11.3732 40.5855 13.6779 42.0259 16.1324 41.6917C17.9992 41.4498 19.6125 40.0785 20.1426 38.2923C20.2463 37.9466 20.3846 37.7738 20.615 37.6816C21.0299 37.5087 21.8365 36.633 22.0555 36.1259C22.1592 35.8609 22.2168 35.2962 22.2168 34.4781V33.222L22.7469 33.0146C23.4037 32.7611 24.0029 32.2541 24.291 31.6894C24.4062 31.4589 24.6137 30.8251 24.752 30.2951C25.2705 28.2669 26.2961 26.3195 27.8402 24.4296C29.0848 22.9085 30.1564 20.4195 30.5598 18.1033C30.8018 16.6974 30.8018 14.1046 30.5598 12.7333C29.5227 6.71811 25.0977 1.9935 18.9902 0.380222C18.0453 0.126709 17.5959 0.0806122 15.7637 0.0460434C14.2195 0.022995 13.3783 0.0575676 12.71 0.184326ZM17.9762 2.1894C19.8199 2.56968 21.4908 3.28413 23.0926 4.39038C24.0836 5.08179 25.7775 6.79878 26.4689 7.82436C27.218 8.91909 28.0592 10.7859 28.4049 12.065C28.7621 13.4478 28.8889 15.9253 28.6814 17.4234C28.3934 19.44 27.2871 22.0443 26.2154 23.2658C24.6598 25.0404 23.3 27.7253 22.793 29.9955C22.7008 30.3988 22.5279 30.7675 22.3551 30.9404C22.0785 31.2169 22.0209 31.2285 20.4191 31.2285H18.7598V26.5039V21.7792L19.7738 21.7677C20.327 21.7677 20.9377 21.6986 21.1451 21.6294C21.8365 21.3759 22.4934 20.7998 22.8506 20.1544C23.3 19.3248 23.3346 18.1033 22.9197 17.2621C22.1477 15.6603 20.1771 15.015 18.5639 15.8332C17.4691 16.3748 16.9621 17.2736 16.8469 18.8292L16.7662 19.8203H15.418H14.0697L13.9891 18.8292C13.8738 17.2736 13.3668 16.3748 12.2721 15.8332C11.5 15.4414 10.6818 15.3607 9.81758 15.6142C8.88418 15.8792 8.01992 16.7435 7.74336 17.7C7.2709 19.3363 8.11211 21.0417 9.69082 21.6294C9.89824 21.6986 10.509 21.7677 11.0736 21.7677L12.0762 21.7792V26.5039V31.2285H10.4168C8.81504 31.2285 8.75742 31.2169 8.48086 30.9404C8.30801 30.7675 8.13516 30.3988 8.04297 29.9955C7.53594 27.7253 6.17617 25.0404 4.62051 23.2658C3.07637 21.5142 2.02773 18.3683 2.02773 15.499C2.01621 11.8921 3.28379 8.73471 5.78438 6.13042C7.77793 4.0562 10.0596 2.78862 12.8828 2.1894C14.2771 1.88979 16.4781 1.88979 17.9762 2.1894ZM11.4885 17.7C11.8688 18.0226 12.0762 18.5757 12.0762 19.3248V19.8203H11.2234C10.4744 19.8203 10.3246 19.7857 10.0135 19.5207C9.57559 19.1519 9.44883 18.5988 9.70234 18.1033C10.0711 17.4003 10.9008 17.2044 11.4885 17.7ZM20.6035 17.5732C21.3641 17.965 21.4793 18.9675 20.8225 19.5207C20.5113 19.7857 20.3615 19.8203 19.601 19.8203H18.7252L18.7943 18.9791C18.8635 18.2185 18.898 18.1148 19.2668 17.7691C19.7277 17.3542 20.085 17.3082 20.6035 17.5732ZM16.8008 26.5039V31.2285H15.418H14.0352V26.5039V21.7792H15.418H16.8008V26.5039ZM20.2578 34.2591C20.2578 35.4345 20.1541 35.7111 19.5895 35.9416C19.359 36.0337 18.126 36.0683 15.199 36.0453L11.1313 36.0107L10.8547 35.688C10.6012 35.4 10.5781 35.2617 10.5781 34.2707V33.1875H15.418H20.2578V34.2591ZM18.0684 38.131C18.0684 38.2462 17.5498 38.9146 17.2617 39.1566C16.3283 39.9632 14.6229 39.9748 13.6088 39.1796C13.2861 38.9261 12.7676 38.2693 12.7676 38.1195C12.7676 38.0734 13.966 38.0273 15.418 38.0273C16.9621 38.0273 18.0684 38.0734 18.0684 38.131Z" fill="black"/>
<path d="M31.8274 8.57344C31.2397 8.82695 31.1129 9.66816 31.5854 10.1176C31.8504 10.3711 31.8619 10.3711 37.5776 10.3711H43.3047V16.8357V23.3004L42.4981 22.5398C41.8297 21.9176 41.6223 21.7793 41.2996 21.7793C40.7004 21.7793 40.3086 22.1596 40.3086 22.7357C40.3086 23.1967 40.3662 23.2658 42.0717 24.9713C43.8002 26.6998 43.8463 26.7344 44.3303 26.7344C44.8028 26.7344 44.8719 26.6883 46.2662 25.317C48.4787 23.1621 48.6977 22.7703 48.0408 22.1135C47.4647 21.5488 47.119 21.641 46.1164 22.609L45.2637 23.4271V16.2365C45.2522 8.48125 45.2752 8.76933 44.6414 8.52734C44.1344 8.34297 32.2768 8.37754 31.8274 8.57344Z" fill="black"/>
<path d="M40.8041 28.6011C40.6658 28.7509 40.4814 29.2349 40.3777 29.7304C40.2625 30.2029 40.1012 30.9404 40.009 31.3667C39.9053 31.8046 39.767 32.1503 39.6979 32.1503C39.6172 32.1503 39.2945 32.2771 38.9604 32.4269L38.3611 32.715L37.0244 31.8507C35.5955 30.9404 35.2959 30.8136 34.8695 30.9404C34.5469 31.0441 31.3664 34.1554 31.1244 34.6163C30.8709 35.1003 30.9861 35.4345 31.8965 36.8404C32.3344 37.5318 32.7031 38.1771 32.7031 38.2693C32.7031 38.3845 32.3689 39.3064 32.1846 39.7212C32.173 39.7443 31.4471 39.9171 30.5598 40.113C29.4766 40.355 28.8773 40.5509 28.7045 40.7122C28.4395 40.9427 28.4395 41.0003 28.4395 43.6738C28.4395 46.3472 28.4395 46.4048 28.7045 46.6353C28.8773 46.7966 29.4766 46.9925 30.5598 47.2345C31.4471 47.4304 32.173 47.6032 32.1846 47.6263C32.3689 48.0411 32.7031 48.963 32.7031 49.0782C32.7031 49.1704 32.3459 49.8042 31.8965 50.4956C31.0322 51.8324 30.9055 52.1435 31.0322 52.5698C31.1359 52.8925 34.2473 56.073 34.7082 56.315C35.1922 56.5685 35.5148 56.4532 37.0129 55.4968L38.3611 54.6325L38.9604 54.9206C39.2945 55.0704 39.6172 55.1972 39.6979 55.1972C39.767 55.1972 39.9053 55.5429 40.009 55.9808C40.1012 56.4072 40.2625 57.1447 40.3777 57.6171C40.6889 59.0575 40.5621 58.9999 43.7656 58.9999C46.4391 58.9999 46.4967 58.9999 46.7271 58.7464C46.8885 58.562 47.0844 57.9628 47.3264 56.8796C47.5223 55.9923 47.6951 55.2663 47.7182 55.2548C48.133 55.0704 49.0549 54.7363 49.1701 54.7363C49.2623 54.7363 49.9076 55.105 50.599 55.5429C52.0049 56.4532 52.3391 56.5685 52.823 56.315C53.3416 56.0384 56.4068 52.881 56.499 52.5238C56.6143 52.0859 56.5105 51.8669 55.6232 50.4726C55.1854 49.8042 54.8281 49.1704 54.8281 49.0782C54.8281 48.963 55.1623 48.0411 55.3467 47.6263C55.3582 47.6032 56.0842 47.4304 56.9715 47.2345C58.0547 46.9925 58.6539 46.7966 58.8383 46.6353C59.0918 46.4048 59.0918 46.3472 59.0918 43.6738C59.0918 41.0003 59.0918 40.9427 58.8383 40.7122C58.6539 40.5509 58.0547 40.355 56.9715 40.113C56.0842 39.9171 55.3582 39.7443 55.3467 39.7212C55.1623 39.3064 54.8281 38.3845 54.8281 38.2693C54.8281 38.1771 55.1969 37.5318 55.6348 36.8404C56.5451 35.4345 56.6604 35.1003 56.4068 34.6163C56.1303 34.0978 52.9729 31.0325 52.6156 30.9404C52.1777 30.8251 51.9588 30.9288 50.5184 31.8622L49.2277 32.6919L48.4787 32.4038C48.0754 32.231 47.7297 32.0927 47.7182 32.0927C47.6951 32.0812 47.5223 31.3552 47.3264 30.4679C47.0844 29.3847 46.8885 28.7855 46.7271 28.6011C46.4967 28.3476 46.4391 28.3476 43.7656 28.3476C41.0922 28.3476 41.0346 28.3476 40.8041 28.6011ZM45.2637 30.272C45.2867 30.7214 45.9781 33.3603 46.1164 33.5216C46.2201 33.6368 46.5197 33.7982 46.7963 33.8673C47.0613 33.948 47.6605 34.19 48.133 34.4089C48.6055 34.6279 49.124 34.8007 49.2854 34.8007C49.4697 34.8007 50.1266 34.4665 50.8986 33.971L52.2008 33.1529L53.2379 34.2015L54.2865 35.2386L53.4684 36.5407C52.5465 37.9927 52.5004 38.2116 52.9152 39.0413C53.065 39.3409 53.307 39.9171 53.4453 40.332C53.5951 40.7468 53.791 41.1732 53.8832 41.2769C54.033 41.4497 54.8281 41.6802 56.6488 42.0605L57.248 42.1988V43.6853C57.248 44.5034 57.2135 45.1718 57.1674 45.1718C56.718 45.1948 54.0791 45.8863 53.9178 46.0245C53.8025 46.1282 53.6412 46.4279 53.5721 46.7044C53.4914 46.9695 53.2494 47.5687 53.0305 48.0411C52.8115 48.5136 52.6387 49.0322 52.6387 49.1935C52.6387 49.3779 52.9729 50.0347 53.4684 50.8068L54.2865 52.1089L53.2379 53.146L52.2008 54.1947L50.8986 53.3765C50.1266 52.881 49.4697 52.5468 49.2854 52.5468C49.124 52.5468 48.6055 52.7197 48.133 52.9386C47.6605 53.1575 47.0613 53.3995 46.7963 53.4802C46.5197 53.5493 46.2201 53.7107 46.1164 53.8259C45.9781 53.9872 45.2867 56.6261 45.2637 57.064C45.2637 57.1216 44.5953 57.1562 43.7771 57.1562H42.2906L42.1523 56.5454C41.7721 54.7363 41.5416 53.9411 41.3688 53.7913C41.265 53.6991 40.8387 53.5032 40.4238 53.3534C40.009 53.2152 39.4328 52.9732 39.1332 52.8234C38.3035 52.4085 38.0846 52.4546 36.6326 53.3765L35.3305 54.1947L34.2934 53.146L33.2447 52.1089L34.0629 50.8068C34.5584 50.0347 34.8926 49.3779 34.8926 49.1935C34.8926 49.0322 34.7197 48.5136 34.5008 48.0411C34.2818 47.5687 34.0398 46.9695 33.9592 46.7044C33.89 46.4279 33.7287 46.1282 33.6135 46.0245C33.4521 45.8863 30.8133 45.1948 30.3754 45.1718C30.3178 45.1718 30.2832 44.5034 30.2832 43.6853V42.1988L30.8939 42.0605C32.7031 41.6802 33.4982 41.4497 33.648 41.2769C33.7402 41.1732 33.9361 40.7468 34.0859 40.332C34.2242 39.9171 34.4662 39.3409 34.616 39.0413C35.0309 38.2116 34.9848 37.9927 34.0629 36.5407L33.2447 35.2386L34.2934 34.2015L35.3305 33.1529L36.6326 33.971C38.0846 34.8929 38.3035 34.939 39.1332 34.5241C39.4328 34.3743 40.009 34.1324 40.4238 33.9941C40.8387 33.8443 41.265 33.6484 41.3688 33.5562C41.5416 33.4064 41.7721 32.6113 42.1523 30.7906L42.2906 30.1913H43.7771C44.5953 30.1913 45.2637 30.2259 45.2637 30.272Z" fill="black"/>
<path d="M43.1312 35.907C41.9328 36.0684 41.276 36.2527 40.308 36.7252C39.3977 37.1631 39.052 37.4166 38.2799 38.1887C37.5078 38.9607 37.2543 39.3064 36.8164 40.2168C36.1941 41.5074 36.0098 42.3256 36.0098 43.7314C36.0098 47.2691 38.4412 50.3574 41.9213 51.2332C42.8893 51.4867 44.6408 51.4867 45.6088 51.2332C47.8559 50.6686 49.7457 49.1475 50.7137 47.1309C51.3244 45.8518 51.5203 45.0336 51.5203 43.6738C51.5318 42.3371 51.3359 41.5074 50.7137 40.2168C50.0223 38.7764 48.7893 37.5088 47.3834 36.7828C46.1158 36.126 44.2836 35.7572 43.1312 35.907ZM45.5512 38.1541C47.902 38.8801 49.5383 41.1156 49.5498 43.6162C49.5729 46.6123 47.4756 49.0092 44.468 49.4355C42.4744 49.7121 40.3311 48.7902 39.1096 47.1309C37.5654 45.0451 37.5654 42.3025 39.1096 40.2168C40.5846 38.2117 43.1082 37.4051 45.5512 38.1541Z" fill="black"/>
<path d="M14.4957 43.3396C14.1385 43.4778 11.2 46.3818 10.9695 46.8081C10.7275 47.2806 10.7736 47.5687 11.1539 47.9605C11.707 48.5021 12.1449 48.3753 13.1359 47.3958L13.9195 46.6237V50.6224V54.6325L14.2076 54.9091L14.4842 55.1972H21.9513C30.1676 55.1972 29.8334 55.2202 29.9947 54.4943C30.0984 54.0448 29.8795 53.5378 29.5222 53.365C29.3148 53.2728 27.2752 53.2382 22.5621 53.2382H15.8785V49.931V46.6353L16.7312 47.4534C17.4226 48.1218 17.6531 48.2831 17.9412 48.2831C18.4597 48.2831 18.8746 47.8452 18.8746 47.2921C18.8746 46.8888 18.7594 46.739 17.123 45.1027C15.3254 43.305 15.0488 43.1206 14.4957 43.3396Z" fill="black"/>
</svg>
