<svg width="58" height="58" viewBox="0 0 58 58" fill="none" xmlns="http://www.w3.org/2000/svg">
<path d="M8.60762 0.0807114C8.57305 0.138329 8.49238 0.403366 8.41172 0.691452C7.83555 2.89243 7.82402 2.90395 6.26836 2.00512L5.15059 1.35981L3.31836 3.20356L1.47461 5.03579L2.11992 6.15356C3.01875 7.72075 3.0418 7.68618 0.748633 8.31997L0.172461 8.4813L0.137891 11.0856L0.114844 13.6899L0.714063 13.8743C1.04824 13.9665 1.5668 14.1047 1.86641 14.1739C2.8459 14.4274 2.88047 14.6809 2.11992 16.0291L1.49766 17.1124L3.31836 18.9215C4.30938 19.9241 5.16211 20.7422 5.2082 20.7422C5.26582 20.7422 5.77285 20.4772 6.34902 20.1545C7.63965 19.417 7.83555 19.4516 8.13516 20.4772C8.23887 20.8459 8.38867 21.376 8.45781 21.6641L8.60762 22.1827L11.2004 22.2172L13.7932 22.2403L14.1389 21.0073C14.5883 19.3709 14.6805 19.3364 16.1094 20.1545C16.6625 20.4772 17.1695 20.7422 17.2271 20.7422C17.2963 20.7422 18.149 19.9356 19.1285 18.9561L20.9146 17.17L20.6266 16.6168C20.4652 16.3172 20.1887 15.8102 20.0043 15.4991C19.7508 15.0381 19.7047 14.8653 19.7969 14.6348C19.8891 14.3928 20.085 14.3006 21.1336 14.0125L22.3551 13.6899V12.8372V11.9844H25.0631H27.7711V12.8141C27.7711 13.7936 28.0016 14.3928 28.5893 14.9459C29.3844 15.7065 29.0156 15.6719 37.9117 15.6719C46.8078 15.6719 46.4391 15.7065 47.2342 14.9459C47.8219 14.3928 48.0523 13.7936 48.0523 12.8141V11.9844H49.2969C51.7975 11.9959 52.9037 12.3301 53.9984 13.4133C54.7475 14.1739 55.1508 14.9805 55.3121 16.0752C55.4619 17.1239 55.4619 22.5168 55.3121 23.5655C55.1508 24.6602 54.7475 25.4668 53.9984 26.2274C53.2379 26.9764 52.4313 27.3797 51.3365 27.5411C50.8756 27.5987 47.9832 27.6563 44.6875 27.6563H38.8336V26.8151C38.8336 25.8471 38.6031 25.2479 38.0154 24.6948C37.2203 23.9342 37.5891 23.9688 28.693 23.9688C19.7969 23.9688 20.1656 23.9342 19.3705 24.6948C18.7828 25.2479 18.5523 25.8471 18.5523 26.8151V27.6563H12.007C4.74727 27.6563 4.94316 27.6448 3.43359 28.4284C2.00469 29.1774 0.794727 30.6985 0.299219 32.3694C0.0226562 33.3028 0.0226562 42.2911 0.299219 43.2245C0.794727 44.8954 2.00469 46.4165 3.43359 47.1655C4.72422 47.8338 5.23125 47.9375 7.39766 47.9375H9.33359V48.7672C9.33359 49.7467 9.56406 50.3459 10.1518 50.8991C10.9469 51.6596 10.5666 51.625 19.4973 51.625C28.5432 51.625 28.0707 51.6596 28.8889 50.8069C29.4189 50.2422 29.6148 49.6891 29.6148 48.7442V47.9375H33.2908H36.9668L37.0475 48.5368C37.4162 51.2678 39.1447 53.9758 41.5186 55.52C43.443 56.776 45.1139 57.2254 47.5799 57.1217C49.4467 57.0526 50.1381 56.8797 51.6822 56.1192C54.3441 54.8055 56.3492 52.2934 57.0406 49.4356C57.3633 48.0874 57.3633 45.944 57.0406 44.5957C56.1764 40.9774 53.1688 37.9698 49.5504 37.1055C48.2021 36.7944 46.0588 36.7829 44.7336 37.1055C40.7234 38.0735 37.6236 41.4729 37.0359 45.5407L36.9668 46.0938H33.2908H29.6148V45.2526C29.6148 44.2846 29.3844 43.6854 28.7967 43.1323C28.0016 42.3717 28.3818 42.4063 19.4512 42.4063C10.4053 42.4063 10.8777 42.3717 10.0596 43.2245C9.52949 43.7891 9.33359 44.3422 9.33359 45.2872V46.0938H8.10059C5.58848 46.0823 4.48223 45.7481 3.3875 44.6649C2.63848 43.9043 2.23516 43.0977 2.07383 42.003C1.92402 40.9543 1.92402 34.6395 2.07383 33.5909C2.23516 32.4961 2.63848 31.6895 3.3875 30.929C4.14805 30.1799 4.95469 29.7766 6.04941 29.6153C6.51035 29.5577 9.40273 29.5 12.71 29.5H18.5523V30.3067C18.5523 31.2516 18.7482 31.8047 19.2783 32.3694C20.0965 33.2221 19.6125 33.1875 28.693 33.1875C37.7734 33.1875 37.2895 33.2221 38.1076 32.3694C38.6377 31.8047 38.8336 31.2516 38.8336 30.3067V29.5H45.3789C52.6387 29.5 52.4428 29.5116 53.9523 28.728C55.3813 27.979 56.5912 26.4579 57.0867 24.787C57.3633 23.8536 57.3633 15.7872 57.0867 14.8538C56.4645 12.7334 54.9203 11.1317 52.8576 10.4288C52.0625 10.1637 51.8205 10.1407 50.0229 10.1407H48.0523V9.29946C48.0523 8.33149 47.8219 7.73227 47.2342 7.17915C46.4391 6.4186 46.8193 6.45317 37.8887 6.45317C28.8428 6.45317 29.3152 6.4186 28.4971 7.27134C27.967 7.83598 27.7711 8.38911 27.7711 9.33403V10.1407H25.0631H22.3666L22.332 9.32251L22.2975 8.49282L21.7789 8.34301C19.9582 7.83598 19.9236 7.82446 19.7969 7.5479C19.6932 7.3059 19.7508 7.13305 20.2693 6.23423C20.592 5.65805 20.857 5.15102 20.857 5.09341C20.857 5.04731 20.0389 4.19458 19.0479 3.20356L17.2271 1.38286L16.1439 2.00512C14.7957 2.76567 14.5422 2.7311 14.2887 1.75161C14.2195 1.452 14.0813 0.933445 13.9891 0.599266L13.8162 4.57764e-05H11.235C9.81758 4.57764e-05 8.63066 0.0346146 8.60762 0.0807114ZM12.5717 2.96157C12.8252 3.87192 12.8828 3.96411 13.1939 4.06782C13.3898 4.12543 13.8969 4.33286 14.3348 4.52876C15.0723 4.86294 15.1414 4.87446 15.4295 4.71313C15.5908 4.62094 16.0057 4.39048 16.3283 4.19458L16.9391 3.8604L17.6996 4.62094L18.4602 5.38149L17.9416 6.29184L17.423 7.19067L17.6766 7.70922C17.8264 7.99731 18.0338 8.50434 18.1375 8.83852C18.3564 9.48383 18.3449 9.48383 19.9352 9.87563L20.3385 9.97934L20.373 11.0856L20.4076 12.1803L19.3705 12.4569L18.3449 12.7219L18.2066 13.1944C18.126 13.4479 17.9186 13.9549 17.7342 14.3237L17.3885 14.992L17.8725 15.8217C18.1375 16.2711 18.368 16.686 18.391 16.7206C18.4141 16.7551 18.0799 17.1239 17.6535 17.5502L16.8814 18.3108L15.9941 17.7922L15.0953 17.2852L14.4385 17.6194C14.0697 17.8038 13.5627 18.0112 13.3092 18.0918L12.8367 18.2301L12.5717 19.2557L12.3066 20.2813H11.235H10.1633L10.048 19.901C9.97891 19.7051 9.84062 19.2327 9.74844 18.8754C9.56406 18.2416 9.55254 18.2186 8.95332 18.0227C8.63066 17.919 8.11211 17.7116 7.82402 17.5618L7.30547 17.3083L6.40664 17.8268L5.49629 18.3454L4.73574 17.5848C3.9752 16.8243 3.9752 16.8243 4.15957 16.5016C4.25176 16.3288 4.48223 15.9254 4.6666 15.6028L5.00078 15.0036L4.64355 14.22C4.44766 13.7821 4.24023 13.275 4.18262 13.0791C4.07891 12.768 3.98672 12.7104 3.06484 12.4569L2.0623 12.1803L2.09687 11.0856L2.13145 9.97934L3.0418 9.73735C3.54883 9.59907 3.99824 9.4147 4.04434 9.32251C4.10195 9.23032 4.3209 8.71177 4.55137 8.15864L4.97773 7.14458L4.50527 6.32641C4.24023 5.877 4.03281 5.47368 4.03281 5.43911C4.03281 5.3354 5.4502 3.91801 5.54238 3.91801C5.58848 3.91801 5.9918 4.12543 6.44121 4.39048L7.25938 4.86294L8.27344 4.43657C8.82656 4.2061 9.34512 3.98716 9.4373 3.92954C9.52949 3.88345 9.70234 3.49165 9.81758 3.04223C9.93281 2.60434 10.0596 2.17797 10.0826 2.09731C10.1172 2.00512 10.4514 1.95903 11.2119 1.95903H12.3066L12.5717 2.96157ZM45.5633 8.45825C46.1049 8.68872 46.2086 9.08051 46.2086 11.0625C46.2086 13.0446 46.1049 13.4364 45.5633 13.6668C44.9986 13.9088 30.8248 13.9088 30.2602 13.6668C29.7186 13.4364 29.6148 13.0446 29.6148 11.0625C29.6148 9.11509 29.7186 8.68872 30.2371 8.45825C30.7672 8.22778 44.9986 8.22778 45.5633 8.45825ZM36.3445 25.9739C36.8861 26.2043 36.9898 26.5961 36.9898 28.5782C36.9898 30.5602 36.8861 30.952 36.3445 31.1825C35.7799 31.4245 21.6061 31.4245 21.0414 31.1825C20.4998 30.952 20.3961 30.5602 20.3961 28.5782C20.3961 26.6307 20.4998 26.2043 21.0184 25.9739C21.5484 25.7434 35.7799 25.7434 36.3445 25.9739ZM48.3059 38.8916C48.6746 38.9262 49.3891 39.0991 49.8961 39.2834C52.2238 40.1362 54.0906 42.0375 54.9318 44.4229C55.2314 45.2756 55.2545 45.4715 55.2545 47.0157C55.2545 48.5368 55.2314 48.7672 54.9434 49.5624C54.4824 50.853 53.8832 51.8094 52.9037 52.7889C51.0945 54.5981 48.8014 55.4278 46.2893 55.1858C43.2125 54.8862 40.4354 52.6852 39.3637 49.6776C39.0295 48.7442 39.0064 48.5944 39.0064 47.0157C39.0064 45.4715 39.0295 45.2756 39.3291 44.4229C40.1934 41.9915 42.0717 40.0901 44.4801 39.2374C45.3098 38.9493 46.7502 38.7188 47.3609 38.7879C47.5223 38.811 47.9486 38.8571 48.3059 38.8916ZM27.1258 44.4114C27.6674 44.6418 27.7711 45.0336 27.7711 47.0157C27.7711 48.9977 27.6674 49.3895 27.1258 49.62C26.5611 49.862 12.3873 49.862 11.8227 49.62C11.2811 49.3895 11.1773 48.9977 11.1773 47.0157C11.1773 45.0682 11.2811 44.6418 11.7996 44.4114C12.3297 44.1809 26.5611 44.1809 27.1258 44.4114Z" fill="black"/>
<path d="M9.69124 5.7157C8.78089 5.95769 7.98578 6.43015 7.2598 7.1446C4.03324 10.3712 5.87699 15.9024 10.4057 16.6169C13.3787 17.0778 16.1789 15.0266 16.7205 11.9729C17.2045 9.25339 15.453 6.52234 12.6873 5.7157C11.9153 5.48523 10.5325 5.48523 9.69124 5.7157ZM12.4453 7.70925C13.3442 8.05496 13.9895 8.65417 14.4274 9.52996C14.75 10.1753 14.7961 10.4173 14.7961 11.1087C14.7961 12.0997 14.5196 12.768 13.8282 13.5286C13.1137 14.3007 12.2494 14.6809 11.2239 14.6809C10.4979 14.6809 10.2905 14.6348 9.61058 14.2891C7.4096 13.1598 6.92562 10.3942 8.63109 8.60808C9.03441 8.17019 9.67972 7.77839 10.2559 7.59402C10.7975 7.43269 11.8577 7.49031 12.4453 7.70925Z" fill="black"/>
<path d="M31.459 11.0625V11.9844H32.3809H33.3027V11.0625V10.1406H32.3809H31.459V11.0625Z" fill="black"/>
<path d="M35.1465 11.0625V11.9844H36.0684H36.9902V11.0625V10.1406H36.0684H35.1465V11.0625Z" fill="black"/>
<path d="M38.834 11.0625V11.9844H39.7559H40.6777V11.0625V10.1406H39.7559H38.834V11.0625Z" fill="black"/>
<path d="M42.5215 11.0625V11.9844H43.4434H44.3652V11.0625V10.1406H43.4434H42.5215V11.0625Z" fill="black"/>
<path d="M22.2402 28.5781V29.5H23.1621H24.084V28.5781V27.6562H23.1621H22.2402V28.5781Z" fill="black"/>
<path d="M25.9277 28.5781V29.5H26.8496H27.7715V28.5781V27.6562H26.8496H25.9277V28.5781Z" fill="black"/>
<path d="M29.6152 28.5781V29.5H30.5371H31.459V28.5781V27.6562H30.5371H29.6152V28.5781Z" fill="black"/>
<path d="M33.3027 28.5781V29.5H34.2246H35.1465V28.5781V27.6562H34.2246H33.3027V28.5781Z" fill="black"/>
<path d="M47.683 45.9439L44.3643 49.2627L43.7881 48.6865L43.2119 48.1104L42.4859 48.8363L41.7715 49.5508L43.0736 50.8414L44.3643 52.1436L48.4205 48.0873L52.4883 44.0195L51.7969 43.3281C51.4166 42.9479 51.0824 42.6367 51.0479 42.6367C51.0133 42.6367 49.5037 44.1232 47.683 45.9439Z" fill="black"/>
<path d="M13.0215 47.0156V47.9375H13.9434H14.8652V47.0156V46.0938H13.9434H13.0215V47.0156Z" fill="black"/>
<path d="M16.709 47.0156V47.9375H17.6309H18.5527V47.0156V46.0938H17.6309H16.709V47.0156Z" fill="black"/>
<path d="M20.3965 47.0156V47.9375H21.3184H22.2402V47.0156V46.0938H21.3184H20.3965V47.0156Z" fill="black"/>
<path d="M24.084 47.0156V47.9375H25.0059H25.9277V47.0156V46.0938H25.0059H24.084V47.0156Z" fill="black"/>
</svg>
