<svg width="57" height="56" viewBox="0 0 57 56" fill="none" xmlns="http://www.w3.org/2000/svg">
<path d="M21.4861 0.178129C20.5287 0.590043 20.2392 1.13555 20.1724 2.63848L20.1167 3.78516H14.6839C9.38471 3.78516 9.22885 3.79629 9.01733 4.00782C8.72788 4.29727 8.72788 4.89844 9.0062 5.24356L9.21772 5.51075L28.4886 5.56641C45.4662 5.61094 47.7818 5.64434 47.8708 5.78907C47.9376 5.88926 47.9822 7.68165 47.9822 10.0752C47.9822 14.4949 48.0044 14.6285 48.5611 14.8846C48.9062 15.0627 49.4851 14.8957 49.6521 14.584C49.7189 14.4615 49.7634 12.6469 49.7634 9.99727C49.7634 5.1879 49.7523 5.13223 49.0509 4.43086C48.3607 3.75176 48.8839 3.78516 38.7531 3.78516H29.5017V2.63848C29.5017 1.56973 29.4794 1.4584 29.1789 0.979692C28.9673 0.645707 28.689 0.400785 28.3662 0.233793C27.8986 0.011137 27.7205 3.8147e-06 24.8705 3.8147e-06C22.4435 0.011137 21.7978 0.0445356 21.4861 0.178129ZM27.6091 1.89258C27.7316 1.95938 27.7873 2.24883 27.8095 2.89454L27.854 3.78516H24.8927H21.9314V2.9168C21.9314 2.39356 21.9871 1.99278 22.065 1.91485C22.232 1.74786 27.3531 1.72559 27.6091 1.89258Z" fill="#EF0303"/>
<path d="M1.21348 4.04121C0.946289 4.18594 0.578906 4.51992 0.389648 4.77598L0.0556641 5.25469L0.0222656 23.2564L0 41.2693L0.256055 41.7592C0.400781 42.0264 0.734766 42.3938 0.99082 42.583L1.46953 42.917L4.74258 42.9504L8.01562 42.9838V43.841C8.02676 45.4998 8.27168 46.0676 9.12891 46.5018C9.61875 46.7578 9.68555 46.7578 13.9383 46.7578H18.2689L16.265 50.6766C14.1164 54.907 14.0941 54.985 14.673 55.4414C15.0404 55.7309 15.3967 55.7197 15.7418 55.408C15.8865 55.2744 16.9775 53.2705 18.1576 50.966L20.3062 46.7578H24.8707H29.4463L31.6506 51.0885C33.9105 55.4971 34.0107 55.6641 34.6119 55.6641C34.7232 55.6641 34.9459 55.5639 35.1129 55.4303C35.6584 55.0072 35.5693 54.7512 33.4541 50.6432C32.3853 48.5613 31.5059 46.8246 31.5059 46.8023C31.5059 46.7801 33.443 46.7578 35.8143 46.7578C39.9557 46.7578 40.1338 46.7467 40.6014 46.524C40.9242 46.3682 41.1803 46.1344 41.3584 45.8227C41.6033 45.3996 41.6367 45.2215 41.6367 44.1639V42.9727H44.342C46.9359 42.9727 47.0695 42.9615 47.2588 42.75C47.5482 42.4271 47.5371 41.8037 47.2254 41.492L46.9693 41.2471L24.5033 41.2137C3.80742 41.1914 2.01504 41.1803 1.88145 41.0021C1.74785 40.8574 1.72559 37.974 1.69219 23.724C1.68105 14.3168 1.69219 6.46817 1.72559 6.29004C1.84805 5.61094 1.79238 5.62207 4.33066 5.56641C6.49043 5.51074 6.69082 5.48848 6.89121 5.28809C7.23633 4.93184 7.23633 4.3418 6.90234 4.00781C6.69082 3.79629 6.53496 3.78516 4.19707 3.78516C1.80352 3.78516 1.68105 3.79629 1.21348 4.04121ZM39.8555 43.9746V44.9766H24.893C11.3555 44.9766 9.93047 44.9543 9.86367 44.7984C9.83027 44.6982 9.79688 44.2529 9.79688 43.7965V42.9727H24.8262H39.8555V43.9746Z" fill="#EF0303"/>
<path d="M35.113 8.83945C34.8013 8.98418 34.3894 9.2959 34.189 9.52969C33.4877 10.3869 33.3318 11.7896 33.8328 12.6469L34.0666 13.0365L31.8066 16.1648L29.5578 19.3043L28.9343 19.2709C28.1773 19.2375 27.5205 19.3934 27.1197 19.7162L26.8302 19.95L26.0064 19.4936C25.5611 19.2486 24.882 18.8701 24.5035 18.6475L23.8244 18.2467V17.6121C23.8132 16.7994 23.5461 16.2094 22.9115 15.6193C22.3326 15.0961 21.8205 14.918 20.9298 14.918C19.438 14.9291 18.2802 16.098 18.2246 17.6566L18.2023 18.2912L16.7216 19.1262C15.3078 19.9166 15.2298 19.95 15.0294 19.7607C14.4283 19.2152 13.0812 19.1039 12.1794 19.527C11.5337 19.8275 10.8435 20.5734 10.6877 21.1412C10.298 22.5551 10.8212 23.8799 12.0236 24.5367C13.0701 25.1045 14.3726 24.9598 15.2632 24.1805C15.831 23.6906 16.165 22.9336 16.1761 22.1543V21.5086L17.6345 20.6848L19.0929 19.8609L19.7386 20.1949C20.6293 20.6514 21.4531 20.6514 22.3437 20.1949L22.9894 19.8609L24.4367 20.6959L25.8839 21.5197L25.8951 22.1432C25.9062 22.9113 26.1289 23.4346 26.6632 24.0246C28.0548 25.5721 30.8714 24.8818 31.4058 22.8779C31.5728 22.2879 31.4837 21.3082 31.2388 20.785L31.0273 20.3619L31.4615 19.7607C31.7064 19.4268 32.6972 18.0352 33.6769 16.6547L35.4582 14.1498H36.2486C37.5511 14.1498 38.3972 13.6377 38.9205 12.5244C39.4548 11.4 39.1543 10.0418 38.1857 9.20683C37.3619 8.50547 36.1484 8.36074 35.113 8.83945ZM37.0835 10.6764C37.4955 11.0883 37.5066 11.5559 37.1169 12.0123C36.6382 12.5801 35.8033 12.4687 35.4582 11.7896C35.3134 11.5113 35.3023 11.3777 35.4025 11.066C35.6586 10.2979 36.5046 10.0975 37.0835 10.6764ZM21.7537 16.9887C22.5441 17.7902 21.6535 19.0705 20.6181 18.6363C19.6273 18.2244 19.9613 16.6992 21.0412 16.6992C21.3418 16.6992 21.5421 16.7771 21.7537 16.9887ZM14.0609 21.3193C14.6064 21.8648 14.4617 22.6998 13.7603 22.9893C12.7138 23.4346 11.8789 22.1766 12.6804 21.3639C13.1035 20.9408 13.6601 20.9186 14.0609 21.3193ZM29.4019 21.3639C30.1923 22.1654 29.3574 23.4234 28.322 22.9893C27.8544 22.8 27.5539 22.21 27.7097 21.7758C28.0103 21.0076 28.8341 20.8072 29.4019 21.3639Z" fill="#EF0303"/>
<path d="M41.9039 15.5303C36.1705 16.5434 32.2183 21.9094 32.9531 27.6762C33.532 32.3408 36.9386 36.0703 41.5031 37.0389C42.4382 37.2393 44.5201 37.2949 45.6 37.1502L46.2679 37.05L48.6503 41.2137C51.3 45.8227 51.6785 46.3459 52.7695 46.7021C53.5154 46.9471 54.6398 46.8914 55.2855 46.5574C56.332 46.023 57 44.8875 57 43.6184C57 42.6609 57 42.6498 54.0609 37.5844L51.8789 33.8103L52.1572 33.4652C54.0052 31.2164 54.907 28.5111 54.74 25.6611C54.4617 20.8852 51.1552 16.8996 46.4572 15.6973C45.2994 15.3967 43.1173 15.3187 41.9039 15.5303ZM45.6222 17.3561C50.0865 18.2801 53.2593 22.3881 52.9587 26.8635C52.5134 33.4096 45.6668 37.4174 39.7998 34.5562C37.4841 33.4318 35.625 31.1719 34.9347 28.6447C34.6007 27.4201 34.6007 25.2381 34.9347 24.0246C35.6361 21.4307 37.3728 19.3377 39.7998 18.1354C41.6923 17.1891 43.5849 16.9441 45.6222 17.3561ZM51.5003 36.7605C55.2076 43.1953 55.2187 43.2064 55.2187 43.7297C55.2187 44.1527 55.163 44.2863 54.7734 44.6648C54.3503 45.099 54.3058 45.1102 53.7603 45.0656C53.3261 45.0211 53.1257 44.932 52.8808 44.6871C52.7027 44.509 51.5337 42.583 50.2869 40.4121L48.0046 36.46L48.6392 36.1705C48.9955 36.0146 49.5187 35.7029 49.8304 35.4803C50.131 35.2576 50.4093 35.0684 50.4427 35.0684C50.4873 35.0684 50.9548 35.8365 51.5003 36.7605Z" fill="#EF0303"/>
<path d="M42.1373 18.525C39.2873 19.1818 37.1275 21.1412 36.2146 23.8799C35.9475 24.6703 35.9141 24.9486 35.9141 26.3291C35.9141 27.7318 35.9363 27.9768 36.2146 28.7783C37.3947 32.2852 40.5564 34.4449 44.2525 34.2557C46.301 34.1555 47.9486 33.4207 49.4293 31.9512C50.9211 30.4705 51.6447 28.8229 51.7449 26.7076C51.834 24.7371 51.2662 22.7555 50.5426 22.4994C50.0861 22.3436 49.6631 22.5217 49.4516 22.9781C49.3068 23.2564 49.3291 23.3789 49.6074 24.2027C49.8857 24.982 49.9303 25.2604 49.9191 26.3291C49.9191 27.3088 49.8746 27.6984 49.6631 28.2773C49.0285 30.1031 47.5924 31.5504 45.8111 32.185C44.876 32.5078 43.3508 32.5857 42.4268 32.352C39.599 31.6283 37.6285 29.1568 37.6285 26.3514C37.6285 21.7535 42.527 18.7477 46.5904 20.8406C46.9578 21.0299 47.4477 21.2859 47.6814 21.4084C48.0822 21.6199 48.1379 21.6199 48.483 21.4529C48.9729 21.2191 49.1287 20.618 48.8059 20.1838C48.4941 19.7607 47.3363 19.115 46.2898 18.7588C45.1543 18.3803 43.2283 18.2689 42.1373 18.525Z" fill="#EF0303"/>
<path d="M18.7254 25.0822L18.4805 25.3383V31.517V37.7068L18.7365 37.9406C18.9814 38.1744 19.0928 38.1855 21.0521 38.1855C23.0672 38.1855 23.1229 38.1744 23.3566 37.9295L23.6016 37.6734V31.4947V25.3049L23.3455 25.0711C23.1006 24.8373 22.9893 24.8262 21.0299 24.8262C19.0148 24.8262 18.9592 24.8373 18.7254 25.0822ZM21.8203 31.5059V36.4043H21.041H20.2617V31.5059V26.6074H21.041H21.8203V31.5059Z" fill="#EF0303"/>
<path d="M11.0771 29.335L10.7988 29.6021V33.6545V37.7068L11.0549 37.9406C11.2998 38.1744 11.4111 38.1855 13.3928 38.1855C15.3299 38.1855 15.4857 38.1744 15.6973 37.9629C15.9088 37.7514 15.9199 37.5955 15.9199 33.6322V29.5131L15.6305 29.2904C15.3521 29.0789 15.1852 29.0566 13.3371 29.0566C11.3666 29.0566 11.3443 29.0566 11.0771 29.335ZM14.1387 33.6211V36.4043H13.3594H12.5801V33.6211V30.8379H13.3594H14.1387V33.6211Z" fill="#EF0303"/>
<path d="M26.4627 29.2793L26.1621 29.5131V33.6322C26.1621 37.5955 26.1732 37.7514 26.3848 37.9629C26.5963 38.1744 26.7521 38.1855 28.7115 38.1855H30.8268L31.0494 37.8961C31.2721 37.6066 31.2832 37.473 31.2832 33.6211C31.2832 29.8693 31.2721 29.6244 31.0717 29.3795C30.8602 29.1234 30.8045 29.1123 28.8117 29.0789C26.8635 29.0455 26.7521 29.0566 26.4627 29.2793ZM29.502 33.6211V36.4043H28.7227H27.9434V33.6211V30.8379H28.7227H29.502V33.6211Z" fill="#EF0303"/>
<path d="M34.345 34.0553C33.8774 34.2557 33.7883 34.5006 33.7549 35.7475C33.6993 37.1613 33.7772 37.6734 34.0778 37.974C34.2671 38.1633 34.4563 38.1855 36.3823 38.1855C38.709 38.1855 38.7758 38.1633 38.9206 37.4396C38.9651 37.1836 38.9206 37.0389 38.709 36.7828C38.4307 36.46 38.4196 36.46 36.9723 36.4266L35.5139 36.382V35.458C35.5139 34.7455 35.4694 34.4895 35.3247 34.3113C35.0909 34.033 34.6567 33.9217 34.345 34.0553Z" fill="#EF0303"/>
</svg>
