<svg width="53" height="53" viewBox="0 0 53 53" fill="none" xmlns="http://www.w3.org/2000/svg">
<path d="M11.8155 0.292994C11.6039 0.560181 11.5817 0.738306 11.5817 2.07424V3.54377L11.1698 3.6885C10.936 3.7553 10.4239 3.96682 10.0231 4.14495L9.31057 4.4678L8.24182 3.39905C6.71663 1.88498 6.91702 1.82932 4.37874 4.37873C1.82932 6.91702 1.88499 6.71663 3.39905 8.24182L4.4678 9.31057L4.14495 10.0231C3.96682 10.4239 3.7553 10.936 3.6885 11.1586L3.54377 11.5817H2.07424C0.738306 11.5817 0.56018 11.6039 0.292993 11.8155L0.00353975 12.0381V15.044C0.00353975 18.7846 -0.174585 18.484 1.99631 18.484H3.54377L3.6217 18.7846C3.6551 18.9516 3.86663 19.4637 4.07815 19.9201L4.4678 20.7551L3.39905 21.8239C1.87385 23.3602 1.81819 23.1487 4.4344 25.7537C6.15999 27.4682 6.58303 27.8356 6.83909 27.8356C7.09514 27.8356 7.38459 27.6129 8.25295 26.7668L9.34397 25.6981L10.268 26.0877C10.7801 26.2992 11.2811 26.4996 11.3813 26.533C11.5371 26.5887 11.5705 26.8225 11.6039 28.1584C11.6262 29.4832 11.6707 29.7504 11.8377 29.9174C12.0158 30.0955 12.3276 30.1178 14.9549 30.1512C18.7289 30.1957 18.4617 30.3405 18.5063 28.1584L18.5397 26.5887L19.319 26.2881C19.7532 26.1211 20.2541 25.8985 20.4323 25.8094L20.7662 25.6313L21.9018 26.7446C22.9817 27.8022 23.0596 27.8578 23.4047 27.791C23.9391 27.6908 27.6908 23.9391 27.791 23.4047C27.8578 23.0596 27.8022 22.9817 26.7446 21.9018L25.6313 20.7662L25.8094 20.4323C25.8985 20.243 26.1211 19.742 26.2881 19.319L26.5887 18.5397L28.1584 18.5063C30.3405 18.4617 30.1957 18.7289 30.1512 14.9549C30.1178 12.3276 30.0955 12.0158 29.9174 11.8377C29.7504 11.6707 29.4832 11.6262 28.1584 11.6039C26.8225 11.5705 26.5887 11.5371 26.533 11.3813C26.4996 11.2811 26.2992 10.7801 26.0877 10.268L25.6981 9.34397L26.7668 8.25295C27.6129 7.38459 27.8356 7.09514 27.8356 6.83909C27.8356 6.58303 27.4682 6.15998 25.7537 4.4344C23.1487 1.81819 23.3602 1.87385 21.8239 3.39905L20.7551 4.4678L19.9201 4.07815C19.4637 3.86662 18.9516 3.6551 18.7846 3.6217L18.484 3.54377V1.99631C18.484 -0.174585 18.7846 0.00354004 15.044 0.00354004H12.0381L11.8155 0.292994ZM16.8141 3.0428C16.8141 4.71272 16.8698 4.81291 17.9051 5.1135C18.317 5.23596 19.1186 5.56995 19.6864 5.84827C20.2653 6.12659 20.8553 6.34924 21.0112 6.34924C21.2227 6.34924 21.5678 6.08206 22.3137 5.34729L23.3379 4.34534L24.5514 5.56995L25.7649 6.78342L24.8074 7.76311C24.2842 8.30862 23.8278 8.85413 23.7832 8.98772C23.7276 9.17698 23.8389 9.53323 24.2063 10.268C24.4735 10.8358 24.8186 11.6485 24.9522 12.0826C25.3196 13.2739 25.2862 13.2516 27.0229 13.2516H28.5035V15.0328V16.8141H27.0674C25.353 16.8141 25.2973 16.8475 24.9522 17.983C24.8297 18.4172 24.4957 19.241 24.2174 19.7977C23.8612 20.5213 23.7276 20.8998 23.7721 21.078C23.8166 21.2115 24.2842 21.7571 24.8074 22.3026L25.776 23.2711L24.518 24.518L23.2711 25.776L22.3026 24.8074C21.7571 24.2842 21.2115 23.8166 21.078 23.7721C20.8998 23.7276 20.5213 23.8612 19.7977 24.2174C19.241 24.4957 18.4172 24.8297 17.983 24.9522C16.8475 25.2973 16.8141 25.353 16.8141 27.0674V28.5035H15.0328H13.2516V27.0229C13.2516 25.2862 13.2739 25.3196 12.0826 24.9522C11.6596 24.8074 10.8469 24.4735 10.2791 24.1951C9.53323 23.8278 9.18811 23.7164 8.99885 23.7832C8.85413 23.8166 8.30862 24.2842 7.76311 24.8074L6.78342 25.7649L5.56995 24.5514L4.34534 23.3379L5.34729 22.3137C6.08206 21.5678 6.34924 21.2227 6.34924 21.0112C6.34924 20.8553 6.12659 20.2653 5.84827 19.6864C5.56995 19.1186 5.23596 18.317 5.1135 17.9051C4.81291 16.8698 4.71272 16.8141 3.0428 16.8141H1.67346V15.0328V13.2516H3.09846C4.06702 13.2516 4.57913 13.2071 4.70159 13.1069C4.80178 13.0401 5.0467 12.4946 5.23596 11.9156C5.42522 11.3367 5.7592 10.5463 5.97073 10.1678C6.5385 9.14358 6.51624 9.04338 5.34729 7.86331L4.34534 6.83909L5.60334 5.59221L6.85022 4.35647L7.86331 5.34729C8.62034 6.09319 8.95432 6.34924 9.16584 6.34924C9.3217 6.34924 9.83381 6.14885 10.2903 5.90393C10.7578 5.67014 11.5594 5.33616 12.0826 5.1803C12.6838 4.99104 13.0735 4.81291 13.1403 4.67932C13.1959 4.56799 13.2516 3.84436 13.2516 3.0762V1.67346H15.0328H16.8141V3.0428Z" fill="#EF0303"/>
<path d="M13.842 8.35314C12.4059 8.62033 10.7693 9.56661 9.85645 10.6576C8.88789 11.8266 8.25332 13.5522 8.24219 15.0106C8.24219 15.7453 8.52051 17.1035 8.79883 17.7604C9.60039 19.6195 11.4039 21.1447 13.4189 21.6568C14.2539 21.8684 15.768 21.8684 16.6697 21.6568C19.0967 21.0891 21.0895 19.0963 21.6572 16.6916C21.8688 15.7787 21.8688 14.2535 21.6572 13.4186C21.2564 11.8266 20.1654 10.268 18.8518 9.39962C17.5158 8.509 15.4117 8.07482 13.842 8.35314ZM16.1799 10.0787C17.5492 10.435 18.9186 11.4481 19.5197 12.5613C20.3102 14.0309 20.3658 15.7342 19.6756 17.2037C18.3842 19.909 15.1891 20.9443 12.5617 19.5193C11.3482 18.8625 10.2572 17.2817 10.0012 15.8344C9.41113 12.3832 12.8178 9.19923 16.1799 10.0787Z" fill="#EF0303"/>
<path d="M31.7883 5.9596C31.1538 6.58303 31.5768 7.19534 32.9573 7.62952C36.5086 8.76506 40.06 11.3479 42.4981 14.5987L43.0881 15.378L42.8098 15.7453C42.2977 16.4133 42.0528 17.1481 42.0416 17.9942C42.0305 19.0518 42.5092 20.0649 43.3219 20.7106C44.0344 21.2672 44.5243 21.4342 45.5373 21.4342C46.5393 21.4342 47.1627 21.1781 47.9086 20.499C48.6211 19.8311 48.9217 19.0963 48.9329 17.983C48.9329 16.9477 48.6991 16.3354 48.0422 15.6117C47.4077 14.8992 46.5616 14.5541 45.4705 14.543L44.5688 14.5319L43.7116 13.3852C41.7188 10.7467 39.0135 8.52014 36.0188 7.07288C34.7719 6.46057 32.6678 5.68128 32.2782 5.68128C32.1557 5.68128 31.933 5.80374 31.7883 5.9596ZM46.1608 16.3576C46.6952 16.6026 47.0514 17.0145 47.2184 17.6045C47.3297 17.9608 47.3186 18.1166 47.1627 18.5285C46.6729 19.8088 45.1811 20.1539 44.2459 19.2188C43.3442 18.317 43.6225 16.892 44.8026 16.3576C45.3704 16.1016 45.593 16.1016 46.1608 16.3576Z" fill="#EF0303"/>
<path d="M34.8155 23.0485C34.5261 23.2822 34.5261 23.3045 34.4927 24.8408L34.4593 26.4106L33.68 26.7112C33.2569 26.8781 32.756 27.1008 32.5667 27.1899L32.2327 27.368L31.0972 26.2547C30.0173 25.1971 29.9394 25.1414 29.5943 25.2082C29.3048 25.2639 28.7704 25.7426 27.2007 27.3123C25.5196 28.9934 25.1634 29.4053 25.1634 29.6614C25.1634 29.9174 25.3972 30.218 26.2655 31.1086L27.3677 32.233L27.1896 32.567C27.1005 32.7451 26.8778 33.2461 26.7109 33.6803L26.4103 34.4596L24.8405 34.493C22.6585 34.5375 22.8032 34.2703 22.8478 38.0444C22.8812 40.6717 22.9034 40.9834 23.0816 41.1615C23.2485 41.3285 23.538 41.3731 24.8405 41.4176L26.4103 41.4733L26.7888 42.4196C27.0003 42.9428 27.2118 43.4326 27.2452 43.5106C27.2786 43.5996 26.8778 44.0895 26.2321 44.7463C25.386 45.6035 25.1634 45.9041 25.1634 46.1602C25.1634 46.4162 25.5308 46.8393 27.2452 48.5649C29.8503 51.1811 29.6499 51.1254 31.1751 49.6002L32.2439 48.5426L32.7894 48.8098C33.1011 48.9545 33.6132 49.166 33.936 49.2774L34.515 49.4889V51.0141C34.515 53.1627 34.2144 52.9957 37.955 52.9957H40.9609L41.1835 52.7063C41.395 52.4391 41.4173 52.261 41.4173 50.925V49.4555L41.8403 49.3108C42.063 49.244 42.5751 49.0324 42.9759 48.8543L43.6884 48.5315L44.7571 49.6002C46.2823 51.1143 46.0819 51.1699 48.6202 48.6205C51.1696 46.0822 51.114 46.2826 49.5999 44.7574L48.5312 43.6887L48.854 42.9762C49.0321 42.5754 49.2437 42.0633 49.3105 41.8295L49.4552 41.4176H50.9247C52.2607 41.4176 52.4388 41.3953 52.706 41.1838L52.9954 40.9612V37.9553C52.9954 34.2147 53.1735 34.5153 51.0026 34.5153H49.4552L49.3773 34.2147C49.3439 34.0477 49.1323 33.5356 48.9208 33.0791L48.5423 32.2553L49.5999 31.1754C51.114 29.628 51.1696 29.8395 48.5646 27.2455C46.839 25.5311 46.4159 25.1637 46.1599 25.1637C45.9038 25.1637 45.6144 25.3864 44.746 26.2324L43.655 27.3012L42.731 26.9115C42.2189 26.7 41.7179 26.4996 41.6177 26.4662C41.4618 26.4106 41.4284 26.1768 41.395 24.8408C41.3728 23.516 41.3282 23.2488 41.1612 23.0819C40.9831 22.9037 40.6714 22.8815 38.0441 22.8481C35.2163 22.8147 35.105 22.8258 34.8155 23.0485ZM39.7474 25.9764C39.7474 27.7131 39.7251 27.6797 40.9163 28.0471C41.3505 28.1807 42.1632 28.5258 42.731 28.793C43.4546 29.1492 43.8331 29.2717 44.0112 29.2272C44.1448 29.1826 44.6903 28.7151 45.2359 28.1918L46.2044 27.2233L47.429 28.4479L48.6536 29.6614L47.6517 30.6856C46.9169 31.4315 46.6497 31.7766 46.6497 31.9881C46.6497 32.144 46.8724 32.734 47.1507 33.3129C47.429 33.8807 47.763 34.6822 47.8855 35.0942C48.186 36.1295 48.2862 36.1852 49.9562 36.1852H51.3255V37.9664V39.7477H49.9005C48.9319 39.7477 48.4198 39.7922 48.2974 39.8813C48.1972 39.9592 47.9523 40.5047 47.763 41.0836C47.5737 41.6625 47.2398 42.453 47.0282 42.8315C46.4605 43.8557 46.4827 43.9559 47.6517 45.136L48.6536 46.1602L47.3956 47.4071L46.1487 48.6428L45.1357 47.652C43.9556 46.483 43.8554 46.4608 42.8312 47.0285C42.4526 47.2401 41.6622 47.574 41.0833 47.7633C40.5044 47.9526 39.9589 48.1975 39.8921 48.2977C39.7919 48.4201 39.7474 48.9322 39.7474 49.9008V51.3258H37.9661H36.1849V49.9565C36.1849 48.2865 36.1292 48.1864 35.0939 47.8858C34.6819 47.7633 33.8804 47.4293 33.3126 47.151C32.7337 46.8727 32.1437 46.65 31.9878 46.65C31.7763 46.65 31.4312 46.9172 30.6853 47.652L29.661 48.6539L28.4476 47.4293L27.2341 46.2158L28.1915 45.2362C28.7148 44.6906 29.1823 44.1451 29.2157 44.0004C29.2825 43.8112 29.1712 43.466 28.8038 42.7201C28.5255 42.1524 28.1915 41.3397 28.0468 40.9166C27.6794 39.7254 27.7128 39.7477 25.9761 39.7477H24.4954V37.9664V36.1852H25.9204C26.889 36.1852 27.4122 36.1406 27.5347 36.0405C27.646 35.9737 27.8798 35.4615 28.0691 34.9049C28.2583 34.3594 28.6146 33.5244 28.8595 33.0457C29.1712 32.4334 29.2825 32.1106 29.2269 31.9324C29.1823 31.7877 28.7148 31.2422 28.1915 30.6967L27.223 29.7281L28.481 28.4813L29.7278 27.2233L30.6964 28.1918C31.2419 28.7151 31.7874 29.1826 31.921 29.2272C32.0991 29.2717 32.4776 29.1381 33.2013 28.7819C33.7579 28.5035 34.5817 28.1696 35.0159 28.0471C36.1515 27.702 36.1849 27.6463 36.1849 25.9319V24.4957H37.9661H39.7474V25.9764Z" fill="#EF0303"/>
<path d="M36.2524 31.3535C33.9034 31.9213 31.9774 33.8473 31.354 36.2631C31.1313 37.1203 31.1313 38.7235 31.3428 39.5807C31.9217 41.8406 33.6251 43.6664 35.8182 44.4012C37.0094 44.7908 38.7573 44.8131 39.9151 44.4569C42.0637 43.7778 43.7782 42.0633 44.4461 39.9147C44.769 38.8905 44.7913 37.1092 44.4907 36.1406C43.7448 33.6914 41.9635 31.9436 39.5811 31.3424C38.7684 31.1309 37.1319 31.142 36.2524 31.3535ZM39.403 33.0569C40.3381 33.3463 40.9282 33.7248 41.6184 34.4485C42.7317 35.6174 43.2549 37.2651 42.9877 38.7569C42.6204 40.7719 41.1508 42.375 39.2026 42.8871C38.2786 43.1209 37.6329 43.1321 36.7979 42.9205C35.8182 42.6645 35.217 42.3305 34.46 41.618C33.2911 40.527 32.7901 39.2801 32.868 37.6324C32.9014 36.8086 32.9682 36.5526 33.3245 35.8178C33.9702 34.4485 35.1057 33.4688 36.5752 33.0012C37.2543 32.7897 38.6237 32.8119 39.403 33.0569Z" fill="#EF0303"/>
<path d="M6.49396 31.6653C5.50314 31.9881 4.73498 32.6561 4.32307 33.569C3.97795 34.3371 3.96682 35.6842 4.31193 36.419C4.64592 37.1649 5.26935 37.7994 5.99299 38.1446C6.51623 38.3895 6.79455 38.4451 7.52932 38.4563L8.43107 38.4674L9.27717 39.5918C11.8154 42.9651 15.4447 45.5924 19.3858 46.9283C20.5658 47.318 20.6772 47.3403 20.9889 47.1955C21.2004 47.0953 21.3563 46.9061 21.4231 46.6723C21.5901 46.0711 21.3006 45.8039 19.909 45.3141C16.1127 43.9782 12.9621 41.6625 10.4795 38.3783L9.91174 37.6213L10.1901 37.2539C11.6262 35.3614 10.9805 32.6672 8.86525 31.7877C8.26408 31.5317 7.07287 31.476 6.49396 31.6653ZM8.37541 33.4688C8.76506 33.6692 9.11018 34.1256 9.24377 34.6155C9.47756 35.4838 8.86525 36.4635 7.9301 36.7418C7.06174 37.009 6.08205 36.3967 5.78146 35.4059C5.67014 35.0385 5.68127 34.8826 5.83713 34.4819C6.24904 33.3797 7.35119 32.9455 8.37541 33.4688Z" fill="#EF0303"/>
</svg>
