<svg width="54" height="53" viewBox="0 0 54 53" fill="none" xmlns="http://www.w3.org/2000/svg">
<path d="M7.50902 0.273612C5.728 0.977735 4.28869 2.29279 3.42925 4.00132C2.92186 4.99538 3.0047 5.88589 3.6467 6.47611C3.77095 6.59001 5.3863 7.44945 7.22944 8.36067C10.1391 9.81034 10.6362 10.0278 11.0607 10.0278C12.0755 10.0174 12.9142 9.15799 12.8107 8.21571C12.7899 7.9879 12.1583 6.21724 11.4128 4.2809C9.95274 0.480707 9.85955 0.315031 9.04152 0.0975809C8.48237 -0.0577402 8.31669 -0.0473852 7.50902 0.273612ZM9.91132 5.0368C10.6051 6.83852 11.1539 8.32961 11.1332 8.35032C11.1021 8.38138 4.86856 5.29567 4.76501 5.19212C4.6304 5.06786 5.407 3.88742 6.05935 3.23507C6.5978 2.69662 7.01199 2.38598 7.65399 2.07534C8.1303 1.82682 8.55485 1.66115 8.58591 1.70257C8.61698 1.73363 9.21755 3.23507 9.91132 5.0368Z" fill="#EF0303"/>
<path d="M43.8631 0.139C43.6353 0.221838 43.3454 0.397869 43.2108 0.53248C42.9105 0.822413 40.2804 7.58407 40.2079 8.21571C40.1043 9.15799 40.9431 10.0174 41.9578 10.0278C42.3824 10.0278 42.8794 9.81034 45.6855 8.41245C47.4666 7.52194 49.0819 6.6832 49.2683 6.54859C49.9724 6.01014 50.1174 5.05751 49.6411 4.09451C48.7091 2.27208 47.2491 0.936316 45.4163 0.242548C44.6294 -0.0473852 44.4326 -0.0680952 43.8631 0.139ZM45.6131 2.18924C46.4 2.59308 47.5908 3.78387 47.9947 4.56048C48.1603 4.88148 48.2742 5.17141 48.2535 5.19212C48.15 5.29567 41.9164 8.38138 41.8854 8.35032C41.8646 8.32961 42.3927 6.90065 43.0658 5.16105C43.7285 3.42146 44.3084 1.92002 44.3498 1.82682C44.4223 1.60938 44.6087 1.66115 45.6131 2.18924Z" fill="#EF0303"/>
<path d="M17.7174 1.90967C17.5932 2.06499 17.5 2.28244 17.5 2.40669C17.5 2.53095 17.7071 3.34898 17.9556 4.22913C18.4526 5.94802 18.608 6.19653 19.1775 6.19653C19.5295 6.19653 19.9851 5.7927 19.9851 5.4717C19.9851 5.34744 19.778 4.51906 19.5192 3.62856C19.0118 1.86825 18.8772 1.64044 18.2766 1.64044C18.0281 1.64044 17.8728 1.71293 17.7174 1.90967Z" fill="#EF0303"/>
<path d="M34.1826 1.81647C34.0273 1.95109 33.8202 2.48953 33.4992 3.62856C33.2403 4.51906 33.0332 5.34744 33.0332 5.4717C33.0332 5.7927 33.4888 6.19653 33.8409 6.19653C34.4104 6.19653 34.5657 5.94802 35.0627 4.22913C35.3112 3.34898 35.5183 2.53095 35.5183 2.4067C35.5183 2.28244 35.4252 2.06499 35.3009 1.90967C35.042 1.58867 34.5243 1.54725 34.1826 1.81647Z" fill="#EF0303"/>
<path d="M26.0432 5.46135C25.5669 5.58561 25.1009 5.85483 24.8627 6.15512C24.5314 6.56931 22.1602 11.4775 22.1602 11.7363C22.1602 11.8606 22.2533 12.0884 22.3776 12.2437C22.6054 12.5336 23.0403 12.6061 23.4131 12.4094C23.527 12.3473 24.1586 11.2082 24.9042 9.7275C25.6083 8.30891 26.2606 7.12846 26.3435 7.0974C26.4367 7.05598 26.5816 7.05598 26.6852 7.0974C26.7784 7.13882 27.907 9.29261 29.2739 12.0677C30.6096 14.7599 31.8108 17.1001 31.9454 17.2554C32.08 17.4211 32.3699 17.6282 32.5874 17.7214C32.8255 17.8249 35.1554 18.208 38.355 18.674C41.3061 19.0986 43.7912 19.5024 43.8637 19.5645C44.2468 19.8752 44.0605 20.103 40.1567 23.8928C36.1598 27.7862 35.7249 28.2832 35.7249 29.0391C35.7249 29.2359 36.1184 31.6899 36.605 34.5064C37.0917 37.3229 37.4852 39.7666 37.4852 39.9427C37.4852 40.1808 37.4231 40.2947 37.247 40.3776C37.0399 40.4708 36.7293 40.3361 34.9276 39.3939C33.7885 38.7933 32.7531 38.2963 32.6495 38.2963C32.3596 38.2963 31.9247 38.6587 31.8522 38.9693C31.7072 39.5285 31.9661 39.7356 34.2441 40.9367C36.2944 42.0136 36.429 42.0654 37.0296 42.0757C38.2411 42.0757 39.1419 41.1956 39.1419 40.0048C39.1419 39.7045 38.7381 37.1365 38.2514 34.2993C37.713 31.1308 37.4023 29.0805 37.4541 28.977C37.4955 28.8734 39.2869 27.0924 41.4407 25.0008C44.3711 22.1429 45.3755 21.097 45.4998 20.7864C45.8829 19.8337 45.5722 18.7258 44.7646 18.1666C44.3607 17.887 44.1122 17.8353 38.8313 17.069C35.7974 16.6238 33.2812 16.2199 33.2294 16.1682C33.188 16.1267 32.0697 13.9212 30.765 11.2807C29.4499 8.6299 28.2902 6.3415 28.1659 6.17583C27.7724 5.63738 26.737 5.28532 26.0432 5.46135Z" fill="#EF0303"/>
<path d="M4.67154 12.0573C4.42303 12.368 4.40232 12.5958 4.568 12.9685C4.71296 13.2895 7.10491 14.4079 7.65371 14.4182C8.25429 14.4182 8.63741 13.6002 8.26464 13.1032C8.05755 12.8443 5.62418 11.7881 5.2307 11.7881C4.98219 11.7881 4.82687 11.8606 4.67154 12.0573Z" fill="#EF0303"/>
<path d="M46.1318 12.368C45.4484 12.6786 44.8271 13.01 44.765 13.1032C44.3819 13.6002 44.765 14.4182 45.3656 14.4182C45.9144 14.4079 48.3063 13.2895 48.4513 12.9685C48.617 12.5958 48.5962 12.368 48.3477 12.0573C48.0267 11.6431 47.5815 11.7053 46.1318 12.368Z" fill="#EF0303"/>
<path d="M21.0315 14.0351C20.8969 14.1283 20.5863 14.6357 20.3377 15.1637C20.0892 15.6918 19.8304 16.1578 19.7682 16.1992C19.6957 16.2406 17.1795 16.6341 14.1663 17.069C8.89574 17.8353 8.66793 17.887 8.25374 18.1666C7.44607 18.7258 7.13543 19.8337 7.51856 20.7967C7.64281 21.1074 8.64723 22.1429 11.588 25.0008C13.7314 27.0924 15.5228 28.8734 15.5642 28.9666C15.616 29.0805 15.3157 31.1204 14.7669 34.2993C14.2802 37.1365 13.8764 39.7045 13.8764 40.0048C13.8764 41.1956 14.7772 42.0757 15.9887 42.0757C16.61 42.0654 16.6929 42.0343 21.4768 39.5078C24.1483 38.0995 26.416 36.9501 26.5195 36.9501C26.6127 36.9501 27.3065 37.2815 28.0624 37.675C29.6156 38.493 29.9884 38.5655 30.3301 38.1306C30.62 37.7682 30.6097 37.3022 30.3197 37.033C30.1851 36.9294 29.4085 36.4842 28.5801 36.0493C26.3331 34.8792 26.8923 34.7446 20.8762 37.9235C16.5997 40.1705 15.9887 40.4708 15.7713 40.3776C15.5953 40.2947 15.5331 40.1808 15.5331 39.9427C15.5331 39.7666 15.9266 37.3229 16.4133 34.5064C16.9 31.6899 17.2934 29.2359 17.2934 29.0391C17.2934 28.2832 16.8585 27.7862 12.872 23.8928C8.96822 20.103 8.77148 19.8752 9.14425 19.5645C9.22709 19.5024 11.7019 19.0986 14.6633 18.674C18.5049 18.1252 20.1617 17.8456 20.4723 17.7007C21.0108 17.4418 21.3007 17.069 21.9013 15.8057C22.2637 15.0602 22.3776 14.7288 22.3258 14.5321C22.1705 13.9212 21.5389 13.6727 21.0315 14.0351Z" fill="#EF0303"/>
<path d="M0.922857 23.8307C0.115186 24.3691 -0.267939 26.5333 0.208379 27.869C0.591505 28.9356 1.2335 29.3912 2.07223 29.1944C2.55891 29.0702 5.38575 27.7655 5.62391 27.548C5.96562 27.2374 6.14165 26.7921 6.08988 26.3365C5.99668 25.591 5.79994 25.415 3.92573 24.4727C1.96869 23.4786 1.56485 23.3958 0.922857 23.8307ZM3.10771 25.9223C4.12247 26.4401 4.17425 26.4815 3.93609 26.5747C3.79112 26.6368 3.26303 26.8646 2.766 27.1028L1.85478 27.517L1.75124 27.2374C1.54414 26.699 1.67875 25.3425 1.93762 25.3632C1.9894 25.3632 2.50713 25.6117 3.10771 25.9223Z" fill="#EF0303"/>
<path d="M49.0723 24.4727C47.2188 25.415 47.022 25.591 46.9288 26.3365C46.8771 26.7921 47.0531 27.2374 47.3948 27.548C47.6433 27.7758 50.4598 29.0702 50.9568 29.1944C52.2201 29.4947 53.0899 28.2418 52.9967 26.2433C52.9139 24.4934 52.3237 23.5822 51.2675 23.5925C50.8844 23.6029 50.4702 23.7685 49.0723 24.4727ZM51.2675 25.6324C51.4021 26.0052 51.4021 26.875 51.2675 27.2374L51.1639 27.517L50.2527 27.0924C49.7557 26.8646 49.2276 26.6265 49.0826 26.5747C48.8445 26.4815 48.8962 26.4297 49.911 25.9223C50.5116 25.6117 51.0293 25.3632 51.0811 25.3632C51.1225 25.3528 51.2054 25.4771 51.2675 25.6324Z" fill="#EF0303"/>
<path d="M6.93857 33.7091C6.659 33.823 4.60876 35.2105 4.4845 35.3762C4.28776 35.6144 4.31882 36.1632 4.53627 36.4324C4.88833 36.8673 5.33359 36.7534 6.659 35.8836C7.8705 35.0863 8.0776 34.8792 8.0776 34.4339C8.0776 33.9266 7.41489 33.5124 6.93857 33.7091Z" fill="#EF0303"/>
<path d="M45.3555 33.7609C45.0242 33.9369 44.8689 34.3718 45.0035 34.7446C45.1485 35.1795 47.4161 36.6602 47.9235 36.6602C48.3791 36.6602 48.6691 36.3496 48.6691 35.8732C48.6691 35.4176 48.5759 35.3244 47.2919 34.4753C46.1011 33.678 45.7594 33.5538 45.3555 33.7609Z" fill="#EF0303"/>
<path d="M7.24932 44.6127C5.39582 45.5342 3.77013 46.3937 3.64587 46.5076C3.26274 46.8596 3.10742 47.2428 3.10742 47.8226C3.10742 49.0445 4.62957 51.0947 6.29668 52.1095C7.03187 52.5547 8.18125 53 8.57473 53C8.93715 52.9896 9.63091 52.679 9.87943 52.3994C10.0865 52.1509 12.727 45.3893 12.8098 44.8508C12.8927 44.3538 12.582 43.629 12.1471 43.2976C11.8779 43.0905 11.6294 43.0077 11.2048 42.9766C10.625 42.9352 10.5836 42.9559 7.24932 44.6127ZM10.9356 45.2546C9.72411 48.4646 8.65757 51.1983 8.59544 51.2708C8.56437 51.3122 8.13983 51.1569 7.65316 50.9187C7.00081 50.5873 6.59697 50.2974 6.05853 49.7486C5.41653 49.0963 4.62957 47.9158 4.76418 47.7916C4.84702 47.7087 11.0185 44.623 11.1013 44.623C11.1427 44.6127 11.0702 44.9026 10.9356 45.2546Z" fill="#EF0303"/>
<path d="M41.1615 43.1216C40.9958 43.2044 40.768 43.3494 40.6748 43.4426C40.3952 43.6911 40.1467 44.4573 40.2088 44.8508C40.2917 45.3893 42.9321 52.1509 43.1392 52.3994C43.3981 52.679 44.0815 53 44.4543 53C44.8271 53 45.935 52.5651 46.7116 52.0991C48.3373 51.1569 49.9112 49.0445 49.9112 47.8226C49.9112 46.9425 49.5902 46.5179 48.4926 45.9691C47.5296 45.4928 46.9187 45.586 46.7634 46.228C46.6391 46.7147 46.8669 47.0564 47.5918 47.4291C47.9542 47.6155 48.2545 47.8123 48.2545 47.8744C48.2545 48.154 47.5296 49.1895 46.9187 49.79C46.2871 50.4217 45.1066 51.1672 44.5889 51.2604C44.4336 51.2811 44.2161 50.8048 43.1289 47.9779C42.4248 46.1555 41.8656 44.6541 41.8863 44.6334C41.8967 44.6127 42.4351 44.8612 43.0667 45.1718C44.2679 45.7827 44.7235 45.8759 45.1273 45.586C45.4173 45.3789 45.4483 44.623 45.1791 44.3745C45.0756 44.2917 44.4129 43.9292 43.7087 43.5875C42.3212 42.9041 41.7724 42.8006 41.1615 43.1216Z" fill="#EF0303"/>
<path d="M19.8626 46.4972C19.6037 46.7043 18.3301 49.117 18.3301 49.4069C18.3301 49.8211 18.7028 50.2042 19.1067 50.2042C19.5934 50.2042 19.7901 49.9868 20.4942 48.6924C21.188 47.4188 21.2812 46.9425 20.9188 46.5801C20.6806 46.3419 20.1214 46.3005 19.8626 46.4972Z" fill="#EF0303"/>
<path d="M32.1004 46.5801C31.738 46.9425 31.8312 47.4188 32.525 48.6924C33.2291 49.9868 33.4258 50.2042 33.9125 50.2042C34.3164 50.2042 34.6891 49.8211 34.6891 49.4069C34.6891 49.117 33.4155 46.7043 33.1566 46.4972C32.8978 46.3005 32.3386 46.3419 32.1004 46.5801Z" fill="#EF0303"/>
</svg>
