<svg width="47" height="57" viewBox="0 0 47 57" fill="none" xmlns="http://www.w3.org/2000/svg">
<path d="M22.2289 0.289456L21.9395 0.590042V3.11719V5.64434L22.2289 5.94492C22.652 6.35684 23.4535 6.35684 23.8766 5.94492L24.166 5.64434V3.11719V0.590042L23.8766 0.289456C23.6428 0.0556674 23.4758 3.33786e-06 23.0527 3.33786e-06C22.6297 3.33786e-06 22.4627 0.0556674 22.2289 0.289456Z" fill="#EF0303"/>
<path d="M10.5951 4.07462C10.3057 4.31954 10.25 4.442 10.25 4.86504C10.25 5.28809 10.3947 5.61094 11.2297 7.03594C12.0535 8.46094 12.2539 8.73926 12.5879 8.87286C13.0555 9.07325 13.7123 8.91739 13.9795 8.53887C14.3469 8.01563 14.2133 7.48126 13.2447 5.8002C12.7549 4.94297 12.2205 4.13028 12.0646 4.00782C11.6527 3.68497 11.0182 3.71837 10.5951 4.07462Z" fill="#EF0303"/>
<path d="M33.974 4.08573C33.7959 4.26386 33.2727 5.06542 32.8051 5.87812C32.1148 7.08046 31.959 7.44784 31.959 7.82636C31.959 8.69472 32.6158 9.1623 33.4619 8.88398C33.8516 8.75038 33.974 8.59452 34.8646 7.06933C35.7107 5.62206 35.8443 5.33261 35.8555 4.87616C35.8555 4.43085 35.8109 4.31952 35.5104 4.0746C35.0316 3.67382 34.4082 3.67382 33.974 4.08573Z" fill="#EF0303"/>
<path d="M0.297859 12.7025C-0.102922 13.1812 -0.102922 13.8047 0.320125 14.2389C0.487117 14.417 1.28868 14.9402 2.10137 15.4078C3.68223 16.3096 4.23887 16.4543 4.76212 16.0869C5.11837 15.842 5.28536 15.2297 5.1295 14.7621C4.99591 14.3391 4.79552 14.1943 2.76934 13.0365C1.80079 12.4799 1.48907 12.3574 1.07716 12.3574C0.665242 12.3574 0.542781 12.4131 0.297859 12.7025Z" fill="#EF0303"/>
<path d="M42.8132 13.3482C41.4216 14.1721 41.1321 14.3836 40.9985 14.7064C40.8093 15.1629 40.9651 15.8197 41.3437 16.0869C41.8669 16.4543 42.4124 16.3096 44.0044 15.4078C44.8171 14.9402 45.6187 14.417 45.7968 14.2389C46.2087 13.8047 46.2087 13.1812 45.8079 12.7025C45.563 12.4019 45.4517 12.3574 45.0064 12.3574C44.5499 12.3686 44.2605 12.491 42.8132 13.3482Z" fill="#EF0303"/>
<path d="M11.6198 14.1832C10.4954 14.5506 9.50458 15.4412 8.93681 16.5879L8.63622 17.2002L8.60283 20.3842L8.56943 23.557L8.19091 23.7018C7.62314 23.9021 6.72138 24.6592 6.36513 25.2158C5.84189 26.0285 3.49286 31.183 3.28134 31.9512C2.98076 33.0645 3.00302 35.0016 3.33701 36.0703C3.67099 37.1613 4.22763 38.2078 4.88447 38.9871C5.17392 39.3211 6.87724 40.991 8.66962 42.6832L11.9204 45.767V51.0885V56.41L12.2099 56.7105L12.5104 57H15.5386H18.5667L18.8673 56.7105C19.2792 56.2875 19.2792 55.4859 18.8673 55.0629L18.5667 54.7734H16.3624H14.147V49.6969V44.6092L13.6794 44.1527C13.4122 43.8967 11.7534 42.3158 9.98329 40.6459C8.22431 38.9648 6.61005 37.3617 6.39853 37.0834C5.56357 35.9367 5.19618 34.2779 5.48564 32.9309C5.66376 32.1293 7.87919 27.1752 8.36904 26.4738C8.70302 26.0062 9.42665 25.6723 10.0835 25.6834C10.5733 25.6834 11.3081 25.9951 16.1509 28.2662C19.179 29.6801 21.695 30.8824 21.7395 30.927C21.7841 30.9715 21.6393 31.2053 21.4167 31.4391C20.3702 32.5189 19.0899 33.0533 17.587 33.0645C16.3847 33.0645 15.9171 32.9197 13.6905 31.8955C12.7108 31.4391 11.8091 31.0605 11.6977 31.0605C10.7292 31.0605 10.1392 32.274 10.7737 32.9865C10.9964 33.2426 13.7462 34.5785 14.9597 35.0238C15.572 35.2465 16.0618 35.3355 17.0415 35.3912L18.3106 35.458L18.9007 36.1816C20.6151 38.308 21.6059 40.8574 21.8175 43.7186C21.8954 44.6537 21.9845 45.1547 22.1069 45.3551C22.4966 45.9451 23.621 45.934 23.9995 45.3439C24.1665 45.0879 24.1888 44.8652 24.1331 43.5961C24.0663 42.0486 23.8882 41.0578 23.4317 39.6662C23.031 38.4416 22.196 36.7271 21.4612 35.6584L20.8489 34.7566L21.5726 34.3225C22.5188 33.777 23.6655 32.6303 24.1999 31.7062L24.6229 30.9826L25.0905 31.1385C25.4134 31.2498 25.8809 31.2943 26.6268 31.2609C27.562 31.2275 27.7958 31.1719 28.3636 30.8824L29.0315 30.5373L29.3321 31.0271C29.7218 31.6395 30.4009 32.2072 31.169 32.5969C31.6811 32.8418 31.9706 32.8975 32.8501 32.9309C33.5849 32.9643 34.0524 32.9197 34.3864 32.8084C34.8317 32.6525 34.854 32.6525 34.854 32.8529C34.854 33.2648 34.3864 35.2576 33.5737 38.3525C32.0708 44.0191 31.9595 44.8764 31.9595 50.5541V54.7734H29.744H27.5397L27.2392 55.0629C26.8272 55.4859 26.8272 56.2875 27.2392 56.7105L27.5397 57H30.5679H33.596L33.8966 56.7105L34.186 56.41V52.7807C34.1972 46.5574 34.3864 44.5869 35.3661 40.8129C37.5927 32.1738 37.4702 33.0645 37.4702 26.0508V20.54L37.1474 19.8721C36.7243 19.0148 35.8782 18.1687 35.021 17.7457C34.3976 17.4451 34.264 17.4228 33.0616 17.4228C31.837 17.4228 31.7368 17.4451 31.1022 17.768L30.4343 18.1131L30.1337 17.6232C29.744 17.0109 29.0649 16.4432 28.2856 16.0535C27.729 15.7752 27.562 15.7529 26.3819 15.7529C25.1573 15.7529 25.0571 15.7752 24.4226 16.098L23.7546 16.4432L23.454 15.9533C23.0643 15.341 22.3852 14.7732 21.6059 14.3836C21.0493 14.1053 20.8823 14.083 19.7134 14.083C18.2772 14.0941 17.8765 14.2166 16.9079 14.9625L16.3735 15.3633L15.8503 14.9625C14.9597 14.2834 14.4476 14.1053 13.2007 14.0719C12.4659 14.0385 11.9315 14.083 11.6198 14.1832ZM14.0134 16.5768C14.481 16.8217 14.7036 17.0443 14.9931 17.5898C15.1823 17.9461 15.2046 18.3135 15.238 21.6199L15.2714 25.2603L13.4011 24.392C12.3768 23.9133 11.3638 23.4791 11.1634 23.4346L10.7849 23.3566L10.8294 20.6736C10.8628 18.1799 10.8851 17.9461 11.1077 17.5342C11.3638 17.0332 11.5976 16.8105 12.0874 16.5545C12.555 16.3096 13.5013 16.3207 14.0134 16.5768ZM20.6931 16.5768C21.1606 16.8217 21.3833 17.0443 21.6727 17.5898C21.8731 17.9461 21.8843 18.3691 21.9399 23.0449C21.9733 25.8281 22.0401 28.1771 22.0847 28.2439C22.1403 28.3219 22.1292 28.3887 22.0735 28.3887C22.029 28.3887 20.9825 27.9211 19.7579 27.3533L17.5425 26.3068V22.1432C17.5425 18.102 17.5536 17.9684 17.7763 17.5342C18.0435 17.0332 18.2772 16.8105 18.7671 16.5545C19.2347 16.3096 20.181 16.3207 20.6931 16.5768ZM27.3727 18.2467C27.8403 18.4916 28.063 18.7143 28.3524 19.2598C28.5528 19.616 28.564 19.95 28.564 23.4902C28.564 27.2086 28.5528 27.3422 28.3302 27.7764C27.9071 28.5668 27.2726 28.9453 26.3931 28.9453C25.5136 28.9453 24.879 28.5668 24.4559 27.7764C24.2333 27.3422 24.2222 27.2086 24.2222 23.4902C24.2222 19.7719 24.2333 19.6383 24.4559 19.2041C24.7231 18.7031 24.9569 18.4805 25.4468 18.2244C25.9143 17.9795 26.8606 17.9906 27.3727 18.2467ZM34.0524 19.9166C34.52 20.1615 34.7427 20.3842 35.0321 20.9297C35.2325 21.2859 35.2436 21.6199 35.2436 25.1602C35.2436 28.8785 35.2325 29.0121 35.0099 29.4463C34.5868 30.2367 33.9522 30.6152 33.0727 30.6152C32.1933 30.6152 31.5587 30.2367 31.1356 29.4463C30.913 29.0121 30.9018 28.8785 30.9018 25.1602C30.9018 21.4418 30.913 21.3082 31.1356 20.874C31.4028 20.373 31.6366 20.1504 32.1265 19.8943C32.594 19.6494 33.5403 19.6605 34.0524 19.9166Z" fill="#EF0303"/>
<path d="M22.2289 55.0629C21.9951 55.2967 21.9395 55.4637 21.9395 55.8867C21.9395 56.6215 22.318 57 23.0527 57C23.7875 57 24.166 56.6215 24.166 55.8867C24.166 55.152 23.7875 54.7734 23.0527 54.7734C22.6297 54.7734 22.4627 54.8291 22.2289 55.0629Z" fill="#EF0303"/>
</svg>
