<svg width="44" height="47" viewBox="0 0 44 47" fill="none" xmlns="http://www.w3.org/2000/svg">
<path d="M10.7215 0.186842C10.5061 0.284756 10.1928 0.519748 10.0165 0.695992C9.35074 1.40097 9.39969 -0.302727 9.39969 21.5124C9.39969 34.2509 9.36053 41.5161 9.30178 41.9567C9.24303 42.3288 9.09616 42.8673 8.95908 43.1513C8.64576 43.8367 7.78412 44.6885 7.07914 45.0214C6.56999 45.2564 6.39375 45.2858 5.48315 45.2858C4.57256 45.2858 4.39631 45.2564 3.88716 45.0214C3.18219 44.6885 2.32055 43.8367 2.00723 43.1513C1.66453 42.4071 1.56662 41.5553 1.56662 39.0389V36.8163H4.69985H7.83308V36.033V35.2497H4.11237C0.518941 35.2497 0.381863 35.2594 0.195827 35.4455C0.00979135 35.6315 0 35.7686 0 39.0487C0 42.8282 0.0195827 42.9554 0.65602 44.1794C1.29246 45.3935 2.58492 46.4216 4.00466 46.8426C4.48444 46.9797 6.29584 46.9993 21.9326 46.9993C41.2314 46.9993 39.6941 47.0482 41.0453 46.3433C42.2595 45.7068 43.2875 44.4144 43.7086 42.9946C43.8457 42.5148 43.8652 40.4587 43.8652 22.0901C43.8652 2.44864 43.8554 1.7045 43.6792 1.32264C43.5813 1.10723 43.3463 0.793906 43.17 0.617662C42.4651 -0.04815 43.7282 0.000806747 26.6129 0.000806747C11.7202 0.000806747 11.0936 0.0105981 10.7215 0.186842ZM41.7503 1.7045C41.9755 1.79262 42.1126 1.93949 42.1909 2.1549C42.3378 2.58572 42.3476 40.9384 42.2007 41.9567C42.0636 42.8869 41.7209 43.5723 41.0845 44.2185C40.4383 44.855 39.7529 45.1977 38.8227 45.3347C38.0785 45.4327 9.49761 45.4816 9.49761 45.3739C9.49761 45.3347 9.63469 45.1585 9.79135 44.9725C10.1536 44.5612 10.604 43.6996 10.8096 42.9946C10.9467 42.505 10.9663 40.5761 10.9663 22.4719C10.9663 7.8143 10.9957 2.3899 11.074 2.1549C11.2894 1.53805 10.369 1.57721 26.6129 1.56742C39.0577 1.56742 41.4761 1.587 41.7503 1.7045Z" fill="#151515"/>
<path d="M22.9901 4.03481C22.7159 4.25022 21.6585 5.97349 21.0318 7.22679C20.4639 8.35279 20.4248 8.48987 20.3856 9.23401C20.3366 10.2425 20.5814 10.9573 21.1787 11.5839C21.7956 12.2106 22.4124 12.4749 23.3524 12.5141C24.3511 12.5631 25.0659 12.3085 25.6827 11.721C26.3681 11.0454 26.5835 10.5069 26.5835 9.39067V8.46049L25.9765 7.23658C25.34 5.97349 24.2826 4.25022 24.0084 4.03481C23.9203 3.97606 23.6951 3.91731 23.4993 3.91731C23.3034 3.91731 23.0782 3.97606 22.9901 4.03481ZM24.0182 7.11908C24.9484 8.74444 25.154 9.53754 24.7721 10.1642C24.0182 11.3979 22.0305 10.8985 22.0305 9.469C22.0305 9.26339 22.1285 8.86194 22.246 8.58778C22.5397 7.88281 23.3915 6.36515 23.4993 6.36515C23.5384 6.36515 23.7734 6.70784 24.0182 7.11908Z" fill="#151515"/>
<path d="M28.4732 4.0348C28.3851 4.10334 27.9347 4.72999 27.4745 5.43496C26.3681 7.10929 26.3583 7.18762 27.3374 8.18633L28.0424 8.92068L27.7291 10.2131C27.5528 10.9279 27.4158 11.6525 27.4158 11.8189C27.4158 12.2595 27.7095 12.5337 28.1893 12.5337C28.532 12.5337 28.7572 12.377 30.6567 10.8594C31.8121 9.93898 32.7814 9.13609 32.8206 9.07735C32.9773 8.83256 32.8891 8.29404 32.5954 7.72614L32.3017 7.12887L32.987 6.08119C33.7508 4.92581 33.8683 4.495 33.4864 4.11313C33.3004 3.9271 33.1633 3.91731 30.9602 3.91731C29.2468 3.91731 28.5907 3.94668 28.4732 4.0348ZM31.1854 5.74829C31.0875 5.90495 30.9015 6.17911 30.7742 6.36514C30.4805 6.80575 30.4903 7.22678 30.7938 7.83384C30.9309 8.09821 31.0386 8.3332 31.0386 8.36258C31.0386 8.38216 30.735 8.64653 30.3532 8.95006L29.6776 9.49837L29.7363 8.86194L29.7951 8.23529L29.1488 7.56948L28.5124 6.91346L28.9922 6.19869L29.4817 5.48392H30.4119H31.3519L31.1854 5.74829Z" fill="#151515"/>
<path d="M14.0995 17.2335V18.0168H16.0578H18.0161V17.2335V16.4502H16.0578H14.0995V17.2335Z" fill="#151515"/>
<path d="M19.5827 17.2335V18.0168H22.3243H25.0659V17.2335V16.4502H22.3243H19.5827V17.2335Z" fill="#151515"/>
<path d="M35.2488 17.2335V18.0168H37.2071H39.1654V17.2335V16.4502H37.2071H35.2488V17.2335Z" fill="#151515"/>
<path d="M14.0995 20.3668V21.1501H18.0161H21.9326V20.3668V19.5835H18.0161H14.0995V20.3668Z" fill="#151515"/>
<path d="M14.0995 24.2833V25.0667H18.4077H22.7159V24.2833V23.5H18.4077H14.0995V24.2833Z" fill="#151515"/>
<path d="M24.2825 24.2833V25.0667H26.6325H28.9824V24.2833V23.5H26.6325H24.2825V24.2833Z" fill="#151515"/>
<path d="M35.2488 24.2833V25.0667H37.2071H39.1654V24.2833V23.5H37.2071H35.2488V24.2833Z" fill="#151515"/>
<path d="M14.0995 27.4166V28.2H16.4495H18.7994V27.4166V26.6333H16.4495H14.0995V27.4166Z" fill="#151515"/>
<path d="M14.0995 31.3331V32.1165H16.0578H18.0161V31.3331V30.5498H16.0578H14.0995V31.3331Z" fill="#151515"/>
<path d="M19.5827 31.3331V32.1165H24.2825H28.9824V31.3331V30.5498H24.2825H19.5827V31.3331Z" fill="#151515"/>
<path d="M35.2488 31.3331V32.1165H37.2071H39.1654V31.3331V30.5498H37.2071H35.2488V31.3331Z" fill="#151515"/>
<path d="M14.0995 34.4664V35.2498H19.191H24.2825V34.4664V33.6831H19.191H14.0995V34.4664Z" fill="#151515"/>
<path d="M27.4158 39.1662V39.9495H30.549H33.6822V39.1662V38.3828H30.549H27.4158V39.1662Z" fill="#151515"/>
<path d="M35.2488 39.1662V39.9495H37.2071H39.1654V39.1662V38.3828H37.2071H35.2488V39.1662Z" fill="#151515"/>
<path d="M31.3323 42.2995V43.0828H35.2489H39.1654V42.2995V41.5161H35.2489H31.3323V42.2995Z" fill="#151515"/>
</svg>
