<svg width="43" height="43" viewBox="0 0 43 43" fill="none" xmlns="http://www.w3.org/2000/svg">
<g clip-path="url(#clip0_72_2579)">
<path d="M33.9182 0C34.2318 0.218735 34.3447 0.515991 34.3334 0.897376C34.3131 1.62313 34.3277 2.35 34.3277 3.1195C34.9776 2.90525 35.5856 2.69886 36.1971 2.5048C36.6393 2.36459 37.0861 2.24344 37.5306 2.10883C37.9051 1.99554 38.1996 2.08752 38.4794 2.37244C39.0999 3.00172 39.7474 3.60296 40.4176 4.24795C40.5259 4.19074 40.6816 4.10437 40.8429 4.02697C41.8063 3.56707 42.8871 4.17392 42.9875 5.2317C43.0022 5.38425 43.0011 5.53905 43.0011 5.69273C43.0022 11.7949 43.0022 17.8959 43.0011 23.9981C43.0011 24.1517 43.0056 24.3077 42.9841 24.4591C42.9322 24.8158 42.7066 25.0155 42.3524 25.0099C42.0196 25.0043 41.8007 24.8091 41.7533 24.4714C41.7285 24.2931 41.7341 24.1091 41.7341 23.9274C41.733 17.8813 41.733 11.8353 41.733 5.79032C41.733 5.6501 41.7398 5.50877 41.7229 5.37079C41.6958 5.15767 41.5773 5.07354 41.3686 5.17786C41.2558 5.23394 41.1464 5.299 41.0369 5.3607C35.8756 8.24688 30.7187 11.1376 25.5506 14.0069C25.1095 14.2514 24.9583 14.5173 24.9595 15.0176C24.9764 23.4709 24.9719 31.923 24.9719 40.3763C24.9719 40.4885 24.9696 40.6006 24.9719 40.7117C24.9831 41.1537 25.0903 41.221 25.4762 41.0078C26.7171 40.3213 27.9547 39.6292 29.1923 38.9371C33.2244 36.6825 37.2531 34.4222 41.2919 32.1788C41.6179 31.9971 41.7499 31.8008 41.7398 31.4261C41.7138 30.4614 41.7251 29.4945 41.7353 28.5298C41.7398 28.0609 41.9812 27.8041 42.3738 27.8097C42.7258 27.8142 42.9853 28.0396 42.9887 28.4199C43.0011 29.5809 43.0044 30.743 42.9808 31.904C42.9683 32.5086 42.5961 32.8922 42.0816 33.1771C39.7497 34.4738 37.4234 35.7795 35.0949 37.0818C32.1165 38.7476 29.1382 40.4111 26.1609 42.0779C25.7616 42.3012 25.3588 42.4795 24.8794 42.3763C24.7993 42.3595 24.6729 42.4313 24.6075 42.5008C24.2645 42.8598 23.8482 43.0045 23.3563 43.0011C22.1176 42.9933 20.8789 42.9933 19.6402 43.0011C19.1483 43.0045 18.7342 42.8575 18.3902 42.4986C18.3191 42.4246 18.1848 42.4021 18.0743 42.3774C17.6975 42.29 17.271 42.2978 16.9484 42.1183C11.5704 39.1334 6.2071 36.125 0.837035 33.1255C0.279721 32.8137 0.00557719 32.3526 0.0021927 31.7245C-0.0011918 31.2062 -6.36343e-05 30.688 -6.36343e-05 30.1709C-6.36343e-05 21.9835 -6.36343e-05 13.796 0.00106453 5.6086C0.00106453 4.62036 0.465868 3.94957 1.30184 3.8991C1.73731 3.87218 2.18632 4.06848 2.67143 4.1728C3.19039 3.67251 3.81088 3.12399 4.37045 2.51826C4.75402 2.10322 5.13309 1.97871 5.67573 2.16268C6.6437 2.49246 7.62859 2.77289 8.67327 3.09595C8.67327 2.37244 8.68681 1.65454 8.66763 0.938879C8.65747 0.549643 8.73532 0.2221 9.08166 0C9.22268 0 9.3637 0 9.5036 0C10.0666 0.250143 10.6351 0.486826 11.1913 0.752674C15.1625 2.64614 18.3811 5.35846 20.4885 9.26204C20.8563 9.94405 21.1598 10.6597 21.5118 11.4012C21.5547 11.3137 21.5862 11.2576 21.6099 11.1992C23.2379 7.08142 26.0775 4.00342 29.8828 1.78914C31.0414 1.11499 32.2891 0.592268 33.4951 0C33.6362 0 33.7772 0 33.9182 0ZM18.028 27.7345C18.028 23.4383 18.0235 19.1433 18.037 14.8482C18.0382 14.4758 17.922 14.2728 17.5948 14.0899C13.1284 11.6064 8.66988 9.10949 4.20912 6.61478C3.40022 6.16273 2.59246 5.70843 1.78244 5.25974C1.37066 5.03203 1.27928 5.09036 1.26912 5.57046C1.26799 5.61196 1.26912 5.65459 1.26912 5.69609C1.26912 14.2739 1.27138 22.8506 1.2601 31.4283C1.2601 31.8041 1.38645 31.9982 1.71023 32.1777C6.9483 35.0941 12.1785 38.0229 17.4098 40.9495C17.9332 41.2423 18.028 41.1851 18.028 40.5793C18.028 36.2977 18.028 32.0161 18.028 27.7345ZM3.73191 4.88285C3.95528 5.01633 4.08389 5.09822 4.21702 5.17225C8.81316 7.74211 13.4195 10.294 17.9964 12.8964C18.7884 13.3462 19.568 13.4001 20.4524 13.3092C20.3859 13.1925 20.3453 13.0893 20.2776 13.0097C19.5104 12.0989 18.7929 11.1409 17.9547 10.2996C17.1661 9.5077 16.2545 8.83691 15.3904 8.12125C15.0248 7.81839 14.938 7.50318 15.1647 7.18462C15.4073 6.84361 15.7367 6.81893 16.153 7.11282C16.3245 7.23397 16.4993 7.35512 16.6595 7.48972C17.535 8.22781 18.4059 8.97151 19.2442 9.68381C18.3089 7.05001 12.7155 2.18174 9.9402 1.63771C9.9402 2.19969 9.95148 2.75831 9.93456 3.31468C9.92779 3.55809 10.0056 3.68373 10.2369 3.78693C10.9928 4.12568 11.7396 4.48464 12.4797 4.85592C12.8193 5.02643 12.9152 5.35397 12.7662 5.66917C12.6083 6.00232 12.2778 6.12122 11.919 5.96979C11.7768 5.90922 11.6392 5.83743 11.5016 5.76788C9.62995 4.82003 7.68612 4.05502 5.66784 3.47509C5.52569 3.43471 5.30344 3.42012 5.21093 3.49977C4.71341 3.93163 4.24635 4.39602 3.73191 4.88285ZM19.331 20.3424C19.331 25.5831 19.331 30.7878 19.331 35.9949C20.7965 35.9949 22.2259 35.9949 23.6779 35.9949C23.6779 30.7688 23.6779 25.564 23.6779 20.3424C22.2203 20.3424 20.7898 20.3424 19.331 20.3424ZM22.4831 13.2688C23.6023 13.5156 24.4563 13.2139 25.3261 12.7158C28.8731 10.6877 32.4516 8.71352 36.0177 6.7191C37.0703 6.1302 38.1217 5.5413 39.2984 4.88285C38.8156 4.43864 38.3654 4.0595 37.9604 3.63886C37.7506 3.42124 37.5667 3.38535 37.2982 3.48518C35.8248 4.03258 34.3176 4.50146 32.8792 5.12626C29.5985 6.55309 26.6449 8.47684 24.2228 11.1342C23.6158 11.8005 23.0799 12.533 22.4831 13.2688ZM33.0597 1.56929C29.0366 3.35058 25.827 5.91146 23.7219 9.7197C24.3627 9.18688 24.9651 8.61032 25.607 8.07975C27.7517 6.30855 30.14 4.92996 32.6829 3.80599C32.8329 3.73981 33.0326 3.56931 33.0416 3.43695C33.0811 2.84244 33.0597 2.24232 33.0597 1.56929ZM19.2961 16.2425C20.8044 16.2425 22.2428 16.2425 23.7038 16.2425C23.7038 15.777 23.723 15.3429 23.6903 14.9144C23.6824 14.8056 23.5064 14.6216 23.406 14.6205C22.1424 14.6003 20.8778 14.6003 19.6142 14.6194C19.507 14.6205 19.3186 14.7921 19.3107 14.8942C19.2769 15.335 19.2961 15.7804 19.2961 16.2425ZM23.7038 40.0936C22.2022 40.0936 20.7627 40.0936 19.2949 40.0936C19.2949 40.5535 19.2994 40.9843 19.2927 41.4161C19.2893 41.6483 19.3942 41.7403 19.6244 41.7392C20.8744 41.7347 22.1255 41.7347 23.3755 41.7392C23.6068 41.7403 23.7083 41.6438 23.7049 41.4139C23.7004 40.9832 23.7038 40.5524 23.7038 40.0936ZM19.3175 17.5594C19.3175 18.0619 19.3175 18.5431 19.3175 19.0457C20.7796 19.0457 22.2203 19.0457 23.6824 19.0457C23.6824 18.5443 23.6824 18.0631 23.6824 17.5594C22.2203 17.5594 20.7796 17.5594 19.3175 17.5594ZM19.3096 38.7767C20.7954 38.7767 22.2361 38.7767 23.6745 38.7767C23.6745 38.2663 23.6745 37.7851 23.6745 37.3062C22.2045 37.3062 20.7638 37.3062 19.3096 37.3062C19.3096 37.8064 19.3096 38.2764 19.3096 38.7767Z" fill="black"/>
<path d="M26.813 20.2851C26.813 19.6838 26.831 19.0815 26.8073 18.4813C26.7904 18.0652 26.9551 17.8117 27.3161 17.6075C30.4073 15.8621 33.4917 14.1044 36.5772 12.35C37.3331 11.9204 38.0879 11.4863 38.8482 11.0645C39.4213 10.7471 39.8986 11.0185 39.9042 11.6747C39.9144 12.9333 39.8986 14.1919 39.9121 15.4505C39.9166 15.8801 39.6842 16.1022 39.3424 16.2951C36.0459 18.1617 32.7539 20.0349 29.4608 21.9071C28.9362 22.2054 28.4138 22.5061 27.8836 22.7955C27.2789 23.1253 26.8209 22.8583 26.8152 22.1729C26.8085 21.5436 26.813 20.9143 26.813 20.2851ZM28.081 21.2318C28.38 21.0635 28.5989 20.9424 28.8166 20.819C31.9044 19.0646 34.9854 17.299 38.0856 15.5682C38.5154 15.3282 38.6835 15.0792 38.6497 14.5979C38.6068 13.9687 38.6395 13.3338 38.6395 12.7C38.556 12.7045 38.5402 12.7 38.5301 12.7056C35.1106 14.6428 31.6923 16.5789 28.2773 18.5228C28.1871 18.5744 28.0912 18.7079 28.0901 18.8055C28.0743 19.5874 28.081 20.3692 28.081 21.2318Z" fill="black"/>
<path d="M22.1345 28.1776C22.1345 29.324 22.1356 30.4704 22.1333 31.6168C22.1333 31.7704 22.1345 31.9264 22.1051 32.0756C22.0431 32.3919 21.8254 32.5657 21.5129 32.5702C21.18 32.5747 20.9567 32.3941 20.8912 32.0587C20.8675 31.9365 20.8675 31.8086 20.8675 31.6829C20.8664 29.3341 20.8664 26.9863 20.8675 24.6374C20.8675 24.5264 20.8675 24.4131 20.8856 24.3032C20.942 23.9689 21.1496 23.7759 21.488 23.7703C21.8479 23.7659 22.0634 23.9655 22.1176 24.3189C22.1379 24.4557 22.1345 24.597 22.1345 24.7373C22.1345 25.8848 22.1345 27.0312 22.1345 28.1776Z" fill="black"/>
</g>
<defs>
<clipPath id="clip0_72_2579">
<rect width="43" height="43" fill="white"/>
</clipPath>
</defs>
</svg>
