<svg width="51" height="51" viewBox="0 0 51 51" fill="none" xmlns="http://www.w3.org/2000/svg">
<g clip-path="url(#clip0_72_2501)">
<path d="M24.0096 51.0001C23.0422 50.8694 22.067 50.7848 21.1111 50.604C13.0522 49.0751 7.02247 44.6944 3.04879 37.5424C0.783068 33.4636 -0.245933 29.029 0.0502655 24.379C0.656126 14.8521 5.19527 7.70783 13.5042 3.03283C17.5548 0.753986 21.9863 -0.232552 26.6216 0.0462941C35.6614 0.592448 42.6028 4.77899 47.3862 12.4559C49.4981 15.8444 50.631 19.5886 50.9156 23.579C50.9252 23.7232 50.9714 23.8655 51.0003 24.0078C51.0003 25.004 51.0003 26.0001 51.0003 26.9963C50.9714 27.1386 50.9252 27.2809 50.9156 27.4251C50.6656 30.9982 49.7174 34.3848 47.9786 37.5078C43.9954 44.6732 37.9694 49.0694 29.8952 50.6021C28.9392 50.7828 27.9641 50.8694 26.9966 50.9982C26.0023 51.0001 25.006 51.0001 24.0096 51.0001ZM2.21405 25.504C2.21598 38.3213 12.6695 48.779 25.4926 48.7924C38.3003 48.8059 48.7634 38.3598 48.7922 25.5251C48.8211 12.7098 38.3118 2.19437 25.4887 2.21168C12.6637 2.23091 2.21213 12.6905 2.21405 25.504Z" fill="black"/>
<path d="M19.9705 31.0367C19.7128 31.0367 19.5185 31.0367 19.3262 31.0367C17.1028 31.0367 14.8794 31.0386 12.6559 31.0367C11.4942 31.0347 11.1384 30.6809 11.1384 29.5251C11.1365 26.8367 11.1365 24.1482 11.1384 21.4597C11.1384 20.3328 11.4981 19.9713 12.6271 19.9694C14.8505 19.9674 17.0739 19.9694 19.2973 19.9694C19.4935 19.9694 19.6897 19.9694 19.9705 19.9694C19.9705 19.7386 19.9705 19.5482 19.9705 19.3559C19.9705 17.1155 19.9686 14.8751 19.9705 12.6347C19.9724 11.502 20.334 11.1347 21.4496 11.1347C24.1538 11.1328 26.86 11.1328 29.5643 11.1347C30.6587 11.1347 31.0337 11.504 31.0356 12.5924C31.0395 14.8328 31.0376 17.0732 31.0376 19.3136C31.0376 19.5097 31.0376 19.704 31.0376 19.9694C31.2818 19.9694 31.4742 19.9694 31.6684 19.9694C33.8918 19.9694 36.1153 19.9674 38.3387 19.9694C39.4658 19.9694 39.8716 20.3751 39.8716 21.4963C39.8735 24.1521 39.8716 26.8059 39.8716 29.4617C39.8716 30.6982 39.5388 31.0367 38.3175 31.0367C36.1114 31.0386 33.9034 31.0367 31.6973 31.0367C31.5011 31.0367 31.3068 31.0367 31.0395 31.0367C31.0395 31.279 31.0395 31.4713 31.0395 31.6636C31.0395 33.8867 31.0414 36.1117 31.0395 38.3347C31.0395 39.529 30.6952 39.8694 29.495 39.8694C26.8235 39.8694 24.1519 39.8713 21.4804 39.8694C20.3244 39.8694 19.9744 39.5136 19.9724 38.3463C19.9705 36.1386 19.9724 33.9328 19.9724 31.7251C19.9705 31.529 19.9705 31.3309 19.9705 31.0367ZM22.1958 13.3694C22.1958 13.5867 22.1958 13.7655 22.1958 13.9444C22.1958 16.1847 22.1958 18.4251 22.1958 20.6674C22.1958 21.8021 21.8054 22.1944 20.6745 22.1963C18.4164 22.1982 16.1603 22.1963 13.9023 22.1963C13.7273 22.1963 13.5542 22.1963 13.3772 22.1963C13.3772 24.4386 13.3772 26.604 13.3772 28.8136C13.5849 28.8136 13.7657 28.8136 13.9446 28.8136C16.1853 28.8136 18.426 28.8117 20.6668 28.8136C21.8016 28.8136 22.1939 29.204 22.1958 30.3347C22.1978 32.5924 22.1958 34.8501 22.1958 37.1078C22.1958 37.2828 22.1958 37.4559 22.1958 37.6328C24.4385 37.6328 26.6042 37.6328 28.8141 37.6328C28.8141 37.4251 28.8141 37.2444 28.8141 37.0655C28.8141 34.8251 28.8122 32.5847 28.8141 30.3424C28.8141 29.2078 29.2046 28.8155 30.3355 28.8136C32.609 28.8117 34.8843 28.8136 37.1577 28.8136C37.3347 28.8136 37.5116 28.8136 37.7097 28.8136C37.7097 26.5847 37.7097 24.4194 37.7097 22.1963C37.4885 22.1963 37.2943 22.1963 37.0981 22.1963C34.8401 22.1963 32.5839 22.1982 30.3259 22.1944C29.2854 22.1924 28.8872 21.7886 28.8872 20.7463C28.8853 18.4732 28.8872 16.1982 28.8872 13.9251C28.8872 13.7482 28.8872 13.5713 28.8872 13.3713C26.6465 13.3694 24.4616 13.3694 22.1958 13.3694Z" fill="black"/>
</g>
<defs>
<clipPath id="clip0_72_2501">
<rect width="51" height="51" fill="white"/>
</clipPath>
</defs>
</svg>
