<svg width="48" height="47" viewBox="0 0 48 47" fill="none" xmlns="http://www.w3.org/2000/svg">
<path d="M19.7819 0.195833C19.5469 0.430833 19.5763 0.29375 19.498 1.61563L19.4392 2.69271L18.8517 2.81021C18.5286 2.88854 17.8824 3.055 17.4026 3.20188C16.9326 3.33896 16.5311 3.43688 16.5115 3.41729C16.5017 3.39771 16.2961 3.04521 16.0611 2.64375C15.4834 1.63521 15.3169 1.46875 14.8959 1.46875C14.6119 1.46875 13.9461 1.81146 11.8017 3.04521C10.2938 3.91667 8.96214 4.71958 8.84464 4.82729C8.48235 5.15042 8.55089 5.58125 9.10902 6.53104C9.38319 6.99125 9.5986 7.37313 9.5986 7.39271C9.5986 7.44167 7.44444 9.59583 7.39548 9.59583C7.37589 9.59583 6.99402 9.37063 6.53381 9.10625C5.58402 8.54813 5.15319 8.47958 4.83006 8.83208C4.72235 8.95938 3.91944 10.291 3.04798 11.799C1.29527 14.8344 1.22673 15.0498 1.74569 15.4904C1.90235 15.6079 2.34298 15.8919 2.72485 16.1073C3.11652 16.3227 3.42985 16.5479 3.42985 16.6067C3.42985 16.6654 3.36131 16.9102 3.28298 17.1452C3.14589 17.5173 2.9011 18.4475 2.70527 19.3092L2.64652 19.5833H1.52048C-0.134314 19.5833 0.00276929 19.221 0.00276929 23.5C0.00276929 27.779 -0.134314 27.4167 1.52048 27.4167H2.64652L2.70527 27.681C2.9011 28.5525 3.14589 29.4827 3.28298 29.8548C3.36131 30.0898 3.42985 30.3346 3.42985 30.3933C3.42985 30.4521 3.11652 30.6773 2.72485 30.8927C2.34298 31.1081 1.90235 31.3921 1.74569 31.5096C1.22673 31.9502 1.29527 32.1656 3.04798 35.201C3.91944 36.709 4.72235 38.0406 4.83006 38.1679C5.15319 38.5204 5.58402 38.4519 6.53381 37.8938C6.99402 37.6196 7.37589 37.4042 7.39548 37.4042C7.44444 37.4042 9.5986 39.5583 9.5986 39.6073C9.5986 39.6269 9.38319 40.0088 9.10902 40.469C8.55089 41.4188 8.48235 41.8496 8.84464 42.1727C8.96214 42.2804 10.2938 43.0833 11.8017 43.9548C13.9461 45.1885 14.6119 45.5313 14.8959 45.5313C15.3169 45.5313 15.4834 45.3648 16.0611 44.3563C16.2961 43.9548 16.4919 43.6023 16.5115 43.5827C16.5311 43.5631 17.0207 43.6806 17.5984 43.8471C18.1761 44.0135 18.8321 44.18 19.0476 44.229L19.4392 44.3171L19.498 45.3844C19.5665 46.5496 19.6155 46.765 19.8896 46.9021C19.9876 46.9608 20.9276 47 21.9753 47C23.7671 47 23.9042 46.9902 24.0903 46.8042C24.2763 46.6181 24.2861 46.481 24.2861 42.3196C24.2861 38.9904 24.2567 37.9917 24.1588 37.8546C24.0119 37.649 23.4342 37.5119 22.7194 37.5021C21.1821 37.4923 19.1553 36.9538 17.3634 36.0823C13.5349 34.2023 10.8911 30.9123 9.81402 26.6333C9.56923 25.664 9.54964 25.4681 9.55944 23.451C9.55944 21.3654 9.56923 21.2577 9.86298 20.1513C11.0674 15.6373 14.1321 12.1417 18.4013 10.4281C19.4882 9.99729 21.0842 9.61542 22.083 9.54688C23.6105 9.43917 23.9042 9.39021 24.1001 9.19438C24.2763 9.01813 24.2861 8.8125 24.2861 4.7C24.2861 0.518958 24.2763 0.381875 24.0903 0.195833C23.9042 0.00979179 23.7671 1.19209e-07 21.9361 1.19209e-07C20.1051 1.19209e-07 19.968 0.00979179 19.7819 0.195833ZM22.7194 4.7V7.83333H22.3376C21.6815 7.83333 19.7526 8.20542 18.744 8.52854C13.3684 10.2421 9.43214 14.57 8.12006 20.2198C7.80673 21.6004 7.74798 24.5379 8.01235 26.1046C9.14819 32.7238 14.2594 37.8546 20.8296 38.9708C21.4465 39.0785 22.1319 39.1667 22.3376 39.1667H22.7194V42.3V45.4333H21.9361H21.1528V44.3269C21.1528 43.3477 21.1332 43.191 20.9667 43.0442C20.859 42.9463 20.2911 42.77 19.6253 42.6231C18.9986 42.4958 18.0194 42.2315 17.4515 42.0454C16.3646 41.6929 15.9044 41.6342 15.6499 41.83C15.5617 41.8985 15.2876 42.3098 15.033 42.7406C14.7784 43.1715 14.563 43.5338 14.5532 43.5533C14.5042 43.6023 10.6267 41.311 10.6463 41.2425C10.6561 41.2033 10.8617 40.8215 11.1065 40.3906C11.3513 39.9598 11.5569 39.4898 11.5569 39.3429C11.5569 38.961 8.04173 35.4458 7.65985 35.4458C7.51298 35.4458 7.04298 35.6515 6.61214 35.8963C6.18131 36.141 5.79944 36.3467 5.76027 36.3565C5.69173 36.376 3.40048 32.4985 3.44944 32.4496C3.46902 32.4398 3.83131 32.2244 4.26214 31.9698C4.69298 31.7152 5.10423 31.441 5.17277 31.3529C5.3686 31.0983 5.30985 30.6381 4.95735 29.5513C4.77131 28.9833 4.50694 28.0042 4.37964 27.3775C4.23277 26.7117 4.05652 26.1438 3.9586 26.036C3.81173 25.8696 3.65506 25.85 2.67589 25.85H1.56944V23.5V21.15H2.67589C3.65506 21.15 3.81173 21.1304 3.9586 20.964C4.05652 20.8563 4.23277 20.2883 4.37964 19.6225C4.50694 18.9958 4.77131 18.0167 4.95735 17.4488C5.30985 16.3619 5.3686 15.9017 5.16298 15.6471C5.10423 15.559 4.69298 15.2848 4.26214 15.0302C3.83131 14.7756 3.46902 14.5602 3.44944 14.5504C3.40048 14.5015 5.69173 10.624 5.76027 10.6435C5.79944 10.6533 6.18131 10.859 6.61214 11.1038C7.04298 11.3485 7.51298 11.5542 7.65985 11.5542C8.04173 11.5542 11.5569 8.03896 11.5569 7.65708C11.5569 7.51021 11.3513 7.04021 11.1065 6.60938C10.8617 6.17854 10.6561 5.79667 10.6463 5.7575C10.6267 5.68896 14.5042 3.39771 14.5532 3.44667C14.563 3.46625 14.7784 3.82854 15.033 4.25938C15.2876 4.69021 15.5617 5.10146 15.6499 5.16021C15.9044 5.36583 16.3646 5.30708 17.4515 4.95458C18.0194 4.76854 18.9986 4.50417 19.6253 4.37688C20.2911 4.23 20.859 4.05375 20.9667 3.95583C21.1332 3.80896 21.1528 3.65229 21.1528 2.67313V1.56667H21.9361H22.7194V4.7Z" fill="#151515"/>
<path d="M35.008 1.75285C34.5869 1.9389 33.9407 2.58515 33.833 2.92785C33.7742 3.12369 33.7057 3.13348 32.4034 3.13348C31.6494 3.13348 30.9542 3.17265 30.8661 3.2216C30.778 3.27056 30.1905 4.32806 29.5736 5.5716L28.4476 7.83348H27.1551H25.8528V8.61681V9.40015H27.5761C28.5161 9.40015 29.368 9.36098 29.4561 9.31202C29.5442 9.26306 30.1317 8.20556 30.7486 6.96202L31.8747 4.70015H32.8244C33.7057 4.70015 33.7742 4.71973 33.833 4.90577C33.9407 5.24848 34.5869 5.89473 35.008 6.08077C35.4976 6.30598 36.4963 6.32556 36.9957 6.11015C37.8672 5.74785 38.3861 4.93515 38.3861 3.91681C38.3861 2.89848 37.8672 2.08577 36.9957 1.72348C36.4963 1.50806 35.4976 1.52765 35.008 1.75285ZM36.5257 3.42723C36.6334 3.53494 36.7215 3.75035 36.7215 3.91681C36.7215 4.08327 36.6334 4.29869 36.5257 4.4064C36.418 4.5141 36.2026 4.60223 36.0361 4.60223C35.8697 4.60223 35.6542 4.5141 35.5465 4.4064C35.4388 4.29869 35.3507 4.08327 35.3507 3.91681C35.3507 3.75035 35.4388 3.53494 35.5465 3.42723C35.6542 3.31952 35.8697 3.2314 36.0361 3.2314C36.2026 3.2314 36.418 3.31952 36.5257 3.42723Z" fill="#151515"/>
<path d="M42.1462 8.7536C41.7251 8.93965 41.1964 9.41944 40.9809 9.83069L40.7851 10.1832H39.0226C37.7497 10.1832 37.2014 10.2224 37.0937 10.3007C37.0055 10.3692 36.6237 10.898 36.2418 11.4757L35.5466 12.5332H34.6164H33.6862V13.3165V14.0999H35.0374C35.9774 14.0999 36.4376 14.0607 36.5453 13.9726C36.6334 13.9138 37.0153 13.3851 37.3972 12.7976L38.0924 11.7499L39.4437 11.7596H40.7851L41.0789 12.2199C41.5391 12.9346 42.0776 13.2578 42.8903 13.2969C43.7128 13.3459 44.1632 13.2088 44.6822 12.7388C45.2207 12.259 45.4362 11.7499 45.4362 10.9665C45.4362 9.94819 44.9172 9.13548 44.0457 8.77319C43.5953 8.58715 42.5574 8.57735 42.1462 8.7536ZM43.5757 10.4769C43.6834 10.5846 43.7716 10.8001 43.7716 10.9665C43.7716 11.133 43.6834 11.3484 43.5757 11.4561C43.468 11.5638 43.2526 11.6519 43.0862 11.6519C42.9197 11.6519 42.7043 11.5638 42.5966 11.4561C42.4889 11.3484 42.4007 11.133 42.4007 10.9665C42.4007 10.8001 42.4889 10.5846 42.5966 10.4769C42.7043 10.3692 42.9197 10.2811 43.0862 10.2811C43.2526 10.2811 43.468 10.3692 43.5757 10.4769Z" fill="#151515"/>
<path d="M21.2115 11.1232C19.6448 11.4072 17.8725 12.1317 16.4038 13.1011C15.5225 13.6788 13.6817 15.5197 13.0942 16.4107C11.6353 18.6334 10.9694 20.8463 10.9694 23.4999C10.9694 26.1632 11.6353 28.3663 13.104 30.5988C13.6915 31.4801 15.5225 33.3111 16.4038 33.8986C18.6363 35.3674 20.8394 36.0332 23.5028 36.0332C26.1661 36.0332 28.3692 35.3674 30.6017 33.8986C31.483 33.3111 33.314 31.4801 33.9015 30.5988C35.3703 28.3663 36.0361 26.1632 36.0361 23.4999C36.0361 20.8463 35.38 18.6432 33.9015 16.4009C33.3238 15.5197 31.4928 13.6886 30.5723 13.0913C29.0644 12.0828 27.3803 11.4072 25.6863 11.1134C24.6288 10.9274 22.2592 10.9372 21.2115 11.1232ZM24.6875 12.6703C26.1367 12.778 28.0363 13.4634 29.3778 14.3447L30.1121 14.8342L28.5161 14.8832C27.1257 14.9224 26.9005 14.9517 26.783 15.1084C26.6263 15.3336 25.8528 18.3984 25.8528 18.8292C25.8528 19.0936 26.0878 19.4657 27.1257 20.8561C27.8307 21.7961 28.4573 22.599 28.5259 22.6382C28.7511 22.7753 29.3386 22.7165 30.0436 22.4815L30.7486 22.2367L30.8367 22.599C30.8857 22.7949 30.9934 23.2159 31.0815 23.539L31.2284 24.107L30.494 25.2036C29.4365 26.7899 29.4267 26.7115 31.1109 28.4055L32.4425 29.7567L31.8746 30.4617C30.9053 31.6367 29.4267 32.7726 28.0559 33.3895C27.3117 33.7224 26.078 34.1238 25.4807 34.2217L25.0596 34.2903L25.089 33.5265L25.1184 32.7726L26.5284 32.4103C27.488 32.1655 27.9775 31.9892 28.0657 31.8717C28.1734 31.7347 28.2028 31.2842 28.2028 30.119V28.5524L26.8515 27.2011C25.04 25.3897 25.2848 25.3799 22.925 27.2795L21.143 28.6992L19.7623 27.6711C18.5971 26.7997 18.323 26.6332 18.0194 26.6332C17.8334 26.6332 16.7563 26.9367 15.64 27.3088L13.6132 27.9942L13.4761 27.7299C13.29 27.3676 12.869 25.9967 12.7809 25.4778L12.7123 25.0665H14.7784C16.678 25.0665 16.864 25.047 17.0305 24.8805C17.1284 24.7826 17.3634 24.2538 17.5396 23.7055L17.8628 22.7165H19.2923C20.2911 22.7165 20.7709 22.6774 20.8786 22.5892C20.9667 22.5305 21.5934 21.5415 22.269 20.4155C23.5125 18.3397 23.6496 17.9872 23.4146 17.5465C23.3657 17.4584 22.6215 17.0276 21.7598 16.6065L20.203 15.833L19.6448 14.707C19.3413 14.0901 19.0965 13.5711 19.1161 13.5515C19.2336 13.4438 20.1736 13.1109 20.8982 12.9249C21.7598 12.7095 23.1894 12.543 23.7475 12.6017C23.914 12.6115 24.335 12.6409 24.6875 12.6703ZM18.2936 15.7253L18.9496 17.057L20.2421 17.713L21.5248 18.3592L20.6925 19.7497L19.8505 21.1499H18.3523C17.0011 21.1499 16.8248 21.1695 16.6584 21.3359C16.5605 21.4338 16.3255 21.9626 16.1492 22.5109L15.8261 23.4999H14.2203H12.6046L12.6536 22.5892C12.8103 19.8084 14.3671 16.8807 16.6682 15.0399C17.1088 14.6874 17.5103 14.3936 17.5494 14.3936C17.5984 14.3936 17.9215 14.9909 18.2936 15.7253ZM32.3153 17.1059C32.9909 18.0165 33.7253 19.544 34.0484 20.7092C34.303 21.6199 34.3225 21.8059 34.3128 23.4999C34.3128 25.4582 34.2246 25.9478 33.6273 27.4949L33.3532 28.1999L32.5013 27.3578L31.6494 26.5059L32.2761 25.5659C32.7265 24.8903 32.9028 24.5378 32.9028 24.3028C32.9028 23.7642 32.0998 20.7386 31.904 20.5428C31.6494 20.2882 31.1207 20.3176 30.1317 20.6505L29.2896 20.9345L28.4182 19.7692L27.5369 18.5942L27.7817 17.6445C27.909 17.1255 28.0363 16.6359 28.0559 16.5674C28.0853 16.4792 28.5553 16.4499 29.9653 16.4499H31.8257L32.3153 17.1059ZM25.8332 28.6209L26.6459 29.4336L26.6165 30.0603L26.5871 30.6772L25.1771 31.0395C24.2175 31.2842 23.728 31.4605 23.6398 31.578C23.5419 31.7151 23.5028 32.1263 23.5028 33.0957V34.4176L22.6019 34.3588C20.8394 34.2217 19.028 33.5853 17.4711 32.5474C16.5703 31.9501 15.2582 30.7065 14.7196 29.9526L14.4161 29.512L16.1492 28.9342L17.8823 28.3663L19.3413 29.4532C20.5848 30.3932 20.8492 30.5499 21.1528 30.5499C21.4759 30.5499 21.7207 30.3932 23.2188 29.179C24.1588 28.4349 24.9421 27.818 24.9715 27.8082C25.0009 27.8082 25.3925 28.1705 25.8332 28.6209Z" fill="#151515"/>
<path d="M43.7128 21.2872C43.2917 21.4732 42.763 21.953 42.5476 22.3642L42.3517 22.7167H39.9822H37.6028V23.5001V24.2834L39.9822 24.2932H42.3517L42.6455 24.7534C43.1057 25.4682 43.6442 25.7913 44.457 25.8305C45.2795 25.8795 45.7299 25.7424 46.2488 25.2724C46.7874 24.7926 47.0028 24.2834 47.0028 23.5001C47.0028 22.4817 46.4838 21.669 45.6124 21.3067C45.162 21.1207 44.124 21.1109 43.7128 21.2872ZM45.1424 23.0105C45.2501 23.1182 45.3382 23.3336 45.3382 23.5001C45.3382 23.6665 45.2501 23.882 45.1424 23.9897C45.0347 24.0974 44.8192 24.1855 44.6528 24.1855C44.4863 24.1855 44.2709 24.0974 44.1632 23.9897C44.0555 23.882 43.9674 23.6665 43.9674 23.5001C43.9674 23.3336 44.0555 23.1182 44.1632 23.0105C44.2709 22.9028 44.4863 22.8147 44.6528 22.8147C44.8192 22.8147 45.0347 22.9028 45.1424 23.0105Z" fill="#151515"/>
<path d="M34.4694 32.9001V33.6736L35.3605 33.703L36.2515 33.7324L36.9761 35.5438C37.3775 36.5426 37.779 37.414 37.8671 37.4728C37.9748 37.5511 38.3861 37.6001 39.0128 37.6099H40.0017L40.2955 38.0701C40.7557 38.7849 41.2942 39.108 42.1069 39.1471C42.9294 39.1961 43.3798 39.059 43.8988 38.589C44.4373 38.1092 44.6528 37.6001 44.6528 36.8167C44.6528 36.0334 44.4373 35.5242 43.8988 35.0444C43.3798 34.5744 42.9294 34.4374 42.1069 34.4863C41.2942 34.5255 40.7557 34.8486 40.2955 35.5732L40.0017 36.0334L39.473 36.004L38.954 35.9844L38.2294 34.173C37.828 33.1742 37.4265 32.3028 37.3384 32.2342C37.2209 32.1559 36.7509 32.1167 35.8207 32.1167H34.4694V32.9001ZM42.7923 36.3271C42.9 36.4349 42.9882 36.6503 42.9882 36.8167C42.9882 36.9832 42.9 37.1986 42.7923 37.3063C42.3713 37.7274 41.6173 37.414 41.6173 36.8167C41.6173 36.4446 41.9307 36.1313 42.3028 36.1313C42.4692 36.1313 42.6846 36.2194 42.7923 36.3271Z" fill="#151515"/>
<path d="M25.8528 38.3832V39.1665H27.4978H29.133L29.8576 41.7319C30.2982 43.279 30.6605 44.3659 30.7682 44.4736C30.9249 44.6303 31.1305 44.6499 32.3447 44.6597H33.7351L34.0288 45.1199C34.489 45.8347 35.0276 46.1578 35.8403 46.1969C36.6628 46.2459 37.1132 46.1088 37.6322 45.6388C38.1707 45.159 38.3861 44.6499 38.3861 43.8665C38.3861 43.0832 38.1707 42.574 37.6322 42.0942C37.1132 41.6242 36.6628 41.4872 35.8403 41.5361C35.0276 41.5753 34.489 41.8984 34.0288 42.6132L33.7351 43.0734L32.8538 43.0538L31.9726 43.0342L31.2284 40.4492C30.7192 38.6965 30.4255 37.8153 30.2982 37.7272C30.1709 37.6292 29.6128 37.5999 27.9874 37.5999H25.8528V38.3832ZM36.5257 43.3769C36.9467 43.798 36.6334 44.5519 36.0361 44.5519C35.664 44.5519 35.3507 44.2386 35.3507 43.8665C35.3507 43.4944 35.664 43.1811 36.0361 43.1811C36.2026 43.1811 36.418 43.2692 36.5257 43.3769Z" fill="#151515"/>
</svg>
