<svg width="47" height="47" viewBox="0 0 47 47" fill="none" xmlns="http://www.w3.org/2000/svg">
<path d="M3.01226 0.153793C1.71736 0.567061 0.642861 1.64156 0.183675 2.96401C0.0275512 3.43238 0 3.73545 0 5.37015C0 7.11506 0.00918373 7.24363 0.183675 7.41812C0.422452 7.6569 0.945924 7.66608 1.1847 7.42731C1.33164 7.28037 1.35919 7.05996 1.40511 5.52628C1.44185 4.22219 1.48776 3.68035 1.60715 3.35892C1.82756 2.73442 2.49797 2.02727 3.16839 1.71503L3.71941 1.4487H12.2419H20.7552V6.17832C20.7552 10.7886 20.7644 10.9171 20.9573 11.4314C21.2052 12.1018 21.894 12.8457 22.5828 13.1763L23.0971 13.4335L27.992 13.461L32.8869 13.4886L32.8686 18.1539C32.8594 20.7162 32.8869 22.8743 32.9237 22.9386C32.9696 23.0121 31.9777 24.0682 29.893 26.1529C27.0277 29.0183 26.7706 29.257 26.5685 29.1744C26.2471 29.055 25.7236 29.0734 25.191 29.2295C24.0981 29.5509 23.3267 30.5887 23.3267 31.7275C23.3267 32.0489 23.3818 32.4438 23.4552 32.6091C23.5287 32.7744 25.2553 34.5652 27.4226 36.7234C31.6012 40.8836 31.5186 40.8102 32.4737 40.7367L32.9788 40.6908L32.9237 41.1132C32.7675 42.2336 32.1431 43.1796 31.2706 43.602C30.7379 43.8592 29.7645 44.0061 29.0757 43.9235C28.5522 43.8592 28.4971 43.8316 28.24 43.4826C28.0655 43.2439 27.7624 42.9959 27.4318 42.8306L26.9083 42.5643V42.0041C26.9083 41.2877 26.6236 40.654 26.0818 40.1765C25.3287 39.4877 25.5951 39.5153 20.1583 39.5153H15.2909L14.7674 39.7724C13.895 40.204 13.4266 40.9112 13.344 41.9673L13.2889 42.601L12.8848 42.7939C12.6644 42.8949 12.3246 43.1612 12.1317 43.3816L11.7735 43.7857H7.82454C4.05002 43.7857 3.8388 43.7765 3.36125 43.5928C2.6541 43.3357 2.02042 42.7296 1.68981 42.0224L1.42348 41.4438L1.39593 25.5835L1.37756 9.72324L1.1296 9.53957C0.826536 9.2916 0.551024 9.2916 0.238777 9.53957L0 9.72324V25.6937C0 41.104 0.00918373 41.6734 0.174491 42.2153C0.606126 43.6112 1.70817 44.6581 3.20512 45.1082C3.63676 45.2367 4.2888 45.2551 7.59494 45.2551H11.4797V45.7143C11.4797 45.9714 11.5439 46.302 11.6174 46.449C11.8746 46.9541 12.1042 47 14.2256 47H16.1542L16.3379 46.7612C16.6777 46.3296 16.5399 45.8153 16.0348 45.6224C15.897 45.5765 15.144 45.5306 14.3634 45.5306H12.9491V45.1816C12.9491 44.9979 13.0317 44.7041 13.1327 44.5388C13.4909 43.951 13.3164 43.9694 20.1767 43.9694C25.9165 43.9694 26.4308 43.9786 26.7247 44.1347C27.092 44.3092 27.3675 44.7867 27.3675 45.2275V45.5306H23.1981C20.5256 45.5306 18.9277 45.5673 18.7715 45.6224C18.2664 45.8153 18.1287 46.3296 18.4685 46.7612L18.6522 47H23.3634C28.0012 47 28.0838 47 28.3226 46.8071C28.6532 46.55 28.8369 46.1643 28.8369 45.7235V45.3561H29.7828C30.8022 45.3653 31.6104 45.1724 32.2716 44.7684C32.9145 44.3735 33.6125 43.5928 33.9614 42.8673C34.292 42.1969 34.3012 42.151 34.3288 40.9387C34.3563 40.0847 34.4023 39.653 34.4849 39.5612C34.8247 39.1755 35.0267 38.2387 34.889 37.651L34.7972 37.2285L35.4216 36.6132L36.0461 35.9887L38.388 38.9734C39.6737 40.6173 40.9686 42.1877 41.2533 42.4632C42.0064 43.1888 42.6309 43.4459 43.4758 43.4C43.9901 43.3816 44.2656 43.3081 44.7431 43.0694C45.5237 42.6836 46.3595 41.8755 46.7085 41.1591C46.9472 40.6724 46.9748 40.5255 46.9748 39.7449C46.9748 39.001 46.938 38.7989 46.7452 38.4132C46.4238 37.752 46.0197 37.3938 42.6768 34.7489L39.6553 32.3703L40.2707 31.755L40.8768 31.1397L41.5839 31.1856C42.5299 31.2407 43.0717 31.0111 43.7146 30.3132C44.486 29.4683 44.6513 28.3662 44.137 27.4938C44.0176 27.2917 42.2452 25.455 40.2064 23.4345C36.7625 20.009 36.4778 19.7427 36.0737 19.6417C35.5227 19.5131 35.1186 19.5223 34.6961 19.6692L34.3563 19.7886L34.3288 16.3355L34.3012 12.8824L34.0257 12.3406C33.7961 11.8814 32.8961 10.9447 28.1114 6.20587C23.0603 1.20992 22.4083 0.585429 21.8665 0.3191L21.2603 0.0252211L12.398 0.0068536C4.05002 -0.0115139 3.50818 -0.00233013 3.01226 0.153793ZM29.7553 9.93447L31.8216 12.01H27.7349C23.9512 12.01 23.6206 11.9916 23.2808 11.8355C22.8491 11.6335 22.4634 11.2477 22.3256 10.8804C22.2614 10.7151 22.2246 9.20895 22.2246 6.57322V2.53238L24.9614 5.19566C26.4583 6.66506 28.6165 8.79568 29.7553 9.93447ZM39.288 24.6101C41.2717 26.5938 42.9156 28.3111 42.9431 28.4305C43.0717 28.9264 42.4013 29.7346 41.8594 29.7346C41.6023 29.7346 41.3727 29.5417 40.087 28.2652C38.7278 26.9152 38.5808 26.7958 38.2778 26.7958C37.8094 26.7958 37.5247 27.0529 37.5247 27.4754C37.5247 27.7876 37.6257 27.907 38.6635 28.954L39.8115 30.1019L36.8268 33.0866L33.842 36.0714L30.9308 33.1601L28.0104 30.2397L30.9951 27.255L33.9798 24.2703L34.8063 25.0968C35.5319 25.8131 35.6696 25.9142 35.9543 25.9142C36.3951 25.9142 36.6615 25.6386 36.6615 25.1886C36.6615 24.8764 36.5696 24.757 35.4584 23.6366C34.7972 22.9662 34.2553 22.3417 34.2553 22.259C34.2553 21.7356 34.9533 21.01 35.4492 21.01C35.6237 21.01 36.4686 21.7998 39.288 24.6101ZM29.8379 34.2714C33.888 38.3306 33.6492 38.0183 33.2359 38.6979C33.0522 38.9918 32.5747 39.2857 32.2624 39.2857C32.0696 39.2857 24.8144 32.0673 24.7869 31.8468C24.7502 31.5346 24.8144 31.3785 25.09 31.057C25.393 30.7081 25.6318 30.5795 25.944 30.5703C26.0726 30.5611 27.3308 31.755 29.8379 34.2714ZM41.9329 36.0805C45.4227 38.8448 45.5513 38.9734 45.5513 39.7632C45.5513 40.553 44.6697 41.6092 43.7972 41.8663C43.3288 42.0132 42.8697 41.903 42.4288 41.554C42.2268 41.3887 40.9503 39.8367 39.5819 38.0918L37.1023 34.9234L37.8094 34.2071C38.2043 33.8213 38.5533 33.4999 38.5992 33.4999C38.6451 33.4999 40.1421 34.6571 41.9329 36.0805ZM24.7869 41.104C25.191 41.3061 25.4114 41.6183 25.4849 42.1051L25.5491 42.5H20.1675H14.7858V42.2153C14.7858 41.6551 15.1623 41.1316 15.6583 41.003C15.7593 40.9847 17.7797 40.9571 20.1583 40.9479C24.0981 40.9387 24.5022 40.9571 24.7869 41.104Z" fill="#151515"/>
<path d="M6.44696 12.313C6.17145 12.6069 6.18063 13.0569 6.47451 13.3416L6.69492 13.5712H12.2419C18.4593 13.5712 18.1287 13.6079 18.2389 12.91C18.2848 12.6345 18.2572 12.5334 18.0644 12.3406L17.8256 12.1018H12.2327H6.63982L6.44696 12.313Z" fill="#151515"/>
<path d="M6.26331 17.8234C5.96943 18.1356 5.9878 18.6407 6.30004 18.8887C6.53882 19.0815 6.62147 19.0815 11.8195 19.0815H17.0909L17.3113 18.8519C17.6144 18.5581 17.6144 18.1356 17.3113 17.8417L17.0909 17.6121H11.7735H6.45617L6.26331 17.8234Z" fill="#151515"/>
<path d="M19.5154 17.8417C19.3685 17.9795 19.2858 18.1724 19.2858 18.3468C19.2858 18.5213 19.3685 18.7142 19.5154 18.8519L19.7358 19.0815H23.7675C27.7073 19.0815 27.8083 19.0815 28.0471 18.8887C28.3685 18.6407 28.3777 18.0989 28.0747 17.8142C27.8634 17.6121 27.8451 17.6121 23.795 17.6121H19.7358L19.5154 17.8417Z" fill="#151515"/>
<path d="M6.26331 23.3336C5.96943 23.6459 5.9878 24.151 6.30004 24.3989C6.548 24.5918 6.58474 24.5918 14.795 24.5918C20.7277 24.5918 23.1063 24.5642 23.2716 24.4908C23.5563 24.3622 23.7216 23.9673 23.6389 23.6367C23.5104 23.0948 23.9512 23.1224 14.8317 23.1224H6.45617L6.26331 23.3336Z" fill="#151515"/>
<path d="M6.44696 28.8438C6.17145 29.1377 6.18063 29.5877 6.47451 29.8724L6.69492 30.102H12.7011C19.4328 30.102 19.047 30.1387 19.1572 29.4407C19.2032 29.1652 19.1756 29.0642 18.9828 28.8713L18.744 28.6326H12.6919H6.63982L6.44696 28.8438Z" fill="#151515"/>
<path d="M6.26331 34.3539C5.96943 34.6661 5.9878 35.1712 6.30004 35.4192C6.53882 35.6121 6.60311 35.6121 13.4174 35.6121C18.3307 35.6121 20.3512 35.5845 20.5165 35.511C20.8012 35.3825 20.9665 34.9876 20.8838 34.657C20.7552 34.1243 21.0675 34.1427 13.4542 34.1427H6.45617L6.26331 34.3539Z" fill="#151515"/>
</svg>
