<svg width="45" height="47" viewBox="0 0 45 47" fill="none" xmlns="http://www.w3.org/2000/svg">
<g clip-path="url(#clip0_72_2593)">
<path d="M22.8679 0C24.3322 0.43045 25.488 1.41276 26.7404 2.21112C32.3907 5.8166 38.0177 9.45887 43.663 13.0693C44.5727 13.6518 45.0404 14.4182 44.9976 15.5011C44.9792 15.9745 45.0098 16.4503 44.9792 16.9237C44.9021 18.1243 43.9838 18.9913 42.784 19.0073C41.9918 19.0183 41.1997 19.0097 40.3647 19.0097C40.3978 19.2268 40.4296 19.4009 40.4504 19.5763C40.5765 20.6592 40.0256 21.7065 39.0363 22.2461C38.8417 22.3515 38.6923 22.43 38.6923 22.7096C38.7045 27.2373 38.7021 31.7662 38.7045 36.2939C38.7045 36.3234 38.7156 36.354 38.7364 36.4619C39.002 36.4619 39.2849 36.457 39.5665 36.4632C40.7443 36.4852 41.545 37.2861 41.5584 38.4634C41.567 39.1979 41.5621 39.9313 41.5658 40.6659C41.5658 40.6953 41.5805 40.7248 41.6062 40.8216C42.009 40.8216 42.4314 40.8192 42.8538 40.8216C44.2544 40.8314 44.9878 41.5709 44.9939 42.9837C44.9976 43.657 45.0061 44.3302 44.9914 45.0035C44.9645 46.2262 44.1797 47 42.9603 47C29.3225 47.0025 15.6836 47.0025 2.04584 47C0.825194 47 0.0355054 46.2249 0.0110189 45.0072C-0.00367297 44.2726 -0.00367297 43.538 0.0110189 42.8046C0.0355054 41.5991 0.79581 40.8511 2.00544 40.8229C2.32254 40.8155 2.63842 40.8216 3.00694 40.8216C3.00694 40.1116 3.00694 39.4579 3.00694 38.8031C3.00694 37.1659 3.7097 36.4644 5.35274 36.4607C5.50456 36.4607 5.65515 36.4607 5.86206 36.4607C5.87063 36.2731 5.88532 36.1137 5.88532 35.953C5.88655 31.5933 5.8841 27.2336 5.89144 22.8739C5.89144 22.571 5.83145 22.3908 5.53149 22.235C4.48347 21.6893 3.96681 20.5978 4.14923 19.434C4.1676 19.3138 4.18474 19.1937 4.2129 19.0085C3.58849 19.0085 2.98612 19.0097 2.38376 19.0085C0.941505 19.0036 0.0342811 18.1157 0.00734594 16.6784C-0.00122432 16.2038 0.00367297 15.7304 0.00857026 15.2558C0.0171405 14.3594 0.406475 13.6812 1.15699 13.1907C3.52238 11.6455 5.88042 10.0929 8.24214 8.54278C12.2383 5.92206 16.2296 3.29399 20.2368 0.690437C20.7009 0.38998 21.253 0.226875 21.7648 0C22.1345 0 22.5006 0 22.8679 0ZM39.7024 38.2966C39.4759 38.2966 39.2812 38.2966 39.0877 38.2966C27.8925 38.2966 16.6985 38.2966 5.50333 38.2966C5.39682 38.2966 5.28908 38.3052 5.18256 38.2953C4.92178 38.2696 4.83118 38.3873 4.83608 38.6412C4.8471 39.1918 4.86669 39.7449 4.82996 40.2931C4.8018 40.7211 4.94871 40.8302 5.36743 40.829C9.52156 40.8143 13.6757 40.8192 17.8298 40.8204C18.0282 40.8204 18.2289 40.8167 18.4236 40.8449C18.8497 40.9062 19.1643 41.268 19.1864 41.6948C19.206 42.0946 18.9403 42.4932 18.5436 42.5937C18.3257 42.6489 18.0906 42.6538 17.8629 42.6538C12.7317 42.6575 7.59937 42.6563 2.46824 42.6563C2.27602 42.6563 2.08257 42.6563 1.87444 42.6563C1.87444 43.5221 1.87444 44.3216 1.87444 45.1335C15.6444 45.1335 29.3801 45.1335 43.1231 45.1335C43.1231 44.3008 43.1231 43.5 43.1231 42.6563C42.8905 42.6563 42.6946 42.6563 42.4999 42.6563C37.277 42.6563 32.054 42.6563 26.8298 42.655C26.6327 42.655 26.4307 42.6563 26.2372 42.6182C25.7806 42.5287 25.499 42.1535 25.5161 41.696C25.5333 41.2423 25.8504 40.894 26.3132 40.84C26.4944 40.8192 26.6792 40.8229 26.8617 40.8216C30.9399 40.8204 35.0169 40.8204 39.0951 40.8204C39.2898 40.8204 39.4832 40.8204 39.7011 40.8204C39.7024 39.9669 39.7024 39.1759 39.7024 38.2966ZM22.4541 17.1726C29.0654 17.1726 35.6768 17.1726 42.2881 17.1726C42.4253 17.1726 42.5636 17.1689 42.7007 17.1726C43.0068 17.1788 43.1513 17.0157 43.1574 16.7238C43.1647 16.2958 43.1476 15.8666 43.166 15.4398C43.1819 15.0768 43.0301 14.8499 42.7264 14.6562C36.2645 10.5086 29.8062 6.35742 23.3515 2.19885C22.623 1.72916 21.9484 1.74142 21.2236 2.21725C15.1792 6.19309 9.14202 10.1824 3.05958 14.1006C2.11318 14.7101 1.68344 15.3429 1.82547 16.4491C1.91117 17.1125 1.89525 17.1726 2.57353 17.1726C9.20079 17.1726 15.8281 17.1726 22.4541 17.1726ZM17.2581 19.0367C16.259 19.0367 15.2747 19.0367 14.2879 19.0367C14.5376 20.5623 14.1091 21.6329 12.9717 22.2301C12.6791 22.3834 12.6056 22.5563 12.6056 22.8617C12.6142 27.2336 12.6118 31.6056 12.6118 35.9763C12.6118 36.1247 12.624 36.2719 12.6313 36.435C14.736 36.435 16.8038 36.435 18.8962 36.435C18.8962 31.754 18.8962 27.0963 18.8962 22.4361C17.3842 21.525 16.9385 20.6273 17.2581 19.0367ZM30.2947 19.0342C29.2968 19.0342 28.3259 19.0342 27.3342 19.0342C27.3502 19.1679 27.3587 19.2881 27.3771 19.4058C27.5681 20.5966 27.0526 21.6868 25.985 22.2448C25.7022 22.392 25.6422 22.5612 25.6422 22.8482C25.6496 27.2238 25.6471 31.5995 25.6471 35.9751C25.6471 36.1235 25.6471 36.2719 25.6471 36.4301C27.775 36.4301 29.8441 36.4301 31.9328 36.4301C31.9389 36.2964 31.9475 36.1909 31.9475 36.0867C31.9487 31.6497 31.9463 27.2128 31.9536 22.7758C31.9536 22.5109 31.8508 22.3969 31.6402 22.2473C31.2619 21.9787 30.8811 21.6709 30.6093 21.2993C30.122 20.6334 30.1024 19.8498 30.2947 19.0342ZM36.8656 36.4386C36.8656 36.2044 36.8656 36.0229 36.8656 35.8426C36.8656 31.2242 36.8656 26.6045 36.8656 21.9861C36.8656 21.0761 37.0064 20.9044 37.8855 20.7254C38.3372 20.6334 38.6323 20.2912 38.6286 19.8645C38.6237 19.4218 38.2956 19.0306 37.8218 19.0244C36.1579 19.0023 34.4929 19.0036 32.829 19.0232C32.3662 19.0293 32.0528 19.385 32.0258 19.8142C31.9977 20.2704 32.283 20.626 32.7555 20.7241C33.6358 20.9069 33.7815 21.0835 33.7815 21.9812C33.7815 26.6156 33.7815 31.2499 33.7815 35.8843C33.7815 36.0622 33.7815 36.2412 33.7815 36.4399C34.8271 36.4386 35.8151 36.4386 36.8656 36.4386ZM20.7547 36.4288C21.8064 36.4288 22.7908 36.4288 23.8155 36.4288C23.8155 36.1566 23.8155 35.915 23.8155 35.6734C23.8155 31.1028 23.8155 26.5309 23.8155 21.9603C23.8155 21.1436 24.0482 20.8407 24.7362 20.7376C25.2762 20.6579 25.6153 20.3023 25.5933 19.8399C25.57 19.3555 25.188 19.022 24.6211 19.0122C24.0714 19.0023 23.5217 19.0097 22.9732 19.0097C21.9509 19.0097 20.9274 19.0011 19.905 19.0146C19.3774 19.0207 19.0321 19.3359 18.9942 19.7946C18.9562 20.2532 19.2341 20.6175 19.7006 20.7217C20.6176 20.9253 20.7547 21.097 20.7547 22.0535C20.7547 26.6548 20.7547 31.2573 20.7547 35.8586C20.7547 36.0389 20.7547 36.2191 20.7547 36.4288ZM10.7777 36.4423C10.7777 36.2228 10.7777 36.0413 10.7777 35.861C10.7777 31.1984 10.7765 26.5358 10.7789 21.8732C10.7789 21.1301 11.0214 20.848 11.7376 20.734C12.253 20.6518 12.5579 20.3145 12.5432 19.8436C12.5285 19.3629 12.1747 19.0293 11.6311 19.0122C11.1732 18.9974 10.7153 19.0085 10.2574 19.0085C9.12855 19.0085 7.9985 19.0011 6.86968 19.0134C6.35179 19.0183 5.99674 19.3347 5.94531 19.7884C5.89634 20.2164 6.19997 20.615 6.65542 20.7192C7.57979 20.9302 7.71936 21.1019 7.71936 22.0462C7.71936 26.6474 7.71936 31.2487 7.71936 35.8512C7.71936 36.0425 7.71936 36.2351 7.71936 36.4423C8.76126 36.4423 9.73459 36.4423 10.7777 36.4423Z" fill="black"/>
<path d="M22.3928 40.8289C22.8923 40.8351 23.2951 41.2398 23.2927 41.7328C23.2902 42.2282 22.8789 42.6427 22.3928 42.6427C21.8823 42.6427 21.4648 42.2147 21.4758 41.7058C21.4868 41.2005 21.881 40.8228 22.3928 40.8289Z" fill="black"/>
<path d="M22.4283 15.0141C18.3819 15.0141 14.3367 15.0154 10.2903 15.0105C10.0185 15.0105 9.73204 15.0031 9.47861 14.9185C9.00602 14.7615 8.73177 14.3936 8.67055 13.8994C8.60077 13.3402 8.8493 12.9281 9.31087 12.6252C11.009 11.5129 12.7059 10.3981 14.4041 9.28462C16.434 7.95403 18.4688 6.63202 20.4914 5.29039C21.69 4.49571 22.88 4.47241 24.0885 5.24869C27.8888 7.69281 31.6878 10.1369 35.4894 12.5774C35.9644 12.8827 36.257 13.2801 36.1995 13.8626C36.1505 14.3568 35.8946 14.7407 35.4208 14.9038C35.1551 14.9957 34.8527 15.0092 34.5662 15.0092C30.521 15.0166 26.4747 15.0141 22.4283 15.0141ZM11.8868 13.1366C18.939 13.1366 25.8882 13.1366 32.9342 13.1366C32.802 13.0422 32.7554 13.0066 32.7065 12.9747C29.4987 10.912 26.2886 8.85294 23.0845 6.78531C22.5421 6.43457 22.0487 6.4591 21.5149 6.81229C19.0467 8.44457 16.5674 10.0621 14.0931 11.6858C13.383 12.1494 12.6753 12.6166 11.8868 13.1366Z" fill="black"/>
</g>
<defs>
<clipPath id="clip0_72_2593">
<rect width="45" height="47" fill="white"/>
</clipPath>
</defs>
</svg>
