<svg width="54" height="51" viewBox="0 0 54 51" fill="none" xmlns="http://www.w3.org/2000/svg">
<g clip-path="url(#clip0_72_2514)">
<path d="M52.5054 51C53.3167 51 53.7454 50.7761 54 50.2062V49.6866C53.7454 49.1355 53.3512 48.8986 52.6996 48.8986C52.6435 48.8986 52.586 48.9001 52.5284 48.9044C52.268 48.9202 51.989 48.9273 51.6538 48.9273C51.4251 48.9273 51.1978 48.9245 50.9676 48.9202C50.7432 48.9173 50.5174 48.913 50.2915 48.913H49.7665L49.7176 48.3919C49.7118 48.3374 49.7075 48.2886 49.7018 48.2455C49.6902 48.1494 49.6802 48.0589 49.6802 47.9585V41.8811C49.6802 34.7258 49.6787 27.3265 49.6701 20.0492C49.6687 19.2669 50.2297 19.0531 50.4685 18.9626C52.268 18.2751 53.3814 17.0177 53.8705 15.1187C53.9022 14.9967 53.9381 14.8747 53.9741 14.7527L54 14.6752V8.88348C53.9741 8.83468 53.9482 8.78588 53.9238 8.73851C53.8216 8.5433 53.7238 8.35957 53.6217 8.17872C53.2146 7.46103 52.8032 6.74335 52.3932 6.0271C51.4495 4.37787 50.4728 2.67265 49.545 0.974614C49.1566 0.264107 48.6977 0 47.8533 0C39.018 0.0129183 30.2014 0.0143537 22.7428 0.0143537H5.74826C5.2491 0.0143537 4.92832 0.206693 4.6737 0.657398C4.12276 1.63058 3.57037 2.60232 3.01654 3.57406C2.09878 5.18741 1.14937 6.85531 0.228729 8.50168C0.112209 8.7098 0.0374031 8.99688 0.0316505 9.24807L0.0302124 9.30118C0.00431824 10.8442 -0.0230103 12.4389 0.0302124 13.9991C0.109329 16.3029 1.23136 17.9464 3.36466 18.888C3.95157 19.1478 4.20187 19.5239 4.20187 20.1497C4.1918 27.8806 4.1918 35.7406 4.1918 43.3438V48.9144L3.1532 48.913C3.07409 48.913 2.99785 48.913 2.92161 48.9144C2.8166 48.9159 2.71302 48.9159 2.60801 48.9159L1.96644 48.9144C1.61688 48.9144 1.24143 48.9187 0.868858 48.9517C0.401344 48.9934 0.0287743 49.4254 0.0215836 49.935C0.014389 50.4201 0.359627 50.855 0.827141 50.9455C1.02853 50.9842 1.25006 50.9871 1.5205 50.9871L14.434 50.9885C26.9115 50.9885 39.812 50.99 52.5025 51.0014H52.5054V51ZM44.5188 17.6435C44.7562 17.7828 44.9878 17.9249 45.2165 18.0655C45.7473 18.3913 46.2479 18.6971 46.7701 18.9382C47.3671 19.2124 47.6116 19.5899 47.6102 20.2401C47.6015 27.9451 47.6015 35.7794 47.6015 43.3567V48.8785H43.2184V47.6355L43.2127 42.1165C43.2069 36.5975 43.2012 31.0786 43.194 25.5596C43.1925 24.5161 42.8401 24.1644 41.7986 24.1644C39.9616 24.1644 38.1247 24.1644 36.2891 24.1644H30.2791C29.6778 24.1644 29.2851 24.2634 29.0808 24.4687C28.8765 24.6739 28.7773 25.0658 28.7773 25.6672L28.7974 48.3029V48.8771H6.27044V20.286C6.27044 20.2602 6.269 20.2329 6.26756 20.2057C6.26037 20.088 6.25174 19.9258 6.30497 19.7492C6.34237 19.6229 6.49341 19.2052 6.89044 19.0889C7.76361 18.8334 8.55622 18.3497 9.31432 17.6105L9.72429 17.2115L10.1271 17.6177C11.2376 18.7401 12.5107 19.2899 14.0197 19.2956H14.047C15.5416 19.2956 16.8204 18.7444 17.9597 17.6119L18.3683 17.2057L18.7754 17.6148C19.8974 18.743 21.1762 19.2928 22.6852 19.2971H22.7039C24.1654 19.2971 25.4759 18.7373 26.5994 17.6349L27.0022 17.2402L27.4049 17.6335C28.5025 18.7043 29.9079 19.2956 31.3623 19.2956C32.7907 19.2956 34.1386 18.7315 35.2606 17.6622L35.6015 17.3364L35.9885 17.6062C37.7593 18.8464 38.9187 19.353 39.9861 19.353C41.0362 19.353 42.1712 18.865 43.9017 17.6679L44.2038 17.4584L44.5188 17.6435ZM41.0952 48.8714H30.8976V26.2672H41.0952V48.8714ZM37.6169 10.1581C38.2311 10.161 38.8468 10.161 39.461 10.1624C40.4105 10.1624 41.3915 10.1638 42.3582 10.1753C42.7538 10.1796 43.2587 10.5787 43.2616 11.0193C43.263 11.2604 43.2659 11.5002 43.2702 11.7413C43.2831 12.6298 43.2961 13.5499 43.1997 14.4599C43.0343 16.0359 41.6576 17.2244 39.9962 17.2244H39.953C38.3333 17.2029 36.9926 16.0531 36.7638 14.4886C36.6991 14.0422 36.689 13.5972 36.6804 13.1681C36.6761 12.9829 36.6732 12.7977 36.6646 12.6126L36.6373 12.0341L36.6919 12.0327C36.6934 11.7399 36.6934 11.4399 36.6862 11.1485C36.6833 11.0193 36.6747 10.6748 36.9293 10.415C37.0947 10.2456 37.3234 10.1595 37.6068 10.1595H37.6082H37.6169V10.1581ZM8.65261 10.7739C8.65261 11.127 8.65548 11.4758 8.65836 11.8231C8.66411 12.5853 8.6713 13.3747 8.64541 14.1498C8.58787 15.8393 7.1767 17.1899 5.43467 17.2244H5.36994C3.66963 17.2244 2.21386 15.8838 2.12323 14.2345C2.08008 13.4408 2.09015 12.6685 2.10022 11.8504C2.10453 11.4958 2.10885 11.137 2.10885 10.7739V10.1997H8.65261V10.7739ZM34.5687 10.692C34.573 10.7222 34.5773 10.748 34.5816 10.771C34.5931 10.8413 34.6075 10.9203 34.6075 11.015C34.6075 11.3164 34.609 11.6164 34.6118 11.9178C34.6176 12.6484 34.6219 13.4035 34.5946 14.1498C34.5327 15.8378 33.1216 17.1885 31.3824 17.2215H31.3191C29.6188 17.2215 28.1616 15.8809 28.0724 14.2317C28.0293 13.4379 28.0393 12.6657 28.0494 11.8475C28.0537 11.493 28.058 11.1341 28.058 10.771V10.1968H34.4968L34.5687 10.692ZM51.8983 10.7652C51.8983 11.1341 51.9055 11.5073 51.9127 11.869C51.9286 12.6915 51.9458 13.5427 51.8753 14.3809C51.743 15.9613 50.3764 17.1828 48.6962 17.223C48.6703 17.223 48.6445 17.2244 48.6186 17.2244C46.9974 17.2244 45.602 16.0689 45.4423 14.5919C45.346 13.6991 45.3675 12.7934 45.3906 11.9178C45.4006 11.5389 45.4107 11.1485 45.4107 10.7652V10.1911H51.8983V10.7652ZM17.3282 11.6021C17.3282 12.3843 17.3297 13.1393 17.3253 13.8943C17.3239 14.1498 17.2836 14.3953 17.2491 14.5805C16.97 16.0847 15.6811 17.1699 14.1146 17.2215C14.0801 17.223 14.0456 17.223 14.0125 17.223C12.4344 17.223 11.0218 16.0718 10.8636 14.658C10.7615 13.7522 10.7859 12.8322 10.8089 11.9422C10.819 11.5576 10.8291 11.16 10.8291 10.7696V10.1954H17.3282V11.6021ZM25.9679 10.7581C25.9679 11.1083 25.9693 11.4528 25.9708 11.7944C25.9751 12.5666 25.9779 13.2972 25.9621 14.0422C25.9276 15.6914 24.6775 17.0206 22.9902 17.2014C22.8765 17.2143 22.76 17.2201 22.6435 17.2201C21.0583 17.2201 19.7176 16.1321 19.5248 14.691C19.4025 13.7723 19.4313 12.8394 19.4586 11.9351C19.4702 11.5475 19.4831 11.1485 19.4831 10.7581V10.1839H25.9664V10.7581H25.9679ZM46.9355 2.08128C47.5167 2.08128 47.9151 2.31525 48.1913 2.81762C48.6905 3.72478 49.2141 4.64054 49.719 5.52616C49.9492 5.9295 50.1793 6.33284 50.4081 6.73617C50.4685 6.84383 50.5188 6.95004 50.572 7.062C50.5965 7.11368 50.6224 7.16822 50.6512 7.22707L51.0554 8.05241H2.93311L3.36754 7.21415C3.40207 7.14669 3.43371 7.08497 3.46392 7.02612C3.52721 6.90124 3.58332 6.79072 3.64373 6.6845C3.85663 6.30844 4.07097 5.9338 4.28675 5.56061C4.78303 4.69508 5.29658 3.79941 5.7756 2.90949C6.08488 2.33534 6.52505 2.07841 7.20259 2.07841C13.696 2.08846 20.1765 2.08989 26.2124 2.08989H35.6274L40.6003 2.09133C42.4574 2.09133 44.6612 2.08989 46.9298 2.08272H46.9355V2.08128Z" fill="black"/>
<path d="M16.8477 40.974C18.4559 40.974 20.0642 40.9726 21.6739 40.9697C22.5758 40.9683 22.9455 40.5936 22.9455 39.6793C22.9498 34.6727 22.9498 30.0193 22.9455 25.4534C22.9441 24.5491 22.5629 24.163 21.6667 24.1616C20.0771 24.1601 18.4876 24.1587 16.898 24.1587C15.2596 24.1587 13.6226 24.1601 11.9841 24.1616C11.0635 24.163 10.688 24.5477 10.688 25.4893C10.6866 27.1529 10.6866 28.8165 10.6866 30.48V34.7503C10.6866 36.3866 10.6866 38.0243 10.688 39.6606C10.6894 40.6008 11.0548 40.9683 11.9927 40.9697C13.6096 40.9726 15.2294 40.974 16.8477 40.974ZM20.8309 38.8482H12.7997V26.2629H20.8309V38.8482Z" fill="black"/>
</g>
<defs>
<clipPath id="clip0_72_2514">
<rect width="54" height="51" fill="white" transform="matrix(-1 0 0 1 54 0)"/>
</clipPath>
</defs>
</svg>
