<svg width="59" height="59" viewBox="0 0 59 59" fill="none" xmlns="http://www.w3.org/2000/svg">
<g clip-path="url(#clip0_72_2552)">
<path d="M50.6348 49.2318C51.1817 49.2318 51.6757 49.2251 52.171 49.2331C52.7364 49.2424 52.9867 49.4886 52.9933 50.0513C53.0013 50.7623 53.0026 51.472 52.9933 52.183C52.9867 52.7417 52.7325 52.9827 52.1657 52.9973C52.0505 52.9999 51.9339 52.9973 51.8187 52.9973C36.9312 52.9973 22.0436 52.9973 7.15606 52.9973C6.15623 52.9973 6.00394 52.8463 6.00262 51.8613C6.00262 51.2496 5.99467 50.6379 6.00526 50.0275C6.01453 49.4952 6.26747 49.2437 6.80116 49.2331C7.3269 49.2225 7.85263 49.2304 8.41016 49.2304C8.4671 48.113 8.5214 47.0418 8.57437 45.9707C8.60483 45.3762 8.63396 44.7831 8.66309 44.1886C8.69885 43.4815 8.87895 43.3068 9.60201 43.2816C9.68146 43.279 9.76092 43.271 9.88011 43.2618C9.93308 42.2529 9.99135 41.2678 10.0377 40.2814C10.2827 35.0833 10.5237 29.8852 10.77 24.6884C10.8866 22.2297 11.0124 19.7724 11.1355 17.3137C11.1501 17.021 11.1925 16.7404 10.9091 16.5073C10.7952 16.4146 10.7594 16.1803 10.7555 16.0095C10.7396 15.2826 10.7422 14.5557 10.7502 13.8288C10.7568 13.2794 10.9899 13.0397 11.5328 13.0384C14.1099 13.0331 16.6882 13.0331 19.2653 13.0384C19.8029 13.0397 20.0519 13.2873 20.0612 13.8288C20.0744 14.5385 20.0704 15.2495 20.0598 15.9605C20.0572 16.1207 20.0479 16.3458 19.9486 16.4266C19.5844 16.7218 19.6679 17.1031 19.6837 17.4725C19.8188 20.4595 19.9605 23.4465 20.1009 26.4335C20.1062 26.5474 20.1261 26.6612 20.1486 26.8704C23.0249 26.5275 25.88 26.1859 28.7617 25.8417C28.8001 25.1505 28.8411 24.4938 28.8729 23.8358C28.9802 21.6247 29.0901 19.4135 29.1775 17.2024C29.1855 16.9879 29.0424 16.7668 28.9709 16.5484C28.9113 16.3657 28.8094 16.1816 28.8054 15.9963C28.7855 15.2694 28.7895 14.5425 28.8001 13.8156C28.808 13.278 29.0504 13.041 29.6 13.0397C32.1611 13.0357 34.7223 13.0357 37.2834 13.0397C37.8555 13.041 38.1045 13.2833 38.1137 13.846C38.1243 14.5557 38.123 15.2667 38.1111 15.9777C38.1084 16.1366 38.0939 16.3537 37.9946 16.4411C37.6714 16.7271 37.7138 17.0793 37.731 17.4368C37.8383 19.6969 37.9442 21.9583 38.0528 24.2184C38.0594 24.364 38.0859 24.5084 38.1098 24.707C39.2645 24.5706 40.3915 24.4395 41.5185 24.3045C44.9444 23.8927 48.3703 23.4783 51.7962 23.0665C51.9273 23.0506 52.0597 23.0387 52.1908 23.0321C52.6199 23.0069 52.9112 23.2095 52.9629 23.6292C53.0159 24.0516 52.7735 24.3257 52.355 24.3919C51.7882 24.4819 51.2162 24.5428 50.6335 24.6183C50.6348 32.8272 50.6348 41.0003 50.6348 49.2318ZM49.2033 24.801C49.0854 24.8089 48.9914 24.8116 48.8973 24.8222C46.9467 25.0565 44.9973 25.2935 43.0467 25.5265C38.7693 26.0363 34.4905 26.5394 30.2131 27.0545C25.6907 27.5986 21.1696 28.1613 16.6445 28.6843C16.1824 28.7373 16.0923 28.8842 16.0936 29.3093C16.1055 35.7678 16.1016 42.2264 16.1016 48.6836C16.1016 48.8571 16.1016 49.0305 16.1016 49.192C21.4344 49.192 26.6932 49.192 31.9731 49.192C31.9731 46.8406 31.9717 44.5302 31.9744 42.2184C31.9757 41.5299 32.2035 41.3035 32.8961 41.3022C34.317 41.2996 35.7367 41.2996 37.1576 41.3022C37.9032 41.3035 38.119 41.5233 38.1204 42.2833C38.1217 44.4137 38.1204 46.5453 38.1204 48.6757C38.1204 48.8504 38.1204 49.0265 38.1204 49.2013C38.5071 49.2013 38.8289 49.2013 39.1957 49.2013C39.1957 48.9934 39.1957 48.816 39.1957 48.6373C39.1957 46.4897 39.193 44.3422 39.197 42.1959C39.1983 41.5313 39.4261 41.3049 40.0869 41.3022C41.5079 41.2982 42.9275 41.2996 44.3484 41.3009C45.1284 41.3022 45.3403 41.5141 45.3403 42.3071C45.3417 44.4216 45.3417 46.5361 45.3417 48.6505C45.3417 48.8279 45.3417 49.004 45.3417 49.2066C46.654 49.2066 47.9161 49.2066 49.2033 49.2066C49.2033 41.0652 49.2033 32.9477 49.2033 24.801ZM14.6899 43.2604C14.6899 38.4715 14.6899 33.7209 14.6899 28.9319C14.1562 28.9928 13.653 29.0656 13.1471 29.1027C12.681 29.1371 12.3777 28.8895 12.3433 28.4897C12.3075 28.0872 12.5657 27.7827 13.0173 27.7271C14.1641 27.5854 15.3123 27.457 16.4591 27.3179C17.2206 27.2253 17.9807 27.1246 18.7488 27.0266C18.5859 23.5816 18.427 20.2199 18.2668 16.8397C16.3386 16.8397 14.4528 16.8397 12.5432 16.8397C12.1221 25.6629 11.701 34.4478 11.2799 43.2591C12.4333 43.2604 13.5351 43.2604 14.6899 43.2604ZM30.1734 25.6669C32.3213 25.41 34.3832 25.1691 36.4425 24.9029C36.5378 24.891 36.6782 24.654 36.6729 24.5269C36.5961 22.5316 36.5008 20.5376 36.4054 18.5437C36.3776 17.973 36.3379 17.4024 36.3048 16.8291C34.3832 16.8291 32.5094 16.8291 30.5971 16.8291C30.4554 19.7671 30.3164 22.6759 30.1734 25.6669ZM7.41297 51.5779C22.1628 51.5779 36.8716 51.5779 51.5843 51.5779C51.5843 51.2522 51.5843 50.9622 51.5843 50.6458C36.853 50.6458 22.1443 50.6458 7.41297 50.6458C7.41297 50.9609 7.41297 51.2522 7.41297 51.5779ZM36.7113 42.7269C35.5725 42.7269 34.4773 42.7269 33.402 42.7269C33.402 44.9155 33.402 47.0657 33.402 49.2026C34.5249 49.2026 35.6082 49.2026 36.7113 49.2026C36.7113 47.0352 36.7113 44.8969 36.7113 42.7269ZM43.9286 42.7163C42.7964 42.7163 41.7118 42.7163 40.6193 42.7163C40.6193 44.8956 40.6193 47.0471 40.6193 49.2026C41.7383 49.2026 42.8202 49.2026 43.9286 49.2026C43.9286 47.0365 43.9286 44.8956 43.9286 42.7163ZM14.6872 49.2093C14.6872 47.6787 14.6872 46.1998 14.6872 44.6957C13.1312 44.6957 11.603 44.6957 10.0205 44.6957C9.95029 46.2011 9.88011 47.6932 9.80992 49.2093C11.456 49.2093 13.0518 49.2093 14.6872 49.2093ZM12.1605 15.3846C14.3562 15.3846 16.4949 15.3846 18.6402 15.3846C18.6402 15.0522 18.6402 14.7517 18.6402 14.4538C16.4605 14.4538 14.3217 14.4538 12.1605 14.4538C12.1605 14.7715 12.1605 15.0628 12.1605 15.3846ZM36.718 14.4604C34.5223 14.4604 32.369 14.4604 30.2171 14.4604C30.2171 14.7874 30.2171 15.0774 30.2171 15.3779C32.3982 15.3779 34.5514 15.3779 36.718 15.3779C36.718 15.0615 36.718 14.7835 36.718 14.4604Z" fill="black"/>
<path d="M38.7825 6.01059C39.4592 6.01059 40.1359 6.00397 40.8126 6.01324C41.3171 6.01986 41.6019 6.27672 41.6045 6.7004C41.6072 7.12541 41.3211 7.39287 40.8219 7.39551C39.585 7.40346 38.3468 7.39287 37.1099 7.39949C34.8136 7.41405 33.1066 9.0373 32.9689 11.3292C32.9371 11.8548 32.6616 12.166 32.2445 12.1527C31.8247 12.1381 31.5771 11.8138 31.5824 11.2842C31.6088 8.52755 33.9594 6.13108 36.755 6.02383C37.4304 5.99735 38.1084 6.01986 38.7838 6.01986C38.7825 6.01589 38.7825 6.01324 38.7825 6.01059Z" fill="black"/>
<path d="M19.6678 6.01045C19.9817 6.01045 20.2955 6.00781 20.6094 6.01045C21.1907 6.01707 21.49 6.26202 21.4808 6.7188C21.4715 7.15573 21.1801 7.38214 20.6279 7.39803C19.8214 7.42053 19.0004 7.3689 18.2098 7.49468C16.3651 7.78993 15.0222 9.37214 14.9216 11.2469C14.8872 11.8706 14.5826 12.2267 14.1231 12.142C13.6755 12.0599 13.5245 11.7527 13.5271 11.3118C13.547 8.54992 15.8817 6.14286 18.6773 6.02105C19.007 6.00648 19.3381 6.01972 19.6678 6.01972C19.6678 6.01575 19.6678 6.0131 19.6678 6.01045Z" fill="black"/>
<path d="M21.1525 9.77733C20.4599 9.77733 19.7673 9.77336 19.0747 9.77865C18.0537 9.7866 17.4128 10.3692 17.2949 11.3834C17.2379 11.8812 16.9638 12.1685 16.5652 12.1526C16.1428 12.1354 15.8965 11.807 15.9123 11.2801C15.956 9.76409 17.2697 8.43742 18.8284 8.40167C20.3447 8.36593 21.8623 8.38711 23.38 8.39241C23.8845 8.39373 24.1653 8.65589 24.1653 9.08354C24.1653 9.50988 23.8832 9.76939 23.38 9.77468C22.637 9.78395 21.8941 9.77733 21.1525 9.77733Z" fill="black"/>
<path d="M37.9456 8.39113C38.3256 8.39113 38.7044 8.38186 39.0831 8.39378C39.5069 8.40702 39.7638 8.63475 39.8009 9.05976C39.834 9.4477 39.5241 9.76149 39.0831 9.77208C38.4395 9.78797 37.7959 9.7734 37.1536 9.7787C36.1008 9.78532 35.4639 10.3613 35.3447 11.4086C35.2891 11.8945 34.9964 12.1831 34.5938 12.1513C34.1899 12.1196 33.9502 11.8005 33.9595 11.3053C33.9899 9.79326 35.3023 8.47189 36.857 8.39775C37.2185 8.38054 37.5827 8.3951 37.9456 8.3951C37.9456 8.39378 37.9456 8.39245 37.9456 8.39113Z" fill="black"/>
<path d="M25.725 7.39815C25.1304 7.39815 24.5358 7.4061 23.9412 7.3955C23.442 7.38756 23.1493 7.12276 23.1506 6.70304C23.1506 6.28333 23.442 6.01588 23.9426 6.01191C25.1477 6.00396 26.3541 6.00396 27.5592 6.01323C28.0319 6.0172 28.31 6.27539 28.322 6.67921C28.3352 7.10687 28.0518 7.38491 27.5578 7.39418C26.9473 7.4061 26.3369 7.39815 25.725 7.39815Z" fill="black"/>
<path d="M43.824 9.77746C43.2625 9.77746 42.7023 9.78541 42.1408 9.77481C41.6416 9.76555 41.3542 9.50074 41.3582 9.07573C41.3622 8.65602 41.6522 8.39519 42.1541 8.39122C43.293 8.38327 44.4305 8.38459 45.5694 8.39122C46.0792 8.39386 46.364 8.64278 46.3732 9.06514C46.3838 9.50736 46.0898 9.76952 45.5548 9.77614C44.9801 9.78276 44.4014 9.77746 43.824 9.77746Z" fill="black"/>
<path d="M27.031 8.3939C27.2455 8.3939 27.4614 8.37536 27.6732 8.39787C28.0679 8.44156 28.3129 8.66135 28.3182 9.07444C28.3248 9.48753 28.0864 9.7338 27.6918 9.76558C27.2495 9.8 26.7992 9.80133 26.3569 9.76425C25.9636 9.73115 25.7239 9.47827 25.7332 9.06914C25.7424 8.66267 25.9901 8.43759 26.386 8.39787C26.6006 8.37536 26.8164 8.3939 27.031 8.3939Z" fill="black"/>
<path d="M45.2198 7.39157C45.0384 7.39157 44.853 7.4154 44.6769 7.38628C44.2862 7.32272 44.0545 7.09102 44.065 6.67925C44.0756 6.29131 44.3061 6.06358 44.6755 6.02254C45.0013 5.98679 45.335 5.99871 45.6635 6.01327C46.1177 6.03313 46.3971 6.31647 46.3733 6.72692C46.3481 7.16384 46.0846 7.36906 45.6648 7.39554C45.5165 7.40481 45.3681 7.39687 45.2198 7.39687C45.2198 7.39554 45.2198 7.39422 45.2198 7.39157Z" fill="black"/>
<path d="M33.1637 37.2957C33.1637 36.917 33.157 36.5384 33.1663 36.1597C33.1769 35.7095 33.41 35.4434 33.8655 35.4368C34.6561 35.4235 35.4467 35.4235 36.2373 35.4381C36.6717 35.446 36.9101 35.7108 36.9206 36.1292C36.9405 36.9025 36.9352 37.6783 36.9246 38.4516C36.918 38.9017 36.6598 39.1718 36.2188 39.1851C35.4295 39.2089 34.6363 39.2115 33.847 39.1824C33.4073 39.1652 33.165 38.8898 33.1623 38.4343C33.1623 38.053 33.1637 37.6744 33.1637 37.2957ZM34.5926 36.8442C34.5926 37.1805 34.5926 37.4797 34.5926 37.7737C34.9236 37.7737 35.2137 37.7737 35.5169 37.7737C35.5169 37.4506 35.5169 37.162 35.5169 36.8442C35.2044 36.8442 34.9144 36.8442 34.5926 36.8442Z" fill="black"/>
<path d="M42.2825 35.4302C42.6613 35.4302 43.04 35.4262 43.4188 35.4315C43.8796 35.4382 44.1286 35.703 44.1418 36.1399C44.1657 36.9131 44.1617 37.6877 44.1432 38.4609C44.1326 38.9044 43.869 39.1732 43.4254 39.1851C42.652 39.2063 41.8773 39.209 41.1039 39.1851C40.6285 39.1706 40.3968 38.9071 40.3888 38.4185C40.3769 37.6771 40.3769 36.937 40.3888 36.1955C40.3968 35.6725 40.6245 35.4488 41.1463 35.4315C41.5251 35.4196 41.9038 35.4289 42.2825 35.4302ZM41.7899 37.7618C42.1422 37.7618 42.4388 37.7618 42.7288 37.7618C42.7288 37.4295 42.7288 37.1422 42.7288 36.8575C42.3925 36.8575 42.0945 36.8575 41.7899 36.8575C41.7899 37.1766 41.7899 37.452 41.7899 37.7618Z" fill="black"/>
<path d="M24.1559 34.2387C25.4087 34.2387 26.6628 34.2361 27.9156 34.2401C28.4545 34.2427 28.7737 34.4943 28.7856 34.906C28.7975 35.3377 28.4638 35.6223 27.9036 35.6237C25.3809 35.629 22.8581 35.629 20.3354 35.6237C19.7712 35.6223 19.46 35.343 19.4786 34.8941C19.4958 34.4585 19.7739 34.2427 20.3473 34.2401C21.6173 34.2348 22.8859 34.2387 24.1559 34.2387Z" fill="black"/>
<path d="M24.1493 36.6179C25.402 36.6179 26.6561 36.6152 27.9089 36.6192C28.4518 36.6219 28.7683 36.8668 28.7842 37.2799C28.8014 37.7115 28.4677 38.0028 27.9102 38.0028C25.3875 38.0081 22.8647 38.0081 20.3419 38.0028C19.7752 38.0015 19.4639 37.7274 19.4785 37.2799C19.4918 36.8443 19.7725 36.6219 20.3419 36.6192C21.6106 36.6139 22.8806 36.6179 24.1493 36.6179Z" fill="black"/>
<path d="M24.1454 38.997C25.3982 38.997 26.6523 38.9944 27.905 38.9984C28.4506 38.9997 28.7658 39.242 28.7843 39.6551C28.8042 40.0867 28.4705 40.382 27.9143 40.382C25.3915 40.3873 22.8688 40.3873 20.346 40.382C19.7766 40.3806 19.4667 40.1105 19.4773 39.663C19.4879 39.2274 19.77 39.001 20.3368 38.9984C21.6068 38.9931 22.8754 38.997 24.1454 38.997Z" fill="black"/>
<path d="M48.2352 30.918C48.2352 31.2967 48.2458 31.6753 48.2325 32.054C48.2166 32.4777 47.9822 32.7293 47.5598 32.7637C47.1744 32.7955 46.8632 32.479 46.8539 32.0395C46.8394 31.2662 46.8394 30.493 46.8539 29.7198C46.8619 29.2987 47.0963 29.0432 47.5254 29.0141C47.92 28.9876 48.214 29.2881 48.2325 29.7343C48.2471 30.1276 48.2352 30.5235 48.2352 30.918Z" fill="black"/>
</g>
<defs>
<clipPath id="clip0_72_2552">
<rect width="47" height="47" fill="white" transform="translate(6 6)"/>
</clipPath>
</defs>
</svg>
