<svg width="59" height="59" viewBox="0 0 59 59" fill="none" xmlns="http://www.w3.org/2000/svg">
<path d="M25.5935 0.184376C24.568 0.553123 23.5078 1.475 23.0814 2.3623C22.9777 2.58125 22.8625 2.7541 22.8279 2.73105C21.7447 2.12031 21.3644 2.0166 20.166 2.0166C19.0943 2.0166 18.8754 2.05117 18.2992 2.32773C17.5156 2.68496 16.709 3.41094 16.3172 4.09082C15.9715 4.66699 15.6719 5.73867 15.6719 6.36094V6.79883H13.8166C12.6412 6.79883 11.8807 6.75274 11.7193 6.66055C11.581 6.5914 11.0971 6.18808 10.6477 5.77324C9.28788 4.50566 7.77832 3.91797 5.91152 3.91797C4.26367 3.91797 2.96152 4.35586 1.67089 5.33535C0.679878 6.08437 0.0921825 6.90254 0.0230419 7.60547C-0.0460988 8.37754 0.0460887 8.68867 0.530073 9.21875C1.04863 9.79492 1.46347 9.91016 2.99609 9.91016H4.20605L4.52871 10.3711L4.85136 10.832L4.49414 11.293L4.12539 11.7539H2.83476C1.72851 11.7539 1.47499 11.7885 1.0371 12.0074C0.080659 12.4914 -0.288091 13.7359 0.21894 14.7385C0.530073 15.3377 1.76308 16.4555 2.61582 16.9164C4.64394 17.9881 7.22519 17.9996 9.21874 16.9279C9.59902 16.732 10.3019 16.202 10.7744 15.7756C11.2469 15.3377 11.6848 14.9805 11.7309 14.9805C11.7769 14.9805 11.8 16.6514 11.7769 18.691C11.7654 20.9611 11.8 22.632 11.8691 22.9893C12.0996 24.1186 12.5029 24.7523 13.8512 26.1236L15.1418 27.4258H11.3391C8.53886 27.4143 7.50175 27.3797 7.36347 27.276C7.05234 27.034 6.91406 26.6537 6.91406 26.0545C6.91406 25.5014 6.9371 25.4668 7.34042 25.2479C9.13808 24.326 9.42617 21.5719 7.85898 20.2812C6.99472 19.5668 5.53124 19.4055 4.51718 19.924C3.62988 20.3734 2.88085 21.5949 2.88085 22.5859C2.88085 23.3465 3.23808 24.1301 3.87187 24.7408C4.20605 25.075 4.56328 25.3516 4.64394 25.3516C4.7707 25.3516 4.81679 25.6051 4.86289 26.3656C4.93203 27.4949 5.16249 28.0711 5.78476 28.6934C6.5914 29.5 6.51074 29.5 12.1687 29.5H17.2391L18.184 30.468C19.2096 31.5166 19.5783 32.1734 19.5898 32.9225V33.418H16.1328H12.6873L12.4914 33.0146C12.2609 32.5307 11.5234 31.8393 10.9934 31.6203C10.7859 31.5281 10.2674 31.459 9.85253 31.459C8.608 31.459 7.76679 31.9314 7.20214 32.9686C6.91406 33.4871 6.86796 33.7176 6.86796 34.3975C6.86796 35.642 7.39804 36.5293 8.42363 37.0479C9.85253 37.7738 11.5465 37.3359 12.3762 36.0107L12.7103 35.4922H16.1443H19.5898V37.3936V39.2949H13.7244H7.84746L7.57089 38.6727C7.16757 37.7969 6.54531 37.1631 5.66953 36.7367C4.97812 36.391 4.79375 36.3564 3.91796 36.3564C3.0998 36.3564 2.82324 36.4141 2.28164 36.6676C1.48652 37.0363 0.714448 37.7738 0.334175 38.5459C0.0921825 39.0414 0.0576122 39.2834 0.0576122 40.332C0.0576122 41.4613 0.080659 41.5881 0.403315 42.1527C0.852729 42.9709 1.69394 43.7199 2.5121 44.0195C3.05371 44.227 3.34179 44.2615 4.14843 44.227C5.18554 44.1693 5.79628 43.9504 6.51074 43.3512C6.9832 42.9594 7.57089 42.1182 7.66308 41.7033L7.74374 41.3691H13.6668H19.5898V43.2705V45.1719H16.1443H12.6873L12.4223 44.6879C12.0996 44.1002 11.3391 43.4895 10.6822 43.3166C10.0484 43.1438 9.02285 43.2475 8.4582 43.5355C7.53632 44.008 6.79882 45.1949 6.79882 46.209C6.79882 46.7852 7.14453 47.6609 7.55937 48.1449C8.88457 49.7006 11.3736 49.4932 12.3992 47.7646L12.6988 47.2461H16.1443H19.5898V48.168V49.0898H17.481C15.1072 49.0898 14.508 49.2051 13.8051 49.7812C13.5746 49.9656 13.2519 50.392 13.0906 50.7262C12.8371 51.2217 12.791 51.4867 12.791 52.2703C12.791 53.1 12.768 53.2268 12.5721 53.2959C12.0535 53.4572 11.4197 54.0564 11.1201 54.6672C10.5439 55.8426 10.7398 57.2023 11.6156 58.1242C12.2264 58.758 12.8025 59 13.7705 59C15.5566 59 16.7435 57.8016 16.7551 55.9924C16.7551 54.9783 16.3172 54.1602 15.4644 53.584L14.8652 53.1922V52.4777C14.8652 51.9477 14.9228 51.6941 15.0842 51.4982C15.3031 51.2332 15.3607 51.2217 17.435 51.1871L19.5668 51.1525L19.6129 54.0104C19.6475 56.6953 19.659 56.8912 19.901 57.3406C20.2351 57.9744 20.7998 58.5275 21.376 58.7811C21.8139 58.977 22.3439 59 29.9609 59C37.8891 59 38.0965 58.9885 38.6035 58.758C39.2949 58.4469 39.7328 58.0205 40.0555 57.3291C40.3205 56.776 40.332 56.6607 40.332 53.9527V51.1641H41.8185C42.6367 51.1641 43.4434 51.2102 43.6162 51.2793C44.1924 51.4982 44.5266 53.1346 44.031 53.2959C43.5125 53.4572 42.8787 54.0564 42.5791 54.6672C42.0029 55.8426 42.1988 57.2023 43.0746 58.1242C43.6853 58.758 44.2615 59 45.2295 59C47.0156 59 48.2025 57.8016 48.2141 55.9924C48.2141 55.0014 47.7762 54.1602 46.9465 53.607L46.3818 53.2152L46.3012 52.2473C46.1975 51.0949 45.8517 50.3229 45.2064 49.7928C44.5381 49.2396 43.8697 49.0898 41.9799 49.0898H40.332V48.168V47.2461H43.3166H46.3012L46.6008 47.7646C47.5687 49.401 49.8389 49.6891 51.2562 48.3523C51.9131 47.7416 52.1435 47.1885 52.1435 46.209C52.1435 45.1949 51.9016 44.6418 51.1871 43.9965C50.5303 43.3973 49.8273 43.1668 48.9055 43.2475C47.9375 43.3166 47.223 43.743 46.6699 44.5727L46.2781 45.1719H43.3051H40.332V43.2705V41.3691H45.7826H51.2217L51.4982 42.0029C51.8555 42.8326 52.7773 43.6854 53.6762 44.0195C54.6096 44.3768 55.9348 44.3076 56.8451 43.8582C57.6633 43.4664 58.4469 42.5906 58.7695 41.7379C59.1152 40.8275 59.0691 39.3756 58.6543 38.5459C58.2855 37.7854 57.5135 37.0363 56.7184 36.6676C56.1768 36.4141 55.9002 36.3564 55.082 36.3564C54.1947 36.3564 54.0219 36.391 53.3305 36.7367C52.4201 37.1861 51.7057 37.9236 51.4291 38.7418L51.2217 39.2949H45.7826H40.332V37.3936V35.4922H43.3857C45.9209 35.4922 46.4394 35.5152 46.4394 35.6535C46.4394 35.9762 47.4766 36.9672 48.0297 37.1861C49.6775 37.8199 51.5443 36.9557 52.0283 35.3309C52.2473 34.6164 52.2473 34.1785 52.0398 33.4986C51.6711 32.2541 50.5648 31.459 49.1935 31.459C48.7787 31.459 48.2371 31.5396 48.0182 31.6318C47.442 31.8738 46.8197 32.45 46.5432 32.9801L46.3242 33.418H43.3051H40.2975L40.3781 32.6574C40.4703 31.7355 40.5971 31.4244 41.2885 30.3297L41.8301 29.5H46.8889H51.9477L52.5584 29.1773C52.9848 28.9584 53.2959 28.6818 53.5494 28.3016C54.0103 27.6217 54.1601 27.1146 54.1601 26.1582C54.1601 25.4437 54.1717 25.3977 54.4828 25.2594C54.9322 25.0635 55.5084 24.4758 55.808 23.9227C56.0039 23.5654 56.0615 23.2428 56.0615 22.5859C56.0615 21.6295 55.8887 21.1916 55.2664 20.5348C54.6557 19.8779 54.1025 19.6475 53.123 19.6475C52.132 19.6475 51.5904 19.8549 50.9797 20.4771C50.3228 21.1225 50.1846 21.4912 50.1846 22.5975C50.1846 23.4963 50.2191 23.6346 50.5303 24.1531C50.7492 24.4988 51.118 24.8676 51.4867 25.1211C52.0744 25.5014 52.0859 25.5244 52.0859 26.0775C52.0859 26.6768 51.8555 27.2414 51.5674 27.3566C51.4637 27.3912 49.5162 27.4258 47.2461 27.4258H43.1092L43.8121 26.308C44.2039 25.6857 44.6764 24.8445 44.8723 24.4297L45.2295 23.6807L45.2641 19.2096L45.2986 14.75H45.8978C46.8889 14.75 47.3152 14.9344 48.1795 15.741C49.7812 17.2045 51.4637 17.8268 53.4687 17.7115C55.2318 17.6078 56.5685 17.0316 57.8361 15.8447C58.7695 14.9574 59 14.5311 59 13.6783C59 12.9178 58.6889 12.3992 58.0205 12.0189C57.6172 11.7885 57.3982 11.7539 56.2113 11.7539H54.8746L54.5174 11.2814L54.1717 10.7975L54.5059 10.3711L54.8516 9.9332L56.2689 9.89863C57.5826 9.85254 57.7324 9.82949 58.1588 9.5414C58.4123 9.38008 58.7004 9.05742 58.8041 8.83847C59.0346 8.37754 59.0576 7.36348 58.8732 6.99472C58.3432 6.00371 56.7414 4.73613 55.4162 4.26367C54.3906 3.90644 52.4316 3.81426 51.3945 4.09082C50.2883 4.37891 49.159 5.02422 48.2141 5.9C47.7531 6.32637 47.2461 6.70664 47.1078 6.74121C46.958 6.77578 46.474 6.79883 46.0361 6.77578L45.241 6.74121L45.1488 6.30332C44.8953 5.08184 43.9043 3.89492 42.6598 3.30722C41.9914 2.99609 41.7609 2.95 40.9082 2.93848C39.7443 2.93848 39.1682 3.08828 38.373 3.62988L37.7738 4.0332L37.5318 3.72207C37.0939 3.1459 36.4832 2.65039 35.8379 2.32773C35.2617 2.05117 35.0773 2.0166 33.9365 2.0166C32.7381 2.0166 32.6344 2.03965 31.9545 2.38535L31.24 2.7541L30.9059 2.15488C30.4795 1.39434 29.7766 0.749023 28.9353 0.357227C28.1172 -0.0230484 26.4117 -0.115234 25.5935 0.184376ZM28.0941 2.29316C28.5896 2.54668 28.9238 2.89238 29.2234 3.45703C29.4309 3.8373 29.4424 4.20605 29.4424 9.33398C29.4424 14.7154 29.4424 14.8191 29.1889 15.2686C29.0621 15.5221 28.8201 15.8447 28.6703 15.9715C28.4398 16.1904 27.7484 16.5938 27.6217 16.5938C27.5986 16.5938 27.5525 16.2135 27.518 15.7525C27.4488 14.6463 27.0225 13.782 26.1351 12.9639C25.7664 12.6297 25.2939 12.284 25.0635 12.2033L24.6601 12.0535V8.00879C24.6601 4.2752 24.6832 3.94101 24.8906 3.48008C25.1441 2.92695 25.5935 2.46601 26.1006 2.23555C26.6191 2.00508 27.5871 2.03965 28.0941 2.29316ZM21.1916 4.26367C21.7447 4.54023 22.2863 5.17402 22.4592 5.75019C22.5398 6.02676 22.5859 7.22519 22.5859 8.97676V11.7539H20.166H17.7461V8.94219C17.7461 5.86543 17.8152 5.42754 18.4144 4.80527C19.1404 4.0332 20.3043 3.80273 21.1916 4.26367ZM35.2848 4.43652C35.5498 4.63242 35.884 5.0127 36.0338 5.30078L36.3103 5.80781L36.2758 10.4287L36.2412 15.0496L35.9301 15.5336C35.0543 16.8588 33.1184 16.9855 32.1158 15.7871C31.5857 15.1648 31.5627 14.8768 31.5973 10.06L31.6318 5.55429L31.9775 5.05879C32.4846 4.33281 33.176 4.01015 34.0748 4.05625C34.6394 4.09082 34.893 4.17148 35.2848 4.43652ZM41.784 5.23164C42.4062 5.51973 42.8672 6.02676 43.0861 6.67207C43.1668 6.93711 43.2129 8.33144 43.2129 10.8896V14.7039L42.9248 15.2916C42.1297 16.8703 40.1016 17.0893 38.9723 15.718C38.4307 15.0611 38.373 14.6117 38.373 10.7975C38.373 6.5914 38.4307 6.31484 39.3756 5.49668C39.6867 5.22012 40.4012 4.9666 40.8506 4.9666C41.0465 4.95508 41.4613 5.08184 41.784 5.23164ZM7.85898 6.41855C8.34296 6.64902 8.94218 7.07539 9.49531 7.58242C10.7629 8.75781 11.1201 8.87305 13.6553 8.87305H15.6719V10.2904V11.6963L14.9689 11.8346C14.5771 11.9152 14.0125 12.1227 13.7129 12.307C13.3096 12.5605 12.9754 12.6643 12.3185 12.7219C11.1893 12.8371 10.3711 13.2174 9.50683 14.0471C8.6541 14.8537 7.99726 15.257 7.08691 15.4875C6.18808 15.7295 5.47363 15.718 4.62089 15.4529C3.75664 15.1879 3.05371 14.773 2.54667 14.243L2.14335 13.8281H3.37636C4.82832 13.8281 5.18554 13.7129 5.79628 13.033C6.61445 12.1227 6.91406 11.5465 6.91406 10.8666C6.91406 10.1637 6.74121 9.77187 6.08437 8.93066C5.32382 7.97422 5.00117 7.83594 3.48007 7.83594C2.23554 7.83594 2.18945 7.82441 2.29316 7.61699C2.50058 7.23672 3.58378 6.52227 4.3789 6.2457C5.48515 5.86543 6.79882 5.92305 7.85898 6.41855ZM54.5289 6.22266C55.301 6.45312 56.4879 7.22519 56.6953 7.60547C56.8105 7.82441 56.776 7.83594 55.5199 7.83594C53.9297 7.83594 53.6301 7.97422 52.7773 9.14961C52.109 10.06 52.0398 10.2789 52.109 11.0625C52.1781 11.7078 52.5353 12.3186 53.3535 13.1482C53.9643 13.759 54.2062 13.8281 55.7504 13.8281H56.8566L56.4072 14.3006C55.7273 14.9805 54.5174 15.5451 53.5264 15.6373C52.0168 15.7641 50.7723 15.2686 49.4932 14.0471C49.1129 13.6898 48.5828 13.275 48.3293 13.1482C47.7992 12.8717 46.7967 12.6758 45.8978 12.6758H45.2871V10.7744V8.87305H46.3242C47.7531 8.87305 48.3869 8.61953 49.4932 7.60547C50.7492 6.43008 51.6711 6.01523 53.0193 6.00371C53.4803 5.99219 54.091 6.08437 54.5289 6.22266ZM24.0264 14.0471C24.9713 14.4734 25.4668 15.234 25.4668 16.248C25.4668 17.1699 25.0059 17.8959 24.1416 18.3568C23.7037 18.5988 23.5193 18.6104 20.1084 18.6449C18.1494 18.6564 16.4209 18.7025 16.2826 18.7256C15.9139 18.8062 15.6373 19.4055 15.7295 19.901C15.7756 20.1775 15.9139 20.3619 16.1674 20.5117C16.5131 20.7307 16.7666 20.7422 19.8203 20.7422C21.6295 20.7422 23.4156 20.6846 23.7959 20.627C24.7408 20.4771 25.801 19.924 26.3771 19.3018C26.815 18.8293 26.9187 18.7717 27.5871 18.6795C28.509 18.5412 29.2926 18.207 29.9609 17.6424L30.4795 17.2045L30.9404 17.6078C32.6228 19.0713 35.2963 19.0598 36.9211 17.5732L37.3705 17.1699L37.8084 17.5732C39.099 18.7371 41.0926 19.0482 42.6943 18.3338L43.2244 18.1033L43.1898 20.6615C43.1437 23.6807 43.4434 22.9086 40.7123 27.276C39.6521 28.9699 38.6726 30.6523 38.5459 30.998C38.3154 31.6203 38.3154 31.9084 38.2808 44.0426L38.2463 56.4533L37.9467 56.6838C37.6586 56.9258 37.5434 56.9258 29.9725 56.9258C22.39 56.9258 22.2748 56.9258 22.0328 56.6953C21.8945 56.557 21.7678 56.4418 21.7562 56.4303C21.7332 56.4188 21.6986 50.8529 21.6641 44.0771L21.6064 31.7471L21.2146 30.9404C20.8689 30.226 20.4771 29.7766 17.5732 26.8496C15.7756 25.0404 14.2199 23.3811 14.1047 23.1621C13.9088 22.7934 13.8857 22.4016 13.8512 19.0713C13.8166 15.3953 13.8166 15.3838 14.0932 14.8768C14.2775 14.5195 14.5195 14.2775 14.8652 14.0932C15.3607 13.8281 15.4068 13.8281 19.4631 13.8281C23.1967 13.8281 23.6115 13.8512 24.0264 14.0471ZM6.32636 21.8369C6.87949 22.1135 6.97167 22.7703 6.51074 23.2197C6.10742 23.6346 5.63496 23.6 5.24316 23.1391C5.01269 22.874 4.95507 22.7012 5.01269 22.4822C5.10488 22.1135 5.27773 21.8945 5.58886 21.7793C5.91152 21.641 5.96914 21.641 6.32636 21.8369ZM53.7107 21.9982C54.091 22.3785 54.1141 22.5744 53.8721 23.0354C53.5955 23.5885 52.9387 23.6807 52.4893 23.2197C52.0283 22.7703 52.132 22.1365 52.7197 21.8023C53.0885 21.5949 53.3535 21.641 53.7107 21.9982ZM10.4518 33.7867C10.9012 34.2131 10.7975 34.9275 10.2328 35.2156C9.29941 35.6996 8.46972 34.3283 9.31093 33.6945C9.61054 33.4641 10.1521 33.4986 10.4518 33.7867ZM49.6545 33.6484C49.9771 33.8098 50.1615 34.3514 50.0232 34.7201C49.885 35.0773 49.3088 35.4115 49.0092 35.2963C48.6059 35.158 48.2832 34.7662 48.2832 34.409C48.2832 33.7406 49.0437 33.3143 49.6545 33.6484ZM4.67851 38.592C5.4621 38.9492 5.98066 39.848 5.83085 40.5971C5.64648 41.5305 4.85136 42.1758 3.88339 42.1758C2.93847 42.1758 2.07421 41.3115 2.07421 40.3666C2.07421 39.4793 2.61582 38.7303 3.4455 38.4883C3.91796 38.3385 4.17148 38.3615 4.67851 38.592ZM56.1076 38.7533C57.2484 39.5023 57.1908 41.1156 56.0154 41.9107C54.7018 42.798 52.8234 41.4268 53.2383 39.8826C53.584 38.5689 54.9898 38.0158 56.1076 38.7533ZM10.4287 45.5752C10.6131 45.748 10.7168 45.99 10.7168 46.209C10.7168 46.6469 10.2674 47.1309 9.86406 47.1309C9.41464 47.1309 8.95371 46.6584 8.95371 46.209C8.95371 45.9324 9.03437 45.748 9.26484 45.5521C9.66816 45.2064 10.083 45.218 10.4287 45.5752ZM49.8043 45.6328C50.0809 45.9094 50.1385 46.0477 50.0809 46.3012C49.9771 46.7045 49.5047 47.1309 49.1359 47.1309C48.7326 47.1309 48.2832 46.6469 48.2832 46.209C48.2832 45.7596 48.7326 45.2871 49.1475 45.2871C49.3318 45.2871 49.5969 45.4254 49.8043 45.6328ZM14.1162 55.1973C14.4389 55.324 14.7615 55.9348 14.6578 56.2229C14.531 56.6031 14.1277 56.9258 13.782 56.9258C12.8371 56.9258 12.5721 55.6812 13.4248 55.2203C13.7129 55.059 13.7475 55.059 14.1162 55.1973ZM45.5752 55.1973C45.8978 55.324 46.2205 55.9348 46.1168 56.2229C45.99 56.6031 45.5867 56.9258 45.241 56.9258C44.2961 56.9258 44.031 55.6812 44.8838 55.2203C45.1719 55.059 45.2064 55.059 45.5752 55.1973Z" fill="black"/>
</svg>
