<svg width="59" height="59" viewBox="0 0 59 59" fill="none" xmlns="http://www.w3.org/2000/svg">
<path d="M25.7664 0.195892C25.7434 0.311127 25.5705 1.0832 25.3977 1.91288L25.0865 3.42245L24.2684 3.6875C23.8189 3.82578 23.0238 4.14843 22.5168 4.40195L21.5719 4.85136L20.143 3.92949C19.3479 3.41093 18.6564 2.99609 18.5988 2.99609C18.5412 2.99609 17.3658 4.12539 15.983 5.5082L13.4824 8.02031L13.9434 9.10351C14.1969 9.6912 14.4043 10.2213 14.4043 10.2674C14.4043 10.3135 14.1047 10.3826 13.7475 10.4287C12.791 10.5209 11.3852 10.9934 10.6707 11.4543C9.29941 12.3301 8.19316 13.8512 7.78984 15.3953C7.53633 16.3748 7.53633 19.7166 7.77832 20.6846C8.07793 21.8484 8.63105 22.8049 9.54141 23.7268C10.0023 24.1992 10.3596 24.6602 10.348 24.7639C10.325 24.8791 9.92168 25.0289 9.10352 25.2363L7.89355 25.5359L5.5543 24.1762L3.20352 22.8164H1.60176H0V32.715V42.6137L4.70156 44.1809C9.18418 45.6789 9.4377 45.748 10.325 45.748H11.2699L11.3391 45.3562L11.4197 44.9529L12.8486 45.8172C14.0701 46.5547 14.2891 46.7275 14.2891 46.9695C14.2891 48.0182 15.476 49.2396 16.732 49.4932C16.9855 49.5393 17.0662 49.643 17.1699 50.0463C17.5041 51.2908 18.6104 52.3164 19.6359 52.3164C19.8549 52.3164 19.9125 52.4086 20.0277 52.8926C20.0969 53.2037 20.2928 53.6762 20.4656 53.9182C20.915 54.598 21.8715 55.1973 22.5053 55.1973C22.7127 55.1973 22.7818 55.301 22.8971 55.7619C23.0584 56.4303 23.4963 57.1332 23.9803 57.4904C24.7869 58.0896 25.9969 58.2394 26.9648 57.8592L27.4834 57.6633L28.0711 58.1588C28.3938 58.4238 28.8432 58.7234 29.0736 58.8271C29.6613 59.0691 31.0441 59.0461 31.6318 58.7811C32.5076 58.3893 33.2912 57.3291 33.3027 56.557C33.3027 56.3035 33.3719 56.2228 33.6254 56.1652C34.6855 55.9348 35.2502 55.5775 35.7457 54.84C35.9186 54.5865 36.0914 54.1486 36.126 53.8721C36.2066 53.4111 36.2412 53.365 36.6215 53.2959C37.8314 53.0654 38.834 52.0514 39.0299 50.8644C39.076 50.5648 39.1451 50.4727 39.341 50.4727C39.7789 50.4727 40.7238 49.9426 41.1617 49.4586C41.5766 48.9977 41.9453 48.0873 41.9453 47.5111C41.9453 47.2807 42.8557 46.7852 50.4727 42.9824L59 38.7187V31.6894V24.6602H57.9514H56.8912L55.324 25.4783C53.8029 26.2734 53.7453 26.285 53.3535 26.1467C53.1346 26.066 51.9938 25.7664 50.8184 25.4668C49.3664 25.1096 48.675 24.8791 48.652 24.7639C48.6404 24.6717 48.9977 24.2107 49.4586 23.7383C50.3805 22.7818 50.9336 21.8139 51.2332 20.6385C51.383 20.0508 51.4061 19.4746 51.3715 17.8152C51.3023 15.3607 51.1525 14.7961 50.1961 13.3787C49.1129 11.7885 47.5803 10.8205 45.6674 10.5094C45.0797 10.4172 44.5957 10.3019 44.5957 10.2559C44.5957 10.2213 44.8031 9.6912 45.0566 9.10351L45.5176 8.02031L43.017 5.5082C41.6342 4.12539 40.4588 2.99609 40.4012 2.99609C40.3436 2.99609 39.6521 3.41093 38.857 3.92949L37.4281 4.85136L36.4832 4.40195C35.9762 4.14843 35.1811 3.82578 34.7316 3.6875L33.9135 3.42245L33.6023 1.91288C33.4295 1.0832 33.2566 0.311127 33.2336 0.195892C33.176 0.0115166 32.8994 -3.8147e-06 29.5 -3.8147e-06C26.1006 -3.8147e-06 25.824 0.0115166 25.7664 0.195892ZM31.8623 3.51464L32.185 5.07031L32.6574 5.19706C34.2016 5.58886 35.6305 6.16504 36.7713 6.86796L37.4627 7.28281L38.7994 6.3955L40.1477 5.51972L41.6227 6.99472L43.0977 8.46972L42.5906 9.67968C42.1066 10.832 42.049 10.9127 41.4959 11.2469C41.1617 11.4428 40.6893 11.7769 40.4242 11.9844C40.0094 12.3186 39.9402 12.3416 39.848 12.1687C39.56 11.6502 38.2809 10.1982 37.6471 9.66816C35.5383 7.89355 33.2221 6.91406 30.5602 6.68359C28.509 6.49921 26.3426 6.85644 24.5104 7.6746C22.5514 8.55038 20.5117 10.1982 19.4285 11.7885L18.9791 12.4453L18.4836 11.9844C18.207 11.7309 17.7461 11.4082 17.4695 11.2699C16.974 11.0394 16.9279 10.9703 16.4209 9.74882L15.8908 8.48124L17.3658 7.00624L18.8408 5.53125L20.1891 6.40702L21.5488 7.28281L22.2287 6.85644C23.3695 6.16504 24.7984 5.58886 26.3426 5.19706L26.815 5.07031L27.1377 3.51464L27.4604 1.95898H29.5H31.5396L31.8623 3.51464ZM31.5166 8.86152C34.2016 9.41464 36.5984 11.0164 38.1195 13.298C38.6957 14.1623 38.7072 14.1969 38.5459 14.5195C38.1887 15.2225 38.0273 16.2826 38.0273 18.0803C38.0273 20.915 38.5113 22.2633 40.067 23.8189C40.5279 24.2799 40.9082 24.7062 40.9082 24.7639C40.9082 24.8906 40.7584 24.9367 38.6035 25.4668L37.0479 25.8355L35.2617 25.3861C33.902 25.0404 33.4641 24.8906 33.441 24.7408C33.418 24.6256 33.6484 24.3144 34.0287 23.9687C34.8008 23.2658 35.3539 22.4477 35.7803 21.376C36.0914 20.6154 36.1145 20.4426 36.1605 18.5527C36.2066 16.2711 36.0914 15.4875 35.4807 14.243C34.0287 11.2814 30.8021 9.80644 27.6678 10.6822C25.9277 11.1547 24.2338 12.5721 23.4732 14.1738C22.8855 15.4184 22.7818 16.1213 22.8395 18.5182C22.8855 20.4426 22.9086 20.6154 23.2197 21.376C23.6461 22.4477 24.1992 23.2658 24.9713 23.9687C25.3516 24.3144 25.582 24.6256 25.559 24.7408C25.5359 24.8906 25.098 25.0404 23.7383 25.3861L21.9521 25.8355L20.3965 25.4668C18.2531 24.9482 18.0918 24.8906 18.0918 24.7754C18.0918 24.7178 18.4721 24.2914 18.933 23.8305C19.901 22.8625 20.5002 21.8023 20.7998 20.5463C20.9611 19.8779 20.9842 19.3594 20.9496 17.7807C20.9035 16.0521 20.8574 15.7641 20.5924 15.0496C20.2467 14.1047 20.2352 14.1277 21.3068 12.7103C23.6922 9.59902 27.7139 8.07792 31.5166 8.86152ZM15.3723 12.6182C18.0572 13.3211 19.4631 16.1328 18.8984 19.7051C18.668 21.0994 17.8613 22.3209 16.7205 22.9893L16.1328 23.335V24.9137V26.4924L16.5707 26.6076C16.8012 26.6652 17.435 26.8266 17.9766 26.9648C18.5182 27.0916 19.0252 27.2299 19.1059 27.2529C19.198 27.2875 19.1174 27.5064 18.8293 27.9443C18.3568 28.6934 18.1379 29.3617 18.0342 30.4564C17.965 31.1248 17.9189 31.24 17.7 31.2861C15.8908 31.701 15.4184 31.8047 15.3031 31.8047C15.2225 31.8047 15.1994 31.5166 15.257 30.8482L15.3377 29.8803L12.8486 28.4398L10.3596 26.9879L11.4082 26.7344L12.4453 26.4809V24.9367V23.4041L11.8461 23.0123C10.2328 21.9867 9.56445 20.5809 9.56445 18.2646C9.56445 16.0291 9.95625 14.8307 10.9934 13.8396C12.2955 12.6182 13.7705 12.2033 15.3723 12.6182ZM31.1479 12.791C32.5998 13.3441 33.8443 14.9574 34.1094 16.5937C34.5703 19.5898 33.8328 21.8023 31.9545 23.0123L31.3438 23.4041V24.9367V26.4809L34.1785 27.1838C35.7342 27.5756 37.1746 27.9789 37.382 28.0711C37.8891 28.3361 38.35 28.7971 38.6381 29.3271C38.8686 29.7535 38.8916 29.9494 38.8916 31.9775C38.8916 34.167 38.8916 34.167 38.6266 34.2016C38.4883 34.2246 37.0018 33.8443 35.3193 33.3719C33.6369 32.8879 31.943 32.45 31.5512 32.3924C31.1479 32.3348 29.9955 32.0236 28.9814 31.6894C26.0084 30.733 25.1902 30.5371 23.7268 30.4564C22.5398 30.3988 20.9496 30.5141 20.2352 30.733C20.0393 30.7906 20.0277 30.7445 20.0854 30.2605C20.2236 29.3041 20.7883 28.4975 21.618 28.0711C21.8254 27.9789 23.2658 27.5756 24.8215 27.1838L27.6562 26.4809V24.9367V23.4041L27.0455 23.0123C25.9393 22.3094 25.1326 21.1109 24.8906 19.8318C24.7408 19.0482 24.7408 17.3197 24.8906 16.4439C25.1787 14.6463 26.3541 13.298 28.1748 12.6412C28.9354 12.3762 30.226 12.4338 31.1479 12.791ZM46.5777 12.8947C46.9926 13.0906 47.5803 13.4939 47.8914 13.8051C48.9977 14.8998 49.4355 16.1559 49.4355 18.3338C49.4355 20.5693 48.7441 21.9867 47.1654 23.0123L46.5547 23.4041V24.9367V26.4809L48.8018 27.034C50.0348 27.3451 51.0488 27.6217 51.0488 27.6562C51.0488 27.7023 41.4844 32.7957 41.1387 32.934C41.0926 32.9455 41.0234 32.2195 40.9889 31.3207C40.9082 29.4769 40.7699 28.8893 40.1707 27.9443C39.8826 27.5064 39.802 27.2875 39.8941 27.2529C39.9748 27.2299 40.4818 27.0916 41.0234 26.9648C41.565 26.8266 42.1988 26.6652 42.4408 26.6076L42.8672 26.4924V24.9137V23.335L42.2795 22.9893C40.7238 22.0789 39.9863 20.5002 39.9863 18.0918C39.9863 16.1213 40.4127 14.8883 41.4268 13.8742C42.4408 12.8486 43.501 12.4338 44.8953 12.4914C45.6443 12.526 45.9785 12.6066 46.5777 12.8947ZM5.88848 26.7459C7.75527 27.8291 9.29941 28.7394 9.32246 28.7625C9.3916 28.8201 5.96914 42.4062 5.88848 42.4062C5.85391 42.4062 4.95508 42.1182 3.89492 41.7609L1.95898 41.1156V32.9455V24.7754H2.23555C2.38535 24.7754 4.0332 25.6627 5.88848 26.7459ZM57.041 32.208V37.4512L49.0783 41.4383L41.1041 45.4139L40.8045 45.1373C40.0209 44.4228 33.5217 38.592 32.957 38.108C32.1504 37.4166 31.3438 37.1055 30.3182 37.1055C29.2465 37.1055 28.8316 37.2783 26.5039 38.6611C24.1416 40.067 23.8766 40.1361 23.2889 39.4678C22.8625 38.9723 22.7934 38.2348 23.1506 37.7853C23.2773 37.624 24.6947 36.8519 26.5154 35.9531L29.6498 34.3975L30.6984 34.409C31.6549 34.4205 32.0236 34.5012 34.7432 35.2963C37.2322 36.0338 37.866 36.1836 38.5459 36.1836H39.3641L48.1104 31.5742C52.9272 29.0391 56.9027 26.9648 56.9604 26.9648C57.0064 26.9648 57.041 29.3271 57.041 32.208ZM12.4799 30.5832C12.9062 30.8252 13.252 31.0787 13.252 31.1478C13.252 31.3668 9.7834 43.4894 9.69121 43.5816C9.64512 43.6393 9.21875 43.5471 8.73477 43.3857L7.87051 43.0861L9.41465 36.898C10.2674 33.4986 11.0164 30.5141 11.074 30.2721C11.1893 29.8457 11.2008 29.8342 11.4428 29.9955C11.5811 30.0762 12.042 30.3527 12.4799 30.5832ZM25.8125 32.8533C26.5385 33.0492 27.1607 33.2221 27.1838 33.2451C27.2068 33.2682 26.1236 33.8328 24.7984 34.5012C23.4617 35.1695 22.1826 35.884 21.9521 36.0799C21.1109 36.8289 20.7191 38.108 20.9611 39.318C21.2262 40.5971 22.2057 41.565 23.4848 41.8416C24.5795 42.0721 25.1096 41.8877 27.4373 40.5049C28.5551 39.825 29.6498 39.2258 29.8687 39.1566C30.4334 38.9838 31.0902 39.2027 31.7586 39.7789C33.4871 41.2885 39.2834 46.5201 39.56 46.8197C39.9518 47.2691 39.9748 47.7992 39.6176 48.1334C39.2719 48.433 38.8801 48.5252 38.5229 48.3869C38.3615 48.3293 37.0363 47.2922 35.5844 46.0822C34.1324 44.8723 32.934 43.8928 32.9225 43.9158C32.8994 43.9389 32.6229 44.2846 32.2887 44.6648C31.9545 45.0566 31.6895 45.4023 31.6895 45.4369C31.6895 45.4715 32.7611 46.3934 34.0863 47.4766C35.4 48.5713 36.5869 49.5853 36.7367 49.7467C37.3129 50.3689 36.8865 51.2793 36.0107 51.2793C35.5729 51.2793 35.3885 51.1525 32.8418 49.0322C31.3553 47.7992 30.1107 46.7852 30.0762 46.7967C30.0416 46.7967 29.742 47.1424 29.4078 47.5572C28.9238 48.168 28.8316 48.3523 28.9469 48.4561C29.0275 48.5367 30.2029 49.5162 31.5512 50.634C32.8994 51.7633 34.0518 52.8004 34.1094 52.9617C34.2361 53.2844 34.167 53.5494 33.8443 53.9066C33.5332 54.2523 32.9801 54.2408 32.4385 53.8605C31.7932 53.4227 30.0762 51.9592 30.0762 51.8439C30.0762 51.7978 29.8687 51.5443 29.6037 51.3023C29.1428 50.8529 28.5896 50.5533 27.9789 50.4266C27.7484 50.3689 27.6447 50.2652 27.5986 50.0348C27.3451 48.7902 26.1236 47.5918 25.098 47.5918C24.8676 47.5918 24.81 47.4996 24.6947 47.0271C24.4182 45.8863 23.6115 45.0682 22.4937 44.8031C21.9752 44.6764 21.8945 44.6187 21.8945 44.3652C21.883 43.5355 20.9035 42.3256 19.9701 42.0144C18.5412 41.5305 17.5271 41.8992 15.9254 43.5125C15.3146 44.1117 14.7961 44.5842 14.75 44.5727C14.7039 44.5496 14.0701 44.1809 13.3441 43.743L12.0189 42.9478L13.298 38.5113L14.5771 34.0633L17.8613 33.3373C19.6705 32.934 21.5143 32.5537 21.9521 32.5076C23.1275 32.3578 24.3029 32.4615 25.8125 32.8533ZM19.5668 44.1348C19.9125 44.4574 19.9816 44.8492 19.7857 45.241C19.6936 45.4254 19.175 46.0016 18.6334 46.5201C17.8037 47.3383 17.6078 47.4766 17.2736 47.4766C16.8357 47.465 16.5822 47.3152 16.3863 46.935C16.1098 46.4279 16.225 46.1975 17.3658 45.0451C18.3684 44.0195 18.5182 43.9043 18.8984 43.9043C19.1635 43.9043 19.4055 43.9965 19.5668 44.1348ZM22.102 46.7967C22.5629 46.958 22.8625 47.5572 22.7012 47.9951C22.6436 48.1564 22.125 48.7557 21.5719 49.3203C20.673 50.2422 20.5002 50.3574 20.143 50.3574C19.6014 50.3574 19.1289 49.8965 19.1289 49.3664C19.1289 49.0322 19.2672 48.8248 20.0277 48.0297C20.8113 47.2115 21.4566 46.6699 21.6756 46.6699C21.7102 46.6699 21.9061 46.7275 22.102 46.7967ZM25.0404 49.6891C25.4207 49.885 25.5705 50.1385 25.582 50.5764C25.582 50.9105 25.4438 51.1064 24.6371 51.9361C24.107 52.4777 23.5309 52.9963 23.3465 53.0885C22.7242 53.4111 22.0098 52.9502 22.0098 52.2127C22.0098 51.8555 22.1365 51.6826 23.1391 50.6801C24.3029 49.5162 24.5219 49.401 25.0404 49.6891ZM28.1633 52.7312C28.3707 52.9387 28.4629 53.1576 28.4629 53.4342C28.4629 53.7568 28.3246 53.9643 27.5295 54.7824C26.2389 56.1422 25.6742 56.3496 25.1096 55.7043C24.591 55.0936 24.7754 54.6326 26.0775 53.3766C26.9303 52.5699 27.1377 52.4316 27.4604 52.4316C27.7369 52.4316 27.9559 52.5238 28.1633 52.7312ZM31.2285 55.785C31.4936 56.4072 30.998 57.041 30.2605 57.041C30.007 57.041 29.0391 56.4072 29.0391 56.2459C29.0391 56.1998 29.2004 56.0154 29.3963 55.8195C29.5922 55.6352 29.8457 55.3125 29.9725 55.1166L30.2029 54.7363L30.6523 55.0936C30.8943 55.2894 31.1594 55.6006 31.2285 55.785Z" fill="black"/>
</svg>
