<svg width="59" height="59" viewBox="0 0 59 59" fill="none" xmlns="http://www.w3.org/2000/svg">
<path d="M2.6504 0.103729C1.62481 0.414864 0.760554 1.18693 0.299617 2.18947C-0.0576096 2.9385 -0.103703 4.25217 0.172859 5.08186C0.829695 7.00627 3.06524 8.0549 5.0588 7.37502L5.80782 7.13303L7.88204 9.20724C9.47227 10.7975 9.94473 11.3276 9.85255 11.4543C9.78341 11.535 9.41465 11.9959 9.01134 12.4569C6.41856 15.499 4.21759 20.0738 3.39942 24.1531C3.22657 24.9713 3.06524 25.6742 3.01915 25.7088C2.97305 25.7434 2.71954 25.8356 2.4545 25.9162C1.48653 26.1813 0.403328 27.3106 0.115242 28.3246C-0.0345628 28.8778 -0.0345628 30.1223 0.115242 30.6754C0.403328 31.6895 1.48653 32.8188 2.4545 33.0838C2.71954 33.1645 2.97305 33.2567 3.01915 33.2912C3.06524 33.3258 3.22657 34.0287 3.39942 34.8469C4.21759 38.9262 6.41856 43.501 9.01134 46.5432C9.41465 47.0041 9.78341 47.4651 9.85255 47.5457C9.94473 47.6725 9.47227 48.2026 7.88204 49.7928L5.80782 51.867L5.0588 51.625C3.08829 50.9567 0.933406 51.9246 0.218953 53.8145C-0.115227 54.6903 -0.0806565 55.9924 0.299617 56.8106C0.656843 57.6057 1.26759 58.2395 2.01661 58.6313C2.77716 59.0115 4.19454 59.1153 5.02423 58.8387C6.99473 58.1819 8.06641 55.9578 7.37501 53.9412L7.13301 53.1922L9.20723 51.118C10.7975 49.5278 11.3275 49.0553 11.4543 49.1475C11.535 49.2166 12.0074 49.5969 12.4914 50.0117C15.5336 52.5699 19.7627 54.6326 23.6807 55.4854C25.8816 55.9578 25.6857 55.8656 25.9162 56.557C26.0315 56.8912 26.285 57.3637 26.4693 57.5942C26.8842 58.1242 27.76 58.7235 28.3246 58.8848C28.8777 59.0346 30.1223 59.0346 30.6754 58.8848C31.6895 58.5967 32.8188 57.5135 33.0838 56.5455C33.1645 56.2805 33.2566 56.027 33.2912 55.9809C33.3258 55.9348 34.0402 55.7619 34.8584 55.6006C38.9723 54.7594 43.501 52.5815 46.5432 49.9887C47.0041 49.5854 47.465 49.2166 47.5457 49.1475C47.6725 49.0553 48.2025 49.5278 49.7928 51.118L51.867 53.1922L51.625 53.9412C50.9336 55.9578 52.0053 58.1819 53.9758 58.8387C54.8516 59.1383 56.2344 59.0231 57.018 58.5967C57.7209 58.2164 58.2971 57.6172 58.6658 56.9028C59.0115 56.2344 59.1037 54.7594 58.8387 53.9758C58.1818 52.0053 55.9578 50.9336 53.9412 51.625L53.1922 51.867L51.118 49.7928C49.5277 48.2026 49.0553 47.6725 49.1475 47.5457C49.2166 47.4651 49.5854 47.0041 49.9887 46.5432C52.5814 43.501 54.7594 38.9723 55.6006 34.8584C55.7619 34.0287 55.9348 33.3258 55.9809 33.2912C56.027 33.2567 56.2805 33.1645 56.5455 33.0838C57.5135 32.8188 58.5967 31.6895 58.8848 30.6754C59.0346 30.1223 59.0346 28.8778 58.8848 28.3246C58.5967 27.3106 57.5135 26.1813 56.5455 25.9162C56.2805 25.8356 56.027 25.7434 55.9809 25.7088C55.9348 25.6742 55.7619 24.9598 55.6006 24.1416C54.7594 20.0278 52.5814 15.499 49.9887 12.4569C49.5854 11.9959 49.2166 11.535 49.1475 11.4543C49.0553 11.3276 49.5277 10.7975 51.118 9.20724L53.1922 7.13303L53.9412 7.37502C55.9578 8.06643 58.1818 6.99474 58.8387 5.02424C59.1152 4.19455 59.0115 2.77717 58.6313 2.01662C58.274 1.32521 57.6287 0.691425 56.9258 0.334198C56.2113 -0.0230293 54.7709 -0.103691 53.9412 0.172871C51.9938 0.818184 50.9336 3.04221 51.625 5.05881L51.867 5.80783L49.7928 7.88205C48.2025 9.47228 47.6725 9.94474 47.5457 9.85256C47.465 9.78342 47.0041 9.41467 46.5432 9.01134C43.501 6.41857 38.9723 4.24064 34.8584 3.39943C34.0402 3.23811 33.3258 3.06525 33.2912 3.01916C33.2566 2.97306 33.1645 2.71955 33.0838 2.45451C32.8188 1.48654 31.6895 0.403339 30.6754 0.115253C30.1223 -0.0345535 28.8777 -0.0345535 28.3246 0.115253C27.3106 0.403339 26.1813 1.48654 25.9162 2.45451C25.8356 2.71955 25.7434 2.97306 25.7088 3.01916C25.6742 3.06525 24.9713 3.22658 24.1531 3.39943C20.0738 4.2176 15.499 6.41857 12.4568 9.01134C11.9959 9.41467 11.535 9.78342 11.4543 9.85256C11.3275 9.94474 10.7975 9.47228 9.20723 7.88205L7.13301 5.80783L7.37501 5.05881C8.05489 3.06525 7.00626 0.829704 5.08184 0.172871C4.55177 -0.0115051 3.14591 -0.0460739 2.6504 0.103729ZM4.69005 2.03967C5.16251 2.25861 5.62345 2.91545 5.72716 3.49162C5.91153 4.66701 4.79376 5.86545 3.60684 5.72717C1.72852 5.51974 1.1754 3.16896 2.75411 2.10881C3.22657 1.78615 4.10235 1.75158 4.69005 2.03967ZM30.6293 2.17795C31.0902 2.5006 31.459 3.20353 31.459 3.74514C31.459 4.97814 30.3066 5.93459 29.0852 5.71564C28.5666 5.61193 27.8291 4.94357 27.6447 4.41349C27.3451 3.50314 27.7715 2.45451 28.6012 2.02814C29.1313 1.75158 30.1453 1.83224 30.6293 2.17795ZM56.2459 2.10881C57.525 2.97306 57.4674 4.79377 56.1307 5.4967C55.0936 6.0383 54.0104 5.66955 53.4457 4.5633C53.0078 3.71056 53.4342 2.46603 54.2869 2.03967C54.8631 1.75158 55.7734 1.78615 56.2459 2.10881ZM26.0891 5.4967C26.4578 6.21115 27.2184 6.94865 27.9443 7.28283C28.4053 7.49025 28.7279 7.54787 29.5 7.54787C30.2721 7.54787 30.5947 7.49025 31.0557 7.28283C31.7816 6.94865 32.5422 6.21115 32.9109 5.50822C33.2336 4.87443 33.0607 4.87443 35.377 5.43908C39.7674 6.49924 43.6162 8.68869 46.9695 12.0305C50.3113 15.3838 52.5123 19.2557 53.5609 23.6231C54.1256 25.9623 54.1256 25.7664 53.4918 26.0891C52.7889 26.4578 52.0514 27.2184 51.7172 27.9444C51.5098 28.4053 51.4522 28.7279 51.4522 29.5C51.4522 30.2721 51.5098 30.5947 51.7172 31.0557C52.0514 31.7817 52.7889 32.5422 53.4918 32.911C54.1256 33.2336 54.1256 33.0377 53.5609 35.377C52.5123 39.7444 50.2998 43.6162 46.958 46.958C43.6162 50.2998 39.7674 52.5008 35.377 53.561C33.0607 54.1256 33.2336 54.1256 32.9109 53.4918C32.5422 52.7889 31.7816 52.0514 31.0557 51.7172C30.2375 51.3485 28.7625 51.3485 27.9443 51.7172C27.2184 52.0514 26.4578 52.7889 26.0891 53.4918C25.7664 54.1256 25.9277 54.1256 23.6576 53.5725C19.2326 52.5008 15.4068 50.3229 12.0305 46.958C8.7002 43.6393 6.4877 39.7444 5.43907 35.377C4.87442 33.0377 4.87442 33.2336 5.50821 32.911C6.21114 32.5422 6.94864 31.7817 7.28282 31.0557C7.49024 30.5947 7.54786 30.2721 7.54786 29.5C7.54786 28.7279 7.49024 28.4053 7.28282 27.9444C6.94864 27.2184 6.21114 26.4578 5.50821 26.0891C4.87442 25.7664 4.87442 25.9393 5.43907 23.6231C7.66309 14.4274 15.2109 7.16759 24.6141 5.18557C25.1787 5.07033 25.6742 4.96662 25.7203 4.96662C25.7664 4.9551 25.9393 5.19709 26.0891 5.4967ZM4.59786 27.7024C5.78477 28.3246 6.10743 29.7766 5.26622 30.733C4.62091 31.4705 3.72208 31.6549 2.88087 31.2285C2.17794 30.8713 1.90137 30.3873 1.90137 29.4885C1.90137 28.8432 1.94747 28.6703 2.21251 28.3246C2.38536 28.1057 2.69649 27.8406 2.90391 27.7369C3.37637 27.4949 4.17149 27.4834 4.59786 27.7024ZM56.1191 27.7715C56.8221 28.1287 57.0986 28.6127 57.0986 29.5C57.0986 30.3873 56.8221 30.8713 56.1191 31.2285C55.2779 31.6549 54.3791 31.4705 53.7338 30.733C52.9041 29.7881 53.1691 28.4629 54.333 27.76C54.7824 27.4719 55.5545 27.4834 56.1191 27.7715ZM4.52872 53.4227C5.04727 53.6877 5.28927 53.9297 5.54278 54.4137C5.83087 54.9899 5.81934 55.5084 5.49669 56.1307C4.78223 57.4674 2.97305 57.525 2.09727 56.2344C1.8668 55.9002 1.83223 55.7158 1.8668 55.1397C1.9129 54.2869 2.21251 53.826 2.90391 53.4803C3.49161 53.1922 4.03321 53.1692 4.52872 53.4227ZM30.1568 53.3651C30.5947 53.5264 31.1133 54.0219 31.2977 54.4713C31.6434 55.2895 31.3553 56.3151 30.6293 56.8336C30.0877 57.2139 28.9123 57.2139 28.3707 56.8336C27.6447 56.3151 27.3221 55.1397 27.7024 54.4137C28.1979 53.4688 29.2465 53.0194 30.1568 53.3651ZM56.1307 53.5033C57.8822 54.4367 57.26 57.1563 55.2895 57.1563C54.5404 57.1563 53.9758 56.8797 53.6186 56.3381C53.2152 55.7274 53.1461 55.0129 53.4457 54.4367C54.0104 53.319 55.082 52.9502 56.1307 53.5033Z" fill="black"/>
<path d="M27.9674 10.6131C22.4477 10.9818 17.1238 14.0355 13.9088 18.6679C13.2174 19.682 13.1137 20.2582 13.5861 20.6385C14.1623 21.0994 14.6693 20.892 15.3262 19.947L15.7756 19.2672L17.0777 20.0047C17.7922 20.408 18.7717 20.9035 19.2672 21.0994C19.7627 21.3068 20.166 21.5027 20.166 21.5488C20.166 21.5834 20.0623 22.0789 19.9471 22.6435C19.6936 23.842 19.3594 26.2965 19.3594 27.0224C19.3594 27.2875 19.3248 27.7484 19.2902 28.048L19.2096 28.5781H15.8332H12.4453V28.1402C12.4453 27.5179 12.7565 25.8355 13.0791 24.7177C13.2404 24.1761 13.3672 23.6115 13.3672 23.4732C13.3672 22.8164 12.2609 22.4361 11.8231 22.9201C11.535 23.2427 11.0856 24.7293 10.8205 26.2619C10.4979 28.1172 10.4979 30.8943 10.8205 32.7496C12.1918 40.6086 18.4029 46.8197 26.2274 48.1679C28.1287 48.5021 30.8828 48.5021 32.7727 48.1679C37.8084 47.3037 42.3602 44.3652 45.1949 40.1592C46.1168 38.7879 47.0156 36.9787 47.0156 36.4947C47.0156 35.8033 46.2551 35.3885 45.6328 35.7226C45.5061 35.7918 45.2065 36.2758 44.9529 36.8174C44.6994 37.359 44.2154 38.2347 43.8582 38.7648L43.2244 39.7443L41.9568 39.0183C41.2654 38.615 40.2744 38.1195 39.7559 37.9006C38.8801 37.5433 38.8225 37.4972 38.8801 37.2207C39.0875 36.2873 39.5139 33.5677 39.5715 32.7842C39.6176 32.2771 39.6752 31.5396 39.7098 31.1363L39.7789 30.4219H43.1783H46.5893L46.4856 31.3092C46.3358 32.7726 46.3588 33.0722 46.6584 33.3142C47.0041 33.6023 47.4881 33.5908 47.8453 33.3027C48.2486 32.9916 48.4215 31.747 48.4215 29.3847C48.3984 24.3605 46.6123 19.947 43.1092 16.3172C39.1451 12.2263 33.8328 10.2213 27.9674 10.6131ZM28.5781 16.951V21.3529L27.541 21.2722C26.3541 21.1801 24.3836 20.8459 23.2774 20.5347C22.4016 20.2927 22.4131 20.3849 23.0584 18.7256C24.0609 16.1443 25.8932 13.7359 27.4834 12.9293C28.6818 12.307 28.5781 11.9383 28.5781 16.951ZM31.4475 12.8947C33.1414 13.759 34.893 16.0176 35.9416 18.7256C36.5869 20.3849 36.5984 20.2927 35.7227 20.5347C34.6164 20.8459 32.6459 21.1801 31.459 21.2722L30.4219 21.3529V16.951C30.4219 13.0906 30.4449 12.5605 30.5947 12.5605C30.6984 12.5605 31.0787 12.7103 31.4475 12.8947ZM23.3811 14.1968C22.632 15.2455 21.5027 17.4234 21.0072 18.7947L20.6846 19.682L19.7627 19.2556C19.2557 19.0252 18.426 18.6103 17.9305 18.3338L17.0086 17.8267L17.9305 16.951C19.3824 15.5566 21.4221 14.266 23.335 13.5285C23.7152 13.3787 24.0379 13.2635 24.0494 13.2519C24.0609 13.2519 23.7613 13.6783 23.3811 14.1968ZM36.9441 14.1277C38.3846 14.8076 39.9287 15.8562 41.0465 16.9279L41.9914 17.8267L41.0811 18.3338C40.574 18.6103 39.7443 19.0252 39.2373 19.2556L38.3154 19.682L37.9928 18.7947C37.4973 17.4234 36.368 15.2455 35.619 14.2084L34.9275 13.2635L35.4115 13.4478C35.6766 13.54 36.368 13.8511 36.9441 14.1277ZM44.2039 20.7883C44.8953 21.9521 45.5522 23.4502 45.9324 24.7523C46.232 25.801 46.5547 27.5756 46.5547 28.1978V28.5781H43.1668H39.7789L39.7098 27.8521C39.6752 27.4603 39.6176 26.7228 39.5715 26.2158C39.5139 25.4322 39.0875 22.7127 38.8801 21.7793C38.8225 21.5027 38.8801 21.4566 39.8365 21.0533C40.3897 20.8113 41.3691 20.3158 42.0029 19.947L43.1553 19.2787L43.3973 19.5668C43.5356 19.7166 43.8928 20.2697 44.2039 20.7883ZM23.1275 22.4131C24.5104 22.7588 26.1006 23.0123 27.518 23.116L28.5781 23.1967V25.8816V28.5781H24.833H21.0879L21.157 27.6793C21.2953 25.6742 21.8139 22.125 21.9637 22.125C21.9867 22.125 22.5053 22.2517 23.1275 22.4131ZM37.3244 23.4156C37.5549 24.6486 37.6932 25.824 37.843 27.7369L37.9121 28.5781H34.167H30.4219V25.8816V23.1967L31.4936 23.116C32.8418 23.0238 35.1004 22.6435 36.0684 22.367C36.4832 22.2402 36.875 22.1365 36.9441 22.1365C37.0248 22.125 37.1746 22.6551 37.3244 23.4156ZM19.2902 30.9519C19.3248 31.2515 19.3594 31.7125 19.3594 31.989C19.3594 32.715 19.6705 35.0312 19.9471 36.3334C20.0738 36.9672 20.166 37.4857 20.143 37.5088C20.1199 37.5203 19.659 37.7277 19.1174 37.9697C18.5643 38.2002 17.5963 38.6957 16.951 39.0644L15.7871 39.7328L15.3377 39.0875C13.8166 36.8289 12.6873 33.7636 12.4914 31.3092L12.4107 30.4219H15.8102H19.2096L19.2902 30.9519ZM28.5781 33.1299V35.8379H28.0711C26.9303 35.8379 23.6576 36.3795 22.1711 36.8174C21.9406 36.8865 21.9061 36.8174 21.6756 35.5844C21.4336 34.2592 21.2723 32.9224 21.157 31.3092L21.0879 30.4219H24.833H28.5781V33.1299ZM37.8545 31.1939C37.6586 33.4295 37.5318 34.5127 37.3244 35.6074C37.1861 36.2758 37.0709 36.8289 37.0479 36.8519C37.0248 36.875 36.633 36.7828 36.1606 36.656C35.0197 36.3334 32.8649 35.9761 31.5166 35.884L30.4219 35.8033V33.1183V30.4219H34.167H37.9236L37.8545 31.1939ZM28.5781 42.0605C28.5781 45.9094 28.5551 46.4394 28.4053 46.4394C28.3016 46.4394 27.8982 46.2781 27.5065 46.0822C25.9047 45.2756 24.0725 42.8902 23.0584 40.2744C22.3785 38.5459 22.3209 38.7187 23.7959 38.3385C25.1557 37.9927 26.9994 37.7162 27.9789 37.6931L28.5781 37.6816V42.0605ZM32.6344 37.8545C33.9365 38.0273 36.3795 38.5689 36.4602 38.7072C36.5408 38.834 35.6535 41.1041 35.1926 41.9338C34.4666 43.259 33.9711 43.9388 33.0723 44.8377C32.2541 45.6674 31.0557 46.4394 30.5947 46.4394C30.4449 46.4394 30.4219 45.9094 30.4219 42.0605V37.6816H30.9174C31.1824 37.6816 31.9545 37.7623 32.6344 37.8545ZM22.0098 42.4638C22.39 43.2244 23.0123 44.273 23.3811 44.7916L24.0725 45.7365L23.5885 45.5521C21.5719 44.7916 19.4861 43.5125 17.9766 42.0951L16.9971 41.1732L17.919 40.6662C18.426 40.3896 19.2557 39.9748 19.7627 39.7443L20.6846 39.3179L21.0072 40.2052C21.1801 40.6892 21.6295 41.7033 22.0098 42.4638ZM39.7559 39.9633C39.8481 39.9978 40.3897 40.2859 40.9543 40.597L41.9914 41.1732L41.0465 42.072C39.56 43.4779 37.2322 44.9183 35.3885 45.5752L34.9391 45.725L35.619 44.7916C36.3449 43.789 37.601 41.3461 38.0389 40.09L38.3039 39.3179L38.9492 39.606C39.2949 39.7674 39.6637 39.9172 39.7559 39.9633Z" fill="black"/>
</svg>
