<svg width="59" height="59" viewBox="0 0 59 59" fill="none" xmlns="http://www.w3.org/2000/svg">
<path d="M20.1084 1.06015C19.6129 1.24453 19.175 1.55566 18.2877 2.39687C15.4184 5.05879 11.6387 6.99472 7.74375 7.78984C6.36094 8.06641 3.80273 8.28535 1.87832 8.29688H0.921875V13.1367C0.921875 16.6744 0.967969 18.4375 1.09473 19.659C2.12031 29.4078 6.39551 38.4307 13.252 45.2871C15.741 47.7877 18.4029 49.9541 19.5783 50.4381C20.3504 50.7492 21.8254 50.7953 22.5629 50.5418L23.0238 50.3805L23.1506 50.899C23.4848 52.2242 24.4412 53.4111 25.6627 54.0104L26.3311 54.333L29.765 54.3676L33.1875 54.4021V55.324V56.2344H31.3438H29.5V57.1562V58.0781H40.5625H51.625V57.1562V56.2344H49.7812H47.9375V55.324V54.4021L51.3715 54.3676L54.7939 54.333L55.4854 53.9988C56.3727 53.5609 57.2484 52.6852 57.6863 51.7979L58.0205 51.1064V41.4844V31.8623L57.6863 31.1709C57.2484 30.2836 56.3727 29.4078 55.4854 28.9699L54.7939 28.6357L52.2934 28.6012L49.7812 28.5666V24.9713C49.7812 21.7447 49.7582 21.3299 49.5623 20.915C49.3549 20.4426 48.698 19.7857 48.2141 19.5668L47.9375 19.44V16.9625C47.9375 14.1277 47.8453 13.6092 47.0963 12.1572C46.451 10.9127 45.3217 9.7834 44.0771 9.13808C42.8787 8.51582 41.9914 8.29688 40.6662 8.29688C38.7418 8.28535 36.1605 8.07793 34.8584 7.83594C30.8482 7.05234 27.1377 5.15097 23.9918 2.27011C23.4848 1.79766 22.8625 1.3252 22.6205 1.19844C22.102 0.94492 20.627 0.864258 20.1084 1.06015ZM22.7703 3.87188C26.1467 6.87949 29.5807 8.66562 33.8213 9.62207C34.5242 9.7834 35.2387 9.91016 35.423 9.91016H35.7572L35.3078 10.3941C35.0543 10.6707 34.7432 11.0279 34.6164 11.2008L34.3744 11.5234L33.0031 11.1777C28.8432 10.1637 24.9021 8.1125 21.9982 5.43906C21.2953 4.79375 21.0879 4.72461 20.8459 5.03574C20.5117 5.43906 18.6564 6.91406 17.5617 7.64004C13.9549 10.0254 9.77188 11.4889 5.54277 11.823L4.58633 11.9037L4.64395 15.5451C4.70156 19.152 4.8168 20.4195 5.25469 22.6436C7.16758 32.3002 12.549 40.8506 20.3389 46.6008L21.2146 47.2576L22.125 46.5547L23.0469 45.8633V46.935V48.0182L22.5629 48.3523C22.1365 48.652 21.9867 48.6865 21.2146 48.6865C20.3389 48.6865 20.3273 48.675 19.5322 48.1104C17.2852 46.5086 14.3236 43.7314 12.3416 41.3691C7.07539 35.0773 3.76816 27.1723 3.00762 19.0137C2.93848 18.2877 2.84629 15.9945 2.8002 13.9088L2.73105 10.1406H4.06777C9.52988 10.1406 15.0611 7.9166 19.5668 3.92949C21.1686 2.51211 21.2377 2.51211 22.7703 3.87188ZM21.9637 8.02031C23.8766 9.52988 26.6076 11.074 28.9354 11.9844C30.1453 12.4568 32.1158 13.0561 32.9225 13.2059C33.1645 13.252 33.3949 13.298 33.4295 13.3211C33.4641 13.3441 33.4295 13.6322 33.3488 13.9664C33.2336 14.3812 33.1875 15.3262 33.1875 17.0086V19.44L32.9109 19.5668C32.427 19.7857 31.7701 20.4426 31.5627 20.915C31.3668 21.3299 31.3438 21.7447 31.3438 24.9713V28.5666L28.8432 28.6012L26.3311 28.6357L25.6396 28.9699C24.7523 29.4078 23.8766 30.2836 23.4387 31.1709L23.1045 31.8623L23.0469 37.601L22.9893 43.3281L22.148 44.0195C21.6756 44.3998 21.2607 44.7109 21.2031 44.7109C20.7307 44.7109 16.225 40.3666 14.6809 38.4307C11.9844 35.0312 9.79492 31.0326 8.4582 27.0225C7.20215 23.2313 6.69512 20.2582 6.51074 15.6027L6.4416 13.7475L7.39805 13.6092C12.0996 12.9293 16.6514 10.9818 20.4426 8.02031C20.8229 7.73223 21.157 7.49023 21.2031 7.49023C21.2492 7.49023 21.5834 7.73223 21.9637 8.02031ZM42.1643 10.4748C43.8582 11.0049 45.2756 12.4453 45.8057 14.1738C45.9439 14.6348 46.0131 15.4299 46.0592 17.0777L46.1283 19.3594H45.1834H44.25V17.1123C44.25 14.4273 44.1232 13.9434 43.2129 13.0215C41.3691 11.1893 38.0043 11.8461 37.117 14.2314C36.898 14.8076 36.875 15.1303 36.875 17.1123V19.3594H35.9416H34.9967L35.0658 17.0777C35.1119 15.4299 35.1811 14.6348 35.3193 14.1738C35.8379 12.4568 37.2553 11.0164 38.9262 10.4748C39.825 10.1982 41.2539 10.1867 42.1643 10.4748ZM41.4844 14.2084C42.2564 14.7154 42.3486 15.0266 42.3832 17.3082L42.4293 19.3594H40.5625H38.6957L38.7418 17.3082C38.7764 15.499 38.7994 15.2225 39.0184 14.8652C39.3641 14.2775 39.9172 13.9434 40.5625 13.9434C40.9313 13.9434 41.2309 14.024 41.4844 14.2084ZM47.3037 21.3645C47.9375 21.6295 47.9605 21.8369 47.9145 27.1377C47.8799 31.6434 47.8684 31.8854 47.6379 32.3809C47.3498 33.0031 46.6354 33.683 46.0246 33.8904C45.3678 34.1209 35.7572 34.1209 35.1004 33.8904C34.4897 33.683 33.7752 33.0031 33.4871 32.3809C33.2566 31.8854 33.2451 31.6434 33.2105 27.1377C33.1645 21.883 33.1875 21.641 33.7982 21.376C34.3514 21.134 46.7275 21.1225 47.3037 21.3645ZM31.3668 31.5396C31.4129 32.5307 31.459 32.7611 31.7816 33.3834L32.1504 34.1094H30.4795C28.6127 34.1094 28.2209 34.2016 27.5525 34.8354C26.792 35.5613 26.7344 35.8264 26.7344 38.7188C26.7344 41.6111 26.792 41.8762 27.5525 42.6021C28.3707 43.3742 27.5871 43.3281 40.5855 43.3281C51.8209 43.3281 52.3971 43.3166 52.835 43.1092C53.0885 42.9939 53.4572 42.7174 53.6646 42.51C54.3445 41.7955 54.3906 41.5305 54.3906 38.7188C54.3906 35.907 54.3445 35.642 53.6646 34.9275C52.9963 34.2246 52.5814 34.1094 50.6801 34.1094H48.9746L49.3434 33.3834C49.666 32.7611 49.7236 32.5307 49.7582 31.5281L49.8043 30.3988L51.9016 30.4449C54.2062 30.5025 54.5865 30.5947 55.301 31.2631C55.5084 31.4705 55.7965 31.8623 55.9348 32.1504C56.1652 32.6574 56.1768 32.8188 56.2113 38.9146L56.2459 45.1719H40.5625H24.8791L24.9137 38.9146C24.9482 31.9891 24.9252 32.1965 25.7318 31.3668C26.4924 30.5602 26.9418 30.4564 29.5115 30.4334L31.3207 30.4219L31.3668 31.5396ZM51.8555 36.0799C52.4316 36.2873 52.5469 36.7021 52.5469 38.6957C52.5469 40.7008 52.4547 41.0926 51.9016 41.323C51.3254 41.565 29.7996 41.565 29.2234 41.323C28.6818 41.0926 28.5781 40.7008 28.5781 38.7188C28.5781 36.7713 28.6818 36.3449 29.2004 36.1145C29.6844 35.907 51.2563 35.8725 51.8555 36.0799ZM56.2113 48.652C56.1537 50.5533 55.9924 51.0719 55.2318 51.7518C54.3676 52.5354 55.2203 52.4893 40.5625 52.4893C25.9047 52.4893 26.7574 52.5354 25.8932 51.7518C25.1326 51.0719 24.9713 50.5533 24.9137 48.652L24.8561 47.0156H40.5625H56.2689L56.2113 48.652ZM46.0938 55.3125V56.2344H40.5625H35.0312V55.3125V54.3906H40.5625H46.0938V55.3125Z" fill="black"/>
<path d="M8.85 16.5591L8.29688 16.6052V17.2044C8.29688 18.1378 8.61953 20.6384 8.94219 22.2287C9.28789 23.9687 9.72578 25.5244 10.3711 27.3105C10.6361 28.0365 10.8781 28.7279 10.9127 28.8431C10.9473 28.9583 11.0049 29.039 11.051 29.016C11.0855 28.9929 11.5004 28.8316 11.9613 28.6472C12.4107 28.4628 12.791 28.2669 12.791 28.2208C12.791 28.1632 12.6412 27.7484 12.4568 27.2874C11.3391 24.4642 10.4979 20.7191 10.302 17.6538L10.2213 16.4785L9.80645 16.5015C9.57598 16.513 9.14961 16.5361 8.85 16.5591Z" fill="black"/>
<path d="M12.6527 30.3758C12.2148 30.5947 11.8691 30.8021 11.8691 30.8367C11.8691 31.0096 12.8486 32.7266 12.9408 32.7266C13.1021 32.7266 14.6348 31.8738 14.6002 31.8047C14.5887 31.7701 14.3697 31.3438 14.1162 30.8482C13.8627 30.3643 13.6092 29.9609 13.54 29.9609C13.4824 29.9725 13.0791 30.1568 12.6527 30.3758Z" fill="black"/>
<path d="M39.0875 23.2889C38.2693 23.6115 37.4281 24.4527 37.117 25.2939C36.6676 26.4809 36.8404 28.002 37.5088 28.8777C37.7854 29.235 37.7969 29.3387 37.7969 30.7561V32.2656H40.5625H43.3281V30.7561C43.3281 29.3387 43.3396 29.235 43.6162 28.8777C44.2846 28.002 44.4574 26.4809 44.008 25.2939C43.6854 24.4412 42.8557 23.6115 42.0029 23.2889C41.1502 22.9662 39.9287 22.9662 39.0875 23.2889ZM41.4613 25.2363C42.4523 25.8355 42.5906 27.276 41.7264 28.048C41.5189 28.2439 41.4844 28.3937 41.4844 29.3502V30.4219H40.5625H39.6406V29.3502C39.6406 28.3937 39.6061 28.2439 39.3986 28.048C38.2232 26.9764 38.9723 25.0059 40.5625 25.0059C40.8736 25.0059 41.2309 25.098 41.4613 25.2363Z" fill="black"/>
<path d="M30.4219 38.7188V39.6406H31.3438H32.2656V38.7188V37.7969H31.3438H30.4219V38.7188Z" fill="black"/>
<path d="M34.1094 38.7188V39.6406H35.0312H35.9531V38.7188V37.7969H35.0312H34.1094V38.7188Z" fill="black"/>
<path d="M37.7969 38.7188V39.6406H38.7188H39.6406V38.7188V37.7969H38.7188H37.7969V38.7188Z" fill="black"/>
<path d="M41.4844 38.7188V39.6406H42.4062H43.3281V38.7188V37.7969H42.4062H41.4844V38.7188Z" fill="black"/>
<path d="M45.1719 38.7188V39.6406H46.0938H47.0156V38.7188V37.7969H46.0938H45.1719V38.7188Z" fill="black"/>
<path d="M48.8594 38.7188V39.6406H49.7812H50.7031V38.7188V37.7969H49.7812H48.8594V38.7188Z" fill="black"/>
<path d="M49.0898 49.0898C48.94 49.2396 48.8594 49.4701 48.8594 49.7812C48.8594 50.392 49.1705 50.7031 49.7812 50.7031C50.392 50.7031 50.7031 50.392 50.7031 49.7812C50.7031 49.1705 50.392 48.8594 49.7812 48.8594C49.4701 48.8594 49.2396 48.94 49.0898 49.0898Z" fill="black"/>
<path d="M52.7773 49.0898C52.6275 49.2396 52.5469 49.4701 52.5469 49.7812C52.5469 50.392 52.858 50.7031 53.4688 50.7031C54.0795 50.7031 54.3906 50.392 54.3906 49.7812C54.3906 49.1705 54.0795 48.8594 53.4688 48.8594C53.1576 48.8594 52.9271 48.94 52.7773 49.0898Z" fill="black"/>
</svg>
