<svg width="59" height="59" viewBox="0 0 59 59" fill="none" xmlns="http://www.w3.org/2000/svg">
<path d="M23.6461 1.15234C20.8229 1.90137 18.4721 4.26367 17.7461 7.09844C17.5271 7.93965 17.5156 8.41211 17.5156 16.4439V24.8906H29.5H41.4844V16.4439C41.4844 8.41211 41.4729 7.93965 41.2539 7.09844C40.5279 4.24063 38.1656 1.87832 35.3078 1.15234C34.4896 0.944921 34.0287 0.921875 29.4539 0.933397C24.9482 0.933397 24.4066 0.956446 23.6461 1.15234ZM34.7432 3.01914C37.0709 3.69902 38.6727 5.3123 39.3871 7.66309C39.5369 8.14707 39.5715 9.44922 39.6061 15.6373L39.6521 23.0469H36.4832H33.3027L33.3834 22.6666C33.4871 22.0904 33.948 20.915 34.3053 20.3158C34.4781 20.0162 35.0312 19.3018 35.5152 18.7256C37.14 16.8473 37.7969 15.1648 37.7969 12.9062C37.7969 10.5094 37.0479 8.7002 35.377 7.0293C33.7061 5.3584 31.8969 4.60938 29.5 4.60938C27.1031 4.60938 25.3055 5.34687 23.623 7.0293C21.9521 8.68867 21.2031 10.5094 21.2031 12.9062C21.2031 15.2109 21.883 16.9279 23.5193 18.7371C24.6141 19.9471 25.1326 20.8229 25.4553 22.0098C25.5936 22.4822 25.6973 22.9086 25.6973 22.9547C25.6973 23.0123 24.2684 23.0469 22.5283 23.0469H19.3594V16.3287C19.3594 9.35703 19.417 8.20469 19.8088 7.07539C20.6039 4.85137 22.7012 3.18047 25.1211 2.88086C25.5359 2.82324 27.7369 2.8002 30.0186 2.82324C33.2566 2.84629 34.2938 2.89238 34.7432 3.01914ZM30.9289 6.69512C32.3232 6.96016 33.8443 8.00879 34.7201 9.29941C35.4691 10.3826 35.7457 11.2238 35.8148 12.549C35.907 14.3812 35.4691 15.6719 34.2592 17.1008C32.6344 19.0252 31.966 20.2236 31.5396 21.9867L31.2861 23.0469H30.8598H30.4219L30.4334 19.3248V15.6143L30.975 15.2686C31.8162 14.727 32.1965 14.0932 32.2426 13.1367C32.3002 12.1687 32.1389 11.6387 31.5857 11.0279C31.0326 10.4057 30.4219 10.1406 29.523 10.1406C28.3361 10.1406 27.4143 10.6937 26.9533 11.6963C26.6652 12.307 26.6652 13.4939 26.9533 14.1162C27.1607 14.5887 27.8176 15.2455 28.3016 15.4645L28.5781 15.5912V19.3248V23.0469H28.1402H27.7139L27.5064 22.0443C27.1492 20.3273 26.4463 18.9791 25.2709 17.723C23.6807 16.0291 23.2197 14.9459 23.2197 12.9062C23.2197 11.293 23.4271 10.567 24.2223 9.38008C25.2709 7.81289 26.8842 6.81035 28.751 6.57988C29.477 6.4877 29.984 6.51074 30.9289 6.69512ZM30.0762 12.3301C30.2029 12.4568 30.3066 12.7104 30.3066 12.9062C30.3066 13.1021 30.2029 13.3557 30.0762 13.4824C29.9494 13.6092 29.6959 13.7129 29.5 13.7129C29.3041 13.7129 29.0506 13.6092 28.9238 13.4824C28.7971 13.3557 28.6934 13.1021 28.6934 12.9062C28.6934 12.7104 28.7971 12.4568 28.9238 12.3301C29.0506 12.2033 29.3041 12.0996 29.5 12.0996C29.6959 12.0996 29.9494 12.2033 30.0762 12.3301Z" fill="black"/>
<path d="M2.47754 8.51582C1.475 8.97676 0.921875 9.89863 0.921875 11.0855C0.933398 12.2609 1.54414 13.2289 2.5582 13.6438C3.1459 13.8973 4.32129 13.8742 4.89746 13.6092C5.36992 13.4018 6.02676 12.7449 6.2457 12.2609C6.37246 11.9844 6.37246 11.9844 8.42363 11.9844H10.4863L11.4082 13.3672L12.3301 14.75H14.001H15.6719V13.8281V12.9063H14.5771H13.4824L12.5605 11.5234L11.6387 10.1406H8.9998H6.37246L6.2457 9.86406C6.02676 9.38008 5.36992 8.72324 4.89746 8.51582C4.2752 8.22773 3.08828 8.22773 2.47754 8.51582ZM4.26367 10.4863C4.75918 10.9818 4.39043 11.8691 3.6875 11.8691C3.24961 11.8691 2.88086 11.5004 2.88086 11.0625C2.88086 10.6246 3.24961 10.2559 3.6875 10.2559C3.8834 10.2559 4.13691 10.3596 4.26367 10.4863Z" fill="black"/>
<path d="M54.2063 8.4582C53.7107 8.67715 53.0885 9.2418 52.835 9.72578L52.6045 10.1406H49.9887H47.3613L46.4395 11.5234L45.5176 12.9062H44.4229H43.3281V13.8281V14.75H44.999H46.6699L47.5918 13.3672L48.5137 11.9844L50.5648 11.9959H52.6045L52.9502 12.5375C53.4918 13.3787 54.1256 13.759 55.082 13.8051C56.05 13.8627 56.5801 13.7014 57.1908 13.1482C57.8246 12.5836 58.0781 11.9844 58.0781 11.0625C58.0781 9.86406 57.4674 8.90762 56.4418 8.48125C55.9117 8.2623 54.6902 8.25078 54.2063 8.4582ZM55.8887 10.4863C56.0154 10.6131 56.1191 10.8666 56.1191 11.0625C56.1191 11.2584 56.0154 11.5119 55.8887 11.6387C55.7619 11.7654 55.5084 11.8691 55.3125 11.8691C55.1166 11.8691 54.8631 11.7654 54.7363 11.6387C54.6096 11.5119 54.5059 11.2584 54.5059 11.0625C54.5059 10.8666 54.6096 10.6131 54.7363 10.4863C54.8631 10.3596 55.1166 10.2559 55.3125 10.2559C55.5084 10.2559 55.7619 10.3596 55.8887 10.4863Z" fill="black"/>
<path d="M6.16504 15.8908C5.1625 16.3518 4.60938 17.2736 4.60938 18.4606C4.6209 19.6359 5.23164 20.6039 6.2457 21.0188C6.8334 21.2723 8.00879 21.2492 8.58496 20.9842C9.05742 20.7768 9.71426 20.1199 9.9332 19.6359L10.06 19.3594H12.8717H15.6719V18.4375V17.5156H12.8717H10.06L9.9332 17.2391C9.71426 16.7551 9.05742 16.0983 8.58496 15.8908C7.9627 15.6027 6.77578 15.6027 6.16504 15.8908ZM7.95117 17.8613C8.44668 18.3568 8.07793 19.2442 7.375 19.2442C6.93711 19.2442 6.56836 18.8754 6.56836 18.4375C6.56836 17.9996 6.93711 17.6309 7.375 17.6309C7.5709 17.6309 7.82441 17.7346 7.95117 17.8613Z" fill="black"/>
<path d="M50.5188 15.8332C50.0232 16.0522 49.401 16.6168 49.1475 17.1008L48.917 17.5156H46.1283H43.3281V18.4375V19.3594L46.1283 19.3709H48.917L49.2627 19.9125C49.8043 20.7537 50.4381 21.134 51.3945 21.1801C52.3625 21.2377 52.8926 21.0764 53.5033 20.5233C54.1371 19.9586 54.3906 19.3594 54.3906 18.4375C54.3906 17.2391 53.7799 16.2826 52.7543 15.8563C52.2242 15.6373 51.0027 15.6258 50.5188 15.8332ZM52.2012 17.8613C52.3279 17.9881 52.4316 18.2416 52.4316 18.4375C52.4316 18.6334 52.3279 18.8869 52.2012 19.0137C52.0744 19.1404 51.8209 19.2442 51.625 19.2442C51.4291 19.2442 51.1756 19.1404 51.0488 19.0137C50.9221 18.8869 50.8184 18.6334 50.8184 18.4375C50.8184 18.2416 50.9221 17.9881 51.0488 17.8613C51.1756 17.7346 51.4291 17.6309 51.625 17.6309C51.8209 17.6309 52.0744 17.7346 52.2012 17.8613Z" fill="black"/>
<path d="M2.47754 23.2658C1.475 23.7268 0.921875 24.6486 0.921875 25.8356C0.933398 27.0109 1.54414 27.9789 2.5582 28.3938C3.1459 28.6473 4.32129 28.6242 4.89746 28.3592C5.36992 28.1518 6.02676 27.4949 6.2457 27.0109L6.37246 26.7344H8.97676H11.5811L12.5029 25.8125L13.4248 24.8906H14.5426H15.6719V23.9688V23.0469H14.024H12.3877L11.4658 23.9688L10.5439 24.8906H8.4582C6.37246 24.8906 6.37246 24.8906 6.2457 24.6141C6.02676 24.1301 5.36992 23.4733 4.89746 23.2658C4.2752 22.9777 3.08828 22.9777 2.47754 23.2658ZM4.26367 25.2363C4.75918 25.7318 4.39043 26.6192 3.6875 26.6192C3.24961 26.6192 2.88086 26.2504 2.88086 25.8125C2.88086 25.3746 3.24961 25.0059 3.6875 25.0059C3.8834 25.0059 4.13691 25.1096 4.26367 25.2363Z" fill="black"/>
<path d="M43.3281 23.9688V24.8906H44.4574H45.5752L46.4971 25.8125L47.4189 26.7344L50.0117 26.7459H52.6045L52.9502 27.2875C53.4918 28.1287 54.1256 28.509 55.082 28.5551C56.05 28.6127 56.5801 28.4514 57.1908 27.8983C57.8246 27.3336 58.0781 26.7344 58.0781 25.8125C58.0781 24.8906 57.8246 24.2914 57.1908 23.7268C56.5801 23.1736 56.05 23.0123 55.082 23.0699C54.1256 23.116 53.4918 23.4963 52.9502 24.3375L52.6045 24.8791H50.5303L48.4561 24.8906L47.5342 23.9688L46.6123 23.0469H44.976H43.3281V23.9688ZM55.8887 25.2363C56.0154 25.3631 56.1191 25.6166 56.1191 25.8125C56.1191 26.0084 56.0154 26.2619 55.8887 26.3887C55.7619 26.5154 55.5084 26.6192 55.3125 26.6192C55.1166 26.6192 54.8631 26.5154 54.7363 26.3887C54.6096 26.2619 54.5059 26.0084 54.5059 25.8125C54.5059 25.6166 54.6096 25.3631 54.7363 25.2363C54.8631 25.1096 55.1166 25.0059 55.3125 25.0059C55.5084 25.0059 55.7619 25.1096 55.8887 25.2363Z" fill="black"/>
<path d="M17.4926 27.6678L17.458 28.6127L16.974 28.751C15.8447 29.0852 14.7846 30.0301 14.1969 31.2285C13.9088 31.8047 13.8857 31.9775 13.8857 33.1875C13.8857 34.4205 13.9088 34.5588 14.2199 35.2041C14.4158 35.5844 14.8307 36.1605 15.1418 36.4832C15.6949 37.0248 16.8242 37.6816 17.216 37.6816C17.435 37.6816 17.4926 37.7854 17.7 38.5574C18.3568 41.0811 20.65 43.0631 23.1967 43.3166L23.9688 43.3857L23.6807 43.8121L23.4041 44.227L22.1596 44.3076C21.4797 44.3422 20.4426 44.4574 19.8664 44.5496C13.8512 45.4715 9.21875 50.8414 9.21875 56.8797V58.0781H29.5H49.7812V56.8797C49.7812 50.8299 45.1604 45.483 39.1221 44.5381C38.5574 44.4574 37.5203 44.3422 36.8404 44.3076L35.5959 44.227L35.3193 43.8121L35.0312 43.3857L35.8033 43.3166C38.35 43.0631 40.6432 41.0811 41.3115 38.5459C41.5074 37.7854 41.565 37.6816 41.784 37.6816C42.1758 37.6816 43.3051 37.0248 43.8582 36.4832C44.1693 36.1605 44.5842 35.5844 44.7801 35.2041C45.0912 34.5588 45.1143 34.4205 45.1143 33.1875C45.1143 31.9775 45.0912 31.8047 44.8031 31.2285C44.2154 30.0301 43.1553 29.0852 42.026 28.751L41.542 28.6127L41.5074 27.6678L41.4729 26.7344H29.5H17.5271L17.4926 27.6678ZM39.6406 32.5768C39.6406 36.898 39.56 37.8545 39.1221 38.7994C38.7648 39.583 37.7393 40.6086 36.9557 40.9658C35.9762 41.4152 35.0543 41.4844 29.5 41.4844C23.9457 41.4844 23.0238 41.4152 22.0443 40.9658C21.2607 40.6086 20.2352 39.583 19.8779 38.7994C19.44 37.8545 19.3594 36.898 19.3594 32.5768V28.5781H29.5H39.6406V32.5768ZM17.5156 33.1875V35.7342L17.2045 35.5613C16.7436 35.3193 16.1674 34.6971 15.9715 34.2016C15.5912 33.3143 15.8102 32.1043 16.4555 31.4129C16.709 31.1479 17.3773 30.6523 17.4926 30.6523C17.5041 30.6523 17.5156 31.7932 17.5156 33.1875ZM42.4869 31.3668C42.9709 31.8738 43.2129 32.473 43.2129 33.1875C43.2129 34.167 42.6367 35.1234 41.807 35.5613L41.4844 35.7342V33.1875V30.6408L41.807 30.8137C41.9799 30.9059 42.2795 31.1479 42.4869 31.3668ZM33.1529 44.1348C33.6139 44.8377 33.66 44.976 33.5217 45.1143C33.0723 45.5406 29.5807 48.3984 29.5 48.3984C29.4193 48.3984 25.9277 45.5406 25.4783 45.1143C25.34 44.976 25.3861 44.8377 25.8471 44.1348L26.3887 43.3281H29.5H32.6113L33.1529 44.1348ZM25.7549 47.9605C27.5641 49.4701 27.8406 49.7352 27.6678 49.8504C24.6486 52.0283 23.9227 52.5354 23.8996 52.5123C23.8766 52.5008 23.7613 51.2908 23.6346 49.8389C23.4963 48.3754 23.3695 46.9695 23.3234 46.693C23.2773 46.2896 23.3004 46.209 23.4502 46.209C23.5539 46.209 24.591 47.0041 25.7549 47.9605ZM35.6766 46.693C35.6305 46.9695 35.5037 48.3754 35.3654 49.8389C35.2387 51.2908 35.1234 52.5008 35.1004 52.5123C35.0889 52.5238 34.19 51.9016 33.1068 51.1295L31.1363 49.7236L31.4936 49.424C31.701 49.2512 32.6459 48.4676 33.5908 47.6725C34.5473 46.8773 35.4115 46.2205 35.5268 46.209C35.7111 46.209 35.7227 46.2781 35.6766 46.693ZM21.3184 46.4049C21.376 47.3613 22.2287 56.027 22.2633 56.073C22.2979 56.1076 23.8996 55.0014 25.824 53.6301C27.7484 52.2473 29.4078 51.118 29.5 51.118C29.5922 51.118 31.2516 52.2473 33.176 53.6301C35.1004 55.0014 36.7021 56.1076 36.7367 56.073C36.7713 56.0385 36.9902 53.849 37.2322 51.2102C37.4742 48.5713 37.6932 46.3818 37.7277 46.3588C37.7623 46.3242 38.1656 46.3588 38.6266 46.4395C43.4088 47.2461 47.1078 50.9797 47.7762 55.6812L47.8453 56.2344H45.5522H43.2475L42.8672 53.9066C42.6598 52.616 42.4523 51.5328 42.4178 51.4867C42.3371 51.4061 40.7123 51.6596 40.5971 51.7748C40.5395 51.8439 41.0234 55.1512 41.2193 55.9809L41.277 56.2344H29.5H17.723L17.7807 55.9809C17.9766 55.1512 18.4605 51.8439 18.4029 51.7748C18.2877 51.6596 16.6629 51.4061 16.5822 51.4867C16.5477 51.5328 16.3402 52.616 16.1328 53.9066L15.7525 56.2344H13.4479H11.1547L11.2238 55.6928C11.8691 51.1064 15.3953 47.4189 20.0047 46.5086C20.9381 46.3127 21.3184 46.2896 21.3184 46.4049Z" fill="black"/>
<path d="M24.9136 35.2387C24.9482 36.1951 25.0058 36.4717 25.2939 37.0479C25.7203 37.9352 26.6076 38.8109 27.4834 39.2488C28.1287 39.56 28.267 39.583 29.5 39.583C30.733 39.583 30.8713 39.56 31.5166 39.2488C32.4039 38.8109 33.2797 37.9352 33.706 37.0479C33.9941 36.4717 34.0517 36.1951 34.0863 35.2387L34.1324 34.1094H29.5H24.8676L24.9136 35.2387ZM31.8738 36.2643C31.4359 37.1055 30.4795 37.6816 29.5 37.6816C28.5205 37.6816 27.564 37.1055 27.1261 36.2643L26.9533 35.9531H29.5H32.0467L31.8738 36.2643Z" fill="black"/>
</svg>
