<svg width="59" height="59" viewBox="0 0 59 59" fill="none" xmlns="http://www.w3.org/2000/svg">
<g clip-path="url(#clip0_72_2483)">
<path d="M3 8.03842C3.08008 7.75035 3.14929 7.45958 3.2443 7.17555C3.8659 5.32595 5.60719 4.02019 7.5765 4.01615C15.9396 4.00134 24.3027 3.98653 32.6658 4.02153C36.128 4.03634 38.3009 7.74766 36.6994 10.7926C36.6302 10.9232 36.5569 11.0524 36.4416 11.2624C36.6804 11.2624 36.8569 11.2624 37.0333 11.2624C39.5563 11.2624 42.078 11.249 44.6011 11.2678C46.5772 11.2826 48.2845 12.5103 48.9441 14.3411C49.6065 16.1772 49.0609 18.1816 47.5449 19.4456C46.7129 20.1403 45.7452 20.5051 44.6594 20.5266C43.78 20.5441 42.9005 20.5306 41.9762 20.5306C42.1568 21.0274 42.3617 21.3545 42.9086 21.5443C49.6024 23.8516 53.7107 28.4554 54.7964 35.4096C56.2052 44.4301 50.1521 52.9081 41.1497 54.6406C35.1454 55.7969 29.9053 54.1412 25.5079 49.9197C25.227 49.6504 24.961 49.5441 24.5796 49.5454C20.7713 49.5575 16.9616 49.5683 13.1533 49.5468C10.4388 49.532 8.34739 47.3149 8.4994 44.6347C8.5754 43.2953 9.18615 42.1995 10.2421 41.2963C9.13729 40.327 8.49668 39.1478 8.49126 37.6872C8.48718 36.2226 9.10064 35.03 10.2393 34.0405C9.14136 33.0767 8.49804 31.8975 8.49126 30.4369C8.48583 28.971 9.09793 27.7783 10.3221 26.7148C10.1606 26.6152 9.99233 26.5533 9.88103 26.4362C8.51026 24.9971 8.1221 23.3306 8.81563 21.4689C9.46166 19.7337 11.1745 18.5626 13.046 18.5235C13.9255 18.506 14.805 18.5208 15.774 18.5208C14.7507 16.7776 14.7127 15.0626 15.7727 13.3045C15.5487 13.2951 15.3736 13.2803 15.1986 13.2803C12.7773 13.279 10.3574 13.2803 7.93616 13.279C5.4104 13.2749 3.67589 11.9153 3.08415 9.47745C3.06515 9.39938 3.0285 9.32399 3 9.24726C3 8.84477 3 8.44092 3 8.03842ZM52.9832 37.8542C52.9764 29.5202 46.1225 22.737 37.7214 22.7504C29.3379 22.7639 22.5153 29.535 22.5071 37.8488C22.4976 46.1801 29.3434 52.9767 37.7431 52.9781C46.1415 52.9808 52.99 46.1841 52.9832 37.8542ZM20.1347 11.2624C24.2484 11.2624 28.3621 11.2665 32.4744 11.2597C34.0936 11.2571 35.2974 10.0078 35.1984 8.46246C35.1088 7.05574 33.9402 6.02459 32.4161 6.02459C26.3901 6.0219 20.3641 6.02325 14.3367 6.02325C12.1191 6.02325 9.90139 6.01652 7.68372 6.02594C6.47852 6.03132 5.46469 6.79459 5.13896 7.90112C4.63815 9.60938 5.90035 11.2544 7.74072 11.2597C11.8734 11.2692 16.0034 11.2624 20.1347 11.2624ZM32.1175 18.5182C36.2312 18.5182 40.3449 18.5222 44.4572 18.5155C46.0601 18.5128 47.2517 17.3026 47.1879 15.772C47.1282 14.3424 45.9515 13.279 44.4084 13.279C36.2149 13.2763 28.0228 13.2776 19.8294 13.2776C19.7276 13.2776 19.6258 13.2763 19.5253 13.2817C18.3975 13.3382 17.4162 14.1216 17.119 15.2013C16.6521 16.8987 17.9076 18.5101 19.7262 18.5141C23.8562 18.5249 27.9875 18.5182 32.1175 18.5182ZM38.8004 20.7581C38.8072 20.7124 38.8153 20.6666 38.8221 20.6208C38.4937 20.5912 38.1666 20.536 37.8381 20.536C29.6786 20.5306 21.5177 20.532 13.3582 20.5333C13.1383 20.5333 12.9157 20.5347 12.7013 20.5751C11.34 20.8308 10.4171 22.0235 10.5257 23.3723C10.6329 24.701 11.7648 25.7618 13.1451 25.7658C17.157 25.7793 21.1703 25.7752 25.1822 25.7577C25.4007 25.7564 25.6626 25.6191 25.8282 25.4656C27.9943 23.4518 30.4997 22.0464 33.3702 21.2926C35.1481 20.8281 36.9614 20.6639 38.8004 20.7581ZM23.5888 27.7917C20.1157 27.7917 16.5653 27.785 13.0148 27.8025C12.6891 27.8039 12.3444 27.9115 12.0417 28.0448C10.941 28.5321 10.3208 29.7665 10.5691 30.9094C10.8365 32.1452 11.8571 33.0134 13.122 33.0215C15.7089 33.0377 18.2971 33.0269 20.8839 33.0255C20.9803 33.0255 21.0753 33.008 21.1716 33C21.1309 32.9704 21.0888 32.9407 21.0481 32.9111C21.8937 31.2083 22.7392 29.5054 23.5888 27.7917ZM23.3079 47.5329C22.5031 45.7951 21.7077 44.0733 20.8866 42.3005C18.3378 42.3005 15.6817 42.2776 13.0257 42.3099C11.6291 42.3274 10.5203 43.5268 10.5189 44.9107C10.5176 46.2972 11.6196 47.5087 13.0162 47.5208C16.4676 47.5545 19.9203 47.5329 23.3079 47.5329ZM20.5758 40.2826C20.5758 38.5044 20.5758 36.7907 20.5758 35.0434C18.1396 35.0434 15.6559 35.034 13.1723 35.0475C11.682 35.0555 10.5203 36.2186 10.5189 37.6617C10.5189 39.1047 11.6793 40.2651 13.1695 40.2799C14.7765 40.2947 16.3834 40.284 17.9903 40.284C18.8508 40.2826 19.7113 40.2826 20.5758 40.2826Z" fill="black"/>
<path d="M38.7949 44.5485C38.6877 45.5689 38.3904 45.9727 37.758 45.9848C37.1174 45.9983 36.8188 45.6052 36.6817 44.5458C35.8294 44.3102 35.0639 43.9077 34.4613 43.2333C33.856 42.5562 33.5113 41.7714 33.4814 40.8641C33.4597 40.2139 33.8547 39.7576 34.4383 39.7253C35.0178 39.693 35.4439 40.1076 35.5077 40.7631C35.6041 41.7512 36.3275 42.4768 37.3454 42.6074C38.48 42.7527 39.5115 42.2291 39.8589 41.3312C40.2661 40.2772 39.5318 39.1101 38.2873 38.8745C37.7743 38.7776 37.2395 38.787 36.7306 38.6766C34.9187 38.2849 33.5859 36.8136 33.4841 35.1376C33.3756 33.354 34.4803 31.7857 36.3126 31.1813C36.6546 31.0682 36.7401 30.9174 36.7374 30.5823C36.7306 29.9698 37.1649 29.5309 37.7213 29.5188C38.2751 29.5067 38.765 29.9455 38.7406 30.5432C38.723 30.9821 38.9143 31.0951 39.278 31.219C40.8416 31.7534 41.9232 33.1399 42.0033 34.649C42.0373 35.3005 41.7197 35.7636 41.1781 35.8511C40.5538 35.9534 40.0313 35.567 39.9879 34.9182C39.9309 34.0499 39.4843 33.467 38.7026 33.148C37.8231 32.7886 36.9681 32.8869 36.2176 33.4805C35.6285 33.9463 35.3693 34.5641 35.5742 35.3126C35.786 36.0893 36.5324 36.6668 37.4065 36.7597C37.8435 36.8055 38.29 36.8095 38.7162 36.9024C40.5755 37.3062 41.9097 38.7897 42.0033 40.5195C42.0983 42.2749 40.9542 43.8256 39.1111 44.4408C39.0134 44.4758 38.917 44.5081 38.7949 44.5485Z" fill="black"/>
<path d="M50.9581 37.5108C50.9351 39.9917 50.4505 42.0271 49.4435 43.9346C49.1856 44.4246 48.7622 44.6306 48.2709 44.5054C47.8121 44.3882 47.5258 44.0719 47.519 43.6088C47.5149 43.3409 47.6303 43.0542 47.7497 42.8038C49.2087 39.7575 49.3322 36.6695 48.0144 33.5545C46.9897 31.1328 45.2864 29.3034 42.9479 28.0622C42.8285 27.9989 42.7063 27.9424 42.5896 27.8738C42.0454 27.5547 41.8594 27.0109 42.12 26.5061C42.3806 25.9986 42.9655 25.7765 43.5044 26.0915C44.4476 26.642 45.4248 27.1765 46.2541 27.8738C49.3471 30.4718 50.8604 33.8358 50.9581 37.5108Z" fill="black"/>
<path d="M24.5308 38.2432C24.5525 35.7434 25.0384 33.7094 26.04 31.7992C26.2802 31.3429 26.6494 31.1289 27.161 31.215C27.632 31.2944 27.936 31.604 27.9631 32.0631C27.9794 32.3444 27.8668 32.654 27.7406 32.9179C26.268 35.9817 26.1553 39.0886 27.4895 42.2144C28.506 44.597 30.193 46.4022 32.4894 47.6393C32.6523 47.7268 32.8233 47.8049 32.978 47.9058C33.4734 48.2289 33.6213 48.7808 33.3499 49.2628C33.0934 49.7191 32.5301 49.9399 32.0375 49.6572C31.1037 49.1228 30.1387 48.6045 29.3176 47.9233C26.1771 45.3213 24.6312 41.9397 24.5308 38.2432Z" fill="black"/>
<path d="M40.3434 25.7966C40.3285 26.3566 39.8548 26.7901 39.2739 26.778C38.6958 26.7659 38.2411 26.3068 38.2547 25.7482C38.2683 25.1895 38.7419 24.7547 39.3215 24.7668C39.901 24.779 40.3597 25.2407 40.3434 25.7966Z" fill="black"/>
<path d="M37.2327 49.9465C37.2381 50.5038 36.7767 50.9574 36.1985 50.9615C35.619 50.9655 35.1508 50.5226 35.1453 49.964C35.1386 49.4067 35.6014 48.9544 36.1809 48.949C36.7591 48.945 37.2273 49.3892 37.2327 49.9465Z" fill="black"/>
</g>
<defs>
<clipPath id="clip0_72_2483">
<rect width="52" height="51" fill="white" transform="translate(3 4)"/>
</clipPath>
</defs>
</svg>
