<svg width="59" height="55" viewBox="0 0 59 55" fill="none" xmlns="http://www.w3.org/2000/svg">
<path d="M4.01014 0.523628C2.17791 1.11132 0.772054 2.52871 0.218929 4.33789C-1.5934e-05 5.07539 -1.59368e-05 5.42109 0.0230309 21.9687L0.0576013 38.8506L0.368734 39.5881L0.679867 40.3256L0.368734 40.9133C0.0806481 41.4434 0.0576013 41.6162 0.0576013 42.7686C0.0576013 43.8287 0.103695 44.1283 0.311117 44.5893C0.69139 45.3959 1.61327 46.3062 2.45448 46.698C3.07674 46.9977 3.29569 47.0322 4.26366 47.0322C5.89998 47.0322 6.31483 46.8018 8.35448 44.7852L9.97928 43.1719H15.4644H20.9496L20.4195 45.2461L19.8894 47.3203H18.8754C17.5502 47.3203 16.7896 47.5969 16.0176 48.3574C15.3031 49.0834 14.9805 49.9016 14.9805 51.0078C14.9805 52.5059 15.718 53.7273 16.9971 54.3496L17.5732 54.6377L29.3502 54.6723C41.0234 54.6953 41.1271 54.6953 41.7609 54.4648C43.0976 53.9578 43.9273 52.7363 43.9965 51.1807C44.0541 49.9592 43.7545 49.141 42.9824 48.3574C42.2103 47.5969 41.4498 47.3203 40.1246 47.3203H39.1105L38.5805 45.2461L38.0504 43.1719H46.1514C53.9066 43.1719 54.2869 43.1603 54.9898 42.9414C56.7875 42.3883 58.2164 40.9594 58.7695 39.1502C58.9885 38.4473 59 37.9979 59 21.7383C59 5.42109 59 5.04081 58.7695 4.31484C58.2164 2.51718 56.7875 1.08828 54.9783 0.535152C54.2754 0.316204 53.8605 0.304684 44.1924 0.304684H34.1439L33.8328 0.60429C33.4064 1.04218 33.4064 1.87187 33.8328 2.29824L34.1324 2.59785L43.9965 2.63242C55.1973 2.67851 54.4828 2.60937 55.5199 3.63496C56.1652 4.25722 56.4418 4.7873 56.5801 5.69765C56.6492 6.07792 56.6953 11.8166 56.6953 19.399V32.4551H45.4599H34.2246L34.7201 31.7752C37.1746 28.4449 37.9121 23.5129 36.5639 19.376C33.9711 11.3902 24.7869 7.49531 17.216 11.1828C10.4863 14.467 7.57088 22.326 10.4978 29.2861L10.832 30.0928L9.59901 31.3258L8.35448 32.5703H5.32381H2.29315L2.32772 18.9957C2.36229 6.19316 2.37381 5.39804 2.56971 4.89101C3.01912 3.73867 4.05623 2.93203 5.38143 2.72461C5.7617 2.65546 10.0599 2.60937 15.4529 2.60937H24.856L25.1672 2.30976C25.5935 1.87187 25.5935 1.04218 25.1672 0.60429L24.856 0.304684L14.7615 0.316204C5.32381 0.316204 4.62088 0.327728 4.01014 0.523628ZM25.6396 12.4504C30.0185 13.3953 33.2566 16.5297 34.5357 21.0469C34.8584 22.1877 34.8238 25.3682 34.4781 26.6357C34.19 27.6613 33.3949 29.4014 32.8187 30.2311C32.2656 31.0492 30.8021 32.5357 30.007 33.1004C26.6076 35.5318 22.0904 35.9236 18.3568 34.126C13.3787 31.7061 10.7859 26.2094 12.1457 20.9086C12.6873 18.7883 13.6322 17.175 15.257 15.5732C17.1353 13.7064 19.2902 12.6578 22.0674 12.243C22.7012 12.1508 24.8215 12.2775 25.6396 12.4504ZM10.0715 39.6111C7.4787 42.2039 5.18553 44.4049 4.96659 44.5086C3.81424 45.0617 2.41991 44.1168 2.41991 42.7801C2.41991 42.4228 2.50057 42.0771 2.60428 41.9043C2.70799 41.743 4.89745 39.5074 7.45565 36.9377L12.1226 32.2592L13.4478 33.5844L14.773 34.9096L10.0715 39.6111ZM4.32127 36.6035C3.28416 37.6406 2.55819 38.2859 2.48905 38.2168C2.43143 38.1592 2.36229 37.3871 2.32772 36.4998L2.2701 34.875H4.15995H6.04979L4.32127 36.6035ZM56.6607 36.4537C56.6262 37.3295 56.534 38.2283 56.4533 38.4473C56.2228 39.0926 55.6928 39.7955 55.1627 40.1527C54.1371 40.8557 55.7273 40.8096 33.0723 40.8441L12.2724 40.8672L14.5771 38.5625C15.8447 37.2949 16.9394 36.2578 17.0086 36.2578C17.0777 36.2578 17.481 36.4076 17.8959 36.6035C19.3709 37.2719 20.7191 37.5484 22.8164 37.6061C24.3029 37.6521 24.9482 37.6291 25.7549 37.4678C27.7139 37.1105 29.7881 36.2693 31.1939 35.2668L31.7471 34.875H44.2385H56.7299L56.6607 36.4537ZM36.0338 45.1309C36.3103 46.1795 36.5293 47.1014 36.5293 47.1705C36.5293 47.2857 35.0428 47.3203 29.5 47.3203C23.9572 47.3203 22.4707 47.2857 22.4707 47.1705C22.4707 47.0437 23.3349 43.6328 23.4502 43.3102C23.4848 43.1949 24.7639 43.1719 29.523 43.1949L35.5383 43.2295L36.0338 45.1309ZM40.5855 49.7402C41.9107 50.109 41.9107 51.9066 40.5855 52.2754C39.9978 52.4367 19.0021 52.4367 18.4144 52.2754C17.1238 51.9066 17.0777 50.1205 18.3568 49.7518C18.8869 49.602 40.0439 49.5904 40.5855 49.7402Z" fill="black"/>
<path d="M21.3299 17.8318C18.8869 18.3043 16.5477 19.7793 15.1187 21.7152C14.4043 22.6717 14.0586 23.3631 14.0586 23.7895C14.0586 24.4002 15.4875 26.4399 16.5131 27.2811C20.2121 30.3463 25.1672 30.6574 29.0391 28.0647C31.0441 26.7279 32.7611 24.4117 32.4846 23.4322C32.2887 22.7293 31.5973 21.7729 30.5371 20.7012C29.016 19.1686 27.4488 18.2928 25.4668 17.8779C24.568 17.6936 22.1826 17.659 21.3299 17.8318ZM20.0162 21.0354C18.7832 22.5104 18.7832 24.8035 20.0277 26.4514L20.3273 26.8432L19.6014 26.4514C18.7832 26.0135 17.3197 24.7113 16.9279 24.0891L16.6859 23.6858L17.1699 23.052C17.7346 22.3375 18.8062 21.4502 19.6475 21.0123C19.9701 20.851 20.2467 20.7127 20.2582 20.7012C20.2812 20.7012 20.1775 20.851 20.0162 21.0354ZM28.532 22.1301C28.9469 22.4988 29.4309 23.0174 29.6152 23.294L29.9494 23.7779L29.3387 24.5154C28.6703 25.3336 27.783 26.0481 26.8611 26.5205L26.2504 26.8201L26.6076 26.3822C27.7139 24.9994 27.8291 22.7754 26.8611 21.4156C26.3195 20.6781 26.3311 20.6551 27.0686 21.0584C27.4719 21.2774 28.1287 21.7498 28.532 22.1301ZM24.3375 22.2568C25.6742 23.2479 25.1326 25.3221 23.4848 25.5065C22.0674 25.6678 21.0303 24.0891 21.7332 22.8791C22.1135 22.2223 22.6551 21.9457 23.3926 21.9918C23.7959 22.0149 24.1531 22.1186 24.3375 22.2568Z" fill="black"/>
<path d="M28.6473 0.604297C28.4053 0.846289 28.3477 1.01914 28.3477 1.45703C28.3477 1.89492 28.4053 2.06777 28.6473 2.30977C28.8893 2.55176 29.0621 2.60938 29.5 2.60938C29.9379 2.60938 30.1107 2.55176 30.3527 2.30977C30.5947 2.06777 30.6523 1.89492 30.6523 1.45703C30.6523 1.01914 30.5947 0.846289 30.3527 0.604297C30.1107 0.362305 29.9379 0.304688 29.5 0.304688C29.0621 0.304688 28.8893 0.362305 28.6473 0.604297Z" fill="black"/>
<path d="M40.2744 8.07147C39.4562 8.88963 40.0093 10.1687 41.1617 10.1457C41.5535 10.1342 41.7148 10.0535 41.9798 9.75389C42.2795 9.41971 42.314 9.316 42.2564 8.84354C42.1757 8.14061 41.7839 7.79491 41.0695 7.79491C40.6777 7.79491 40.4818 7.86405 40.2744 8.07147Z" fill="black"/>
<path d="M45.2756 8.1291C44.6533 8.75137 44.8838 9.78848 45.7135 10.1111C45.8633 10.1687 47.5457 10.2148 49.4471 10.2148C53.7568 10.2148 53.9297 10.1687 53.9297 8.9127C53.9297 8.4748 53.8721 8.34805 53.5724 8.09453L53.2152 7.79492H49.4125H45.6098L45.2756 8.1291Z" fill="black"/>
<path d="M40.3205 13.6603C39.848 14.1328 39.848 14.7896 40.3205 15.3082L40.6547 15.6885L46.6353 15.723C49.9195 15.7461 52.7773 15.723 52.9963 15.6885C53.607 15.5732 53.9297 15.1699 53.9297 14.49C53.9297 13.9945 53.8836 13.8793 53.5724 13.6258L53.2152 13.3261H46.9349H40.6547L40.3205 13.6603Z" fill="black"/>
<path d="M40.3205 19.1916C39.8596 19.6641 39.8481 20.3209 40.309 20.828C41.1272 21.7383 42.6598 20.9086 42.3602 19.7217C42.1412 18.8344 40.9773 18.5348 40.3205 19.1916Z" fill="black"/>
<path d="M46.2551 19.0648C45.7365 19.4796 45.6213 20.0097 45.9324 20.5974C46.3012 21.3234 47.3498 21.4271 47.8799 20.7933C48.5482 19.9982 48.0297 18.8574 46.9926 18.8574C46.693 18.8574 46.3933 18.938 46.2551 19.0648Z" fill="black"/>
<path d="M51.9822 19.157C51.6711 19.4105 51.625 19.5373 51.625 19.9982C51.625 20.6551 51.8439 20.9892 52.374 21.1621C52.6736 21.2658 52.8811 21.2658 53.1807 21.1621C53.7107 20.9892 53.9297 20.6551 53.9297 19.9982C53.9297 19.5373 53.8836 19.4105 53.5725 19.157C53.3305 18.9496 53.0885 18.8574 52.7773 18.8574C52.4662 18.8574 52.2242 18.9496 51.9822 19.157Z" fill="black"/>
<path d="M40.3205 24.7228C39.848 25.1953 39.848 25.8521 40.3205 26.3706L40.6547 26.7509L42.7173 26.7855C44.9759 26.8316 45.483 26.7509 45.8517 26.2669C46.255 25.7714 46.0707 24.8035 45.5291 24.5038C45.3908 24.4347 44.3537 24.3886 42.9824 24.3886H40.6547L40.3205 24.7228Z" fill="black"/>
<path d="M49.1474 24.6652C48.6058 25.2068 48.6404 26.0596 49.2396 26.509C49.5508 26.7395 49.7121 26.751 51.8554 26.751C53.9988 26.751 54.1601 26.7395 54.4713 26.509C55.0705 26.0596 55.1051 25.2068 54.5635 24.6652C54.2869 24.3887 54.2754 24.3887 51.8554 24.3887C49.4355 24.3887 49.424 24.3887 49.1474 24.6652Z" fill="black"/>
</svg>
