<svg width="228" height="54" viewBox="0 0 228 54" fill="none" xmlns="http://www.w3.org/2000/svg">
<path d="M36.2101 7.53446L8.5024 7.27084C7.30551 7.26021 6.32777 8.22966 6.31934 9.43722L6.26666 16.6486C6.25823 17.854 7.21912 18.8383 8.4139 18.8468L36.1216 19.053C37.3164 19.0615 38.292 18.0921 38.3004 16.8867L38.3531 9.73273C38.3616 8.52942 37.4028 7.54509 36.2101 7.53446Z" fill="white"/>
<path d="M109.282 7.53439L81.2183 7.26864C80.0066 7.25801 79.0162 8.22746 79.0078 9.43502L78.9551 16.6464C78.9467 17.8518 79.9202 18.8361 81.1298 18.8446L89.7167 18.9084V42.4218C89.7167 43.6272 90.686 44.6031 91.8786 44.6031H98.3056C99.5004 44.6031 100.468 43.6251 100.468 42.4218V18.9871L109.191 19.0508C110.401 19.0594 111.389 18.0899 111.398 16.8845L111.45 9.73053C111.459 8.52722 110.487 7.54289 109.28 7.53226L109.282 7.53439Z" fill="white"/>
<path d="M27.6655 22.6522L20.1891 22.5544C18.9901 22.5395 18.0082 23.5111 17.9976 24.7207L17.9492 31.3368L15.7134 33.5585L8.50888 33.4649C7.30988 33.45 6.32792 34.4216 6.31738 35.6313L6.2647 42.8341C6.25627 44.0396 7.21716 45.0239 8.41195 45.0324L15.8883 45.0877C17.0831 45.0962 18.0588 44.1267 18.0672 42.9213L18.1114 36.8622L20.8613 34.1282L27.5665 34.1771C28.7613 34.1856 29.7369 33.2162 29.7453 32.0107L29.798 24.8483C29.8064 23.6471 28.8519 22.667 27.6634 22.65L27.6655 22.6522Z" fill="#EF0303"/>
<path d="M58.6645 7.62371H45.0814C43.8866 7.62371 42.9194 8.60166 42.9194 9.80497V42.4218C42.9194 43.6273 43.8888 44.6031 45.0814 44.6031H58.498C70.507 44.6031 77.0984 36.3691 77.0984 25.7052C77.0984 15.0413 70.3321 7.62158 58.6645 7.62158V7.62371ZM57.7858 36.7561H53.6704V15.4707H57.9122C63.7745 15.4707 66.0039 19.5824 66.0039 25.7052C66.0039 32.6317 63.6164 36.7561 57.7858 36.7561Z" fill="white"/>
<path d="M131.779 29.4707H129.543C129.341 29.4707 129.176 29.3048 129.176 29.1008V28.3396C129.176 28.1356 129.341 27.9697 129.543 27.9697H136.539C136.741 27.9697 136.906 28.1356 136.906 28.3396V29.1008C136.906 29.3048 136.741 29.4707 136.539 29.4707H134.309C134.107 29.4707 133.943 29.6365 133.943 29.8406V37.2497C133.943 37.4537 133.778 37.6196 133.576 37.6196H132.51C132.308 37.6196 132.143 37.4537 132.143 37.2497V29.8406C132.143 29.6365 131.979 29.4707 131.777 29.4707H131.779Z" fill="white"/>
<path d="M144.228 33.3377H140.325C140.123 33.3377 139.959 33.5035 139.959 33.7076V35.7485C139.959 35.9526 140.123 36.1185 140.325 36.1185H144.641C144.864 36.1185 145.035 36.3183 145.003 36.5415L144.894 37.3026C144.868 37.4833 144.713 37.6194 144.531 37.6194H138.581C138.378 37.6194 138.214 37.4536 138.214 37.2495V28.3416C138.214 28.1375 138.378 27.9717 138.581 27.9717H144.439C144.641 27.9717 144.805 28.1375 144.805 28.3416V29.1027C144.805 29.3068 144.641 29.4726 144.439 29.4726H140.325C140.123 29.4726 139.959 29.6384 139.959 29.8425V31.471C139.959 31.6751 140.123 31.841 140.325 31.841H144.228C144.43 31.841 144.595 32.0068 144.595 32.2109V32.972C144.595 33.1761 144.43 33.3419 144.228 33.3419V33.3377Z" fill="white"/>
<path d="M154.185 34.7239C154.435 34.7239 154.617 34.9769 154.532 35.215C154.014 36.7011 152.752 37.7471 150.659 37.7471C147.686 37.7471 146.251 35.5743 146.251 32.836C146.251 30.0978 147.718 27.8293 150.741 27.8293C152.95 27.8293 154.168 28.9986 154.566 30.4124C154.631 30.6463 154.45 30.878 154.21 30.878H153.135C152.988 30.878 152.851 30.7908 152.798 30.6505C152.516 29.8979 151.928 29.2708 150.68 29.2708C148.837 29.2708 148.11 30.9503 148.11 32.7723C148.11 34.4922 148.765 36.3056 150.737 36.3056C151.985 36.3056 152.518 35.5892 152.788 34.9429C152.844 34.809 152.977 34.7239 153.12 34.7239H154.185Z" fill="white"/>
<path d="M156.717 27.9717H157.779C157.982 27.9717 158.146 28.1375 158.146 28.3416V31.4562C158.146 31.6603 158.31 31.8261 158.513 31.8261H162.017C162.219 31.8261 162.384 31.6603 162.384 31.4562V28.3416C162.384 28.1375 162.548 27.9717 162.75 27.9717H163.812C164.015 27.9717 164.179 28.1375 164.179 28.3416V37.2495C164.179 37.4536 164.015 37.6194 163.812 37.6194H162.75C162.548 37.6194 162.384 37.4536 162.384 37.2495V33.6948C162.384 33.4907 162.219 33.3249 162.017 33.3249H158.513C158.31 33.3249 158.146 33.4907 158.146 33.6948V37.2495C158.146 37.4536 157.982 37.6194 157.779 37.6194H156.717C156.515 37.6194 156.351 37.4536 156.351 37.2495V28.3416C156.351 28.1375 156.515 27.9717 156.717 27.9717Z" fill="white"/>
<path d="M166.582 37.2475V28.3396C166.582 28.1356 166.746 27.9697 166.948 27.9697H168.63C168.76 27.9697 168.881 28.0378 168.946 28.1526C170.229 30.3912 172.583 34.4072 173.042 35.4277H173.065C172.962 34.3413 172.966 32.7192 172.966 31.1396V28.3396C172.966 28.1356 173.131 27.9697 173.333 27.9697H174.243C174.446 27.9697 174.61 28.1356 174.61 28.3396V37.2475C174.61 37.4516 174.446 37.6174 174.243 37.6174H172.684C172.553 37.6174 172.431 37.5473 172.368 37.4325C171.205 35.3788 168.674 30.9078 168.175 29.8385H168.151C168.221 30.7696 168.236 32.632 168.236 34.3647V37.2475C168.236 37.4516 168.071 37.6174 167.869 37.6174H166.948C166.746 37.6174 166.582 37.4516 166.582 37.2475Z" fill="white"/>
<path d="M185.608 32.7532C185.608 35.4277 184.052 37.7556 180.978 37.7556C177.904 37.7556 176.471 35.5574 176.471 32.7936C176.471 30.0298 178.161 27.8315 181.104 27.8315C183.865 27.8315 185.608 29.83 185.608 32.7532ZM178.329 32.7532C178.329 34.7048 179.231 36.2674 181.05 36.2674C183.02 36.2674 183.749 34.6134 183.749 32.7766C183.749 30.9397 182.919 29.3197 181.029 29.3197C179.138 29.3197 178.329 30.8122 178.329 32.7511V32.7532Z" fill="white"/>
<path d="M187.837 27.9717H188.899C189.101 27.9717 189.265 28.1375 189.265 28.3416V35.7507C189.265 35.9548 189.43 36.1206 189.632 36.1206H193.682C193.905 36.1206 194.076 36.3204 194.045 36.5436L193.935 37.3047C193.91 37.4855 193.754 37.6215 193.573 37.6215H187.839C187.637 37.6215 187.472 37.4557 187.472 37.2516V28.3437C187.472 28.1396 187.637 27.9738 187.839 27.9738L187.837 27.9717Z" fill="white"/>
<path d="M203.841 32.7532C203.841 35.4277 202.286 37.7556 199.211 37.7556C196.137 37.7556 194.704 35.5574 194.704 32.7936C194.704 30.0298 196.394 27.8315 199.338 27.8315C202.098 27.8315 203.841 29.83 203.841 32.7532ZM196.563 32.7532C196.563 34.7048 197.465 36.2674 199.283 36.2674C201.253 36.2674 201.982 34.6134 201.982 32.7766C201.982 30.9397 201.152 29.3197 199.262 29.3197C197.372 29.3197 196.563 30.8122 196.563 32.7511V32.7532Z" fill="white"/>
<path d="M213.462 37.6173H212.792C212.615 37.6173 212.461 37.494 212.432 37.3175C212.432 37.3133 212.432 37.3111 212.432 37.3069C212.385 37.0348 212.067 36.9093 211.852 37.0794C211.326 37.4982 210.563 37.7682 209.501 37.7682C206.732 37.7682 205.21 35.6529 205.21 32.9082C205.21 30.0126 206.848 27.8335 209.817 27.8335C211.968 27.8335 213.344 28.9263 213.77 30.374C213.839 30.6079 213.656 30.8418 213.416 30.8418H212.337C212.192 30.8418 212.057 30.7567 212.002 30.6207C211.72 29.9106 211.109 29.2749 209.789 29.2749C207.739 29.2749 207.069 30.9757 207.069 32.8296C207.069 34.6834 207.794 36.3119 209.781 36.3119C211.768 36.3119 212.074 35.0044 212.074 33.8798V33.7884H210.139C209.937 33.7884 209.773 33.6226 209.773 33.4185V32.6574C209.773 32.4533 209.937 32.2874 210.139 32.2874H213.464C213.667 32.2874 213.831 32.4533 213.831 32.6574V37.2516C213.831 37.4557 213.667 37.6215 213.464 37.6215L213.462 37.6173Z" fill="white"/>
<path d="M218.183 37.6173C217.98 37.6173 217.816 37.4514 217.816 37.2473V34.1625C217.816 34.0605 217.797 33.9627 217.742 33.8713L214.731 28.5223C214.592 28.2757 214.769 27.9717 215.049 27.9717H216.234C216.368 27.9717 216.493 28.044 216.556 28.1651C217.175 29.3451 217.957 30.8503 218.473 31.8877C218.608 32.1599 218.992 32.1599 219.127 31.8877C219.637 30.8503 220.458 29.3153 221.08 28.163C221.143 28.044 221.266 27.9738 221.4 27.9738H222.433C222.715 27.9738 222.89 28.2821 222.749 28.5287L219.683 33.8628C219.645 33.9287 219.613 33.9755 219.613 34.1498V37.2495C219.613 37.4536 219.449 37.6194 219.247 37.6194H218.181L218.183 37.6173Z" fill="white"/>
<path d="M129.562 14.7352H135.639C135.852 14.7352 136.025 14.9095 136.025 15.1243V15.9258C136.025 16.1405 135.852 16.3148 135.639 16.3148H131.412C131.199 16.3148 131.026 16.4891 131.026 16.7039V18.6959C131.026 18.9106 131.199 19.085 131.412 19.085H135.323C135.536 19.085 135.709 19.2593 135.709 19.474V20.2755C135.709 20.4902 135.536 20.6646 135.323 20.6646H131.412C131.199 20.6646 131.026 20.8389 131.026 21.0536V24.519C131.026 24.7337 130.854 24.908 130.641 24.908H129.562C129.349 24.908 129.176 24.7337 129.176 24.519V15.12C129.176 14.9053 129.349 14.731 129.562 14.731V14.7352Z" fill="white"/>
<path d="M138.621 22.5845L137.911 24.6509C137.856 24.8083 137.711 24.9124 137.546 24.9124H136.497C136.231 24.9124 136.046 24.6488 136.132 24.3958L139.348 14.9968C139.403 14.8395 139.548 14.7354 139.712 14.7354H141.531C141.693 14.7354 141.839 14.8374 141.893 14.9926L145.248 24.3916C145.339 24.6446 145.153 24.9124 144.886 24.9124H143.71C143.548 24.9124 143.402 24.8104 143.347 24.6552L142.604 22.5781C142.549 22.4229 142.403 22.3209 142.241 22.3209H138.985C138.821 22.3209 138.674 22.4272 138.621 22.5824V22.5845ZM141.544 20.7391C141.809 20.7391 141.995 20.4734 141.908 20.2204C141.213 18.2007 140.787 16.9549 140.57 16.1534H140.555C140.328 17.025 139.864 18.4686 139.295 20.2289C139.213 20.4798 139.401 20.7391 139.662 20.7391H141.544Z" fill="white"/>
<path d="M147.852 21.9829C148.021 21.9829 148.179 22.0828 148.234 22.2444C148.537 23.1564 149.275 23.5944 150.436 23.5944C151.74 23.5944 152.282 23.0331 152.282 22.2146C152.282 21.3196 151.791 20.888 149.964 20.4522C147.344 19.825 146.615 18.8811 146.615 17.4885C146.615 15.8048 147.859 14.5908 150.2 14.5908C152.541 14.5908 153.578 15.7282 153.885 16.9932C153.944 17.2334 153.752 17.463 153.506 17.463H152.353C152.183 17.463 152.035 17.3503 151.987 17.1866C151.799 16.5722 151.329 16.0386 150.145 16.0386C149.142 16.0386 148.554 16.4723 148.554 17.2802C148.554 18.0881 149.03 18.39 150.708 18.7896C153.622 19.4912 154.22 20.601 154.22 21.9935C154.22 23.7772 152.891 25.057 150.292 25.057C147.979 25.057 146.727 23.977 146.341 22.4697C146.278 22.2252 146.468 21.9871 146.719 21.9871H147.85L147.852 21.9829Z" fill="white"/>
<path d="M157.655 16.3172H155.295C155.082 16.3172 154.91 16.1428 154.91 15.9281V15.1266C154.91 14.9119 155.082 14.7375 155.295 14.7375H162.677C162.89 14.7375 163.062 14.9119 163.062 15.1266V15.9281C163.062 16.1428 162.89 16.3172 162.677 16.3172H160.323C160.11 16.3172 159.937 16.4915 159.937 16.7062V24.5235C159.937 24.7382 159.765 24.9125 159.552 24.9125H158.429C158.216 24.9125 158.043 24.7382 158.043 24.5235V16.7062C158.043 16.4915 157.87 16.3172 157.657 16.3172H157.655Z" fill="white"/>
<path d="M168.038 15.1266C168.038 14.9119 168.21 14.7375 168.423 14.7375H171.902C174.806 14.7375 176.726 16.6892 176.726 19.7081C176.726 22.727 174.861 24.9168 171.826 24.9168H168.423C168.21 24.9168 168.038 24.7424 168.038 24.5277V15.1287V15.1266ZM169.93 22.9651C169.93 23.1798 170.103 23.3542 170.315 23.3542H171.729C173.816 23.3542 174.764 21.8128 174.764 19.7209C174.764 17.9393 173.885 16.298 171.74 16.298H170.315C170.103 16.298 169.93 16.4724 169.93 16.6871V22.963V22.9651Z" fill="white"/>
<path d="M180.594 15.1266V24.5256C180.594 24.7403 180.421 24.9146 180.209 24.9146H179.09C178.877 24.9146 178.704 24.7403 178.704 24.5256V15.1266C178.704 14.9119 178.877 14.7375 179.09 14.7375H180.209C180.421 14.7375 180.594 14.9119 180.594 15.1266Z" fill="white"/>
<path d="M191.265 24.9145H190.559C190.374 24.9145 190.209 24.7827 190.178 24.5978C190.178 24.5935 190.178 24.5914 190.178 24.5871C190.129 24.3001 189.792 24.1662 189.567 24.3469C189.01 24.7891 188.205 25.074 187.086 25.074C184.164 25.074 182.56 22.8417 182.56 19.944C182.56 16.8889 184.288 14.5886 187.421 14.5886C189.691 14.5886 191.143 15.743 191.592 17.2695C191.663 17.5161 191.471 17.7648 191.216 17.7648H190.079C189.925 17.7648 189.784 17.6756 189.727 17.531C189.43 16.7805 188.783 16.1108 187.392 16.1108C185.228 16.1108 184.52 17.9052 184.52 19.8611C184.52 21.817 185.285 23.5348 187.381 23.5348C189.478 23.5348 189.8 22.155 189.8 20.9687V20.8709H187.759C187.546 20.8709 187.373 20.6966 187.373 20.4819V19.6782C187.373 19.4635 187.546 19.2892 187.759 19.2892H191.267C191.48 19.2892 191.653 19.4635 191.653 19.6782V24.5255C191.653 24.7402 191.48 24.9145 191.267 24.9145H191.265Z" fill="white"/>
<path d="M195.838 15.1266V24.5256C195.838 24.7403 195.665 24.9146 195.452 24.9146H194.333C194.121 24.9146 193.948 24.7403 193.948 24.5256V15.1266C193.948 14.9119 194.121 14.7375 194.333 14.7375H195.452C195.665 14.7375 195.838 14.9119 195.838 15.1266Z" fill="white"/>
<path d="M200.092 16.3172H197.732C197.519 16.3172 197.347 16.1428 197.347 15.9281V15.1266C197.347 14.9119 197.519 14.7375 197.732 14.7375H205.114C205.327 14.7375 205.499 14.9119 205.499 15.1266V15.9281C205.499 16.1428 205.327 16.3172 205.114 16.3172H202.76C202.547 16.3172 202.374 16.4915 202.374 16.7062V24.5235C202.374 24.7382 202.202 24.9125 201.989 24.9125H200.866C200.653 24.9125 200.48 24.7382 200.48 24.5235V16.7062C200.48 16.4915 200.307 16.3172 200.094 16.3172H200.092Z" fill="white"/>
<path d="M207.402 22.5845L206.692 24.6509C206.637 24.8083 206.492 24.9124 206.327 24.9124H205.278C205.013 24.9124 204.827 24.6488 204.914 24.3958L208.129 14.9968C208.184 14.8395 208.329 14.7354 208.494 14.7354H210.312C210.474 14.7354 210.62 14.8374 210.675 14.9926L214.029 24.3916C214.12 24.6446 213.934 24.9124 213.667 24.9124H212.491C212.329 24.9124 212.183 24.8104 212.129 24.6552L211.385 22.5781C211.33 22.4229 211.185 22.3209 211.022 22.3209H207.767C207.602 22.3209 207.455 22.4272 207.402 22.5824V22.5845ZM210.325 20.7391C210.59 20.7391 210.776 20.4734 210.689 20.2204C209.994 18.2007 209.568 16.9549 209.351 16.1534H209.337C209.109 17.025 208.645 18.4686 208.076 20.2289C207.994 20.4798 208.182 20.7391 208.443 20.7391H210.325Z" fill="white"/>
<path d="M215.993 14.7354H217.112C217.325 14.7354 217.498 14.9097 217.498 15.1244V22.9417C217.498 23.1564 217.671 23.3307 217.884 23.3307H222.157C222.393 23.3307 222.572 23.5412 222.538 23.7772L222.422 24.5808C222.395 24.7721 222.233 24.9146 222.041 24.9146H215.989C215.776 24.9146 215.604 24.7402 215.604 24.5255V15.1265C215.604 14.9118 215.776 14.7375 215.989 14.7375L215.993 14.7354Z" fill="white"/>
<path d="M121.39 2.46191H120.969V49.8947H121.39V2.46191Z" fill="white"/>
</svg>
