<svg width="47" height="47" viewBox="0 0 47 47" fill="none" xmlns="http://www.w3.org/2000/svg">
<g clip-path="url(#clip0_109_1329)">
<path d="M44.6346 43.2318C45.1815 43.2318 45.6754 43.2252 46.1707 43.2332C46.7362 43.2424 46.9865 43.4887 46.9931 44.0514C47.001 44.7624 47.0024 45.4721 46.9931 46.1831C46.9865 46.7418 46.7322 46.9828 46.1654 46.9974C46.0502 47 45.9337 46.9974 45.8185 46.9974C30.9309 46.9974 16.0434 46.9974 1.15582 46.9974C0.155989 46.9974 0.00369644 46.8464 0.00237216 45.8614C0.00237216 45.2497 -0.00557351 44.638 0.00502072 44.0276C0.0142907 43.4953 0.267228 43.2438 0.800913 43.2332C1.32665 43.2226 1.85239 43.2305 2.40991 43.2305C2.46686 42.1131 2.52115 41.0419 2.57412 39.9708C2.60458 39.3763 2.63372 38.7831 2.66285 38.1887C2.69861 37.4816 2.87871 37.3069 3.60176 37.2817C3.68122 37.2791 3.76068 37.2711 3.87986 37.2619C3.93283 36.2529 3.9911 35.2679 4.03745 34.2815C4.28244 29.0834 4.52346 23.8853 4.76978 18.6885C4.88631 16.2298 5.01212 13.7724 5.13528 11.3137C5.14985 11.0211 5.19222 10.7404 4.90883 10.5074C4.79494 10.4147 4.75918 10.1804 4.75521 10.0096C4.73932 9.2827 4.74197 8.55581 4.74991 7.82893C4.75653 7.27946 4.98961 7.03981 5.53256 7.03849C8.10961 7.03319 10.688 7.03319 13.265 7.03849C13.8027 7.03981 14.0517 7.2874 14.0609 7.82893C14.0742 8.5386 14.0702 9.2496 14.0596 9.9606C14.0569 10.1208 14.0477 10.3459 13.9484 10.4267C13.5842 10.7219 13.6676 11.1032 13.6835 11.4726C13.8186 14.4596 13.9603 17.4466 14.1007 20.4336C14.1059 20.5474 14.1258 20.6613 14.1483 20.8705C17.0247 20.5276 19.8798 20.186 22.7614 19.8417C22.7998 19.1506 22.8409 18.4939 22.8727 17.8359C22.9799 15.6247 23.0899 13.4136 23.1773 11.2025C23.1852 10.988 23.0422 10.7669 22.9707 10.5485C22.9111 10.3657 22.8091 10.1817 22.8051 9.99634C22.7853 9.26946 22.7892 8.54257 22.7998 7.81569C22.8078 7.27813 23.0501 7.04114 23.5997 7.03981C26.1609 7.03584 28.722 7.03584 31.2832 7.03981C31.8553 7.04114 32.1042 7.28343 32.1135 7.84614C32.1241 8.55581 32.1228 9.26681 32.1108 9.97781C32.1082 10.1367 32.0936 10.3538 31.9943 10.4412C31.6712 10.7272 31.7136 11.0794 31.7308 11.4369C31.838 13.697 31.944 15.9584 32.0526 18.2185C32.0592 18.3641 32.0857 18.5085 32.1095 18.7071C33.2643 18.5707 34.3913 18.4396 35.5182 18.3046C38.9441 17.8928 42.37 17.4784 45.7959 17.0666C45.9271 17.0507 46.0595 17.0388 46.1906 17.0322C46.6196 17.007 46.911 17.2096 46.9626 17.6293C47.0156 18.0517 46.7733 18.3257 46.3548 18.3919C45.788 18.482 45.2159 18.5429 44.6332 18.6184C44.6346 26.8273 44.6346 35.0004 44.6346 43.2318ZM43.203 18.8011C43.0851 18.809 42.9911 18.8117 42.8971 18.8223C40.9464 19.0566 38.9971 19.2936 37.0464 19.5266C32.769 20.0364 28.4903 20.5395 24.2128 21.0545C19.6904 21.5987 15.1693 22.1614 10.6443 22.6844C10.1821 22.7374 10.0921 22.8843 10.0934 23.3093C10.1053 29.7679 10.1013 36.2265 10.1013 42.6837C10.1013 42.8572 10.1013 43.0306 10.1013 43.1921C15.4342 43.1921 20.6929 43.1921 25.9728 43.1921C25.9728 40.8407 25.9715 38.5303 25.9741 36.2185C25.9755 35.53 26.2032 35.3036 26.8958 35.3023C28.3168 35.2997 29.7364 35.2997 31.1574 35.3023C31.9029 35.3036 32.1188 35.5234 32.1201 36.2834C32.1214 38.4137 32.1201 40.5454 32.1201 42.6758C32.1201 42.8505 32.1201 43.0266 32.1201 43.2014C32.5068 43.2014 32.8286 43.2014 33.1954 43.2014C33.1954 42.9935 33.1954 42.8161 33.1954 42.6374C33.1954 40.4898 33.1928 38.3423 33.1968 36.196C33.1981 35.5314 33.4259 35.305 34.0867 35.3023C35.5076 35.2983 36.9272 35.2997 38.3482 35.301C39.1282 35.3023 39.3401 35.5141 39.3401 36.3072C39.3414 38.4217 39.3414 40.5361 39.3414 42.6506C39.3414 42.828 39.3414 43.0041 39.3414 43.2067C40.6538 43.2067 41.9158 43.2067 43.203 43.2067C43.203 35.0653 43.203 26.9478 43.203 18.8011ZM8.68964 37.2605C8.68964 32.4716 8.68964 27.721 8.68964 22.932C8.15596 22.9929 7.65273 23.0657 7.14686 23.1028C6.68071 23.1372 6.37745 22.8896 6.34302 22.4898C6.30727 22.0873 6.5655 21.7828 7.01708 21.7271C8.16391 21.5855 9.31206 21.457 10.4589 21.318C11.2203 21.2253 11.9805 21.1247 12.7486 21.0267C12.5857 17.5816 12.4268 14.22 12.2665 10.8397C10.3384 10.8397 8.4526 10.8397 6.54299 10.8397C6.12187 19.663 5.70075 28.4479 5.27962 37.2592C6.43307 37.2605 7.53487 37.2605 8.68964 37.2605ZM24.1731 19.667C26.3211 19.4101 28.383 19.1691 30.4423 18.903C30.5376 18.8911 30.678 18.6541 30.6727 18.527C30.5959 16.5317 30.5005 14.5377 30.4052 12.5438C30.3774 11.9731 30.3376 11.4025 30.3045 10.8292C28.383 10.8292 26.5091 10.8292 24.5969 10.8292C24.4552 13.7671 24.3161 16.676 24.1731 19.667ZM1.41273 45.578C16.1626 45.578 30.8713 45.578 45.5841 45.578C45.5841 45.2523 45.5841 44.9623 45.5841 44.6459C30.8528 44.6459 16.144 44.6459 1.41273 44.6459C1.41273 44.961 1.41273 45.2523 1.41273 45.578ZM30.7111 36.7269C29.5722 36.7269 28.477 36.7269 27.4017 36.7269C27.4017 38.9156 27.4017 41.0658 27.4017 43.2027C28.5247 43.2027 29.608 43.2027 30.7111 43.2027C30.7111 41.0353 30.7111 38.897 30.7111 36.7269ZM37.9284 36.7164C36.7961 36.7164 35.7116 36.7164 34.619 36.7164C34.619 38.8957 34.619 41.0472 34.619 43.2027C35.738 43.2027 36.82 43.2027 37.9284 43.2027C37.9284 41.0366 37.9284 38.8957 37.9284 36.7164ZM8.687 43.2093C8.687 41.6788 8.687 40.1998 8.687 38.6958C7.13097 38.6958 5.60275 38.6958 4.02024 38.6958C3.95005 40.2012 3.87986 41.6933 3.80968 43.2093C5.45575 43.2093 7.05151 43.2093 8.687 43.2093ZM6.16027 9.38465C8.35593 9.38465 10.4946 9.38465 12.64 9.38465C12.64 9.05232 12.64 8.75177 12.64 8.45386C10.4602 8.45386 8.3215 8.45386 6.16027 8.45386C6.16027 8.77163 6.16027 9.06291 6.16027 9.38465ZM30.7177 8.46048C28.5221 8.46048 26.3688 8.46048 24.2168 8.46048C24.2168 8.78752 24.2168 9.07748 24.2168 9.37803C26.3979 9.37803 28.5512 9.37803 30.7177 9.37803C30.7177 9.06159 30.7177 8.78354 30.7177 8.46048Z" fill="#000"/>
<path d="M32.7822 0.0105915C33.4589 0.0105915 34.1356 0.00397138 34.8123 0.0132395C35.3169 0.0198596 35.6016 0.276719 35.6043 0.700405C35.6069 1.12541 35.3209 1.39287 34.8216 1.39551C33.5847 1.40346 32.3465 1.39287 31.1097 1.39949C28.8134 1.41405 27.1064 3.0373 26.9686 5.32917C26.9369 5.85481 26.6614 6.16595 26.2443 6.15271C25.8245 6.13815 25.5768 5.81376 25.5821 5.28416C25.6086 2.52755 27.9592 0.131077 30.7548 0.0238317C31.4301 -0.00264871 32.1082 0.0198596 32.7835 0.0198596C32.7822 0.0158875 32.7822 0.0132395 32.7822 0.0105915Z" fill="#000"/>
<path d="M13.6676 0.0105763C13.9814 0.0105763 14.2953 0.00792828 14.6091 0.0105763C15.1905 0.0171964 15.4898 0.26214 15.4805 0.718926C15.4712 1.15585 15.1799 1.38226 14.6277 1.39815C13.8212 1.42066 13.0001 1.36902 12.2095 1.4948C10.3648 1.79006 9.022 3.37226 8.92136 5.24707C8.88692 5.87068 8.58234 6.22684 8.12282 6.1421C7.67521 6.06002 7.52424 5.75284 7.52689 5.31194C7.54675 2.55004 9.88146 0.142978 12.677 0.0211685C13.0068 0.00660426 13.3378 0.0198444 13.6676 0.0198444C13.6676 0.0158724 13.6676 0.0132244 13.6676 0.0105763Z" fill="#000"/>
<path d="M15.152 3.77742C14.4594 3.77742 13.7668 3.77345 13.0742 3.77874C12.0532 3.78669 11.4123 4.36926 11.2944 5.38346C11.2375 5.88129 10.9633 6.1686 10.5647 6.15271C10.1423 6.1355 9.89597 5.80714 9.91186 5.28018C9.95556 3.76418 11.2692 2.43751 12.8279 2.40177C14.3442 2.36602 15.8618 2.3872 17.3795 2.3925C17.884 2.39382 18.1648 2.65598 18.1648 3.08364C18.1648 3.50997 17.8827 3.76948 17.3795 3.77477C16.6365 3.78404 15.8936 3.77742 15.152 3.77742Z" fill="#000"/>
<path d="M31.9453 2.39116C32.3254 2.39116 32.7041 2.38189 33.0829 2.39381C33.5067 2.40705 33.7636 2.63478 33.8006 3.05979C33.8337 3.44773 33.5239 3.76152 33.0829 3.77211C32.4393 3.788 31.7957 3.77343 31.1534 3.77873C30.1006 3.78535 29.4636 4.3613 29.3444 5.4086C29.2888 5.89451 28.9962 6.18315 28.5936 6.15137C28.1897 6.1196 27.95 5.80051 27.9592 5.30532C27.9897 3.7933 29.3021 2.47192 30.8568 2.39778C31.2183 2.38057 31.5825 2.39513 31.9453 2.39513C31.9453 2.39381 31.9453 2.39248 31.9453 2.39116Z" fill="#000"/>
<path d="M19.7248 1.39815C19.1302 1.39815 18.5356 1.4061 17.941 1.3955C17.4417 1.38756 17.1491 1.12276 17.1504 0.703043C17.1504 0.283329 17.4417 0.0158777 17.9423 0.0119057C19.1474 0.00396154 20.3538 0.00396154 21.5589 0.0132297C22.0317 0.0172017 22.3098 0.275385 22.3217 0.679211C22.3349 1.10687 22.0516 1.38491 21.5576 1.39418C20.9471 1.4061 20.3366 1.39815 19.7248 1.39815Z" fill="#000"/>
<path d="M37.8238 3.77743C37.2623 3.77743 36.7021 3.78538 36.1406 3.77478C35.6413 3.76552 35.354 3.50071 35.358 3.0757C35.3619 2.65599 35.6519 2.39516 36.1538 2.39118C37.2927 2.38324 38.4303 2.38456 39.5692 2.39118C40.079 2.39383 40.3637 2.64275 40.373 3.06511C40.3836 3.50733 40.0896 3.76949 39.5546 3.77611C38.9799 3.78273 38.4011 3.77743 37.8238 3.77743Z" fill="#000"/>
<path d="M21.0305 2.3938C21.245 2.3938 21.4609 2.37527 21.6728 2.39778C22.0674 2.44147 22.3124 2.66126 22.3177 3.07435C22.3243 3.48744 22.0859 3.73371 21.6913 3.76549C21.249 3.79991 20.7987 3.80124 20.3564 3.76416C19.9631 3.73106 19.7234 3.47817 19.7327 3.06905C19.742 2.66258 19.9896 2.4375 20.3856 2.39778C20.6001 2.37527 20.8159 2.3938 21.0305 2.3938Z" fill="#000"/>
<path d="M39.2196 1.39154C39.0381 1.39154 38.8527 1.41537 38.6766 1.38625C38.286 1.32269 38.0542 1.09099 38.0648 0.67922C38.0754 0.291283 38.3058 0.0635518 38.6753 0.0225072C39.0011 -0.0132413 39.3348 -0.00132512 39.6632 0.0132391C40.1174 0.0330994 40.3969 0.316439 40.373 0.726885C40.3479 1.16381 40.0843 1.36903 39.6645 1.39551C39.5162 1.40478 39.3679 1.39684 39.2196 1.39684C39.2196 1.39551 39.2196 1.39419 39.2196 1.39154Z" fill="#000"/>
<path d="M27.1634 31.2958C27.1634 30.9171 27.1568 30.5385 27.1661 30.1598C27.1767 29.7096 27.4097 29.4435 27.8653 29.4369C28.6559 29.4237 29.4465 29.4237 30.2371 29.4382C30.6714 29.4462 30.9098 29.711 30.9204 30.1294C30.9403 30.9026 30.935 31.6785 30.9244 32.4517C30.9178 32.9019 30.6595 33.1719 30.2185 33.1852C29.4293 33.209 28.636 33.2117 27.8468 33.1825C27.4071 33.1653 27.1647 32.8899 27.1621 32.4345C27.1621 32.0532 27.1634 31.6745 27.1634 31.2958ZM28.5923 30.8443C28.5923 31.1806 28.5923 31.4799 28.5923 31.7738C28.9234 31.7738 29.2134 31.7738 29.5167 31.7738C29.5167 31.4507 29.5167 31.1621 29.5167 30.8443C29.2041 30.8443 28.9141 30.8443 28.5923 30.8443Z" fill="#000"/>
<path d="M36.2825 29.4303C36.6613 29.4303 37.04 29.4263 37.4188 29.4316C37.8796 29.4382 38.1286 29.703 38.1418 30.14C38.1657 30.9132 38.1617 31.6877 38.1432 32.461C38.1326 32.9045 37.869 33.1733 37.4254 33.1852C36.652 33.2064 35.8773 33.209 35.1039 33.1852C34.6285 33.1706 34.3968 32.9072 34.3888 32.4186C34.3769 31.6771 34.3769 30.937 34.3888 30.1956C34.3968 29.6726 34.6245 29.4488 35.1463 29.4316C35.5251 29.4197 35.9038 29.429 36.2825 29.4303ZM35.7899 31.7619C36.1422 31.7619 36.4388 31.7619 36.7288 31.7619C36.7288 31.4295 36.7288 31.1422 36.7288 30.8576C36.3925 30.8576 36.0945 30.8576 35.7899 30.8576C35.7899 31.1767 35.7899 31.4521 35.7899 31.7619Z" fill="#000"/>
<path d="M18.1557 28.2386C19.4084 28.2386 20.6625 28.236 21.9153 28.24C22.4543 28.2426 22.7734 28.4942 22.7854 28.9059C22.7973 29.3376 22.4636 29.6222 21.9034 29.6236C19.3806 29.6289 16.8579 29.6289 14.3351 29.6236C13.771 29.6222 13.4598 29.3429 13.4783 28.894C13.4955 28.4584 13.7736 28.2426 14.347 28.24C15.617 28.2347 16.8857 28.2386 18.1557 28.2386Z" fill="#000"/>
<path d="M18.1493 30.6179C19.402 30.6179 20.6561 30.6153 21.9089 30.6192C22.4518 30.6219 22.7683 30.8668 22.7842 31.2799C22.8014 31.7116 22.4677 32.0028 21.9102 32.0028C19.3875 32.0081 16.8647 32.0081 14.3419 32.0028C13.7752 32.0015 13.4639 31.7274 13.4785 31.2799C13.4918 30.8443 13.7725 30.6219 14.3419 30.6192C15.6106 30.6139 16.8806 30.6179 18.1493 30.6179Z" fill="#000"/>
<path d="M18.1449 32.9972C19.3977 32.9972 20.6518 32.9945 21.9045 32.9985C22.4501 32.9998 22.7653 33.2421 22.7839 33.6552C22.8037 34.0868 22.47 34.3821 21.9138 34.3821C19.3911 34.3874 16.8683 34.3874 14.3456 34.3821C13.7761 34.3808 13.4662 34.1107 13.4768 33.6631C13.4874 33.2275 13.7695 33.0011 14.3363 32.9985C15.6063 32.9932 16.8749 32.9972 18.1449 32.9972Z" fill="#000"/>
<path d="M42.2349 24.918C42.2349 25.2967 42.2455 25.6753 42.2323 26.054C42.2164 26.4777 41.982 26.7293 41.5595 26.7637C41.1742 26.7955 40.863 26.479 40.8537 26.0395C40.8391 25.2662 40.8391 24.493 40.8537 23.7198C40.8616 23.2987 41.096 23.0432 41.5251 23.0141C41.9197 22.9876 42.2137 23.2881 42.2323 23.7343C42.2468 24.1276 42.2349 24.5235 42.2349 24.918Z" fill="#000"/>
</g>
<defs>
<clipPath id="clip0_109_1329">
<rect width="47" height="47" fill="#000"/>
</clipPath>
</defs>
</svg>
