<svg width="60" height="59" viewBox="0 0 60 59" fill="none" xmlns="http://www.w3.org/2000/svg">
<path d="M27.1375 0.0257072C23.6817 0.652912 21.4312 1.51378 18.9593 3.18633C17.3728 4.26857 15.1099 6.56832 14.0031 8.22857C13.5112 8.95415 13.1176 9.60595 13.1176 9.65514C13.1176 9.71664 12.3306 9.79042 11.3713 9.82732C10.0923 9.86421 9.36671 9.9626 8.70261 10.1471C4.64423 11.3277 1.60659 14.3899 0.425966 18.4729C0.180003 19.3215 0.143109 19.715 0.143109 21.5966C0.143109 23.4782 0.180003 23.8718 0.425966 24.7204C1.60659 28.8033 4.61963 31.8287 8.70261 33.0462C9.51429 33.2922 9.96932 33.3291 12.7241 33.3659L15.8232 33.4274V35.2599C15.8232 36.6495 15.8724 37.2153 16.02 37.5596C16.4012 38.4943 17.4958 39.2936 18.3812 39.3059H18.7748V41.2736V43.2413H13.3021C8.45665 43.2413 7.82944 43.2168 7.82944 43.0569C7.82944 42.6879 7.31292 41.864 6.7718 41.3228C5.33292 39.9209 2.70112 39.9209 1.26224 41.3228C0.438264 42.1345 0.167705 42.7494 0.106214 43.9792C0.0693198 44.8401 0.106214 45.1476 0.327581 45.7379C1.06547 47.7179 3.43901 48.6894 5.55429 47.9023C6.45205 47.5703 7.37441 46.6602 7.66957 45.824L7.89093 45.2091H14.0646C20.0907 45.2091 20.2629 45.1968 20.4965 44.9631C20.7302 44.7294 20.7425 44.5573 20.7425 42.0115V39.3059H21.7263H22.7102V43.2413V47.1768H18.5288C14.5073 47.1768 14.3352 47.1891 14.1015 47.4227C13.8801 47.6441 13.8555 47.8286 13.8555 49.4396V51.1982L13.5112 51.272C12.6134 51.4565 11.3098 52.7724 11.027 53.7931C10.8179 54.5556 10.8794 55.8346 11.1622 56.5848C12.1092 59.1305 15.7002 59.8315 17.6679 57.8761C19.1437 56.3881 19.1683 53.7686 17.7417 52.2928C17.2006 51.7517 16.3766 51.2351 16.0077 51.2351C15.8601 51.2351 15.8232 51.0507 15.8232 50.1898V49.1445H20.0046C24.0261 49.1445 24.1983 49.1322 24.4319 48.8985C24.6656 48.6648 24.6779 48.4927 24.6779 43.9792V39.3059H26.6456H28.6133V44.2744V49.2305L28.2689 49.3043C27.3712 49.4888 26.0676 50.8047 25.7847 51.8254C25.5756 52.5879 25.6371 53.8669 25.92 54.6171C26.867 57.1628 30.458 57.8638 32.4257 55.9084C33.9015 54.4204 33.9261 51.8009 32.4995 50.3251C31.9584 49.784 31.1344 49.2674 30.7655 49.2674C30.6056 49.2674 30.581 48.6894 30.581 44.2867V39.3059H32.5487H34.5164V43.9792C34.5164 48.4927 34.5287 48.6648 34.7624 48.8985C34.996 49.1322 35.1682 49.1445 39.1897 49.1445H43.371V50.1775C43.371 51.1982 43.371 51.2105 43.0267 51.272C42.1289 51.4565 40.8253 52.7724 40.5425 53.7931C40.3334 54.5556 40.3949 55.8346 40.6778 56.5848C41.6247 59.1305 45.2158 59.8315 47.1835 57.8761C48.6592 56.3881 48.6838 53.7686 47.2573 52.2928C46.7161 51.7517 45.8922 51.2351 45.5232 51.2351C45.3633 51.2351 45.3387 50.9769 45.3387 49.4519C45.3387 47.8286 45.3142 47.6441 45.0928 47.4227C44.8591 47.1891 44.687 47.1768 40.6655 47.1768H36.4841V43.2413V39.3059H37.4679H38.4518V42.0115C38.4518 44.5573 38.4641 44.7294 38.6978 44.9631C38.9314 45.1968 39.1036 45.2091 45.1543 45.2091C50.6638 45.2091 51.3648 45.2336 51.3648 45.3935C51.3648 45.7625 51.8814 46.5864 52.4225 47.1276C53.8983 48.5541 56.5178 48.5295 58.0058 47.0538C59.4816 45.5657 59.5062 42.9462 58.0796 41.4704C57.2679 40.6464 56.653 40.3759 55.4232 40.3144C54.1073 40.2529 53.2219 40.5481 52.4225 41.3228C51.8814 41.864 51.3648 42.6879 51.3648 43.0569C51.3648 43.2168 50.7376 43.2413 45.8922 43.2413H40.4195V41.2736V39.3059H40.8253C41.6985 39.2936 42.793 38.4943 43.1743 37.5596C43.3219 37.2153 43.371 36.6373 43.371 35.2476V33.4028H47.0359C51.3033 33.4028 51.8568 33.3168 53.8245 32.3329C54.8083 31.841 55.1773 31.5581 56.1734 30.5743C57.4893 29.2707 58.1534 28.2376 58.7068 26.5774C59.0143 25.6673 59.0389 25.4459 59.0389 23.5643C59.0389 21.6827 59.0143 21.4614 58.7068 20.5513C58.1534 18.891 57.4893 17.858 56.1734 16.5421C55.165 15.546 54.8083 15.2754 53.8245 14.7835C52.1888 13.9841 51.0697 13.7258 49.2127 13.7258H47.7246L47.3925 12.6928C46.5194 10.0118 45.0067 7.60136 42.8176 5.42459C40.1735 2.76819 37.431 1.23093 33.7785 0.357758C32.6594 0.0872002 32.1552 0.0380058 29.9661 0.0134125C28.5764 -0.0111847 27.3097 0.00111389 27.1375 0.0257072ZM31.405 2.10409C33.3727 2.26397 36.066 3.14943 37.9107 4.23167C41.8092 6.51912 44.6501 10.2578 45.72 14.5006C46.0643 15.8657 46.3226 16.1363 47.245 16.001C48.7699 15.7796 49.3602 15.755 50.135 15.8288C53.0866 16.1486 55.743 18.3007 56.6653 21.1293C56.9113 21.8795 56.9605 22.273 56.9605 23.5643C56.9605 24.8556 56.9113 25.2492 56.6653 26.0117C55.9274 28.2499 53.9966 30.1807 51.7461 30.9432C50.6147 31.3245 49.3356 31.4351 46.1381 31.4351H43.3096L43.0513 30.9432L42.7807 30.4636L43.0759 29.8856C43.3587 29.3199 43.371 29.2092 43.371 26.5159C43.371 23.8349 43.3587 23.7119 43.0759 23.1585L42.793 22.5805L43.0759 22.0025C43.3587 21.4491 43.371 21.3261 43.371 18.682C43.371 15.6443 43.3219 15.3615 42.5963 14.599C42.3749 14.3776 41.9814 14.0825 41.7108 13.9595C41.2435 13.7381 40.6532 13.7258 29.6217 13.7258C16.8317 13.7258 17.5573 13.6766 16.6964 14.5006C15.8847 15.2754 15.8232 15.5583 15.8232 18.6574C15.8232 21.3384 15.8355 21.4491 16.1184 22.0025L16.4012 22.5805L16.1184 23.1585C15.8355 23.7119 15.8232 23.8349 15.8232 26.5159C15.8232 29.2092 15.8355 29.3199 16.1184 29.8856L16.4135 30.4636L16.143 30.9678L15.8847 31.4597L13.3021 31.3982C10.2153 31.3245 9.37901 31.1646 7.64497 30.3283C5.52969 29.2953 4.18919 27.9548 3.15615 25.8395C2.8241 25.1631 2.46746 24.2161 2.36907 23.7242C2.12311 22.5928 2.12311 20.6005 2.36907 19.4691C2.61503 18.313 3.59888 16.3084 4.36137 15.3984C5.27143 14.3038 6.27988 13.5291 7.64497 12.865C9.20683 12.1025 10.3137 11.8565 11.9985 11.8934C12.7118 11.9057 13.4743 11.918 13.6957 11.918C14.2122 11.9303 14.3843 11.7704 14.9501 10.7251C17.2744 6.53142 21.1237 3.56757 25.7109 2.46074C27.076 2.14099 29.0068 1.91962 29.9661 1.99341C30.2735 2.01801 30.9253 2.0672 31.405 2.10409ZM40.7147 15.8657C41.2927 16.1117 41.4033 16.5298 41.4033 18.6451C41.4033 20.7604 41.2927 21.1785 40.7147 21.4245C40.0997 21.6827 19.0945 21.6827 18.4796 21.4245C17.9016 21.1785 17.7909 20.7604 17.7909 18.6451C17.7909 16.5667 17.9016 16.1117 18.455 15.8657C19.033 15.6197 40.112 15.6197 40.7147 15.8657ZM40.7147 23.7365C41.2927 23.9825 41.4033 24.4006 41.4033 26.5159C41.4033 28.6312 41.2927 29.0493 40.7147 29.2953C40.0997 29.5535 19.0945 29.5535 18.4796 29.2953C17.9016 29.0493 17.7909 28.6312 17.7909 26.5159C17.7909 24.4375 17.9016 23.9825 18.455 23.7365C19.033 23.4905 40.112 23.4905 40.7147 23.7365ZM40.7147 31.6073C41.2927 31.8533 41.4033 32.2714 41.4033 34.3867C41.4033 36.502 41.2927 36.9201 40.7147 37.1661C40.0997 37.4243 19.0945 37.4243 18.4796 37.1661C17.9016 36.9201 17.7909 36.502 17.7909 34.3867C17.7909 32.3083 17.9016 31.8533 18.455 31.6073C19.033 31.3614 40.112 31.3614 40.7147 31.6073ZM4.97628 42.6264C6.57503 43.598 5.88634 46.0699 4.01702 46.0699C2.1477 46.0699 1.45901 43.598 3.05777 42.6264C3.58659 42.3067 4.44746 42.3067 4.97628 42.6264ZM56.1365 42.6264C57.7353 43.598 57.0466 46.0699 55.1773 46.0699C53.3079 46.0699 52.6192 43.598 54.218 42.6264C54.7468 42.3067 55.6077 42.3067 56.1365 42.6264ZM30.5564 51.4811C32.1552 52.4527 31.4665 54.9246 29.5971 54.9246C28.5518 54.9246 27.7524 54.1252 27.7524 53.0799C27.7524 52.0345 28.5518 51.2351 29.5971 51.2351C29.9292 51.2351 30.3104 51.3335 30.5564 51.4811ZM15.7986 53.4488C17.3974 54.4204 16.7087 56.8923 14.8394 56.8923C12.9701 56.8923 12.2814 54.4204 13.8801 53.4488C14.4089 53.129 15.2698 53.129 15.7986 53.4488ZM45.3142 53.4488C46.9129 54.4204 46.2242 56.8923 44.3549 56.8923C42.4856 56.8923 41.7969 54.4204 43.3956 53.4488C43.9245 53.129 44.7853 53.129 45.3142 53.4488Z" fill="black"/>
<path d="M19.7578 18.6451V19.6289H25.6609H31.564V18.6451V17.6612H25.6609H19.7578V18.6451Z" fill="black"/>
<path d="M33.5312 18.6451V19.6289H34.5151H35.499V18.6451V17.6612H34.5151H33.5312V18.6451Z" fill="black"/>
<path d="M37.4688 18.6451V19.6289H38.4526H39.4365V18.6451V17.6612H38.4526H37.4688V18.6451Z" fill="black"/>
<path d="M19.7578 26.5159V27.4998H25.6609H31.564V26.5159V25.5321H25.6609H19.7578V26.5159Z" fill="black"/>
<path d="M33.5312 26.5159V27.4998H34.5151H35.499V26.5159V25.5321H34.5151H33.5312V26.5159Z" fill="black"/>
<path d="M37.4688 26.5159V27.4998H38.4526H39.4365V26.5159V25.5321H38.4526H37.4688V26.5159Z" fill="black"/>
<path d="M19.7578 34.3868V35.3706H25.6609H31.564V34.3868V33.4029H25.6609H19.7578V34.3868Z" fill="black"/>
<path d="M33.5312 34.3868V35.3706H34.5151H35.499V34.3868V33.4029H34.5151H33.5312V34.3868Z" fill="black"/>
<path d="M37.4688 34.3868V35.3706H38.4526H39.4365V34.3868V33.4029H38.4526H37.4688V34.3868Z" fill="black"/>
</svg>
