<svg width="59" height="59" viewBox="0 0 59 59" fill="none" xmlns="http://www.w3.org/2000/svg">
<path d="M9.66546 0.0925138C9.07767 0.276918 8.44378 0.668778 7.98277 1.12979C6.79566 2.33994 6.50753 4.06873 7.23363 5.70532C7.55633 6.40837 8.50141 7.30734 9.20445 7.56089L9.78071 7.76835V10.2463V12.7357L8.73191 12.9317C5.20518 13.6001 2.1625 16.0896 0.75642 19.4665C0.122529 20.9994 0.0418525 21.495 0.0533778 23.6732C0.0533778 25.4712 0.0764283 25.7132 0.376086 26.6698C1.74759 31.1531 5.56246 34.1612 10.2071 34.4148C13.3881 34.5877 16.2464 33.4928 18.4708 31.2684C19.8653 29.8854 20.9372 28.0067 21.3175 26.2895C21.4097 25.8976 21.5134 25.7017 21.6056 25.7363C21.6748 25.7593 22.6544 26.4969 23.7724 27.3728C25.2822 28.5484 25.7893 29.0094 25.7432 29.1362C25.5703 29.5742 25.4897 30.5192 25.5703 31.0725C25.7663 32.2941 26.3425 33.1816 27.3568 33.8155C30.0537 35.5097 33.4306 33.6541 33.4306 30.4731C33.4306 28.8827 32.5777 27.5457 31.1601 26.8773C30.5723 26.6006 30.3188 26.5545 29.4889 26.5545C28.613 26.5545 28.4171 26.6006 27.7832 26.9118L27.0686 27.2576L24.3948 25.183L21.7209 23.097L21.5365 21.9444C21.4212 21.3105 21.2253 20.4577 21.087 20.0428C20.7874 19.1668 20.0497 17.7608 19.5772 17.1614L19.2545 16.7465L21.4328 14.8794C22.6314 13.8422 23.6571 13.0354 23.7148 13.0584C23.7724 13.093 23.8531 13.3235 23.8992 13.554C23.9453 13.7961 24.1527 14.43 24.3832 14.9716C25.651 18.0604 28.3479 20.4231 31.6557 21.3336C32.3933 21.5411 32.8543 21.5872 34.4448 21.5872C36.1736 21.5872 36.4387 21.5526 37.3607 21.276C37.9139 21.1031 38.7322 20.7804 39.1702 20.5614C39.6081 20.3424 40 20.158 40.0346 20.158C40.0576 20.158 41.0488 21.4373 42.2244 23.0048L44.3681 25.8515L43.5267 26.1512C39.9654 27.4074 37.2339 30.5884 36.5078 34.3341C36.2197 35.8093 36.358 38.172 36.819 39.6588C36.8651 39.8086 36.4041 40.212 34.9519 41.2954L33.0272 42.7476L32.5777 42.056C31.5981 40.5578 29.6733 38.9557 27.9906 38.2412C26.3541 37.5497 25.5588 37.3998 23.611 37.3883C22.1012 37.3883 21.6748 37.4344 20.8565 37.6534C17.8023 38.4832 15.4511 40.3618 13.9874 43.1279C13.4457 44.1536 12.9617 45.5713 12.8349 46.5163L12.7542 47.1272H10.2302C8.2709 47.1272 7.70616 47.0926 7.70616 46.9773C7.70616 46.7123 7.176 45.8479 6.72651 45.3868C6.00042 44.6377 5.28585 44.3265 4.13333 44.2689C2.79639 44.2113 2.01267 44.4879 1.12523 45.3868C0.226257 46.2743 -0.0503497 47.058 0.00727668 48.3949C0.0533778 49.1556 0.122529 49.5014 0.353035 49.9509C1.62082 52.4057 4.87094 52.9013 6.78414 50.9305C7.14142 50.5732 7.42955 50.1237 7.55633 49.778L7.76379 49.2017H10.2417H12.7312L12.9271 50.2505C13.7224 54.4803 17.1915 57.984 21.4097 58.8368C22.8619 59.125 25.2707 59.0213 26.6652 58.6063C29.3622 57.7996 31.6442 55.9786 33.0502 53.5237C33.4997 52.74 34.099 51.2302 34.099 50.8729C34.099 50.7807 34.1221 50.7 34.1451 50.7C34.2028 50.7 40.3342 53.6735 40.3918 53.7312C40.4149 53.7427 40.3918 54.0539 40.3342 54.3996C40.0461 56.1515 40.9451 57.8918 42.5125 58.6409C43.0542 58.8945 43.2962 58.9406 44.2413 58.9406C45.1864 58.9406 45.4284 58.8945 45.9701 58.6409C48.4134 57.4769 48.9667 54.1806 47.0419 52.2444C45.7281 50.942 43.4921 50.7115 42.04 51.7488L41.6942 51.9908L38.0983 50.2505L34.5024 48.5102L34.4218 47.4383C34.3757 46.8621 34.2373 45.9977 34.1221 45.5367L33.9031 44.7069L35.4706 43.5313C36.3349 42.8859 37.1993 42.2404 37.3953 42.0906L37.7526 41.8255L38.1905 42.4825C39.6427 44.6723 41.8556 46.1936 44.7023 46.9773C45.8779 47.2885 48.5978 47.2539 49.8887 46.9082C52.2975 46.2628 54.3259 44.9143 55.8242 42.9665C58.1984 39.9008 58.717 35.6019 57.1496 32.0175C55.5476 28.3871 52.1707 25.9552 48.206 25.5749C47.526 25.5173 46.9382 25.4827 46.8921 25.5173C46.846 25.5518 45.6704 24.0536 44.2759 22.198L41.7518 18.8326L42.2589 18.314C43.8149 16.7235 44.7138 14.8218 45.244 12.0096L45.3362 11.5141L48.2751 12.9432C50.6954 14.1188 51.2026 14.4069 51.1795 14.5798C51.1565 14.7066 51.1449 15.2137 51.1334 15.7323C51.1219 16.516 51.168 16.7696 51.4331 17.3459C52.8507 20.4462 57.1611 20.4807 58.6709 17.4035C58.8899 16.9655 58.936 16.6889 58.936 15.7208C58.936 14.7296 58.9014 14.4876 58.6594 13.992C58.2791 13.2313 57.5069 12.4822 56.7116 12.1134C56.1584 11.8483 55.8933 11.8022 55.0635 11.8022C54.1761 11.8022 54.0032 11.8368 53.2656 12.2056L52.4473 12.609L48.8975 10.9032C46.9382 9.95815 45.3016 9.15138 45.2555 9.10528C45.2094 9.05918 45.0596 8.63274 44.9443 8.13716C43.9762 4.35687 41.0834 1.4064 37.2685 0.311494C36.4617 0.0809885 36.0929 0.0464127 34.3872 0.0464127C32.9004 0.057938 32.255 0.104039 31.7248 0.253868C28.4978 1.15284 25.8354 3.38874 24.51 6.29311C24.0836 7.22666 23.611 9.04765 23.611 9.72765V10.2232L20.868 12.5744C19.3697 13.8537 18.0443 14.9832 17.9406 15.0754C17.7677 15.2021 17.6755 15.1791 17.2837 14.8679C16.1772 13.992 13.8952 13.0354 12.4661 12.8395L11.8553 12.7588V10.2348C11.8553 8.27546 11.8898 7.71072 12.0051 7.71072C12.2702 7.71072 13.1346 7.18056 13.5956 6.73107C14.3447 6.00498 14.6559 5.29041 14.7135 4.13789C14.7712 2.80095 14.4945 2.01724 13.5956 1.12979C12.7773 0.299969 11.982 -0.0112137 10.7834 0.000311593C10.3224 0.000311593 9.82681 0.0464127 9.66546 0.0925138ZM11.7515 2.32842C12.6505 2.93926 12.9156 3.94196 12.4085 4.85245C11.7861 5.94735 10.3685 6.13176 9.48105 5.24431C8.81259 4.57585 8.73191 3.49247 9.29665 2.78943C9.88444 2.06334 11.0254 1.84436 11.7515 2.32842ZM36.4733 2.29384C42.04 3.69993 44.7945 9.78527 42.1552 14.8564C41.7518 15.6516 40.6915 17.0577 40.4495 17.1384C40.3918 17.1614 40.3342 16.8733 40.2996 16.5045C40.2074 15.2944 39.5159 14.3493 38.398 13.9344C37.8332 13.7269 37.499 13.7039 34.3987 13.7039C30.5838 13.7039 30.3303 13.75 29.4428 14.5222C28.855 15.0408 28.4517 15.9398 28.4517 16.735L28.4401 17.2191L27.8754 16.6082C26.6768 15.3289 25.9046 13.5886 25.6971 11.71C25.2015 7.35344 28.2096 3.19281 32.5431 2.23622C33.615 1.99418 35.4014 2.02876 36.4733 2.29384ZM55.9279 14.0842C56.5733 14.4415 56.8384 14.8564 56.896 15.5825C56.9537 16.3201 56.7577 16.7811 56.17 17.2191C55.4093 17.8069 54.3374 17.7031 53.7035 16.9886C53.0351 16.2164 53.012 15.2713 53.6574 14.4991C54.2452 13.7961 55.1442 13.6347 55.9279 14.0842ZM12.7197 15.0293C13.1807 15.1215 14.0451 15.4557 14.7366 15.7899C15.7739 16.3086 16.085 16.5276 16.9264 17.3804C18.8396 19.3167 19.6694 21.4027 19.5426 23.9614C19.4274 26.0129 18.8626 27.5227 17.5948 29.1132L16.8688 30.0121L16.7305 29.2399C16.5115 28.0183 16.0966 27.4074 15.1745 26.8888L14.5637 26.5545L11.0139 26.52C7.02617 26.4854 6.73804 26.52 5.88517 27.2461C5.3089 27.7417 4.97467 28.4216 4.87094 29.2976L4.79027 29.966L4.50213 29.7009C3.59164 28.8481 2.55436 26.9118 2.23166 25.4135C1.932 24.0881 2.03573 22.1519 2.45064 20.9072C3.2113 18.6482 5.06687 16.5621 7.15295 15.6055C8.72039 14.891 10.9332 14.6605 12.7197 15.0293ZM37.7065 15.9167C38.1675 16.1587 38.2366 16.3662 38.2481 17.5418V18.6713L37.741 18.8902C36.7038 19.3512 35.8163 19.5241 34.3872 19.5126C32.958 19.5126 32.1397 19.3628 31.0448 18.8902L30.5262 18.6713V17.5994C30.5262 16.4469 30.653 16.0896 31.1486 15.8937C31.5289 15.7323 37.4068 15.7554 37.7065 15.9167ZM48.8514 27.7762C49.831 27.9376 51.0988 28.4677 52.1476 29.1708C55.1327 31.1647 56.5964 34.991 55.7089 38.4947C55.4208 39.6357 54.5795 41.2378 53.8303 42.056L53.1734 42.7937L53.1042 42.1021C52.989 40.892 52.4012 40.0622 51.3063 39.5551C50.707 39.2785 50.6954 39.2785 47.0419 39.313C43.5382 39.3476 43.3538 39.3591 42.9159 39.6012C41.9247 40.1313 41.2562 41.1916 41.2447 42.2289L41.2332 42.8052L40.6339 42.1482C39.8271 41.2723 39.1356 40.0276 38.7668 38.7713C38.3864 37.492 38.3288 35.671 38.64 34.4033C38.8936 33.3545 39.5851 31.9138 40.2651 31.0033C41.3945 29.5165 43.446 28.2257 45.2786 27.8339C46.6731 27.5457 47.2609 27.5342 48.8514 27.7762ZM14.1603 28.7443C14.5983 28.9749 14.7596 29.5281 14.7135 30.6345L14.679 31.4989L13.8146 31.8101C11.7054 32.5707 9.33123 32.5131 7.33735 31.6372L6.89939 31.4528V30.4386C6.89939 29.3437 7.0377 28.9403 7.47566 28.7213C7.92514 28.4908 13.7108 28.5138 14.1603 28.7443ZM30.5838 28.9633C31.5981 29.7355 31.6326 31.1186 30.6415 31.9484C29.4659 32.9396 27.6218 32.0406 27.6218 30.4731C27.6218 28.9288 29.3737 28.0413 30.5838 28.9633ZM25.3168 39.5896C30.0421 40.5578 33.154 45.2024 32.1858 49.8702C31.8631 51.4491 31.1486 52.8783 30.0882 54.0539L29.5466 54.6647L29.4774 53.8349C29.4313 53.1664 29.3506 52.9129 29.074 52.521C28.59 51.8295 27.8754 51.3224 27.1839 51.1725C26.4117 51.0112 20.8104 51.0112 20.0382 51.1725C18.7589 51.4491 17.7908 52.5556 17.6525 53.8925L17.5833 54.5494L16.9955 53.904C15.6125 52.3942 14.9671 50.7346 14.8864 48.5678C14.8173 46.7468 15.0132 45.8248 15.7854 44.2458C16.304 43.2086 16.523 42.8974 17.3759 42.056C18.4131 41.0303 19.2084 40.5001 20.3955 40.0161C21.9053 39.4052 23.6687 39.2554 25.3168 39.5896ZM50.4995 41.5028C50.9605 41.7449 51.0297 41.9523 51.0412 43.1279V44.2574L50.4995 44.4879C49.5314 44.9143 47.8718 45.2024 46.8114 45.1333C45.7742 45.0641 44.5755 44.7991 43.8149 44.4648L43.3193 44.2574V43.1509C43.3193 42.0791 43.3308 42.0215 43.6535 41.6988L43.9877 41.3645H47.1226C49.2778 41.3645 50.3266 41.4106 50.4995 41.5028ZM4.81332 46.5509C5.91974 47.1156 6.13872 48.6024 5.23975 49.5014C4.35231 50.3888 2.9347 50.2044 2.31233 49.1095C1.80522 48.199 2.0703 47.1963 2.96927 46.5855C3.46486 46.2512 4.214 46.2397 4.81332 46.5509ZM27.1147 53.4545C27.4029 53.7196 27.4144 53.8003 27.4144 54.9183V56.1054L26.7574 56.3474C24.6944 57.1196 22.4009 57.1196 20.3609 56.3243L19.6924 56.0593V55.0566C19.6924 54.5033 19.7616 53.9156 19.8308 53.7427C20.0958 53.1664 20.3955 53.1203 23.7493 53.1549L26.8151 53.1779L27.1147 53.4545ZM45.244 53.4776C46.0853 53.9962 46.3504 55.1027 45.8548 55.9786C45.1518 57.2233 43.3308 57.2233 42.6278 55.9786C41.6712 54.2728 43.5728 52.4518 45.244 53.4776Z" fill="black"/>
<path d="M32.9357 4.18397C32.5669 4.32227 32.1289 4.5643 31.9561 4.7026C29.628 6.53512 30.0659 10.2347 32.7513 11.4679C34.7337 12.3669 37.0848 11.514 37.9953 9.55474C38.3526 8.79408 38.4563 7.60697 38.2373 6.81173C37.6265 4.54125 35.0909 3.28499 32.9357 4.18397ZM35.4482 6.28157C35.9669 6.67343 36.2089 7.08834 36.2665 7.69918C36.3703 8.87475 35.3215 9.91203 34.1689 9.73915C33.3045 9.60085 32.4862 8.69035 32.4862 7.86053C32.4862 7.31884 32.9703 6.53512 33.4774 6.23546C34.0306 5.91276 34.9757 5.93581 35.4482 6.28157Z" fill="black"/>
<path d="M9.2744 16.9885C7.15375 17.8529 6.2663 20.2156 7.23443 22.4054C7.49951 23.0047 8.3178 23.8575 8.94017 24.1687C10.8995 25.1714 13.3428 24.3877 14.3455 22.4399C14.8065 21.564 14.8642 20.1464 14.4953 19.1783C14.1496 18.2447 13.2045 17.2881 12.2825 16.9539C11.3489 16.5966 10.1849 16.6082 9.2744 16.9885ZM11.7523 19.04C13.193 20.0081 12.8818 22.0135 11.2222 22.4745C9.97744 22.8203 8.67509 21.5294 8.96322 20.2617C9.25135 19.0169 10.7496 18.36 11.7523 19.04Z" fill="black"/>
<path d="M45.9125 29.6318C45.3478 29.8277 44.4027 30.5077 44.0685 30.9457C43.4807 31.7179 43.2732 32.3518 43.2617 33.4121C43.2617 34.2419 43.3078 34.4955 43.5614 35.0371C44.7946 37.6534 48.1715 38.2181 50.1077 36.1205C50.7531 35.4175 51.0643 34.6914 51.1335 33.7348C51.2603 31.9484 50.246 30.3348 48.621 29.7125C47.9756 29.4704 46.5003 29.4243 45.9125 29.6318ZM48.0332 31.7409C49.1742 32.3287 49.4162 33.7924 48.5172 34.6914C47.699 35.5212 46.6271 35.5097 45.8319 34.6683C45.1519 33.9538 45.1288 33.0087 45.7627 32.2019C46.2352 31.6026 47.3417 31.3721 48.0332 31.7409Z" fill="black"/>
<path d="M22.4567 41.4106C21.3618 41.7218 20.4628 42.517 19.9672 43.6119C19.7022 44.1882 19.6445 44.4648 19.6445 45.2254C19.6445 46.4126 20.0364 47.3461 20.8662 48.1183C21.7191 48.9135 22.3069 49.144 23.5516 49.144C24.4967 49.144 24.658 49.1095 25.3611 48.7637C26.2024 48.3488 26.7326 47.8186 27.1821 46.9312C27.4356 46.4471 27.4702 46.2281 27.4702 45.2254C27.4702 44.2227 27.4356 44.0038 27.1821 43.5082C26.7787 42.7129 26.018 41.9753 25.2573 41.6296C24.4851 41.2723 23.2519 41.1801 22.4567 41.4106ZM24.4621 43.5889C25.0845 43.9346 25.3611 44.3611 25.4187 45.018C25.5339 46.1129 24.8194 47.0003 23.7475 47.0925C23.0791 47.1502 22.5604 46.8966 22.0648 46.2858C21.7767 45.917 21.7191 45.7441 21.7191 45.2254C21.7191 44.7068 21.7767 44.5339 22.0648 44.1651C22.7333 43.3238 23.6323 43.1048 24.4621 43.5889Z" fill="black"/>
</svg>
