<svg width="60" height="59" viewBox="0 0 60 59" fill="none" xmlns="http://www.w3.org/2000/svg">
<path d="M40.0129 0.186165C35.8366 0.935764 31.8982 3.50582 29.4709 7.06345C28.8522 7.97962 27.9122 9.84768 27.6386 10.7044L27.4244 11.3826L26.8533 11.0256C25.9966 10.5021 24.4379 9.90717 23.2956 9.6811C21.7845 9.37174 19.2145 9.47882 17.7867 9.90717C16.5611 10.276 15.2999 10.8828 14.3123 11.5848C13.4795 12.1798 12.0873 13.5957 11.5281 14.4048C10.9213 15.309 10.2312 16.8558 9.94563 17.9624L9.68387 18.9976L9.04135 19.1403C8.06568 19.3545 6.63787 20.1279 5.92397 20.8299C4.55565 22.1744 3.90124 23.7331 3.90124 25.6488C3.90124 26.3865 3.97263 27.0766 4.09162 27.4811C4.60325 29.2064 5.85258 30.777 7.32798 31.5504C8.6606 32.2405 9.18413 32.3476 11.421 32.3476H13.42V34.2513V36.1551H10.5643H7.70873V39.0107V41.8663H4.9483C1.85471 41.8663 1.59295 41.9258 0.84335 42.7111C0.09375 43.4964 0.09375 43.5321 0.09375 48.5532C0.09375 53.6338 0.105648 53.6457 0.938537 54.4429C1.59295 55.0497 2.06889 55.1925 3.54429 55.1925H4.85311V56.1444V57.0963H3.90124H2.94937V58.0481V59H8.6606H14.3718V58.0481V57.0963H13.42H12.4681V56.1444V55.1925H13.8126C15.3237 55.1925 15.8353 55.0259 16.4779 54.3477C17.1799 53.61 17.2275 53.3483 17.2275 50.3142V47.5775H19.1312H21.0349V50.3142C21.0349 53.3483 21.0825 53.61 21.7845 54.3477C22.4271 55.0259 22.9387 55.1925 24.4617 55.1925H25.7943V56.1444V57.0963H24.8424H23.8906V58.0481V59H29.6018H35.313V58.0481V57.0963H34.3612H33.4093V56.1444V55.1925H34.7538C36.2649 55.1925 36.7765 55.0259 37.4191 54.3477C38.1211 53.61 38.1687 53.3483 38.1687 50.3142V47.5775H40.0724H41.9761V50.338C41.9761 53.4315 42.0356 53.6933 42.8209 54.4429C43.4753 55.0497 43.9513 55.1925 45.4267 55.1925H46.7355V56.1444V57.0963H45.7836H44.8318V58.0481V59H50.543H56.2542V58.0481V57.0963H55.3024H54.3505V56.1444V55.1925H55.6593C57.1347 55.1925 57.6107 55.0497 58.2651 54.4429C59.098 53.6457 59.1099 53.6338 59.1099 48.5532C59.1099 43.5321 59.1099 43.4964 58.3603 42.7111C57.6107 41.9258 57.3489 41.8663 54.2672 41.8663H51.4949V39.0107V36.1551H48.6393H45.7836V34.1561V32.1572L46.7117 31.943C52.9346 30.4795 57.8248 25.2799 58.9195 18.9619C59.1575 17.5816 59.1693 14.8926 58.9314 13.4291C57.8367 6.74219 52.3397 1.25702 45.6409 0.162369C44.2487 -0.0637016 41.2979 -0.0518036 40.0129 0.186165ZM44.3201 2.31598C45.5219 2.9109 46.9259 4.69566 47.7826 6.73029L48.1514 7.59887H42.928H37.7046L38.1211 6.6232C38.7041 5.25489 39.2752 4.36251 40.1557 3.42253C41.1433 2.37547 41.8691 2.00662 42.928 2.00662C43.5348 2.00662 43.8561 2.07801 44.3201 2.31598ZM37.4072 3.57721C36.836 4.46959 36.2768 5.61184 35.908 6.647L35.5748 7.53938L33.5878 7.57508L31.6007 7.59887L32.0886 7.01585C32.7549 6.23056 33.8495 5.23109 34.7657 4.56478C35.4677 4.06505 37.5023 2.9585 37.7165 2.9585C37.7641 2.9585 37.6332 3.24406 37.4072 3.57721ZM49.139 3.43443C50.9594 4.33871 52.4467 5.49286 53.6842 6.93256L54.2553 7.59887L52.2683 7.57508L50.2812 7.53938L49.9481 6.647C49.5792 5.61184 49.02 4.46959 48.4489 3.57721C48.2228 3.24406 48.08 2.9585 48.1157 2.9585C48.1633 2.9585 48.6155 3.17267 49.139 3.43443ZM34.8847 10.2046C34.6824 11.0851 34.3612 13.7504 34.3612 14.5832V15.2139L32.6716 15.202H30.9701L30.5299 14.5238C30.2919 14.143 29.8755 13.5957 29.6137 13.2982L29.1378 12.7509L29.3519 12.0489C29.4709 11.6681 29.7446 10.9304 29.9469 10.4188L30.3395 9.50262H32.6954H35.0394L34.8847 10.2046ZM48.8653 10.1094C49.1271 11.3112 49.3532 12.9175 49.4365 14.0478L49.5078 15.2139H42.928H36.3482L36.4196 14.0478C36.5029 12.9175 36.729 11.3112 36.9907 10.1094L37.1216 9.50262H42.928H48.7344L48.8653 10.1094ZM55.9568 10.5378C56.4565 11.7157 56.8968 13.3696 57.0276 14.4643L57.1109 15.2139H54.3267H51.5306L51.4592 13.9764C51.3759 12.6914 51.0903 10.5616 50.9119 9.88337L50.8048 9.50262H53.1607H55.5165L55.9568 10.5378ZM23.0577 11.7157C24.2475 11.9656 25.9014 12.7628 26.9128 13.5719C28.9831 15.2377 30.1848 17.5221 30.4466 20.3302C30.5061 21.0084 30.5894 21.5914 30.6132 21.6152C30.637 21.6509 31.1129 21.52 31.6721 21.3415C32.9929 20.9132 34.2898 20.9489 35.3487 21.4367C36.2292 21.8413 37.2525 22.8526 37.6689 23.745C37.9545 24.3637 37.9902 24.5779 37.9902 25.6845C37.9902 26.791 37.9545 27.0052 37.6689 27.6239C37.2644 28.4806 36.2292 29.5276 35.3963 29.9084C35.0513 30.075 34.3969 30.2534 33.9447 30.3248C32.8263 30.4795 11.1474 30.4795 10.0289 30.3248C9.57678 30.2534 8.92237 30.075 8.57732 29.9084C7.74443 29.5276 6.70927 28.4806 6.30472 27.6239C6.01916 27.0052 5.98346 26.791 5.98346 25.6845C5.98346 24.5779 6.01916 24.3637 6.30472 23.745C6.72116 22.8526 7.74443 21.8413 8.62491 21.4367C9.17224 21.1869 9.55299 21.1036 10.4097 21.0679L11.5043 21.0203L11.5757 20.4611C11.6114 20.1636 11.7185 19.4854 11.8256 18.9619C12.4681 15.7017 14.8597 13.0245 18.0841 11.9537C19.6071 11.4421 21.2967 11.3588 23.0577 11.7157ZM34.3612 17.7958C34.3612 18.1766 34.3969 18.6049 34.4326 18.7477C34.5039 19.0213 34.4921 19.0213 33.445 19.0213H32.3741L32.1362 18.0695L31.8982 17.1176H33.1237H34.3612V17.7958ZM49.4365 18.2717C49.3532 19.414 49.1271 21.0203 48.8653 22.222L48.7344 22.8288H44.1179H39.5013L39.1443 22.1982C38.7279 21.4724 37.7165 20.4373 37.0264 20.0208L36.5386 19.7353L36.4553 18.8191C36.4196 18.3193 36.3839 17.7363 36.3839 17.5103V17.1176H42.9518H49.5078L49.4365 18.2717ZM57.0276 17.8553C56.8968 18.9619 56.4565 20.6157 55.9568 21.7818L55.5165 22.8288H53.1607H50.8048L50.9119 22.4362C51.0903 21.7699 51.3759 19.6401 51.4592 18.355L51.5306 17.1176H54.3267H57.1109L57.0276 17.8553ZM47.7826 25.5893C46.914 27.6596 45.51 29.4325 44.2963 30.0393C43.7371 30.301 43.511 30.3486 42.5592 30.3367C41.9524 30.3367 41.2622 30.301 41.0362 30.2653C40.4769 30.1702 38.954 29.8251 38.8945 29.7775C38.8707 29.7537 39.0372 29.373 39.2752 28.9327C39.8701 27.7786 40.0724 26.9933 40.0724 25.7796V24.7326H44.1179H48.1514L47.7826 25.5893ZM53.6366 25.4465C52.887 26.3151 51.8161 27.2669 50.8286 27.9214C50.1742 28.3735 48.2942 29.373 48.1157 29.373C48.08 29.373 48.2228 29.0874 48.4489 28.7423C49.139 27.6715 49.7101 26.4341 50.2455 24.8754C50.2812 24.7683 50.8048 24.7326 52.2802 24.7326H54.2553L53.6366 25.4465ZM38.2163 31.6932C39.6441 32.1215 41.1314 32.3476 42.583 32.3476H43.8799V35.2032V38.0588H46.7355H49.5911V39.9625V41.8663H46.8307C43.7371 41.8663 43.4753 41.9258 42.7257 42.7111C42.1784 43.2941 41.9761 43.8652 41.9761 44.8409V45.6738H40.0724H38.1687V44.8409C38.1687 43.8652 37.9664 43.2941 37.4191 42.7111C36.6695 41.9258 36.4077 41.8663 33.326 41.8663H30.5537V37.1069V32.3476H32.5645C34.6824 32.3476 35.4677 32.2048 36.5029 31.6337C37.0383 31.3362 37.0621 31.3362 38.2163 31.6932ZM28.6499 37.1069V41.8663H25.8895C22.7959 41.8663 22.5341 41.9258 21.7845 42.7111C21.2372 43.2941 21.0349 43.8652 21.0349 44.8409V45.6738H19.1312H17.2275V44.8409C17.2275 43.8652 17.0252 43.2941 16.4779 42.7111C15.7283 41.9258 15.4665 41.8663 12.3848 41.8663H9.61248V39.9625V38.0588H12.4681H15.3237V35.2032V32.3476H21.9868H28.6499V37.1069ZM14.6574 43.9366C15.2523 44.1865 15.3237 44.5434 15.3237 47.173V49.4813H8.6606H1.9975V47.173C1.9975 44.5791 2.08078 44.1865 2.64001 43.9366C3.18734 43.6986 14.0863 43.6986 14.6574 43.9366ZM35.5986 43.9366C36.1935 44.1865 36.2649 44.5434 36.2649 47.173V49.4813H29.6018H22.9387V47.173C22.9387 44.5791 23.022 44.1865 23.5812 43.9366C24.1285 43.6986 35.0275 43.6986 35.5986 43.9366ZM56.5398 43.9366C57.1347 44.1865 57.2061 44.5434 57.2061 47.173V49.4813H50.543H43.8799V47.173C43.8799 44.5791 43.9632 44.1865 44.5224 43.9366C45.0697 43.6986 55.9687 43.6986 56.5398 43.9366ZM15.3237 51.7896C15.3237 52.4797 15.0857 52.9437 14.6574 53.1222C14.1339 53.3364 3.33012 53.3721 2.7114 53.1579C2.27116 53.0032 1.9975 52.4797 1.9975 51.8015V51.385H8.6606H15.3237V51.7896ZM36.2649 51.7896C36.2649 52.4797 36.0269 52.9437 35.5986 53.1222C35.0751 53.3364 24.2713 53.3721 23.6526 53.1579C23.2124 53.0032 22.9387 52.4797 22.9387 51.8015V51.385H29.6018H36.2649V51.7896ZM57.2061 51.7896C57.2061 52.4797 56.9681 52.9437 56.5398 53.1222C56.0163 53.3364 45.2125 53.3721 44.5938 53.1579C44.1536 53.0032 43.8799 52.4797 43.8799 51.8015V51.385H50.543H57.2061V51.7896ZM10.5643 56.1444V57.0963H8.6606H6.75686V56.1444V55.1925H8.6606H10.5643V56.1444ZM31.5055 56.1444V57.0963H29.6018H27.6981V56.1444V55.1925H29.6018H31.5055V56.1444ZM52.4467 56.1444V57.0963H50.543H48.6393V56.1444V55.1925H50.543H52.4467V56.1444Z" fill="black"/>
<path d="M21.0352 14.3214V15.3328H21.4873C22.5225 15.3328 23.8551 15.9158 24.8307 16.8082C25.4376 17.3793 26.2229 18.5216 26.3299 19.0213C26.4132 19.414 26.3894 19.414 27.6626 19.0213C28.0314 18.9023 28.3646 18.7595 28.3765 18.7001C28.4003 18.6406 28.1623 18.0813 27.8648 17.4626C27.0795 15.9158 25.9849 14.8331 24.45 14.0954C23.2959 13.5361 22.4511 13.3101 21.5706 13.3101H21.0352V14.3214Z" fill="black"/>
<path d="M13.1219 23.0549C12.0867 23.5308 11.5156 24.4827 11.5156 25.7082C11.5275 27.3978 12.6698 28.54 14.3712 28.54C16.0846 28.54 17.2269 27.3978 17.2269 25.6844C17.2269 24.447 16.5962 23.4594 15.5373 23.0192C14.9186 22.7574 13.7168 22.7812 13.1219 23.0549ZM14.9662 25.0895C15.097 25.2204 15.2041 25.4821 15.2041 25.6844C15.2041 25.8867 15.097 26.1485 14.9662 26.2793C14.4545 26.791 13.5384 26.4102 13.5384 25.6844C13.5384 25.2323 13.9191 24.8515 14.3712 24.8515C14.5735 24.8515 14.8353 24.9586 14.9662 25.0895Z" fill="black"/>
<path d="M20.7391 23.0549C19.7039 23.5308 19.1328 24.4827 19.1328 25.7082C19.1447 27.3978 20.287 28.54 21.9884 28.54C23.7018 28.54 24.844 27.3978 24.844 25.6844C24.844 24.447 24.2134 23.4594 23.1545 23.0192C22.5358 22.7574 21.334 22.7812 20.7391 23.0549ZM22.5834 25.0895C22.7142 25.2204 22.8213 25.4821 22.8213 25.6844C22.8213 25.8867 22.7142 26.1485 22.5834 26.2793C22.4525 26.4102 22.1907 26.5173 21.9884 26.5173C21.7862 26.5173 21.5244 26.4102 21.3935 26.2793C21.2626 26.1485 21.1555 25.8867 21.1555 25.6844C21.1555 25.4821 21.2626 25.2204 21.3935 25.0895C21.5244 24.9586 21.7862 24.8515 21.9884 24.8515C22.1907 24.8515 22.4525 24.9586 22.5834 25.0895Z" fill="black"/>
<path d="M28.3524 23.0549C27.3172 23.5308 26.7461 24.4827 26.7461 25.7082C26.758 27.3978 27.9002 28.54 29.6017 28.54C31.3151 28.54 32.4573 27.3978 32.4573 25.6844C32.4573 24.447 31.8267 23.4594 30.7678 23.0192C30.149 22.7574 28.9473 22.7812 28.3524 23.0549ZM30.1966 25.0895C30.3275 25.2204 30.4346 25.4821 30.4346 25.6844C30.4346 25.8867 30.3275 26.1485 30.1966 26.2793C30.0657 26.4102 29.804 26.5173 29.6017 26.5173C29.3994 26.5173 29.1377 26.4102 29.0068 26.2793C28.8759 26.1485 28.7688 25.8867 28.7688 25.6844C28.7688 25.4821 28.8759 25.2204 29.0068 25.0895C29.1377 24.9586 29.3994 24.8515 29.6017 24.8515C29.804 24.8515 30.0657 24.9586 30.1966 25.0895Z" fill="black"/>
</svg>
