<svg width="58" height="59" viewBox="0 0 58 59" fill="none" xmlns="http://www.w3.org/2000/svg">
<path d="M32.5043 0.0615692C28.8992 0.441051 25.6143 1.76924 22.7801 3.98684L22.033 4.56792H17.5029C14.135 4.56792 12.8898 4.6035 12.6764 4.72209C12.4985 4.8051 11.3245 6.53649 9.65236 9.1573L6.91296 13.4621H4.38703C2.02713 13.4621 1.8611 13.4739 1.63578 13.6992C1.33931 13.9957 1.32745 14.4345 1.61207 14.6835C1.80181 14.8614 2.20501 14.8851 4.75466 14.8851C7.39918 14.8851 7.70751 14.8614 7.86167 14.6716C7.95654 14.5649 9.2373 12.5964 10.6959 10.3195L13.3523 6.16887L21.6179 6.13329L29.8835 6.10957L31.9944 7.02271L34.1053 7.94769L34.1527 8.84896C34.1764 9.60793 34.2357 9.82139 34.5322 10.2483C35.0065 10.9243 35.7299 11.3393 36.6193 11.4105C38.7421 11.6121 40.2126 9.33517 39.2164 7.40219C38.5642 6.10957 36.8802 5.62336 35.5283 6.32303L34.888 6.66694L32.5873 5.64708L30.2749 4.62722L27.4287 4.56792L24.5826 4.50863L25.2942 4.06985C27.1086 2.96698 29.0297 2.19616 31.0694 1.75738C31.8284 1.59136 32.5992 1.54392 34.3662 1.54392C36.3584 1.54392 36.8565 1.5795 37.912 1.81668C41.3747 2.59936 44.3276 4.28331 46.8417 6.91597C49.0593 9.25216 50.6365 12.3117 51.265 15.5018C51.5615 16.996 51.6208 19.5575 51.3955 21.0398L51.2057 22.2732L52.9371 25.4632C53.8977 27.2183 54.6566 28.6769 54.6329 28.6888C54.6092 28.7125 53.8858 29.009 53.0201 29.341C51.1938 30.0644 50.4705 30.6099 50.008 31.6298C49.7352 32.2346 49.7234 32.3769 49.6641 35.899C49.6048 39.4922 49.6048 39.5515 49.332 39.8124C49.0711 40.0851 49.0237 40.0851 45.6676 40.1207C43.4856 40.1444 42.2048 40.2037 42.11 40.2867C41.9914 40.3816 41.9558 41.105 41.9558 43.3582V46.311H34.0104H26.065V40.2156C26.065 36.8595 26.0294 34.0253 25.9938 33.9185C25.9464 33.8118 25.555 33.4916 25.1281 33.2189C24.2862 32.6734 22.7089 31.44 22.3413 31.025L22.116 30.7759H24.5945L27.073 30.7878L29.3855 34.2506L31.6979 37.7134L33.6072 37.7489L35.5165 37.7727L35.7299 38.2352C36.3347 39.5871 37.9594 40.1681 39.3469 39.5396C40.0584 39.2194 40.2837 39.006 40.6039 38.3063C41.1613 37.1323 40.9004 35.8397 39.9398 35.0214C38.6472 33.9067 36.6431 34.2624 35.8248 35.7567L35.4928 36.3496H34.046H32.5873L30.8322 33.7051C29.8598 32.2583 29.0297 31.0013 28.9823 30.9183C28.9111 30.8115 29.4685 30.7759 31.6149 30.7759H34.3306L34.6271 31.3333C35.5876 33.2307 38.3744 33.2426 39.3943 31.357C39.6908 30.8234 39.7264 30.6574 39.6789 29.8865C39.6315 28.7599 39.2401 28.1433 38.2914 27.6571C36.8684 26.9455 35.2674 27.4436 34.6033 28.8192L34.3424 29.3529H23.6932H13.0558L10.1623 25.226C8.5732 22.961 7.15014 20.9924 7.00784 20.8382C6.7588 20.5892 6.67579 20.5774 4.30402 20.5774C2.02713 20.5774 1.8611 20.5892 1.63578 20.8145C1.33931 21.111 1.32745 21.5498 1.61207 21.7988C1.80181 21.9767 2.15757 22.0004 3.96012 22.0004L6.08285 22.0123L8.98826 26.1747C10.5892 28.4635 11.9885 30.4439 12.1071 30.5625C12.2969 30.7641 12.5933 30.7759 16.2103 30.7759H20.1118L20.6692 31.3926C21.4045 32.2346 22.7445 33.3849 23.7288 34.049L24.5233 34.5826V40.429V46.2873L23.966 46.4177C22.5903 46.7735 21.6416 48.5998 22.1516 49.9161L22.2702 50.2244H18.4753H14.6805L14.7517 49.8924C14.7991 49.7145 14.8347 49.5722 14.8465 49.5722C14.8584 49.5722 15.143 49.4417 15.4988 49.2994L16.151 49.0385L16.7439 49.4536C17.325 49.8449 17.7994 49.9635 18.0603 49.7738C18.1314 49.7264 18.6532 49.2046 19.2224 48.5998C19.9221 47.8645 20.2542 47.4257 20.2542 47.236C20.2542 47.0818 20.0644 46.6786 19.8272 46.3347L19.4003 45.7062L19.6968 44.971L19.9933 44.2357L20.7404 44.0816C21.1673 43.9985 21.5705 43.8444 21.6416 43.7377C21.7484 43.5953 21.7958 43.0143 21.7958 41.8521C21.7958 39.9547 21.7602 39.848 20.9894 39.7294C20.0881 39.5752 20.0051 39.5159 19.7086 38.7925L19.424 38.0928L19.8391 37.4288C20.0644 37.0611 20.2542 36.6342 20.2542 36.48C20.2542 36.2903 19.9221 35.8515 19.2224 35.1163C18.6413 34.5233 18.1314 34.0015 18.0603 33.9541C17.8112 33.7644 17.3369 33.8711 16.7677 34.2743L16.1629 34.6894L15.4869 34.4166L14.8109 34.1557L14.6805 33.3849C14.4789 32.2109 14.4552 32.199 12.5459 32.199C11.443 32.199 10.862 32.2464 10.7315 32.3413C10.6129 32.4362 10.4706 32.8157 10.3757 33.3019L10.2334 34.1083L9.55748 34.4166L8.88153 34.7131L8.30045 34.2862C7.3636 33.5983 7.18572 33.6576 5.91682 35.0333C4.67165 36.3852 4.62421 36.5631 5.22901 37.4762L5.63221 38.0573L5.33574 38.7925L5.03927 39.5278L4.2803 39.6701C3.22487 39.8717 3.17743 39.9665 3.17743 41.8758C3.17743 43.7732 3.23673 43.88 4.31588 44.0816L5.03927 44.212L5.33574 44.9473L5.62035 45.6825L5.22901 46.2636C4.61235 47.1767 4.65979 47.3665 5.91682 48.7184C7.17386 50.0703 7.3636 50.1296 8.28859 49.4536L8.85781 49.0504L9.54563 49.3232C10.1267 49.5722 10.2453 49.6671 10.3046 49.9754L10.3757 50.343H5.35946C0.521054 50.343 0.331312 50.3549 0.212724 50.5683C0.0111238 50.9478 0.070418 51.3866 0.35503 51.5763C0.592207 51.7424 2.97583 51.7661 23.373 51.7661H46.1301L46.474 52.11C46.8417 52.4895 46.9009 52.7622 46.6756 53.2484C46.3673 53.9362 47.316 53.9007 29.4685 53.9007C13.7199 53.9007 13.044 53.9125 12.8661 54.1141C12.6052 54.3987 12.6171 54.885 12.878 55.1221C13.0796 55.3119 14.4196 55.3237 29.7649 55.3237H46.4266L46.9484 55.051C47.7548 54.6241 48.1698 53.9481 48.2173 52.9638C48.2529 52.3353 48.2173 52.0626 48.0275 51.6949C47.6481 50.9478 46.8179 50.343 46.1776 50.343C45.7744 50.343 45.7388 50.2244 45.8574 49.5603C46.142 48.0543 45.2526 46.6905 43.7702 46.3703L43.3789 46.2873V43.9393V41.5912L46.3792 41.5438C49.2134 41.5082 49.3913 41.4963 49.8657 41.2473C50.4586 40.9271 50.8974 40.3816 51.0753 39.7294C51.1583 39.4448 51.2057 37.9743 51.2057 35.9583C51.2057 32.365 51.2294 32.199 51.8935 31.5705C52.0833 31.3926 52.9964 30.9657 54.1111 30.5269C55.1547 30.1237 56.1034 29.7087 56.222 29.6138C56.6371 29.258 56.471 28.8192 54.5855 25.3565L52.7474 21.9767L52.8659 21.2059C53.032 20.1623 53.032 17.1857 52.8659 16.071C52.2256 11.8137 50.2689 8.06628 47.1618 5.11343C45.8099 3.83268 43.9955 2.56378 42.4776 1.84039C41.0901 1.1763 38.92 0.476627 37.568 0.251308C36.145 0.0141335 33.7732 -0.0688782 32.5043 0.0615692ZM37.2597 7.58007C38.0187 7.90026 38.2559 8.65922 37.8171 9.38261C37.4969 9.9044 36.904 10.0941 36.3466 9.85696C35.9078 9.67908 35.552 9.1573 35.552 8.71852C35.552 8.2916 35.9078 7.75795 36.2992 7.59193C36.7735 7.37847 36.7854 7.37847 37.2597 7.58007ZM37.6392 29.009C37.9357 29.1631 38.2796 29.7205 38.2796 30.0644C38.2796 30.859 37.4257 31.4993 36.6668 31.2503C35.552 30.8827 35.469 29.4003 36.5482 28.926C36.9158 28.7718 37.1767 28.7955 37.6392 29.009ZM13.3167 34.298C13.459 35.2349 13.5421 35.3535 14.2299 35.5788C14.5738 35.6974 15.1074 35.9108 15.4157 36.065C16.151 36.4326 16.3645 36.4208 17.0167 35.982L17.5503 35.6143L18.0603 36.1124L18.5821 36.6224L18.167 37.2272C17.6926 37.9387 17.6808 38.081 18.0484 38.8162C18.2026 39.1246 18.416 39.6582 18.5346 40.0021C18.7599 40.7255 19.0208 40.9271 19.8154 41.0338L20.3846 41.1168L20.349 41.8995L20.3134 42.6822L19.6494 42.8127C19.2936 42.8838 18.9378 42.9905 18.8667 43.0261C18.7837 43.0736 18.6413 43.4175 18.5346 43.7851C18.4279 44.1646 18.2026 44.7219 18.0484 45.0303C17.6926 45.7418 17.6926 45.7892 18.1196 46.4652C18.3212 46.7735 18.4753 47.07 18.4753 47.1174C18.4635 47.1649 18.2619 47.4376 18.001 47.7222L17.5503 48.244L17.0878 47.8882C16.4 47.3427 16.2459 47.3309 15.3209 47.7815C14.8584 47.995 14.3129 48.2203 14.0994 48.2677C13.6251 48.3745 13.4235 48.6946 13.3167 49.4892L13.2337 50.1177L12.5103 50.0821L11.7751 50.0465L11.6802 49.3943C11.5498 48.6235 11.3956 48.41 10.7671 48.2203C10.5062 48.1491 9.97254 47.9238 9.56934 47.7341C8.76294 47.3546 8.5732 47.3783 7.87353 47.912L7.49405 48.2084L6.98412 47.6866L6.48605 47.1767L6.84181 46.5956C7.28059 45.9078 7.29245 45.6469 6.91296 44.8998C6.7588 44.5796 6.56906 44.0816 6.48605 43.7732C6.32002 43.121 6.05913 42.8957 5.2883 42.8008L4.71908 42.7178V41.9114V41.105L5.2883 41.0338C6.08285 40.9152 6.32002 40.7255 6.48605 40.0733C6.56906 39.7768 6.7588 39.2669 6.91296 38.9467C7.30431 38.1996 7.28059 37.8675 6.84181 37.2153L6.47419 36.6816L6.92482 36.1954C7.18572 35.9227 7.39918 35.6736 7.42289 35.6499C7.43475 35.6143 7.69565 35.7685 7.98026 35.9701C8.60878 36.4089 8.98826 36.4445 9.52191 36.1124C9.73537 35.982 10.2216 35.7685 10.5892 35.6381C11.4905 35.3297 11.5616 35.2586 11.6565 34.5352C11.7039 34.1913 11.7632 33.883 11.7988 33.8237C11.8225 33.7762 12.1546 33.7407 12.5341 33.7407H13.2337L13.3167 34.298ZM38.9792 36.1836C39.6671 36.7528 39.5366 37.7845 38.7421 38.1996C37.9238 38.6146 36.9751 37.9861 36.9751 37.0374C36.9751 36.0057 38.161 35.4958 38.9792 36.1836ZM43.9244 48.0661C44.458 48.493 44.6003 49.2401 44.2564 49.7264C43.8177 50.3667 44.1378 50.343 34.0104 50.343C23.5628 50.343 23.966 50.3786 23.6221 49.5603C23.3849 49.003 23.4916 48.5286 23.9541 48.1491L24.3099 47.8527H33.9867C42.9875 47.8527 43.6991 47.8764 43.9244 48.0661Z" fill="black"/>
<path d="M12.0355 35.9701C11.49 36.5749 12.1897 37.4405 12.8538 37.0018C13.2214 36.7646 13.257 36.0649 12.9131 35.8752C12.5692 35.6973 12.249 35.7329 12.0355 35.9701Z" fill="black"/>
<path d="M8.10919 37.6067C7.68227 38.0218 8.00246 38.7214 8.61912 38.7214C9.03418 38.7214 9.22392 38.5198 9.22392 38.0692C9.22392 37.8676 9.16463 37.6423 9.08162 37.5593C8.88002 37.3577 8.32265 37.3814 8.10919 37.6067Z" fill="black"/>
<path d="M15.9373 37.6067C15.5104 38.0218 15.8306 38.7214 16.4472 38.7214C16.8623 38.7214 17.052 38.5198 17.052 38.0692C17.052 37.8676 16.9928 37.6423 16.9097 37.5593C16.7081 37.3577 16.1508 37.3814 15.9373 37.6067Z" fill="black"/>
<path d="M11.2282 38.0573C10.1965 38.4487 9.53239 39.0653 8.98688 40.1445C8.57182 40.9509 8.51253 42.457 8.88015 43.3938C9.40194 44.8169 10.7301 45.8249 12.2006 45.9316C13.849 46.0502 15.2128 45.2675 15.9836 43.7614C16.3631 43.0262 16.3987 42.872 16.3987 41.9352C16.3987 41.0932 16.3394 40.7967 16.0785 40.2512C15.6753 39.3737 15.023 38.6621 14.2759 38.2708C13.5407 37.9032 11.9397 37.7846 11.2282 38.0573ZM13.3509 39.5041C15.5448 40.4172 15.3907 43.7259 13.1138 44.4018C12.082 44.722 10.8962 44.1528 10.3625 43.0973C9.97116 42.3028 9.95931 41.5913 10.3388 40.7849C10.908 39.5634 12.1888 39.0179 13.3509 39.5041Z" fill="black"/>
<path d="M6.41388 41.6387C6.236 41.9233 6.236 41.9826 6.39016 42.2672C6.72221 42.8483 7.68277 42.6467 7.68277 41.9826C7.68277 41.3422 6.76964 41.0932 6.41388 41.6387Z" fill="black"/>
<path d="M17.5486 41.4726C17.4655 41.5556 17.4062 41.7809 17.4062 41.9825C17.4062 42.4332 17.596 42.6348 18.0111 42.6348C18.6277 42.6348 18.9479 41.9351 18.521 41.52C18.3075 41.2947 17.7502 41.271 17.5486 41.4726Z" fill="black"/>
<path d="M8.10919 45.4336C7.68227 45.8487 8.00246 46.5483 8.61912 46.5483C9.03418 46.5483 9.22392 46.3467 9.22392 45.8961C9.22392 45.6945 9.16463 45.4692 9.08162 45.3862C8.88002 45.1846 8.32265 45.2083 8.10919 45.4336Z" fill="black"/>
<path d="M15.9373 45.4336C15.5104 45.8487 15.8306 46.5483 16.4472 46.5483C16.8623 46.5483 17.052 46.3467 17.052 45.8961C17.052 45.6945 16.9928 45.4692 16.9097 45.3862C16.7081 45.1846 16.1508 45.2083 15.9373 45.4336Z" fill="black"/>
<path d="M12.2267 46.904C11.9184 47.0226 11.7405 47.5681 11.9184 47.829C12.12 48.1611 12.3927 48.2678 12.7485 48.1373C13.0213 48.0425 13.0924 47.9476 13.1161 47.5918C13.1398 47.2598 13.0924 47.1175 12.8789 46.9752C12.5825 46.7617 12.5825 46.7617 12.2267 46.904Z" fill="black"/>
<path d="M35.7532 3.4651C35.5161 3.73786 35.4805 4.36638 35.7058 4.54426C35.7769 4.61541 36.1446 4.72214 36.5003 4.78143C37.3898 4.94746 37.7337 4.78143 37.7811 4.18849C37.8285 3.64299 37.5439 3.42953 36.6189 3.3228C36.0616 3.25164 35.9311 3.27536 35.7532 3.4651Z" fill="black"/>
<path d="M38.9687 4.22394C38.7434 4.34253 38.6722 4.97104 38.8501 5.2438C38.9569 5.40982 40.0004 5.87231 40.285 5.87231C40.6408 5.87231 41.0084 5.51655 41.0084 5.1845C41.0084 4.73387 40.9017 4.61528 40.2969 4.34253C39.7158 4.06977 39.277 4.0342 38.9687 4.22394Z" fill="black"/>
<path d="M41.3859 5.35074C41.208 5.46933 41.125 5.64721 41.125 5.93183C41.125 6.29945 41.208 6.38246 42.1686 7.04656C44.6352 8.74237 46.5801 11.2564 47.5762 14.0314C48.0031 15.2173 48.3589 17.0673 48.3589 18.0753C48.3589 19.0477 48.5842 19.3916 49.189 19.3916C49.7701 19.3916 49.9361 19.0003 49.8412 17.8262C49.6159 14.8615 48.7384 12.3 47.1374 9.90454C46.3429 8.71865 44.149 6.53663 42.9631 5.77766C41.9433 5.11357 41.7891 5.06613 41.3859 5.35074Z" fill="black"/>
<path d="M25.7315 8.49328C25.186 8.76604 24.5575 9.44199 24.4508 9.86891L24.3796 10.1417H19.8496C16.5054 10.1417 15.2602 10.1772 15.0467 10.2958C14.7977 10.4144 12.7817 13.1894 10.3269 16.7589C9.72212 17.6364 9.66282 17.7669 9.76955 18.0634C9.91186 18.431 14.6317 25.1905 14.8926 25.404C15.0467 25.5226 17.8098 25.5581 27.8661 25.5581H40.65L40.8753 26.0206C41.5749 27.3725 43.2115 27.9062 44.5634 27.2184C45.4884 26.744 45.9864 25.8783 45.9864 24.7636C45.9746 23.1508 44.9073 22.1191 43.2589 22.1191C42.1679 22.1191 41.3378 22.6409 40.8397 23.6252L40.6381 24.0165H34.5901C31.2578 24.0165 28.5539 23.9691 28.5777 23.9216C28.6014 23.8623 29.4078 22.6409 30.3802 21.1941L32.159 18.5614H34.009H35.859L36.108 19.0832C36.5349 19.9608 37.4243 20.4588 38.5391 20.4588C40.0214 20.4588 41.148 19.3204 41.1717 17.7906C41.2192 14.9208 37.4006 13.9483 36.0724 16.4861L35.7285 17.1384H33.5109H31.2815L29.0046 20.5774L26.7158 24.0046H21.2015H15.6871L13.849 21.3838C12.841 19.9371 11.999 18.7156 11.9753 18.6563C11.9516 18.6089 14.0506 18.5614 16.624 18.5614H21.3201L21.4386 18.8698C21.8063 19.8422 22.921 20.5774 24.0002 20.5774C24.8303 20.5774 25.7553 20.0912 26.2415 19.4034C26.5735 18.9291 26.5972 18.8223 26.5972 17.8499C26.5972 16.8775 26.5735 16.7707 26.2415 16.2845C25.7671 15.6086 24.8303 15.1224 24.0002 15.1224C22.8854 15.1224 21.8181 15.8339 21.4505 16.8182L21.3201 17.1384H16.624C13.932 17.1384 11.9516 17.0909 11.9753 17.0316C11.999 16.9723 12.841 15.7509 13.849 14.3041L15.6871 11.6833H19.98H24.2848L24.5101 12.1458C25.3165 13.723 27.4274 14.1499 28.6962 13.0115C29.3722 12.4067 29.6568 11.7782 29.6568 10.9125C29.6568 9.77404 29.052 8.84905 28.0559 8.43399C27.4155 8.16123 26.3482 8.19681 25.7315 8.49328ZM27.6171 9.94006C28.8978 10.7939 27.795 12.6676 26.3838 12.0272C25.8264 11.7782 25.5418 10.9125 25.8383 10.367C25.9924 10.0705 26.6447 9.66731 26.9649 9.66731C27.1072 9.66731 27.3918 9.78589 27.6171 9.94006ZM39.298 16.9486C39.8317 17.4823 39.8554 18.0396 39.3573 18.5851C39.0609 18.9172 38.9304 18.9765 38.4561 18.9765C37.9817 18.9765 37.8513 18.9172 37.5548 18.5851C37.0567 18.0396 37.0804 17.4823 37.6141 16.9486C37.9224 16.6403 38.1122 16.5454 38.4561 16.5454C38.8 16.5454 38.9897 16.6403 39.298 16.9486ZM24.6405 16.8182C25.5062 17.4941 25.3758 18.6326 24.4152 19.0358C23.5139 19.4034 22.4941 18.4428 22.7905 17.5179C22.9447 17.0316 23.4546 16.664 23.9764 16.664C24.2373 16.664 24.5457 16.7352 24.6405 16.8182ZM43.8518 23.72C44.6345 24.1232 44.7531 25.1549 44.0772 25.7242C42.9624 26.661 41.4326 25.2261 42.322 24.0876C42.749 23.5421 43.2708 23.4236 43.8518 23.72Z" fill="black"/>
<path d="M5.09999 17.328C4.79166 17.5414 4.74422 18.0988 5.02884 18.3715C5.17114 18.5257 5.51505 18.5613 6.8551 18.5613C8.42046 18.5613 8.51533 18.5494 8.68136 18.3004C8.93039 17.9446 8.91853 17.66 8.63392 17.3754C8.42046 17.1619 8.24258 17.1382 6.87881 17.1382C5.70479 17.1382 5.31345 17.1738 5.09999 17.328Z" fill="black"/>
<path d="M50.5637 50.6039C50.3147 50.9597 50.3266 51.2443 50.6112 51.5289C50.8365 51.7543 51.0025 51.7661 53.8486 51.7661C56.6117 51.7661 56.8726 51.7543 57.0505 51.5527C57.3114 51.268 57.2996 50.7818 57.0387 50.5447C56.8489 50.3668 56.4457 50.3431 53.7775 50.3431C50.7772 50.3431 50.7416 50.3431 50.5637 50.6039Z" fill="black"/>
<path d="M9.30925 54.1141C9.08393 54.3632 9.04835 54.7545 9.22624 55.0984C9.30925 55.2526 9.47527 55.3237 9.75988 55.3237C10.2461 55.3237 10.5307 55.0628 10.5307 54.6122C10.5307 53.9955 9.71245 53.6754 9.30925 54.1141Z" fill="black"/>
<path d="M18.3586 57.6718C18.1925 57.8023 18.0977 58.0157 18.0977 58.2292C18.0977 58.4426 18.1925 58.6561 18.3586 58.7865C18.6076 58.9881 19.1531 59 28.6757 59C38.1984 59 38.7439 58.9881 38.9929 58.7865C39.3487 58.5019 39.3487 57.9564 38.9929 57.6718C38.7439 57.4702 38.1984 57.4584 28.6757 57.4584C19.1531 57.4584 18.6076 57.4702 18.3586 57.6718Z" fill="black"/>
</svg>
