<svg width="59" height="59" viewBox="0 0 59 59" fill="none" xmlns="http://www.w3.org/2000/svg">
<path d="M38.7065 1.27277L38.3021 2.54554L37.2553 2.96187L36.1966 3.3782L35.0071 2.73586L33.8176 2.10543L31.2483 4.67476L28.6909 7.23219L29.3094 8.37412L29.928 9.51604L16.6293 9.53983L3.33061 9.57552L2.61691 9.92048C1.70099 10.3725 0.796969 11.2765 0.344957 12.1924L0 12.9061V28.5481V44.1901L0.344957 44.9038C0.796969 45.8197 1.70099 46.7238 2.61691 47.1758L3.33061 47.5207L10.1584 47.5564L16.9742 47.5921L16.9029 48.0322C16.772 48.7935 16.0226 50.1614 15.3922 50.7919L14.7974 51.3866H13.1678C11.336 51.3866 10.884 51.5175 10.206 52.2312C9.56362 52.9092 9.45657 53.3255 9.45657 55.193C9.45657 57.0606 9.56362 57.4769 10.206 58.1549C10.4201 58.369 10.8007 58.6545 11.0624 58.7735C11.5144 58.9876 12.1805 58.9995 26.5617 58.9995C43.1434 58.9995 42.0252 59.047 42.8698 58.2501C43.5954 57.5602 43.7143 57.1319 43.7143 55.193C43.7143 53.2541 43.5954 52.8259 42.8698 52.136C42.1917 51.4937 41.7635 51.3866 39.9793 51.3866H38.3734L37.7787 50.7919C37.1482 50.1614 36.3989 48.7935 36.268 48.0322L36.1966 47.5921L43.0125 47.5564L49.8403 47.5207L50.554 47.1758C51.4699 46.7238 52.3739 45.8197 52.8259 44.9038L53.1709 44.1901L53.2066 36.4583L53.2304 28.7266L55.0384 26.9304L56.8346 25.1224L56.1922 23.9328L55.5618 22.7314L55.99 21.6847L56.4063 20.6379L57.6791 20.2335L58.94 19.8172V16.1773V12.5374L57.6791 12.1211L56.4063 11.7166L55.99 10.6699L55.5618 9.6231L56.1922 8.4217L56.8346 7.23219L54.2771 4.67476L51.7078 2.10543L50.5302 2.73586L49.3407 3.3663L48.282 2.94997L47.2234 2.53365L46.8189 1.26088L46.4026 0H42.7627H39.1228L38.7065 1.27277ZM45.225 3.04514L45.5818 4.18706L46.581 4.50822C47.1282 4.68665 47.9608 5.03161 48.4129 5.26951L49.2455 5.70963L50.2566 5.17435L51.2677 4.65097L52.7783 6.14974L54.289 7.66042L53.7656 8.68339L53.2304 9.70636L53.6348 10.4676C53.8608 10.8959 54.2058 11.7166 54.408 12.2995L54.7529 13.3581L55.8949 13.715L57.0368 14.0837V16.1773V18.2708L55.8949 18.6395L54.7529 18.9964L54.408 20.0551C54.2058 20.6379 53.8608 21.4587 53.6348 21.8869L53.2304 22.6482L53.7656 23.6712L54.289 24.6941L52.7783 26.2048L51.2677 27.7036L50.2566 27.1802L49.2455 26.6449L48.4723 27.0612C48.0441 27.2754 47.2115 27.6203 46.6286 27.8225L45.5818 28.1675L45.225 29.3094L44.8562 30.4513H42.7627H40.6692L40.3004 29.3094L39.9436 28.1675L38.8968 27.8225C38.314 27.6203 37.4813 27.2754 37.0531 27.0612L36.2799 26.6449L35.2688 27.1802L34.2578 27.7036L32.7471 26.2048L31.2364 24.6941L31.7598 23.6712L32.2951 22.6482L31.8906 21.8869C31.6646 21.4587 31.3197 20.6379 31.1175 20.0432L30.7606 18.9726L29.6306 18.6277L28.4886 18.2827V16.1773V14.0837L29.6306 13.715L30.7725 13.3581L31.1175 12.3114C31.3197 11.7285 31.6646 10.8959 31.8787 10.4676L32.2951 9.69447L31.7598 8.68339L31.2364 7.67231L32.7352 6.16164L34.2459 4.65097L35.2688 5.17435L36.2918 5.70963L37.0531 5.30519C37.4813 5.07919 38.3021 4.73423 38.8849 4.53202L39.9436 4.18706L40.3004 3.04514L40.6692 1.90321H42.7627H44.8562L45.225 3.04514ZM29.1786 11.562C29.1548 11.6453 28.56 11.9069 27.8582 12.133L26.5854 12.5493V12.9299V13.3225H15.7966C5.23382 13.3225 4.98403 13.3344 4.60338 13.5604C4.38927 13.6912 4.11569 13.9648 3.98484 14.1789C3.74694 14.5595 3.74694 14.8093 3.74694 26.6449C3.74694 38.4805 3.74694 38.7303 3.98484 39.1109C4.11569 39.325 4.38927 39.5986 4.60338 39.7295C4.99592 39.9674 5.25761 39.9674 26.5854 39.9674C47.9133 39.9674 48.175 39.9674 48.5675 39.7295C48.7816 39.5986 49.0552 39.325 49.186 39.1109C49.412 38.7303 49.4239 38.4924 49.4239 33.8652V29.012L50.3755 29.5235L51.3271 30.035L51.3034 36.6962C51.2677 43.1671 51.2558 43.3694 51.0179 43.8927C50.7205 44.5351 49.983 45.2369 49.3526 45.451C48.96 45.5937 45.1774 45.6175 26.5854 45.6175C1.41551 45.6175 3.65178 45.7008 2.70018 44.6778C1.85563 43.7619 1.90321 44.8087 1.90321 28.5481C1.90321 12.3828 1.85563 13.3462 2.6526 12.466C3.15219 11.9188 3.62799 11.6453 4.28222 11.5263C4.54391 11.4906 10.2654 11.443 16.9861 11.4311C26.7282 11.4193 29.2142 11.4549 29.1786 11.562ZM26.5854 17.5214V19.8053L27.8582 20.2216L29.131 20.6379L29.5473 21.6847L29.9636 22.7433L29.3213 23.9328L28.6909 25.1224L31.2602 27.6798L33.8176 30.2491L35.0071 29.6187L36.1966 28.9763L37.2553 29.3927L38.3021 29.809L38.7184 31.0818L39.1347 32.3545H42.7627H46.4026L46.8189 31.0818C47.033 30.38 47.2947 29.7852 47.3661 29.7614C47.485 29.7257 47.5207 30.606 47.5207 33.889V38.0642H26.5854H5.65015V26.6449V15.2257H16.1178H26.5854V17.5214ZM34.2459 48.1631C34.3529 48.9362 34.7098 49.9711 35.1499 50.7562L35.5067 51.3866H26.5854H17.6642L18.021 50.7562C18.4611 49.9711 18.818 48.9362 18.925 48.1631L19.0083 47.5802H26.5854H34.1626L34.2459 48.1631ZM41.0974 53.4207C41.597 53.5991 41.8111 54.1106 41.8111 55.193C41.8111 56.2755 41.597 56.787 41.0974 56.9654C40.5383 57.1557 12.6325 57.1557 12.0735 56.9654C11.5739 56.787 11.3598 56.2755 11.3598 55.2168C11.3598 54.1344 11.5263 53.6586 12.0021 53.4564C12.5017 53.2423 40.4789 53.2066 41.0974 53.4207Z" fill="black"/>
<path d="M40.2073 5.95949C36.5198 6.86351 33.4271 9.98001 32.535 13.6794C32.2019 15.0711 32.2019 17.2836 32.535 18.6753C33.4747 22.5769 36.6863 25.6815 40.6474 26.4785C41.8369 26.7164 44.4657 26.645 45.56 26.3476C46.7257 26.0383 48.5695 25.051 49.533 24.2422C51.1864 22.8505 52.4949 20.7331 52.9944 18.6753C53.3275 17.2836 53.3275 15.0711 52.9944 13.6794C52.1023 9.94433 48.9977 6.83972 45.2627 5.94759C43.8947 5.62642 41.5633 5.62642 40.2073 5.95949ZM44.4895 7.87459C46.1667 8.23144 47.7249 9.12357 48.9144 10.3963C49.8185 11.3479 50.3894 12.2877 50.8176 13.5009C51.1269 14.3812 51.1507 14.5834 51.1507 16.1773C51.1507 17.807 51.1269 17.9616 50.782 18.9251C50.33 20.2098 49.533 21.4112 48.5338 22.339C44.0018 26.5855 36.8053 24.7418 34.6999 18.8061C34.4025 17.9854 34.3787 17.7475 34.3787 16.1773C34.3787 14.5834 34.4025 14.3812 34.7117 13.5009C36.1629 9.40905 40.3619 6.98246 44.4895 7.87459Z" fill="black"/>
<path d="M41.1314 11.6452C39.8824 12.1091 38.9903 12.9179 38.3837 14.155C38.0863 14.7498 38.0625 14.9282 38.0625 16.1772C38.0625 17.45 38.0863 17.5927 38.4075 18.2588C38.8595 19.1747 39.7635 20.0788 40.6794 20.5308C41.3455 20.8519 41.4883 20.8757 42.761 20.8757C44.0338 20.8757 44.1766 20.8519 44.8427 20.5308C45.7586 20.0788 46.6626 19.1747 47.1146 18.2588C47.4358 17.5927 47.4596 17.45 47.4596 16.1772C47.4596 14.9044 47.4358 14.7617 47.1146 14.0956C46.6626 13.1796 45.7586 12.2756 44.8427 11.8355C44.2241 11.5262 43.9743 11.4786 42.9395 11.443C41.9998 11.4192 41.6191 11.4667 41.1314 11.6452ZM43.8078 13.6316C45.6278 14.381 46.0798 16.8076 44.6524 18.1637C42.9038 19.8171 40.0252 18.5919 40.0252 16.1772C40.0252 15.1066 40.6318 14.1669 41.631 13.6435C42.0949 13.3937 43.2368 13.3937 43.8078 13.6316Z" fill="black"/>
<path d="M38.0039 42.8221V43.7737H38.9555H39.9071V42.8221V41.8705H38.9555H38.0039V42.8221Z" fill="black"/>
<path d="M41.8125 42.8221V43.7737H42.7641H43.7157V42.8221V41.8705H42.7641H41.8125V42.8221Z" fill="black"/>
<path d="M45.6172 42.8221V43.7737H46.5688H47.5204V42.8221V41.8705H46.5688H45.6172V42.8221Z" fill="black"/>
<path d="M7.55469 18.0804V19.032H8.50629H9.4579V18.0804V17.1288H8.50629H7.55469V18.0804Z" fill="black"/>
<path d="M11.3594 18.0804V19.032H18.0206H24.6818V18.0804V17.1288H18.0206H11.3594V18.0804Z" fill="black"/>
<path d="M9.16053 21.1614C8.89884 21.2803 8.5182 21.5658 8.30409 21.7799C7.5428 22.5769 7.5547 22.5055 7.5547 28.572C7.5547 34.7099 7.5428 34.6028 8.39925 35.4117C9.20811 36.1848 9.02968 36.1611 16.1429 36.1611C23.3513 36.1611 23.1134 36.1848 23.9342 35.3165C24.6955 34.5195 24.6836 34.5909 24.6836 28.5482C24.6836 22.5055 24.6955 22.5769 23.9342 21.7799C23.1134 20.9116 23.3513 20.9354 16.1191 20.9354C10.0527 20.9354 9.60065 20.9592 9.16053 21.1614ZM13.2643 24.7418V26.645H16.1191H18.9739V24.7418V22.8386H20.3419C21.9834 22.8386 22.4473 22.9813 22.6495 23.5523C22.8279 24.0995 22.8279 32.997 22.6495 33.5441C22.3997 34.2459 22.3284 34.2578 16.1429 34.2578C12.2889 34.2578 10.4452 34.2103 10.1716 34.127C9.4817 33.8772 9.45791 33.7226 9.45791 28.572C9.45791 25.4317 9.50549 23.8259 9.58875 23.5523C9.79097 22.9813 10.2192 22.8505 11.8726 22.8386H13.2643V24.7418ZM17.0707 23.7902V24.7418H16.1191H15.1675V23.7902V22.8386H16.1191H17.0707V23.7902Z" fill="black"/>
<path d="M36.1016 35.2093V36.1609H37.0532H38.0048V35.2093V34.2577H37.0532H36.1016V35.2093Z" fill="black"/>
<path d="M39.9062 35.2093V36.1609H40.8579H41.8095V35.2093V34.2577H40.8579H39.9062V35.2093Z" fill="black"/>
<path d="M43.7148 35.2093V36.1609H44.6664H45.6181V35.2093V34.2577H44.6664H43.7148V35.2093Z" fill="black"/>
</svg>
