<svg width="57" height="59" viewBox="0 0 57 59" fill="none" xmlns="http://www.w3.org/2000/svg">
<path d="M15.5563 0.253456C14.7958 0.771999 14.6921 1.02551 14.6575 2.512C14.6344 3.24949 14.5768 3.90631 14.5192 3.96392C14.4731 4.01002 14.0468 4.18287 13.5743 4.34419C13.1134 4.49399 12.3183 4.82816 11.8113 5.08167L10.9009 5.53108L10.0136 4.66684C9.52968 4.19439 8.99961 3.7565 8.82676 3.68737C8.41193 3.53757 7.42093 3.53757 7.10981 3.69889C6.75259 3.88326 3.92941 6.6834 3.73351 7.05214C3.54914 7.40936 3.51457 8.3773 3.68742 8.82671C3.75656 8.99956 4.19444 9.52962 4.66689 10.0136L5.53113 10.9009L5.08173 11.8112C4.82822 12.3182 4.49404 13.1133 4.34424 13.5743C4.18292 14.0467 4.01007 14.4731 3.96398 14.5192C3.90636 14.5768 3.24954 14.6344 2.51205 14.6574C1.02556 14.692 0.772053 14.7957 0.265033 15.5562C0.0115232 15.925 0 16.0402 0 18.2872C0 20.9837 0.0691391 21.2487 0.841193 21.7557C1.26755 22.0438 1.42888 22.0668 2.66186 22.1129L4.01007 22.1475L4.37881 23.1961C4.57471 23.7723 4.9204 24.6019 5.15086 25.0398L5.55418 25.8465L4.68994 26.7222C4.21749 27.2062 3.76808 27.7132 3.69894 27.8515C3.51457 28.2087 3.53762 29.2343 3.74504 29.6606C3.99855 30.1907 6.67192 32.7949 7.17895 33.0139C8.13537 33.4172 8.90742 33.1291 10.0713 31.9422L10.8548 31.1356L11.7767 31.5965C12.2722 31.85 13.1134 32.1957 13.6319 32.3686L14.5768 32.6912L14.6344 34.0625C14.7036 35.6757 14.8649 36.0675 15.66 36.4939C16.144 36.7474 16.2938 36.7589 18.3103 36.7589C20.1425 36.7589 20.5228 36.7243 20.9146 36.54C21.8249 36.1251 22.113 35.5029 22.1245 33.9012V32.8295L22.5278 32.4492C22.9542 32.0459 23.0118 31.7694 22.8044 31.3084C22.4817 30.6055 21.5138 30.6862 20.8109 31.4582C20.3154 32.0114 20.2923 32.1151 20.2462 33.6477L20.2232 34.8576L18.3564 34.8922L16.4782 34.9152V33.7975C16.4782 31.7348 16.167 31.2739 14.4155 30.6631C13.8163 30.4557 12.906 30.0755 12.3989 29.822C11.6615 29.4532 11.3503 29.361 10.8779 29.361C10.0943 29.361 9.90994 29.4763 8.84981 30.5133L7.96252 31.3891L6.68345 30.1331C5.99206 29.4417 5.4159 28.8194 5.4159 28.7503C5.4159 28.6812 5.78464 28.2663 6.22252 27.8284C7.12133 26.9412 7.44398 26.3074 7.35179 25.616C7.31722 25.374 7.05219 24.6826 6.77563 24.0834C6.48755 23.4842 6.13033 22.62 5.99206 22.1821C5.48504 20.5919 5.02411 20.2808 3.20345 20.2808C2.41987 20.2808 1.95894 20.2347 1.86676 20.1425C1.71695 19.9927 1.65934 17.0197 1.79762 16.6625C1.85523 16.5127 2.07417 16.4781 3.04212 16.4781C4.87431 16.4666 5.54265 16.0402 5.99206 14.5422C6.11881 14.1159 6.47603 13.2286 6.79868 12.5602C7.66292 10.7396 7.59378 10.2671 6.23404 8.93042C5.78464 8.49253 5.4159 8.0777 5.4159 8.00856C5.4159 7.85876 7.85881 5.41584 8.00861 5.41584C8.07775 5.41584 8.49259 5.78459 8.93047 6.23399C10.2672 7.59373 10.7396 7.66287 12.5603 6.79863C13.2286 6.47598 14.1159 6.11876 14.5423 5.992C16.0403 5.5426 16.4666 4.87425 16.4782 3.04207C16.4782 2.07412 16.5127 1.85518 16.6625 1.79757C17.0197 1.65929 19.9927 1.7169 20.1425 1.8667C20.2347 1.95889 20.2808 2.41982 20.2808 3.20339C20.2808 5.08167 20.5458 5.43889 22.4702 6.09571C23.0694 6.30313 23.9106 6.66035 24.337 6.87929C25.835 7.65134 26.4688 7.53611 27.7939 6.24551L28.6927 5.38128L29.1421 5.70392C29.6607 6.04962 30.0294 6.0381 30.4212 5.64631C30.8015 5.26604 30.7208 4.68988 30.2368 4.20591C29.7298 3.69889 29.4187 3.57214 28.6812 3.57214C27.9322 3.57214 27.7594 3.66432 26.7223 4.68988L25.8465 5.55412L24.9362 5.09319C24.4407 4.85121 23.5995 4.50551 23.0925 4.33266L22.1476 4.02154L22.113 2.6618C22.0669 1.42882 22.0439 1.2675 21.7558 0.841141C21.2488 0.069088 20.9837 -5.34058e-05 18.2873 -5.34058e-05C16.0403 -5.34058e-05 15.925 0.0114708 15.5563 0.253456Z" fill="black"/>
<path d="M31.5615 7.25962C26.9868 7.83577 23.2302 11.1429 22.0664 15.6139C21.9281 16.144 21.6861 18.1721 21.6631 18.9211C21.6631 18.9672 21.4672 19.1054 21.2367 19.2322C20.9947 19.3474 20.6836 19.5779 20.5453 19.7277C19.9231 20.3845 19.7502 21.6521 20.1651 22.4587C20.384 22.8966 20.9947 23.5073 21.2137 23.5073C21.2713 23.5073 21.3174 24.0374 21.3174 24.6827C21.3174 25.5815 21.375 25.9848 21.5363 26.3305C21.8244 26.9758 22.4236 27.5174 23.0343 27.7017L23.5529 27.8515L23.8179 28.9347C24.3249 30.9859 25.5003 32.8872 26.9522 33.9934L27.6436 34.5119V35.5721L27.6551 36.6322L27.0559 36.7474C26.7218 36.8166 24.5669 37.2314 22.2623 37.6808C17.8143 38.5451 16.6736 38.8447 15.383 39.49C13.5277 40.4233 12.2832 41.5987 11.5112 43.1543C10.7391 44.733 10.7045 45.0557 10.7391 51.1514L10.7737 56.5212L11.1194 57.1435C11.3037 57.4777 11.684 57.9501 11.9606 58.1921C12.94 59.0679 11.2461 58.9987 33.4744 58.9987H53.4325L54.1469 58.6415C54.9305 58.2497 55.645 57.4777 55.91 56.7286C56.0252 56.383 56.0598 55.0693 56.0598 50.702V45.1133L55.7372 44.1684C55.3454 43.0045 54.4696 41.6678 53.6284 40.9304C52.7872 40.2044 51.3583 39.3863 50.1369 38.9484C49.5031 38.7179 47.5557 38.2685 44.7671 37.7269C42.3587 37.2545 40.1117 36.8166 39.7891 36.7474L39.1783 36.6322V35.5721V34.5119L39.6508 34.1663C40.3652 33.6477 41.483 32.3917 41.9669 31.5735C42.4279 30.7784 42.8773 29.6031 43.1193 28.5199C43.2691 27.8515 43.2806 27.8285 43.7185 27.7248C44.0181 27.6557 44.3638 27.4367 44.7095 27.091C45.3548 26.4457 45.5161 25.9156 45.5161 24.4983C45.5161 23.9337 45.5622 23.5073 45.6313 23.5073C45.6889 23.5073 45.9194 23.346 46.1383 23.1616C47.3367 22.1015 47.0602 19.9812 45.6198 19.2668L45.0897 19.0017L45.0206 17.7111C44.9514 16.1786 44.6518 14.9917 44.0296 13.6435C42.5431 10.4746 39.6162 8.13538 36.2399 7.43246C35.1683 7.21352 32.6677 7.10981 31.5615 7.25962ZM32.806 13.9315C33.2093 14.2542 33.7048 14.2427 34.0505 13.8854C34.3386 13.6089 34.3386 13.5974 34.3386 11.3158V9.02266L35.053 9.12637C35.4448 9.17246 35.9634 9.27617 36.2053 9.33379L36.6432 9.46054V10.44C36.6432 11.7882 36.8161 12.0993 37.5997 12.0993C38.2565 12.0993 38.4869 11.7998 38.4869 10.947V10.2441L39.0977 10.659C40.3767 11.5232 41.8171 13.2171 42.4163 14.5884C42.8658 15.5909 43.1077 16.6395 43.1769 17.8264L43.246 19.0133H33.3706H23.5068L23.5759 17.9992C23.7257 15.9711 24.371 14.2311 25.5464 12.6986C26.1687 11.8919 27.2634 10.8779 27.9893 10.4515L28.3465 10.2441V10.9355C28.3465 11.7998 28.577 12.0993 29.2569 12.0993C29.9828 12.0993 30.1902 11.7421 30.1902 10.4746V9.47206L30.582 9.33379C30.801 9.26465 31.308 9.17246 31.7113 9.12637L32.4373 9.04571L32.4718 11.3734L32.4949 13.7011L32.806 13.9315ZM44.9169 20.9953C45.0897 21.1681 45.0897 21.5829 44.9169 21.7558C44.721 21.9517 22.1125 21.9517 21.9166 21.7558C21.8359 21.6751 21.7783 21.5138 21.7783 21.3755C21.7783 21.2372 21.8359 21.0759 21.9166 20.9953C22.1125 20.7994 44.721 20.7994 44.9169 20.9953ZM43.6724 24.602C43.6724 25.3741 43.6378 25.5123 43.3843 25.7543C43.1654 25.9848 42.9925 26.0424 42.5431 26.0424C41.6673 26.0424 41.4945 26.2383 41.3677 27.4252C41.2179 28.7273 40.8838 29.7183 40.2615 30.7323C39.3397 32.2073 37.7725 33.4172 35.8942 34.0741C35.0646 34.3621 34.8226 34.3967 33.4167 34.3852C32.034 34.3852 31.7574 34.3506 30.9393 34.0741C29.6947 33.6592 28.6922 33.06 27.7128 32.1266C26.3876 30.8706 25.7077 29.4994 25.4427 27.5174C25.2698 26.2498 25.1316 26.0424 24.3595 26.0424C23.841 26.0424 23.4146 25.8926 23.2533 25.6506C23.2072 25.5815 23.1611 25.1205 23.1611 24.6251V23.7378H33.4167H43.6724V24.602ZM30.7664 35.9869C31.5039 36.2059 31.9072 36.2404 33.4744 36.2289C35.3526 36.2174 35.3296 36.2289 37.1503 35.6412C37.3461 35.5721 37.3577 35.6412 37.3116 36.6553C37.277 37.5886 37.2194 37.8306 36.9544 38.28C36.551 38.9714 35.5024 39.9048 34.3616 40.5962L33.4398 41.1608L33.048 40.9534C31.6998 40.262 29.9944 38.764 29.6717 37.9689C29.568 37.7269 29.4989 37.1853 29.4989 36.5746C29.4989 35.6758 29.5219 35.5951 29.7063 35.6643C29.81 35.6988 30.294 35.8486 30.7664 35.9869ZM28.07 38.9714C28.3581 39.6282 29.6717 40.9995 30.6512 41.6678C31.0891 41.9674 31.4348 42.244 31.4117 42.2786C31.3887 42.3131 31.0314 42.5206 30.6281 42.7395L29.8906 43.1313L29.4412 42.9123C29.0725 42.7395 28.7268 42.3247 27.6436 40.7345L26.2954 38.7755L26.9407 38.6488C27.3095 38.5796 27.6551 38.5105 27.7243 38.499C27.7934 38.499 27.9547 38.7064 28.07 38.9714ZM39.9619 38.6718C40.25 38.7179 40.4344 38.7986 40.4113 38.8792C40.3767 38.9484 39.7775 39.8472 39.0631 40.8843C37.8301 42.6819 37.4268 43.0967 36.9198 43.0967C36.6548 43.0967 35.3411 42.2786 35.4563 42.1864C35.5024 42.1403 35.8827 41.8637 36.2975 41.5757C37.254 40.9073 38.3717 39.7204 38.7174 39.006C38.9248 38.5681 39.017 38.4759 39.2244 38.5335C39.3512 38.5681 39.6854 38.6257 39.9619 38.6718ZM25.5003 40.9304C26.1687 41.8983 27.851 44.3412 29.2453 46.3578C31.7804 50.0106 32.1492 50.6675 32.3912 51.9004C32.4488 52.2116 32.4949 53.5482 32.4949 54.8619V57.2702H26.0995H19.7041V53.6059C19.7041 48.1208 19.4045 45.5742 18.2983 41.7255C18.1139 41.0686 17.9987 40.504 18.0333 40.4579C18.1024 40.4003 23.7373 39.2249 24.1636 39.1904C24.2328 39.1788 24.8435 39.9739 25.5003 40.9304ZM45.8157 39.8126C47.3367 40.1122 48.6504 40.3888 48.7195 40.4349C48.8117 40.481 48.7656 40.8036 48.5697 41.4719C47.8553 43.9149 47.3022 47.0607 47.1754 49.446C47.1063 50.5868 47.1293 50.8518 47.2791 51.0823C47.6248 51.6239 48.6158 51.5317 48.8348 50.9555C48.9039 50.7827 48.9846 50.1028 49.0307 49.4345C49.1228 47.8788 49.2611 46.8418 49.6183 45.0441C49.8718 43.7535 50.5056 41.2876 50.6209 41.1839C50.69 41.1147 52.2341 42.1633 52.6374 42.5551C53.156 43.0506 53.6399 43.8342 53.9511 44.6639C54.2046 45.3207 54.2046 45.5051 54.2507 50.4716C54.2968 56.3138 54.2852 56.3369 53.4325 56.9015C52.9831 57.2011 52.914 57.2126 50.9781 57.2472L48.9846 57.2933L48.95 55.4265C48.9154 53.6289 48.9039 53.5598 48.6389 53.3408C48.2817 53.0528 47.6594 53.0528 47.3598 53.3524C47.1524 53.5598 47.1293 53.7326 47.1293 55.4265V57.2702H40.734H34.3386V54.7006C34.3386 51.912 34.4193 51.3243 34.9839 50.2065C35.1567 49.8839 36.4128 48.0056 37.7725 46.0351C39.1438 44.0647 40.7685 41.7255 41.4023 40.8151C42.3818 39.3978 42.5777 39.1673 42.7966 39.2249C42.9234 39.248 44.2831 39.5245 45.8157 39.8126ZM16.5122 42.2325C17.5263 45.7931 17.7567 47.6599 17.8259 52.9375L17.8835 57.2933L15.89 57.2587C13.689 57.2126 13.3779 57.1204 12.8594 56.429C12.6289 56.1064 12.6174 55.9796 12.5828 51.0823C12.5598 47.971 12.5943 45.8277 12.675 45.4244C12.8363 44.5256 13.3664 43.4424 13.9656 42.7971C14.3804 42.3362 16.1089 41.0686 16.1896 41.1608C16.2126 41.1839 16.3509 41.6563 16.5122 42.2325ZM34.4538 43.9149C34.9954 44.249 35.6292 44.5947 35.8597 44.71L36.2975 44.9059L35.5716 45.9314C35.1683 46.4961 34.5114 47.441 34.1197 48.0171L33.4052 49.0773L32.5295 47.7867C32.0455 47.0722 31.4002 46.1504 31.0891 45.7125C30.4898 44.8713 30.4668 44.8252 30.6857 44.8252C30.7549 44.8252 31.3656 44.491 32.034 44.0877C32.7023 43.6844 33.3015 43.3387 33.3591 43.3387C33.4283 43.3272 33.9122 43.5922 34.4538 43.9149Z" fill="black"/>
<path d="M16.7077 10.3017C15.0599 10.6589 13.7117 11.3964 12.5018 12.6179C11.5453 13.5858 11.0383 14.3925 10.5659 15.7522C10.2432 16.674 10.2087 16.893 10.2087 18.2642C10.1971 19.5203 10.2432 19.9005 10.4622 20.6265C11.2803 23.2423 13.2162 25.2703 15.6822 26.1C16.4312 26.3535 16.9382 26.4342 17.9292 26.4803L19.2083 26.5264L19.4503 26.2152C19.7614 25.8235 19.7729 25.351 19.4963 25.0053C19.312 24.7748 19.1276 24.7288 18.079 24.6481C16.7193 24.5559 15.9242 24.3024 14.8986 23.634C14.115 23.127 13.1816 22.1245 12.7438 21.3179C12.352 20.5919 11.9832 19.1515 11.9832 18.3334C11.9948 15.4756 14.1381 12.8253 17.0073 12.1454C17.9292 11.9265 19.3581 11.9841 20.1532 12.2607C21.2133 12.6409 21.8356 12.3644 21.8356 11.5232C21.8356 10.9355 21.6742 10.8087 20.6256 10.4746C19.6577 10.1634 17.7448 10.0828 16.7077 10.3017Z" fill="black"/>
</svg>
