<svg width="59" height="59" viewBox="0 0 59 59" fill="none" xmlns="http://www.w3.org/2000/svg">
<path d="M13.333 0.190323C12.0602 0.404438 10.1689 1.03488 8.89612 1.67722C4.29269 3.98488 1.0691 8.31472 0.188863 13.3821C-0.0609355 14.7619 -0.0609355 17.5929 0.176968 18.9609C0.938258 23.3026 3.50761 27.228 7.20701 29.6903C8.4441 30.5111 10.157 31.32 11.3941 31.6649L12.3695 31.9385V33.925C12.3695 35.0194 12.429 36.0542 12.4885 36.2327C12.5955 36.5063 12.5598 36.6014 12.1435 37.0534C11.8818 37.3389 11.6082 37.7671 11.5368 38.0288C11.4417 38.35 11.4179 40.9669 11.4417 47.0454L11.4774 55.6099L11.8223 56.3236C12.2743 57.2395 13.1784 58.1435 14.0943 58.5956L14.808 58.9405L36.9092 58.9762L58.9985 59V44.7258V30.4516H55.1921H51.3856V43.7742V57.0968H50.434H49.4824V45.6774V34.2581H45.676H41.8695V45.6774V57.0968H40.9179H39.9663V50.4355V43.7742H36.1598H32.3534V50.4355V57.0968H31.4018H30.4501V49.4839V41.871H26.6437H22.8372V49.4839V57.0968H21.4693H20.1014L20.4939 56.3474L20.8745 55.6099L20.9102 47.0454C20.934 40.9669 20.9102 38.35 20.8151 38.0288C20.7437 37.7671 20.4701 37.3389 20.2084 37.0534C19.7921 36.6014 19.7564 36.5063 19.8635 36.2327C19.9229 36.0542 19.9824 35.0194 19.9824 33.925V31.9385L20.9697 31.6649C22.2068 31.32 24.0387 30.4397 25.3233 29.5714C26.1441 29.0242 26.3582 28.929 26.4772 29.048C26.5604 29.1313 27.6667 30.3446 28.9395 31.7482L31.2471 34.2938L30.8784 35.0194C30.5334 35.7093 30.5096 35.8163 30.5096 37.1129C30.5096 38.3857 30.5334 38.5284 30.8546 39.1946C31.3066 40.1105 32.2106 41.0145 33.1266 41.4665C33.7927 41.7877 33.9354 41.8115 35.2082 41.8115C36.481 41.8115 36.6237 41.7877 37.2899 41.4665C38.2058 41.0145 39.1098 40.1105 39.5618 39.1946C39.883 38.5284 39.9068 38.3857 39.9068 37.1129C39.9068 35.852 39.883 35.6855 39.5737 35.0669C39.3596 34.6387 39.2764 34.3175 39.3358 34.2224C39.3834 34.1272 40.68 32.7236 42.2026 31.0821L44.9741 28.1083L45.4143 28.3224C45.7711 28.5127 46.128 28.5484 47.5435 28.5484C49.4467 28.5484 49.8631 28.4413 50.5292 27.799C51.2548 27.1091 51.3143 26.9069 51.3856 24.623C51.4689 22.1964 51.5284 22.0417 52.5514 21.3399C54.0858 20.2694 55.43 18.3304 55.9058 16.4629C56.227 15.2139 56.227 13.3345 55.9058 12.0855C55.1564 9.13548 52.7179 6.69698 49.7679 5.94758C48.5189 5.62641 46.6395 5.62641 45.3905 5.94758C42.4524 6.69698 40.002 9.14738 39.2526 12.0855C38.9314 13.3345 38.9314 15.2139 39.2526 16.4629C39.7284 18.3304 41.0725 20.2694 42.6308 21.3518C42.9876 21.6016 43.3564 21.9704 43.4516 22.1726C43.5705 22.4224 43.6419 23.1361 43.6776 24.4802L43.737 26.4073L41.0606 29.2978C39.5975 30.8798 38.2296 32.3548 38.0155 32.569L37.6348 32.9496L37.1114 32.6879C36.6475 32.45 36.3977 32.4143 35.2082 32.4143C34.0068 32.4143 33.7808 32.45 33.3288 32.6879C33.0433 32.8425 32.7935 32.9496 32.7816 32.9258C32.7697 32.902 31.6754 31.7006 30.355 30.2494C29.0346 28.7982 27.9522 27.5492 27.9522 27.4778C27.9522 27.3946 28.202 27.0615 28.4993 26.7165C30.2598 24.7657 31.7229 21.6611 32.1749 18.9133C32.401 17.4621 32.401 14.8927 32.1749 13.4415C31.485 9.19496 28.8919 5.1744 25.2758 2.73589C23.4082 1.475 21.0411 0.535282 18.8881 0.178429C17.5201 -0.0475807 14.6891 -0.0356865 13.333 0.190323ZM18.6739 2.2125C23.884 3.14032 28.3209 7.10141 29.784 12.145C30.2479 13.7746 30.3669 14.7976 30.2955 16.7365C30.236 18.7706 29.9268 20.1504 29.1536 21.8871C27.6429 25.3129 24.5383 28.251 21.0887 29.4881C17.4606 30.8085 13.4995 30.6181 10.05 28.9647C6.32677 27.1804 3.51951 23.7665 2.41326 19.6627C2.11588 18.5921 2.09209 18.3186 2.09209 16.1774C2.09209 14.0363 2.11588 13.7627 2.41326 12.6921C3.10318 10.1466 4.32838 8.01734 6.17213 6.17359C9.50277 2.84295 14.0586 1.40363 18.6739 2.2125ZM49.982 8.14819C51.683 8.82621 53.277 10.5034 53.8241 12.1925C54.1572 13.1917 54.1572 15.3567 53.8241 16.3558C53.4554 17.5097 52.5514 18.723 51.3856 19.627C50.2318 20.5192 49.6489 21.3518 49.53 22.2677C49.4467 22.8387 49.4467 22.8387 48.9947 22.8387H48.5308L48.5427 19.9482V17.0696L49.1018 16.7127C49.9701 16.1536 50.3627 15.4994 50.4102 14.5121C50.4697 13.5129 50.3032 12.9657 49.7322 12.3353C49.1612 11.6929 48.5308 11.4194 47.603 11.4194C46.3778 11.4194 45.4262 11.9903 44.9503 13.0252C44.653 13.6556 44.653 14.8808 44.9503 15.5232C45.1645 16.0109 45.8425 16.6889 46.3421 16.9149L46.6276 17.0458V19.9482V22.8387H46.1637C45.7116 22.8387 45.7116 22.8387 45.6284 22.2677C45.5094 21.3518 44.9266 20.5192 43.7727 19.627C43.0471 19.0679 42.5951 18.5921 42.1669 17.9498C41.3104 16.7008 41.0963 15.9514 41.0963 14.2742C41.0963 12.5851 41.3104 11.8476 42.1669 10.5867C43.2137 9.04033 44.9741 7.94597 46.7465 7.75565C47.8171 7.6367 49.0899 7.79133 49.982 8.14819ZM48.1739 13.6794C48.3048 13.8103 48.4118 14.072 48.4118 14.2742C48.4118 14.4764 48.3048 14.7381 48.1739 14.869C48.0431 14.9998 47.7814 15.1069 47.5792 15.1069C47.377 15.1069 47.1153 14.9998 46.9844 14.869C46.8536 14.7381 46.7465 14.4764 46.7465 14.2742C46.7465 14.072 46.8536 13.8103 46.9844 13.6794C47.1153 13.5486 47.377 13.4415 47.5792 13.4415C47.7814 13.4415 48.0431 13.5486 48.1739 13.6794ZM49.4824 25.1464C49.4824 25.8363 49.2445 26.3002 48.8163 26.4786C48.3405 26.6808 46.9368 26.6927 46.3897 26.5143C45.9495 26.3597 45.676 25.8363 45.676 25.1583V24.7419H47.5792H49.4824V25.1464ZM18.0792 33.7109C18.0792 35.3405 17.9483 35.7688 17.4131 35.9948C16.9372 36.197 15.5336 36.2089 14.9864 36.0304C14.4155 35.8282 14.2727 35.3643 14.2727 33.7228V32.3548H16.176H18.0792V33.7109ZM57.0953 44.7258V57.0968H55.1921H53.2889V44.7258V32.3548H55.1921H57.0953V44.7258ZM36.255 34.5673C38.0749 35.3167 38.527 37.7433 37.0995 39.0994C35.351 40.7528 32.4723 39.5276 32.4723 37.1129C32.4723 36.0423 33.079 35.1026 34.0782 34.5792C34.5421 34.3294 35.684 34.3294 36.255 34.5673ZM47.5792 46.629V57.0968H45.676H43.7727V46.629V36.1613H45.676H47.5792V46.629ZM18.3766 38.231C18.6858 38.3619 18.8048 38.5165 18.9118 38.8615C19.007 39.1827 19.0308 41.5617 19.007 47.0454C18.9713 54.1944 18.9594 54.8129 18.7572 55.253C18.2814 56.3236 17.2941 56.9778 16.176 56.9778C15.0578 56.9778 14.0705 56.3236 13.5947 55.253C13.3925 54.8129 13.3806 54.1944 13.3449 47.0454C13.3211 41.5736 13.3449 39.1827 13.4401 38.8615C13.6423 38.1716 13.9872 38.0764 16.1522 38.0645C17.4606 38.0645 18.0792 38.1121 18.3766 38.231ZM28.5469 50.4355V57.0968H26.6437H24.7405V50.4355V43.7742H26.6437H28.5469V50.4355ZM38.0631 51.3871V57.0968H36.1598H34.2566V51.3871V45.6774H36.1598H38.0631V51.3871Z" fill="black"/>
<path d="M13.6182 4.0087C12.4049 4.2585 10.8466 4.87705 9.72848 5.54318C8.37243 6.34015 6.33836 8.37423 5.54138 9.73028C4.32807 11.7643 3.80469 13.727 3.80469 16.1775C3.80469 19.5676 4.88715 22.2916 7.18291 24.7063C8.80066 26.4073 10.4779 27.4422 12.8093 28.1559C13.7966 28.4533 13.9988 28.4771 16.1757 28.4771C18.3525 28.4771 18.5547 28.4533 19.542 28.1559C21.8734 27.4422 23.5507 26.4073 25.1684 24.7063C27.4642 22.2916 28.5466 19.5676 28.5466 16.1775C28.5466 13.727 28.0232 11.7643 26.8099 9.73028C26.013 8.37423 23.9789 6.34015 22.6228 5.54318C21.469 4.85326 19.9226 4.2585 18.6498 3.99681C17.4722 3.7589 14.772 3.7589 13.6182 4.0087ZM18.5428 6.07846C20.3509 6.49479 22.3849 7.63673 23.622 8.94519C26.5839 12.0617 27.3809 16.6176 25.6204 20.4597L25.1803 21.4113L24.8472 20.6976C23.9908 18.8777 22.3849 17.2004 20.672 16.2964L19.649 15.7611L20.0654 15.2021C20.7434 14.2742 20.9694 13.4535 20.9099 12.1331C20.8742 11.1696 20.8148 10.8841 20.5174 10.2893C20.0773 9.37342 19.1732 8.46939 18.2573 8.01737C17.5912 7.6962 17.4484 7.67241 16.1757 7.67241C14.9029 7.67241 14.7601 7.6962 14.094 8.01737C13.1781 8.46939 12.274 9.37342 11.8339 10.2893C11.5365 10.8841 11.4771 11.1696 11.4414 12.1331C11.3819 13.4535 11.6079 14.2742 12.2859 15.2021L12.7023 15.7611L11.6793 16.2964C10.8466 16.7246 10.4065 17.0577 9.45489 18.0212C8.4557 19.0204 8.17021 19.3891 7.7063 20.2932L7.15912 21.3875L6.7309 20.4478C6.08856 19.0561 5.82686 17.8071 5.82686 16.1775C5.82686 14.4289 6.11235 13.1799 6.88553 11.5978C9.01477 7.24419 13.7966 4.98411 18.5428 6.07846ZM17.2224 9.82544C18.2335 10.2418 18.9115 11.2529 18.9115 12.371C18.9115 13.9055 17.7101 15.1069 16.1757 15.1069C14.6412 15.1069 13.4398 13.9055 13.4398 12.371C13.4398 11.3004 14.0464 10.3607 15.0456 9.83733C15.5095 9.58753 16.6515 9.58753 17.2224 9.82544ZM17.7815 17.3789C18.6142 17.593 18.5904 17.5692 18.3168 17.9617C17.6031 18.9609 15.9496 19.294 14.8672 18.6635C13.7847 18.0212 13.6301 17.6287 14.3914 17.4145C15.0575 17.2361 17.1392 17.2123 17.7815 17.3789ZM12.0123 18.6635C12.0123 18.723 12.2859 19.068 12.619 19.4367C13.1781 20.0553 14.6174 20.9355 15.0575 20.9355C15.1884 20.9355 15.224 21.447 15.224 23.7309C15.224 26.9545 15.3906 26.6571 13.7966 26.2883C12.4644 25.9672 10.8228 25.1583 9.70469 24.2662C8.66981 23.4454 8.66981 23.4216 9.08614 22.2202C9.45489 21.1734 10.3113 19.9006 11.1559 19.1512C11.8101 18.5684 12.0123 18.4494 12.0123 18.6635ZM21.1954 19.1512C22.2779 20.1148 23.3128 21.8752 23.5031 23.0529L23.5744 23.5287L22.6585 24.2543C21.5285 25.1583 19.8869 25.9672 18.5547 26.2883C16.9607 26.6571 17.1273 26.9545 17.1273 23.7309C17.1273 21.447 17.163 20.9355 17.2938 20.9355C17.7339 20.9355 19.1732 20.0553 19.7323 19.4367C20.0654 19.068 20.339 18.723 20.339 18.6635C20.339 18.4494 20.5412 18.5684 21.1954 19.1512Z" fill="black"/>
<path d="M46.6289 1.90317V3.8064H47.5805H48.5321V1.90317V-5.50747e-05H47.5805H46.6289V1.90317Z" fill="black"/>
<path d="M37.0536 3.80642L36.3398 4.52013L37.8029 5.98324L39.2542 7.43445L39.9917 6.68505L40.7411 5.94755L39.3136 4.52013C38.5286 3.73505 37.8624 3.09271 37.8267 3.09271C37.7911 3.09271 37.4461 3.41388 37.0536 3.80642Z" fill="black"/>
<path d="M55.8683 4.49637C55.107 5.25766 54.4766 5.94758 54.4766 6.00706C54.4766 6.16169 55.6899 7.375 55.8445 7.375C55.9159 7.375 56.6058 6.73266 57.3909 5.94758L58.8183 4.52016L58.1046 3.80645C57.712 3.41391 57.3671 3.09274 57.3314 3.09274C57.2957 3.09274 56.6415 3.72319 55.8683 4.49637Z" fill="black"/>
</svg>
