<svg width="47" height="45" viewBox="0 0 47 45" fill="none" xmlns="http://www.w3.org/2000/svg">
<path fill-rule="evenodd" clip-rule="evenodd" d="M46.3115 44.3021H0.688477C0.30293 44.3021 0 43.9992 0 43.6136V9.71948C0 9.33394 0.30293 9.03101 0.688477 9.03101H46.3115C46.6971 9.03101 47 9.33394 47 9.71948V43.6687C46.9449 43.9992 46.642 44.3021 46.3115 44.3021ZM1.34941 42.9802H45.623V10.3804H1.34941V42.9802Z" fill="#000"/>
<path fill-rule="evenodd" clip-rule="evenodd" d="M46.3115 14.7857H0.688477C0.30293 14.7857 0 14.4828 0 14.0972C0 13.7392 0.30293 13.4363 0.688477 13.4363H46.3115C46.6971 13.4363 47 13.7392 47 14.0972C47 14.4828 46.642 14.7857 46.3115 14.7857Z" fill="#000"/>
<path fill-rule="evenodd" clip-rule="evenodd" d="M43.2557 11.2891C43.5861 11.2891 43.8615 11.5645 43.8615 11.8949C43.8615 12.2529 43.5861 12.5008 43.2557 12.5008C42.8977 12.5008 42.5947 12.2529 42.5947 11.8949C42.5947 11.592 42.8701 11.2891 43.2557 11.2891Z" fill="#000"/>
<path fill-rule="evenodd" clip-rule="evenodd" d="M39.8416 11.2891C40.1997 11.2891 40.4751 11.5645 40.4751 11.8949C40.4751 12.2529 40.1997 12.5008 39.8416 12.5008C39.5112 12.5008 39.2083 12.2529 39.2083 11.8949C39.2358 11.592 39.5112 11.2891 39.8416 11.2891Z" fill="#000"/>
<path fill-rule="evenodd" clip-rule="evenodd" d="M36.482 11.2891C36.84 11.2891 37.1154 11.5645 37.1154 11.8949C37.1154 12.2529 36.84 12.5008 36.482 12.5008C36.1516 12.5008 35.8486 12.2529 35.8486 11.8949C35.8486 11.592 36.124 11.2891 36.482 11.2891Z" fill="#000"/>
<path fill-rule="evenodd" clip-rule="evenodd" d="M43.3383 24.9182H3.63428C3.24873 24.9182 2.9458 24.6153 2.9458 24.2297V18.1445C2.9458 17.7865 3.24873 17.4561 3.63428 17.4561H43.2832C43.6687 17.4561 43.9717 17.7865 43.9717 18.1445V24.2573C43.9717 24.6153 43.6687 24.9182 43.3383 24.9182ZM4.32275 23.5688H42.6498V18.8055H4.32275V23.5688Z" fill="#000"/>
<path fill-rule="evenodd" clip-rule="evenodd" d="M43.3383 40.2538H3.63428C3.24873 40.2538 2.9458 39.9509 2.9458 39.5654V28.5525C2.9458 28.1669 3.24873 27.864 3.63428 27.864H43.2832C43.6687 27.864 43.9717 28.1669 43.9717 28.5525V39.5663C43.9717 39.9784 43.6687 40.2538 43.3383 40.2538ZM4.32275 38.9329H42.6498V29.241H4.32275V38.9329Z" fill="#000"/>
<path fill-rule="evenodd" clip-rule="evenodd" d="M37.4182 37.6661C37.0327 37.6661 36.7297 37.3632 36.7297 36.9776V31.2229C36.7297 30.8374 37.0327 30.5344 37.4182 30.5344C37.8038 30.5344 38.1067 30.8374 38.1067 31.2229V37.0052C38.1067 37.3632 37.8038 37.6661 37.4182 37.6661Z" fill="#000"/>
<path fill-rule="evenodd" clip-rule="evenodd" d="M35.3529 36.8124C35.1877 36.8124 34.9949 36.7573 34.8848 36.6196C34.6094 36.3718 34.6094 35.9587 34.8848 35.6833L38.9872 31.5809C39.235 31.3331 39.6481 31.3331 39.9235 31.5809C40.1989 31.8563 40.1989 32.2694 39.9235 32.5448L35.7936 36.6196C35.6834 36.7573 35.5457 36.8124 35.3529 36.8124Z" fill="#000"/>
<path fill-rule="evenodd" clip-rule="evenodd" d="M40.3088 34.7754H34.499C34.1135 34.7754 33.8105 34.4449 33.8105 34.0869C33.8105 33.7014 34.1135 33.3984 34.499 33.3984H40.3088C40.6944 33.3984 40.9973 33.7014 40.9973 34.0869C40.9973 34.4449 40.6669 34.7754 40.3088 34.7754Z" fill="#000"/>
<path fill-rule="evenodd" clip-rule="evenodd" d="M39.4285 36.8123C39.2908 36.8123 39.0981 36.7572 38.9879 36.6195L34.8855 32.5171C34.6101 32.2417 34.6101 31.8286 34.8855 31.5532C35.1609 31.2778 35.574 31.2778 35.8494 31.5532L39.9242 35.6281C40.1996 35.9035 40.1996 36.3166 39.9242 36.592C39.7865 36.7572 39.6213 36.8123 39.4285 36.8123Z" fill="#000"/>
<path fill-rule="evenodd" clip-rule="evenodd" d="M28.1394 37.6661C27.7539 37.6661 27.4509 37.3632 27.4509 36.9776V31.2229C27.4509 30.8374 27.7539 30.5344 28.1394 30.5344C28.525 30.5344 28.8279 30.8374 28.8279 31.2229V37.0052C28.7728 37.3632 28.4699 37.6661 28.1394 37.6661Z" fill="#000"/>
<path fill-rule="evenodd" clip-rule="evenodd" d="M26.074 36.8124C25.8812 36.8124 25.716 36.7573 25.6058 36.6196C25.358 36.3718 25.358 35.9587 25.6058 35.6833L29.7358 31.5809C30.0111 31.3331 30.4242 31.3331 30.6996 31.5809C30.9475 31.8563 30.9475 32.2694 30.6996 32.5448L26.5421 36.6196C26.4044 36.7573 26.2117 36.8124 26.074 36.8124Z" fill="#000"/>
<path fill-rule="evenodd" clip-rule="evenodd" d="M31.03 34.7754H25.1926C24.8071 34.7754 24.5042 34.445 24.5042 34.087C24.5042 33.7014 24.8622 33.426 25.1926 33.426H31.03C31.4155 33.426 31.7185 33.729 31.7185 34.1145C31.7185 34.5 31.4155 34.7754 31.03 34.7754Z" fill="#000"/>
<path fill-rule="evenodd" clip-rule="evenodd" d="M30.2047 36.8123C30.0395 36.8123 29.8467 36.7572 29.7366 36.6195L25.5791 32.5171C25.3037 32.2417 25.3037 31.8286 25.5791 31.5532C25.8545 31.2778 26.2676 31.2778 26.543 31.5532L30.6454 35.6281C30.9208 35.9035 30.9208 36.3166 30.6454 36.592C30.5352 36.7572 30.3424 36.8123 30.2047 36.8123Z" fill="#000"/>
<path fill-rule="evenodd" clip-rule="evenodd" d="M18.8606 37.6661C18.475 37.6661 18.1721 37.3632 18.1721 36.9776V31.2229C18.1721 30.8374 18.475 30.5344 18.8606 30.5344C19.2461 30.5344 19.5491 30.8374 19.5491 31.2229V37.0052C19.5491 37.3632 19.2461 37.6661 18.8606 37.6661Z" fill="#000"/>
<path fill-rule="evenodd" clip-rule="evenodd" d="M16.7952 36.8124C16.6299 36.8124 16.4647 36.7573 16.327 36.6196C16.0792 36.3718 16.0792 35.9587 16.327 35.6833L20.4294 31.5809C20.6773 31.3331 21.1179 31.3331 21.3657 31.5809C21.6411 31.8563 21.6411 32.2694 21.3657 32.5448L17.2633 36.6196C17.1256 36.7573 16.9879 36.8124 16.7952 36.8124Z" fill="#000"/>
<path fill-rule="evenodd" clip-rule="evenodd" d="M21.7513 34.7754H15.969C15.5834 34.7754 15.2805 34.4449 15.2805 34.0869C15.2805 33.7014 15.5834 33.3984 15.969 33.3984H21.7513C22.1368 33.3984 22.4398 33.7014 22.4398 34.0869C22.4398 34.4449 22.1093 34.7754 21.7513 34.7754Z" fill="#000"/>
<path fill-rule="evenodd" clip-rule="evenodd" d="M20.871 36.8123C20.7333 36.8123 20.5405 36.7572 20.4304 36.6195L16.328 32.5171C16.0801 32.2417 16.0801 31.8286 16.328 31.5532C16.6034 31.2778 17.0165 31.2778 17.2918 31.5532L21.3667 35.6281C21.6421 35.9035 21.6421 36.3166 21.3667 36.592C21.2281 36.7572 21.0638 36.8123 20.871 36.8123Z" fill="#000"/>
<path fill-rule="evenodd" clip-rule="evenodd" d="M9.58179 37.6661C9.19624 37.6661 8.89331 37.3632 8.89331 36.9776V31.2229C8.89331 30.8374 9.19624 30.5344 9.58179 30.5344C9.96733 30.5344 10.2703 30.8374 10.2703 31.2229V37.0052C10.2427 37.3632 9.91226 37.6661 9.58179 37.6661Z" fill="#000"/>
<path fill-rule="evenodd" clip-rule="evenodd" d="M7.51636 36.8124C7.37866 36.8124 7.18589 36.7573 7.04819 36.6196C6.80034 36.3718 6.80034 35.9587 7.04819 35.6833L11.1781 31.5809C11.4535 31.3331 11.8666 31.3331 12.142 31.5809C12.4174 31.8563 12.4174 32.2694 12.142 32.5448L7.98452 36.6196C7.87437 36.7573 7.68159 36.8124 7.51636 36.8124Z" fill="#000"/>
<path fill-rule="evenodd" clip-rule="evenodd" d="M12.4724 34.7754H6.63599C6.25044 34.7754 5.94751 34.4449 5.94751 34.0869C5.94751 33.7014 6.25044 33.3984 6.63599 33.3984H12.4734C12.8589 33.3984 13.1618 33.7014 13.1618 34.0869C13.1609 34.4449 12.858 34.7754 12.4724 34.7754Z" fill="#000"/>
<path fill-rule="evenodd" clip-rule="evenodd" d="M11.6471 36.8123C11.4819 36.8123 11.2891 36.7572 11.179 36.6195L7.02148 32.5171C6.74609 32.2417 6.74609 31.8286 7.02148 31.5532C7.29688 31.2778 7.70996 31.2778 7.98535 31.5532L12.0878 35.6281C12.3631 35.9035 12.3631 36.3166 12.0878 36.592C11.9767 36.7572 11.7839 36.8123 11.6471 36.8123Z" fill="#000"/>
<path fill-rule="evenodd" clip-rule="evenodd" d="M18.9982 12.7479C18.6402 12.7479 18.3097 12.4174 18.3097 12.0594C18.3097 11.6739 18.6402 11.371 18.9982 11.371C20.8709 11.371 22.4121 9.82878 22.4121 7.95704V4.07495C22.4121 3.6894 22.7151 3.38647 23.1006 3.38647C23.4862 3.38647 23.7891 3.6894 23.7891 4.07495V8.01212C23.734 10.6008 21.6135 12.7479 18.9982 12.7479ZM14.9233 10.3805C14.5378 10.3805 14.2349 10.0775 14.2349 9.692V4.90112C14.2349 4.54312 14.5378 4.26772 14.9233 4.26772C15.3089 4.26772 15.6118 4.57065 15.6118 4.90112V9.71954C15.6118 10.0775 15.3089 10.3805 14.9233 10.3805Z" fill="#000"/>
<path fill-rule="evenodd" clip-rule="evenodd" d="M17.0982 7.76416C16.9054 7.76416 16.7677 7.70908 16.63 7.57139L14.4544 5.36826C14.2066 5.09287 14.2066 4.67979 14.4544 4.40439C14.7298 4.15654 15.1429 4.15654 15.4183 4.40439L17.5939 6.63506C17.8693 6.88291 17.8693 7.32354 17.5939 7.57139C17.4562 7.70908 17.2634 7.76416 17.0982 7.76416Z" fill="#000"/>
<path fill-rule="evenodd" clip-rule="evenodd" d="M23.0456 4.76334C21.7237 4.76334 20.6506 3.68932 20.6506 2.34082C20.6506 1.04648 21.7247 0 23.0456 0C24.3666 0 25.4131 1.04648 25.4131 2.34082C25.414 3.66178 24.395 4.76334 23.0456 4.76334ZM23.0456 1.32188C22.4948 1.32188 21.9991 1.79004 21.9991 2.34082C21.9991 2.97422 22.4398 3.41484 23.0456 3.41484C23.6239 3.41484 24.0921 2.97422 24.0921 2.34082C24.0921 1.79004 23.6239 1.32188 23.0456 1.32188Z" fill="#000"/>
</svg>
