<svg width="59" height="59" viewBox="0 0 59 59" fill="none" xmlns="http://www.w3.org/2000/svg">
<path d="M41.5774 0.218892C40.7477 0.553072 40.2867 0.875728 39.6529 1.55561C37.6248 3.77963 38.3738 7.5017 41.1049 8.78081C43.5133 9.92163 46.2789 8.95366 47.3967 6.60288C47.7424 5.8769 47.7654 5.72709 47.7654 4.60932C47.7654 3.48002 47.7424 3.34174 47.3967 2.65034C46.9242 1.67085 46.1176 0.864204 45.1727 0.41479C44.5043 0.103658 44.2969 0.0575638 43.2713 0.0345173C42.361 0.0114698 42.0037 0.0460405 41.5774 0.218892ZM44.4697 2.23549C44.9422 2.48901 45.576 3.26108 45.7258 3.79116C46.0369 4.7937 45.8065 5.70405 45.0574 6.46459C43.7322 7.83588 41.6465 7.49018 40.7592 5.76166C40.4826 5.22006 40.4365 5.02417 40.4826 4.48256C40.6555 2.46596 42.6836 1.32514 44.4697 2.23549Z" fill="black"/>
<path d="M19.9595 3.34178C19.5216 3.44549 19.0722 3.82576 18.8302 4.2867C18.738 4.45955 18.5652 5.51971 18.4384 6.63748C18.3116 7.76678 18.1964 8.70018 18.1734 8.7117C18.1618 8.72322 17.5972 8.91912 16.9173 9.13807C15.6497 9.56444 14.1978 10.2443 13.1952 10.8896L12.6191 11.2469L10.9482 10.0599C9.12746 8.7578 8.66652 8.5619 7.95207 8.7578C7.38742 8.9076 7.04172 9.19568 5.77414 10.6015C4.18391 12.3416 4.20695 12.6412 6.14289 15.0726L7.44504 16.7205L6.90344 17.7806C6.31574 18.933 5.78566 20.3388 5.48605 21.618L5.29016 22.4246L3.36574 22.7472C1.11867 23.1275 0.600116 23.3119 0.24289 23.8996C-0.0106259 24.2914 -0.0106259 24.4066 0.0239445 26.308C0.0585148 28.1633 0.0700382 28.3131 0.323554 28.6703C0.761444 29.281 1.15324 29.4078 3.40031 29.6728L5.47453 29.9148L5.9009 31.1594C6.13137 31.8508 6.4425 32.5306 6.58078 32.6805C6.91496 33.0262 7.46808 33.0377 7.89445 32.715C8.17101 32.4961 8.19406 32.4039 8.14797 31.9314C8.12492 31.6433 7.96359 31.0096 7.80226 30.5371C7.62941 30.0646 7.42199 29.3732 7.31828 29.0045C7.08781 28.1402 6.96105 28.0941 4.55266 27.8406C3.53859 27.7254 2.53605 27.6101 2.34016 27.5756L1.95988 27.518V26.2619C1.95988 25.0519 1.97141 25.0058 2.2134 24.9482C2.3632 24.9252 3.41184 24.7408 4.55266 24.5449C6.08527 24.2799 6.68449 24.1301 6.84582 23.9687C6.97258 23.842 7.12238 23.4156 7.21457 22.9086C7.54875 21.1224 8.17101 19.5322 9.3925 17.3428C9.62297 16.9279 9.69211 16.6744 9.64601 16.4555C9.59992 16.2941 8.92004 15.3492 8.1134 14.3467L6.66144 12.5375L7.44504 11.7193C7.87141 11.2584 8.2632 10.8435 8.3093 10.7974C8.35539 10.7398 9.25422 11.3045 10.3144 12.0535C11.8009 13.1021 12.331 13.4133 12.6075 13.4133C12.8611 13.4133 13.2644 13.2174 13.8866 12.8025C15.1773 11.9383 16.6984 11.2353 18.2655 10.7974C19.003 10.5785 19.706 10.3019 19.8327 10.1752C20.0171 9.9908 20.0978 9.57596 20.3052 7.57088L20.5587 5.18553H21.8493H23.14L23.2782 6.01522C23.7968 9.1035 23.9581 9.82947 24.1655 10.0369C24.3038 10.1752 24.857 10.3711 25.6521 10.5439C27.3345 10.9242 28.0029 11.1777 29.8581 12.1342C31.022 12.7334 31.4945 12.9178 31.7019 12.8717C31.8517 12.8256 32.7966 12.1342 33.7991 11.339L35.6198 9.87557L36.4841 10.7283C36.9566 11.1892 37.3368 11.6156 37.3368 11.6732C37.3368 11.7308 36.7952 12.5375 36.1499 13.4709C34.8132 15.3492 34.6864 15.5566 34.6864 15.8793C34.6864 16.006 34.9515 16.5131 35.2741 17.0086C36.3458 18.6449 36.8874 19.9125 37.6595 22.5744C37.8093 23.0814 38.2357 23.2888 39.3765 23.358C40.3329 23.4156 40.4366 23.4041 40.6671 23.1736C40.9898 22.851 41.0013 22.1019 40.6902 21.7908C40.5634 21.664 40.2292 21.5258 39.9527 21.4912L39.4341 21.4105L39.0653 20.3043C38.639 19.0137 37.89 17.3888 37.3023 16.4785L36.8989 15.8562L37.2677 15.3262C38.3163 13.8742 39.0653 12.7795 39.2267 12.4568C39.4571 12.0189 39.4687 11.1547 39.2382 10.7283C39.146 10.5439 38.5122 9.87557 37.8093 9.24178C35.8042 7.39803 35.5622 7.40955 33.0732 9.36854L31.4138 10.6822L30.6071 10.2443C29.5355 9.66815 27.8876 9.03436 26.7237 8.7578C26.2052 8.64256 25.7673 8.5158 25.7327 8.49276C25.7097 8.45819 25.5368 7.54783 25.3525 6.46463C24.9952 4.33279 24.8339 3.90643 24.2001 3.49158C23.8429 3.23807 23.7046 3.22655 22.0798 3.23807C21.1234 3.24959 20.1669 3.29568 19.9595 3.34178Z" fill="black"/>
<path d="M50.3593 6.17662C49.8407 6.40709 49.1378 7.08697 48.8382 7.65162C48.5501 8.20474 48.4464 9.13814 48.6192 9.73736C49.2185 11.9844 51.9726 12.8256 53.6435 11.2815C54.3579 10.6131 54.623 10.0139 54.623 9.03443C54.6114 7.17916 53.4245 5.99224 51.5692 5.99224C51.1083 6.00377 50.5897 6.07291 50.3593 6.17662ZM52.3759 8.26236C52.8829 8.78091 52.7331 9.63365 52.0763 9.97935C51.6499 10.1983 51.1659 10.1061 50.8317 9.76041C50.3132 9.19576 50.4515 8.40064 51.1313 8.05494C51.6038 7.82447 51.9956 7.89361 52.3759 8.26236Z" fill="black"/>
<path d="M21.3772 13.494C18.4042 13.736 16.0649 14.8307 13.8755 16.9971C11.9971 18.8639 10.9831 20.6846 10.476 23.093C10.2225 24.2799 10.1649 26.7114 10.3723 27.7715C10.6143 29.0737 10.9716 30.0762 11.2827 30.3182C11.8589 30.7791 12.7923 30.3528 12.7923 29.6268C12.7923 29.4655 12.6655 28.8086 12.4927 28.1748C11.4786 24.1992 12.9651 19.9817 16.2493 17.4926C19.2108 15.234 23.3593 14.7615 26.6665 16.2942C29.7317 17.7115 31.8866 20.4196 32.578 23.7153C32.843 25.052 32.7393 27.299 32.336 28.5205C31.9788 29.6383 31.9557 30.1108 32.2669 30.4219C32.7854 30.9405 33.5575 30.7791 33.9032 30.0762C34.5485 28.728 34.8827 25.6627 34.5716 23.7614C34.1452 21.111 32.8891 18.7026 30.9647 16.8588C28.3259 14.3352 25.0532 13.1828 21.3772 13.494Z" fill="black"/>
<path d="M44.5611 13.54C43.8352 13.7936 43.259 14.4734 43.0631 15.3262C43.0285 15.4875 42.6598 19.9471 42.2449 25.2363C41.8301 30.5256 41.4498 35.0428 41.4037 35.2617C41.3115 35.6305 41.1848 35.7227 39.2949 36.7713L37.2783 37.8891L37.2207 35.3309C37.1861 33.9365 37.117 32.692 37.0594 32.5768C36.9326 32.3117 36.6215 32.1504 36.2182 32.1504C35.9992 32.1504 34.0633 33.1529 30.71 35.0082L25.5244 37.8775L25.4668 35.3078C25.4092 32.7957 25.4092 32.7381 25.1326 32.45C24.6371 31.9314 24.2684 32.0236 22.6781 33.1068C20.3043 34.7201 13.8973 39.0068 13.8051 39.0414C13.759 39.0645 13.7129 37.6586 13.6898 35.907L13.6553 32.7496L13.3787 32.45C13.1943 32.2541 12.9754 32.1504 12.7449 32.1504C12.4914 32.1504 10.6131 33.1299 6.39551 35.4461C3.0998 37.2668 0.311133 38.8225 0.207422 38.9262C0.0115234 39.0875 0 39.7098 0 48.8248C0 58.3893 0 58.5391 0.230469 58.7695C0.507031 59.0461 1.23301 59.0807 1.56719 58.8387C1.77461 58.6773 1.78613 58.4123 1.84375 49.4355L1.90137 40.2053L6.7873 37.5088C9.48379 36.0223 11.6963 34.8008 11.7193 34.8008C11.7424 34.8008 11.7539 40.1361 11.7539 46.6699C11.7539 58.3893 11.7539 58.5391 11.9844 58.7695C12.2379 59.023 12.8832 59.0807 13.252 58.8848C13.6898 58.6428 13.7129 58.3086 13.7129 49.7813V41.5189L18.5873 38.2463L23.4502 34.9621L23.5078 46.8197C23.5654 58.3893 23.5654 58.6773 23.7844 58.8387C24.0494 59.023 24.6947 59.0576 25.0059 58.8848C25.4553 58.6428 25.4668 58.3316 25.4668 49.1014L25.4783 40.1592L30.3412 37.4857L35.2041 34.8008L35.2387 46.6354L35.2617 58.4699L35.5152 58.735C35.8264 59.0691 36.5063 59.0922 36.8865 58.7811L37.1631 58.5621L37.1977 49.3549L37.2322 40.1592L39.1912 39.0875C40.2744 38.4883 41.1732 38.0273 41.1848 38.0504C41.1963 38.0734 40.8621 42.4178 40.4357 47.707C39.9979 52.9963 39.6521 57.5941 39.6521 57.9168C39.6406 58.3777 39.6982 58.5506 39.9057 58.7465C40.2398 59.0691 41.0234 59.0922 41.277 58.7926C41.542 58.5045 41.5766 58.3086 41.7148 56.4072C41.7725 55.4508 41.8647 54.4598 41.8992 54.1832L41.9568 53.6992H49.3664H56.7645L56.9143 55.7965C57.1217 58.8041 57.2023 59 58.1242 59C58.758 59 59 58.6889 59 57.8822C59 56.7068 55.6697 15.5105 55.543 15.0611C55.3816 14.4965 54.7939 13.8396 54.2178 13.5861C53.8029 13.3902 53.365 13.3672 49.3779 13.3787C45.967 13.3787 44.9068 13.4133 44.5611 13.54ZM53.5955 15.5682C53.6992 15.7756 54.9553 30.3643 54.9668 31.5396V31.9199H49.3203C46.2205 31.9199 43.6738 31.8738 43.6738 31.8277C43.6738 31.7701 43.9619 28.1633 44.3076 23.7959C44.6533 19.44 44.9414 15.8332 44.9414 15.7871C44.9414 15.7295 45.0221 15.6027 45.1258 15.5105C45.2756 15.3492 45.8287 15.3262 49.3779 15.3262C53.4227 15.3262 53.4572 15.3262 53.5955 15.5682ZM55.2318 34.7086C55.2779 35.1695 55.3355 35.9762 55.3816 36.4947L55.4623 37.4512H49.3203H43.1898L43.2475 36.9557C43.2936 36.6906 43.3512 35.9301 43.3973 35.2617C43.4434 34.5934 43.4895 34.0172 43.524 33.9596C43.5471 33.9135 46.1859 33.8789 49.3664 33.8789H55.1627L55.2318 34.7086ZM55.6582 39.7213C55.6582 39.9057 55.8656 42.6137 56.1191 45.748C56.3727 48.8824 56.5801 51.5213 56.5801 51.5904C56.5801 51.7057 55.0475 51.7402 49.3088 51.7402H42.049L42.1066 51.2447C42.1527 50.9797 42.3602 48.3754 42.5791 45.46C42.8096 42.5445 43.017 39.9863 43.0516 39.7789L43.1092 39.4102H49.3779H55.6582V39.7213Z" fill="black"/>
<path d="M20.6174 19.5898C18.9119 19.8779 16.492 20.8804 15.7084 21.6179C15.2474 22.0558 15.2013 22.5398 15.5931 22.9892C15.9619 23.4156 16.5035 23.4041 17.2525 22.9431C18.0246 22.4707 19.1424 21.9752 20.0527 21.7101C20.6174 21.5488 21.1935 21.5027 22.415 21.4912C24.6045 21.4912 25.3074 21.6871 27.9463 23.0929C28.4533 23.358 28.5801 23.381 28.9027 23.2658C29.3406 23.116 29.5019 22.8625 29.5019 22.3093C29.5019 21.9867 29.4213 21.8484 29.0756 21.5603C28.0961 20.7537 26.1256 19.9355 24.4662 19.6474C23.4291 19.4631 21.5162 19.44 20.6174 19.5898Z" fill="black"/>
<path d="M20.3976 23.7383C19.1761 24.0609 17.8509 24.7523 17.655 25.1557C17.3439 25.7895 17.7933 26.5039 18.4962 26.5039C18.7152 26.5039 19.1991 26.3541 19.5679 26.1582C21.4001 25.2363 23.5204 25.2363 25.3642 26.1697C26.1939 26.5846 26.7124 26.6076 27.0581 26.2389C27.4038 25.8701 27.3923 25.2363 27.0581 24.9252C26.6087 24.5334 26.021 24.2223 25.0646 23.8996C23.7855 23.4732 21.6767 23.3926 20.3976 23.7383Z" fill="black"/>
<path d="M39.0179 27.0224C38.1882 27.1723 37.7964 27.4488 37.7964 27.8867C37.7964 28.0019 37.6351 28.7049 37.4507 29.4539C37.2433 30.2605 37.1281 30.9519 37.1742 31.1363C37.3355 31.9199 38.5685 32.0582 38.9603 31.3322C39.0294 31.2055 39.2023 30.6178 39.3521 30.0416C39.5941 29.0621 39.6402 28.9699 39.9628 28.8662C40.5275 28.6703 40.7925 28.3592 40.7925 27.8867C40.7925 27.5986 40.7118 27.3912 40.539 27.2299C40.1702 26.8957 39.9167 26.8611 39.0179 27.0224Z" fill="black"/>
<path d="M20.915 27.4143C19.7973 27.8176 19.5898 28.0135 19.5898 28.6934C19.5898 29.1658 20.0393 29.6152 20.5117 29.6152C20.7076 29.6152 21.0648 29.5115 21.3184 29.3848C21.9176 29.0852 22.9316 29.0852 23.6115 29.3848C24.2799 29.6959 24.7178 29.6844 25.0635 29.3271C25.7203 28.6818 25.2018 27.7945 23.9457 27.3912C23.1045 27.1262 21.6756 27.1377 20.915 27.4143Z" fill="black"/>
<path d="M4.59786 43.3973C4.34434 43.6738 4.3213 43.8006 4.2752 45.1258C4.21758 47.5227 4.40196 48.0527 5.32383 48.0527C6.0959 48.0527 6.22266 47.7992 6.22266 46.3242V45.0566H7.37501C8.58497 45.0566 9.11505 44.9068 9.26485 44.5381C9.41465 44.1348 9.33399 43.6623 9.0459 43.3857C8.76934 43.0977 8.73477 43.0977 6.82188 43.0977C4.88594 43.0977 4.87442 43.0977 4.59786 43.3973Z" fill="black"/>
<path d="M16.3863 43.3627C16.1443 43.6162 16.1328 43.743 16.1328 45.5867C16.1328 47.4881 16.1443 47.5572 16.3979 47.7992C16.6629 48.0527 17.1814 48.1334 17.5732 47.9836C17.942 47.8453 18.0918 47.3037 18.0918 46.1514V45.0566H19.1865C20.7307 45.0566 21.0879 44.8492 21.0879 43.9619C21.0879 43.6853 21.0072 43.5125 20.7883 43.3396C20.5002 43.1207 20.3273 43.0976 18.5527 43.0976C16.6975 43.0976 16.6283 43.1092 16.3863 43.3627Z" fill="black"/>
<path d="M28.2881 43.3857C28 43.6623 28 43.6969 28 45.5752C28 47.4535 28 47.4881 28.2881 47.7646C28.4725 47.9605 28.6914 48.0527 28.9795 48.0527C29.2676 48.0527 29.4865 47.9605 29.6709 47.7646C29.9359 47.4996 29.959 47.4074 29.959 46.2666V45.0566H31.0883C32.3328 45.0566 32.7016 44.9299 32.932 44.4344C33.1164 44.0656 33.0357 43.6393 32.7246 43.3281C32.5172 43.1207 32.3328 43.0977 30.5352 43.0977C28.5992 43.0977 28.5646 43.0977 28.2881 43.3857Z" fill="black"/>
<path d="M4.64313 51.3254L4.32048 51.602L4.28591 53.319C4.25134 54.6787 4.28591 55.1281 4.42419 55.4623C4.62009 55.9463 5.04645 56.1653 5.55348 56.0615C6.10661 55.9348 6.22184 55.6352 6.22184 54.2524V53.0078H7.48942C8.68786 53.0078 8.78005 52.9963 9.04509 52.7197C9.24098 52.5354 9.33317 52.3164 9.33317 52.0283C9.33317 51.7403 9.24098 51.5213 9.04509 51.3369C8.76852 51.0489 8.73395 51.0489 6.86716 51.0489C5.02341 51.0489 4.95427 51.0604 4.64313 51.3254Z" fill="black"/>
<path d="M16.4324 51.2909L16.1328 51.5213V53.5264C16.1328 55.3125 16.1559 55.543 16.3518 55.785C16.6514 56.1537 17.4119 56.1653 17.7691 55.7965C18.0111 55.566 18.0342 55.4047 18.0688 54.2754L18.1148 53.0078H19.3133C20.4426 53.0078 20.5463 52.9848 20.7998 52.7198C20.9957 52.5354 21.0879 52.3164 21.0879 52.0284C21.0879 51.7403 20.9957 51.5213 20.7998 51.3369C20.5232 51.0489 20.4887 51.0489 18.6334 51.0489C16.8934 51.0489 16.7205 51.0719 16.4324 51.2909Z" fill="black"/>
<path d="M28.5186 51.1871C28.0461 51.4637 28.0115 51.6135 28 53.5609V55.4508L28.3342 55.7849C28.6914 56.1422 28.968 56.1998 29.4174 55.9924C29.8438 55.7965 29.959 55.4162 29.959 54.1601V53.0078H31.1805C32.3674 53.0078 32.402 52.9963 32.7361 52.6736C32.932 52.4662 33.0703 52.2127 33.0703 52.0283C33.0703 51.8439 32.932 51.5904 32.7361 51.383L32.402 51.0488H30.5697C29.4174 51.0488 28.6684 51.1064 28.5186 51.1871Z" fill="black"/>
</svg>
