<svg width="58" height="59" viewBox="0 0 58 59" fill="none" xmlns="http://www.w3.org/2000/svg">
<path d="M2.08984 1.15234C1.8709 1.37129 1.85938 1.53262 1.85938 7.375C1.85938 13.2174 1.8709 13.3787 2.08984 13.5977C2.32031 13.8281 2.47012 13.8281 10.1562 13.8281C17.8424 13.8281 17.9922 13.8281 18.2227 13.5977C18.4416 13.3787 18.4531 13.2174 18.4531 7.375C18.4531 1.53262 18.4416 1.37129 18.2227 1.15234C17.9922 0.921875 17.8424 0.921875 10.1562 0.921875C2.47012 0.921875 2.32031 0.921875 2.08984 1.15234ZM16.6094 7.375V11.9844H10.1562H3.70312V7.375V2.76562H10.1562H16.6094V7.375Z" fill="black"/>
<path d="M6.64062 6.68359L4.79688 8.52734L5.52285 9.2418L6.2373 9.96777L8.1041 8.10098L9.98242 6.22266L9.29102 5.53125C8.91074 5.15098 8.57656 4.83984 8.54199 4.83984C8.50742 4.83984 7.65469 5.66953 6.64062 6.68359Z" fill="black"/>
<path d="M12.1719 6.68359L10.3281 8.52734L11.0541 9.2418L11.7686 9.96777L13.6354 8.10098L15.5137 6.22266L14.8223 5.53125C14.442 5.15098 14.1078 4.83984 14.0732 4.83984C14.0387 4.83984 13.1859 5.66953 12.1719 6.68359Z" fill="black"/>
<path d="M20.5273 1.15234C20.3084 1.37129 20.2969 1.53262 20.2969 7.375C20.2969 13.2174 20.3084 13.3787 20.5273 13.5977C20.7578 13.8281 20.9076 13.8281 28.5938 13.8281C36.2799 13.8281 36.4297 13.8281 36.6602 13.5977C36.8791 13.3787 36.8906 13.2174 36.8906 7.375C36.8906 1.53262 36.8791 1.37129 36.6602 1.15234C36.4297 0.921875 36.2799 0.921875 28.5938 0.921875C20.9076 0.921875 20.7578 0.921875 20.5273 1.15234ZM35.0469 7.375V11.9844H28.5938H22.1406V7.375V2.76562H28.5938H35.0469V7.375Z" fill="black"/>
<path d="M25.0781 6.68359L23.2344 8.52734L23.9604 9.2418L24.6748 9.96777L26.5416 8.10098L28.4199 6.22266L27.7285 5.53125C27.3482 5.15098 27.0141 4.83984 26.9795 4.83984C26.9449 4.83984 26.0922 5.66953 25.0781 6.68359Z" fill="black"/>
<path d="M30.6094 6.68359L28.7656 8.52734L29.4916 9.2418L30.2061 9.96777L32.0729 8.10098L33.9512 6.22266L33.2598 5.53125C32.8795 5.15098 32.5453 4.83984 32.5107 4.83984C32.4762 4.83984 31.6234 5.66953 30.6094 6.68359Z" fill="black"/>
<path d="M38.9648 1.15234C38.7459 1.37129 38.7344 1.53262 38.7344 7.375C38.7344 13.2174 38.7459 13.3787 38.9648 13.5977C39.1953 13.8281 39.3451 13.8281 47.0312 13.8281C54.7174 13.8281 54.8672 13.8281 55.0977 13.5977C55.3166 13.3787 55.3281 13.2174 55.3281 7.375C55.3281 1.53262 55.3166 1.37129 55.0977 1.15234C54.8672 0.921875 54.7174 0.921875 47.0312 0.921875C39.3451 0.921875 39.1953 0.921875 38.9648 1.15234ZM53.4844 7.375V11.9844H47.0312H40.5781V7.375V2.76562H47.0312H53.4844V7.375Z" fill="black"/>
<path d="M43.5396 6.66055C42.5486 7.65156 41.7305 8.52734 41.7305 8.58496C41.7305 8.73477 42.9059 9.91016 43.0557 9.91016C43.1248 9.91016 44.0006 9.08047 45.0146 8.06641L46.8584 6.22266L46.167 5.53125C45.7867 5.15098 45.4525 4.83984 45.418 4.83984C45.3834 4.83984 44.5422 5.65801 43.5396 6.66055Z" fill="black"/>
<path d="M49.0709 6.66055C48.0799 7.65156 47.2617 8.52734 47.2617 8.58496C47.2617 8.73477 48.4371 9.91016 48.5869 9.91016C48.6561 9.91016 49.5318 9.08047 50.5459 8.06641L52.3896 6.22266L51.6982 5.53125C51.318 5.15098 50.9838 4.83984 50.9492 4.83984C50.9146 4.83984 50.0734 5.65801 49.0709 6.66055Z" fill="black"/>
<path d="M2.08984 15.9023C1.8709 16.1213 1.85938 16.2826 1.85938 22.125C1.85938 27.9674 1.8709 28.1287 2.08984 28.3477C2.32031 28.5781 2.47012 28.5781 10.1562 28.5781C17.8424 28.5781 17.9922 28.5781 18.2227 28.3477C18.4416 28.1287 18.4531 27.9674 18.4531 22.125C18.4531 16.2826 18.4416 16.1213 18.2227 15.9023C17.9922 15.6719 17.8424 15.6719 10.1562 15.6719C2.47012 15.6719 2.32031 15.6719 2.08984 15.9023ZM16.6094 22.125V26.7344H10.1562H3.70312V22.125V17.5156H10.1562H16.6094V22.125Z" fill="black"/>
<path d="M6.64062 21.4336L4.79688 23.2773L5.52285 23.9918L6.2373 24.7178L8.1041 22.851L9.98242 20.9727L9.29102 20.2812C8.91074 19.901 8.57656 19.5898 8.54199 19.5898C8.50742 19.5898 7.65469 20.4195 6.64062 21.4336Z" fill="black"/>
<path d="M12.1719 21.4336L10.3281 23.2773L11.0541 23.9918L11.7686 24.7178L13.6354 22.851L15.5137 20.9727L14.8223 20.2812C14.442 19.901 14.1078 19.5898 14.0732 19.5898C14.0387 19.5898 13.1859 20.4195 12.1719 21.4336Z" fill="black"/>
<path d="M20.528 15.9024C20.309 16.1213 20.2975 16.2826 20.2975 22.125C20.2975 29.258 20.1247 28.5782 21.9108 28.5782H23.0631V27.6563V26.7344H22.6022H22.1413V22.125V17.5157H28.5944H35.0475V22.125V26.7344H34.5866H34.1256V27.6563V28.5782H35.278C37.0641 28.5782 36.8913 29.258 36.8913 22.125C36.8913 16.2826 36.8797 16.1213 36.6608 15.9024C36.4303 15.6719 36.2805 15.6719 28.5944 15.6719C20.9083 15.6719 20.7585 15.6719 20.528 15.9024Z" fill="black"/>
<path d="M38.9648 15.9023C38.7459 16.1213 38.7344 16.2826 38.7344 22.125C38.7344 27.9674 38.7459 28.1287 38.9648 28.3477C39.1953 28.5781 39.3451 28.5781 47.0312 28.5781C54.7174 28.5781 54.8672 28.5781 55.0977 28.3477C55.3166 28.1287 55.3281 27.9674 55.3281 22.125C55.3281 16.2826 55.3166 16.1213 55.0977 15.9023C54.8672 15.6719 54.7174 15.6719 47.0312 15.6719C39.3451 15.6719 39.1953 15.6719 38.9648 15.9023ZM53.4844 22.125V26.7344H47.0312H40.5781V22.125V17.5156H47.0312H53.4844V22.125Z" fill="black"/>
<path d="M43.5396 21.4105C42.5486 22.4016 41.7305 23.2773 41.7305 23.335C41.7305 23.4848 42.9059 24.6602 43.0557 24.6602C43.1248 24.6602 44.0006 23.8305 45.0146 22.8164L46.8584 20.9727L46.167 20.2812C45.7867 19.901 45.4525 19.5898 45.418 19.5898C45.3834 19.5898 44.5422 20.408 43.5396 21.4105Z" fill="black"/>
<path d="M49.0709 21.4105C48.0799 22.4016 47.2617 23.2773 47.2617 23.335C47.2617 23.4848 48.4371 24.6602 48.5869 24.6602C48.6561 24.6602 49.5318 23.8305 50.5459 22.8164L52.3896 20.9727L51.6982 20.2812C51.318 19.901 50.9838 19.5898 50.9492 19.5898C50.9146 19.5898 50.0734 20.408 49.0709 21.4105Z" fill="black"/>
<path d="M25.0781 21.4336L23.2344 23.2773L23.9604 23.9918L24.6748 24.7178L26.5416 22.851L28.4199 20.9727L27.7285 20.2812C27.3482 19.901 27.0141 19.5898 26.9795 19.5898C26.9449 19.5898 26.0922 20.4195 25.0781 21.4336Z" fill="black"/>
<path d="M30.6094 21.4336L28.7656 23.2773L29.4916 23.9918L30.2061 24.7178L32.0729 22.851L33.9512 20.9727L33.2598 20.2812C32.8795 19.901 32.5453 19.5898 32.5107 19.5898C32.4762 19.5898 31.6234 20.4195 30.6094 21.4336Z" fill="black"/>
<path d="M26.8422 26.9533C25.1713 27.4949 23.7424 28.9584 23.2469 30.6408C23.1201 31.0902 23.0625 31.7471 23.0625 32.8879V34.5127L23.5234 35.2041L23.9844 35.8955L23.3045 35.9762C21.6336 36.1605 20.0203 37.5088 19.5479 39.099C19.4211 39.56 19.3865 39.583 18.9256 39.6176L18.4531 39.6521V37.117C18.4531 34.7201 18.4416 34.5588 18.2227 34.3398C18.0959 34.2131 17.8885 34.1094 17.7617 34.1094C17.5543 34.1094 17.5312 34.0287 17.5312 33.1875V32.2656H16.6094H15.6875V33.1875V34.1094H14.5352C12.8412 34.1094 12.9219 33.9596 12.9219 37.1055V39.6406H12H11.0781V37.1055C11.0781 34.7201 11.0666 34.5588 10.8477 34.3398C10.7209 34.2131 10.5135 34.1094 10.3867 34.1094C10.1793 34.1094 10.1562 34.0287 10.1562 33.1875V32.2656H9.23438H8.3125V33.1875V34.1094H7.16016C5.46621 34.1094 5.54688 33.9596 5.54688 37.1055V39.6406H3.01172C0.626367 39.6406 0.465039 39.6521 0.246094 39.8711C0.0271484 40.09 0.015625 40.2514 0.015625 42.4062C0.015625 45.1604 0.015625 45.1719 1.16797 45.1719H1.85938V51.1641V57.1562H2.78125H3.70312V51.1641V45.1719H11.5391H19.375V48.9055C19.375 52.616 19.375 52.6506 19.133 52.7197C18.7297 52.8465 17.9691 53.607 17.7502 54.1025C17.4852 54.6787 17.4621 55.8541 17.7156 56.4418C17.9461 57.0064 18.5223 57.5941 19.0869 57.8592C19.5248 58.0666 20.0203 58.0781 28.5938 58.0781C37.1672 58.0781 37.6627 58.0666 38.1006 57.8592C38.6652 57.5941 39.2414 57.0064 39.4719 56.4418C39.7254 55.8541 39.7023 54.6787 39.4373 54.1025C39.2184 53.607 38.4578 52.8465 38.0545 52.7197C37.8125 52.6506 37.8125 52.616 37.8125 48.9055V45.1719H45.6484H53.4844V51.1641V57.1562H54.4062H55.3281V51.1641V45.1719H56.0195C57.1719 45.1719 57.1719 45.1604 57.1719 42.4062C57.1719 39.4102 57.3908 39.6406 54.6367 39.6406H52.5625V38.0273C52.5625 36.5639 52.5395 36.391 52.332 36.1836C52.1131 35.9646 51.9518 35.9531 47.0312 35.9531C42.1107 35.9531 41.9494 35.9646 41.7305 36.1836C41.523 36.391 41.5 36.5639 41.5 38.0273V39.6406L39.6447 39.6176L37.7779 39.583L37.6396 39.099C37.1672 37.5088 35.5539 36.1605 33.883 35.9762L33.2031 35.8955L33.6641 35.2041L34.125 34.5127V32.8879C34.125 31.7471 34.0674 31.0902 33.9406 30.6408C33.4451 28.9354 32.0047 27.4834 30.3107 26.9533C29.3773 26.6652 27.7525 26.6652 26.8422 26.9533ZM30.2992 29.0967C31.6475 29.8227 32.2812 31.1248 32.2812 33.1299C32.2812 33.6484 32.2006 33.8213 31.5322 34.8354L30.7832 35.9531H28.5938H26.4043L25.6438 34.8008L24.8717 33.6484L24.9408 32.6459C24.9869 32.0812 25.0676 31.4359 25.1367 31.2055C25.4133 30.2145 26.4965 29.1197 27.4875 28.8086C27.6834 28.751 28.2596 28.7164 28.7666 28.7279C29.5271 28.7625 29.7922 28.8201 30.2992 29.0967ZM9.23438 37.7969V39.6406H8.3125H7.39062V37.7969V35.9531H8.3125H9.23438V37.7969ZM16.6094 37.7969V39.6406H15.6875H14.7656V37.7969V35.9531H15.6875H16.6094V37.7969ZM34.2979 38.0965C34.9316 38.4422 35.3811 38.9031 35.6691 39.5254C35.8996 40.0324 35.9111 40.2168 35.9457 46.3012L35.9803 52.5469H28.5938H21.2072L21.2418 46.3012C21.2764 40.2168 21.2879 40.0324 21.5184 39.5254C21.9332 38.6381 22.6592 38.0619 23.5811 37.9006C23.8346 37.8545 26.243 37.8314 28.9395 37.8314C33.7102 37.8545 33.8484 37.866 34.2979 38.0965ZM50.7188 38.7188V39.6406H47.0312H43.3438V38.7188V37.7969H47.0312H50.7188V38.7188ZM19.375 42.4062V43.3281H10.6172H1.85938V42.4062V41.4844H10.6172H19.375V42.4062ZM55.3281 42.4062V43.3281H46.5703H37.8125V42.4062V41.4844H46.5703H55.3281V42.4062ZM37.1787 54.552C37.8816 54.8516 37.8816 55.7734 37.1787 56.073C36.591 56.315 20.5965 56.315 20.0088 56.073C19.3174 55.785 19.3059 54.8516 19.9857 54.5635C20.5389 54.3215 36.6025 54.31 37.1787 54.552Z" fill="black"/>
</svg>
