<svg width="60" height="59" viewBox="0 0 60 59" fill="none" xmlns="http://www.w3.org/2000/svg">
<path d="M4.07031 0.161446C2.52617 0.656952 1.27012 1.74015 0.578711 3.19211L0.152344 4.09094V26.7345V49.378L0.578711 50.2769C1.15488 51.4868 2.07676 52.4087 3.28672 52.9849L4.18555 53.4113L20.3414 53.4458C36.4051 53.4689 36.5088 53.4689 36.7393 53.2384C37.0158 52.9618 37.0504 52.2359 36.8084 51.9017C36.6471 51.6827 36.3129 51.6827 20.8139 51.6251C6.10996 51.5675 4.95762 51.556 4.48516 51.3716C3.44805 50.9452 2.61836 50.1155 2.19199 49.0784C2.00762 48.606 1.99609 47.4767 1.96152 32.5769L1.92695 16.5939H26.8291H51.7197V27.6564C51.7197 38.5691 51.7197 38.7189 51.9502 38.9493C52.2613 39.2605 53.0219 39.2605 53.333 38.9493C53.5635 38.7189 53.5635 38.6152 53.5404 21.3991L53.5059 4.09094L53.0795 3.19211C52.5033 1.98215 51.5814 1.06027 50.3715 0.4841L49.4727 0.0577354L27.002 0.034687C9.05996 0.0231628 4.43906 0.0462112 4.07031 0.161446ZM49.173 2.09738C50.2102 2.52375 51.0514 3.36496 51.4547 4.39054C51.6275 4.82844 51.6506 5.54289 51.6967 9.81809L51.7428 14.7501H26.8406H1.93848V10.3366C1.93848 7.91672 1.98457 5.61203 2.04219 5.20871C2.2957 3.46867 3.47109 2.24719 5.15352 1.9591C5.4416 1.91301 15.3518 1.87844 27.1748 1.88996C47.3293 1.90149 48.7006 1.91301 49.173 2.09738Z" fill="black"/>
<path d="M29.3057 5.7502C28.3031 6.21113 27.75 7.13301 27.75 8.31992C27.7615 9.95625 28.8678 11.0625 30.5156 11.0625C32.175 11.0625 33.2812 9.95625 33.2812 8.29688C33.2812 7.09844 32.6705 6.14199 31.6449 5.71563C31.0457 5.46211 29.8818 5.48516 29.3057 5.7502ZM31.0918 7.7207C31.2186 7.84746 31.3223 8.10098 31.3223 8.29688C31.3223 8.49277 31.2186 8.74629 31.0918 8.87305C30.965 8.9998 30.7115 9.10352 30.5156 9.10352C30.3197 9.10352 30.0662 8.9998 29.9395 8.87305C29.8127 8.74629 29.709 8.49277 29.709 8.29688C29.709 8.10098 29.8127 7.84746 29.9395 7.7207C30.0662 7.59395 30.3197 7.49023 30.5156 7.49023C30.7115 7.49023 30.965 7.59395 31.0918 7.7207Z" fill="black"/>
<path d="M36.6807 5.7502C35.6781 6.21113 35.125 7.13301 35.125 8.31992C35.1365 9.95625 36.2428 11.0625 37.8906 11.0625C39.55 11.0625 40.6562 9.95625 40.6562 8.29688C40.6562 7.09844 40.0455 6.14199 39.0199 5.71563C38.4207 5.46211 37.2568 5.48516 36.6807 5.7502ZM38.4668 7.7207C38.5936 7.84746 38.6973 8.10098 38.6973 8.29688C38.6973 8.49277 38.5936 8.74629 38.4668 8.87305C38.34 8.9998 38.0865 9.10352 37.8906 9.10352C37.6947 9.10352 37.4412 8.9998 37.3145 8.87305C37.1877 8.74629 37.084 8.49277 37.084 8.29688C37.084 8.10098 37.1877 7.84746 37.3145 7.7207C37.4412 7.59395 37.6947 7.49023 37.8906 7.49023C38.0865 7.49023 38.34 7.59395 38.4668 7.7207Z" fill="black"/>
<path d="M44.0557 5.7502C43.0531 6.21113 42.5 7.13301 42.5 8.31992C42.5115 9.95625 43.6178 11.0625 45.2656 11.0625C46.925 11.0625 48.0312 9.95625 48.0312 8.29688C48.0312 7.09844 47.4205 6.14199 46.3949 5.71563C45.7957 5.46211 44.6318 5.48516 44.0557 5.7502ZM45.8418 7.7207C45.9686 7.84746 46.0723 8.10098 46.0723 8.29688C46.0723 8.49277 45.9686 8.74629 45.8418 8.87305C45.715 8.9998 45.4615 9.10352 45.2656 9.10352C45.0697 9.10352 44.8162 8.9998 44.6895 8.87305C44.5627 8.74629 44.459 8.49277 44.459 8.29688C44.459 8.10098 44.5627 7.84746 44.6895 7.7207C44.8162 7.59395 45.0697 7.49023 45.2656 7.49023C45.4615 7.49023 45.715 7.59395 45.8418 7.7207Z" fill="black"/>
<path d="M11.3406 20.3043C9.68125 20.5233 8.2293 21.7217 7.6877 23.312L7.48027 23.9112L6.71973 23.9688C5.84395 24.0379 5.625 24.2108 5.625 24.8907C5.625 25.5705 5.84395 25.7434 6.71973 25.8125L7.48027 25.8702L7.6877 26.4694C8.21777 28.0596 9.68125 29.258 11.3637 29.477C13.6568 29.7881 15.7656 28.5436 16.4686 26.4694L16.676 25.8702L25.7334 25.8125C34.5373 25.7549 34.8023 25.7434 34.9637 25.536C35.2057 25.2018 35.1711 24.4758 34.8945 24.1993C34.6641 23.9688 34.5143 23.9688 25.6758 23.9688C18.5773 23.9688 16.676 23.9342 16.6414 23.819C15.927 21.3414 13.8412 19.9586 11.3406 20.3043ZM13.0922 22.4246C14.8553 23.1506 15.2932 25.5014 13.9104 26.8151C12.2279 28.4053 9.43926 27.2299 9.42773 24.9137C9.42773 23.4157 10.5686 22.2518 12.0551 22.2403C12.3893 22.2403 12.8502 22.3209 13.0922 22.4246Z" fill="black"/>
<path d="M28.9605 29.6959C27.4739 30.2375 26.4253 31.4014 25.9528 33.0377C25.9183 33.1529 23.8325 33.1875 15.9966 33.1875C6.23624 33.1875 6.08644 33.1875 5.85597 33.418C5.57941 33.6945 5.54484 34.4205 5.78683 34.7547C5.94816 34.9621 6.22472 34.9736 15.939 35.0313L25.9183 35.0889L26.1257 35.6881C26.5175 36.8404 27.3587 37.7623 28.5571 38.35C29.1333 38.6381 29.3062 38.6611 30.5161 38.6611C31.7491 38.6611 31.8874 38.6381 32.5327 38.327C33.42 37.8891 34.2958 37.0133 34.7337 36.126C35.0448 35.4807 35.0679 35.3424 35.0679 34.1094C35.0679 32.8764 35.0448 32.7381 34.7337 32.0928C34.2958 31.2055 33.42 30.3297 32.5327 29.9033C31.9335 29.6037 31.6915 29.5576 30.689 29.523C29.8017 29.5 29.3984 29.5461 28.9605 29.6959ZM31.5302 31.6434C32.5097 32.0467 33.1665 33.0262 33.1665 34.1094C33.1665 35.5959 32.0026 36.7598 30.5161 36.7598C28.1884 36.7598 26.99 33.9711 28.5917 32.2771C29.3292 31.5051 30.5622 31.24 31.5302 31.6434Z" fill="black"/>
<path d="M39.1475 30.7561L38.8709 30.975L38.8364 43.7545C38.8248 50.7723 38.8364 56.6377 38.8709 56.776C38.9631 57.1562 39.3895 57.502 39.7582 57.502C39.9311 57.502 41.1526 57.0295 42.4662 56.4533C43.7914 55.8771 44.9207 55.3816 44.9899 55.3586C45.059 55.324 45.4162 56.0039 45.8426 56.9834C46.5916 58.7234 46.799 59 47.3752 59C47.8592 59 54.6811 56.027 54.9 55.7273C55.1766 55.3355 55.0959 54.9437 54.3584 53.2383C53.9781 52.3395 53.6785 51.5904 53.7016 51.5789C53.7246 51.5674 54.8539 51.0719 56.2137 50.4842C57.5735 49.8965 58.7834 49.3088 58.8987 49.182C59.0369 49.0092 59.0946 48.7902 59.0715 48.4676C59.0369 48.0066 58.8871 47.8568 49.6684 39.2719C40.6455 30.8598 40.2768 30.5371 39.8504 30.5371C39.5969 30.5371 39.3088 30.6293 39.1475 30.7561ZM49.2766 41.6572C53.1485 45.2641 56.2944 48.2486 56.2367 48.2947C56.1906 48.3408 55.1535 48.8018 53.9321 49.3203C51.6965 50.2768 51.3739 50.4957 51.3739 51.0258C51.3739 51.1756 51.6965 52.0398 52.0883 52.9617C52.4686 53.8721 52.7682 54.6441 52.7451 54.6557C52.6299 54.7479 48.0551 56.6953 47.9629 56.6953C47.9053 56.6953 47.5596 55.9693 47.1793 55.082C46.8106 54.1947 46.4188 53.3996 46.3151 53.3074C45.8541 52.8926 45.6006 52.9502 43.1461 54.0219L40.7723 55.059V44.3998V33.7406L41.4983 34.409C41.9016 34.7893 45.3932 38.0389 49.2766 41.6572Z" fill="black"/>
<path d="M19.6396 38.7418C17.9802 38.9608 16.5282 40.1592 15.9866 41.7495L15.7792 42.3487L10.8702 42.4063C6.16865 42.4639 5.94971 42.4754 5.78838 42.6829C5.58096 42.9709 5.58096 43.6854 5.78838 43.9735C5.94971 44.1809 6.16865 44.1924 10.8702 44.25L15.7792 44.3077L15.9866 44.9069C16.6896 46.9811 18.7983 48.2256 21.103 47.9145C22.7739 47.6955 24.2259 46.4971 24.7675 44.9069L24.9749 44.3077L29.8839 44.25C34.5854 44.1924 34.8044 44.1809 34.9657 43.9735C35.2077 43.6393 35.1731 42.9133 34.8966 42.6368C34.6776 42.4178 34.5163 42.4063 29.8263 42.4063C26.0466 42.4063 24.9749 42.3717 24.9403 42.2565C24.2259 39.7789 22.1401 38.3961 19.6396 38.7418ZM21.3911 40.8621C22.3706 41.2655 23.0274 42.245 23.0274 43.3282C23.0274 44.8147 21.8636 45.9786 20.3771 45.9786C18.0493 45.9786 16.8509 43.1899 18.4526 41.4959C19.1901 40.7239 20.4231 40.4588 21.3911 40.8621Z" fill="black"/>
</svg>
