<svg width="59" height="59" viewBox="0 0 59 59" fill="none" xmlns="http://www.w3.org/2000/svg">
<path d="M3.67743 0.265141C2.29462 0.841312 1.48798 1.59034 0.888759 2.85791L0.520009 3.62998L0.485439 20.3851C0.462392 35.5269 0.473915 37.2093 0.646767 37.7854C1.09618 39.3296 2.22548 40.528 3.76962 41.0696L4.24208 41.231L4.48407 40.2515C4.62235 39.7099 4.72606 39.2489 4.70302 39.2374C4.67997 39.2259 4.4495 39.0991 4.19599 38.9724C3.59677 38.6612 3.10126 38.1772 2.81317 37.6011C2.60575 37.1747 2.59423 36.5985 2.55966 20.7653L2.53661 4.36748L2.7786 3.80283C2.91688 3.48018 3.22802 3.04229 3.47001 2.82334C4.36884 2.0167 2.5827 2.07432 25.0995 2.07432H45.4499L45.9454 2.31631C46.5561 2.61592 47.3167 3.45713 47.478 4.02178C47.5356 4.25225 47.5933 4.78233 47.5933 5.20869V5.99229H48.6304H49.6675V4.97823C49.6675 2.90401 48.6649 1.29073 46.7981 0.380375L46.1528 0.0577164L25.2378 0.0346718L4.32274 9.91821e-05L3.67743 0.265141Z" fill="black"/>
<path d="M4.37891 4.95508V5.99219H5.41602H6.45312V4.95508V3.91797H5.41602H4.37891V4.95508Z" fill="black"/>
<path d="M8.29688 4.95508V5.99219H9.33398H10.3711V4.95508V3.91797H9.33398H8.29688V4.95508Z" fill="black"/>
<path d="M12.2148 4.95508V5.99219H13.252H14.2891V4.95508V3.91797H13.252H12.2148V4.95508Z" fill="black"/>
<path d="M9.75037 8.06641C8.11404 8.58496 6.81189 10.0254 6.45467 11.7078C6.374 12.0881 6.33943 17.6654 6.36248 28.8662L6.39705 45.46L6.81189 46.3357C7.49177 47.7416 8.71326 48.7557 10.1537 49.0783C10.4648 49.159 13.2881 49.2051 17.4365 49.2051H24.2008V48.168V47.1309H17.5287C12.781 47.1309 10.7529 47.0963 10.4763 46.9926C9.77342 46.7621 9.16267 46.2551 8.81697 45.6098L8.47127 44.999V28.5205C8.47127 12.4568 8.47127 12.0305 8.69021 11.5926C8.95525 11.0625 9.54295 10.4518 10.0615 10.1752C10.4072 9.9793 11.5711 9.96777 30.8037 9.9332L51.1771 9.91016L51.7418 10.1521C52.3756 10.4287 53.0439 11.0855 53.332 11.7424C53.5164 12.1227 53.5279 13.5631 53.5625 28.1057C53.574 38.6381 53.551 44.273 53.4703 44.6994C53.4127 45.0451 53.2168 45.5406 53.0554 45.7826L52.7674 46.2205L53.309 46.7045C54.4383 47.6955 54.323 47.6725 54.7379 47.0617C54.9453 46.7736 55.2219 46.2436 55.3601 45.8863L55.6021 45.2295L55.6367 29.0391C55.6597 18.0688 55.6252 12.5951 55.5445 12.0535C55.291 10.4057 54.3115 9.06894 52.8019 8.33144L51.9262 7.89355L31.184 7.87051C11.1101 7.84746 10.4072 7.85898 9.75037 8.06641Z" fill="black"/>
<path d="M10.2578 12.791V13.8281H11.2949H12.332V12.791V11.7539H11.2949H10.2578V12.791Z" fill="black"/>
<path d="M14.1758 12.791V13.8281H15.2129H16.25V12.791V11.7539H15.2129H14.1758V12.791Z" fill="black"/>
<path d="M18.0938 12.791V13.8281H19.1309H20.168V12.791V11.7539H19.1309H18.0938V12.791Z" fill="black"/>
<path d="M39.7578 20.2352V24.7869L39.101 24.7178C38.7322 24.6832 38.3174 24.6256 38.1791 24.591L37.9141 24.5449V21.0879V17.6309H36.877H35.8398V21.0879V24.5449L35.5863 24.591C35.4365 24.6256 35.0217 24.6832 34.6645 24.7178L33.9961 24.7869V23.1736V21.5488H32.959H31.9219V23.4963V25.4322L31.0922 25.8125C30.6313 26.0314 30.2164 26.2273 30.1703 26.2504C30.1127 26.2734 30.0781 25.0174 30.0781 23.4617V20.627H29.041H28.0039V24.1762V27.7139L27.082 28.6357L26.1602 29.5576V26.066V22.5859H25.123H24.0859V27.8176V33.0607L23.7402 34.0979C23.2332 35.5959 23.0143 37.2207 23.0834 38.857L23.141 40.2168H16.6994H10.2578V41.2539V42.291H16.9299H23.5904L23.8555 43.0055C25.4803 47.5457 29.4098 50.9336 34.1344 51.9016C37.407 52.5699 41.0715 51.9477 43.8832 50.2537L44.8051 49.7006L49.4605 54.3561L54.1045 59H54.6115C55.1186 59 55.1416 58.977 56.8355 57.2945C58.518 55.6121 58.541 55.5775 58.541 55.082V54.575L53.7703 49.7812L48.9881 44.999L49.2646 44.4805C49.4145 44.1924 49.6795 43.5816 49.8523 43.1207L50.1635 42.291H50.8895H51.627V41.2539V40.2168H51.1199H50.6129L50.6705 38.857C50.7397 37.2207 50.5207 35.5959 50.0137 34.0979L49.668 33.0607V28.2785V23.5078H48.6309H47.5938V26.527V29.5576L46.6719 28.6357L45.75 27.7139V23.6576V19.5898H44.7129H43.6758V22.9432C43.6758 24.7869 43.6412 26.2734 43.5951 26.2504C43.5375 26.2273 43.1227 26.0314 42.6732 25.8125L41.832 25.4322V20.5578V15.6719H40.7949H39.7578V20.2352ZM39.6656 26.9533C43.9754 28.0826 47.2365 31.4014 48.3197 35.7227C48.6078 36.8865 48.6539 39.3871 48.4234 40.5049C47.5938 44.3307 45.2199 47.3729 41.7859 48.9861C36.1049 51.6365 29.3521 49.3088 26.4598 43.6738C25.5148 41.8301 25.1807 40.4242 25.1922 38.2578C25.1922 37.0594 25.2498 36.4717 25.4457 35.6766C26.575 31.1479 30.2395 27.6562 34.7912 26.792C36.0127 26.5615 38.4902 26.6422 39.6656 26.9533ZM51.9727 50.9912L56.0635 55.082L55.3375 55.7965L54.623 56.5225L50.5438 52.4432L46.4645 48.3639L47.1098 47.6264C47.4555 47.2346 47.7781 46.9004 47.8127 46.9004C47.8588 46.9004 49.7256 48.7441 51.9727 50.9912Z" fill="black"/>
<path d="M34.8021 28.6818C31.2068 29.4423 28.4643 32.0236 27.358 35.688C27.0814 36.5753 27.0469 36.898 27.0469 38.3154C27.0469 40.2398 27.2658 41.2193 28.0609 42.8095C29.3285 45.3562 31.7484 47.2806 34.5141 47.949C35.943 48.2947 37.8098 48.2947 39.2387 47.949C42.7072 47.1078 45.5189 44.3537 46.4523 40.8505C46.8096 39.5369 46.8096 37.1976 46.4523 35.8955C45.0465 30.7099 39.9992 27.5871 34.8021 28.6818ZM35.8393 34.5126V38.373H36.8764H37.9135V34.5011V30.6292L38.3975 30.7099C38.6625 30.756 39.0658 30.8597 39.2963 30.9404L39.6996 31.0787L39.7342 34.7316L39.7572 38.373H40.7943H41.8314V35.3423L41.843 32.3232L42.5689 33.0953C43.3986 33.9826 44.1361 35.2847 44.4242 36.414C44.6432 37.2322 44.7123 38.7994 44.5625 39.6636L44.4703 40.2167H36.8764H29.2824L29.1902 39.6636C28.7639 37.1861 29.6396 34.5472 31.4488 32.7841L31.9213 32.3347V35.3539V38.373H32.9584H33.9955V34.7546C33.9955 32.7496 34.0416 31.1017 34.0992 31.0671C34.249 30.975 35.4014 30.6638 35.6434 30.6638C35.8277 30.6523 35.8393 30.9058 35.8393 34.5126ZM43.3641 42.6597C43.2488 42.8556 42.8225 43.3626 42.4076 43.789C39.3424 46.9119 34.4104 46.9119 31.3451 43.789C30.9303 43.3626 30.5039 42.8556 30.3887 42.6597L30.1813 42.291H36.8764H43.5715L43.3641 42.6597Z" fill="black"/>
<path d="M16.1328 32.4385V38.373H17.1699H18.207V32.4385V26.5039H17.1699H16.1328V32.4385Z" fill="black"/>
<path d="M20.0508 33.9365V38.373H21.0879H22.125V33.9365V29.5H21.0879H20.0508V33.9365Z" fill="black"/>
<path d="M12.2148 35.377V38.373H13.252H14.2891V35.377V32.3809H13.252H12.2148V35.377Z" fill="black"/>
</svg>
