<svg width="47" height="46" viewBox="0 0 47 46" fill="none" xmlns="http://www.w3.org/2000/svg">
<path d="M35.2507 45.0429C35.1213 45.0429 34.9918 45.0172 34.8707 44.9667C34.4043 44.7684 23.5005 40.0564 23.5005 30.4249V22.2411C23.5005 21.8197 23.7685 21.4479 24.166 21.313L34.9368 17.6759C35.1406 17.6071 35.3618 17.6071 35.5638 17.6759L46.3345 21.313C46.732 21.4461 47 21.8206 47 22.2411V30.4249C47 40.0564 36.0962 44.7684 35.6298 44.9658C35.5096 45.0172 35.3802 45.0429 35.2507 45.0429ZM25.4586 22.9461V30.4249C25.4586 37.8358 33.4001 42.0925 35.2507 42.9839C37.0995 42.0907 45.0429 37.8156 45.0429 30.4249V22.9461L35.2507 19.6386L25.4586 22.9461Z" fill="#000"/>
<path d="M34.2712 35.2506C34.2538 35.2506 34.2336 35.2506 34.218 35.2488C33.938 35.2332 33.681 35.1019 33.5075 34.8825L29.5904 29.9869C29.2535 29.5637 29.3205 28.9486 29.7428 28.6099C30.1678 28.2767 30.781 28.3437 31.1198 28.7623L34.3511 32.8023L40.4318 26.7234C40.8137 26.3415 41.4343 26.3415 41.8161 26.7234C42.198 27.1053 42.198 27.7259 41.8161 28.1077L34.9615 34.9624C34.7807 35.1469 34.5301 35.2506 34.2712 35.2506Z" fill="#000"/>
<path d="M36.2302 13.7083H6.85461C3.07434 13.7083 0 10.634 0 6.85461C0 3.07526 3.07434 0 6.85461 0H36.2302C40.0095 0 43.0848 3.07434 43.0848 6.85461C43.0848 10.6349 40.0095 13.7083 36.2302 13.7083ZM6.85461 1.95807C4.15389 1.95807 1.95898 4.15297 1.95898 6.85369C1.95898 9.55441 4.15389 11.7502 6.85461 11.7502H36.2302C38.9309 11.7502 41.1258 9.55532 41.1258 6.85461C41.1258 4.15389 38.9309 1.95898 36.2302 1.95898H6.85461V1.95807Z" fill="#000"/>
<path d="M8.81256 9.79211C7.19323 9.79211 5.875 8.47388 5.875 6.85455C5.875 5.23522 7.19323 3.91699 8.81256 3.91699C10.4319 3.91699 11.7501 5.23522 11.7501 6.85455C11.7501 8.47388 10.4319 9.79211 8.81256 9.79211ZM8.81256 5.87506C8.2737 5.87506 7.83307 6.31569 7.83307 6.85455C7.83307 7.39341 8.2737 7.83312 8.81256 7.83312C9.35142 7.83312 9.79205 7.39249 9.79205 6.85363C9.79205 6.31477 9.35142 5.87506 8.81256 5.87506Z" fill="#000"/>
<path d="M18.6048 9.79211C16.9855 9.79211 15.6672 8.47388 15.6672 6.85455C15.6672 5.23522 16.9855 3.91699 18.6048 3.91699C20.2241 3.91699 21.5424 5.23522 21.5424 6.85455C21.5424 8.47388 20.2241 9.79211 18.6048 9.79211ZM18.6048 5.87506C18.0659 5.87506 17.6253 6.31569 17.6253 6.85455C17.6253 7.39341 18.0659 7.83404 18.6048 7.83404C19.1437 7.83404 19.5843 7.39341 19.5843 6.85455C19.5843 6.31569 19.1427 5.87506 18.6048 5.87506Z" fill="#000"/>
<path d="M18.6048 25.4585H6.85461C3.07434 25.4585 0 22.3842 0 18.6049C0 16.7753 0.713276 15.0559 2.00947 13.7597C3.30567 12.4635 5.02506 11.7502 6.85461 11.7502H36.2302C37.7614 11.7502 39.2054 12.2414 40.3978 13.1722C40.8247 13.5054 40.9009 14.1205 40.5686 14.5473C40.2354 14.9724 39.6203 15.0486 39.1934 14.7181C38.3471 14.0581 37.3235 13.7092 36.2302 13.7092H6.85461C5.55015 13.7092 4.32005 14.2205 3.3938 15.145C2.46755 16.0694 1.95807 17.3013 1.95807 18.6058C1.95807 21.3065 4.15297 23.5014 6.85369 23.5014H18.6039C19.1446 23.5014 19.5834 23.9402 19.5834 24.4809C19.5834 25.0216 19.1446 25.4585 18.6048 25.4585Z" fill="#000"/>
<path d="M8.81256 21.5424C7.19323 21.5424 5.875 20.2241 5.875 18.6048C5.875 16.9855 7.19323 15.6672 8.81256 15.6672C10.4319 15.6672 11.7501 16.9855 11.7501 18.6048C11.7501 20.2241 10.4319 21.5424 8.81256 21.5424ZM8.81256 17.6253C8.2737 17.6253 7.83307 18.0659 7.83307 18.6048C7.83307 19.1437 8.2737 19.5843 8.81256 19.5843C9.35142 19.5843 9.79205 19.1437 9.79205 18.6048C9.79205 18.0659 9.35142 17.6253 8.81256 17.6253Z" fill="#000"/>
<path d="M18.6048 21.5424C16.9855 21.5424 15.6672 20.2241 15.6672 18.6048C15.6672 16.9855 16.9855 15.6672 18.6048 15.6672C20.2241 15.6672 21.5424 16.9855 21.5424 18.6048C21.5424 20.2241 20.2241 21.5424 18.6048 21.5424ZM18.6048 17.6253C18.0659 17.6253 17.6253 18.0659 17.6253 18.6048C17.6253 19.1437 18.0659 19.5843 18.6048 19.5843C19.1437 19.5843 19.5843 19.1437 19.5843 18.6048C19.5843 18.0659 19.1427 17.6253 18.6048 17.6253Z" fill="#000"/>
<path d="M18.6048 37.2088H6.85461C3.07434 37.2088 0 34.1344 0 30.3551C0 28.5255 0.713276 26.8062 2.00947 25.51C3.30567 24.2138 5.02506 23.5005 6.85461 23.5005H18.6048C19.1455 23.5005 19.5843 23.9393 19.5843 24.48C19.5843 25.0207 19.1455 25.4595 18.6048 25.4595H6.85461C5.55015 25.4595 4.32005 25.9708 3.3938 26.8952C2.46755 27.8196 1.95807 29.0516 1.95807 30.356C1.95807 33.0567 4.15297 35.2516 6.85369 35.2516H18.6039C19.1446 35.2516 19.5834 35.6904 19.5834 36.2311C19.5834 36.77 19.1446 37.2088 18.6048 37.2088Z" fill="#000"/>
<path d="M8.81256 33.2926C7.19323 33.2926 5.875 31.9744 5.875 30.355C5.875 28.7357 7.19323 27.4175 8.81256 27.4175C10.4319 27.4175 11.7501 28.7357 11.7501 30.355C11.7501 31.9744 10.4319 33.2926 8.81256 33.2926ZM8.81256 29.3755C8.2737 29.3755 7.83307 29.8162 7.83307 30.355C7.83307 30.8939 8.2737 31.3345 8.81256 31.3345C9.35142 31.3345 9.79205 30.8939 9.79205 30.355C9.79205 29.8162 9.35142 29.3755 8.81256 29.3755Z" fill="#000"/>
<path d="M18.6048 33.2926C16.9855 33.2926 15.6672 31.9744 15.6672 30.355C15.6672 28.7357 16.9855 27.4175 18.6048 27.4175C20.2241 27.4175 21.5424 28.7357 21.5424 30.355C21.5424 31.9744 20.2241 33.2926 18.6048 33.2926ZM18.6048 29.3755C18.0659 29.3755 17.6253 29.8162 17.6253 30.355C17.6253 30.8939 18.0659 31.3345 18.6048 31.3345C19.1437 31.3345 19.5843 30.8939 19.5843 30.355C19.5834 29.8162 19.1427 29.3755 18.6048 29.3755Z" fill="#000"/>
</svg>
