<svg width="47" height="44" viewBox="0 0 47 44" fill="none" xmlns="http://www.w3.org/2000/svg">
<g clip-path="url(#clip0_72_1523)">
<path d="M31.138 4.41282C28.701 0.192495 23.3047 -1.25232 19.0844 1.18472C17.744 1.95935 16.6299 3.07245 15.8563 4.41282L1.1973 29.7996C-1.23877 34.0209 0.207977 39.4182 4.42927 41.8542C5.76964 42.6279 7.29086 43.035 8.83818 43.036H38.1542C43.0283 43.035 46.9778 39.0826 46.9768 34.2085C46.9768 32.6602 46.5687 31.14 45.7951 29.7996L31.138 4.41282ZM44.4557 37.8486C43.1685 40.1125 40.7585 41.5051 38.1542 41.4887H8.83915C4.81997 41.4877 1.56189 38.2286 1.56382 34.2085C1.56382 32.932 1.90036 31.6786 2.53864 30.5733L17.1957 5.18649C18.5302 2.87517 20.8271 1.54931 23.4972 1.54931C26.1692 1.54931 28.466 2.87517 29.7977 5.18649L44.4557 30.5742C45.7719 32.8198 45.7719 35.6021 44.4557 37.8486ZM35.8671 18.6095L28.5366 5.9147C27.4689 4.06661 25.6315 3.00572 23.4972 3.00572C21.3638 3.00572 19.5283 4.06564 18.4606 5.9147L11.1302 18.6095L3.80164 31.3015C2.73399 33.1505 2.73399 35.2704 3.80164 37.1194C4.86929 38.9685 6.70578 40.0284 8.83818 40.0284H38.1542C40.2885 40.0284 42.126 38.9685 43.1936 37.1194C44.2613 35.2704 44.2623 33.1505 43.1936 31.3015L35.8671 18.6095ZM41.8542 36.3457C41.1057 37.6822 39.686 38.5014 38.1542 38.4811H8.83915C6.48045 38.4801 4.5695 36.5682 4.57047 34.2095C4.57047 33.46 4.76775 32.724 5.14298 32.0761L12.4705 19.3842L19.801 6.68932C20.9799 4.64686 23.5919 3.94669 25.6344 5.12556C26.2833 5.50079 26.8229 6.03945 27.1982 6.68932L34.5286 19.3842L41.8552 32.0771C42.6385 33.3913 42.6385 35.0305 41.8542 36.3457ZM23.4972 13.4995C22.6152 13.5024 21.7719 13.8631 21.1607 14.4994C20.5833 15.0913 20.2749 15.8949 20.3087 16.7218L20.6791 25.1702C20.7478 26.732 21.9856 27.9554 23.4972 27.9554C24.999 27.9554 26.2379 26.7349 26.3181 25.1702L26.6856 16.7228C26.7214 15.8969 26.4148 15.0932 25.8385 14.5014C25.2263 13.8641 24.3811 13.5014 23.4972 13.4995ZM24.7718 25.0977C24.7331 25.8452 24.1857 26.409 23.4962 26.409C22.8154 26.409 22.2564 25.8355 22.2245 25.1035L21.8541 16.6551C21.8396 16.2508 21.9933 15.8582 22.2777 15.57C22.9188 14.896 23.9846 14.8698 24.6586 15.511C24.6789 15.5304 24.6992 15.5507 24.7186 15.571C25.0019 15.8582 25.1538 16.2508 25.1393 16.6541L24.7718 25.0977ZM23.4972 28.7C21.9392 28.701 20.6772 29.9659 20.6781 31.5239C20.6791 33.0819 21.944 34.3439 23.502 34.3429C25.059 34.342 26.321 33.079 26.321 31.522C26.3191 29.963 25.0551 28.701 23.4972 28.7ZM23.4972 32.7956C22.7931 32.7946 22.2245 32.2231 22.2254 31.5191C22.2264 30.815 22.798 30.2464 23.502 30.2473C24.2051 30.2483 24.7737 30.8189 24.7737 31.522C24.7727 32.226 24.2012 32.7966 23.4972 32.7956ZM0.393657 17.0371C-1.25134 10.8632 2.40905 4.52307 8.57804 2.8626C8.99002 2.74751 9.4165 2.98832 9.53061 3.40029C9.64569 3.81227 9.40489 4.23875 8.99292 4.35286C8.98808 4.35383 8.98325 4.35577 8.97744 4.35673C3.63434 5.79575 0.462319 11.2887 1.88876 16.6367C2.00094 17.0487 1.75724 17.4742 1.34526 17.5864C0.933286 17.6985 0.507772 17.4548 0.395591 17.0429C0.394624 17.04 0.394624 17.038 0.393657 17.0371ZM9.60894 6.70867C10.0219 6.59745 10.4464 6.84212 10.5567 7.25507C10.6669 7.66801 10.4232 8.09256 10.0103 8.2028C6.78895 9.07027 4.878 12.3815 5.73773 15.6048C5.84894 16.0178 5.60427 16.4423 5.19133 16.5526C4.77839 16.6638 4.35384 16.4191 4.2436 16.0062C3.1624 11.958 5.56269 7.79856 9.60894 6.70867ZM45.444 8.25406C46.9875 10.9097 47.4033 14.073 46.5987 17.0371C46.4904 17.45 46.0668 17.6976 45.6539 17.5883C45.2409 17.48 44.9934 17.0564 45.1026 16.6435C45.1036 16.6406 45.1036 16.6386 45.1046 16.6357C46.5388 11.2887 43.3667 5.79188 38.0198 4.3577C38.0188 4.3577 38.0178 4.35673 38.0169 4.35673C37.603 4.25035 37.3535 3.82871 37.4598 3.4148C37.5662 3.00089 37.9879 2.75138 38.4018 2.85776C38.4066 2.85873 38.4114 2.86066 38.4172 2.86163C41.3862 3.64883 43.916 5.59072 45.444 8.25406ZM36.4396 7.25507C36.5508 6.84212 36.9744 6.59745 37.3873 6.70867C41.4336 7.79856 43.8338 11.958 42.7536 16.0062C42.6463 16.4201 42.2237 16.6676 41.8097 16.5603C41.3958 16.4529 41.1483 16.0303 41.2556 15.6164C41.2566 15.6126 41.2575 15.6087 41.2585 15.6048C42.1182 12.3815 40.2073 9.07027 36.986 8.2028C36.574 8.09256 36.3293 7.66801 36.4396 7.25507Z" fill="#000"/>
</g>
<defs>
<clipPath id="clip0_72_1523">
<rect width="47" height="43.0359" fill="#000"/>
</clipPath>
</defs>
</svg>
