<svg width="55" height="59" viewBox="0 0 55 59" fill="none" xmlns="http://www.w3.org/2000/svg">
<path d="M25.2297 0.242027C24.6766 0.518589 24.2041 1.02562 23.9621 1.60179C23.7201 2.16644 23.7547 3.34183 24.0313 3.9641C24.2963 4.56332 25.0223 5.15101 25.6446 5.2432C26.6125 5.40453 26.6701 5.31234 24.0428 7.83597C22.7061 9.13812 21.5653 10.1983 21.5307 10.1983C21.4846 10.1868 20.701 9.818 19.7907 9.35707C18.3157 8.61957 18.0737 8.52738 17.4744 8.52738C16.9674 8.52738 16.6678 8.60804 16.2299 8.83851C15.4002 9.29945 1.43382 23.3926 1.11116 24.1071C0.834599 24.7178 0.811552 25.7664 1.05354 26.3657C1.56058 27.5526 3.01253 28.2325 4.30315 27.8868C4.82171 27.7485 5.31722 27.276 11.4477 21.1686L18.0391 14.5887L19.6639 15.4184C21.1619 16.1905 21.3233 16.2481 21.9916 16.2481C22.4526 16.2481 22.8905 16.1674 23.1901 16.0291C23.4897 15.8909 24.884 14.6233 27.0735 12.5145C28.9518 10.7053 30.542 9.21878 30.5996 9.21878C30.6457 9.21878 30.7264 9.50687 30.761 9.85257C30.8301 10.5786 31.3256 11.558 31.752 11.8577C33.1578 12.8371 35.1053 12.2955 35.8428 10.7168C36.0733 10.2213 36.0848 10.0254 36.0848 6.04984C36.0848 1.95902 36.0848 1.88988 35.8198 1.3598C35.5317 0.783628 35.0362 0.345737 34.4254 0.138317C34.1604 0.0461292 32.743 3.43323e-05 29.8737 3.43323e-05C25.875 3.43323e-05 25.6907 0.0115585 25.2297 0.242027ZM33.6303 1.84379C34.2756 2.02816 34.3102 2.30472 34.2756 6.38402L34.241 9.88714L33.9645 10.1868C33.5957 10.5786 33.1578 10.5786 32.7891 10.1868C32.524 9.91019 32.5125 9.79496 32.4549 8.10101C32.3858 6.10746 32.3397 5.99222 31.5561 5.99222C31.2219 5.99222 31.026 6.1305 30.2194 6.89105C29.7123 7.38656 27.7418 9.28792 25.852 11.0971C23.0287 13.8282 22.3604 14.4043 22.0953 14.4043C21.9225 14.4043 20.966 13.9895 19.9866 13.4825C18.742 12.8371 18.0737 12.5606 17.7856 12.5606C17.4053 12.5606 17.0135 12.9293 10.6641 19.3018C6.86136 23.1161 3.81917 26.0776 3.66936 26.1237C3.243 26.2274 2.79358 25.8241 2.74749 25.3055C2.71292 24.8676 2.74749 24.833 9.18909 18.3453C12.7498 14.75 15.9879 11.4889 16.3797 11.0856C16.9098 10.567 17.1864 10.3711 17.4053 10.3711C17.5782 10.3711 18.5807 10.8205 19.6524 11.3737C21.2426 12.1918 21.6344 12.3532 21.8994 12.284C22.1069 12.2379 23.2131 11.2584 24.884 9.64515C30.2539 4.48265 29.8045 4.94359 29.8045 4.4596C29.8045 3.68753 29.5625 3.5723 27.9608 3.5723C26.3705 3.5723 25.8289 3.4225 25.7022 2.95004C25.5869 2.45453 25.7483 2.07425 26.1516 1.9014C26.6125 1.69398 32.9389 1.65941 33.6303 1.84379Z" fill="black"/>
<path d="M41.0059 6.45315C39.7498 6.68362 38.5975 7.57092 38.0674 8.73479L37.8139 9.27639L37.7793 22.8971L37.7562 36.5178L37.3184 36.6446C37.0879 36.7022 36.7537 36.7598 36.5809 36.7598H36.2582L36.2352 27.2184L36.2006 17.6885L35.8203 16.9164C35.4055 16.0752 34.8178 15.4875 33.965 15.0727C33.481 14.8307 33.2736 14.8076 31.5336 14.8076C29.7359 14.8076 29.5977 14.8192 29.0676 15.0957C28.2725 15.499 27.535 16.2481 27.1777 17.0317L26.8666 17.6885L26.809 22.5629L26.7514 27.4373L26.0369 27.8291L25.3109 28.2324V26.4694C25.3109 24.3375 25.1842 23.8881 24.3775 23.0008C23.5478 22.0905 22.9602 21.8715 21.151 21.8024C18.2586 21.6987 16.9449 22.2633 16.1613 23.9572C15.9309 24.4643 15.9193 24.6947 15.8848 28.8662L15.8502 33.2451L14.4674 33.9711C13.2113 34.6395 12.7504 34.8008 9.14355 35.8379C6.97715 36.4602 4.98359 37.0479 4.71855 37.1401C3.53164 37.578 2.50605 38.4768 1.87226 39.6522C1.0541 41.1387 1.01953 42.4524 1.73398 45.1949C2.25254 47.1885 2.47148 47.6955 2.81718 47.7186C3.6123 47.7762 3.99258 47.5227 3.99258 46.935C3.99258 46.716 3.78515 45.702 3.52011 44.6764C3.12832 43.1207 3.05918 42.6713 3.09375 41.9914C3.18593 40.6547 3.94648 39.5369 5.19101 38.9723C5.95156 38.6266 12.7619 36.7252 12.8656 36.8405C12.9117 36.8865 14.1908 40.2168 15.6889 44.2385L18.4199 51.5559L18.3738 52.4201C18.2816 53.849 17.5557 54.9783 16.3227 55.6006C16.0346 55.7389 14.5135 56.1537 12.9232 56.5225C10.4803 57.0756 9.91562 57.1678 9.23574 57.1332C8.29082 57.0641 7.65703 56.7875 7.04629 56.1537C6.4125 55.4969 6.22812 55.0475 5.54824 52.4547C4.9375 50.15 4.75312 49.7121 4.33828 49.666C3.66992 49.5739 3.18593 49.908 3.18593 50.4496C3.18593 50.7838 4.07324 54.3215 4.40742 55.3471C4.86836 56.753 5.8248 57.8362 7.19609 58.516C8.7748 59.2881 10.4111 59.1729 15.1012 57.9514C17.21 57.4098 17.9129 57.0756 18.7771 56.2229C19.8603 55.1397 20.425 53.6301 20.3328 52.1205L20.2867 51.3946L20.7016 51.2793C20.9205 51.2217 25.2303 50.1615 30.266 48.9285C35.3018 47.684 39.6807 46.6008 40.0033 46.4971C40.856 46.2321 42.1812 45.5406 42.9879 44.953C44.0711 44.1578 52.6215 37.1055 53.0824 36.6215C53.3129 36.391 53.6471 35.9301 53.8314 35.5844C54.1541 35.0198 54.1771 34.8815 54.1771 33.8213C54.1771 32.8188 54.1426 32.5883 53.866 32.0121C53.4512 31.1133 52.7252 30.3758 51.884 29.961C50.6049 29.3502 49.441 29.3963 47.9891 30.1108L47.2055 30.491V23.335C47.2055 16.2596 47.2055 16.1559 46.9635 15.8563C46.6523 15.4645 45.9725 15.4299 45.6383 15.7987C45.4309 16.0291 45.4193 16.3748 45.3617 23.9457L45.3041 31.8508L44.4398 32.5192C42.792 33.7983 39.9227 35.7227 39.6691 35.7227C39.6346 35.7227 39.6115 29.8457 39.623 22.6551L39.6576 9.58752L40.0148 9.13811C40.6486 8.35452 40.9713 8.23928 42.4809 8.23928C43.8982 8.2508 44.2439 8.34299 44.751 8.89611C45.258 9.43772 45.3617 9.91018 45.3617 11.6387C45.3617 13.2059 45.3732 13.275 45.6498 13.5401C46.0186 13.9203 46.5486 13.9203 46.9289 13.5285L47.2285 13.2405L47.1824 11.316C47.1478 9.40315 47.1478 9.3801 46.7676 8.61955C46.3066 7.68615 45.5922 7.0178 44.6818 6.68362C43.9328 6.39553 41.9969 6.2803 41.0059 6.45315ZM33.2391 16.8127C33.7691 17.0778 34.0111 17.3428 34.2416 17.8959C34.3914 18.2647 34.4144 19.5092 34.4144 27.5987V36.875H31.6488C30.1277 36.875 28.8832 36.8289 28.8832 36.7828C28.8832 36.7367 29.4018 36.2643 30.0355 35.7457C30.6693 35.2272 31.4184 34.5012 31.6949 34.144C33.1238 32.3233 33.7922 29.719 33.1814 28.3362C32.6168 27.0686 31.3953 26.2735 30.0125 26.2735C29.5861 26.2735 29.1137 26.3196 28.9408 26.3887L28.6412 26.5039L28.6758 22.2633L28.7103 18.0227L29.0215 17.5387C29.5285 16.7781 29.9779 16.6053 31.5105 16.5938C32.5707 16.5938 32.8934 16.6399 33.2391 16.8127ZM22.626 23.9227C22.7988 24.0494 23.0639 24.3375 23.2137 24.5449C23.4557 24.9022 23.4672 25.0289 23.4672 27.0686V29.2119L21.7617 30.0992C20.8283 30.5947 19.5377 31.2862 18.8809 31.6319L17.6939 32.2656L17.7285 28.5436C17.7631 24.833 17.7631 24.833 18.0396 24.4412C18.5236 23.7613 19.0422 23.6115 20.7822 23.6461C22.1074 23.6807 22.3379 23.7153 22.626 23.9227ZM30.8191 28.3477C31.0496 28.486 31.2916 28.7856 31.4299 29.0852C31.6488 29.5807 31.6488 29.5922 31.4184 30.468C30.9805 32.1735 30.2199 33.2221 28.2955 34.7662C27.2584 35.5959 26.9588 36.1606 27.0855 37.0248C27.1893 37.6932 27.8115 38.4307 28.3992 38.6035C28.9639 38.7533 35.7512 38.7533 36.892 38.592C38.0328 38.4422 39.093 38.108 40.1301 37.601C40.5795 37.3705 42.7574 35.9301 44.9584 34.386C48.6459 31.8047 49.4064 31.3438 50.0172 31.3438C51.1926 31.3438 52.391 32.5422 52.391 33.7176C52.391 34.1901 52.0914 34.9276 51.7342 35.3194C51.5268 35.5613 42.9879 42.6022 41.9738 43.3742C40.9137 44.1809 39.7728 44.6533 37.5834 45.2065C32.7666 46.4395 19.8488 49.5508 19.7451 49.5162C19.6529 49.4932 14.5596 36.0453 14.6287 35.9992C14.6518 35.9877 28.1572 28.8317 28.9984 28.3938C29.6322 28.0481 30.3121 28.0365 30.8191 28.3477Z" fill="black"/>
<path d="M10.527 48.4446C8.5334 49.1591 7.63457 51.4522 8.59102 53.3421C9.65118 55.4048 12.6242 55.7735 14.1799 54.0335C15.7816 52.2473 15.1133 49.3434 12.9123 48.5137C12.1863 48.2487 11.1723 48.2141 10.527 48.4446ZM12.3592 50.3114C13.6959 50.9452 13.3617 53.0309 11.8752 53.3075C11.3566 53.3997 10.5731 53.0194 10.285 52.5239C9.47832 51.1641 10.9072 49.6315 12.3592 50.3114Z" fill="black"/>
</svg>
