<svg width="55" height="41" viewBox="0 0 55 41" fill="none" xmlns="http://www.w3.org/2000/svg">
<path d="M2.72461 0.910114C1.8834 1.1982 1.19199 1.92418 0.938477 2.78843C0.777148 3.33004 0.765625 4.04449 0.788672 7.73199L0.823242 12.0302L1.18047 12.664L1.5377 13.2978L1.18047 13.9316L0.823242 14.5654L0.788672 18.7714C0.742578 23.2886 0.800195 23.8648 1.2957 24.5908L1.57227 25.0056L1.33027 25.3513C0.811719 26.0888 0.765625 26.5037 0.765625 30.8711C0.765625 35.3998 0.811719 35.757 1.45703 36.5406C1.64141 36.7711 2.06777 37.0937 2.40195 37.255L3.00117 37.5546H18.5809H34.1721L34.9211 38.0732C38.4934 40.5738 43.218 40.9771 47.159 39.1218C48.5994 38.4304 49.5213 37.7966 50.616 36.7019C52.6672 34.6507 53.808 32.2308 54.1307 29.2693C54.3727 27.0683 53.9924 24.8904 53.0359 22.8507C52.3561 21.4103 51.7107 20.5 50.616 19.3937C49.5559 18.322 48.3805 17.5154 46.9516 16.8701L45.9605 16.4322L45.9145 15.4181C45.8684 14.5423 45.8223 14.3349 45.5227 13.8509L45.177 13.2978L45.5342 12.7332L45.8799 12.1685L45.9145 7.72047C45.9375 4.55152 45.9145 3.13414 45.8107 2.77691C45.6494 2.17769 44.9234 1.33648 44.2781 0.99078L43.8057 0.737263L23.582 0.714214C3.98066 0.69117 3.33535 0.69117 2.72461 0.910114ZM43.6674 2.76539C44.1859 3.16871 44.232 3.5605 44.1859 7.70894C44.1514 11.9496 44.1514 11.9265 43.4369 12.2607C43.1143 12.4105 40.7174 12.4336 23.1787 12.4105L3.27773 12.3759L2.94355 11.9957L2.60938 11.6269V7.40933V3.19175L2.94355 2.85757L3.27773 2.5234H23.3285H43.3678L43.6674 2.76539ZM43.4484 14.3349C43.9094 14.5539 44.0822 14.8304 44.1744 15.4988L44.2436 16.0289L43.9094 15.9712C41.7314 15.5334 38.9313 15.9482 36.6611 17.0314C34.0453 18.2759 32.0518 20.3041 30.8303 22.966L30.3232 24.0722H16.8062H3.27773L2.94355 23.738L2.60938 23.4039V19.1978C2.60938 15.0839 2.60938 14.9918 2.85137 14.6921C2.98965 14.5193 3.20859 14.3234 3.34687 14.2773C3.47363 14.2197 12.4734 14.1736 23.3285 14.1736C40.6598 14.1621 43.1258 14.1851 43.4484 14.3349ZM44.8428 18.0109C48.6801 19.1632 51.5725 22.3898 52.2639 26.3078C52.333 26.688 52.3906 27.4716 52.3906 28.0478C52.3906 33.1296 48.7377 37.4625 43.702 38.3498C42.8262 38.5111 41.0977 38.5111 40.2219 38.3498C36.2232 37.6468 33.0197 34.7314 31.8789 30.7443C31.5217 29.5228 31.441 27.414 31.7061 26.1349C32.5473 21.9404 35.6932 18.7369 39.8877 17.8035C41.1553 17.5154 43.5176 17.6191 44.8428 18.0109ZM29.8738 26.1119C29.724 26.6535 29.6779 28.2783 29.7932 29.2578C30.0352 31.4127 30.7957 33.4869 31.9365 35.0886L32.4666 35.8261H17.9932C4.68359 35.8261 3.48516 35.8146 3.18555 35.6302C3.00117 35.5265 2.80527 35.3191 2.73613 35.1693C2.56328 34.8005 2.56328 26.7918 2.72461 26.4921C3.03574 25.9045 2.49414 25.9275 16.7025 25.916C29.2516 25.916 29.9314 25.9275 29.8738 26.1119Z" fill="black"/>
<path d="M24.1595 4.70127C22.0968 5.36963 21.4285 7.73194 22.8459 9.31065C23.5027 10.0366 24.1134 10.2901 25.1275 10.221C26.5795 10.1288 27.6166 9.10323 27.7087 7.65127C27.7318 7.24795 27.6972 6.7294 27.6166 6.49893C27.4322 5.9458 26.7753 5.21983 26.1877 4.92022C25.6921 4.6667 24.6205 4.55147 24.1595 4.70127ZM25.5769 6.67178C26.1416 7.1212 26.0609 8.0085 25.4156 8.34268C24.9316 8.59619 24.6435 8.5501 24.2632 8.18135C23.3298 7.24795 24.5398 5.85362 25.5769 6.67178Z" fill="black"/>
<path d="M30.7727 4.75898C29.5973 5.12773 28.8828 6.15332 28.8828 7.46699C28.8828 9.13789 30.0236 10.2441 31.7521 10.2441C34.1951 10.2441 35.4166 7.20195 33.665 5.46191C32.9045 4.68984 31.8213 4.43633 30.7727 4.75898ZM32.3859 6.74102C33.158 7.52461 32.2938 8.81523 31.2797 8.38887C30.9225 8.23906 30.6113 7.7666 30.6113 7.36328C30.6113 7.225 30.7611 6.95996 30.9455 6.77559C31.3949 6.3377 31.9596 6.31465 32.3859 6.74102Z" fill="black"/>
<path d="M37.6425 4.70135C35.5567 5.38123 34.8769 7.91638 36.3864 9.42596C37.0087 10.0482 37.6655 10.2787 38.6104 10.2211C40.4196 10.1058 41.595 8.41189 41.111 6.60271C40.9497 6.01502 40.2929 5.23142 39.6821 4.93181C39.1751 4.66678 38.1034 4.55154 37.6425 4.70135ZM39.0714 6.6949C39.2442 6.84471 39.4056 7.13279 39.4401 7.32869C39.5093 7.65135 39.4517 7.76658 39.106 8.11228C38.622 8.59627 38.2532 8.63084 37.7692 8.21599C37.4811 7.974 37.412 7.83572 37.412 7.46697C37.412 6.55662 38.403 6.1072 39.0714 6.6949Z" fill="black"/>
<path d="M5.78027 5.34668C5.61895 5.49648 5.49219 5.73848 5.49219 5.86523C5.49219 6.1418 5.69961 6.56816 5.88398 6.69492C5.95312 6.74102 9.00684 6.78711 12.6713 6.78711C19.1705 6.78711 19.3203 6.78711 19.5508 6.55664C19.8734 6.23398 19.8504 5.62324 19.5162 5.31211L19.2512 5.05859H12.6482H6.05684L5.78027 5.34668Z" fill="black"/>
<path d="M5.77685 8.34277C5.41962 8.68848 5.39658 9.23008 5.71923 9.55273C5.9497 9.7832 6.09951 9.7832 12.6794 9.7832H19.4206L19.5935 9.52969C19.8815 9.12637 19.8239 8.57324 19.4782 8.29668C19.1786 8.05469 19.0749 8.05469 12.6102 8.05469H6.05341L5.77685 8.34277Z" fill="black"/>
<path d="M23.7529 16.559C23.4879 16.6857 23.0731 17.0199 22.808 17.3195C21.5865 18.7023 21.9899 20.8111 23.6377 21.6869C24.283 22.0326 25.5276 22.0326 26.1844 21.6869C26.7836 21.3642 27.4289 20.6498 27.6133 20.0967C28.0051 18.8982 27.4865 17.4232 26.4149 16.7549C25.6889 16.3054 24.4789 16.2248 23.7529 16.559ZM25.6197 18.4834C25.9654 18.8291 26.0231 18.9443 25.9539 19.267C25.7926 20.0967 24.7785 20.4424 24.2139 19.8662C23.7184 19.3822 23.9028 18.4488 24.5481 18.1953C24.986 18.0109 25.2164 18.0801 25.6197 18.4834Z" fill="black"/>
<path d="M5.7225 17.066C5.41136 17.4117 5.42289 17.9072 5.78011 18.2529L6.05668 18.541H12.6135C19.0782 18.541 19.1819 18.541 19.4815 18.299C19.8618 17.9994 19.8963 17.3887 19.5506 17.043C19.3202 16.8125 19.1703 16.8125 12.6366 16.8125H5.96449L5.7225 17.066Z" fill="black"/>
<path d="M5.73216 20.1082C5.40951 20.5115 5.43255 20.9033 5.77826 21.249L6.05482 21.5371H12.6693H19.2837L19.5257 21.2721C19.8484 20.9264 19.8599 20.3502 19.5488 20.0391C19.3183 19.8086 19.1685 19.8086 12.6462 19.8086H5.96263L5.73216 20.1082Z" fill="black"/>
<path d="M40.6372 21.0762C39.3696 21.2951 38.1597 21.8943 37.1917 22.7586L36.604 23.2887V22.8738C36.604 22.3207 36.2813 21.998 35.7052 21.998C35.4056 21.998 35.1866 22.0787 35.0483 22.2285C34.8409 22.459 34.8409 22.5627 34.9792 24.2797C35.1405 26.3424 35.2557 26.642 35.9356 26.6996C36.4542 26.7457 39.4618 25.9852 39.6923 25.7547C39.9458 25.5012 39.9227 24.8328 39.6577 24.5217C39.4503 24.3143 39.3466 24.2797 38.7589 24.3373C38.102 24.3949 38.0905 24.3949 38.2864 24.176C39.0009 23.3809 40.5335 22.8047 41.9163 22.8047C44.3708 22.8047 46.4104 24.4064 47.0327 26.8033C47.2171 27.5293 47.5282 27.875 47.9776 27.875C48.7497 27.875 49.0147 27.3564 48.7612 26.3309C47.8739 22.7701 44.2786 20.4424 40.6372 21.0762Z" fill="black"/>
<path d="M35.3599 28.5894C34.8068 28.8659 34.8759 29.7878 35.5789 31.2052C36.5008 33.095 38.3445 34.5354 40.3726 34.9618C42.5736 35.4343 44.9359 34.8351 46.5492 33.4062C46.8949 33.0835 47.2175 32.83 47.2521 32.83C47.2867 32.83 47.3213 32.9913 47.3213 33.1757C47.3213 33.6136 47.7707 34.0976 48.1625 34.0976C48.3123 34.0976 48.5773 33.9938 48.7502 33.8556C49.1074 33.5675 49.1304 33.2679 48.8654 31.4817C48.6004 29.5919 48.439 29.2577 47.8168 29.2577C47.448 29.2577 44.3828 30.2026 44.1869 30.387C43.8988 30.629 43.9103 31.378 44.2099 31.6776C44.4634 31.9312 44.9474 31.9772 45.4084 31.7929C45.8693 31.62 45.7656 31.7468 45.005 32.3114C42.1011 34.4548 38.0103 33.072 36.8349 29.5573C36.5008 28.5317 36.0629 28.2552 35.3599 28.5894Z" fill="black"/>
<path d="M24.0658 28.1515C21.692 28.9235 21.3923 32.2423 23.6164 33.3485C24.2962 33.6827 25.4025 33.7403 26.0363 33.4868C27.3384 32.9337 28.0183 31.4011 27.615 29.9376C27.4652 29.4075 26.7853 28.6239 26.2322 28.3358C25.633 28.0362 24.688 27.9556 24.0658 28.1515ZM25.5754 30.0644C26.14 30.5138 26.0593 31.4011 25.414 31.7353C24.9531 31.9772 24.688 31.9542 24.2847 31.6085C23.2822 30.7673 24.5382 29.2462 25.5754 30.0644Z" fill="black"/>
<path d="M5.77767 28.7392C5.22455 29.2924 5.51263 30.0875 6.31927 30.2373C6.5267 30.2719 9.54584 30.2949 13.0144 30.2719L19.3408 30.2373L19.5597 29.9607C19.8824 29.5574 19.8478 28.9812 19.479 28.6931C19.1794 28.4511 19.0757 28.4511 12.6111 28.4511H6.05424L5.77767 28.7392Z" fill="black"/>
<path d="M5.77843 31.7353C5.25987 32.2423 5.50186 33.0605 6.20479 33.2333C6.3546 33.2679 9.36222 33.2794 12.8999 33.2679L19.3415 33.2333L19.5605 32.9568C19.8831 32.5534 19.8485 31.9773 19.4798 31.6892C19.1802 31.4472 19.0765 31.4472 12.6118 31.4472H6.05499L5.77843 31.7353Z" fill="black"/>
</svg>
