<svg width="49" height="53" viewBox="0 0 49 53" fill="none" xmlns="http://www.w3.org/2000/svg">
<path d="M6.84714 0.86034C6.19031 1.06776 5.41824 1.7246 5.1071 2.32381C4.03543 4.42108 5.94832 6.89862 8.31062 6.46073L8.86375 6.35702L9.43992 7.00233L10.0276 7.64764L9.52058 9.08808C8.59871 11.7385 7.97644 14.5271 7.7114 17.1891L7.63074 17.9726H6.02898H4.42722V16.7857C4.42722 15.6334 4.43875 15.5873 4.70378 15.4605C5.16472 15.2531 5.81003 14.6193 6.05203 14.1353C6.61667 13.0291 6.40925 11.5656 5.545 10.6783C4.12761 9.22636 1.75378 9.61815 0.90105 11.4504C0.555347 12.1994 0.5323 13.3172 0.843433 14.0086C1.09695 14.5617 1.76531 15.2416 2.23777 15.4375L2.58347 15.5758V17.3965C2.58347 19.0559 2.60652 19.2402 2.82546 19.5168L3.05593 19.8164H5.33757H7.61921L7.69988 21.3951C7.74597 22.2709 7.84968 23.4002 7.94187 23.9072C8.03406 24.4142 8.11472 24.8637 8.11472 24.9098C8.11472 24.9674 7.86121 25.0019 7.55007 25.0019C7.06609 25.0019 6.9739 24.9674 6.91628 24.7369C6.81257 24.3105 6.19031 23.6537 5.62566 23.3887C4.96882 23.066 3.78191 23.043 3.0905 23.331C2.07644 23.7574 1.39656 24.7484 1.38503 25.8662C1.37351 26.8342 1.67312 27.5371 2.353 28.1478C3.26336 28.966 4.43875 29.1504 5.53347 28.6433C6.13269 28.3668 6.80105 27.6754 6.91628 27.2144C6.96238 27.0531 7.07761 26.9609 7.25046 26.9609C7.38875 26.9609 7.73445 26.9264 8.02253 26.8918L8.54109 26.8226L9.07117 28.3898C9.37078 29.2426 9.84324 30.441 10.1198 31.0517L10.6384 32.1465H8.33367H6.01746L5.68328 32.4807L5.3491 32.8148V34.6586C5.3491 36.4793 5.3491 36.5023 5.08406 36.5715C4.66921 36.6752 3.89714 37.4012 3.6321 37.9428C3.34402 38.5535 3.30945 39.6713 3.56296 40.2935C4.24285 41.9068 6.07507 42.5752 7.67683 41.7916C9.12878 41.0771 9.69343 39.3832 8.96746 37.9312C8.65632 37.309 8.01101 36.6752 7.57312 36.5715C7.3196 36.5023 7.30808 36.4447 7.30808 35.3039V34.1055H9.5321H11.7677L12.3553 34.9928C13.1966 36.2834 14.0723 37.3551 15.2938 38.5881C17.4026 40.7314 18.8661 41.9068 21.8161 43.8428L23.6714 45.0527V45.9055C23.6714 46.6775 23.6483 46.7582 23.3948 46.8734C22.9339 47.0808 22.2885 47.7146 22.035 48.1986C21.7469 48.7748 21.6432 49.7889 21.8161 50.4226C22.254 52.0705 24.1553 52.9808 25.7225 52.3125C26.4946 51.9783 27.186 51.2062 27.4165 50.4342C27.6239 49.7197 27.6239 49.6391 27.4395 48.8785C27.2321 48.0949 26.7942 47.4842 26.1489 47.0808L25.6303 46.7467V45.8709V44.9951L27.6239 43.693C28.7071 42.9785 30.0784 42.0221 30.643 41.5726C32.7979 39.8557 35.6788 36.7098 36.9809 34.6586L37.3266 34.117L39.6083 34.1055H41.8784V35.3039C41.8784 36.4332 41.8669 36.5139 41.6364 36.583C41.2677 36.6982 40.5071 37.4357 40.2651 37.9082C39.7235 38.9683 39.9194 40.2935 40.7376 41.1924C41.6479 42.1719 43.146 42.4023 44.3098 41.7455C45.0704 41.3191 45.5198 40.7084 45.7042 39.8557C45.9692 38.5766 45.3815 37.2168 44.3329 36.7098L43.8489 36.4678L43.8374 34.6471V32.8148L43.5032 32.4807L43.169 32.1465H40.8528C39.5737 32.1465 38.5366 32.1234 38.5366 32.0889C38.5366 32.0543 38.6979 31.7201 38.8823 31.3398C39.3317 30.441 39.6198 29.7266 40.1614 28.1709L40.5878 26.9033L41.3368 26.8687C42.0743 26.8342 42.0743 26.8342 42.2356 27.2144C42.8233 28.6433 44.644 29.3232 46.0844 28.6433C48.4122 27.5601 48.4468 24.3682 46.1536 23.3541C45.5198 23.0775 44.3098 23.043 43.7106 23.2965C43.169 23.5385 42.5467 24.0801 42.2817 24.5871C42.0743 24.9674 42.0051 25.0019 41.5673 25.0019C41.0026 25.0019 41.0141 25.0826 41.2446 23.6767C41.3483 23.1006 41.452 22.0058 41.4981 21.2223L41.5673 19.8164H43.8604C46.8911 19.8164 46.7182 19.9662 46.7182 17.408V15.5758L47.2368 15.2762C48.2739 14.6654 48.8731 13.248 48.585 12.1187C48.078 10.2058 46.0384 9.2955 44.3098 10.1943C43.7452 10.4824 43.169 11.243 42.9616 11.9459C42.5928 13.225 43.0884 14.5387 44.2061 15.2646L44.7477 15.6103V16.7857L44.7593 17.9726H43.1575H41.5557L41.4751 17.1891C41.3368 15.7832 40.9565 13.3172 40.726 12.3492C40.5993 11.8191 40.2075 10.5285 39.8503 9.4914L39.205 7.60155L39.7581 6.99081L40.2997 6.39159L41.187 6.42616C41.913 6.46073 42.1895 6.42616 42.6389 6.21874C43.8028 5.71171 44.3444 4.88202 44.3444 3.62597C44.3444 2.73866 44.2061 2.35839 43.5839 1.66698C42.2471 0.145885 39.6659 0.514637 38.8132 2.34686C38.502 3.02674 38.4559 3.94862 38.7094 4.64003L38.8593 5.07792L38.1448 5.90761C37.511 6.63358 37.1999 6.86405 35.7594 7.69374C33.1091 9.20331 31.7954 9.67577 30.2397 9.67577C29.0759 9.67577 28.2346 9.4453 26.8173 8.73085L25.6303 8.14315V7.19823C25.6303 6.25331 25.6303 6.24179 25.9645 6.1035C26.8634 5.73476 27.5087 4.67459 27.5202 3.56835C27.5202 2.34686 26.8518 1.28671 25.7917 0.848816C25.1348 0.572254 23.9249 0.641392 23.2335 0.987095C21.5856 1.80526 21.1823 4.06386 22.4268 5.46972C22.6688 5.74628 23.0606 6.04589 23.2796 6.12655L23.6829 6.26483L23.6483 7.18671L23.6137 8.10858L22.254 8.67323C19.8686 9.65273 18.6471 9.84862 17.2759 9.50292C15.628 9.07655 12.1594 7.04843 11.0071 5.84999L10.2811 5.07792L10.4655 4.60546C10.6844 4.04081 10.7075 3.0037 10.5001 2.49667C9.9239 1.1369 8.28757 0.399403 6.84714 0.86034ZM25.2962 2.86542C25.953 3.53378 25.5612 4.49022 24.6163 4.49022C23.8788 4.49022 23.4409 3.84491 23.7175 3.16503C24.0171 2.45057 24.743 2.31229 25.2962 2.86542ZM8.50652 3.0037C8.85222 3.41854 8.86375 3.45311 8.6448 3.97167C8.34519 4.68612 7.61921 4.8244 7.06609 4.27127C6.60515 3.81034 6.61667 3.33788 7.08914 2.94608C7.59617 2.51971 8.12625 2.54276 8.50652 3.0037ZM42.1319 2.9576C42.5813 3.3955 42.5698 3.91405 42.0973 4.30585C41.6134 4.70917 41.2446 4.68612 40.7721 4.21366C40.2882 3.72968 40.2766 3.41854 40.7145 2.98065C41.1639 2.54276 41.6825 2.53124 42.1319 2.9576ZM12.8854 9.54902C15.6856 11.2084 16.838 11.5771 18.8315 11.485C20.318 11.4273 21.2169 11.1853 23.3487 10.298L24.5702 9.77948L25.9991 10.4709C27.8544 11.3812 28.5688 11.5541 30.2397 11.5541C31.2192 11.5541 31.7954 11.485 32.4868 11.3006C33.4317 11.0471 35.3561 10.1713 36.7505 9.35312C37.3266 9.01894 37.5802 8.92675 37.6378 9.01894C37.8337 9.31855 38.7901 12.4184 38.9975 13.4094C39.47 15.6795 39.6198 17.1775 39.6198 19.5283C39.6198 22.1672 39.4469 23.6076 38.8247 26.016C37.4303 31.3629 34.1346 36.3064 29.5137 39.9939C27.9581 41.2385 24.7315 43.3588 24.5126 43.2781C24.1438 43.1283 20.6637 40.7545 19.6958 39.9939C14.5794 35.9146 11.4911 31.0748 10.0968 24.9443C9.65886 23.0545 9.56668 22.1096 9.5782 19.5859C9.5782 16.9355 9.71648 15.6219 10.2581 13.3633C10.5462 12.1303 11.5718 8.86913 11.6755 8.86913C11.6985 8.86913 12.2516 9.18026 12.8854 9.54902ZM3.85105 11.8076C4.54246 12.1648 4.65769 13.0406 4.07 13.5246C3.6321 13.8933 3.22878 13.9049 2.87156 13.5476C2.32996 13.006 2.41062 12.1533 3.03289 11.8076C3.41316 11.6002 3.44773 11.6002 3.85105 11.8076ZM46.361 12.0496C46.6376 12.2801 46.7182 12.4414 46.7182 12.7525C46.7182 13.248 46.1997 13.8242 45.7387 13.8242C45.5544 13.8242 45.3009 13.6859 45.0934 13.49C44.6555 13.0406 44.6325 12.476 45.0589 12.0496C45.4507 11.6693 45.9001 11.6578 46.361 12.0496ZM4.94578 25.29C5.27996 25.6127 5.32605 26.2004 5.04949 26.5922C4.48484 27.3988 3.27488 26.9379 3.27488 25.9238C3.27488 25.1057 4.35808 24.6908 4.94578 25.29ZM45.4391 25.1748C46.2112 25.5666 46.0384 26.6728 45.1626 26.9609C44.7016 27.1107 44.4481 27.007 44.0794 26.5461C43.7452 26.1197 43.7798 25.7394 44.1716 25.3361C44.5518 24.9674 44.9436 24.9098 45.4391 25.1748ZM43.5839 38.5189C44.1946 39.0721 43.7221 40.2129 42.8809 40.2129C41.8092 40.2129 41.4981 38.7264 42.4776 38.3115C42.904 38.1387 43.2266 38.1963 43.5839 38.5189ZM7.08914 38.5881C7.46941 38.9683 7.49246 39.1642 7.25046 39.6367C7.04304 40.04 6.75496 40.2129 6.27097 40.2129C5.81003 40.2129 5.23386 39.6713 5.23386 39.2334C5.23386 38.7724 5.81003 38.2539 6.32859 38.2539C6.63972 38.2539 6.83562 38.3461 7.08914 38.5881ZM25.2962 48.8439C25.8723 49.4316 25.6649 50.2844 24.8698 50.584C24.3282 50.7914 23.6598 50.2959 23.6483 49.6736C23.6137 48.6596 24.6048 48.1641 25.2962 48.8439Z" fill="black"/>
<path d="M12.4022 11.9114C12.1257 12.2686 11.6302 14.3313 11.3997 16.0483C11.2038 17.6155 11.1692 20.9112 11.3421 22.3516C12.2409 29.7496 16.1819 35.8801 22.9347 40.3973C24.6056 41.5036 24.6517 41.5036 26.2304 40.4664C29.5722 38.2539 32.9024 34.8776 34.6079 31.9391C36.8896 28.0096 37.9612 24.0225 37.9612 19.4938C37.9612 16.9356 37.5003 13.6629 36.9587 12.2916C36.636 11.508 36.0483 11.4274 34.8499 12.0381C34.412 12.2571 33.5938 12.5797 33.0407 12.7526C32.1304 13.0291 31.8423 13.0637 30.1829 13.0637C28.1087 13.0752 27.3136 12.9139 25.6542 12.1534C25.1817 11.9344 24.7093 11.75 24.6171 11.75C24.5249 11.75 24.1216 11.8998 23.7298 12.0842C21.9667 12.9254 20.63 13.1905 18.6134 13.0983C16.9655 13.0291 15.6864 12.718 14.3382 12.0381C13.3472 11.5426 12.7364 11.4965 12.4022 11.9114ZM25.4583 14.1584C28.3161 15.3108 31.704 15.3569 34.5042 14.2737C35.1265 14.0317 35.38 13.9856 35.4376 14.0778C35.4837 14.1584 35.6105 14.6539 35.7026 15.2071C36.3134 18.5489 36.1866 22.0981 35.3569 25.2786C34.0317 30.3143 31.0817 34.4858 26.3341 38.035C24.594 39.3371 24.7554 39.2911 23.8911 38.7034C20.895 36.6983 18.2792 34.094 16.4931 31.3399C13.497 26.719 12.3907 20.6 13.5085 14.9651C13.7274 13.8588 13.6583 13.8934 14.8683 14.3313C16.3317 14.8614 17.2651 15.0112 19.0628 15.0112C20.9642 15.0112 22.0013 14.8383 23.5569 14.2276C24.0985 14.0202 24.5595 13.8473 24.594 13.8358C24.6286 13.8358 25.0204 13.9741 25.4583 14.1584Z" fill="black"/>
<path d="M30.7017 17.4542C30.4366 17.5694 28.8925 19.0559 26.2882 21.6833L22.2896 25.751L21.1026 24.5295C20.2153 23.5961 19.8005 23.262 19.3857 23.1006C18.2103 22.6627 16.862 23.1583 16.3089 24.253C15.9401 24.9559 15.9171 25.8893 16.2513 26.5231C16.597 27.1799 20.6532 31.3399 21.1948 31.5819C21.7941 31.8584 22.6814 31.8584 23.2691 31.5819C23.9144 31.2823 33.8476 21.303 34.1011 20.7153C34.5851 19.5284 34.055 18.0534 32.9603 17.5233C32.3726 17.2352 31.3009 17.2122 30.7017 17.4542ZM32.1997 19.3555C32.3265 19.4823 32.4302 19.6436 32.4302 19.7127C32.4302 19.8625 22.8196 29.6114 22.4739 29.7958C22.3126 29.8879 22.1743 29.8995 22.013 29.8188C21.6212 29.6229 17.9683 25.728 17.9337 25.4629C17.8876 25.1633 18.0605 24.9329 18.4062 24.8407C18.6136 24.7831 18.9132 25.0366 20.2153 26.3848C21.7134 27.929 21.8056 27.9981 22.2319 27.9981C22.6814 27.9981 22.7851 27.9059 27.1294 23.5616C29.5954 21.0956 31.6581 19.125 31.7618 19.125C31.8771 19.125 32.073 19.2288 32.1997 19.3555Z" fill="black"/>
</svg>
