<svg width="49" height="47" viewBox="0 0 49 47" fill="none" xmlns="http://www.w3.org/2000/svg">
<path fill-rule="evenodd" clip-rule="evenodd" d="M44.7556 37.2918H45.7889C46.4133 37.2918 47.0113 37.0436 47.4523 36.6035C47.8932 36.1625 48.1405 35.5645 48.1405 34.9411V2.3516C48.1405 1.7282 47.8923 1.1302 47.4523 0.689213C47.0122 0.247289 46.4142 0 45.7899 0C38.6364 0 9.50418 0 2.3516 0C1.72726 0 1.12926 0.247289 0.688273 0.688273C0.24823 1.12926 0 1.72726 0 2.3516V34.9402C0 35.5636 0.24823 36.1616 0.688273 36.6026C1.12926 37.0436 1.72726 37.2908 2.35066 37.2908H21.7398C22.1592 37.2908 22.4996 36.9505 22.4996 36.5311C22.4996 36.1118 22.1592 35.7714 21.7398 35.7714H2.3516C2.13158 35.7714 1.92002 35.6839 1.76393 35.5279C1.60879 35.3718 1.52041 35.1602 1.52041 34.9402V2.3516C1.52041 2.13158 1.60785 1.92002 1.76393 1.76393C1.92002 1.60785 2.13158 1.52041 2.3516 1.52041H45.7899C46.0108 1.52041 46.2224 1.60785 46.3785 1.76393C46.5336 1.92002 46.622 2.13158 46.622 2.3516V34.9402C46.622 35.1602 46.5346 35.3718 46.3785 35.5279C46.2224 35.6839 46.0108 35.7714 45.7899 35.7714H44.7565C44.3372 35.7714 43.9968 36.1118 43.9968 36.5311C43.9959 36.9514 44.3362 37.2918 44.7556 37.2918Z" fill="#000"/>
<path fill-rule="evenodd" clip-rule="evenodd" d="M3.94357 7.94793H47.3819C47.8012 7.94793 48.1416 7.60756 48.1416 7.1882C48.1416 6.76884 47.8012 6.42847 47.3819 6.42847H3.94357C3.52421 6.42847 3.18384 6.76884 3.18384 7.1882C3.1829 7.60756 3.52421 7.94793 3.94357 7.94793Z" fill="#000"/>
<path fill-rule="evenodd" clip-rule="evenodd" d="M21.9879 31.0005V27.7557C21.9879 26.4571 20.9349 25.4041 19.6363 25.4041C16.6604 25.4041 10.2835 25.4041 7.30668 25.4041C6.00817 25.4041 4.95508 26.4571 4.95508 27.7557V31.0005C4.95508 32.299 6.00817 33.3521 7.30668 33.3521H19.6363C20.9358 33.3521 21.9879 32.299 21.9879 31.0005ZM20.4675 27.7557V31.0005C20.4675 31.4603 20.0952 31.8317 19.6354 31.8317C16.6595 31.8317 10.2826 31.8317 7.30574 31.8317C6.84689 31.8317 6.47454 31.4603 6.47454 31.0005V27.7557C6.47454 27.2968 6.84689 26.9245 7.30574 26.9245H19.6354C20.0952 26.9245 20.4675 27.2968 20.4675 27.7557Z" fill="#000"/>
<path fill-rule="evenodd" clip-rule="evenodd" d="M34.6479 23.7418H42.028C42.6514 23.7418 43.2494 23.4935 43.6913 23.0525C44.1323 22.6116 44.3805 22.0136 44.3805 21.3902C44.3805 19.2755 44.3805 15.5615 44.3805 13.4468C44.3805 12.8234 44.1323 12.2254 43.6913 11.7835C43.2503 11.3425 42.6523 11.0952 42.028 11.0952C39.0521 11.0952 32.6752 11.0952 29.6983 11.0952C29.0749 11.0952 28.4769 11.3434 28.0359 11.7835C27.5949 12.2245 27.3477 12.8225 27.3477 13.4468V21.3902C27.3477 22.0136 27.5949 22.6116 28.0359 23.0525C28.4769 23.4935 29.0749 23.7418 29.6983 23.7418H31.6663C32.0856 23.7418 32.426 23.4014 32.426 22.982C32.426 22.5627 32.0856 22.2223 31.6663 22.2223H29.6983C29.4783 22.2223 29.2667 22.1348 29.1107 21.9788C28.9546 21.8227 28.8671 21.6111 28.8671 21.3911C28.8671 19.2764 28.8671 15.5624 28.8671 13.4478C28.8671 13.2277 28.9546 13.0162 29.1107 12.8601C29.2667 12.7049 29.4783 12.6166 29.6983 12.6166H42.028C42.248 12.6166 42.4596 12.704 42.6157 12.8601C42.7717 13.0162 42.8592 13.2277 42.8592 13.4478V21.3911C42.8592 21.6111 42.7717 21.8227 42.6157 21.9788C42.4596 22.1348 42.248 22.2223 42.028 22.2223H34.6479C34.2285 22.2223 33.8881 22.5627 33.8881 22.982C33.8872 23.4014 34.2285 23.7418 34.6479 23.7418Z" fill="#000"/>
<path fill-rule="evenodd" clip-rule="evenodd" d="M44.2141 3.21387H42.5827C42.1634 3.21387 41.823 3.55424 41.823 3.9736C41.823 4.39296 42.1634 4.73333 42.5827 4.73333H44.2141C44.6334 4.73333 44.9738 4.39296 44.9738 3.9736C44.9738 3.55424 44.6325 3.21387 44.2141 3.21387Z" fill="#000"/>
<path fill-rule="evenodd" clip-rule="evenodd" d="M38.9194 3.21387H37.2881C36.8687 3.21387 36.5283 3.55424 36.5283 3.9736C36.5283 4.39296 36.8687 4.73333 37.2881 4.73333H38.9194C39.3388 4.73333 39.6791 4.39296 39.6791 3.9736C39.6791 3.55424 39.3388 3.21387 38.9194 3.21387Z" fill="#000"/>
<path fill-rule="evenodd" clip-rule="evenodd" d="M33.6247 3.21387H31.9934C31.574 3.21387 31.2336 3.55424 31.2336 3.9736C31.2336 4.39296 31.574 4.73333 31.9934 4.73333H33.6247C34.0441 4.73333 34.3845 4.39296 34.3845 3.9736C34.3845 3.55424 34.0441 3.21387 33.6247 3.21387Z" fill="#000"/>
<path fill-rule="evenodd" clip-rule="evenodd" d="M37.0783 31.8044C36.9223 31.6483 36.8348 31.4368 36.8348 31.2158C36.8348 30.9958 36.9223 30.7842 37.0783 30.6282L38.2875 29.419C38.9598 28.7467 39.161 27.735 38.7971 26.8558C38.4333 25.9776 37.5757 25.4041 36.6251 25.4041C33.3728 25.4041 28.8745 25.4041 26.5145 25.4041C25.8911 25.4041 25.2931 25.6513 24.8521 26.0923C24.4111 26.5333 24.1638 27.1313 24.1638 27.7547V37.8654C24.1638 38.816 24.7364 39.6744 25.6156 40.0374C26.4947 40.4013 27.5065 40.2 28.1787 39.5277L29.3879 38.3186C29.544 38.1625 29.7556 38.075 29.9756 38.075C30.1965 38.075 30.4081 38.1625 30.5642 38.3186L38.5555 46.3099C39.4741 47.2285 40.9626 47.2285 41.8812 46.3099C42.8149 45.3752 44.1369 44.0542 45.0715 43.1196C45.9902 42.2009 45.9902 40.7125 45.0715 39.7938L37.0783 31.8044ZM36.0036 32.8791L43.9949 40.8704C44.3193 41.1948 44.3193 41.7214 43.9949 42.0458C43.0603 42.9795 41.7392 44.3015 40.8055 45.2351C40.4802 45.5595 39.9546 45.5595 39.6302 45.2351L31.6389 37.2438C31.1979 36.8029 30.5999 36.5546 29.9756 36.5546C29.3522 36.5546 28.7542 36.8029 28.3132 37.2438L27.104 38.453C26.8661 38.6909 26.5088 38.7614 26.1976 38.6326C25.8864 38.5038 25.6852 38.201 25.6852 37.8654V27.7557C25.6852 27.5356 25.7726 27.3241 25.9287 27.168C26.0848 27.0119 26.2963 26.9245 26.5164 26.9245H36.627C36.9627 26.9245 37.2664 27.1266 37.3952 27.4369C37.524 27.7481 37.4526 28.1054 37.2147 28.3433L36.0055 29.5525C35.5645 29.9935 35.3163 30.5915 35.3163 31.2149C35.3144 31.8402 35.5626 32.4382 36.0036 32.8791Z" fill="#000"/>
<path fill-rule="evenodd" clip-rule="evenodd" d="M5.71579 12.6154H21.2283C21.6476 12.6154 21.988 12.275 21.988 11.8557C21.988 11.4363 21.6476 11.0959 21.2283 11.0959H5.71579C5.29643 11.0959 4.95606 11.4363 4.95606 11.8557C4.95512 12.275 5.29549 12.6154 5.71579 12.6154Z" fill="#000"/>
<path fill-rule="evenodd" clip-rule="evenodd" d="M5.71579 16.873H16.9999C17.4192 16.873 17.7596 16.5326 17.7596 16.1132C17.7596 15.6939 17.4183 15.3535 16.9999 15.3535H5.71579C5.29643 15.3535 4.95606 15.6939 4.95606 16.1132C4.95512 16.5326 5.29549 16.873 5.71579 16.873Z" fill="#000"/>
<path fill-rule="evenodd" clip-rule="evenodd" d="M5.71579 21.1305H13.472C13.8914 21.1305 14.2318 20.7902 14.2318 20.3708C14.2318 19.9515 13.8914 19.6111 13.472 19.6111H5.71579C5.29643 19.6111 4.95606 19.9515 4.95606 20.3708C4.95512 20.7902 5.29549 21.1305 5.71579 21.1305Z" fill="#000"/>
</svg>
