<svg width="47" height="47" viewBox="0 0 47 47" fill="none" xmlns="http://www.w3.org/2000/svg">
<path d="M11.5305 44.2866H15.6054C17.9673 44.2866 17.971 40.6064 15.6054 40.6064H11.5314C9.16859 40.6074 9.16492 44.2866 11.5305 44.2866ZM11.5305 41.9843H15.6054C16.2039 41.9843 16.2039 42.9105 15.6054 42.9105H11.5314C10.932 42.9096 10.932 41.9843 11.5305 41.9843Z" fill="#000"/>
<path d="M16.5868 23.6643L12.1016 28.1495L10.5484 26.5963C9.91868 25.9675 8.94563 26.9405 9.57444 27.5702L11.6142 29.6109C11.9391 29.8798 12.2632 29.8798 12.5881 29.6109L17.5599 24.6392C18.1896 24.0085 17.2165 23.0355 16.5868 23.6643Z" fill="#000"/>
<path d="M46.4878 30.4582C46.2096 29.9276 46.0086 29.3465 45.8718 28.7627C45.2008 25.9546 44.18 23.2338 42.8407 20.6754L40.5999 16.3986C39.3313 13.9779 35.5887 14.38 34.8819 17.0357C33.2057 16.4326 31.3138 17.424 30.8557 19.1452C29.4696 18.6467 27.8695 19.2342 27.1352 20.5083V5.39031V2.68965C27.1352 1.20621 25.928 0 24.4455 0H8.40584C7.51541 0 7.51541 1.37695 8.40584 1.37695H24.4446C25.1689 1.37695 25.7573 1.96629 25.7573 2.68965V4.70184H1.37695V2.68965C1.37695 1.96629 1.96629 1.37695 2.68965 1.37695H4.55037C5.4408 1.37695 5.4408 0 4.55037 0H2.68965C1.20713 0 0 1.20713 0 2.68965V5.39031V38.573V44.3094C0 45.7929 1.20713 47 2.68965 47H24.4446C25.928 47 27.1342 45.7929 27.1342 44.3104V38.574V35.8164L29.5944 37.0336C30.2021 37.3347 30.7024 37.835 31.0016 38.4436C32.0949 40.6651 34.8957 41.5858 37.096 40.4328L41.1975 38.2839C41.9861 37.8708 41.3471 36.6508 40.5586 37.0639L36.4571 39.2129C34.9333 40.0115 32.9964 39.379 32.2372 37.8359C31.8049 36.9574 31.0833 36.2341 30.2048 35.7999L19.7648 30.6354C17.804 29.6825 19.2223 26.6064 21.2133 27.5354L25.0046 29.5311C25.5893 29.8386 26.242 29.1877 25.9354 28.6021L19.3499 16.0323C18.2685 13.999 21.1647 12.1227 22.269 14.2313L26.924 23.1163L28.1394 25.4369C28.5406 26.2034 29.7706 25.5847 29.3594 24.798L28.1761 22.5389C27.697 20.9416 29.6688 19.6537 30.9383 20.7672L32.2556 23.2815C32.6567 24.048 33.8868 23.4293 33.4756 22.6426L32.1362 20.0861C32.0114 18.6173 33.8097 17.6727 34.9462 18.6412L36.2717 21.172C36.6729 21.9385 37.9029 21.3198 37.4917 20.5331L36.1652 18.0023C35.9853 16.2003 38.5216 15.3998 39.3809 17.0393L41.6216 21.3162C42.9086 23.7726 43.889 26.387 44.5334 29.084C44.6895 29.7835 44.9364 30.4628 45.2687 31.098C46.0618 32.6118 45.4753 34.489 43.9615 35.2821C43.173 35.6952 43.8119 36.9152 44.6004 36.5021C46.787 35.3556 47.6334 32.6448 46.4878 30.4582ZM25.7582 44.3104C25.7582 45.0346 25.1689 45.623 24.4455 45.623H2.68965C1.96537 45.623 1.37695 45.0337 1.37695 44.3104V39.2624H25.7582V44.3104ZM17.7021 27.7594C17.2349 28.7416 17.3257 29.9184 17.9344 30.819C16.7961 32.0105 15.2337 32.6852 13.5667 32.6852C10.2317 32.6852 7.51816 29.9717 7.51816 26.6367C7.51816 23.3017 10.2317 20.5882 13.5667 20.5882C16.7309 20.5882 19.3343 23.0318 19.5922 26.13C18.778 26.3797 18.0684 26.9883 17.7021 27.7594ZM22.7014 12.6276C22.4012 12.3843 22.0551 12.1961 21.6751 12.0777C19.4701 11.3883 17.2486 13.4106 17.7342 15.6688H4.66328C4.5366 15.6688 4.43379 15.566 4.43379 15.4393V10.519C4.43379 10.3923 4.5366 10.2895 4.66328 10.2895H22.4719C22.5986 10.2895 22.7014 10.3923 22.7014 10.519V12.6276ZM25.7582 17.9233L24.0783 14.7169V10.5199C24.0783 9.63408 23.3577 8.91348 22.4719 8.91348H4.66328C3.77744 8.91348 3.05684 9.63408 3.05684 10.5199V15.4402C3.05684 16.3261 3.77744 17.0467 4.66328 17.0467H18.3272L23.69 27.282L21.8421 26.309C21.8339 26.3044 21.8256 26.3007 21.8174 26.2961C21.5438 26.1658 21.2574 26.0786 20.9664 26.0327C20.658 22.2204 17.4588 19.2113 13.5676 19.2113C9.47344 19.2113 6.14213 22.5426 6.14213 26.6367C6.14213 30.7308 9.47344 34.0621 13.5676 34.0621C15.6211 34.0621 17.547 33.2296 18.945 31.7571C21.1289 33.0157 23.4982 34.0163 25.7573 35.1343V37.8846H1.37695V6.07879H25.7582V17.9233Z" fill="#000"/>
</svg>
