<svg width="27" height="20" viewBox="0 0 27 20" fill="none" xmlns="http://www.w3.org/2000/svg">
<path d="M0.112799 20C-0.162908 19.1632 0.0807525 18.7516 0.676922 18.3803C2.87264 17.0116 4.59042 15.2312 5.14349 12.5277C5.20096 12.2473 5.24903 11.9646 5.29102 11.6813C5.30704 11.574 5.29378 11.4627 5.29378 11.3514C5.19433 11.3049 5.12305 11.2493 5.0457 11.239C2.25382 10.8587 0.878593 8.81319 0.544318 6.40665C0.193469 3.87635 1.56096 1.48741 3.73346 0.515483C6.09162 -0.53933 8.81555 0.05677 10.4692 2.01993C12.7578 4.73644 12.7848 7.83162 11.5107 10.9109C9.38132 16.0567 5.28273 18.7391 0.112799 20Z" fill="#AAAAAA"/>
<path d="M14.7858 19.9011C14.5582 19.1631 14.8052 18.7515 15.4002 18.3808C17.6766 16.9643 19.4298 15.1102 19.9276 12.2886C19.9812 11.9843 20.0071 11.6749 20.0502 11.332C19.7513 11.2622 19.511 11.2111 19.2728 11.1492C16.7185 10.4862 14.9963 8.04895 15.1566 5.32733C15.3085 2.73912 17.3258 0.543773 19.8325 0.111743C24.0914 -0.622311 26.6252 3.04739 26.9352 5.86155C27.2103 8.3612 26.5976 10.6326 25.3224 12.7451C23.1051 16.4199 18.6441 19.4594 14.7858 19.9011Z" fill="#AAAAAA"/>
</svg>
