<svg width="27" height="20" viewBox="0 0 27 20" fill="none" xmlns="http://www.w3.org/2000/svg">
<path d="M26.8872 0C27.1629 0.836811 26.9192 1.2484 26.3231 1.61969C24.1274 2.98845 22.4096 4.7688 21.8565 7.47225C21.799 7.7527 21.751 8.03543 21.709 8.31872C21.693 8.42601 21.7062 8.53728 21.7062 8.64856C21.8057 8.69511 21.8769 8.75075 21.9543 8.76096C24.7462 9.14133 26.1214 11.1868 26.4557 13.5933C26.8065 16.1236 25.439 18.5126 23.2665 19.4845C20.9084 20.5393 18.1845 19.9432 16.5308 17.9801C14.2422 15.2636 14.2152 12.1684 15.4893 9.0891C17.6187 3.94334 21.7173 1.26089 26.8872 0Z" fill="#AAAAAA"/>
<path d="M12.2142 0.098877C12.4418 0.836905 12.1948 1.2485 11.5998 1.61922C9.32339 3.03566 7.57025 4.88982 7.07243 7.71136C7.01883 8.01565 6.99287 8.32505 6.94977 8.66795C7.24868 8.73778 7.48903 8.78888 7.72716 8.85076C10.2815 9.51385 12.0037 11.951 11.8434 14.6727C11.6915 17.2609 9.67424 19.4562 7.16746 19.8883C2.90864 20.6223 0.37478 16.9526 0.0648161 14.1384C-0.210339 11.6388 0.402406 9.36738 1.67762 7.25491C3.89489 3.5801 8.35593 0.540559 12.2142 0.098877Z" fill="#AAAAAA"/>
</svg>
