<svg width="59" height="59" viewBox="0 0 59 59" fill="none" xmlns="http://www.w3.org/2000/svg">
<path d="M26.3618 0.155567C21.9593 0.868824 18.147 2.82413 14.9743 5.99688C13.2526 7.71853 12.1582 9.23112 11.1006 11.3463C9.78475 13.978 9.12069 16.4498 8.98541 19.1183L8.91163 20.6309H7.39904C5.1486 20.6309 3.90655 21.1105 2.6522 22.4509C1.53313 23.6438 1.07812 24.8366 1.07812 26.546C1.07812 28.7718 2.13571 30.6288 4.02952 31.7232C5.1363 32.3627 5.6405 32.4365 9.15758 32.4365C12.232 32.4365 12.4041 32.4242 12.6378 32.1905C12.8714 31.9569 12.8837 31.7847 12.8837 26.5337C12.8837 21.2827 12.8714 21.1105 12.6378 20.8769C12.4533 20.6924 12.232 20.6309 11.7032 20.6309H11.0022L11.076 19.3028C11.1498 17.7287 11.3957 16.462 11.9737 14.7404C14.3348 7.64474 20.8771 2.55358 28.2925 2.08628C34.1953 1.70505 39.5324 3.89401 43.5414 8.3334C46.2099 11.2971 47.9439 15.4291 48.1406 19.3028L48.2144 20.6309H47.5135C46.9847 20.6309 46.7633 20.6924 46.5789 20.8769C46.3452 21.1105 46.3329 21.2827 46.3329 26.5337C46.3329 32.83 46.2468 32.4365 47.5627 32.4365H48.3005V33.8384C48.3005 34.6009 48.239 35.4125 48.1652 35.6338C47.9193 36.3225 47.6241 36.3717 43.775 36.3717H40.344L40.2088 36.0766C39.9751 35.5601 39.2741 34.8591 38.77 34.6377C38.0444 34.3057 34.9331 34.3057 34.2199 34.6377C33.1623 35.1296 32.5597 36.1134 32.5597 37.3555C32.5597 38.5975 33.1623 39.5813 34.2199 40.0732C34.9331 40.4053 38.0444 40.4053 38.77 40.0732C39.2741 39.8519 39.9751 39.1509 40.2088 38.6344L40.344 38.3393H44.23C48.5588 38.3393 48.6817 38.3147 49.4934 37.4662C50.1697 36.7529 50.2681 36.3471 50.2681 34.2811V32.4365H51.7807C53.9697 32.4365 55.0272 32.0676 56.3185 30.8624C57.5605 29.7065 58.1385 28.3291 58.1385 26.546C58.1385 24.8366 57.6835 23.6438 56.5644 22.4509C55.3101 21.1105 54.068 20.6309 51.8176 20.6309H50.305L50.2312 19.1183C50.0591 15.552 48.6694 11.6414 46.4928 8.57935C45.4229 7.09136 43.1479 4.81632 41.6599 3.74644C39.4586 2.18465 36.581 0.930309 33.8141 0.327732C32.24 -0.0165977 28.0096 -0.114975 26.3618 0.155567ZM10.9161 26.5337V30.4689H9.93232H8.94852V26.5337V22.5985H9.93232H10.9161V26.5337ZM50.2681 26.5337V30.4689H49.2843H48.3005V26.5337V22.5985H49.2843H50.2681V26.5337ZM6.98092 26.546V30.3828L6.37835 30.309C4.6444 30.1 3.31627 28.6612 3.19329 26.8534C3.1687 26.3738 3.20559 25.7467 3.27938 25.4638C3.6729 24.025 5.17319 22.7707 6.5874 22.7338L6.98092 22.7215V26.546ZM54.0926 23.1765C54.7936 23.5454 55.2978 24.0742 55.7036 24.8489C55.9373 25.2794 55.9864 25.5622 55.9864 26.5337C55.9864 27.6036 55.9496 27.7634 55.6175 28.366C55.0395 29.4236 53.9574 30.1738 52.8383 30.309L52.2357 30.3828V26.5337V22.6846L52.8506 22.7584C53.1949 22.7953 53.7483 22.9797 54.0926 23.1765ZM37.7862 36.5439C38.2412 36.7406 38.4256 37.1341 38.2903 37.6752C38.1797 38.1056 37.5525 38.3393 36.4949 38.3393C35.4373 38.3393 34.8102 38.1056 34.6995 37.6752C34.5765 37.1464 34.7487 36.7406 35.1791 36.5562C35.6956 36.3225 37.2451 36.3225 37.7862 36.5439Z" fill="black"/>
<path d="M25.9193 4.15225C25.698 4.3736 25.6734 4.55807 25.6734 6.48877C25.6734 8.40718 25.6611 8.57935 25.452 8.57935C25.3413 8.57935 24.6896 8.02596 24.0132 7.3373C22.6482 5.97228 22.2547 5.70173 21.7505 5.81241C21.3077 5.91079 16.8684 10.3502 16.7577 10.8052C16.6347 11.2971 16.9175 11.7029 18.2826 13.0679C18.9712 13.7443 19.5246 14.3961 19.5246 14.5067C19.5246 14.7158 19.3524 14.7281 17.434 14.7281C15.5033 14.7281 15.3189 14.7527 15.0975 14.974C14.8639 15.2077 14.8516 15.3799 14.8516 18.6633C14.8516 21.9467 14.8639 22.1189 15.0975 22.3525C15.3189 22.5739 15.5033 22.5985 17.434 22.5985C19.3524 22.5985 19.5246 22.6108 19.5246 22.8198C19.5246 22.9305 18.9712 23.5823 18.2826 24.2587C16.9175 25.6237 16.647 26.0172 16.7577 26.5214C16.8438 26.9026 21.2709 31.3789 21.7013 31.5019C22.1686 31.6494 22.7589 31.2682 24.0132 29.9893C24.6896 29.3006 25.3413 28.7472 25.452 28.7472C25.6611 28.7472 25.6734 28.9194 25.6734 30.8378C25.6734 32.7685 25.698 32.953 25.9193 33.1743C26.153 33.408 26.3251 33.4203 29.6086 33.4203C32.892 33.4203 33.0642 33.408 33.2978 33.1743C33.5192 32.953 33.5438 32.7685 33.5438 30.8378C33.5438 28.9194 33.5561 28.7472 33.7651 28.7472C33.8758 28.7472 34.5276 29.3006 35.2039 29.9893C36.4829 31.2805 36.9871 31.6126 37.4913 31.4896C37.9217 31.3912 42.3734 26.9395 42.4594 26.5214C42.5701 26.0172 42.2996 25.6237 40.9346 24.2587C40.2459 23.5823 39.6925 22.9305 39.6925 22.8198C39.6925 22.6108 39.8647 22.5985 41.7831 22.5985C43.7138 22.5985 43.8982 22.5739 44.1196 22.3525C44.3533 22.1189 44.3656 21.9467 44.3656 18.6633C44.3656 15.3799 44.3533 15.2077 44.1196 14.974C43.8982 14.7527 43.7138 14.7281 41.7831 14.7281C39.8647 14.7281 39.6925 14.7158 39.6925 14.5067C39.6925 14.3961 40.2459 13.7443 40.9346 13.0679C42.2996 11.7029 42.5824 11.2971 42.4594 10.8052C42.3488 10.3502 37.9094 5.91079 37.4667 5.81241C36.9625 5.70173 36.5689 5.97228 35.2039 7.3373C34.5276 8.02596 33.8758 8.57935 33.7651 8.57935C33.5561 8.57935 33.5438 8.40718 33.5438 6.48877C33.5438 4.55807 33.5192 4.3736 33.2978 4.15225C33.0642 3.91859 32.892 3.9063 29.6086 3.9063C26.3251 3.9063 26.153 3.91859 25.9193 4.15225ZM31.5762 7.8046C31.5762 9.61234 31.5885 9.74761 31.8467 10.0182C31.9943 10.178 32.1664 10.301 32.2279 10.301C32.2894 10.301 32.7198 10.4732 33.1994 10.6822C33.802 10.9405 34.1586 11.0388 34.38 10.9774C34.5644 10.9282 35.29 10.3256 36.0033 9.61234L37.3068 8.3334L38.6226 9.66153L39.9385 10.9774L38.7087 12.2071C37.3683 13.5475 37.1346 13.9165 37.3314 14.4453C38.2045 16.7818 38.0938 16.6957 40.455 16.6957H42.398V18.6633V20.6309H40.4672C38.6595 20.6309 38.5242 20.6432 38.2537 20.9014C38.0938 21.049 37.9709 21.2212 37.9709 21.2827C37.9709 21.3441 37.7987 21.7746 37.5896 22.2542C37.3314 22.8567 37.233 23.2134 37.2945 23.4347C37.3437 23.6192 37.9463 24.3447 38.6595 25.058L39.9385 26.3615L38.6103 27.6774L37.2945 28.9932L36.0647 27.7634C34.7243 26.423 34.3554 26.1894 33.8266 26.3861C31.4901 27.2592 31.5762 27.1486 31.5762 29.5097V31.4527H29.6086H27.641V29.5097C27.641 27.1486 27.727 27.2592 25.3905 26.3861C24.8617 26.1894 24.4928 26.423 23.1524 27.7634L21.9226 28.9932L20.6068 27.6774L19.2787 26.3615L20.5576 25.058C21.2709 24.3447 21.8734 23.6192 21.9226 23.4347C21.9841 23.2134 21.8857 22.8567 21.6275 22.2542C21.4184 21.7746 21.2463 21.3441 21.2463 21.295C21.2463 21.2458 21.1233 21.0736 20.9757 20.9137C20.7175 20.6432 20.6437 20.6309 18.7622 20.6309H16.8192V18.6633V16.6957H18.7499C20.5576 16.6957 20.6929 16.6834 20.9634 16.4251C21.1233 16.2776 21.2463 16.1054 21.2463 16.0439C21.2463 15.9824 21.4184 15.552 21.6275 15.0724C21.8857 14.4698 21.9841 14.1132 21.9226 13.8919C21.8734 13.7074 21.2709 12.9818 20.5576 12.2686L19.2787 10.9651L20.6068 9.64923L21.9226 8.3334L23.1524 9.56314C24.4928 10.9036 24.8617 11.1372 25.3905 10.9405C27.727 10.0673 27.641 10.178 27.641 7.8169V5.8739H29.6086H31.5762V7.8046Z" fill="black"/>
<path d="M27.7402 12.9941C25.9571 13.5721 24.4322 15.1339 23.9034 16.9293C23.6206 17.9131 23.6452 19.5979 23.9649 20.5448C24.8011 23.0412 26.9409 24.566 29.5971 24.566C31.4049 24.566 32.7699 24.0004 33.9382 22.746C35.0572 21.5532 35.5122 20.3603 35.5122 18.6386C35.5122 15.9578 33.8398 13.6828 31.3434 12.9572C30.4211 12.6867 28.6502 12.7113 27.7402 12.9941ZM31.1466 15.1585C32.5731 15.7856 33.311 16.8924 33.3971 18.4911C33.4463 19.3642 33.4094 19.5856 33.1511 20.1635C32.7453 21.0367 32.2288 21.6146 31.4295 22.0574C30.8392 22.3771 30.667 22.414 29.6094 22.414C28.6379 22.414 28.3551 22.3648 27.9247 22.1311C26.5597 21.4056 25.8956 20.3726 25.8218 18.8354C25.7726 17.9623 25.8095 17.7409 26.0678 17.1629C26.4736 16.2898 26.9901 15.7118 27.7648 15.2937C28.8593 14.7034 30.0276 14.6543 31.1466 15.1585Z" fill="black"/>
<path d="M8.2101 39.569C8.01334 39.7657 7.96415 39.9748 7.96415 40.5528V41.2906H4.2749C0.745517 41.2906 0.573352 41.3029 0.3397 41.5366C0.09375 41.7825 0.09375 41.9424 0.09375 49.161C0.09375 56.3797 0.09375 56.5395 0.3397 56.7855C0.573352 57.0191 0.745517 57.0314 4.2749 57.0314H7.96415V57.7693C7.96415 59.0605 7.7059 58.999 12.8831 58.999C18.1096 58.999 17.8021 59.0851 17.8021 57.6463C17.8021 57.1667 17.8267 56.7855 17.8513 56.7855C17.8882 56.7855 18.3555 57.0068 18.9089 57.2651C19.4623 57.5356 20.2002 57.8185 20.5568 57.8922C20.9872 57.9783 24.0124 58.0152 29.8537 57.9906C38.3021 57.9537 38.5357 57.9414 39.1998 57.6955C40.2574 57.302 57.1418 47.4886 57.6829 46.9721C57.9412 46.7261 58.2978 46.2096 58.4823 45.8407C58.7651 45.2627 58.8143 45.0168 58.8143 44.119C58.802 43.2336 58.7528 42.9631 58.4577 42.3728C57.6091 40.602 55.3464 39.7042 53.5018 40.4052C53.1697 40.5282 50.7963 41.8563 48.2016 43.3566C45.6068 44.8569 43.4424 46.0866 43.3932 46.0866C43.344 46.0866 43.0981 45.8776 42.8398 45.607C42.5939 45.3488 42.1266 45.0168 41.8069 44.8815C41.2535 44.6232 27.7385 40.9709 25.98 40.5897C24.7379 40.3191 23.7787 40.4421 20.6675 41.2168C19.1672 41.5981 17.9005 41.9055 17.8636 41.9055C17.8267 41.9055 17.8021 41.4382 17.8021 40.8602C17.8021 39.2123 18.1711 39.323 12.8831 39.323C8.61592 39.323 8.44375 39.3353 8.2101 39.569ZM15.8345 49.161V57.0314H12.8831H9.93175V49.161V41.2906H12.8831H15.8345V49.161ZM55.6661 42.4589C56.1703 42.7171 56.6376 43.3197 56.736 43.8239C56.8221 44.3035 56.5393 45.2012 56.1949 45.5087C55.826 45.8284 39.2859 55.3467 38.5234 55.6664L37.7856 55.9861L30.2226 56.023C25.3651 56.0476 22.3153 56.0107 21.6882 55.9369C20.9257 55.8263 20.3969 55.6541 19.2532 55.1007L17.8021 54.4121L17.8267 49.2348L17.8636 44.0699L20.938 43.2951C23.5451 42.6311 24.1354 42.5204 24.8117 42.5696C26.0169 42.6433 40.737 46.6277 41.2535 47.0213C41.8069 47.4394 42.0897 48.2387 41.9175 48.8905C41.7331 49.5422 41.2166 50.0833 40.5771 50.2801C40.0852 50.4154 39.8147 50.3662 34.0348 48.8167C30.7268 47.919 27.7877 47.1934 27.5295 47.1934C26.6563 47.1934 26.2259 48.1772 26.8162 48.8413C27.0499 49.1118 27.9476 49.3824 33.1125 50.772C38.4373 52.2108 39.249 52.3953 40.1221 52.4076C40.86 52.4076 41.2412 52.3461 41.6839 52.1493C42.434 51.805 43.258 51.0302 43.6023 50.3539C43.8851 49.8005 44.1803 48.497 44.0696 48.3248C44.0204 48.2387 44.7706 47.7837 51.3005 44.033C54.5717 42.1637 54.8791 42.0408 55.6661 42.4589ZM7.96415 49.161V55.0638H5.01275H2.06135V49.161V43.2582H5.01275H7.96415V49.161Z" fill="black"/>
<path d="M12.1444 53.3422C11.9353 53.5512 11.8984 53.748 11.8984 54.5719C11.8984 55.7525 12.0952 56.0476 12.8822 56.0476C13.6693 56.0476 13.866 55.7525 13.866 54.5719C13.866 53.3913 13.6693 53.0962 12.8822 53.0962C12.5502 53.0962 12.3043 53.1823 12.1444 53.3422Z" fill="black"/>
</svg>
