<svg width="59" height="59" viewBox="0 0 59 59" fill="none" xmlns="http://www.w3.org/2000/svg">
<path d="M14.8766 0.29961C14.6461 0.599216 14.6346 0.725975 14.6346 5.47363C14.6346 10.2213 14.6461 10.348 14.8766 10.6477L15.107 10.9473H20.1658C25.2246 10.9473 25.2246 10.9473 25.4666 10.6937C25.6855 10.4633 25.6971 10.302 25.6971 8.38906V6.33789H28.9236H32.1502V16.0176C32.1502 21.3414 32.1271 25.6973 32.1041 25.6973C32.0926 25.6973 31.574 25.4668 30.9633 25.1787C30.3525 24.8906 29.6957 24.6602 29.4998 24.6602C29.2809 24.6602 28.0363 25.1902 26.3654 25.9854C24.8328 26.7113 23.5652 27.3105 23.5422 27.3105C23.5191 27.3105 23.5076 26.2504 23.5076 24.9598V22.5975L23.208 22.367C22.9199 22.1365 22.7586 22.125 20.5115 22.125C18.2645 22.125 18.1031 22.1365 17.815 22.367C17.3887 22.7012 17.3887 23.3926 17.815 23.7268C18.0916 23.9457 18.276 23.9688 19.9008 23.9688H21.6639L21.6408 26.1121L21.6063 28.2555L17.8496 30.0416C14.9111 31.4359 14.0584 31.8969 13.9547 32.1158C13.7703 32.5076 13.7703 51.1525 13.9547 51.5443C14.0584 51.7633 14.9342 52.2357 17.8611 53.6301C19.9469 54.6211 21.7445 55.4277 21.8713 55.4277C22.2861 55.4277 22.701 54.9898 22.701 54.552C22.701 54.3215 22.6549 54.0564 22.5973 53.9527C22.5396 53.849 20.9609 53.0309 19.0826 52.1436L15.6832 50.5303L15.6717 42.3025C15.6717 34.5242 15.6832 34.0863 15.8791 34.1555C15.9828 34.2016 18.8867 35.5613 22.3207 37.1977L28.5664 40.1592L28.5779 48.3754V56.5916L28.3359 56.5225C28.2092 56.4764 27.4602 56.1422 26.6996 55.7619C25.1785 55.0244 24.6945 54.9322 24.3143 55.3125C24.0146 55.6121 24.0031 56.3496 24.2912 56.6146C24.66 56.9488 29.1426 59 29.5113 59C29.7418 59 32.565 57.7094 37.3934 55.4162C43.3855 52.5584 44.9412 51.7748 45.0449 51.5443C45.1371 51.36 45.1717 49.5277 45.1717 45.7365V40.2053L44.8836 39.9287C44.5148 39.5484 43.9848 39.5484 43.616 39.9287L43.3279 40.2053V45.3678L43.3164 50.5303L37.0707 53.4918C33.6367 55.1281 30.7328 56.4879 30.6291 56.534C30.4332 56.6031 30.4217 56.1652 30.4217 48.3869L30.4332 40.1592L36.6789 37.1977C40.1129 35.5613 43.0168 34.2016 43.132 34.1555C43.3164 34.0863 43.3279 34.2131 43.3279 35.642C43.3279 36.9902 43.351 37.2322 43.5469 37.4627C43.858 37.843 44.6416 37.843 44.9527 37.4627C45.1486 37.2207 45.1717 36.9787 45.1717 34.7893C45.1717 33.2912 45.1256 32.2887 45.0449 32.1158C44.9527 31.9084 44.3766 31.5742 42.7979 30.8252L40.6775 29.8111V23.3119V16.8242H44.365H48.0525V18.8869V20.9611L48.3521 21.1916C48.6518 21.4221 48.7785 21.4336 53.5262 21.4336C58.2738 21.4336 58.4006 21.4221 58.7002 21.1916L58.9998 20.9611V15.9139V10.8666L58.7348 10.6246C58.4697 10.3711 58.4352 10.3711 53.5146 10.3711C48.6863 10.3711 48.548 10.3826 48.3061 10.6016C48.0641 10.832 48.0525 10.9242 48.0525 12.9062V14.9805H43.7543C39.5828 14.9805 39.4445 14.992 39.2025 15.2109L38.949 15.4529V22.1826C38.949 25.8932 38.9145 28.9238 38.8684 28.9238C38.8107 28.9123 37.716 28.4053 36.4139 27.783L34.0516 26.6652L34.017 15.9023L33.9939 5.13945L33.7404 4.87441L33.4984 4.60938H29.592H25.6971V2.5582C25.6971 0.645313 25.6855 0.483982 25.4666 0.253513C25.2246 0 25.2246 0 20.1658 0H15.107L14.8766 0.29961ZM23.8533 3.74512V5.76172H20.1658H16.4783V3.74512V1.72852H20.1658H23.8533V3.74512ZM23.8533 8.35449V9.21875H20.1658H16.4783V8.35449V7.49023H20.1658H23.8533V8.35449ZM57.2713 14.1738V16.1328H53.5262H49.7811V14.1738V12.2148H53.5262H57.2713V14.1738ZM57.2713 18.7832V19.5898H53.5262H49.7811V18.7832V17.9766H53.5262H57.2713V18.7832ZM28.5779 32.5537C28.5779 35.5613 28.5434 38.0273 28.4973 38.0273C28.4396 38.0273 27.2988 37.4973 25.9621 36.852L23.5076 35.6881V32.5537V29.4193L25.9506 28.2555C27.2988 27.6102 28.4396 27.0801 28.4857 27.0801C28.5434 27.0801 28.5779 29.5461 28.5779 32.5537ZM31.4012 27.4488L32.1502 27.8176V32.5537V37.2898L31.4012 37.6586C30.9863 37.866 30.5945 38.0273 30.5369 38.0273C30.4678 38.0273 30.4217 36.0568 30.4217 32.5537C30.4217 29.0506 30.4678 27.0801 30.5369 27.0801C30.5945 27.0801 30.9863 27.2414 31.4012 27.4488ZM38.0617 30.6293L38.949 31.0326V32.5537V34.0748L38.2922 34.3744C37.9234 34.5357 36.8057 35.0543 35.8146 35.5383L33.9939 36.4025V32.5537V28.7049L35.5842 29.4654C36.4484 29.8803 37.5662 30.3988 38.0617 30.6293ZM21.6639 32.5537V34.7893L20.9494 34.4666C20.5461 34.2822 19.4744 33.7752 18.5641 33.3373L16.9162 32.5537L19.2555 31.4359C20.5461 30.8137 21.6178 30.3182 21.6408 30.3066C21.6523 30.3066 21.6639 31.3207 21.6639 32.5537ZM41.4266 32.2311L42.0604 32.5422L41.4611 32.8648C41.127 33.0377 40.8158 33.176 40.7697 33.1875C40.7121 33.1875 40.6775 32.8994 40.6775 32.5537C40.6775 32.208 40.7006 31.9199 40.7352 31.9199C40.7582 31.9199 41.0809 32.0582 41.4266 32.2311Z" fill="black"/>
<path d="M18.6219 3.13437C18.5182 3.27266 18.4375 3.54922 18.4375 3.74512C18.4375 3.94102 18.5182 4.21758 18.6219 4.35586C18.7832 4.59785 18.8869 4.60938 20.1545 4.60938C21.7102 4.60938 21.9176 4.50566 21.9176 3.74512C21.9176 2.98457 21.7102 2.88086 20.1545 2.88086C18.8869 2.88086 18.7832 2.89238 18.6219 3.13437Z" fill="black"/>
<path d="M52.0303 13.54C51.8459 13.7129 51.7422 13.9549 51.7422 14.1738C51.7422 14.3928 51.8459 14.6348 52.0303 14.8076C52.2953 15.0727 52.3875 15.0957 53.5283 15.0957C54.6691 15.0957 54.7613 15.0727 55.0264 14.8076C55.2107 14.6348 55.3145 14.3928 55.3145 14.1738C55.3145 13.9549 55.2107 13.7129 55.0264 13.54C54.7613 13.275 54.6691 13.252 53.5283 13.252C52.3875 13.252 52.2953 13.275 52.0303 13.54Z" fill="black"/>
<path d="M0.253516 17.7461C0 17.9881 0 17.9881 0 23.0469V28.1057L0.299609 28.3361C0.599219 28.5666 0.725977 28.5781 5.47363 28.5781C10.2213 28.5781 10.348 28.5666 10.6477 28.3361L10.9473 28.1057V26.0314V23.9688H13.0215C15.0842 23.9688 15.1072 23.9688 15.3838 23.6807C15.7641 23.3119 15.7641 22.7818 15.3838 22.4131C15.1072 22.125 15.0842 22.125 13.0215 22.125H10.9473V20.0738C10.9473 18.0687 10.9357 18.0111 10.6822 17.7691C10.4172 17.5156 10.3826 17.5156 5.46211 17.5156C0.633789 17.5156 0.495508 17.5271 0.253516 17.7461ZM9.21875 21.3184V23.2773H5.47363H1.72852V21.3184V19.3594H5.47363H9.21875V21.3184ZM9.21875 25.9277V26.7344H5.47363H1.72852V25.9277V25.1211H5.47363H9.21875V25.9277Z" fill="black"/>
<path d="M3.97559 20.6846C3.79121 20.8574 3.6875 21.0994 3.6875 21.3184C3.6875 21.5373 3.79121 21.7793 3.97559 21.9521C4.24063 22.2172 4.33281 22.2402 5.47363 22.2402C6.61445 22.2402 6.70664 22.2172 6.97168 21.9521C7.35195 21.5834 7.35195 21.0533 6.97168 20.6846C6.70664 20.4195 6.61445 20.3965 5.47363 20.3965C4.33281 20.3965 4.24063 20.4195 3.97559 20.6846Z" fill="black"/>
</svg>
