<svg width="60" height="59" viewBox="0 0 60 59" fill="none" xmlns="http://www.w3.org/2000/svg">
<path d="M29.0451 0.257058C28.837 0.489625 28.8125 0.722193 28.8125 2.35017C28.8125 4.12503 28.8247 4.18623 29.1063 4.4188C29.2654 4.5412 29.5714 4.65137 29.7917 4.65137C30.0121 4.65137 30.3181 4.5412 30.4772 4.4188C30.7587 4.18623 30.771 4.12503 30.771 2.35017C30.771 0.195856 30.6853 9.05991e-06 29.7917 9.05991e-06C29.4245 9.05991e-06 29.2164 0.0734515 29.0451 0.257058Z" fill="black"/>
<path d="M40.1344 2.60717C39.7672 2.79077 38.1882 5.4347 38.1759 5.87536C38.1637 6.59754 38.8859 7.08716 39.5591 6.80563C39.8774 6.68323 40.1222 6.35274 40.7831 5.21438C41.236 4.43099 41.6033 3.65984 41.6033 3.48848C41.6033 3.12127 41.1504 2.59493 40.7464 2.50925C40.5751 2.47252 40.3058 2.52149 40.1344 2.60717Z" fill="black"/>
<path d="M18.3587 3.50078C17.967 3.9904 18.0405 4.34537 18.7871 5.67957C19.7052 7.30755 19.852 7.46667 20.4885 7.46667C21.0761 7.46667 21.3576 7.22187 21.48 6.64657C21.5412 6.31608 21.4311 6.04679 20.7333 4.87171C20.2805 4.1128 19.8153 3.4151 19.7174 3.32941C19.6072 3.25597 19.3135 3.18253 19.0687 3.18253C18.7137 3.18253 18.5546 3.25597 18.3587 3.50078Z" fill="black"/>
<path d="M29.0584 5.82646C27.5406 6.04679 26.2064 6.32832 25.2884 6.62209C19.8659 8.38471 15.8755 12.6444 14.4189 18.226C13.917 20.111 13.7946 22.9998 14.1129 24.9827C14.6147 27.9939 15.9245 30.7724 17.9686 33.1471C19.6088 35.0443 20.8574 37.1252 21.5795 39.1449C21.9957 40.3077 22.3874 42.2662 22.3874 43.1842V43.9186L21.8366 43.9921C20.8941 44.139 20.9186 44.0043 20.9186 49.0474C20.9186 53.356 20.9308 53.5029 21.1634 53.711C21.3592 53.8701 21.7264 53.9313 22.8893 53.9803L24.3703 54.0415L24.5784 54.7147C25.117 56.4161 26.1452 57.6279 27.7487 58.4113C28.7402 58.9131 28.8503 58.9376 30.0866 58.9743C31.176 59.0111 31.5188 58.9743 32.1675 58.754C34.1137 58.1053 35.6683 56.4773 36.1579 54.5923L36.2925 54.0415L37.7858 53.9803C38.9609 53.9313 39.3281 53.8701 39.524 53.711C39.7566 53.5029 39.7688 53.356 39.7688 48.9862C39.7688 43.9064 39.8178 44.1512 38.8385 44.0043L38.3489 43.9186L38.4468 43.0496C38.4958 42.5599 38.6304 41.7276 38.7528 41.189C39.0344 39.8671 39.0221 39.4264 38.6794 39.1449C38.2877 38.8389 37.7369 38.8633 37.3942 39.2061C37.1126 39.4876 36.672 41.238 36.5251 42.7191C36.3782 44.041 36.4884 43.9431 35.1786 43.9431H34.0158V41.1401C34.0158 38.5696 33.9913 38.3125 33.7832 38.0555C33.4527 37.6515 32.6204 37.6515 32.2899 38.0555C32.0818 38.3125 32.0573 38.5696 32.0573 41.1401V43.9431H30.4783H28.8871L28.8503 41.0666C28.8136 37.8964 28.8014 37.8719 28.0058 37.7495C27.6875 37.7005 27.5039 37.7495 27.2468 37.9453L26.9164 38.2024V41.0789V43.9431H25.7046H24.505L24.4316 42.8048C24.2112 39.0837 22.6445 35.4972 19.7557 32.0699C18.4827 30.5521 17.9931 29.8299 17.2954 28.3488C16.4508 26.574 16.1326 25.1296 16.0591 22.8896C16.0101 21.433 16.0469 20.7353 16.1938 19.8907C17.3076 13.8684 21.7264 9.2905 27.6508 8.00525C28.3974 7.84613 29.2053 7.78493 30.5273 7.78493C31.8492 7.78493 32.6571 7.84613 33.4038 8.00525C39.3526 9.2905 43.8693 13.9296 44.922 19.8295C45.1423 21.0903 45.1179 23.5628 44.8608 24.8848C44.3345 27.6144 43.3063 29.6708 41.2376 32.0822C39.7198 33.857 38.7039 35.5217 38.8385 36.048C38.9976 36.6968 39.6709 37.015 40.3074 36.7702C40.4175 36.7335 40.8092 36.2194 41.1887 35.6319C41.5681 35.0566 42.3638 33.9672 42.9513 33.2328C44.8118 30.8948 45.7421 29.2424 46.4276 27.0758C47.3823 24.0402 47.3823 20.4293 46.4276 17.2713C44.7139 11.6039 39.7933 7.20963 33.8812 6.05903C32.8897 5.86318 29.8173 5.7163 29.0584 5.82646ZM37.8103 47.0032V48.1049H30.3437H22.877V47.0032V45.9016H30.3437H37.8103V47.0032ZM37.8103 51.1038V52.1442H30.3437H22.877V51.1038V50.0633H30.3437H37.8103V51.1038ZM34.2606 54.1271C34.2484 54.5188 33.722 55.3879 33.159 55.9387C32.3144 56.7588 31.4453 57.0771 30.2213 57.0159C29.0707 56.9424 28.2995 56.5752 27.4917 55.7062C26.9531 55.1431 26.5491 54.4454 26.5491 54.1027C26.5491 54.017 27.8344 53.9803 30.4049 53.9803C33.4038 53.9803 34.2606 54.017 34.2606 54.1271Z" fill="black"/>
<path d="M28.2642 9.80456C28.0316 9.878 27.7011 10.0494 27.5542 10.1962C27.0279 10.6859 26.9177 11.0531 26.9177 12.3506V13.5624L26.0364 14.0642C25.5468 14.3458 25.0572 14.6273 24.947 14.713C24.7879 14.8231 24.5431 14.7252 23.6862 14.2601C22.707 13.7337 22.5601 13.6848 21.9726 13.7337C21.0056 13.8194 20.6873 14.1132 19.5 16.0961C18.4473 17.8588 18.4473 17.871 18.4963 18.5809C18.5575 19.5357 18.8758 19.9396 20.0386 20.6006L20.9811 21.1269L21.0178 22.4244L21.0545 23.7219L20.0753 24.285C18.8023 25.0194 18.533 25.3988 18.533 26.4393C18.533 27.2227 18.5575 27.2716 19.5245 28.8874C20.6384 30.7479 21.0301 31.0906 22.0215 31.0906C22.45 31.0906 22.7927 30.9682 23.625 30.5031L24.6777 29.9156L25.2408 30.295C25.559 30.5153 26.0364 30.7846 26.3057 30.907L26.7953 31.1274V32.278C26.7953 33.5754 26.9177 33.9059 27.5787 34.4935C28.1417 34.9831 28.4478 35.0321 30.7979 34.9831C32.5728 34.9464 32.8053 34.9219 33.1114 34.6893C33.8458 34.1507 33.9559 33.8692 33.9927 32.4248L34.0416 31.0784L34.6659 30.7724C35.0086 30.5888 35.4982 30.3195 35.743 30.1481L36.2082 29.8421L37.2364 30.4052C38.7052 31.213 39.5743 31.1763 40.3944 30.2705C40.8473 29.7809 42.3162 27.1737 42.4141 26.7086C42.6222 25.6804 42.0958 24.897 40.6759 24.1136L39.7701 23.6117V22.351V21.0902L40.7371 20.5272C41.9245 19.8417 42.2549 19.4133 42.3162 18.4953C42.3529 17.8343 42.3284 17.7486 41.4838 16.2797C40.4434 14.4804 40.0517 14.0275 39.3417 13.8317C38.6563 13.6358 38.2034 13.746 37.0528 14.358L36.1225 14.8598L35.6451 14.5416C35.3881 14.358 34.9229 14.0887 34.6047 13.9418L34.0171 13.6603V12.4852C34.0171 11.5182 33.9682 11.2244 33.7479 10.7715C33.2705 9.85352 32.94 9.73111 30.651 9.70663C29.5739 9.69439 28.4967 9.74335 28.2642 9.80456ZM32.0832 13.1339C32.1199 14.4437 32.1444 14.5538 32.4626 14.97C32.6585 15.2271 33.0991 15.5698 33.4418 15.7412C33.7968 15.9248 34.4088 16.2553 34.8128 16.5001C35.8654 17.1366 36.453 17.1121 37.775 16.4021C38.3258 16.0961 38.7909 15.8758 38.8276 15.9125C38.95 16.0472 40.2598 18.3851 40.2598 18.4585C40.2598 18.5075 39.8069 18.789 39.2805 19.0828C37.8239 19.8784 37.7505 20.0375 37.775 22.351C37.7872 24.7134 37.8974 24.946 39.4397 25.8395C39.8925 26.1088 40.2598 26.3781 40.2598 26.4393C40.2598 26.525 38.9745 28.8384 38.8399 28.9975C38.8154 29.0343 38.3013 28.7894 37.7015 28.4834C36.4163 27.798 35.8287 27.7368 35.0576 28.2141C34.7883 28.3733 34.0906 28.765 33.503 29.071C31.8996 29.9278 31.8628 30.0135 31.8139 33.0246C31.8139 33.147 31.4589 33.1715 30.2593 33.147L28.6926 33.1103L28.6314 31.7394C28.5702 30.2461 28.4355 29.9156 27.7011 29.4627C27.5052 29.328 26.881 28.9363 26.3179 28.5691C24.8124 27.6021 24.3472 27.6388 22.3643 28.8629L21.9481 29.1199L21.1892 27.8102C20.773 27.088 20.4303 26.4515 20.4303 26.4148C20.4303 26.3658 20.8342 26.1088 21.3238 25.8395C21.8012 25.5702 22.3765 25.1785 22.5724 24.9704L22.9396 24.591L22.9763 22.6815C23.0008 21.6288 22.9885 20.6496 22.9518 20.4904C22.8294 20.0008 22.2786 19.4867 21.3361 18.9726C20.8342 18.6911 20.4425 18.4218 20.467 18.3851C20.4915 18.3361 20.8587 17.7363 21.2871 17.0386L22.046 15.7779L22.4989 16.0472C24.4574 17.2345 24.8368 17.259 26.3057 16.3777C26.8075 16.0716 27.4685 15.6922 27.7623 15.5331C28.6069 15.0802 28.8027 14.6395 28.8639 13.0605L28.9007 11.7508H30.4674H32.0342L32.0832 13.1339Z" fill="black"/>
<path d="M28.6047 17.0019C28.2252 17.1244 27.6744 17.3692 27.3806 17.5405C26.585 18.0057 25.6058 19.1195 25.1651 20.0498C24.7857 20.8332 24.7734 20.9311 24.7734 22.4122C24.7734 23.93 24.7734 23.9545 25.2263 24.8603C25.8139 26.0599 26.6829 26.9289 27.8825 27.5165C28.7883 27.9694 28.8128 27.9694 30.3306 27.9694C31.8606 27.9694 31.8851 27.9694 32.8032 27.5165C33.4886 27.186 33.9293 26.8555 34.4311 26.3047C35.6429 25.0072 36.0224 23.9423 35.9489 22.1062C35.9122 20.9556 35.8755 20.772 35.4593 19.9274C34.8718 18.7523 34.0027 17.871 32.8276 17.2957C31.983 16.8795 31.8362 16.8428 30.6121 16.8061C29.5717 16.7816 29.1555 16.8183 28.6047 17.0019ZM32.1666 19.1563C34.4556 20.4048 34.7983 23.4771 32.8521 25.1908C31.8851 26.0354 30.4652 26.3047 29.2045 25.8762C28.4333 25.6192 27.4908 24.7501 27.0869 23.9178C26.1933 22.094 27.1358 19.7316 29.0331 18.9727C29.9756 18.6054 31.2853 18.6789 32.1666 19.1563Z" fill="black"/>
<path d="M46.966 10.9674C45.2401 11.9467 44.9463 12.3996 45.5338 13.1462C45.9622 13.697 46.5375 13.5991 48.0431 12.7178C48.7408 12.3016 49.4018 11.8487 49.4997 11.7141C49.9281 11.0898 49.4752 10.1596 48.7408 10.1596C48.5327 10.1596 47.7983 10.4901 46.966 10.9674Z" fill="black"/>
<path d="M10.8069 11.4326C10.4275 11.7508 10.3418 12.4363 10.6233 12.779C10.8926 13.0973 13.5243 14.5661 13.8425 14.5661C14.2465 14.5661 14.7483 14.1622 14.8462 13.7705C14.9931 13.1829 14.6504 12.828 13.1326 11.9589C12.337 11.506 11.5658 11.1388 11.4067 11.1388C11.2598 11.1388 10.9905 11.2734 10.8069 11.4326Z" fill="black"/>
<path d="M4.08742 39.4019C3.89158 39.5243 2.91234 40.4545 1.92087 41.4583C0.19497 43.2086 0.109288 43.3066 0.109288 43.7839C0.109288 44.347 0.354096 44.6408 0.941636 44.7509C1.30885 44.8244 1.40677 44.7509 2.49617 43.686L3.65901 42.5477V49.7817V57.0158L2.1412 57.0648C0.341855 57.1138 0.109288 57.2239 0.109288 58.0807C0.109288 59.0722 -0.808744 58.9988 11.4684 58.9988H22.3746L22.6194 58.6805C23.0601 58.1297 22.8642 57.3953 22.2277 57.1627C21.9952 57.0893 20.2448 57.0403 17.5396 57.0403H13.2065V52.7317V48.4108L14.2225 49.4268C15.1283 50.3203 15.2752 50.4305 15.6913 50.4305C16.2911 50.4305 16.6338 50.0878 16.6338 49.5002C16.6338 49.0963 16.487 48.9004 15.0304 47.3826C12.8271 45.1059 12.9005 45.1671 12.3742 45.1671C11.9458 45.1671 11.7866 45.2895 9.91386 47.1868C7.97987 49.1208 7.91867 49.2064 7.99212 49.5981C8.09004 50.1245 8.46949 50.4305 9.00807 50.4305C9.37528 50.4305 9.57113 50.2958 10.4035 49.488L11.3705 48.5577V52.7929V57.0403H8.49397H5.61747V49.794V42.5477L6.78031 43.686C7.86971 44.7632 7.96763 44.8244 8.33485 44.7509C8.86118 44.653 9.16719 44.2736 9.16719 43.7227C9.16719 43.331 9.00807 43.123 7.30665 41.3971C5.54403 39.6222 4.99321 39.1693 4.61376 39.1693C4.52808 39.1693 4.29551 39.2795 4.08742 39.4019Z" fill="black"/>
<path d="M54.0273 39.4019C53.8314 39.5243 52.8522 40.4545 51.8607 41.4583C50.2083 43.123 50.0491 43.331 50.0491 43.7227C50.0491 44.2736 50.3552 44.653 50.8815 44.7509C51.2487 44.8244 51.3466 44.7632 52.436 43.686L53.5989 42.5477V49.794V57.0403H50.7836H47.9683V52.7929V48.5455L48.8863 49.4513C49.6819 50.2469 49.8533 50.357 50.245 50.357C50.5877 50.357 50.7591 50.2714 50.9917 50.0021C51.5302 49.3901 51.3711 49.1208 49.2168 46.9665C47.4664 45.2406 47.2338 45.0447 46.8544 45.0447C46.4872 45.0447 46.2424 45.2406 44.4553 47.0277C42.4234 49.0596 42.301 49.2432 42.5335 49.8797C42.6559 50.1734 43.2924 50.4672 43.6596 50.3693C43.831 50.3326 44.4063 49.8674 44.9327 49.3656L45.8874 48.4353V52.7317V57.0403H42.3499C40.2079 57.0403 38.6778 57.0893 38.4575 57.1627C37.821 57.3953 37.6251 58.1297 38.0658 58.6805L38.3106 58.9988H48.5069C58.2257 58.9988 58.7154 58.9865 58.899 58.7785C59.205 58.448 59.1683 57.6279 58.85 57.3341C58.6297 57.1382 58.3604 57.0893 57.0751 57.0648L55.5573 57.0158V49.7817V42.5477L56.7202 43.686C57.8096 44.7509 57.9075 44.8244 58.2747 44.7509C58.8622 44.6408 59.1071 44.347 59.1071 43.7839C59.1071 43.3066 59.0214 43.2086 57.2465 41.3971C55.4839 39.6222 54.9331 39.1693 54.5536 39.1693C54.4679 39.1693 54.2354 39.2795 54.0273 39.4019Z" fill="black"/>
</svg>
