<svg width="53" height="54" viewBox="0 0 53 54" fill="none" xmlns="http://www.w3.org/2000/svg">
<path d="M14.4692 0.757519C14.2745 0.952259 14.2642 1.09575 14.2642 3.62735V6.29219H13.2085C12.2348 6.29219 12.1323 6.31269 11.9273 6.52793C11.6301 6.84566 11.6301 7.41962 11.9171 7.68611C12.1323 7.87059 12.5731 7.88084 27.8856 7.93209C42.5013 7.98334 43.6492 7.99359 43.9464 8.15758C44.4487 8.43431 44.7766 8.90578 44.8996 9.49C44.9816 9.86923 45.0124 15.0452 44.9919 26.9447C44.9611 42.7083 44.9509 43.8767 44.7869 44.2149C44.6844 44.4097 44.5102 44.6966 44.3872 44.8504C43.6697 45.7318 44.7971 46.7055 45.6171 45.9163C46.0373 45.5063 46.4165 44.7684 46.5395 44.0714C46.601 43.7332 46.6523 42.411 46.6523 41.1196V38.7828H49.3684C51.9512 38.7828 52.0947 38.7725 52.2894 38.5778C52.5764 38.2908 52.5662 37.6553 52.2792 37.3888C52.0845 37.2146 51.8487 37.1941 49.3581 37.1633L46.6523 37.1326V35.1955V33.2583L49.3581 33.2276C51.8487 33.1968 52.0845 33.1763 52.2792 33.0021C52.5662 32.7356 52.5764 32.1002 52.2894 31.8132C52.0947 31.6184 51.9512 31.6082 49.3684 31.6082H46.6523V29.6095V27.6109H49.3069C51.8282 27.6109 51.9717 27.6007 52.2279 27.3957C52.6072 27.0984 52.6072 26.4835 52.2279 26.1863C51.9717 25.9813 51.8282 25.971 49.3069 25.971H46.6523V23.9724V21.9738H49.3684C51.9512 21.9738 52.0947 21.9635 52.2894 21.7688C52.5764 21.4818 52.5662 20.8463 52.2792 20.5798C52.0845 20.4056 51.8487 20.3851 49.3581 20.3544L46.6523 20.3236V18.3865V16.4493L49.3581 16.4186C51.8487 16.3878 52.0845 16.3673 52.2792 16.1931C52.5662 15.9266 52.5764 15.2912 52.2894 15.0042C52.0947 14.8094 51.9512 14.7992 49.3684 14.7992H46.6523V12.3086C46.6523 9.64374 46.5703 8.88528 46.1911 8.13708C45.8938 7.55286 45.1559 6.85591 44.5204 6.56892C44.0694 6.35369 43.8542 6.34344 41.1484 6.31269L38.2478 6.28194V3.6171C38.2478 1.09575 38.2375 0.952259 38.0428 0.757519C37.7558 0.470539 37.1203 0.480785 36.8539 0.767769C36.6796 0.962509 36.6591 1.19824 36.6284 3.6376L36.5976 6.29219H34.6605H32.7234L32.6926 3.6376C32.6619 1.19824 32.6414 0.962509 32.4671 0.767769C32.2006 0.480785 31.5652 0.470539 31.2782 0.757519C31.0835 0.952259 31.0732 1.09575 31.0732 3.62735V6.29219H29.0746H27.0759V3.68885C27.0759 1.21874 27.0657 1.07525 26.8607 0.819016C26.6967 0.614029 26.5635 0.552532 26.256 0.552532C25.9485 0.552532 25.8153 0.614029 25.6513 0.819016C25.4463 1.07525 25.436 1.21874 25.436 3.68885V6.29219H23.4374H21.4388V3.62735C21.4388 1.09575 21.4285 0.952259 21.2338 0.757519C20.9468 0.470539 20.3113 0.480785 20.0449 0.767769C19.8706 0.962509 19.8501 1.19824 19.8194 3.6376L19.7886 6.29219H17.8515H15.9144L15.8836 3.6376C15.8529 1.19824 15.8324 0.962509 15.6581 0.767769C15.3916 0.480785 14.7562 0.470539 14.4692 0.757519Z" fill="#EF0303"/>
<path d="M8.37119 6.43572C7.51024 6.70221 6.70054 7.39916 6.28031 8.21912C5.94208 8.87508 5.86009 9.71553 5.86009 12.3086V14.7992H3.144C0.561154 14.7992 0.417663 14.8095 0.222924 15.0042C-0.0640587 15.2912 -0.0538093 15.9267 0.233174 16.1931C0.427912 16.3674 0.663648 16.3879 3.15425 16.4186L5.86009 16.4494V18.3865V20.3236L3.15425 20.3544C0.663648 20.3851 0.427912 20.4056 0.233174 20.5799C-0.0538093 20.8464 -0.0640587 21.4818 0.222924 21.7688C0.417663 21.9635 0.561154 21.9738 3.144 21.9738H5.86009V23.9724V25.9711H3.2055C0.684147 25.9711 0.540655 25.9813 0.284421 26.1863C-0.0948068 26.4835 -0.0948068 27.0985 0.284421 27.3957C0.540655 27.6007 0.684147 27.611 3.2055 27.611H5.86009V29.6096V31.6082H3.144C0.561154 31.6082 0.417663 31.6185 0.222924 31.8132C-0.0640587 32.1002 -0.0538093 32.7357 0.233174 33.0021C0.427912 33.1764 0.663648 33.1969 3.15425 33.2276L5.86009 33.2584V35.1955V37.1326L3.15425 37.1634C0.663648 37.1941 0.427912 37.2146 0.233174 37.3889C-0.0538093 37.6554 -0.0640587 38.2908 0.222924 38.5778C0.417663 38.7725 0.561154 38.7828 3.13375 38.7828H5.84984L5.88059 40.269C5.91134 41.6424 5.93183 41.7654 6.13682 41.9806C6.45455 42.2983 7.04902 42.2881 7.30525 41.9704C7.48974 41.7449 7.49999 41.2119 7.49999 25.8583C7.49999 14.7992 7.53074 9.83852 7.61273 9.46954C7.79722 8.60859 8.30969 8.14737 9.33463 7.92188C9.8676 7.80914 10.1341 7.60415 10.1648 7.26592C10.2058 6.8662 10.1648 6.70221 9.95984 6.49722C9.72411 6.26148 9.02715 6.23073 8.37119 6.43572Z" fill="#EF0303"/>
<path d="M14.7786 13.8358C14.3174 14.0408 13.7947 14.543 13.518 15.0555L13.2925 15.4654L13.2617 26.3708C13.231 38.4343 13.2105 37.9833 13.8869 38.752C14.0612 38.957 14.4404 39.2338 14.7274 39.3568L15.2399 39.6027H26.258H37.276L37.7885 39.3568C38.0755 39.2338 38.4547 38.957 38.629 38.752C39.3054 37.9833 39.2849 38.4343 39.2542 26.3708L39.2234 15.4654L38.9979 15.0555C38.875 14.83 38.629 14.502 38.4342 14.3175C37.727 13.6308 38.4855 13.6718 26.2375 13.6718C16.562 13.682 15.0964 13.7025 14.7786 13.8358ZM31.6901 19.2885V23.255L31.1982 23.4292C30.2142 23.7777 29.343 24.6899 29.0253 25.6841L28.9023 26.0736H26.094H23.2856V24.1262V22.189L23.6956 22.0763C24.5156 21.8611 25.4893 20.8361 25.7455 19.9444C26.1862 18.3455 25.3355 16.5929 23.8288 16.0292C23.0499 15.7319 21.9225 15.7832 21.2358 16.1214C20.59 16.4494 19.8931 17.2283 19.6573 17.8535L19.4729 18.3865H17.1667H14.8606L14.9016 17.0951C14.9324 15.8242 14.9324 15.8037 15.2194 15.5577L15.5063 15.3117H23.6034H31.6901V19.2885ZM37.2965 15.5577L37.5835 15.8037L37.6143 24.4746L37.6348 33.1456H32.4076H27.1804V30.4295V27.7135H28.0311H28.8818L29.1175 28.2772C29.6198 29.4866 30.8599 30.409 32.1514 30.5423C33.33 30.6653 34.7137 30.0913 35.4209 29.1894C36.4663 27.8569 36.4561 25.8071 35.4004 24.5464C34.9802 24.0442 34.0782 23.4395 33.617 23.337L33.33 23.2755V19.2987V15.3117H35.1647C36.9686 15.3117 37.0198 15.3219 37.2965 15.5577ZM23.4291 17.6998C24.6283 18.3865 24.3823 20.1494 23.0191 20.5286C21.9737 20.8156 20.918 19.7907 21.1435 18.7042C21.3587 17.6691 22.4964 17.1668 23.4291 17.6998ZM19.7291 20.3954C19.9853 20.9181 20.754 21.7073 21.2358 21.9226L21.6457 22.107V24.4849C21.6457 25.8788 21.6867 26.9857 21.7482 27.1702C21.9225 27.6417 22.1992 27.7135 23.9518 27.7135H25.5405V32.8382V37.9628H22.9782H20.4158V36.4767C20.4158 35.0418 20.4261 34.9905 20.631 34.9905C20.9898 34.9905 21.9225 34.4883 22.2504 34.1091C23.0191 33.2379 23.2754 32.0489 22.9269 30.983C22.6809 30.2451 21.7995 29.3534 21.0923 29.1176C19.5959 28.6052 18.0174 29.2509 17.3307 30.6345C16.7465 31.8235 16.9413 33.1866 17.833 34.0988C18.0379 34.3141 18.3352 34.56 18.4992 34.642L18.7759 34.7958V36.3742V37.9628H17.1462C15.5576 37.9628 15.4961 37.9526 15.2194 37.7169L14.9324 37.4709L14.9016 28.7486L14.8811 20.0264H17.218H19.5549L19.7291 20.3954ZM33.3813 25.0384C34.9392 25.7353 34.9392 27.9184 33.4018 28.6871C32.5511 29.1074 31.8029 28.9741 31.1162 28.2874C30.4602 27.6417 30.3065 26.8833 30.6652 26.0941C31.1572 25.0076 32.3256 24.5566 33.3813 25.0384ZM20.7028 30.7883C21.1333 31.0548 21.4407 31.5672 21.4407 32.0182C21.4407 33.1866 19.9853 33.8118 19.1244 33.0124C18.4172 32.3667 18.5709 31.1675 19.4216 30.7473C19.8623 30.532 20.2928 30.5423 20.7028 30.7883ZM37.6245 36.1282C37.5835 37.4504 37.5835 37.4709 37.2965 37.7169L37.0096 37.9628H32.0899H27.1804V36.3742V34.7855H32.4178H37.6553L37.6245 36.1282Z" fill="#EF0303"/>
<path d="M6.35011 43.8767C6.06313 44.2047 6.04263 44.4917 6.25787 44.9734C6.5346 45.6191 7.19056 46.2853 7.87727 46.6338L8.47174 46.931L11.3723 46.9618L14.2626 46.9925V49.8111C14.2626 52.4862 14.2729 52.6297 14.4676 52.8244C14.7546 53.1114 15.3901 53.1012 15.6566 52.8142C15.841 52.6195 15.8513 52.3837 15.882 49.7906L15.9128 46.9823H17.8499H19.7871L19.8178 49.7906C19.8486 52.3837 19.8588 52.6195 20.0433 52.8142C20.3098 53.1012 20.9452 53.1114 21.2322 52.8244C21.427 52.6297 21.4372 52.4862 21.4372 49.8009V46.9823H23.4358H25.4345V49.7394C25.4345 52.3632 25.4447 52.4965 25.6497 52.7629C25.9469 53.1422 26.5619 53.1422 26.8591 52.7629C27.0641 52.4965 27.0744 52.3632 27.0744 49.7394V46.9823H29.073H31.0716V49.8009C31.0716 52.4862 31.0819 52.6297 31.2766 52.8244C31.5636 53.1114 32.1991 53.1012 32.4656 52.8142C32.65 52.6195 32.6603 52.3837 32.691 49.7906L32.7218 46.9823H34.6589H36.5961L36.6268 49.7906C36.6576 52.3837 36.6678 52.6195 36.8523 52.8142C37.1188 53.1012 37.7542 53.1114 38.0412 52.8244C38.236 52.6297 38.2462 52.4862 38.2462 49.8009V46.9823H40.3268C42.3767 46.9823 42.4177 46.9823 42.6329 46.7466C42.9404 46.4186 42.9302 45.9164 42.6022 45.5986L42.3562 45.3424H25.7215H9.07645L8.62548 45.1066C8.318 44.9632 8.05151 44.7069 7.83628 44.3789C7.65179 44.1022 7.4468 43.8357 7.37505 43.7947C7.13932 43.641 6.5141 43.6922 6.35011 43.8767Z" fill="#EF0303"/>
</svg>
