<svg width="53" height="54" viewBox="0 0 53 54" fill="none" xmlns="http://www.w3.org/2000/svg">
<path d="M7.57812 4.80689V9.06642H9.68223H11.7863V11.6324V14.1984H16.0459H20.3054V18.8172V23.4359H21.1778H22.0503V17.8934V12.3509H17.8421H13.6338V10.7087V9.06642H15.7379H17.8421V4.80689V0.547363H12.7101H7.57812V4.80689ZM15.9945 4.80689V7.32156H12.6588H9.32299V4.80689V2.29223H12.6588H15.9945V4.80689Z" fill="#EF0303"/>
<path d="M10.9688 4.80689V5.67933H12.7136H14.4585V4.80689V3.93446H12.7136H10.9688V4.80689Z" fill="#EF0303"/>
<path d="M21.1289 4.80689V9.06642H23.233H25.3371V16.2512V23.4359H26.2609H27.1846V16.2512V9.06642H29.2887H31.3928V4.80689V0.547363H26.2609H21.1289V4.80689ZM29.648 4.80689V7.32156H26.2609H22.8738V4.80689V2.29223H26.2609H29.648V4.80689Z" fill="#EF0303"/>
<path d="M24.5156 4.80689V5.67933H26.2605H28.0054V4.80689V3.93446H26.2605H24.5156V4.80689Z" fill="#EF0303"/>
<path d="M34.677 4.80689V9.06642H36.7811H38.8852V10.7087V12.3509H34.677H30.4688V17.8934V23.4359H31.3412H32.2136V18.8172V14.1984H36.4731H40.7327V11.6324V9.06642H42.8368H44.9409V4.80689V0.547363H39.8089H34.677V4.80689ZM43.196 4.80689V7.32156H39.8602H36.5245V4.80689V2.29223H39.8602H43.196V4.80689Z" fill="#EF0303"/>
<path d="M38.0625 4.80689V5.67933H39.8074H41.5522V4.80689V3.93446H39.8074H38.0625V4.80689Z" fill="#EF0303"/>
<path d="M6.60492 12.4946C5.35272 12.8025 4.32633 13.6339 3.75155 14.804L3.4231 15.4814L3.39231 30.0254L3.37178 44.5796H2.74568C1.86299 44.5796 1.38058 44.7541 0.805801 45.2673C0.107854 45.8934 -0.0563692 46.3655 0.0154783 47.5767C0.0770618 48.716 0.251549 49.3421 0.775009 50.2043C1.50375 51.4051 2.60199 52.3084 3.94656 52.8216L4.55213 53.0474H26.209C46.3366 53.0474 47.907 53.0371 48.4304 52.8729C49.6621 52.4931 51.0169 51.4154 51.7046 50.2658C52.2383 49.3934 52.4642 48.6544 52.5155 47.5767C52.5771 46.3655 52.4128 45.8934 51.7149 45.2673C51.1401 44.7541 50.6577 44.5796 49.775 44.5796H49.1489L49.1284 30.0254L49.0976 15.4814L48.7691 14.804C48.1738 13.5928 47.0756 12.7409 45.7823 12.4638C45.4847 12.4022 44.5712 12.3509 43.7603 12.3509H42.2721V13.2746V14.1984H43.863C45.6386 14.1984 45.9774 14.2805 46.5624 14.845C46.7574 15.0298 47.0037 15.3582 47.1269 15.584L47.3527 15.9946L47.3835 30.2922L47.404 44.5796H26.2603H5.11665L5.13718 30.2922L5.16797 15.9946L5.39378 15.584C5.51694 15.3582 5.76328 15.0298 5.95829 14.845C6.54334 14.2805 6.88205 14.1984 8.65771 14.1984H10.2486V13.2746V12.3509L8.6885 12.3611C7.81606 12.3611 6.89231 12.4227 6.60492 12.4946ZM19.4143 47.0738C19.5272 48.3362 19.9583 49.0444 20.8718 49.4653L21.385 49.7116H26.2603H31.1357L31.6489 49.4653C32.5727 49.0444 32.9935 48.3362 33.1064 47.0738L33.168 46.3245L41.7281 46.345L50.2985 46.3758L50.5551 46.6735C50.7911 46.9506 50.8117 47.0327 50.7501 47.5972C50.668 48.3978 50.2061 49.3729 49.621 49.999C49.1797 50.4609 48.3073 51.0254 47.7427 51.1999L47.5067 51.2614V49.6192V47.9667H44.8894H42.2721V49.6603V51.3538H41.5023H40.7325V49.6603V47.9667H38.1152H35.4979V49.6603V51.3538L20.2252 51.3333L4.96269 51.3025L4.27501 50.974C3.33073 50.5327 2.63278 49.845 2.19143 48.9521C1.5756 47.6896 1.60639 46.694 2.27354 46.4271C2.39671 46.3758 6.28674 46.3348 10.926 46.3348L19.3527 46.3245L19.4143 47.0738ZM31.2897 46.8787C31.2897 47.2688 31.2281 47.5048 31.0947 47.6691L30.8996 47.9154L26.3219 47.9462L21.7442 47.977L21.4876 47.7204C21.2721 47.5048 21.231 47.3611 21.231 46.889V46.3245H26.2603H31.2897V46.8787ZM38.885 50.5327V51.3538H38.1152H37.3454V50.5327V49.7116H38.1152H38.885V50.5327ZM45.6592 50.5327V51.3538H44.8894H44.1196V50.5327V49.7116H44.8894H45.6592V50.5327Z" fill="#EF0303"/>
<path d="M7.68157 15.9638C7.42497 16.0972 7.11705 16.3538 6.98362 16.5488L6.75781 16.8978L6.77834 29.4301C6.80913 41.7776 6.80913 41.9623 7.01441 42.2394C7.12731 42.3934 7.38391 42.6089 7.58919 42.7219L7.96896 42.9374H26.2593H44.5496L44.9294 42.7219C45.1346 42.6089 45.3912 42.3934 45.5042 42.2394C45.7094 41.9623 45.7094 41.7776 45.7402 29.4301L45.7607 16.8978L45.5349 16.5488C45.4015 16.3538 45.0936 16.0972 44.837 15.9638C44.3854 15.738 44.3751 15.738 39.12 15.738H33.8546V16.6617V17.5855H38.9352H44.0159V29.389V41.1925H42.3736H40.7314V38.7497V36.3172L39.5921 35.9579L38.4528 35.5987L38.0423 34.6544L37.642 33.7101L38.2065 32.6529L38.7813 31.5958L36.5027 29.3172L34.2344 27.0488L33.1361 27.5928L32.0379 28.1471L31.5041 27.9007C31.2168 27.757 30.8062 27.6031 30.5907 27.5312C30.2212 27.4183 30.2006 27.3978 29.8517 26.279L29.4822 25.1295H26.2593H23.0364L22.6669 26.279C22.4719 26.9154 22.2666 27.4389 22.205 27.4389C22.1537 27.4389 21.7432 27.6031 21.2915 27.7981L20.491 28.1471L19.3824 27.5928L18.2842 27.0488L16.0159 29.3172L13.7373 31.5958L14.3121 32.6529L14.8766 33.7101L14.4763 34.6544L14.0657 35.5987L12.9264 35.9579L11.7871 36.3172V38.7497V41.1925H10.1449H8.50268V29.389V17.5855H13.5833H18.664V16.6617V15.738H13.3986C8.14344 15.738 8.13318 15.738 7.68157 15.9638ZM28.4455 27.8597L28.7432 28.845L29.6258 29.1324C30.1083 29.2864 30.8473 29.5943 31.2681 29.8098L32.0276 30.1999L32.9616 29.738L33.8854 29.2658L35.2197 30.6002L36.554 31.9345L36.0613 32.8274L35.5789 33.7204L35.9895 34.562C36.2256 35.0136 36.5335 35.7629 36.6874 36.2248L36.9543 37.0459L37.9191 37.3436L38.8839 37.6309V39.4066V41.1925H37.2109H35.5379L35.5789 39.8685C35.6713 37.087 34.7989 34.8392 32.8795 32.9301C31.0628 31.1031 28.8868 30.2101 26.2593 30.2101C23.6317 30.2101 21.4558 31.1031 19.639 32.9301C17.7197 34.8392 16.8473 37.087 16.9396 39.8685L16.9807 41.1925H15.3077H13.6346V39.4169V37.6309L14.6097 37.3333L15.5745 37.0356L15.8003 36.3172C15.9132 35.9169 16.2212 35.1779 16.4778 34.6544L16.9396 33.7204L16.4572 32.8274L15.9646 31.9345L17.2989 30.6002L18.6332 29.2658L19.5569 29.738L20.4807 30.1999L21.2915 29.7893C21.7432 29.5738 22.4822 29.2658 22.944 29.1119L23.7754 28.8348L24.0012 28.065C24.422 26.6588 24.1346 26.8128 26.2798 26.8436L28.1478 26.8743L28.4455 27.8597ZM28.1581 32.2116C30.7651 32.8993 32.9103 35.065 33.6083 37.7028C33.793 38.4315 33.8546 39.9301 33.7212 40.6999L33.639 41.1925H31.9352C30.4572 41.1925 30.2519 41.172 30.3033 41.0386C30.3341 40.9462 30.4162 40.587 30.4778 40.2175C30.8986 37.9389 29.2974 35.7219 26.9367 35.3113C24.0936 34.8289 21.5173 37.4051 22.0408 40.2175C22.1024 40.587 22.1845 40.9462 22.2153 41.0386C22.2666 41.172 22.0613 41.1925 20.5833 41.1925H18.9L18.8385 40.8846C18.3561 38.4828 19.1669 35.9374 20.9734 34.1617C22.0716 33.084 23.3238 32.4169 24.8121 32.0987C25.6434 31.9242 27.2959 31.9755 28.1581 32.2116ZM27.5525 37.4565C28.7329 38.1852 29.0819 39.7864 28.2915 40.9051L28.0965 41.1925H26.2593H24.422L24.227 40.9051C23.3854 39.694 23.8165 38.021 25.1508 37.3436C25.9103 36.9638 26.8341 37.0048 27.5525 37.4565Z" fill="#EF0303"/>
</svg>
