<svg width="57" height="54" viewBox="0 0 57 54" fill="none" xmlns="http://www.w3.org/2000/svg">
<path d="M40.9621 0.763352C40.4581 0.986037 39.6846 1.75957 39.5557 2.16978C39.4853 2.41591 39.4502 2.41591 35.6763 2.41591H31.8789V3.35353V4.29115H35.6763C39.4502 4.29115 39.4853 4.29115 39.5557 4.53727C39.6846 4.94748 40.4581 5.72102 40.9621 5.9437C41.5481 6.21327 42.7436 6.23671 43.3413 5.97886C44.3844 5.54521 45.0056 4.57243 45.0056 3.35353C45.0056 2.13462 44.3844 1.16184 43.3413 0.728192C42.7436 0.470346 41.5481 0.493787 40.9621 0.763352ZM42.7787 2.76751C42.9077 2.89644 43.0131 3.15428 43.0131 3.35353C43.0131 3.55277 42.9077 3.81062 42.7787 3.93954C42.6498 4.06846 42.392 4.17395 42.1927 4.17395C41.9935 4.17395 41.7356 4.06846 41.6067 3.93954C41.4778 3.81062 41.3723 3.55277 41.3723 3.35353C41.3723 3.15428 41.4778 2.89644 41.6067 2.76751C41.7356 2.63859 41.9935 2.53311 42.1927 2.53311C42.392 2.53311 42.6498 2.63859 42.7787 2.76751Z" fill="#EF0303"/>
<path d="M1.5832 1.70095C1.32535 1.81815 0.950303 2.09944 0.739339 2.3104C-0.057638 3.15426 0.000963203 1.80643 0.000963203 20.6995C0.000963203 39.5925 -0.057638 38.2447 0.739339 39.0885C0.950303 39.2995 1.32535 39.5808 1.5832 39.698C2.02857 39.909 2.5677 39.9207 12.2838 39.9207H22.5038V43.6712V47.4216H20.863C18.6127 47.4216 18.7534 47.2341 18.7534 50.2345C18.7534 52.4262 18.7651 52.5903 18.9878 52.813C19.2222 53.0474 19.3745 53.0474 28.1296 53.0474C36.8846 53.0474 37.037 53.0474 37.2714 52.813C37.494 52.5903 37.5058 52.4262 37.5058 50.2345C37.5058 47.2341 37.6464 47.4216 35.3961 47.4216H33.7553V43.6712V39.9207H43.9871C53.6914 39.9207 54.2306 39.909 54.6759 39.698C54.9338 39.5808 55.3088 39.2995 55.5198 39.0885C56.2582 38.3033 56.2582 38.315 56.2582 33.0057C56.2582 28.3528 56.2464 28.1887 56.0238 27.966C55.7893 27.7316 55.637 27.7316 42.8971 27.7316H30.0048V14.8394C30.0048 2.09944 30.0048 1.94707 29.7704 1.71267C29.536 1.47827 29.3836 1.47827 15.7999 1.47827C2.66146 1.47827 2.02857 1.48999 1.5832 1.70095ZM28.1296 5.22874V7.10398H15.0029H1.8762V5.76788C1.8762 4.19736 2.00513 3.74027 2.5091 3.51759C2.8021 3.38867 5.13443 3.36523 15.5069 3.3535H28.1296V5.22874ZM28.1296 19.0586C28.1296 28.9857 28.1296 29.1381 28.364 29.3725C28.5984 29.6069 28.7507 29.6069 41.4906 29.6069H54.3829V33.2987C54.3829 37.436 54.3478 37.6821 53.6797 37.9165C53.3984 38.0103 46.6007 38.0454 28.1061 38.0454C0.434614 38.0454 2.27469 38.0923 2.00513 37.3422C1.91136 37.0609 1.8762 33.0995 1.8762 22.9732V8.97923H15.0029H28.1296V19.0586ZM27.1919 41.5615C27.1919 43.05 27.2154 43.2258 27.4263 43.4368C27.5787 43.5891 27.8131 43.6712 28.1296 43.6712C28.446 43.6712 28.6804 43.5891 28.8328 43.4368C29.0437 43.2258 29.0672 43.05 29.0672 41.5615V39.9207H30.4736H31.88V43.6712V47.4216H28.1296H24.3791V43.6712V39.9207H25.7855H27.1919V41.5615ZM35.6305 50.2345V51.1721H28.1296H20.6286V50.2345V49.2969H28.1296H35.6305V50.2345Z" fill="#EF0303"/>
<path d="M3.0469 4.52553C2.89454 4.67789 2.8125 4.9123 2.8125 5.22875C2.8125 5.84992 3.12895 6.16637 3.75012 6.16637C4.37129 6.16637 4.68774 5.84992 4.68774 5.22875C4.68774 4.60757 4.37129 4.29113 3.75012 4.29113C3.43367 4.29113 3.19927 4.37317 3.0469 4.52553Z" fill="#EF0303"/>
<path d="M5.8594 4.52553C5.70704 4.67789 5.625 4.9123 5.625 5.22875C5.625 5.84992 5.94145 6.16637 6.56262 6.16637C7.18379 6.16637 7.50024 5.84992 7.50024 5.22875C7.50024 4.60757 7.18379 4.29113 6.56262 4.29113C6.24617 4.29113 6.01177 4.37317 5.8594 4.52553Z" fill="#EF0303"/>
<path d="M8.67581 4.52553C8.52345 4.67789 8.44141 4.9123 8.44141 5.22875C8.44141 5.84992 8.75785 6.16637 9.37903 6.16637C10.0002 6.16637 10.3166 5.84992 10.3166 5.22875C10.3166 4.60757 10.0002 4.29113 9.37903 4.29113C9.06258 4.29113 8.82817 4.37317 8.67581 4.52553Z" fill="#EF0303"/>
<path d="M20.8616 11.0889C20.6389 11.3116 20.6272 11.4756 20.6272 13.4329V15.5426H18.9863C17.4979 15.5426 17.322 15.566 17.1111 15.777C16.9001 15.9879 16.8767 16.1637 16.8767 17.6522V19.293H15.2358C12.9973 19.293 13.1262 19.1407 13.1262 21.8715V23.9811H11.4854C9.29368 23.9811 9.37572 23.8991 9.37572 26.0908V27.7316H7.73488C5.5432 27.7316 5.62524 27.6496 5.62524 29.8413V31.4821H4.68762H3.75V32.4197V33.3573H16.8767H30.0034V32.4197V31.4821H28.1281H26.2529V21.4027C26.2529 11.4756 26.2529 11.3233 26.0185 11.0889C25.7958 10.8662 25.6317 10.8545 23.44 10.8545C21.2483 10.8545 21.0842 10.8662 20.8616 11.0889ZM24.3776 22.1059V31.4821H23.44H22.5024V22.1059V12.7297H23.44H24.3776V22.1059ZM20.6272 24.45V31.4821H19.6895H18.7519V24.45V17.4178H19.6895H20.6272V24.45ZM16.8767 26.3252V31.4821H15.9391H15.0014V26.3252V21.1683H15.9391H16.8767V26.3252ZM13.1262 28.6692V31.4821H12.1886H11.251V28.6692V25.8564H12.1886H13.1262V28.6692ZM9.37572 30.5445V31.4821H8.4381H7.50048V30.5445V29.6069H8.4381H9.37572V30.5445Z" fill="#EF0303"/>
<path d="M31.8789 32.4197V33.3573H32.8165H33.7541V32.4197V31.4821H32.8165H31.8789V32.4197Z" fill="#EF0303"/>
<path d="M52.2135 1.70097C51.7096 1.92365 50.936 2.69719 50.8071 3.1074C50.7368 3.34181 50.6547 3.35353 49.5062 3.35353C48.381 3.35353 48.2521 3.37697 48.0177 3.61137C47.877 3.76373 46.705 5.11156 45.4275 6.61175L43.0952 9.34257L41.4895 7.74862L39.8838 6.16639H35.8872H31.8789V7.10401V8.04163H35.3598H38.8407L40.7277 9.91686L42.6147 11.7921H45.2752C47.8653 11.7921 47.9239 11.7921 47.9942 12.0382C48.1232 12.4484 48.8967 13.222 49.4007 13.4447C49.9867 13.7142 51.1822 13.7377 51.7799 13.4798C52.823 13.0462 53.4442 12.0734 53.4442 10.8545C53.4442 9.63558 52.823 8.6628 51.7799 8.22915C51.1822 7.9713 49.9867 7.99474 49.4007 8.26431C48.8967 8.48699 48.1232 9.26053 47.9942 9.67074C47.9239 9.90514 47.8419 9.91686 46.6347 9.91686C45.5916 9.91686 45.3689 9.8817 45.4392 9.7645C45.4861 9.67074 46.3769 8.61592 47.4082 7.42045L49.2835 5.22877H50.0101C50.643 5.22877 50.7368 5.26393 50.8071 5.47489C50.936 5.8851 51.7096 6.65864 52.2135 6.88132C52.7996 7.15089 53.995 7.17433 54.5928 6.91648C55.6359 6.48283 56.257 5.51005 56.257 4.29115C56.257 3.07224 55.6359 2.09946 54.5928 1.66581C53.995 1.40796 52.7996 1.4314 52.2135 1.70097ZM54.0302 3.70513C54.1591 3.83406 54.2646 4.0919 54.2646 4.29115C54.2646 4.49039 54.1591 4.74823 54.0302 4.87716C53.9013 5.00608 53.6434 5.11156 53.4442 5.11156C53.2449 5.11156 52.9871 5.00608 52.8582 4.87716C52.7292 4.74823 52.6237 4.49039 52.6237 4.29115C52.6237 4.0919 52.7292 3.83406 52.8582 3.70513C52.9871 3.57621 53.2449 3.47073 53.4442 3.47073C53.6434 3.47073 53.9013 3.57621 54.0302 3.70513ZM51.2173 10.2685C51.3462 10.3974 51.4517 10.6552 51.4517 10.8545C51.4517 11.0537 51.3462 11.3116 51.2173 11.4405C51.0884 11.5694 50.8305 11.6749 50.6313 11.6749C50.4321 11.6749 50.1742 11.5694 50.0453 11.4405C49.9164 11.3116 49.8109 11.0537 49.8109 10.8545C49.8109 10.6552 49.9164 10.3974 50.0453 10.2685C50.1742 10.1395 50.4321 10.0341 50.6313 10.0341C50.8305 10.0341 51.0884 10.1395 51.2173 10.2685Z" fill="#EF0303"/>
<path d="M31.8789 11.7921V12.7297H35.3715H38.8642L39.6612 13.5384C40.4112 14.3002 40.4581 14.3705 40.3761 14.7339C39.9307 16.7263 41.1731 18.3554 43.1303 18.3554C44.8298 18.3554 45.9432 17.2303 45.9432 15.5191C45.9432 14.6049 45.6736 13.9838 45.0407 13.4212C44.3961 12.8352 43.8804 12.6828 42.7905 12.7649L41.8997 12.8235L40.8918 11.839L39.8838 10.8545H35.8755H31.8789V11.7921ZM43.7164 14.9566C43.8453 15.0855 43.9508 15.3433 43.9508 15.5426C43.9508 15.7418 43.8453 15.9997 43.7164 16.1286C43.5874 16.2575 43.3296 16.363 43.1303 16.363C42.9311 16.363 42.6733 16.2575 42.5443 16.1286C42.4154 15.9997 42.3099 15.7418 42.3099 15.5426C42.3099 15.3433 42.4154 15.0855 42.5443 14.9566C42.6733 14.8276 42.9311 14.7221 43.1303 14.7221C43.3296 14.7221 43.5874 14.8276 43.7164 14.9566Z" fill="#EF0303"/>
<path d="M49.4007 15.7653C48.8147 16.0231 48.1232 16.7732 47.9356 17.3592C47.8184 17.7343 47.8184 18.6484 47.9591 19.6447C47.9708 19.7384 47.4082 20.5471 46.705 21.4261L45.4158 23.0435H38.6532H31.8789V23.9811V24.9188H39.122C44.7477 24.9188 46.412 24.8836 46.5527 24.7664C46.6464 24.6961 47.3614 23.8288 48.1349 22.8677L49.5413 21.098L50.3735 21.1448C51.3814 21.2034 51.9205 21.0394 52.5417 20.4768C53.1512 19.9259 53.4676 19.211 53.4676 18.3671C53.4676 17.2186 52.8582 16.2223 51.8619 15.7653C51.2408 15.4722 50.0336 15.4722 49.4007 15.7653ZM51.2173 17.7694C51.3462 17.8983 51.4517 18.1562 51.4517 18.3554C51.4517 18.5547 51.3462 18.8125 51.2173 18.9414C51.0884 19.0704 50.8305 19.1758 50.6313 19.1758C50.4321 19.1758 50.1742 19.0704 50.0453 18.9414C49.9164 18.8125 49.8109 18.5547 49.8109 18.3554C49.8109 18.1562 49.9164 17.8983 50.0453 17.7694C50.1742 17.6405 50.4321 17.535 50.6313 17.535C50.8305 17.535 51.0884 17.6405 51.2173 17.7694Z" fill="#EF0303"/>
<path d="M37.2116 16.7029C36.7076 16.9256 35.9341 17.6991 35.8052 18.1093C35.7349 18.3437 35.6645 18.3554 33.801 18.3554H31.8789V19.2931V20.2307H33.801C35.6645 20.2307 35.7349 20.2424 35.8052 20.4768C35.9341 20.887 36.7076 21.6606 37.2116 21.8832C37.7976 22.1528 38.9931 22.1762 39.5908 21.9184C40.6339 21.4848 41.2551 20.512 41.2551 19.2931C41.2551 18.0742 40.6339 17.1014 39.5908 16.6677C38.9931 16.4099 37.7976 16.4333 37.2116 16.7029ZM39.0283 18.7071C39.1572 18.836 39.2627 19.0938 39.2627 19.2931C39.2627 19.4923 39.1572 19.7502 39.0283 19.8791C38.8993 20.008 38.6415 20.1135 38.4422 20.1135C38.243 20.1135 37.9852 20.008 37.8562 19.8791C37.7273 19.7502 37.6218 19.4923 37.6218 19.2931C37.6218 19.0938 37.7273 18.836 37.8562 18.7071C37.9852 18.5781 38.243 18.4726 38.4422 18.4726C38.6415 18.4726 38.8993 18.5781 39.0283 18.7071Z" fill="#EF0303"/>
</svg>
