<svg width="55" height="59" viewBox="0 0 55 59" fill="none" xmlns="http://www.w3.org/2000/svg">
<path d="M25.0223 0.0649986C24.0191 0.330212 23.0851 1.12585 22.6354 2.09446C22.3932 2.62488 22.3702 2.82091 22.3702 4.74659V6.82217L22.7507 7.60628C23.3388 8.79397 24.5034 9.53196 25.7949 9.53196H26.2331V13.2449L26.2215 16.9695L21.194 19.9099C18.4266 21.5242 16.0973 22.8618 16.0166 22.8849C15.9359 22.9079 14.9327 22.1699 13.7796 21.2475L11.704 19.5639H8.70591H5.70785V17.8458V16.1392L6.31899 16.0585C7.17229 15.9432 8.03712 15.4935 8.63673 14.8247C9.4439 13.9368 9.53615 13.4871 9.49002 11.0079C9.45543 8.92081 9.45543 8.88622 9.1095 8.28661C8.74051 7.60628 8.34845 7.23729 7.622 6.84523C7.18382 6.60308 6.99932 6.59155 4.78537 6.59155C2.50223 6.59155 2.39845 6.60308 1.86802 6.87983C1.19923 7.21423 0.576551 7.87149 0.242151 8.59795C0.023062 9.08225 0 9.3244 0 11.2616C0 13.2449 0.023062 13.441 0.265213 13.9714C0.79564 15.1245 1.84496 15.8855 3.13644 16.0585L3.73605 16.1277L3.77064 18.5377C3.80523 20.8669 3.81677 20.9477 4.07045 21.2013C4.32413 21.4666 4.37025 21.4666 7.65659 21.5011L10.9775 21.5357L12.8917 23.0924L14.8174 24.6491V29.4806V34.3121L12.8917 35.8688L10.9775 37.4255L7.65659 37.4601C4.37025 37.4947 4.32413 37.4947 4.07045 37.7599C3.81677 38.0136 3.80523 38.0943 3.77064 40.4235L3.73605 42.8335L3.13644 42.9027C1.84496 43.0757 0.79564 43.8367 0.265213 44.9898C0.023062 45.5202 0 45.7163 0 47.6996C0 49.6253 0.023062 49.879 0.242151 50.3633C0.611144 51.1474 1.18769 51.7355 1.96027 52.1045C2.6406 52.4158 2.68673 52.4273 4.68159 52.4273C7.18382 52.4273 7.55281 52.3235 8.48683 51.4011C9.40931 50.4671 9.51309 50.0981 9.51309 47.5958C9.51309 45.601 9.50155 45.5548 9.19022 44.8745C8.64826 43.7329 7.70272 43.0757 6.37665 42.9142L5.70785 42.8335V41.1154V39.3973H8.70591H11.704L13.7796 37.7138C14.9327 36.7913 15.9359 36.0533 16.0166 36.0763C16.0973 36.0994 18.4266 37.437 21.194 39.0513L26.2215 41.9918L26.2331 45.7509V49.51L25.5412 49.5792C24.2497 49.6945 23.235 50.4094 22.67 51.6086C22.3817 52.2313 22.3702 52.3351 22.3702 54.3299C22.3702 56.3248 22.3817 56.4286 22.67 57.0397C23.0274 57.7892 23.6501 58.4465 24.3304 58.7694C24.7571 58.9769 25.0338 59 27.1671 59H29.5194L30.1075 58.6541C30.8685 58.2274 31.4681 57.5125 31.7333 56.763C31.9063 56.2902 31.9409 55.7944 31.9409 54.2146C31.9409 52.3466 31.9294 52.2198 31.6411 51.6086C31.0876 50.4325 30.0498 49.6945 28.7699 49.5792L28.078 49.51V45.7509L28.0895 41.9918L33.2439 38.9822L38.3867 35.9726L39.609 36.9758C40.2778 37.5177 41.2234 38.2903 41.7192 38.6824L42.6186 39.3973H45.6167H48.6032V41.1154V42.8335L47.946 42.9142C46.6775 43.0641 45.6743 43.7329 45.1439 44.7823C44.8672 45.3012 44.8556 45.4626 44.821 47.5612C44.7865 49.6945 44.798 49.8098 45.0632 50.3863C45.4322 51.205 45.8242 51.6317 46.5507 52.0237C47.1618 52.3697 47.1734 52.3697 49.3758 52.4043C51.5782 52.4389 51.6013 52.4389 52.2931 52.1275C53.0773 51.7816 53.6999 51.1589 54.0689 50.3633C54.288 49.879 54.3111 49.6368 54.3111 47.6996C54.3111 45.7163 54.288 45.5202 54.0459 44.9898C53.5154 43.8367 52.4661 43.0757 51.1746 42.9027L50.575 42.8335L50.5404 40.4235C50.5058 38.0943 50.4943 38.0136 50.2406 37.7599C49.9869 37.4947 49.9408 37.4947 46.6545 37.4601L43.3335 37.4255L41.4194 35.8688L39.4937 34.3121V29.4806V24.6491L41.4194 23.0924L43.3335 21.5357L46.6545 21.5011C49.9408 21.4666 49.9869 21.4666 50.2406 21.2013C50.4943 20.9477 50.5058 20.8669 50.5404 18.5377L50.575 16.1277L51.0939 16.047C52.7659 15.8048 53.8152 14.8823 54.2073 13.3141C54.484 12.2417 54.3918 9.34746 54.0574 8.59795C53.7345 7.87149 53.1234 7.22575 52.443 6.87983C51.9126 6.60308 51.8088 6.59155 49.5257 6.59155H47.1618L46.5507 6.93748C45.8242 7.32954 45.4322 7.75618 45.0632 8.57488C44.798 9.15144 44.7865 9.26675 44.821 11.4C44.8556 13.4986 44.8672 13.6601 45.1439 14.179C45.6743 15.2283 46.6775 15.8971 47.946 16.047L48.6032 16.1277V17.8458V19.5639H45.6167H42.6186L41.7192 20.2789C41.2234 20.6709 40.2778 21.4435 39.609 21.9855L38.3867 22.9886L33.267 19.9791L28.1357 16.9695L28.1011 13.268L28.078 9.56655L28.7468 9.5089C30.0614 9.38205 31.3067 8.42498 31.7333 7.19116C31.9063 6.70686 31.9409 6.23409 31.9409 4.63128C31.9294 2.83244 31.9063 2.62488 31.6642 2.07139C31.3644 1.39106 30.5111 0.537769 29.8538 0.237961C29.4963 0.0765266 29.0005 0.0304031 27.3862 0.00734329C26.2792 -0.0157204 25.2183 0.0188713 25.0223 0.0649986ZM29.1158 2.12905C29.8423 2.49804 29.9806 2.91316 29.9806 4.74659C29.9806 6.56849 29.8769 6.90289 29.1965 7.32954C28.8391 7.54862 28.62 7.57169 27.144 7.57169C25.7026 7.57169 25.4374 7.53709 25.1145 7.34106C24.3996 6.91442 24.3304 6.67227 24.3304 4.80424C24.3304 2.90163 24.4573 2.49804 25.1953 2.12905C25.7833 1.82924 28.5277 1.82924 29.1158 2.12905ZM7.1031 8.94388L7.55281 9.39359V11.1578C7.55281 12.7376 7.52975 12.9797 7.32219 13.3141C6.93014 13.9483 6.34206 14.1444 4.72772 14.1444C2.28314 14.1444 1.91415 13.7638 1.90262 11.2962C1.90262 9.6588 2.06405 9.09378 2.62907 8.73632C2.96347 8.51723 3.19409 8.49417 4.83149 8.49417H6.65339L7.1031 8.94388ZM51.6128 8.69019C51.7973 8.8055 52.0625 9.11684 52.1894 9.38205C52.3969 9.82023 52.42 10.0509 52.3854 11.423C52.3508 12.7722 52.3162 13.0143 52.1086 13.2911C51.5782 14.0175 51.3707 14.0867 49.6871 14.1213C48.3149 14.1559 48.0843 14.1328 47.6461 13.9253C46.839 13.5332 46.7583 13.2911 46.7583 11.204V9.39359L47.208 8.94388L47.6577 8.49417H49.468C50.9786 8.49417 51.3361 8.52876 51.6128 8.69019ZM31.8602 21.4666C34.3509 22.9195 36.3803 24.1418 36.3803 24.1763C36.3803 24.2801 27.3285 29.4806 27.1555 29.4806C26.9941 29.4806 17.9307 24.2801 17.9307 24.1763C17.9307 24.061 26.9826 18.7798 27.1671 18.7914C27.2708 18.8029 29.381 20.0021 31.8602 21.4666ZM21.7936 28.7657L26.1754 31.291L26.21 35.4652C26.2215 37.7483 26.1985 39.6279 26.1639 39.6279C26.1177 39.6279 23.996 38.3941 21.4362 36.8951L16.7776 34.1622V30.0341V25.8945L17.1005 26.0674C17.2735 26.1597 19.3836 27.3704 21.7936 28.7657ZM37.5334 30.0341V34.1622L32.8749 36.8951C30.315 38.3941 28.1933 39.6279 28.1472 39.6279C28.1126 39.6279 28.0895 37.7483 28.1011 35.4652L28.1357 31.3025L32.8057 28.6043C35.3771 27.1168 37.4873 25.906 37.5104 25.906C37.5219 25.906 37.5334 27.7625 37.5334 30.0341ZM6.68799 45.0475C7.46057 45.428 7.55281 45.6932 7.55281 47.642C7.55281 49.5215 7.46057 49.8559 6.82636 50.2364C6.50349 50.4325 6.23828 50.4671 4.75078 50.4671C2.77897 50.4671 2.51376 50.3748 2.13324 49.6022C1.93721 49.1986 1.90262 48.8873 1.90262 47.6881C1.90262 45.9008 2.08711 45.3934 2.84816 45.0475C3.57461 44.7131 6.00766 44.7131 6.68799 45.0475ZM51.4629 45.0475C52.224 45.3934 52.4085 45.9008 52.4085 47.6881C52.4085 48.8873 52.3739 49.1986 52.1778 49.6022C51.7973 50.3863 51.5436 50.4671 49.468 50.4671H47.6577L47.208 50.0173L46.7583 49.5676V47.7573C46.7583 45.6817 46.8505 45.3934 47.6231 45.0359C48.3034 44.7246 50.7595 44.7246 51.4629 45.0475ZM29.1965 51.7355C29.9114 52.1621 29.9806 52.4043 29.9806 54.2723C29.9806 55.8059 29.9576 55.9789 29.7154 56.3594C29.3003 57.0282 28.9082 57.155 27.1671 57.155C25.4374 57.155 25.0338 57.0397 24.6072 56.4516C24.342 56.0827 24.3304 55.9673 24.3304 54.3299C24.3304 52.4043 24.3996 52.1621 25.1145 51.7355C25.4374 51.5394 25.7026 51.5048 27.1555 51.5048C28.6084 51.5048 28.8737 51.5394 29.1965 51.7355Z" fill="black"/>
</svg>
