<svg width="60" height="59" viewBox="0 0 60 59" fill="none" xmlns="http://www.w3.org/2000/svg">
<path d="M16.2188 0.150295C14.9894 0.531418 13.8829 1.52726 13.2559 2.79357L12.924 3.46975L12.8871 9.58001L12.8502 15.7026H8.54721C3.81391 15.7026 3.72785 15.7149 2.91642 16.4771C2.69513 16.6984 2.40006 17.0918 2.27712 17.3623C2.05582 17.8295 2.04353 18.518 2.04353 33.3817C2.04353 50.52 1.99435 49.3643 2.81807 50.2372C3.03937 50.4585 3.43278 50.7536 3.70326 50.8765C4.18273 51.0978 5.1048 51.1101 29.5827 51.1101C54.0606 51.1101 54.9827 51.0978 55.4622 50.8765C55.7327 50.7536 56.1261 50.4585 56.3474 50.2372C57.1711 49.3643 57.1219 50.52 57.1219 33.3817C57.1219 18.518 57.1096 17.8295 56.8883 17.3623C56.7654 17.0918 56.4703 16.6984 56.249 16.4771C55.4376 15.7149 55.3516 15.7026 50.6183 15.7026H46.3153L46.2784 9.58001L46.2415 3.46975L45.885 2.7321C45.4178 1.78543 44.4834 0.85107 43.5367 0.383888L42.7991 0.0273514L29.7671 0.00276566C19.1818 -0.00952911 16.6368 0.0150604 16.2188 0.150295ZM42.4303 2.21574C43.0941 2.5108 43.6966 3.11322 44.0162 3.77711C44.2621 4.31806 44.2744 4.51477 44.3113 10.0103L44.3482 15.7026H42.7991H41.2623L41.6311 14.9649C42.3319 13.5879 42.3688 13.2314 42.3688 8.60876C42.3688 4.55165 42.3565 4.37953 42.1229 4.14594C41.877 3.90005 41.7172 3.90005 33.1112 3.90005C24.788 3.90005 24.2839 3.91235 23.3864 4.14594C20.3374 4.92048 17.8171 7.44081 17.0426 10.4898C16.8458 11.252 16.7967 11.8545 16.7967 13.5757V15.7026H15.8008H14.8173L14.8542 10.0103C14.8911 3.71564 14.8788 3.81399 15.7271 2.9411C16.2065 2.43703 16.6491 2.19115 17.3253 2.05591C17.6081 2.00673 23.2635 1.96985 29.8901 1.96985C41.2008 1.99444 41.9631 2.00673 42.4303 2.21574ZM40.3648 9.21119C40.3279 11.3135 40.2542 12.7519 40.1681 13.0593C39.9345 13.8215 39.2706 14.8666 39.0493 14.8051C36.4921 14.0428 32.8161 13.1208 32.5825 13.1699C32.4227 13.2191 32.0785 13.5388 31.808 13.8953C31.1441 14.7682 30.4802 15.2354 29.3368 15.6411L28.8697 15.8132L29.0541 15.3583C29.6319 14.006 29.7548 12.4323 29.3368 12.0143C29.1401 11.8176 28.9311 11.7684 28.1566 11.7684C27.2345 11.7684 27.1853 11.793 23.6077 13.3175C21.4193 14.2641 19.944 14.9649 19.8702 15.1001C19.7965 15.2231 19.7473 15.555 19.7473 15.8378V16.3542L19.4891 16.1206C19.3416 15.9976 19.1449 15.7272 19.0465 15.5304C18.6285 14.7313 18.7392 11.9159 19.2432 10.4775C20.0915 8.08011 22.3414 6.29744 24.9109 5.99008C25.3535 5.9409 29.0172 5.89173 33.0743 5.87943L40.4263 5.86714L40.3648 9.21119ZM27.2468 14.1781C27.2468 14.3994 26.9026 14.8543 26.3124 15.4075C25.71 15.973 25.6486 16.0837 25.6486 16.5509C25.6486 17.6574 26.1526 17.9647 27.923 17.9524C29.8655 17.9401 31.476 17.2885 32.8038 15.9853L33.3817 15.4198L35.3856 15.9607L37.3896 16.5017L37.4265 19.6982C37.4634 23.0668 37.3527 24.8126 37.0208 25.8699L36.8241 26.5215H33.2095H29.5827V27.5051V28.4886H32.6317L35.6684 28.5009L34.9676 29.1648C34.1316 29.9516 33.0497 30.6032 32.0047 30.9721C30.9351 31.3286 28.8328 31.4147 27.7509 31.1319C24.9232 30.3942 22.7963 28.2673 22.0094 25.4028C21.825 24.7266 21.7882 24.0258 21.7882 20.5096L21.7759 16.4033L24.4191 15.26C27.087 14.1043 27.2468 14.0428 27.2468 14.1781ZM12.8625 19.3909C12.8625 21.6899 12.7764 21.6038 15.0755 21.6038H16.7967V21.9727C16.7967 23.1652 18.149 24.5422 19.317 24.5545C19.6858 24.5545 19.6981 24.579 19.8948 25.5134C20.2882 27.419 21.0505 28.882 22.3906 30.3082C23.2512 31.2302 24.1364 31.9064 25.1322 32.4105L25.6486 32.6687V33.7506L25.6363 34.8202L23.9519 36.0742L22.2553 37.3282L18.8252 37.3651L15.3828 37.402L14.6452 37.7585C13.6985 38.2257 12.7641 39.1601 12.297 40.1067L11.9404 40.8444L11.9035 44.9876L11.8667 49.143H8.48573C4.6868 49.143 4.39174 49.0938 4.14585 48.4054C3.94914 47.8275 3.94914 18.9851 4.14585 18.4073C4.39174 17.7188 4.61303 17.6819 8.96521 17.6697H12.8625V19.3909ZM18.2105 17.7926C18.2474 17.8541 18.0384 18.1245 17.731 18.4073C17.436 18.6778 17.1286 19.0712 17.0426 19.2679C16.895 19.6367 16.8827 19.6367 15.8623 19.6367H14.8296V18.6532V17.6697H16.477C17.3991 17.6697 18.1613 17.7188 18.2105 17.7926ZM44.3359 18.6532V19.6367H43.3154H42.3073L42.0614 19.1941C41.791 18.6778 41.1271 18.0754 40.5984 17.8418C40.2542 17.6942 40.4509 17.6819 42.2827 17.6697H44.3359V18.6532ZM54.4664 17.8418C54.7491 17.9524 54.9212 18.1368 55.0196 18.4073C55.2163 18.9851 55.2163 47.8275 55.0196 48.4054C54.7737 49.0938 54.4787 49.143 50.6797 49.143H47.2988L47.2619 44.9876L47.225 40.8444L46.8685 40.1067C46.4013 39.1601 45.4669 38.2257 44.5203 37.7585L43.7826 37.402L40.3402 37.3651L36.9101 37.3282L35.2135 36.0742L33.5292 34.8202L33.5169 33.7506V32.6687L34.0456 32.4105C35.4225 31.7097 36.8978 30.3942 37.7953 29.0787L38.1887 28.5132L40.4878 28.464C42.7622 28.4272 42.8114 28.4149 43.5367 28.0706C44.4834 27.6034 45.4178 26.6691 45.885 25.7224L46.2415 24.9848L46.2784 21.3211L46.3153 17.6697H50.188C53.2123 17.6697 54.1467 17.7065 54.4664 17.8418ZM19.7473 21.1121C19.7473 22.2308 19.7104 22.4644 19.5629 22.4644C19.2678 22.4644 18.9113 22.0218 18.8129 21.5546C18.6531 20.694 19.0465 19.7597 19.5629 19.7597C19.7104 19.7597 19.7473 19.9933 19.7473 21.1121ZM40.0206 19.9933C40.6722 20.6449 40.3648 22.4644 39.6026 22.4644C39.455 22.4644 39.4182 22.2308 39.4182 21.1121C39.4182 19.9933 39.455 19.7597 39.6026 19.7597C39.7009 19.7597 39.8976 19.8703 40.0206 19.9933ZM44.3113 22.8578C44.2375 24.284 44.0285 24.8987 43.4384 25.5257C42.7745 26.2142 42.1352 26.4232 40.4755 26.4969C39.1354 26.5461 39.0124 26.5338 39.0862 26.3494C39.1354 26.2388 39.2337 25.7839 39.3198 25.3536C39.455 24.579 39.4673 24.5545 39.8362 24.5545C41.0164 24.5422 42.3688 23.1652 42.3688 21.9727V21.6038H43.3646H44.3728L44.3113 22.8578ZM31.5498 34.5743C31.5498 35.2505 31.599 35.8775 31.6482 35.9513C31.6973 36.0373 32.3612 36.566 33.1235 37.1315C34.1316 37.8938 34.4636 38.2011 34.3529 38.2872C34.2668 38.3609 33.1604 39.0002 31.8941 39.7256L29.595 41.0411L27.4066 39.7871C26.2018 39.1109 25.0953 38.4593 24.9355 38.3609C24.6527 38.1888 24.665 38.1642 26.0297 37.1438C26.7919 36.5783 27.4681 36.0373 27.5173 35.9513C27.5665 35.8775 27.6156 35.2505 27.6156 34.5743V33.3449H29.5827H31.5498V34.5743ZM25.71 41.2747C28.3164 42.7623 29.2631 43.2418 29.5827 43.2418C29.9024 43.2418 30.849 42.7623 33.48 41.2624L36.947 39.283L39.9345 39.3322C42.4548 39.3691 42.9958 39.4059 43.4138 39.5904C44.0777 39.8854 44.6801 40.4756 44.9998 41.1517C45.2456 41.6681 45.2579 41.9386 45.2948 45.4179L45.344 49.143H29.5827H13.8215L13.8706 45.4179C13.9198 41.3116 13.9444 41.1394 14.7435 40.3157C15.5918 39.4305 16.0467 39.3445 19.5629 39.3199L22.2553 39.3076L25.71 41.2747Z" fill="black"/>
<path d="M5.97656 38.3241V39.3076H6.96011H7.94365V38.3241V37.3405H6.96011H5.97656V38.3241Z" fill="black"/>
<path d="M5.97656 42.2583V43.2418H6.96011H7.94365V42.2583V41.2747H6.96011H5.97656V42.2583Z" fill="black"/>
<path d="M5.97656 46.1925V47.176H6.96011H7.94365V46.1925V45.2089H6.96011H5.97656V46.1925Z" fill="black"/>
<path d="M51.2188 20.6203V21.6039H52.2023H53.1858V20.6203V19.6368H52.2023H51.2188V20.6203Z" fill="black"/>
<path d="M51.2188 24.5545V25.5381H52.2023H53.1858V24.5545V23.571H52.2023H51.2188V24.5545Z" fill="black"/>
<path d="M51.2188 28.4886V29.4722H52.2023H53.1858V28.4886V27.5051H52.2023H51.2188V28.4886Z" fill="black"/>
<path d="M0.321947 53.3231C-0.00999854 53.6551 0.01459 54.2083 0.432596 55.868C0.912073 57.7368 1.33008 58.3638 2.39968 58.8064C3.0144 59.0645 56.1503 59.0645 56.765 58.8064C57.8346 58.3638 58.2526 57.7368 58.7321 55.868C59.1501 54.2083 59.1747 53.6551 58.8427 53.3231C58.5969 53.0772 58.437 53.0772 45.8108 53.0772C33.1846 53.0772 33.0247 53.0772 32.7789 53.3231C32.5822 53.5198 32.533 53.7288 32.533 54.3067V55.0443H29.5823H26.6317V54.3067C26.6317 53.7288 26.5825 53.5198 26.3858 53.3231C26.1399 53.0772 25.9801 53.0772 13.3539 53.0772C0.727659 53.0772 0.567833 53.0772 0.321947 53.3231ZM24.6646 55.782C24.6646 56.3598 24.7138 56.5688 24.9105 56.7655L25.1564 57.0114L14.2268 56.9868C3.6537 56.9499 3.28487 56.9376 3.03898 56.7163C2.81769 56.5196 2.41198 55.4992 2.41198 55.1427C2.41198 55.0935 7.41575 55.0443 13.5383 55.0443H24.6646V55.782ZM56.7527 55.1427C56.7527 55.4992 56.347 56.5196 56.1257 56.7163C55.8798 56.9376 55.511 56.9499 44.9379 56.9868L34.0083 57.0114L34.2542 56.7655C34.4509 56.5688 34.5001 56.3598 34.5001 55.782V55.0443H45.6264C51.7489 55.0443 56.7527 55.0935 56.7527 55.1427Z" fill="black"/>
</svg>
