<svg width="46" height="57" viewBox="0 0 46 57" fill="none" xmlns="http://www.w3.org/2000/svg">
<path d="M9.62988 0.189259C9.20684 0.333984 8.46094 1.02422 4.86504 4.60899C1.425 8.03789 0.545508 8.97305 0.300586 9.46289L0 10.0752V29.8359V49.5967L0.233789 50.1088C0.834961 51.3891 1.80352 51.9902 3.4623 52.0793L4.50879 52.135V53.059C4.50879 54.3281 4.67578 54.985 5.15449 55.6863C5.46621 56.1316 5.74453 56.3654 6.27891 56.6326L6.98027 57H24.9152H42.8613L43.4291 56.7328C44.1305 56.41 44.6982 55.8533 45.0434 55.152L45.3105 54.6064V31.0049V7.40332L45.0768 6.89121C44.4756 5.61094 43.507 5.00977 41.8482 4.9207L40.8018 4.86504V3.94102C40.8018 2.67188 40.6348 2.01504 40.1561 1.31367C39.8443 0.868362 39.566 0.634571 39.0316 0.367386L38.3303 0L24.2361 0.0111351C11.8119 0.0111351 10.0752 0.0334015 9.62988 0.189259ZM38.2189 1.94824C38.4193 2.07071 38.6754 2.37129 38.7979 2.61621C39.0205 3.07266 39.0205 3.37325 39.0205 22.5996V42.1266L39.2654 42.3826C39.5994 42.7389 40.1672 42.7277 40.5234 42.3604L40.8018 42.0932V24.3809V6.67969H41.5031C42.3937 6.67969 43.0951 7.01367 43.3846 7.57031C43.5738 7.9377 43.585 8.90625 43.585 30.9381C43.585 53.6156 43.585 53.9273 43.3623 54.3838C43.2398 54.6287 42.9838 54.9293 42.7834 55.0518C42.416 55.2744 42.16 55.2744 24.9375 55.2744C7.71504 55.2744 7.45898 55.2744 7.0916 55.0518C6.53496 54.7178 6.29004 54.0943 6.29004 53.0145V52.1016L22.299 52.0793L38.2969 52.0459L38.9314 51.7342C39.6439 51.3779 40.1672 50.8436 40.5123 50.1088C40.7127 49.6635 40.7461 49.3295 40.7795 47.615C40.8129 46.2568 40.7795 45.5332 40.6904 45.3105C40.4455 44.7205 39.5437 44.6092 39.1875 45.1213C39.0539 45.3105 39.0205 45.7559 39.0205 47.2031C39.0205 49.3629 38.9314 49.6635 38.1299 50.0754L37.64 50.3203H20.373H3.10605L2.61621 50.0643C2.31562 49.9195 2.05957 49.6746 1.92598 49.4297C1.73672 49.0623 1.72559 48.2162 1.72559 29.925V10.7988H4.9875C8.67246 10.7988 9.10664 10.732 9.85254 10.0641C10.7209 9.27364 10.7432 9.17344 10.7432 5.27695C10.7432 3.37325 10.7766 1.78125 10.8211 1.73672C10.8656 1.70332 16.9664 1.68106 24.3697 1.69219C37.5732 1.72559 37.8627 1.72559 38.2189 1.94824ZM8.96191 5.72227C8.96191 8.32735 8.96191 8.33848 8.69473 8.6502L8.42754 8.96191L5.71113 8.99532L3.00586 9.02871L5.95605 6.06738C7.58145 4.44199 8.91738 3.11719 8.92852 3.11719C8.95078 3.11719 8.96191 4.28613 8.96191 5.72227Z" fill="#EF0303"/>
<path d="M29.1456 11.2441C28.6335 11.4557 28.4999 12.2684 28.923 12.6691C29.1234 12.8584 29.3349 12.9141 30.0363 12.9363L30.9046 12.9697L27.0972 15.9199C25.0042 17.5453 23.223 18.9035 23.145 18.9592C23.056 19.0148 22.3546 18.4582 21.0743 17.3004C18.5361 15.007 18.4025 14.918 17.7679 14.9291C17.4896 14.9291 17.1667 14.9625 17.0665 15.007C16.855 15.0961 6.92454 22.7555 6.54602 23.1229C6.00052 23.6461 6.4013 24.6035 7.15833 24.6035C7.50345 24.6035 7.7595 24.4477 8.68352 23.7352C9.29583 23.2564 11.5781 21.4863 13.7601 19.8053L17.7234 16.7326L19.9277 18.7143C22.1988 20.7627 22.5773 21.0076 23.2786 20.8963C23.7574 20.8184 23.5792 20.9408 28.3663 17.2336C30.5595 15.5303 32.3742 14.1387 32.3853 14.1387C32.3964 14.1387 32.3742 14.4059 32.3296 14.7176C32.1626 15.9199 32.2072 16.3318 32.5189 16.5768C32.8863 16.8662 33.3538 16.8773 33.6767 16.6102C33.9105 16.4209 33.955 16.176 34.2111 14.1498C34.5117 11.7006 34.4894 11.4445 33.9439 11.2441C33.5988 11.1105 29.4796 11.1105 29.1456 11.2441Z" fill="#EF0303"/>
<path d="M32.3854 19.0705C31.7397 19.449 29.7581 21.0967 29.6134 21.375C29.4686 21.6533 29.4464 22.6107 29.4464 27.7207V33.7324H28.1104H26.7745V29.8359C26.7745 25.65 26.7411 25.3828 26.2067 25.0043C26.062 24.9041 25.728 24.8261 25.4386 24.8261C24.971 24.8261 24.8374 24.9041 23.5794 25.8838C22.8446 26.4627 22.1321 27.0638 21.9985 27.2308C21.7759 27.5203 21.7647 27.6427 21.7647 30.6263V33.7324H20.3731H18.9815V28.3219V22.9113L18.603 22.5328C18.3024 22.2322 18.1354 22.1543 17.7903 22.1543C17.3005 22.1543 16.9888 22.3324 15.5415 23.4234C13.9272 24.6592 14.0274 24.4476 14.0274 26.407C14.0274 28.0213 14.0386 28.0769 14.2946 28.2885C14.6397 28.5668 15.2409 28.5668 15.5304 28.2773C15.7307 28.0769 15.753 27.9099 15.753 26.7967V25.5386L16.1204 25.2715C16.3097 25.1267 16.6436 24.8818 16.844 24.7371L17.2003 24.4699V29.1011V33.7324H16.4766H15.753V32.4633C15.753 30.9603 15.6306 30.7043 14.9292 30.7043C14.1722 30.7043 14.0386 30.9603 13.994 32.4521L13.9495 33.7324H12.6247H11.2999V31.439C11.2999 29.5799 11.2665 29.0789 11.1218 28.7783C10.8991 28.3107 10.3091 28.0101 9.79696 28.0992C9.40731 28.1771 6.80223 30.1588 6.46825 30.6263C6.32352 30.8379 6.29012 31.183 6.29012 32.3074V33.7324H5.53309C5.05438 33.7324 4.69813 33.7881 4.54227 33.8994C4.05243 34.2445 4.13036 35.1351 4.687 35.3912C5.08778 35.5693 35.6585 35.5693 36.0593 35.3912C36.6159 35.1351 36.6938 34.2445 36.204 33.8994C36.0481 33.7881 35.6919 33.7324 35.2132 33.7324H34.4561V26.8301C34.4561 19.3377 34.4673 19.5158 33.855 19.1039C33.5321 18.8924 32.7194 18.8701 32.3854 19.0705ZM32.6749 27.4424V33.7324H31.9513H31.2276V27.9656L31.2388 22.2099L31.929 21.6867C32.3075 21.3972 32.6304 21.1523 32.6526 21.1523C32.6638 21.1523 32.6749 23.9801 32.6749 27.4424ZM24.9932 30.4482V33.7324H24.2696H23.546V30.9715V28.1994L24.1917 27.6873C24.5368 27.409 24.8597 27.1752 24.9153 27.1752C24.9598 27.164 24.9932 28.6447 24.9932 30.4482ZM9.51864 32.1181V33.7324H8.795H8.07137V32.6414V31.5392L8.71707 31.0271C9.06219 30.7488 9.38504 30.515 9.44071 30.515C9.48524 30.5039 9.51864 31.2275 9.51864 32.1181Z" fill="#EF0303"/>
<path d="M4.77598 39.7441C4.46426 39.8666 4.1748 40.2785 4.1748 40.5902C4.1748 40.7238 4.275 40.9576 4.40859 41.1246L4.63125 41.4141H9.35156H14.0719L14.2945 41.1246C14.7064 40.6014 14.5395 39.9779 13.9271 39.7441C13.5598 39.6105 5.12109 39.5994 4.77598 39.7441Z" fill="#EF0303"/>
<path d="M4.49771 43.7408C4.13032 44.0414 4.13032 44.7984 4.49771 45.099C4.74263 45.2994 5.00981 45.3105 9.37388 45.3105H13.9829L14.25 45.0322C14.4282 44.8652 14.5284 44.6314 14.5284 44.4199C14.5284 44.2084 14.4282 43.9746 14.25 43.8076L13.9829 43.5293H9.37388C5.00981 43.5293 4.74263 43.5404 4.49771 43.7408Z" fill="#EF0303"/>
</svg>
