<svg width="468" height="417" viewBox="0 0 468 417" fill="none" xmlns="http://www.w3.org/2000/svg">
<path d="M456.153 379.466H419.456V379.742H456.153V379.466Z" fill="#EBEBEB"/>
<path d="M324.655 382.471H315.027V382.747H324.655V382.471Z" fill="#EBEBEB"/>
<path d="M418.347 369.216H397.085V369.492H418.347V369.216Z" fill="#EBEBEB"/>
<path d="M63.6436 371.072H15.7891V371.348H63.6436V371.072Z" fill="#EBEBEB"/>
<path d="M80.5295 371.072H73.5159V371.348H80.5295V371.072Z" fill="#EBEBEB"/>
<path d="M207.129 375.733H103.332V376.009H207.129V375.733Z" fill="#EBEBEB"/>
<path d="M220.27 312.43H6.32668C2.83648 312.43 0 309.602 0 306.123V6.30714C0 2.82772 2.83648 0 6.32668 0H220.281C223.772 0 226.608 2.82772 226.608 6.30714V306.123C226.597 309.602 223.761 312.43 220.27 312.43ZM6.32668 0.276144C2.9916 0.276144 0.277 2.98236 0.277 6.30714V306.123C0.277 309.447 2.9916 312.154 6.32668 312.154H220.281C223.617 312.154 226.331 309.447 226.331 306.123V6.30714C226.331 2.98236 223.617 0.276144 220.281 0.276144H6.32668Z" fill="#858585"/>
<path d="M459.931 312.43H245.976C242.486 312.43 239.649 309.602 239.649 306.123V6.30714C239.649 2.82772 242.486 0 245.976 0H459.931C463.421 0 466.258 2.82772 466.258 6.30714V306.123C466.258 309.602 463.421 312.43 459.931 312.43ZM245.976 0.276144C242.641 0.276144 239.926 2.98236 239.926 6.30714V306.123C239.926 309.447 242.641 312.154 245.976 312.154H459.931C463.266 312.154 465.981 309.447 465.981 306.123V6.30714C465.981 2.98236 463.266 0.276144 459.931 0.276144H245.976Z" fill="#858585"/>
<path d="M448.707 25.8693V21.1306L446.258 20.8987C445.926 19.3081 445.294 17.8279 444.43 16.5135L446.003 14.6136L442.635 11.2557L440.729 12.8242C439.411 11.9626 437.926 11.333 436.33 11.0017L436.098 8.56055H431.344L431.112 11.0017C429.516 11.333 428.031 11.9626 426.713 12.8242L424.807 11.2557L421.439 14.6136L423.012 16.5135C422.148 17.8279 421.516 19.3081 421.184 20.8987L418.735 21.1306V25.8693L421.184 26.1012C421.516 27.6918 422.148 29.172 423.012 30.4864L421.439 32.3863L424.807 35.7442L426.713 34.1757C428.031 35.0373 429.516 35.6669 431.112 35.9982L431.344 38.4394H436.098L436.33 35.9982C437.926 35.6669 439.411 35.0373 440.729 34.1757L442.635 35.7442L446.003 32.3863L444.43 30.4864C445.294 29.172 445.926 27.6918 446.258 26.1012L448.707 25.8693ZM433.738 29.912C430.181 29.912 427.3 27.0401 427.3 23.4944C427.3 19.9487 430.181 17.0768 433.738 17.0768C437.294 17.0768 440.175 19.9487 440.175 23.4944C440.175 27.0401 437.294 29.912 433.738 29.912Z" fill="#E0E0E0"/>
<path d="M467.997 39.2568V35.5343L466.08 35.3576C465.825 34.1094 465.327 32.9496 464.651 31.9224L465.881 30.4422L463.244 27.8134L461.759 29.0394C460.728 28.3656 459.565 27.8686 458.313 27.6145L458.136 25.7036H454.402L454.213 27.6145C452.961 27.8686 451.798 28.3656 450.768 29.0394L449.283 27.8134L446.646 30.4422L447.876 31.9224C447.2 32.9496 446.701 34.1094 446.446 35.3576L444.53 35.5343V39.2568L446.446 39.4335C446.701 40.6817 447.2 41.8415 447.876 42.8687L446.646 44.3489L449.283 46.9778L450.768 45.7517C451.798 46.4255 452.961 46.9225 454.213 47.1766L454.391 49.0875H458.125L458.302 47.1766C459.554 46.9225 460.717 46.4255 461.748 45.7517L463.233 46.9778L465.87 44.3489L464.64 42.8687C465.316 41.8415 465.814 40.6817 466.069 39.4335L467.997 39.2568ZM456.263 42.4269C453.471 42.4269 451.211 40.1736 451.211 37.39C451.211 34.6065 453.471 32.3532 456.263 32.3532C459.055 32.3532 461.316 34.6065 461.316 37.39C461.305 40.1736 459.044 42.4269 456.263 42.4269Z" fill="#E0E0E0"/>
<path d="M448.707 49.8055V46.6796L447.089 46.525C446.867 45.4756 446.458 44.5036 445.881 43.642L446.912 42.3938L444.696 40.1847L443.444 41.2119C442.58 40.6486 441.604 40.2289 440.552 40.0079L440.397 38.3953H437.261L437.106 40.0079C436.053 40.2289 435.078 40.6376 434.214 41.2119L432.995 40.1957L430.779 42.4049L431.81 43.6531C431.245 44.5146 430.824 45.4867 430.602 46.536L428.984 46.6906V49.8166L430.602 49.9712C430.824 51.0206 431.234 51.9926 431.81 52.8542L430.779 54.0913L432.995 56.3005L434.247 55.2732C435.112 55.8365 436.087 56.2563 437.139 56.4772L437.294 58.0899H440.43L440.585 56.4772C441.638 56.2563 442.613 55.8476 443.477 55.2732L444.729 56.3005L446.945 54.0913L445.915 52.8431C446.48 51.9816 446.901 51.0095 447.122 49.9602L448.707 49.8055ZM438.857 52.4786C436.519 52.4786 434.613 50.5898 434.613 48.2481C434.613 45.9174 436.508 44.0176 438.857 44.0176C441.195 44.0176 443.1 45.9064 443.1 48.2481C443.089 50.5788 441.195 52.4786 438.857 52.4786Z" fill="#E0E0E0"/>
<path d="M13.5841 360.667L38.3479 196.648V360.667H44.9959V195.621L69.7818 360.667H76.9063L45.8712 154.078L44.9959 154.199V147.483H38.3479V154.177L37.4282 154.078L6.32666 360.667H13.5841Z" fill="#E0E0E0"/>
<path d="M75.7317 176.987H7.23511L12.7862 119.924H70.1917L75.7317 176.987Z" fill="#EBEBEB"/>
<path d="M234.663 411.576C353.311 411.576 449.494 405.978 449.494 399.073C449.494 392.167 353.311 386.569 234.663 386.569C116.016 386.569 19.8333 392.167 19.8333 399.073C19.8333 405.978 116.016 411.576 234.663 411.576Z" fill="#F5F5F5"/>
<path d="M449.615 41.5983V263.894C449.615 269.219 444.94 273.99 439.61 273.99H118.756C113.426 273.99 109.459 269.219 109.459 263.894V41.5983C109.459 36.2853 113.426 32.0879 118.756 32.0879H439.61C444.94 32.0879 449.615 36.2853 449.615 41.5983Z" fill="#232323"/>
<path opacity="0.1" d="M449.615 69.3013V263.895C449.615 269.219 444.94 273.99 439.61 273.99H118.756C113.426 273.99 109.459 269.219 109.459 263.895V188.154C137.691 134.074 204.991 125.259 283.781 156.905C395.323 201.696 442.89 140.889 449.615 69.3013Z" fill="white"/>
<path opacity="0.2" d="M361.995 248.618H199.252C196.172 248.618 193.667 246.133 193.667 243.051C193.667 239.98 196.16 237.484 199.252 237.484H362.006C365.086 237.484 367.59 239.969 367.59 243.051C367.579 246.133 365.075 248.618 361.995 248.618Z" fill="#191919"/>
<path d="M199.252 247.481C196.781 247.481 194.775 245.526 194.775 243.062C194.775 240.599 196.781 238.644 199.252 238.644H295.482C297.952 238.644 299.958 240.599 299.958 243.062C299.958 245.526 297.952 247.481 295.482 247.481H199.252Z" fill="#232323"/>
<path opacity="0.7" d="M199.252 247.481C196.781 247.481 194.775 245.526 194.775 243.062C194.775 240.599 196.781 238.644 199.252 238.644H295.482C297.952 238.644 299.958 240.599 299.958 243.062C299.958 245.526 297.952 247.481 295.482 247.481H199.252Z" fill="white"/>
<path d="M134.866 256.604C145.192 264.878 141.591 304.366 143.53 310.441C145.469 316.517 153.779 321.509 153.779 321.509L142.19 335.04C142.19 335.04 132.495 333.361 125.138 317.621C117.769 301.881 134.866 256.604 134.866 256.604Z" fill="#3E3E3E"/>
<path opacity="0.2" d="M134.866 256.604C145.192 264.878 141.591 304.366 143.53 310.441C145.469 316.517 153.779 321.509 153.779 321.509L142.19 335.04C142.19 335.04 132.495 333.361 125.138 317.621C117.769 301.881 134.866 256.604 134.866 256.604Z" fill="#191919"/>
<path d="M123.897 343.303C123.897 343.303 198.099 322.658 207.418 348.616C216.736 374.573 149.369 395.273 112.085 396.543C74.8011 397.813 59.5883 371.745 70.5796 346.97L123.897 343.303Z" fill="#232323"/>
<path opacity="0.2" d="M123.897 343.303C123.897 343.303 198.099 322.658 207.418 348.616C216.736 374.573 149.369 395.273 112.085 396.543C74.8011 397.813 59.5883 371.745 70.5796 346.97L123.897 343.303Z" fill="#191919"/>
<path d="M196.626 385.321C196.537 385.376 196.426 385.365 196.349 385.31C196.271 385.254 196.249 385.166 196.282 385.078C196.404 384.669 197.634 381.09 198.886 380.715C199.152 380.648 199.44 380.737 199.628 380.936C199.983 381.223 200.149 381.687 200.072 382.14C199.872 382.813 199.462 383.399 198.908 383.818C198.199 384.393 197.435 384.901 196.626 385.321ZM196.947 384.636C198.11 384.128 199.052 383.222 199.606 382.084C199.673 381.775 199.551 381.455 199.285 381.267C199.219 381.179 199.097 381.145 198.997 381.179C198.886 381.212 198.797 381.267 198.709 381.344C197.922 382.327 197.324 383.443 196.947 384.636Z" fill="#232323"/>
<path d="M196.559 385.365C196.47 385.398 196.382 385.365 196.326 385.299C196.216 385.199 194.487 383.034 194.775 381.565C194.842 381.201 195.063 380.88 195.374 380.67C195.639 380.416 196.061 380.372 196.371 380.582C197.268 381.212 197.157 384.117 196.714 385.21L196.681 385.321C196.637 385.354 196.603 385.365 196.559 385.365ZM195.573 381.123C195.418 381.256 195.307 381.444 195.274 381.642C195.097 382.57 195.961 383.951 196.426 384.625C196.714 383.388 196.615 381.355 196.094 380.991C196.038 380.958 195.928 380.88 195.662 381.068L195.573 381.123Z" fill="#232323"/>
<path d="M120.983 398.465C121.005 398.366 121.082 398.289 121.182 398.278C121.271 398.267 121.359 398.311 121.393 398.388C121.603 398.764 123.298 402.144 122.7 403.292C122.556 403.524 122.301 403.679 122.024 403.668C121.57 403.712 121.127 403.513 120.861 403.149C120.517 402.541 120.384 401.834 120.473 401.138C120.551 400.244 120.728 399.338 120.983 398.465ZM121.249 399.172C120.805 400.354 120.794 401.658 121.215 402.85C121.393 403.116 121.714 403.248 122.024 403.193C122.135 403.204 122.246 403.149 122.29 403.049C122.334 402.95 122.368 402.839 122.368 402.729C122.224 401.481 121.836 400.277 121.249 399.172Z" fill="#232323"/>
<path d="M138.965 373.48L125.836 383.079L119.52 387.685L123.642 394.842L130.046 391.352L145.68 382.836L138.965 373.48Z" fill="#EBB376"/>
<path d="M125.681 394.632L121.714 385.917C121.492 385.431 120.916 385.221 120.429 385.453L116.163 387.541C116.163 387.541 110.213 389.938 109.47 391.86C107.288 397.493 115.553 416.989 118.135 417C119.077 417 119.642 415.542 119.775 414.614C120.196 411.665 120.262 404.231 120.639 401.779C121.082 398.907 123.996 396.687 125.348 395.814C125.736 395.549 125.869 395.052 125.681 394.632Z" fill="#3E3E3E"/>
<path d="M120.994 398.388C121.027 398.311 121.116 398.255 121.204 398.266C121.359 398.255 124.118 398.542 124.96 399.769C125.171 400.078 125.26 400.453 125.182 400.818C125.182 401.193 124.916 401.514 124.55 401.591C123.465 401.79 121.47 399.68 120.983 398.598L120.927 398.498C120.949 398.454 120.972 398.421 120.994 398.388ZM124.728 400.663C124.739 400.453 124.683 400.255 124.561 400.089C124.019 399.316 122.423 398.962 121.625 398.83C122.312 399.901 123.83 401.26 124.462 401.138C124.528 401.116 124.661 401.105 124.717 400.785L124.728 400.663Z" fill="#232323"/>
<path opacity="0.2" d="M138.966 373.48L125.836 383.079L130.046 391.352L145.68 382.836L138.966 373.48Z" fill="#191919"/>
<path d="M133.049 391.893L137.359 390.943L130.19 377.291L126.179 381.355L133.049 391.893Z" fill="#232323"/>
<path opacity="0.6" d="M133.049 391.893L137.359 390.943L130.19 377.291L126.179 381.355L133.049 391.893Z" fill="white"/>
<path d="M166.134 390.004L182.2 392.644L189.922 393.903L192.172 385.961L185.191 383.852L168.139 378.682L166.134 390.004Z" fill="#EBB376"/>
<path d="M190.598 384.658L187.119 393.583C186.931 394.08 187.185 394.643 187.684 394.82L192.171 396.4C192.171 396.4 198.055 398.962 199.95 398.145C205.512 395.759 213.7 376.23 211.905 374.386C211.24 373.712 209.811 374.33 209.046 374.894C206.642 376.661 201.268 381.808 199.241 383.255C196.869 384.956 193.246 384.426 191.673 384.084C191.219 383.984 190.764 384.227 190.598 384.658Z" fill="#3E3E3E"/>
<path opacity="0.2" d="M166.134 390.004L182.2 392.644L185.191 383.852L168.139 378.682L166.134 390.004Z" fill="#191919"/>
<path d="M182.421 382.184C182.421 382.184 115.631 342.916 93.0276 343.954C70.4244 344.993 68.4522 367.427 77.7705 379.864C87.0998 392.302 104.318 395.328 104.318 395.328C104.318 395.328 92.5955 378.815 94.2907 374.164C95.986 369.514 102.446 385.144 102.446 385.144C102.446 385.144 143.829 390.545 179.873 393.594L182.421 382.184Z" fill="#232323"/>
<path d="M183.474 381.179L179.773 378.693L175.009 393.285H180.726L183.474 381.179Z" fill="#232323"/>
<path opacity="0.6" d="M183.474 381.179L179.773 378.693L175.009 393.285H180.726L183.474 381.179Z" fill="white"/>
<path d="M132.605 350.206C120.528 327.01 124.373 291.719 134.877 256.604C127.564 250.518 98.3904 246.409 76.1085 252.86C76.1085 252.86 61.9926 305.007 63.6546 361.97L132.605 350.206Z" fill="#3E3E3E"/>
<path d="M106.944 262.304C97.2271 262.304 90.9004 252.142 90.9004 252.142C103.642 247.69 103.687 234.281 103.687 234.281L108.595 239.064L115.587 245.89C109.77 249.999 112.517 253.556 114.368 255.135C115.033 255.721 115.587 256.041 115.587 256.041C115.587 256.041 116.661 262.304 106.944 262.304Z" fill="#EBB376"/>
<path opacity="0.2" d="M114.368 255.135C102.446 256.472 103.254 238.677 103.254 238.677C105.149 238.655 106.933 238.788 108.595 239.064L115.587 245.89C109.77 249.999 112.517 253.556 114.368 255.135Z" fill="#191919"/>
<path d="M123.675 220.927C119.154 222.793 120.019 227.709 127.509 236.656C132.118 232.701 134.622 223.688 132.195 220.794C129.791 217.9 127.619 219.325 123.675 220.927Z" fill="#3E3E3E"/>
<path d="M130.345 240.853C130.345 240.853 130.345 240.864 130.334 240.886C129.902 242.146 129.414 243.327 128.894 244.399C124.439 253.445 111.631 255.202 105.958 246.255C105.936 246.221 105.914 246.199 105.892 246.166C102.147 240.146 103.554 234.524 105.116 224.782C105.426 222.716 106.213 220.761 107.421 219.049C111.697 212.963 120.107 211.482 126.212 215.746C133.647 220.893 133.204 232.536 130.345 240.853Z" fill="#EBB376"/>
<path d="M117.116 227.289C117.016 227.278 116.916 227.234 116.839 227.156C116.672 226.958 116.694 226.659 116.883 226.494C118.024 225.477 119.575 225.091 121.06 225.433C121.304 225.499 121.448 225.743 121.392 225.986C121.392 225.997 121.381 226.008 121.381 226.019C121.304 226.262 121.049 226.394 120.794 226.339C119.62 226.085 118.401 226.405 117.503 227.212C117.393 227.289 117.248 227.311 117.116 227.289Z" fill="#3E3E3E"/>
<path d="M132.561 230.547C132.384 230.503 132.24 230.371 132.196 230.194C131.952 229.023 131.165 228.029 130.068 227.532C129.824 227.444 129.703 227.167 129.78 226.924C129.869 226.681 130.135 226.56 130.378 226.637C131.774 227.245 132.794 228.482 133.104 229.973C133.159 230.227 133.015 230.47 132.761 230.536C132.761 230.536 132.761 230.536 132.75 230.536C132.705 230.558 132.639 230.558 132.561 230.547Z" fill="#3E3E3E"/>
<path d="M110.878 217.127C115.033 219.678 113.393 224.395 104.573 232.039C100.651 227.399 99.6203 218.099 102.479 215.636C105.338 213.172 107.243 214.907 110.878 217.127Z" fill="#3E3E3E"/>
<path d="M98.8003 231.442C98.9443 233.916 100.075 236.236 101.936 237.893C104.418 240.058 107.077 238.18 107.576 235.109C108.019 232.337 107.265 227.874 104.207 226.902C101.138 225.919 98.6341 228.404 98.8003 231.442Z" fill="#EBB376"/>
<path d="M115.586 239.848C115.586 239.848 116.606 243.36 121.326 244.167" stroke="#3E3E3E" stroke-width="0.5572" stroke-miterlimit="10" stroke-linecap="round" stroke-linejoin="round"/>
<path d="M124.074 232.425C124.074 234.27 122.567 235.772 120.717 235.772C118.866 235.772 117.359 234.27 117.359 232.425C117.359 230.581 118.866 229.078 120.717 229.078C122.567 229.078 124.074 230.57 124.074 232.425Z" stroke="#3E3E3E" stroke-width="0.5572" stroke-miterlimit="10" stroke-linecap="round" stroke-linejoin="round"/>
<path d="M133.126 234.281C133.126 236.125 131.619 237.628 129.769 237.628C127.918 237.628 126.412 236.125 126.412 234.281C126.412 232.436 127.918 230.934 129.769 230.934C131.619 230.923 133.126 232.425 133.126 234.281Z" stroke="#3E3E3E" stroke-width="0.5572" stroke-miterlimit="10" stroke-linecap="round" stroke-linejoin="round"/>
<path d="M124.074 233.32C124.074 233.32 125.636 232.558 126.412 233.939" stroke="#3E3E3E" stroke-width="0.5572" stroke-miterlimit="10" stroke-linecap="round" stroke-linejoin="round"/>
<path d="M117.426 231.74C117.426 231.74 107.797 227.697 106.002 227.3" stroke="#3E3E3E" stroke-width="0.5572" stroke-miterlimit="10" stroke-linecap="round" stroke-linejoin="round"/>
<path d="M102.379 215.768C102.379 215.768 101.382 207.97 109.371 206.677C117.359 205.385 127.808 207.384 131.043 206.004C131.043 206.004 130.611 208.478 128.75 209.395C128.75 209.395 134.844 211.637 139.641 209.704C139.641 209.704 137.558 215.459 134.866 217.668H137.159C137.159 217.668 132.616 221.998 127.088 222.086C121.559 222.175 116.351 214.586 110.878 217.138C105.393 219.678 102.379 215.768 102.379 215.768Z" fill="#3E3E3E"/>
<path opacity="0.2" d="M80.5295 329.771L103.509 355.166C103.509 355.166 128.916 354.602 159.752 369.636C159.752 369.636 192.847 356.005 195.895 344.683C198.93 333.361 126.412 341.37 126.412 341.37L80.5295 329.771Z" fill="#191919"/>
<path d="M87.0223 322.316L123.863 334.322C123.863 334.322 137.026 331.428 139.375 331.428C141.724 331.428 150.821 338.796 145.68 341.37C140.539 343.943 126.5 344.264 124.971 343.446C123.442 342.629 82.5903 333.085 82.5903 333.085L87.0223 322.316Z" fill="#EBB376"/>
<path d="M76.0975 252.86C84.4296 251.247 69.9702 301.881 73.5158 309.337C77.0503 316.793 90.9004 321.509 90.9004 321.509L84.5294 335.527C84.5294 335.527 65.6933 331.981 55.4443 319.002C45.1953 306.023 62.4912 255.489 76.0975 252.86Z" fill="#3E3E3E"/>
<path opacity="0.2" d="M76.0975 252.86C84.4296 251.247 69.9702 301.881 73.5158 309.337C77.0503 316.793 90.9004 321.509 90.9004 321.509L84.5294 335.527C84.5294 335.527 65.6933 331.981 55.4443 319.002C45.1953 306.023 62.4912 255.489 76.0975 252.86Z" fill="#191919"/>
<path d="M90.9003 320.383L83.1443 335.526L89.7923 336.951L95.8863 323L90.9003 320.383Z" fill="#3E3E3E"/>
<path opacity="0.2" d="M90.9003 320.383L83.1443 335.526L89.7923 336.951L95.8863 323L90.9003 320.383Z" fill="white"/>
<path d="M106.135 341.37V343.778C106.135 345.401 107.487 346.893 109.127 346.893H198.199C199.839 346.893 201.423 345.401 201.423 343.778V341.37H106.135Z" fill="#3E3E3E"/>
<path opacity="0.2" d="M106.135 341.37V343.778C106.135 345.401 107.487 346.893 109.127 346.893H198.199C199.839 346.893 201.423 345.401 201.423 343.778V341.37H106.135Z" fill="white"/>
<path opacity="0.2" d="M139.375 341.37V343.778C139.375 345.401 140.749 346.893 142.378 346.893H198.199C199.839 346.893 201.423 345.401 201.423 343.778V341.37H139.375Z" fill="white"/>
<path d="M142.378 344.683H201.224C203.03 344.683 204.947 343.27 205.501 341.535L218.996 299.341C219.55 297.606 218.542 296.082 216.736 296.082H157.89C156.084 296.082 154.167 297.606 153.613 299.341L140.118 341.491C139.564 343.214 140.572 344.683 142.378 344.683Z" fill="#3E3E3E"/>
<path opacity="0.2" d="M142.378 344.683H201.224C203.03 344.683 204.947 343.27 205.501 341.535L218.996 299.341C219.55 297.606 218.542 296.082 216.736 296.082H157.89C156.084 296.082 154.167 297.606 153.613 299.341L140.118 341.491C139.564 343.214 140.572 344.683 142.378 344.683Z" fill="white"/>
<path opacity="0.2" d="M144.594 344.683H201.224C203.03 344.683 204.947 343.27 205.501 341.535L218.996 299.341C219.55 297.606 218.542 296.082 216.736 296.082H160.106C158.3 296.082 156.383 297.606 155.829 299.341L142.334 341.491C141.78 343.214 142.788 344.683 144.594 344.683Z" fill="white"/>
<path opacity="0.2" d="M185.158 315.755L177.014 321.498L180.537 327.253L188.681 321.498L185.158 315.755Z" fill="white"/>
<path opacity="0.2" d="M225.921 136.393H151.408C146.056 136.393 141.724 132.074 141.724 126.739V52.4565C141.724 47.1214 146.056 42.8025 151.408 42.8025H225.921C231.273 42.8025 235.605 47.1214 235.605 52.4565V126.739C235.605 132.074 231.273 136.393 225.921 136.393Z" fill="#191919"/>
<path d="M238.597 110.955H176.161C171.673 110.955 168.039 107.332 168.039 102.858V40.6154C168.039 36.1418 171.673 32.5188 176.161 32.5188H238.597C243.084 32.5188 246.718 36.1418 246.718 40.6154V102.858C246.718 107.332 243.084 110.955 238.597 110.955Z" fill="#232323"/>
<path opacity="0.3" d="M238.597 110.955H176.161C171.673 110.955 168.039 107.332 168.039 102.858V40.6154C168.039 36.1418 171.673 32.5188 176.161 32.5188H238.597C243.084 32.5188 246.718 36.1418 246.718 40.6154V102.858C246.718 107.332 243.084 110.955 238.597 110.955Z" fill="white"/>
<path d="M213.445 62.6847V57.9461L210.996 57.7141C210.664 56.1235 210.032 54.6434 209.168 53.3289L210.742 51.4291L207.373 48.0711L205.467 49.6396C204.149 48.7781 202.664 48.1485 201.069 47.8171L200.836 45.376H196.083L195.85 47.8171C194.254 48.1485 192.77 48.7781 191.451 49.6396L189.545 48.0711L186.177 51.4291L187.751 53.3289C186.886 54.6434 186.255 56.1235 185.922 57.7141L183.474 57.9461V62.6847L185.922 62.9167C186.255 64.5072 186.886 65.9874 187.751 67.3018L186.177 69.2017L189.545 72.5596L191.451 70.9911C192.77 71.8527 194.254 72.4823 195.85 72.8137L196.083 75.2548H200.836L201.069 72.8137C202.664 72.4823 204.149 71.8527 205.467 70.9911L207.373 72.5596L210.742 69.2017L209.168 67.3018C210.032 65.9874 210.664 64.5072 210.996 62.9167L213.445 62.6847ZM198.476 66.7385C194.919 66.7385 192.038 63.8666 192.038 60.3209C192.038 56.7752 194.919 53.9033 198.476 53.9033C202.033 53.9033 204.913 56.7752 204.913 60.3209C204.913 63.8666 202.033 66.7385 198.476 66.7385Z" fill="white"/>
<path d="M232.724 76.0722V72.3498L230.807 72.173C230.553 70.9249 230.054 69.7651 229.378 68.7378L230.608 67.2577L227.971 64.6288L226.486 65.8549C225.456 65.1811 224.292 64.684 223.04 64.43L222.863 62.519H219.129L218.952 64.43C217.7 64.684 216.536 65.1811 215.506 65.8549L214.021 64.6288L211.384 67.2577L212.614 68.7378C211.938 69.7651 211.439 70.9249 211.185 72.173L209.268 72.3498V76.0722L211.185 76.2489C211.439 77.4971 211.938 78.6569 212.614 79.6842L211.384 81.1643L214.021 83.7932L215.506 82.5671C216.536 83.2409 217.7 83.738 218.952 83.992L219.129 85.9029H222.863L223.04 83.992C224.292 83.738 225.456 83.2409 226.486 82.5671L227.971 83.7932L230.608 81.1643L229.378 79.6842C230.054 78.6569 230.553 77.4971 230.807 76.2489L232.724 76.0722ZM220.99 79.2534C218.198 79.2534 215.938 77.0001 215.938 74.2165C215.938 71.433 218.198 69.1796 220.99 69.1796C223.783 69.1796 226.043 71.433 226.043 74.2165C226.043 77.0001 223.783 79.2534 220.99 79.2534Z" fill="white"/>
<path d="M213.445 86.632V83.506L211.827 83.3514C211.606 82.302 211.196 81.33 210.62 80.4684L211.65 79.2203L209.434 77.0111L208.182 78.0384C207.318 77.475 206.343 77.0553 205.29 76.8344L205.135 75.2217H201.999L201.844 76.8344C200.792 77.0553 199.817 77.464 198.952 78.0384L197.7 77.0111L195.484 79.2203L196.515 80.4684C195.95 81.33 195.529 82.302 195.307 83.3514L193.689 83.506V86.632L195.307 86.7866C195.529 87.836 195.939 88.808 196.515 89.6696L195.484 90.9177L197.7 93.1269L198.952 92.0996C199.817 92.663 200.792 93.0827 201.844 93.3036L201.999 94.9163H205.135L205.29 93.3036C206.343 93.0827 207.318 92.674 208.182 92.0996L209.434 93.1269L211.65 90.9177L210.62 89.6696C211.185 88.808 211.606 87.836 211.827 86.7866L213.445 86.632ZM203.595 89.294C201.257 89.294 199.351 87.4052 199.351 85.0635C199.351 82.7328 201.246 80.8329 203.595 80.8329C205.933 80.8329 207.839 82.7218 207.839 85.0635C207.828 87.4052 205.933 89.294 203.595 89.294Z" fill="white"/>
<path opacity="0.2" d="M241.932 110.955H179.496C175.009 110.955 171.374 107.332 171.374 102.858V40.6154C171.374 36.1418 175.009 32.5188 179.496 32.5188H241.932C246.419 32.5188 250.053 36.1418 250.053 40.6154V102.858C250.042 107.332 246.408 110.955 241.932 110.955Z" fill="white"/>
<path opacity="0.2" d="M361.252 220.164H292.368C287.426 220.164 283.415 216.166 283.415 211.239V142.568C283.415 137.641 287.426 133.643 292.368 133.643H361.252C366.194 133.643 370.205 137.641 370.205 142.568V211.239C370.205 216.166 366.194 220.164 361.252 220.164Z" fill="#191919"/>
<path d="M370.438 201.508H312.722C308.578 201.508 305.221 198.161 305.221 194.03V136.493C305.221 132.362 308.578 129.015 312.722 129.015H370.438C374.582 129.015 377.939 132.362 377.939 136.493V194.03C377.939 198.161 374.582 201.508 370.438 201.508Z" fill="#232323"/>
<path opacity="0.2" d="M370.438 201.508H312.722C308.578 201.508 305.221 198.161 305.221 194.03V136.493C305.221 132.362 308.578 129.015 312.722 129.015H370.438C374.582 129.015 377.939 132.362 377.939 136.493V194.03C377.939 198.161 374.582 201.508 370.438 201.508Z" fill="white"/>
<path d="M344.344 176.909C344.344 178.356 343.17 179.527 341.718 179.527C340.267 179.527 339.092 178.356 339.092 176.909C339.092 175.462 340.267 174.291 341.718 174.291C343.17 174.291 344.344 175.462 344.344 176.909Z" fill="white"/>
<path d="M341.508 150.797C327.104 150.797 315.437 162.428 315.437 176.788H336.256C336.256 173.474 338.605 171.662 341.508 171.662C342.062 171.662 342.571 171.817 343.07 171.961L352.832 160.661L345.94 174.026C346.449 174.832 346.76 175.683 346.76 176.788H367.579C367.579 162.428 355.901 150.797 341.508 150.797Z" fill="white"/>
<path opacity="0.2" d="M373.507 201.508H315.791C311.647 201.508 308.29 198.161 308.29 194.03V136.493C308.29 132.362 311.647 129.015 315.791 129.015H373.507C377.651 129.015 381.008 132.362 381.008 136.493V194.03C381.019 198.161 377.651 201.508 373.507 201.508Z" fill="white"/>
<path opacity="0.2" d="M382.404 140.403H321.974C317.63 140.403 314.118 136.901 314.118 132.571V72.3166C314.118 67.9866 317.63 64.4851 321.974 64.4851H382.404C386.747 64.4851 390.26 67.9866 390.26 72.3166V132.56C390.26 136.89 386.747 140.403 382.404 140.403Z" fill="#191919"/>
<path d="M391.755 121.404H341.12C337.486 121.404 334.538 118.466 334.538 114.843V64.3637C334.538 60.7407 337.486 57.8025 341.12 57.8025H391.755C395.39 57.8025 398.337 60.7407 398.337 64.3637V114.843C398.337 118.466 395.39 121.404 391.755 121.404Z" fill="#232323"/>
<path opacity="0.1" d="M391.755 121.404H341.12C337.486 121.404 334.538 118.466 334.538 114.843V64.3637C334.538 60.7407 337.486 57.8025 341.12 57.8025H391.755C395.39 57.8025 398.337 60.7407 398.337 64.3637V114.843C398.337 118.466 395.39 121.404 391.755 121.404Z" fill="white"/>
<path d="M384.243 73.9404C384.243 72.7806 383.301 71.8528 382.149 71.8528H350.881C349.718 71.8528 348.787 72.7917 348.787 73.9404V80.7999C348.787 81.9597 349.729 82.8875 350.881 82.8875H382.149C383.312 82.8875 384.243 81.9486 384.243 80.7999V73.9404ZM373.917 77.6629H372.122V75.8734H373.917V77.6629ZM378.714 78.5576C377.717 78.5576 376.919 77.7512 376.919 76.7681C376.919 75.774 377.728 74.9787 378.714 74.9787C379.711 74.9787 380.509 75.7851 380.509 76.7681C380.509 77.7512 379.711 78.5576 378.714 78.5576Z" fill="white"/>
<path d="M384.243 86.0908C384.243 84.931 383.301 84.0032 382.149 84.0032H350.881C349.718 84.0032 348.787 84.9421 348.787 86.0908V92.9502C348.787 94.1101 349.729 95.0379 350.881 95.0379H382.149C383.312 95.0379 384.243 94.099 384.243 92.9502V86.0908ZM373.917 90.4981H372.122V88.7087H373.917V90.4981ZM378.714 91.3928C377.717 91.3928 376.919 90.5865 376.919 89.6034C376.919 88.6093 377.728 87.814 378.714 87.814C379.711 87.814 380.509 88.6203 380.509 89.6034C380.509 90.5975 379.711 91.3928 378.714 91.3928Z" fill="white"/>
<path d="M384.243 98.2412C384.243 97.0814 383.301 96.1536 382.149 96.1536H350.881C349.718 96.1536 348.787 97.0925 348.787 98.2412V105.101C348.787 106.26 349.729 107.188 350.881 107.188H382.149C383.312 107.188 384.243 106.249 384.243 105.101V98.2412ZM373.917 103.344H372.122V101.555H373.917V103.344ZM378.714 104.239C377.717 104.239 376.919 103.433 376.919 102.45C376.919 101.456 377.728 100.66 378.714 100.66C379.711 100.66 380.509 101.467 380.509 102.45C380.509 103.433 379.711 104.239 378.714 104.239Z" fill="white"/>
<path opacity="0.2" d="M394.448 121.404H343.812C340.178 121.404 337.231 118.466 337.231 114.843V64.3637C337.231 60.7407 340.178 57.8025 343.812 57.8025H394.448C398.082 57.8025 401.03 60.7407 401.03 64.3637V114.843C401.03 118.466 398.082 121.404 394.448 121.404Z" fill="white"/>
<path opacity="0.2" d="M274.108 216.873H199.595C194.243 216.873 189.911 212.554 189.911 207.219V132.936C189.911 127.601 194.243 123.282 199.595 123.282H274.108C279.46 123.282 283.792 127.601 283.792 132.936V207.219C283.803 212.554 279.46 216.873 274.108 216.873Z" fill="#191919"/>
<path d="M282.496 195.079H220.06C215.572 195.079 211.938 191.456 211.938 186.983V124.74C211.938 120.266 215.572 116.643 220.06 116.643H282.496C286.983 116.643 290.617 120.266 290.617 124.74V186.983C290.606 191.456 286.972 195.079 282.496 195.079Z" fill="#232323"/>
<path opacity="0.5" d="M282.496 195.079H220.06C215.572 195.079 211.938 191.456 211.938 186.983V124.74C211.938 120.266 215.572 116.643 220.06 116.643H282.496C286.983 116.643 290.617 120.266 290.617 124.74V186.983C290.606 191.456 286.972 195.079 282.496 195.079Z" fill="white"/>
<path d="M229.511 177.406C227.107 175.009 227.107 171.132 229.511 168.735L243.86 154.431C245.211 153.084 247.405 153.084 248.768 154.431L252.557 158.209C253.909 159.556 253.909 161.743 252.557 163.102L238.209 177.406C235.804 179.792 231.915 179.792 229.511 177.406Z" fill="white"/>
<path d="M255.948 153.857L253.123 151.051L269.333 134.891L272.867 134.184L272.158 137.697L255.948 153.857Z" fill="white"/>
<path d="M254.352 157.612L249.355 152.631C248.912 152.189 248.912 151.46 249.355 151.018C249.799 150.576 250.53 150.576 250.973 151.018L255.97 156C256.413 156.441 256.413 157.17 255.97 157.612C255.527 158.054 254.807 158.054 254.352 157.612Z" fill="white"/>
<path d="M247.638 148.08L240.802 141.242C242.087 137.829 239.505 133.632 236.702 132.516L236.647 137.774C236.647 138.989 235.627 140.005 234.408 140.005C233.19 140.005 232.17 139.033 232.17 137.818L232.181 132.604C229.965 133.466 227.639 135.973 227.627 138.956C227.627 142.336 230.264 145.086 233.544 145.539C234.685 145.694 235.76 145.561 236.846 145.075L243.738 151.957L247.638 148.08Z" fill="white"/>
<path d="M270.396 174.004L270.385 179.218C272.601 178.356 274.928 175.849 274.939 172.866C274.939 169.486 272.446 166.592 269.166 166.128C268.025 165.974 267.094 165.963 266.008 166.449L258.851 159.291L254.928 163.201L262.042 170.304C259.981 174.501 263.194 178.058 265.997 179.173L265.975 173.982C265.975 172.767 266.961 171.784 268.18 171.784C269.41 171.784 270.396 172.789 270.396 174.004Z" fill="white"/>
<path opacity="0.2" d="M285.82 195.079H223.384C218.896 195.079 215.262 191.456 215.262 186.983V124.74C215.262 120.266 218.896 116.643 223.384 116.643H285.82C290.307 116.643 293.941 120.266 293.941 124.74V186.983C293.93 191.456 290.296 195.079 285.82 195.079Z" fill="white"/>
<path d="M265.953 102.461H341.209C346.616 102.461 350.992 98.0976 350.992 92.7072V17.6843C350.992 12.294 346.616 7.93091 341.209 7.93091H265.953C260.546 7.93091 256.17 12.294 256.17 17.6843V92.7072C256.17 98.0976 260.557 102.461 265.953 102.461Z" fill="#232323"/>
<path opacity="0.2" d="M335.779 135.764H245.965C239.516 135.764 234.287 130.55 234.287 124.121V34.5954C234.287 28.1667 239.516 22.9531 245.965 22.9531H335.779C342.228 22.9531 347.458 28.1667 347.458 34.5954V124.132C347.458 130.55 342.228 135.764 335.779 135.764Z" fill="#191919"/>
<path opacity="0.5" d="M265.953 102.461H341.209C346.616 102.461 350.992 98.0976 350.992 92.7072V17.6843C350.992 12.294 346.616 7.93091 341.209 7.93091H265.953C260.546 7.93091 256.17 12.294 256.17 17.6843V92.7072C256.17 98.0976 260.557 102.461 265.953 102.461Z" fill="white"/>
<path d="M303.559 25.9023L274.507 37.2684C274.507 37.2684 278.175 77.0332 303.559 84.4891C328.932 77.0332 332.611 37.2684 332.611 37.2684L303.559 25.9023ZM302.828 64.4079C302.451 64.905 301.853 65.2142 301.232 65.2142C301.221 65.2142 301.221 65.2142 301.21 65.2142C300.578 65.2142 299.98 64.8829 299.614 64.3748L289.432 50.3798C288.778 49.4851 288.978 48.2369 289.875 47.5852C290.773 46.9335 292.025 47.1323 292.678 48.027L301.276 59.8239L315.337 41.3333C316.002 40.4496 317.265 40.2839 318.14 40.9467C319.027 41.6094 319.193 42.9902 318.528 43.8628L302.828 64.4079Z" fill="white"/>
<path d="M437.494 254.02H343.037V317.566H437.494V254.02Z" fill="#232323"/>
<path opacity="0.7" d="M437.494 254.02H343.037V317.566H437.494V254.02Z" fill="white"/>
<path d="M435.5 258.924H344.788V315.456H435.5V258.924Z" fill="#3E3E3E"/>
<path d="M423.522 267.683H348.943V269.34H423.522V267.683Z" fill="#E0E0E0"/>
<path d="M412.431 272.377H348.943V274.034H412.431V272.377Z" fill="#E0E0E0"/>
<path d="M423.522 277.072H348.943V278.729H423.522V277.072Z" fill="#E0E0E0"/>
<path d="M412.431 281.766H348.943V283.423H412.431V281.766Z" fill="#E0E0E0"/>
<path d="M356.998 286.461H348.943V288.118H356.998V286.461Z" fill="#E0E0E0"/>
<path d="M390.26 291.155H348.943V292.812H390.26V291.155Z" fill="#E0E0E0"/>
<path d="M412.431 295.85H348.943V297.507H412.431V295.85Z" fill="#E0E0E0"/>
<path d="M356.998 300.544H348.943V302.201H356.998V300.544Z" fill="#E0E0E0"/>
<path d="M356.998 305.239H348.943V306.896H356.998V305.239Z" fill="#E0E0E0"/>
<path d="M165.114 121.813H70.6572V185.359H165.114V121.813Z" fill="#232323"/>
<path opacity="0.7" d="M165.114 121.813H70.6572V185.359H165.114V121.813Z" fill="white"/>
<path d="M163.131 126.717H72.4189V183.249H163.131V126.717Z" fill="#3E3E3E"/>
<path d="M151.153 135.476H76.574V137.133H151.153V135.476Z" fill="#E0E0E0"/>
<path d="M140.062 140.171H76.574V141.828H140.062V140.171Z" fill="#E0E0E0"/>
<path d="M151.153 144.865H76.574V146.522H151.153V144.865Z" fill="#E0E0E0"/>
<path d="M140.062 149.56H76.574V151.216H140.062V149.56Z" fill="#E0E0E0"/>
<path d="M84.6291 154.254H76.574V155.911H84.6291V154.254Z" fill="#E0E0E0"/>
<path d="M117.891 158.948H76.574V160.605H117.891V158.948Z" fill="#E0E0E0"/>
<path d="M140.062 163.643H76.574V165.3H140.062V163.643Z" fill="#E0E0E0"/>
<path d="M84.6291 168.337H76.574V169.994H84.6291V168.337Z" fill="#E0E0E0"/>
<path d="M84.6291 173.032H76.574V174.689H84.6291V173.032Z" fill="#E0E0E0"/>
<g style="mix-blend-mode:color" opacity="0.8">
<circle cx="246.663" cy="224" r="134" fill="url(#paint0_radial_72_1209)"/>
</g>
<defs>
<radialGradient id="paint0_radial_72_1209" cx="0" cy="0" r="1" gradientUnits="userSpaceOnUse" gradientTransform="translate(246.663 224) rotate(90) scale(134)">
<stop stop-color="#EF0303"/>
<stop offset="1" stop-color="#EF0303" stop-opacity="0"/>
</radialGradient>
</defs>
</svg>
