<svg width="57" height="57" viewBox="0 0 57 57" fill="none" xmlns="http://www.w3.org/2000/svg">
<g clip-path="url(#clip0_72_1781)">
<path d="M14.2499 6.84668C6.69076 10.6096 0.389585 13.7824 0.255991 13.916C-0.089126 14.25 -0.100259 15.0961 0.222593 15.4523C0.345054 15.5859 3.05033 16.9998 6.23431 18.5918C9.4183 20.1949 12.0234 21.542 12.0234 21.5977C12.0234 21.6533 9.4183 23.0004 6.23431 24.6035C3.05033 26.1955 0.345054 27.6094 0.222593 27.743C-0.0445947 28.0324 -0.0779932 28.8896 0.178062 29.2236C0.267124 29.3461 3.02806 30.7711 6.32337 32.3965L12.3017 35.3578L6.37904 38.3303C3.11712 39.9668 0.345054 41.4141 0.222593 41.5477C-0.089126 41.8928 -0.089126 42.7277 0.244858 43.084C0.378452 43.2176 1.89251 44.0303 3.60697 44.8652C5.33255 45.7113 11.5335 48.784 17.4117 51.7008C25.9728 55.9535 28.166 57 28.5111 57C28.8562 57 29.9583 56.499 33.7101 54.6176C36.3263 53.315 38.5529 52.135 38.6753 52.0014C38.9425 51.7119 38.9648 50.9994 38.7087 50.6209C38.5974 50.4539 38.3302 50.2758 38.0742 50.1979L37.6288 50.0643L33.0644 52.3131L28.4999 54.5619L16.1982 48.4611C9.42943 45.1102 3.89642 42.3381 3.89642 42.2936C3.89642 42.1934 14.7286 36.7383 14.929 36.7383C15.007 36.7383 18.0017 38.1855 21.5753 39.9668C26.574 42.4494 28.1771 43.1953 28.4999 43.1953C28.8117 43.1953 30.4259 42.4494 35.4357 39.9668C39.0204 38.1855 42.0152 36.7383 42.082 36.7383C42.2601 36.7383 53.1035 42.2045 53.1035 42.2936C53.1035 42.327 51.5115 43.1508 49.5743 44.1305C47.6261 45.099 45.945 45.9674 45.8449 46.0564C45.5777 46.2902 45.4775 46.9137 45.6445 47.3145C45.8226 47.7264 46.2011 47.9824 46.6798 47.9824C47.1363 47.9824 56.3876 43.4848 56.7661 43.0729C57.0779 42.7277 57.089 41.8928 56.7773 41.5588C56.666 41.4252 53.8939 39.9779 50.6431 38.3303L44.7204 35.3467L50.6876 32.3965C53.9718 30.7711 56.7327 29.3461 56.8218 29.2236C57.0779 28.8896 57.0445 28.0324 56.7773 27.7541C56.6548 27.6205 53.9495 26.2066 50.7656 24.5924C47.5816 22.9893 44.9765 21.6422 44.9765 21.5977C44.9765 21.5531 47.5816 20.2061 50.7656 18.6029C53.9495 16.9887 56.6548 15.5748 56.7773 15.4412C57.1113 15.0961 57.089 14.2389 56.7439 13.916C56.5992 13.7713 50.2757 10.5873 42.6943 6.83555C30.9158 0.990822 28.8451 0 28.4554 0.0111351C28.088 0.0222664 25.4161 1.30254 14.2499 6.84668ZM40.8128 8.53887C47.5704 11.8898 53.1035 14.6619 53.1035 14.7064C53.1035 14.7398 47.5704 17.5676 40.8017 20.9742L28.4999 27.1752L16.1982 20.9742C9.42943 17.5676 3.89642 14.7398 3.89642 14.7064C3.89642 14.6396 28.3441 2.47149 28.4888 2.44922C28.5111 2.44922 34.0552 5.18789 40.8128 8.53887ZM20.2728 25.6723C23.2675 27.1752 25.7167 28.4443 25.7167 28.4889C25.7167 28.5334 25.0599 28.8896 24.2583 29.2793C23.4568 29.6801 22.6997 30.1254 22.5884 30.2701C22.4548 30.4371 22.3769 30.7154 22.3769 31.016C22.3769 31.6506 22.722 32.0514 23.3232 32.1404C23.724 32.185 24.0245 32.0736 26.1398 31.016L28.4999 29.8359L30.8712 31.016C32.9753 32.0736 33.2759 32.185 33.6767 32.1404C34.2779 32.0514 34.623 31.6506 34.623 31.016C34.623 30.7154 34.5451 30.4371 34.4115 30.2701C34.3001 30.1254 33.5431 29.6801 32.7415 29.2793C31.94 28.8896 31.2831 28.5334 31.2831 28.4889C31.2831 28.4443 33.7435 27.1752 36.7382 25.6723L42.1933 22.9225L47.6484 25.6723C50.6542 27.1752 53.1035 28.4443 53.1035 28.4889C53.1035 28.5334 47.5704 31.3055 40.8017 34.6676L28.5111 40.7572L16.1982 34.6564C9.42943 31.3055 3.89642 28.5334 3.89642 28.4889C3.89642 28.4332 14.6396 22.9559 14.7843 22.9336C14.8066 22.9336 17.2781 24.1693 20.2728 25.6723Z" fill="#EF0303"/>
<path d="M25.3605 14.918C23.8465 15.6862 22.6553 16.3541 22.5551 16.4988C22.4549 16.6324 22.377 16.9553 22.377 17.2225C22.377 17.8459 22.7221 18.2467 23.3232 18.3358C23.724 18.3803 24.0246 18.269 26.1398 17.2113L28.5 16.0313L30.8713 17.2113C32.9754 18.269 33.276 18.3803 33.6768 18.3358C34.2779 18.2467 34.623 17.8459 34.623 17.2225C34.623 16.9553 34.5451 16.6324 34.4449 16.4988C34.3447 16.3541 33.1535 15.6862 31.6061 14.918C29.424 13.8158 28.8674 13.5821 28.4777 13.5932C28.0992 13.5932 27.4646 13.8604 25.3605 14.918Z" fill="#EF0303"/>
<path d="M41.3695 48.1605C41.1357 48.3943 41.0801 48.5613 41.0801 48.9844C41.0801 49.4074 41.1357 49.5744 41.3695 49.8082C41.6033 50.042 41.7703 50.0977 42.1934 50.0977C42.9281 50.0977 43.3066 49.7191 43.3066 48.9844C43.3066 48.5613 43.251 48.3943 43.0172 48.1605C42.5941 47.7486 41.7926 47.7486 41.3695 48.1605Z" fill="#EF0303"/>
</g>
<defs>
<clipPath id="clip0_72_1781">
<rect width="57" height="57" fill="white"/>
</clipPath>
</defs>
</svg>
