<svg width="58" height="57" viewBox="0 0 58 57" fill="none" xmlns="http://www.w3.org/2000/svg">
<path d="M44.5461 0.19319C44.2443 0.304983 42.981 0.986933 41.7512 1.72478C39.1911 3.25637 38.3191 4.01658 37.7043 5.24632C37.1118 6.43135 36.9552 7.22509 37.0559 8.65607C37.1006 9.32684 37.1453 10.3665 37.1565 10.9479C37.1676 11.9428 37.1453 12.0658 36.7875 12.7925C36.4522 13.4856 36.0609 13.9328 33.4113 16.6047C30.7842 19.2431 30.4041 19.6679 30.4041 19.9697C30.4041 20.5063 30.7394 20.8417 31.2984 20.8417C31.7568 20.8417 31.7903 20.8082 34.8088 17.7674C37.4248 15.1178 37.9055 14.5812 38.2632 13.8993C38.8781 12.7142 39.057 11.8087 38.9564 10.3889C38.9117 9.74048 38.8669 8.73433 38.8558 8.14181C38.8446 7.12448 38.8669 7.03504 39.2582 6.23012C39.5153 5.72704 39.8731 5.21278 40.1638 4.94448C40.4209 4.69853 41.6394 3.90478 42.8692 3.16693L45.0939 1.83657H46.033C46.8379 1.83657 46.9944 1.87011 47.1286 2.06017C47.2292 2.19432 47.2627 2.39555 47.2292 2.56324C47.1845 2.71976 46.2789 3.73709 45.1051 4.91094C43.73 6.2972 42.981 7.12448 42.858 7.42632C42.5897 8.07474 42.6232 10.1206 42.9139 10.7578C43.1822 11.3615 45.9659 14.1117 46.5361 14.3576C47.028 14.5588 48.6266 14.5812 49.3868 14.3912C49.8564 14.2794 50.147 14.0334 52.0923 12.1217C53.2885 10.9367 54.3841 9.94171 54.5182 9.89699C55.1219 9.70694 55.4126 10.2771 55.312 11.4509C55.2673 11.9876 55.0996 12.3229 53.8698 14.3688C52.3718 16.8618 51.9022 17.4096 50.8178 17.9239C50.0464 18.2928 49.0738 18.4381 48.2913 18.3152C46.9385 18.0916 45.5746 18.0692 44.7809 18.2593C43.171 18.6394 42.7015 18.9859 39.4818 22.1833C36.6869 24.9558 36.5528 25.1123 36.5528 25.5036C36.5528 26.152 36.9217 26.4538 37.6148 26.3756C37.7378 26.3644 39.1129 25.1011 40.6892 23.536C43.1934 21.0541 43.6406 20.6629 44.3225 20.3275C45.0492 19.9697 45.1722 19.9474 46.1671 19.9585C46.7485 19.9697 47.777 20.0144 48.4478 20.0592C49.8899 20.1598 50.5495 20.048 51.7345 19.4778C53.0873 18.8406 53.8251 18.0133 55.4238 15.3191C56.1728 14.0669 56.8659 12.7813 56.9554 12.4795C57.1454 11.831 57.179 10.4113 57.0113 9.81874C56.7206 8.77904 55.8933 8.14181 54.7977 8.11945C53.6351 8.09709 53.4674 8.22007 51.0749 10.5678L48.8838 12.7366H48.0565H47.2292L45.8653 11.3615L44.5014 9.99761L44.4679 9.08089L44.4343 8.16417L46.5696 6.00653C48.8726 3.68119 49.0067 3.47996 48.9956 2.38437C48.9844 1.19934 48.4701 0.483856 47.3745 0.159651C46.6031 -0.06394 45.2504 -0.0527592 44.5461 0.19319Z" fill="#EF0303"/>
<path d="M22.2989 0.405617C20.3984 0.573311 18.3861 1.38942 16.4297 2.75331C15.39 3.47998 6.73708 12.1105 6.46878 12.6807C6.18929 13.2844 6.20047 14.1117 6.49114 14.7266L6.73708 15.2185L6.17811 15.7662L5.63031 16.3252L5.12724 16.1016C4.49001 15.7998 3.58447 15.7998 3.03667 16.0793C2.51123 16.3588 0.264154 18.617 0.118821 19.0307C-0.037692 19.4331 -0.037692 20.4616 0.107642 20.8641C0.264154 21.2777 6.41288 27.4488 6.94949 27.7283C7.45257 27.9854 8.33575 28.0078 8.90591 27.773C9.44252 27.5494 11.5666 25.4477 11.8461 24.8664C12.2262 24.0838 12.0809 22.9211 11.5443 22.3174C11.3654 22.1274 11.3878 22.0827 11.9244 21.5572L12.4833 20.9871L12.9641 21.3001C13.646 21.7585 14.6075 21.8032 15.3453 21.4231L15.8819 21.1436L20.3984 26.029L24.9149 30.9033L21.4605 34.3689C18.2184 37.611 17.9948 37.8681 17.9948 38.237C17.9948 38.7513 18.3749 39.1202 18.8892 39.1202C19.2358 39.1202 19.5488 38.8407 22.7126 35.6881L26.1559 32.2448L26.4242 32.5243C26.5695 32.6808 31.3991 37.9128 37.1565 44.151C43.2381 50.7469 47.8665 55.6771 48.213 55.9118C49.0291 56.5043 50.08 56.7503 50.9967 56.5826C52.1929 56.359 52.573 56.0907 54.6189 54.056C57.0336 51.6524 57.179 51.4065 57.179 49.7407C57.179 48.634 57.1566 48.5334 56.8324 47.952C56.5529 47.4378 54.5183 45.5149 45.0157 36.7166C38.6993 30.8697 33.4002 25.9619 33.2325 25.7831L32.9195 25.4812L36.6422 21.7585C39.2359 19.1648 40.3538 17.9686 40.3538 17.8009C40.3538 17.1525 39.7725 16.6494 39.2135 16.8171C39.0682 16.8618 37.2907 18.5499 35.256 20.5846L31.5556 24.2738L26.8714 19.9474C24.3001 17.5661 22.0977 15.5315 21.9859 15.4197C21.7847 15.2408 21.7959 15.2073 22.243 14.57C22.489 14.2123 22.802 13.5751 22.925 13.1614C23.1709 12.3677 23.1709 12.4236 22.9585 9.6846C22.8915 8.74553 22.9026 8.67845 23.238 7.98532C23.4504 7.5605 23.7858 7.10214 24.0653 6.86737C24.9261 6.12952 26.6142 5.46993 28.3694 5.19044C29.3085 5.04511 29.8563 4.21783 29.6103 3.32347C29.465 2.77567 28.593 2.07136 27.2179 1.37823C25.7087 0.640388 23.8305 0.260284 22.2989 0.405617ZM24.2554 2.27259C25.1385 2.42911 26.5807 2.9769 27.0502 3.33465L27.3185 3.54706L26.8266 3.67003C25.854 3.91598 24.4342 4.46378 23.8305 4.82152C22.8915 5.38049 21.9859 6.33075 21.5611 7.22511C21.2034 7.95178 21.1922 8.04121 21.1922 9.27096C21.1922 9.97527 21.2257 10.9143 21.2816 11.3503C21.3599 12.0211 21.3487 12.2559 21.1698 12.7478C20.9909 13.2956 20.6444 13.6757 17.7265 16.6159C15.5801 18.7847 14.4062 19.8915 14.2497 19.8915C13.9367 19.8915 8.04508 13.9999 8.04508 13.6757C8.04508 13.3403 16.8098 4.66501 17.8271 3.99424C19.3587 2.99926 20.7226 2.42911 22.0754 2.22787C22.925 2.1049 23.3386 2.1049 24.2554 2.27259ZM9.66611 18.1028L11.2312 19.6679L10.6387 20.2492L10.0574 20.8417L8.46991 19.2542L6.87124 17.6556L7.43021 17.0966C7.73206 16.7948 8.01155 16.5376 8.04508 16.5376C8.07862 16.5376 8.80529 17.2419 9.66611 18.1028ZM29.1184 24.4863C33.8585 28.8574 37.7602 32.4684 37.8049 32.5131C37.8496 32.5579 36.8435 33.6311 35.569 34.9055L33.2437 37.2309L25.228 28.5668C20.8233 23.7931 17.2123 19.8579 17.2123 19.8132C17.2123 19.7126 20.3649 16.5376 20.4543 16.5376C20.4879 16.5376 24.3895 20.1151 29.1184 24.4863ZM7.28488 20.6405C9.19657 22.5522 10.281 23.7149 10.281 23.8602C10.281 24.162 8.29103 26.152 7.98919 26.152C7.84385 26.152 6.71473 25.1011 4.71359 23.1C3.04785 21.4231 1.67277 20.0033 1.67277 19.9586C1.67277 19.7461 3.85277 17.6556 4.06518 17.6556C4.2217 17.6556 5.31729 18.6729 7.28488 20.6405ZM39.9067 34.4695L40.488 35.0173L38.1068 37.3986C36.7876 38.7178 35.6808 39.791 35.6361 39.791C35.6025 39.791 35.3231 39.5115 35.0324 39.1649L34.4958 38.5501L36.8435 36.2024C38.1291 34.9167 39.2135 33.877 39.2471 33.8882C39.2918 33.9106 39.5825 34.1677 39.9067 34.4695ZM48.5149 42.4293C52.1482 45.7832 55.189 48.6787 55.2896 48.8687C55.5244 49.3271 55.5244 50.1656 55.2785 50.6463C55.1667 50.8587 54.3506 51.7642 53.445 52.6809C51.2538 54.9057 50.6278 55.2075 49.4539 54.5815C49.2527 54.4697 46.346 51.4065 42.9922 47.7843L36.8994 41.1884L39.3253 38.7513C40.6557 37.4209 41.7848 36.3253 41.8407 36.3253C41.8854 36.3253 44.8927 39.0643 48.5149 42.4293Z" fill="#EF0303"/>
<path d="M20.3426 29.8077C20.2531 29.8413 18.8892 31.1381 17.3241 32.6809C13.7019 36.2695 13.4448 36.4036 10.1692 36.8285C6.64768 37.2868 5.13845 37.8793 3.38327 39.5115C2.32122 40.4953 1.62809 41.4232 1.05793 42.6418C0.308908 44.2405 0.163574 44.9224 0.163574 47.0018C0.163574 48.5334 0.208292 48.9247 0.420703 49.6849C1.38214 53.0499 4.03168 55.7106 7.37435 56.6721C8.44758 56.9851 10.6052 57.0969 11.8014 56.9068C14.0597 56.5379 15.9378 55.5206 17.5589 53.7878C19.2134 52.0102 19.7836 50.6463 20.2308 47.3484C20.745 43.6256 20.8568 43.4244 24.356 39.8693C26.9161 37.2868 27.095 37.0744 27.095 36.6943C27.095 36.1912 26.7372 35.8782 26.1783 35.8782C25.8093 35.8782 25.6081 36.0459 23.4393 38.1924C19.3252 42.2729 19.0457 42.7648 18.5091 46.7559C18.0508 50.1097 17.6148 51.1606 15.9378 52.8151C15.1329 53.6201 14.7193 53.9219 13.9703 54.302C10.9853 55.7889 7.72091 55.4982 5.04901 53.4859C3.67394 52.4462 2.44419 50.5233 2.06409 48.7793C1.76224 47.4602 1.87404 45.5149 2.31004 44.2964C3.29383 41.5686 5.49619 39.5674 8.20163 38.9526C8.58174 38.8631 9.67733 38.6954 10.6388 38.5613C14.2497 38.0917 14.6746 37.8458 18.5315 34.0336C21.4158 31.1716 21.4605 31.1157 21.4605 30.6686C21.4605 30.3779 21.3934 30.1431 21.2705 30.0313C21.0357 29.8301 20.5773 29.7183 20.3426 29.8077Z" fill="#EF0303"/>
<path d="M7.82144 41.9151C7.60903 42.0269 6.89354 42.6641 6.24513 43.3349C5.33959 44.2404 5.01539 44.6541 4.92595 44.9894C4.85888 45.2354 4.80298 46.1633 4.80298 47.0576C4.80298 49.1035 4.89241 49.3047 6.28985 50.7357C7.75437 52.2114 7.97796 52.312 10.1468 52.312C11.4324 52.312 11.9579 52.2673 12.2709 52.1443C12.7851 51.9319 14.8981 49.8525 15.2335 49.2376C15.457 48.8352 15.4794 48.6228 15.4794 47.0576C15.4794 45.8614 15.4347 45.1907 15.3229 44.8776C15.1217 44.3187 13.1205 42.2281 12.4721 41.9151C12.0473 41.7138 11.7902 41.6915 10.1021 41.6915C8.48103 41.7027 8.15683 41.725 7.82144 41.9151ZM12.651 44.464L13.6907 45.4925L13.7242 46.9011L13.7689 48.2986L12.6733 49.4165L11.5778 50.5233H10.1244H8.67108L7.63139 49.4836L6.5917 48.4439V46.9906V45.5484L7.63139 44.5199C8.19037 43.9609 8.73816 43.4802 8.8276 43.4467C8.91703 43.402 9.5878 43.3908 10.3033 43.402L11.6225 43.4243L12.651 44.464Z" fill="#EF0303"/>
</svg>
