<svg width="60" height="59" viewBox="0 0 60 59" fill="none" xmlns="http://www.w3.org/2000/svg">
<path d="M4.03188 0.265038C2.2227 0.887302 0.828369 2.32773 0.298291 4.13691C0.136963 4.70156 0.113916 6.92559 0.113916 26.1697V47.5803L0.367432 48.2486C0.701611 49.1475 1.51978 50.0002 2.45317 50.415C3.02935 50.6801 3.38657 50.7492 4.2854 50.7953L5.4147 50.8529V53.7684V56.6953H3.06392H0.724658L0.413525 56.9949C-0.0128418 57.4328 -0.0128418 58.2625 0.413525 58.7004L0.724658 59H29.6139H58.5032L58.8143 58.7004C59.2407 58.2625 59.2407 57.4328 58.8143 56.9949L58.5032 56.6953H56.1639H53.8131V53.7684V50.8529L54.9424 50.7953C55.8413 50.7492 56.1985 50.6801 56.7747 50.415C57.7081 50.0002 58.5262 49.1475 58.8604 48.2486L59.1139 47.5803V26.1697C59.1139 6.92559 59.0909 4.70156 58.9295 4.13691C58.3879 2.30469 56.9014 0.795116 55.0922 0.230469C54.3778 0 53.9514 0 29.5678 0L4.78091 0.0115242L4.03188 0.265038ZM54.6198 2.66191C55.5301 3.08828 55.945 3.4916 56.3598 4.33281C56.7055 5.02422 56.7286 5.1625 56.7862 6.68359L56.8438 8.29688H29.6139H2.38403L2.44165 6.69512C2.51079 4.97812 2.70669 4.29824 3.37505 3.51465C3.75532 3.05371 4.71177 2.53516 5.39165 2.41992C5.69126 2.37383 16.7422 2.33926 29.9596 2.35078L53.986 2.3623L54.6198 2.66191ZM56.7862 28.8316C56.7516 46.8428 56.7516 47.0732 56.5211 47.465C56.1178 48.1449 55.7491 48.3293 54.7235 48.3869L53.8131 48.4215V39.3525C53.8131 33.3604 53.7786 30.2145 53.6979 30.0646C53.4098 29.5346 53.1563 29.5 48.9733 29.5C44.7903 29.5 44.5368 29.5346 44.2487 30.0646C44.1795 30.2029 44.1334 31.5742 44.1334 33.683V37.0709L44.4331 37.382C44.8709 37.8084 45.7006 37.8084 46.1385 37.382L46.4381 37.0709V34.5012V31.9199H48.9733H51.5084V44.3076V56.6953H48.9733H46.4381V50.2307V43.766L46.104 43.4318C45.6315 42.9594 44.9401 42.9594 44.4676 43.4318L44.1334 43.766V50.2307V56.6953H42.5202H40.9069V49.159V41.6342L40.6073 41.323L40.2961 41.0234H36.067H31.8379L31.5268 41.323L31.2272 41.6342V49.159V56.6953H29.6139H28.0006V44.3537C28.0006 36.1145 27.9661 31.943 27.8854 31.7932C27.5973 31.2631 27.3438 31.2285 23.1608 31.2285C18.9778 31.2285 18.7243 31.2631 18.4362 31.7932C18.3555 31.943 18.3209 36.1145 18.3209 44.3537V56.6953H16.7077H15.0944V50.657V44.6303L14.7948 44.3191L14.4836 44.0195H10.2545H6.02544L5.71431 44.3191C5.4147 44.6303 5.4147 44.6303 5.4147 46.5201V48.4215L4.50435 48.3869C3.47876 48.3293 3.11001 48.1449 2.70669 47.465C2.47622 47.0732 2.47622 46.8428 2.44165 28.8316L2.4186 10.6016H29.6139H56.8092L56.7862 28.8316ZM25.6959 45.1719V56.6953H23.1608H20.6256V45.1719V33.6484H23.1608H25.6959V45.1719ZM38.6022 50.0117V56.6953H36.067H33.5319V50.0117V43.3281H36.067H38.6022V50.0117ZM12.7897 51.5098V56.6953H10.2545H7.71938V51.5098V46.3242H10.2545H12.7897V51.5098Z" fill="black"/>
<path d="M6.63555 4.44805C6.39355 4.69004 6.33594 4.86289 6.33594 5.30078C6.33594 6.06133 6.72773 6.45312 7.48828 6.45312C8.24883 6.45312 8.64062 6.06133 8.64062 5.30078C8.64062 4.54023 8.24883 4.14844 7.48828 4.14844C7.05039 4.14844 6.87754 4.20605 6.63555 4.44805Z" fill="black"/>
<path d="M11.2449 4.44805C11.0029 4.69004 10.9453 4.86289 10.9453 5.30078C10.9453 6.06133 11.3371 6.45312 12.0977 6.45312C12.8582 6.45312 13.25 6.06133 13.25 5.30078C13.25 4.86289 13.1924 4.69004 12.9504 4.44805C12.7084 4.20605 12.5355 4.14844 12.0977 4.14844C11.6598 4.14844 11.4869 4.20605 11.2449 4.44805Z" fill="black"/>
<path d="M15.8543 4.44805C15.6123 4.69004 15.5547 4.86289 15.5547 5.30078C15.5547 5.73867 15.6123 5.91152 15.8543 6.15352C16.0963 6.39551 16.2691 6.45312 16.707 6.45312C17.1449 6.45312 17.3178 6.39551 17.5598 6.15352C17.8018 5.91152 17.8594 5.73867 17.8594 5.30078C17.8594 4.86289 17.8018 4.69004 17.5598 4.44805C17.3178 4.20605 17.1449 4.14844 16.707 4.14844C16.2691 4.14844 16.0963 4.20605 15.8543 4.44805Z" fill="black"/>
<path d="M24.8541 4.47109C24.6121 4.72461 24.543 4.90898 24.543 5.30078C24.543 5.69258 24.6121 5.87695 24.8541 6.13047L25.1652 6.45312H38.7283H52.2799L52.591 6.15352C53.0174 5.71562 53.0174 4.88594 52.591 4.44805L52.2799 4.14844H38.7283H25.1652L24.8541 4.47109Z" fill="black"/>
<path d="M5.71576 14.8191C5.28939 15.2455 5.28939 16.0867 5.70424 16.5016C6.09604 16.8934 6.45326 16.9395 9.33412 16.9395C12.215 16.9395 12.5722 16.8934 12.964 16.5016C13.3788 16.0867 13.3788 15.2455 12.9525 14.8191L12.6413 14.5195H9.33412H6.02689L5.71576 14.8191Z" fill="black"/>
<path d="M15.5423 14.8538C14.7241 15.6719 15.404 16.9626 16.5909 16.8358C17.1901 16.7667 17.7087 16.0522 17.5704 15.4415C17.3745 14.5196 16.2106 14.1854 15.5423 14.8538Z" fill="black"/>
<path d="M21.9377 15.6834C20.5779 15.8562 19.2758 16.8127 18.6881 18.0688C18.423 18.6334 18.377 18.8754 18.377 19.8203C18.377 20.6961 18.423 21.0187 18.6189 21.4451L18.8725 21.9752L15.5076 25.3285L12.1543 28.6818L11.4629 28.4398C9.51543 27.7715 7.26836 28.774 6.36953 30.71C6.09297 31.3092 6.04688 31.5396 6.04688 32.4385C6.04688 33.3373 6.09297 33.5678 6.36953 34.167C6.9918 35.4922 8.06348 36.2988 9.53848 36.5523C11.4859 36.8865 13.491 35.6996 14.1363 33.8213C14.4014 33.0262 14.4014 31.6779 14.1248 30.952L13.9059 30.3988L17.3053 26.9994L20.6932 23.6115L21.1887 23.7959C21.8801 24.0379 23.309 24.0148 23.9658 23.7498L24.4844 23.5424L28.4139 27.4488L32.3434 31.3668L32.1129 31.8508C31.8133 32.4615 31.7096 33.902 31.9285 34.6625C32.2396 35.8033 33.0463 36.7598 34.1871 37.3359C34.6711 37.5895 34.89 37.624 35.9502 37.624C37.068 37.624 37.2178 37.601 37.8285 37.2783C38.7043 36.8404 39.5455 35.9186 39.8682 35.0658C40.1793 34.2361 40.2023 32.9801 39.9258 32.1389L39.7299 31.5512L43.6133 27.6562C47.4621 23.8074 47.5082 23.7613 47.8654 23.865C48.3725 24.0148 49.6055 23.9918 50.1701 23.8305C51.2648 23.5078 52.2098 22.6896 52.7744 21.5834C53.0279 21.0994 53.0625 20.8805 53.0625 19.8203C53.0625 18.7141 53.0395 18.5527 52.7283 17.942C51.4492 15.4299 48.1535 14.8537 46.0793 16.7896C45.7912 17.0547 45.3994 17.5732 45.215 17.942C44.9039 18.5527 44.8809 18.7141 44.8809 19.8203C44.8809 20.915 44.9154 21.0879 45.2035 21.6525L45.5262 22.2863L42.9564 24.8676C41.5391 26.285 39.8336 27.9559 39.1537 28.6012L37.9092 29.7535L37.3676 29.5691C36.6646 29.3271 35.1896 29.3271 34.625 29.5691L34.1871 29.7535L30.2115 25.7779L26.2359 21.8023L26.4549 21.2492C26.6047 20.8574 26.6738 20.408 26.6623 19.7512C26.6623 18.9676 26.6047 18.7141 26.3051 18.0803C25.4984 16.3748 23.816 15.4414 21.9377 15.6834ZM23.5395 18.3684C23.7008 18.4836 23.9543 18.8062 24.0926 19.0828C25.0605 21.0879 21.9723 22.5975 20.9697 20.6154C20.1285 18.9791 21.9838 17.3543 23.5395 18.3684ZM49.8705 18.3223C51.3686 19.2326 50.7232 21.5488 48.9717 21.5488C47.9922 21.5488 47.2432 20.7998 47.2432 19.8203C47.2432 18.8408 47.9922 18.0918 48.9717 18.0918C49.2828 18.0918 49.64 18.184 49.8705 18.3223ZM10.8752 30.8137C11.751 31.1824 12.1658 32.2311 11.774 33.0953C11.0596 34.7201 8.73184 34.4436 8.45527 32.7035C8.36309 32.1389 8.45527 31.7816 8.83555 31.3322C9.37715 30.6984 10.1262 30.5025 10.8752 30.8137ZM36.849 32.0352C38.3471 32.9455 37.7018 35.2617 35.9502 35.2617C34.1986 35.2617 33.5533 32.9455 35.0514 32.0352C35.5469 31.7355 36.3535 31.7355 36.849 32.0352Z" fill="black"/>
<path d="M5.71576 20.3504C5.28939 20.7768 5.28939 21.618 5.70424 22.0328C6.09604 22.4246 6.45326 22.4707 9.33412 22.4707C12.215 22.4707 12.5722 22.4246 12.964 22.0328C13.3788 21.618 13.3788 20.7768 12.9525 20.3504L12.6413 20.0508H9.33412H6.02689L5.71576 20.3504Z" fill="black"/>
<path d="M44.8248 39.5369C44.1104 39.8135 43.8914 40.8391 44.41 41.4498C44.652 41.7264 44.7788 41.7725 45.2858 41.7725C45.7928 41.7725 45.9196 41.7264 46.1616 41.4498C46.6916 40.8275 46.4612 39.7904 45.7237 39.5369C45.2973 39.3871 45.2051 39.3871 44.8248 39.5369Z" fill="black"/>
</svg>
