<svg width="60" height="59" viewBox="0 0 60 59" fill="none" xmlns="http://www.w3.org/2000/svg">
<path d="M5.91244 0.246811C5.10149 0.646412 4.88993 1.12828 4.84292 2.60916L4.79591 3.85498L3.30328 3.90199C1.71663 3.949 1.18774 4.11354 0.635352 4.7247C-0.0463212 5.46514 0.000690717 3.87849 0.000690717 26.2679C0.000690717 44.5203 0.0241967 46.8357 0.176986 47.2235C0.412045 47.7759 0.764635 48.1402 1.35228 48.4576L1.8224 48.7161L14.3746 48.7749L26.9268 48.8337L26.2099 49.5388C25.5869 50.1618 25.5047 50.291 25.5047 50.7024C25.5047 51.149 25.5869 51.2548 27.7142 53.3938C28.9248 54.6161 30.0883 55.6974 30.2999 55.7797C30.8288 56.0147 31.2519 55.8032 32.1804 54.8629L32.9208 54.099L33.9316 54.6044C34.484 54.8865 35.4242 55.2743 36.0236 55.4741L37.1166 55.8384L37.1636 57.1313C37.1989 58.3888 37.2106 58.4476 37.528 58.7179L37.8571 59H41.2067H44.5563L44.8383 58.7062C45.1204 58.4359 45.1322 58.3418 45.1322 57.143V55.8502L46.1077 55.5564C46.6365 55.3801 47.6003 54.9922 48.2467 54.6631L49.422 54.0873L50.3152 54.9687C51.1144 55.7562 51.2672 55.8502 51.6551 55.8502C52.0782 55.8502 52.231 55.7327 54.4993 53.4526C57.4023 50.5378 57.3318 50.7259 55.9919 49.3625L55.0987 48.4458L55.6393 47.3528C55.9332 46.7534 56.321 45.8014 56.4973 45.2373L56.8264 44.2147L58.1545 44.1677C60.0702 44.1207 59.9409 44.4145 59.9409 40.1365V36.6811L59.6353 36.446C59.365 36.2345 59.1535 36.1992 58.0722 36.1992H56.8264L56.5443 35.259C56.3915 34.7536 56.0037 33.7898 55.6863 33.1317L55.1222 31.9329L56.0154 31.0044C56.8969 30.0994 56.9087 30.0759 56.8499 29.594C56.7911 29.1357 56.6031 28.9241 54.4875 26.8086L52.184 24.5167V15.3494C52.184 9.19084 52.1369 6.01753 52.0547 5.71195C51.9841 5.46514 51.7138 5.03028 51.4553 4.74821C50.8324 4.06653 50.1859 3.87849 48.5288 3.87849H47.2712L47.2242 2.5504C47.1889 1.31633 47.1654 1.18705 46.8716 0.799202C46.3545 0.117531 45.9549 0 44.2272 0C42.8638 0 42.6523 0.0235062 42.1939 0.270317C41.3947 0.693424 41.1361 1.28107 41.1361 2.72669V3.87849H38.1509H35.1656L35.1186 2.5504C35.0834 1.31633 35.0599 1.18705 34.766 0.799202C34.2489 0.117531 33.8493 0 32.1334 0C29.63 0 29.1246 0.423107 29.0423 2.60916L29.0071 3.87849H26.0336H23.0601L23.013 2.5504C22.9778 1.31633 22.9543 1.18705 22.6604 0.799202C22.1433 0.117531 21.7437 0 20.0278 0C17.5244 0 17.019 0.423107 16.9367 2.60916L16.9015 3.87849H13.9162H10.931V2.70319C10.931 1.30458 10.7899 0.86972 10.1553 0.399601C9.72041 0.0705185 9.68515 0.0587654 8.06324 0.0235062C6.57061 0 6.35906 0.0117531 5.91244 0.246811ZM8.93296 4.93625V7.88625L7.91045 7.85099L6.87619 7.81573L6.84093 4.901L6.81742 1.99801H7.87519H8.93296V4.93625ZM21.0385 4.93625V7.88625L20.016 7.85099L18.9818 7.81573L18.9465 4.901L18.923 1.99801H19.9808H21.0385V4.93625ZM33.1441 4.93625V7.88625L32.1216 7.85099L31.0873 7.81573L31.0521 4.901L31.0286 1.99801H32.0863H33.1441V4.93625ZM45.2497 4.93625V7.88625L44.2272 7.85099L43.1929 7.81573L43.1577 4.901L43.1342 1.99801H44.1919H45.2497V4.93625ZM4.81942 7.02829C4.81942 8.36813 5.07798 9.03805 5.7479 9.48466C6.11224 9.73147 6.27679 9.75498 7.87519 9.75498C9.4736 9.75498 9.62639 9.73147 10.0025 9.48466C10.7782 8.96753 10.931 8.57968 10.931 7.15757V5.87649H13.928H16.925V7.02829C16.925 8.36813 17.1836 9.03805 17.8535 9.48466C18.2178 9.73147 18.3824 9.75498 19.9808 9.75498C21.5792 9.75498 21.732 9.73147 22.1081 9.48466C22.8838 8.96753 23.0365 8.57968 23.0365 7.15757V5.87649H26.0336H29.0306V7.02829C29.0306 8.36813 29.2891 9.03805 29.9591 9.48466C30.3234 9.73147 30.4879 9.75498 32.0863 9.75498C33.6848 9.75498 33.8493 9.73147 34.2019 9.48466C34.9776 8.96753 35.0834 8.70897 35.1186 7.21634L35.1656 5.87649H38.1509H41.1361V7.02829C41.1361 8.36813 41.3947 9.03805 42.0646 9.48466C42.429 9.73147 42.5935 9.75498 44.1919 9.75498C45.7903 9.75498 45.9549 9.73147 46.3075 9.48466C47.0832 8.96753 47.1889 8.70897 47.2242 7.21634L47.2712 5.87649H48.4935C50.2917 5.87649 50.1859 5.67669 50.1859 9.16733V11.988H26.0218H1.86942L1.90467 9.17908C1.95169 5.68845 1.84591 5.87649 3.60886 5.87649H4.81942V7.02829ZM50.1859 19.7685V25.551L49.8334 25.9153L49.469 26.2914L48.376 25.739C47.7766 25.4335 46.8716 25.0574 46.3545 24.8811L45.426 24.5755H46.1547C46.7423 24.5637 46.9421 24.5167 47.2124 24.2817L47.5415 23.9996L47.5768 21.1906C47.6238 18.0878 47.5885 17.7353 47.2242 17.3944C46.9774 17.1711 46.8011 17.1594 43.8393 17.1594H40.7013L40.4192 17.4649C40.1489 17.747 40.1371 17.841 40.1019 19.5805L40.0666 21.3904H39.3614H38.668V19.5687C38.668 17.7823 38.6563 17.7353 38.3742 17.4532L38.0921 17.1594H34.9658H31.8395L31.5575 17.4532L31.2636 17.7353V20.8616V23.9878L31.5575 24.2699C31.8395 24.5637 31.8395 24.5637 34.4017 24.5637L36.9638 24.5755L36.1059 24.8576C35.624 25.0104 34.7073 25.3865 34.0726 25.692L32.8973 26.2562L32.0276 25.3865C31.2284 24.5872 31.0991 24.505 30.676 24.505C30.2411 24.505 30.1236 24.5872 29.1128 25.598L28.0316 26.6793H25.4812C23.1541 26.6793 22.919 26.7028 22.6722 26.9026L22.3901 27.1259V30.3815V33.6371L22.6722 33.8604C22.9073 34.0602 23.1423 34.0837 24.5644 34.0837H26.1863L25.8573 35.1062L25.5282 36.1404L24.2471 36.1992C23.5537 36.2345 22.8955 36.305 22.7897 36.352C22.3784 36.5518 22.3314 36.9749 22.3314 40.254V43.4743L22.6134 43.8034C22.8838 44.1207 22.9543 44.1325 24.2118 44.1912L25.5164 44.25L25.869 45.2843C26.0571 45.8602 26.2686 46.4243 26.3391 46.5536C26.4567 46.7769 26.2099 46.7769 14.4216 46.7769H2.38655L2.16324 46.5301C1.95169 46.2833 1.93993 45.8249 1.90467 30.1347L1.88117 13.9861H26.0336H50.1859V19.7685ZM36.67 20.8616V22.5657H34.9658H33.2616V20.8616V19.1574H34.9658H36.67V20.8616ZM45.6023 20.8616C45.6023 22.4835 45.5905 22.5657 45.3672 22.5657C45.1909 22.5657 45.1322 22.4835 45.1322 22.2719C45.1322 22.1074 45.0029 21.8371 44.8383 21.6843C44.568 21.4139 44.474 21.3904 43.3105 21.3904H42.0764V20.2739V19.1574H43.8393H45.6023V20.8616ZM43.1342 24.4462C43.1342 25.8096 43.2987 26.1504 43.9921 26.3267C45.7198 26.738 47.7531 27.5843 48.8344 28.3129C49.4925 28.7713 49.8804 28.6538 50.8206 27.7371L51.6668 26.9261L53.0419 28.3012L54.4053 29.6763L53.5943 30.5108C52.6776 31.451 52.56 31.8388 53.0184 32.497C53.7471 33.5548 54.5345 35.447 55.0047 37.2335C55.228 38.1032 55.4043 38.1972 56.8264 38.1972H58.0604V40.1952V42.1932H56.8264C55.6628 42.1932 55.5688 42.2167 55.2985 42.4871C55.134 42.6398 55.0047 42.8749 55.0047 43.0042C55.0047 43.392 54.3112 45.4723 53.9234 46.248C53.7236 46.6359 53.3945 47.247 53.1712 47.6114C52.56 48.6339 52.6188 48.8807 53.7236 50.009L54.417 50.7141L53.0302 52.101L51.6551 53.4761L50.8324 52.6534C49.7981 51.6191 49.6218 51.5956 48.1997 52.4066C47.0009 53.1 45.7668 53.6054 44.5445 53.8992C43.2399 54.2165 43.1342 54.3576 43.1342 55.8267V57.002H41.1361H39.1381V55.7679C39.1381 54.6631 39.1146 54.5221 38.8796 54.2988C38.7385 54.1695 38.5622 54.0637 38.48 54.0637C38.4095 54.0637 37.8688 53.9227 37.3047 53.7582C36.1764 53.4408 34.5897 52.7357 33.72 52.1833C33.3674 51.9482 33.0266 51.8307 32.7445 51.8307C32.3567 51.8307 32.1921 51.9365 31.4869 52.6181L30.6642 53.4056L29.2891 52.0305L27.914 50.6554L28.7367 49.8327C29.7358 48.8219 29.771 48.6104 29.0541 47.4116C28.3842 46.295 27.7848 44.8494 27.4792 43.6388C27.1383 42.252 27.0561 42.1932 25.5399 42.1932H24.3294V40.1952V38.1972H25.4929C26.9855 38.1972 27.1501 38.0797 27.4439 36.8809C27.726 35.7173 28.1138 34.7066 28.6897 33.6253C29.6182 31.9211 29.63 31.8859 29.5595 31.592C29.5124 31.4275 29.1128 30.9339 28.6662 30.4873L27.8553 29.6763L29.2304 28.3012L30.6055 26.9261L31.4634 27.7371C32.5212 28.7478 32.7563 28.7831 33.9081 28.0779C34.9658 27.4432 36.3057 26.8673 37.622 26.5147C39.1264 26.1034 39.1381 26.0799 39.1381 24.599V23.3884H41.1361H43.1342V24.4462ZM25.7515 28.9829C25.6105 29.1709 25.5047 29.4647 25.5047 29.6998C25.5047 30.0524 25.634 30.2404 26.3861 31.0161C26.868 31.5215 27.2676 31.9564 27.2676 32.0034C27.2676 32.0504 26.6095 32.0857 25.7985 32.0857H24.3294V30.3815V28.6773H25.1638H25.9865L25.7515 28.9829Z" fill="black"/>
<path d="M4.87976 17.4532L4.58594 17.7352V20.8615V23.9878L4.87976 24.2699L5.16183 24.5637H8.26462C11.1559 24.5637 11.3909 24.552 11.6495 24.3404L11.9316 24.1171L11.9668 20.932L12.0021 17.747L11.7082 17.4532L11.4144 17.1593H8.28813H5.16183L4.87976 17.4532ZM9.99231 20.8615V22.5657H8.28813H6.58395V20.8615V19.1573H8.28813H9.99231V20.8615Z" fill="black"/>
<path d="M13.7391 17.4649L13.457 17.7705V20.885V23.9996L13.7861 24.2816L14.1152 24.5637H17.1592H20.2032L20.5323 24.2816L20.8614 23.9996L20.8967 21.1906C20.9437 18.0878 20.9084 17.7352 20.5441 17.3944C20.2973 17.1711 20.121 17.1593 17.1592 17.1593H14.0212L13.7391 17.4649ZM18.9222 20.8615V22.5657H17.1592H15.3963V20.8615V19.1573H17.1592H18.9222V20.8615Z" fill="black"/>
<path d="M22.6705 17.3826C22.3885 17.606 22.3885 17.6177 22.3532 20.5795C22.3297 22.2249 22.3532 23.6822 22.3885 23.835C22.4237 23.9761 22.553 24.1994 22.6823 24.3287C22.9056 24.552 23.0819 24.5637 26.0319 24.5637H29.1582L29.4403 24.2699L29.7341 23.9878V20.8145V17.6412L29.4285 17.4062C29.1347 17.1711 28.9701 17.1593 26.0319 17.1593C23.1642 17.1593 22.9291 17.1711 22.6705 17.3826ZM27.7361 20.8615V22.5657H26.0319H24.3277V20.8615V19.1573H26.0319H27.7361V20.8615Z" fill="black"/>
<path d="M4.87976 26.9732L4.58594 27.2553V30.3815V33.5078L4.87976 33.7899L5.16183 34.0837H8.28813H11.4144L11.7082 33.7899L12.0021 33.4961L11.9668 30.311L11.9316 27.126L11.6495 26.9027C11.3909 26.6911 11.1559 26.6794 8.26462 26.6794H5.16183L4.87976 26.9732ZM9.99231 30.3815V32.0857H8.28813H6.58395V30.3815V28.6774H8.28813H9.99231V30.3815Z" fill="black"/>
<path d="M13.7861 26.9614L13.457 27.2435V30.358V33.4726L13.7391 33.7782L14.0212 34.0837H17.1592H20.2973L20.5793 33.7782L20.8614 33.4726V30.358V27.2435L20.5323 26.9614L20.2032 26.6794H17.1592H14.1152L13.7861 26.9614ZM18.9222 30.3815V32.0857H17.1592H15.3963V30.3815V28.6774H17.1592H18.9222V30.3815Z" fill="black"/>
<path d="M4.87976 36.493L4.58594 36.775V39.9366C4.58594 43.0864 4.58594 43.0981 4.85626 43.3449C5.12657 43.5918 5.20885 43.6035 8.27638 43.6035H11.4144L11.6965 43.3097L11.9903 43.0276V40.0306C11.9903 38.0796 11.9433 36.9278 11.861 36.7515C11.626 36.2461 11.3322 36.1991 8.15885 36.1991H5.16183L4.87976 36.493ZM9.99231 39.9013V41.6055H8.28813H6.58395V39.9013V38.1971H8.28813H9.99231V39.9013Z" fill="black"/>
<path d="M13.7871 36.4812L13.458 36.7633L13.4227 39.5605C13.3757 42.6633 13.411 43.0276 13.7753 43.3685C14.0221 43.5918 14.1984 43.6035 17.1837 43.6035C20.1454 43.6035 20.3452 43.5918 20.5568 43.3802C20.8976 43.0394 20.9329 42.628 20.8976 39.5722L20.8624 36.7633L20.5333 36.4812L20.2042 36.1991H17.1602H14.1161L13.7871 36.4812ZM18.9231 39.9013V41.6055H17.1602H15.3972V39.9013V38.1971H17.1602H18.9231V39.9013Z" fill="black"/>
<path d="M40.1961 28.7477C37.2343 29.0886 34.8955 30.2051 32.9562 32.2148C31.5224 33.7192 30.7349 35.0708 30.1355 37.1041C29.7007 38.585 29.6184 40.8533 29.9475 42.4282C30.4411 44.8141 31.4048 46.5888 33.1443 48.3047C34.4489 49.6093 35.6359 50.3615 37.2696 50.9374C38.8092 51.4898 39.8788 51.6425 41.7475 51.5603C42.958 51.5133 43.5457 51.431 44.3449 51.1959C49.0343 49.7973 52.2429 45.8131 52.6072 40.9356C52.7483 39.0668 52.2664 36.7045 51.4084 35.0003C49.9393 32.0856 47.1891 29.8878 44.0158 29.0886C42.9933 28.83 41.0305 28.6537 40.1961 28.7477ZM43.7102 31.0983C46.9305 32.0386 49.4574 34.589 50.3272 37.8093C50.6562 39.0433 50.6797 41.1941 50.3742 42.3694C49.4574 45.8718 46.7778 48.5398 43.3224 49.3625C38.4214 50.5378 33.3676 47.4937 32.016 42.5457C31.7222 41.4762 31.7104 38.9023 32.0042 37.8445C32.8152 34.8123 35.1776 32.2619 38.104 31.2511C39.9728 30.6164 41.8415 30.5577 43.7102 31.0983Z" fill="black"/>
<path d="M44.5429 34.8005C44.1669 34.9651 43.2736 35.776 41.5107 37.5272L38.9955 40.0188L38.69 39.6075C37.5734 38.1501 36.9388 37.774 35.7282 37.868C34.5294 37.9503 33.6127 38.82 33.4246 40.0541C33.2836 41.0178 33.5186 41.4762 35.3404 43.768C37.1856 46.0951 37.7262 46.5417 38.69 46.5417C39.8535 46.5417 39.877 46.5182 43.9318 42.4987C46.3764 40.0659 47.8103 38.5615 47.9513 38.2441C48.2451 37.6447 48.2569 36.6575 47.9631 36.0228C47.3989 34.7653 45.8475 34.2129 44.5429 34.8005ZM46.0003 36.7398C46.1061 36.8338 46.1884 37.0336 46.1884 37.1746C46.1884 37.539 39.1718 44.5437 38.8075 44.5437C38.6194 44.5437 38.1611 44.0501 37.0563 42.6515C36.2336 41.6172 35.5049 40.6653 35.4461 40.536C35.3639 40.3597 35.3991 40.2421 35.5754 40.0541C35.9868 39.6545 36.2923 39.8425 37.2443 41.0766C38.2551 42.3812 38.4549 42.5457 39.0073 42.5457C39.3951 42.5457 39.642 42.3224 42.4274 39.5487C44.0728 37.9033 45.5184 36.5517 45.6242 36.5517C45.73 36.5517 45.9063 36.634 46.0003 36.7398Z" fill="black"/>
</svg>
