<svg width="59" height="59" viewBox="0 0 59 59" fill="none" xmlns="http://www.w3.org/2000/svg">
<path d="M46.6507 0.0446739C43.1436 0.377552 40.1001 2.98114 39.2322 6.40505C38.9112 7.64146 38.9112 9.53174 39.2203 10.7563C39.4819 11.7668 40.0169 12.8962 40.6232 13.7284L41.0393 14.299H35.2614H29.4836V9.30585C29.4836 4.46721 29.4717 4.30077 29.2458 4.07489C29.02 3.84901 28.8535 3.83712 26.6304 3.83712C24.4072 3.83712 24.2408 3.84901 24.0149 4.07489C23.789 4.30077 23.7771 4.46721 23.7771 9.30585V14.299H23.3016H22.826V7.40369C22.826 0.662876 22.826 0.508327 22.5882 0.270554C22.3624 0.0446739 22.1959 0.0327835 19.9728 0.0327835C17.7496 0.0327835 17.5832 0.0446739 17.3573 0.270554C17.1195 0.508327 17.1195 0.662876 17.1195 7.40369V14.299H16.644H16.1684V10.7325C16.1684 7.32047 16.1565 7.15403 15.9307 6.92814C15.7048 6.70226 15.5383 6.69037 13.3152 6.69037C11.092 6.69037 10.9256 6.70226 10.6997 6.92814C10.4738 7.15403 10.4619 7.32047 10.4619 10.7325V14.299H6.71703C3.2218 14.299 2.93647 14.3109 2.31827 14.5487C1.43851 14.8816 0.582539 15.7376 0.24966 16.6173C0 17.2712 0 17.3663 0 32.3696C0 47.3136 0 47.4681 0.24966 48.1101C0.546873 48.9066 1.27207 49.6913 2.0805 50.0836L2.67492 50.3808L13.0061 50.4165C21.126 50.4402 23.3134 50.4759 23.2659 50.5948C23.2421 50.6661 22.9568 51.5221 22.6358 52.497L22.0651 54.2446H20.3056C18.0468 54.2446 18.0706 54.2208 18.0706 55.909V57.0978H13.0774C8.23877 57.0978 8.07233 57.1097 7.84644 57.3356C7.52545 57.6566 7.52545 58.4412 7.84644 58.7622C8.08421 59 8.23877 59 29.4836 59C50.7284 59 50.883 59 51.1208 58.7622C51.4418 58.4412 51.4418 57.6566 51.1208 57.3356C50.8949 57.1097 50.7284 57.0978 45.8898 57.0978H40.8966V55.909C40.8966 54.2208 40.9204 54.2446 38.6616 54.2446H36.9021L36.3314 52.4851C36.0104 51.5221 35.7251 50.6661 35.7013 50.5829C35.6538 50.4759 37.7224 50.4402 45.8185 50.4402C55.793 50.4402 55.9951 50.4402 56.6371 50.1906C57.4336 49.8934 58.2182 49.1682 58.6106 48.3597L58.9078 47.7653L58.9434 32.5242C58.9672 17.3069 58.9672 17.2831 58.7176 16.6173C58.1707 15.155 56.8154 14.299 55.0321 14.299H54.0691L54.4852 13.7284C55.5909 12.2186 56.114 10.566 56.114 8.59254C56.114 6.11972 55.3412 4.25322 53.6174 2.51749C52.7971 1.69718 52.4047 1.39997 51.5131 0.960091C49.9438 0.175446 48.3983 -0.121765 46.6507 0.0446739ZM20.9238 12.8724V23.8099H19.9728H19.0217V12.8724V1.93495H19.9728H20.9238V12.8724ZM46.6031 5.06164V8.05756L44.4156 10.245L42.2281 12.4325L41.919 11.957C41.277 10.994 41.0868 10.2094 41.0749 8.65199C41.0749 6.91626 41.277 6.20294 42.1092 4.94276C42.9771 3.6469 44.3681 2.63638 45.8541 2.23217C46.1632 2.14894 46.4605 2.06573 46.5199 2.06573C46.5675 2.05384 46.6031 3.40913 46.6031 5.06164ZM49.6941 2.37483C51.7865 3.05247 53.4747 4.99031 54.0216 7.30858L54.0929 7.64146H51.2991H48.5053V4.84765V2.05384L48.8382 2.12517C49.0165 2.17272 49.3969 2.27972 49.6941 2.37483ZM27.5814 14.7746V23.8099H26.6304H25.6793V14.7746V5.73929H26.6304H27.5814V14.7746ZM14.2663 16.2012V23.8099H13.3152H12.3641V16.2012V8.59254H13.3152H14.2663V16.2012ZM54.0216 9.86462C53.5341 11.957 52.2026 13.6452 50.348 14.5249C49.3256 15.0124 48.4815 15.1669 47.1857 15.1075C45.973 15.048 44.9863 14.7627 44.1897 14.2277L43.7142 13.9186L45.9017 11.7311L48.0892 9.54362H51.097H54.0929L54.0216 9.86462ZM10.4619 20.0056V23.8099H9.98638H9.51084V20.7189C9.51084 17.7824 9.49895 17.616 9.27307 17.3901C9.04719 17.1642 8.88075 17.1523 6.65759 17.1523C4.43443 17.1523 4.26799 17.1642 4.04211 17.3901C3.81622 17.616 3.80434 17.7824 3.80434 21.4322C3.80434 25.082 3.81622 25.2484 4.04211 25.4743C4.27988 25.7121 4.43443 25.7121 19.9728 25.7121C35.5111 25.7121 35.6657 25.7121 35.9034 25.4743C36.1293 25.2484 36.1412 25.082 36.1412 21.4322C36.1412 17.7824 36.1293 17.616 35.9034 17.3901C35.6775 17.1642 35.5111 17.1523 33.2879 17.1523C31.0648 17.1523 30.8983 17.1642 30.6725 17.3901C30.4466 17.616 30.4347 17.7824 30.4347 20.7189V23.8099H29.9591H29.4836V20.0056V16.2012H36.4978C43.3575 16.2012 43.5359 16.2012 43.9995 16.4509C45.8541 17.3901 49.2662 17.3901 51.1327 16.439C51.5963 16.2012 51.7746 16.1774 53.6055 16.225C55.3174 16.2607 55.6265 16.2963 55.9832 16.4984C56.5063 16.8075 56.8154 17.2355 56.9462 17.8181C57.0175 18.0796 57.065 23.6197 57.065 30.5507V42.8316H29.4836H1.90217L1.92595 30.2535C1.96161 17.9369 1.96161 17.6754 2.19938 17.2831C2.4966 16.7838 2.93647 16.439 3.45957 16.3201C3.68545 16.2725 5.34985 16.225 7.1688 16.2131L10.4619 16.2012V20.0056ZM17.1195 20.0056V23.8099H16.644H16.1684V20.0056V16.2012H16.644H17.1195V20.0056ZM23.7771 20.0056V23.8099H23.3016H22.826V20.0056V16.2012H23.3016H23.7771V20.0056ZM7.60867 21.4322V23.8099H6.65759H5.7065V21.4322V19.0545H6.65759H7.60867V21.4322ZM34.239 21.4322V23.8099H33.2879H32.3369V21.4322V19.0545H33.2879H34.239V21.4322ZM57.0413 45.9107C56.958 47.5275 56.5657 48.1695 55.4482 48.4192C54.83 48.5737 4.13722 48.5737 3.51901 48.4192C2.40149 48.1695 2.00917 47.5275 1.92595 45.9107L1.8665 44.7337H29.4836H57.1007L57.0413 45.9107ZM34.0488 52.1879C34.3698 53.1627 34.6551 54.0187 34.6789 54.09C34.7265 54.2089 33.6446 54.2446 29.4836 54.2446C25.3226 54.2446 24.2408 54.2089 24.2883 54.09C24.3121 54.0187 24.5974 53.1627 24.9184 52.1879L25.4891 50.4402H29.4836H33.4782L34.0488 52.1879ZM38.9944 56.6223V57.0978H29.4836H19.9728V56.6223V56.1467H29.4836H38.9944V56.6223Z" fill="black"/>
<path d="M41.1123 20.2195C39.0436 22.2881 38.9961 22.3356 38.9961 22.835C38.9961 23.5007 39.3052 23.8098 39.971 23.8098C40.4465 23.8098 40.5178 23.7504 42.3843 21.9076L44.2984 20.0055H48.5426C52.6323 20.0055 52.7987 19.9936 53.0246 19.7677C53.1791 19.6132 53.2624 19.3754 53.2624 19.0544C53.2624 18.7334 53.1791 18.4956 53.0246 18.3411C52.7987 18.1152 52.6323 18.1033 48.0076 18.1033H43.2284L41.1123 20.2195Z" fill="black"/>
<path d="M4.04246 26.901C3.88791 27.0556 3.80469 27.2934 3.80469 27.6143C3.80469 27.9353 3.88791 28.1731 4.04246 28.3277C4.26834 28.5535 4.43478 28.5654 9.98673 28.5654C15.5387 28.5654 15.7051 28.5535 15.931 28.3277C16.0856 28.1731 16.1688 27.9353 16.1688 27.6143C16.1688 27.2934 16.0856 27.0556 15.931 26.901C15.7051 26.6752 15.5387 26.6633 9.98673 26.6633C4.43478 26.6633 4.26834 26.6752 4.04246 26.901Z" fill="black"/>
<path d="M17.3589 26.901C17.2043 27.0556 17.1211 27.2934 17.1211 27.6143C17.1211 28.3752 17.4064 28.5654 18.5477 28.5654C19.689 28.5654 19.9743 28.3752 19.9743 27.6143C19.9743 26.8535 19.689 26.6633 18.5477 26.6633C17.7512 26.6633 17.561 26.6989 17.3589 26.901Z" fill="black"/>
<path d="M35.8447 27.84C35.2384 28.1135 34.5369 28.8862 34.3586 29.4807C34.2278 29.8968 33.7642 30.2653 29.2584 33.6416L24.3128 37.3509L23.8967 36.9467C23.326 36.3998 22.7316 36.1739 21.8518 36.1739C20.9127 36.1739 20.2944 36.4473 19.7 37.1131L19.2483 37.6124L14.4096 35.6033C9.57097 33.5941 9.57097 33.5822 9.35698 33.1304C8.822 32.001 7.89469 31.4185 6.65828 31.4185C4.95822 31.4185 3.78125 32.5955 3.78125 34.2717C3.78125 35.948 4.95822 37.125 6.65828 37.125C7.62125 37.125 8.22757 36.8634 8.83388 36.1858L9.28565 35.6865L14.1243 37.6956C18.9629 39.7048 18.9629 39.7167 19.1769 40.1685C19.486 40.7986 20.0567 41.393 20.6273 41.6545C21.2574 41.9517 22.4819 41.9517 23.1239 41.6545C23.7302 41.3811 24.4317 40.6083 24.61 40.0139C24.7408 39.5978 25.2044 39.2293 29.7102 35.8529L34.6558 32.1437L35.0719 32.5479C35.6307 33.0948 36.2251 33.3207 37.093 33.3207C37.9846 33.3207 38.5553 33.0948 39.1735 32.4885L39.649 32.0367L44.5233 34.8781C49.3857 37.7194 49.3976 37.7194 49.6473 38.2901C50.1466 39.3957 51.0739 39.9782 52.3103 39.9782C54.0104 39.9782 55.1517 38.8369 55.1636 37.1488C55.1636 35.4249 54.0342 34.2836 52.3341 34.2717C51.4306 34.2717 50.8599 34.4976 50.2298 35.1039L49.7543 35.5557L44.88 32.7143C40.0176 29.873 40.0057 29.873 39.756 29.3023C39.4588 28.6485 38.8763 28.054 38.258 27.8044C37.6517 27.5428 36.4391 27.5666 35.8447 27.84ZM37.6874 29.873C37.8182 30.0038 37.9252 30.2653 37.9252 30.4674C37.9252 30.6695 37.8182 30.9311 37.6874 31.0618C37.5566 31.1926 37.2951 31.2996 37.093 31.2996C36.8909 31.2996 36.6293 31.1926 36.4985 31.0618C36.3678 30.9311 36.2608 30.6695 36.2608 30.4674C36.2608 30.2653 36.3678 30.0038 36.4985 29.873C36.6293 29.7422 36.8909 29.6352 37.093 29.6352C37.2951 29.6352 37.5566 29.7422 37.6874 29.873ZM7.25271 33.6773C7.76391 34.1885 7.38348 35.1039 6.65828 35.1039C6.20651 35.1039 5.82608 34.7235 5.82608 34.2717C5.82608 33.82 6.20651 33.4395 6.65828 33.4395C6.86038 33.4395 7.12193 33.5465 7.25271 33.6773ZM52.9047 36.5306C53.0355 36.6613 53.1425 36.9229 53.1425 37.125C53.1425 37.3271 53.0355 37.5886 52.9047 37.7194C52.774 37.8502 52.5124 37.9572 52.3103 37.9572C52.1082 37.9572 51.8467 37.8502 51.7159 37.7194C51.5851 37.5886 51.4781 37.3271 51.4781 37.125C51.4781 36.9229 51.5851 36.6613 51.7159 36.5306C51.8467 36.3998 52.1082 36.2928 52.3103 36.2928C52.5124 36.2928 52.774 36.3998 52.9047 36.5306ZM22.4701 38.4327C22.6008 38.5635 22.7078 38.8251 22.7078 39.0272C22.7078 39.2293 22.6008 39.4908 22.4701 39.6216C22.3393 39.7524 22.0777 39.8594 21.8756 39.8594C21.6735 39.8594 21.412 39.7524 21.2812 39.6216C21.1504 39.4908 21.0434 39.2293 21.0434 39.0272C21.0434 38.8251 21.1504 38.5635 21.2812 38.4327C21.412 38.302 21.6735 38.195 21.8756 38.195C22.0777 38.195 22.3393 38.302 22.4701 38.4327Z" fill="black"/>
<path d="M41.1362 37.3629C40.9817 37.5175 40.8984 37.7553 40.8984 38.0763C40.8984 38.3973 40.9817 38.635 41.1362 38.7896C41.3502 39.0036 41.5285 39.0273 43.2761 39.0273C45.0238 39.0273 45.2021 39.0036 45.4161 38.7896C45.5706 38.635 45.6539 38.3973 45.6539 38.0763C45.6539 37.7553 45.5706 37.5175 45.4161 37.3629C45.2021 37.149 45.0238 37.1252 43.2761 37.1252C41.5285 37.1252 41.3502 37.149 41.1362 37.3629Z" fill="black"/>
<path d="M37.3315 40.216C37.177 40.3705 37.0938 40.6083 37.0938 40.9293C37.0938 41.2503 37.177 41.488 37.3315 41.6426C37.5574 41.8685 37.7238 41.8804 41.3736 41.8804C45.0234 41.8804 45.1899 41.8685 45.4157 41.6426C45.5703 41.488 45.6535 41.2503 45.6535 40.9293C45.6535 40.6083 45.5703 40.3705 45.4157 40.216C45.1899 39.9901 45.0234 39.9782 41.3736 39.9782C37.7238 39.9782 37.5574 39.9901 37.3315 40.216Z" fill="black"/>
<path d="M4.04246 45.9225C3.88791 46.0771 3.80469 46.3148 3.80469 46.6358C3.80469 46.9568 3.88791 47.1946 4.04246 47.3491C4.26834 47.575 4.43478 47.5869 7.60902 47.5869C10.7833 47.5869 10.9497 47.575 11.1756 47.3491C11.4966 47.0282 11.4966 46.2435 11.1756 45.9225C10.9497 45.6966 10.7833 45.6847 7.60902 45.6847C4.43478 45.6847 4.26834 45.6966 4.04246 45.9225Z" fill="black"/>
<path d="M12.6011 45.9225C12.4465 46.0771 12.3633 46.3148 12.3633 46.6358C12.3633 47.3967 12.6486 47.5869 13.7899 47.5869C14.9312 47.5869 15.2165 47.3967 15.2165 46.6358C15.2165 45.875 14.9312 45.6847 13.7899 45.6847C12.9934 45.6847 12.8032 45.7204 12.6011 45.9225Z" fill="black"/>
</svg>
