<svg width="60" height="59" viewBox="0 0 60 59" fill="none" xmlns="http://www.w3.org/2000/svg">
<path d="M6.23491 0.230469C3.41167 0.979492 1.06089 3.3418 0.334912 6.17656C0.0237793 7.38652 0.0237793 9.20723 0.334912 10.4172C1.06089 13.275 3.42319 15.6373 6.28101 16.3633C6.89175 16.5246 7.56011 16.5938 8.40132 16.5938C9.24253 16.5938 9.91089 16.5246 10.5216 16.3633C13.3794 15.6373 15.7417 13.275 16.4677 10.4172C16.7789 9.20723 16.7789 7.38652 16.4677 6.17656C15.7417 3.31875 13.3794 0.956445 10.5216 0.230469C9.33472 -0.0806637 7.4103 -0.0691414 6.23491 0.230469ZM10.5332 2.28164C12.3884 2.96152 13.7943 4.43652 14.4626 6.41855C14.7392 7.22519 14.7623 7.44414 14.7046 8.52734C14.6585 9.76035 14.4281 10.6016 13.898 11.4889L13.6675 11.8807L13.4716 11.4428C13.1835 10.7975 12.3769 9.84102 11.7546 9.3916L11.2015 8.98828L11.5587 8.27383C11.8699 7.64004 11.916 7.44414 11.9044 6.62598C11.9044 5.54277 11.6394 4.87441 10.9134 4.15996C10.1759 3.41094 9.55366 3.16895 8.40132 3.16895C7.24897 3.16895 6.62671 3.41094 5.88921 4.15996C5.14019 4.89746 4.88667 5.53125 4.88667 6.68359C4.88667 7.55937 4.93276 7.73223 5.25542 8.31992L5.61265 8.98828L5.05952 9.38008C4.42573 9.84102 3.61909 10.7859 3.33101 11.4428L3.13511 11.8807L2.8355 11.3852C2.01733 9.9793 1.82144 7.9627 2.35151 6.37246C3.07749 4.24062 4.61011 2.7541 6.78804 2.12031C7.59468 1.87832 9.68042 1.97051 10.5332 2.28164ZM9.31167 5.38144C10.2912 6.10742 10.1759 7.5248 9.0812 8.10098C8.02105 8.66563 6.68433 7.7207 6.83413 6.52227C6.97241 5.32383 8.36675 4.69004 9.31167 5.38144ZM9.98003 10.6361C10.9941 11.1547 11.6509 11.9613 11.9505 13.0561C12.0658 13.4824 12.0658 13.4939 11.6394 13.7705C10.8558 14.3006 9.93394 14.5541 8.65483 14.6117C7.61772 14.6578 7.36421 14.6232 6.523 14.3582C6.00444 14.1969 5.38218 13.9318 5.15171 13.7705C4.74839 13.4939 4.73687 13.4709 4.8521 13.0561C5.20933 11.7539 6.14272 10.7975 7.47944 10.3596C8.05562 10.1637 9.34624 10.3135 9.98003 10.6361Z" fill="black"/>
<path d="M22.2305 0.241991C21.5391 0.553125 20.9975 1.09473 20.6633 1.78613L20.3867 2.3623V8.29688C20.3867 14.0125 20.3982 14.2545 20.6287 14.75C20.9398 15.4414 21.4814 15.983 22.1729 16.3172L22.749 16.5938H39.7461H56.7432L57.3193 16.3172C58.0107 15.983 58.5523 15.4414 58.8635 14.75C59.0939 14.2545 59.1055 14.024 59.1055 8.29688C59.1055 2.56973 59.0939 2.33926 58.8635 1.84375C58.5523 1.15234 58.0107 0.610742 57.3193 0.276562L56.7432 0H39.7461C22.8988 0 22.749 0.0115223 22.2305 0.241991ZM56.5818 2.10879C57.2041 2.53516 57.2041 2.47754 57.2041 8.34297C57.2041 14.3121 57.2271 14.1393 56.4897 14.5311C56.0402 14.773 23.452 14.773 23.0025 14.5311C22.2766 14.1393 22.2881 14.2545 22.2535 8.81543C22.2305 6.08437 22.2535 3.58379 22.2881 3.26113C22.3687 2.56973 22.8182 2.00508 23.3598 1.92441C23.5326 1.90137 31.0113 1.87832 39.9766 1.88984C55.3258 1.90137 56.3053 1.91289 56.5818 2.10879Z" fill="black"/>
<path d="M26.1484 7.60547C25.9986 7.75527 25.918 7.98574 25.918 8.29688C25.918 8.60801 25.9986 8.83848 26.1484 8.98828C26.3789 9.21875 26.5287 9.21875 39.7461 9.21875C52.9635 9.21875 53.1133 9.21875 53.3437 8.98828C53.6549 8.67715 53.6549 7.9166 53.3437 7.60547C53.1133 7.375 52.9635 7.375 39.7461 7.375C26.5287 7.375 26.3789 7.375 26.1484 7.60547Z" fill="black"/>
<path d="M22.2305 20.5232C21.5391 20.8344 20.9975 21.376 20.6633 22.0674L20.3867 22.6436V28.5781C20.3867 34.2938 20.3982 34.5357 20.6287 35.0312C20.9398 35.7227 21.4814 36.2643 22.1729 36.5984L22.749 36.875H39.7461H56.7432L57.3193 36.5984C58.0107 36.2643 58.5523 35.7227 58.8635 35.0312C59.0939 34.5357 59.1055 34.3053 59.1055 28.5781C59.1055 22.851 59.0939 22.6205 58.8635 22.125C58.5523 21.4336 58.0107 20.892 57.3193 20.5578L56.7432 20.2812H39.7461C22.8988 20.2812 22.749 20.2928 22.2305 20.5232ZM56.5818 22.39C57.2041 22.8164 57.2041 22.7588 57.2041 28.6242C57.2041 34.5934 57.2271 34.4205 56.4897 34.8123C56.0402 35.0543 23.452 35.0543 23.0025 34.8123C22.2766 34.4205 22.2881 34.5357 22.2535 29.0967C22.2305 26.3656 22.2535 23.865 22.2881 23.5424C22.3687 22.851 22.8182 22.2863 23.3598 22.2057C23.5326 22.1826 31.0113 22.1596 39.9766 22.1711C55.3258 22.1826 56.3053 22.1941 56.5818 22.39Z" fill="black"/>
<path d="M26.1369 24.6486C25.699 25.0058 25.7797 25.5935 26.4135 26.6537C26.7131 27.1492 26.9551 27.5755 26.9551 27.5986C26.9551 27.6332 26.4135 27.6562 25.7451 27.6562C24.3162 27.6562 24.0742 27.7945 24.0742 28.5781C24.0742 29.3617 24.3162 29.5 25.7451 29.5C26.4135 29.5 26.9551 29.523 26.9551 29.5576C26.9551 29.5806 26.7131 30.007 26.4135 30.5025C25.7797 31.5626 25.699 32.1503 26.1369 32.5076C26.4826 32.7957 27.2316 32.7957 27.5082 32.5191C27.6119 32.4039 27.9115 31.9429 28.165 31.482C28.4186 31.021 28.649 30.6523 28.6836 30.6523C28.7182 30.6523 28.9486 31.021 29.2021 31.482C29.4557 31.9429 29.7553 32.4039 29.8705 32.5191C30.1355 32.7957 30.8846 32.7957 31.2303 32.5076C31.6682 32.1503 31.5875 31.5626 30.9537 30.5025C30.6541 30.007 30.4121 29.5691 30.4121 29.546C30.4121 29.523 30.9537 29.5 31.6221 29.5C33.051 29.5 33.293 29.3617 33.293 28.5781C33.293 27.7945 33.051 27.6562 31.6221 27.6562C30.9537 27.6562 30.4121 27.6332 30.4121 27.6101C30.4121 27.5871 30.6426 27.1607 30.9307 26.6652C31.5299 25.605 31.5875 25.1326 31.1611 24.7177C30.827 24.372 30.3199 24.349 29.9396 24.6486C29.7898 24.7638 29.4557 25.2363 29.2021 25.6857C28.9486 26.1351 28.7182 26.5039 28.6836 26.5039C28.649 26.5039 28.4186 26.1351 28.165 25.6742C27.9115 25.2132 27.6119 24.7523 27.5082 24.6371C27.2316 24.3605 26.4826 24.3605 26.1369 24.6486Z" fill="black"/>
<path d="M37.1994 24.6486C36.7615 25.0058 36.8422 25.5935 37.476 26.6537C37.7756 27.1492 38.0176 27.5755 38.0176 27.5986C38.0176 27.6332 37.476 27.6562 36.8076 27.6562C35.3787 27.6562 35.1367 27.7945 35.1367 28.5781C35.1367 29.3617 35.3787 29.5 36.8076 29.5C37.476 29.5 38.0176 29.523 38.0176 29.5576C38.0176 29.5806 37.7756 30.007 37.476 30.5025C36.8422 31.5626 36.7615 32.1503 37.1994 32.5076C37.5451 32.7957 38.2941 32.7957 38.5707 32.5191C38.6744 32.4039 38.974 31.9429 39.2275 31.482C39.4811 31.021 39.7115 30.6523 39.7461 30.6523C39.7807 30.6523 40.0111 31.021 40.2646 31.482C40.5182 31.9429 40.8178 32.4039 40.933 32.5191C41.198 32.7957 41.9471 32.7957 42.2928 32.5076C42.7307 32.1503 42.65 31.5626 42.0162 30.5025C41.7166 30.007 41.4746 29.5691 41.4746 29.546C41.4746 29.523 42.0162 29.5 42.6846 29.5C44.1135 29.5 44.3555 29.3617 44.3555 28.5781C44.3555 27.7945 44.1135 27.6562 42.6846 27.6562C42.0162 27.6562 41.4746 27.6332 41.4746 27.6101C41.4746 27.5871 41.7051 27.1607 41.9932 26.6652C42.5924 25.605 42.65 25.1326 42.2236 24.7177C41.8895 24.372 41.3824 24.349 41.0021 24.6486C40.8523 24.7638 40.5182 25.2363 40.2646 25.6857C40.0111 26.1351 39.7807 26.5039 39.7461 26.5039C39.7115 26.5039 39.4811 26.1351 39.2275 25.6742C38.974 25.2132 38.6744 24.7523 38.5707 24.6371C38.2941 24.3605 37.5451 24.3605 37.1994 24.6486Z" fill="black"/>
<path d="M48.2619 24.6486C47.824 25.0058 47.9047 25.5935 48.5385 26.6537C48.8381 27.1492 49.0801 27.5755 49.0801 27.5986C49.0801 27.6332 48.5385 27.6562 47.8701 27.6562C46.4412 27.6562 46.1992 27.7945 46.1992 28.5781C46.1992 29.3617 46.4412 29.5 47.8701 29.5C48.5385 29.5 49.0801 29.523 49.0801 29.5576C49.0801 29.5806 48.8381 30.007 48.5385 30.5025C47.9047 31.5626 47.824 32.1503 48.2619 32.5076C48.6076 32.7957 49.3566 32.7957 49.6332 32.5191C49.7369 32.4039 50.0365 31.9429 50.29 31.482C50.5436 31.021 50.774 30.6523 50.8086 30.6523C50.8432 30.6523 51.0736 31.021 51.3271 31.482C51.5807 31.9429 51.8803 32.4039 51.9955 32.5191C52.2605 32.7957 53.0096 32.7957 53.3553 32.5076C53.7932 32.1503 53.7125 31.5626 53.0787 30.5025C52.7791 30.007 52.5371 29.5691 52.5371 29.546C52.5371 29.523 53.0787 29.5 53.7471 29.5C55.176 29.5 55.418 29.3617 55.418 28.5781C55.418 27.7945 55.176 27.6562 53.7471 27.6562C53.0787 27.6562 52.5371 27.6332 52.5371 27.6101C52.5371 27.5871 52.7676 27.1607 53.0557 26.6652C53.6549 25.605 53.7125 25.1326 53.2861 24.7177C52.952 24.372 52.4449 24.349 52.0646 24.6486C51.9148 24.7638 51.5807 25.2363 51.3271 25.6857C51.0736 26.1351 50.8432 26.5039 50.8086 26.5039C50.774 26.5039 50.5436 26.1351 50.29 25.6742C50.0365 25.2132 49.7369 24.7523 49.6332 24.6371C49.3566 24.3605 48.6076 24.3605 48.2619 24.6486Z" fill="black"/>
<path d="M3.09051 24.4182C1.79988 24.833 0.831914 25.7664 0.324882 27.0801C0.128984 27.5986 0.0944136 27.9098 0.128984 28.8086C0.152031 29.742 0.209648 30.007 0.497734 30.5832C1.6616 32.957 4.69226 33.7867 6.95086 32.3463C7.78055 31.8277 8.4489 30.8943 8.79461 29.8111C8.85223 29.6383 9.01355 29.6152 9.95848 29.6152H11.0532V30.4795C11.0532 31.2516 11.0878 31.3898 11.3413 31.6318C11.6409 31.943 12.0327 32.0006 12.4706 31.7932C12.8624 31.6088 13.0122 31.2285 13.0122 30.3643C13.0122 29.7766 13.0468 29.6152 13.185 29.6152C13.3348 29.6152 13.3579 29.8572 13.3579 31.0557C13.3579 32.4385 13.3694 32.5191 13.646 32.7842C13.8188 32.957 14.0608 33.0723 14.2682 33.0723C15.144 33.0723 15.3169 32.715 15.3169 30.9404V29.6152H15.7087C15.9276 29.6152 16.2272 29.5115 16.4001 29.3732C16.8264 29.0391 16.8264 28.2324 16.4001 27.8982C16.1005 27.6678 15.9622 27.6562 12.4706 27.6562C9.12879 27.6562 8.85223 27.6447 8.79461 27.4488C8.63328 26.9187 8.1493 26.0314 7.82664 25.6627C6.73191 24.4066 4.74988 23.8881 3.09051 24.4182ZM5.38367 26.3311C6.50144 26.8035 7.1698 28.0365 6.90476 29.1543C6.74344 29.8342 6.10965 30.6063 5.47586 30.8943C3.8741 31.6203 2.06492 30.4219 2.06492 28.6357C2.06492 26.8842 3.80496 25.6857 5.38367 26.3311Z" fill="black"/>
<path d="M7.01934 40.8045C3.72363 41.6572 1.17695 44.227 0.335742 47.5227C0.0130859 48.7787 0.0130859 50.7838 0.335742 52.0398C1.17695 55.3471 3.76973 57.9398 7.06543 58.7695C7.96426 59 8.39062 59 29.6053 59C50.8199 59 51.2463 59 52.1451 58.7695C55.4293 57.9398 58.0451 55.324 58.8748 52.0398C59.1975 50.7838 59.1859 48.7787 58.8748 47.5227C58.0336 44.2039 55.4639 41.6342 52.1451 40.793C51.2463 40.5625 50.9006 40.5625 29.5592 40.574C8.43672 40.574 7.86055 40.5855 7.01934 40.8045ZM50.5664 42.5215C51.8686 42.6713 52.825 43.0055 53.8275 43.6623C55.1758 44.5381 56.1553 45.7596 56.766 47.3037C57.0656 48.0527 57.0887 48.2256 57.0887 49.7812C57.0887 51.3945 57.0771 51.4867 56.7199 52.374C55.8211 54.5865 53.9428 56.2459 51.6035 56.8912C50.9121 57.0871 49.5639 57.0986 29.6053 57.0986C9.64668 57.0986 8.29844 57.0871 7.60703 56.8912C5.26777 56.2459 3.38945 54.5865 2.49063 52.374C2.1334 51.4867 2.12188 51.3945 2.12188 49.7812C2.12188 48.2256 2.14492 48.0527 2.44453 47.3037C3.49316 44.6648 5.78633 42.8441 8.44824 42.533C9.63516 42.3947 49.368 42.3832 50.5664 42.5215Z" fill="black"/>
<path d="M31.4262 48.5943L28.9141 51.0949L27.0934 49.2857C25.3879 47.6033 25.2381 47.4766 24.8348 47.4766C24.2471 47.4766 23.8438 47.8914 23.8438 48.4791C23.8438 48.8824 23.9705 49.0322 26.1254 51.1871L28.407 53.4688H28.9141H29.4326L32.3941 50.4957C35.2289 47.6609 35.3672 47.5111 35.3672 47.0963C35.3672 46.4971 34.9639 46.0938 34.3646 46.0938C33.9613 46.0938 33.8 46.232 31.4262 48.5943Z" fill="black"/>
</svg>
