<svg width="60" height="59" viewBox="0 0 60 59" fill="none" xmlns="http://www.w3.org/2000/svg">
<path d="M35.4571 0.145111C33.3125 0.49102 31.018 1.24049 29.1731 2.18597C27.7549 2.91238 27.5358 3.10839 27.5358 3.67338C27.5358 4.15765 27.9394 4.58427 28.4121 4.58427C28.5505 4.58427 29.2538 4.27295 29.9802 3.89245C33.9697 1.80547 38.7317 1.24049 43.0902 2.34739C50.4695 4.2153 56.0963 10.4762 57.1686 18.017C57.3416 19.2508 57.307 22.1334 57.111 23.3671C56.4653 27.345 54.7127 30.7811 51.8417 33.6982C50.9999 34.5515 50.4465 35.0357 50.3773 34.9666C50.3197 34.8974 49.9046 34.2171 49.4549 33.4446L48.6478 32.0494L49.4203 31.2538C56.3846 24.1512 54.8395 12.4133 46.261 7.36307C40.4267 3.92704 32.759 4.861 27.9509 9.57688C24.9415 12.5402 23.3503 16.3336 23.3503 20.5537C23.3503 24.5432 24.7801 28.1291 27.5243 31.0232C30.3723 34.0095 34.1081 35.6699 38.1667 35.7391C39.3774 35.7621 39.4005 35.7737 39.2621 36.0043C39.1699 36.1311 38.7317 36.8921 38.259 37.7108C37.7978 38.5179 37.3827 39.2097 37.325 39.2328C37.1751 39.3365 34.7884 38.956 33.693 38.6562C32.4592 38.3219 31.0064 37.7454 29.8188 37.1343C29.0117 36.7076 28.931 36.6961 27.8241 36.6961C26.4174 36.6961 26.0254 36.8691 24.8493 38.0106L24.0652 38.76L22.2088 36.9036L20.3409 35.0357L21.1596 34.1825C22.2319 33.0525 22.5086 32.3607 22.4279 31.0463C22.3818 30.2161 22.3126 29.9855 21.7361 28.7979C20.952 27.1606 20.4793 25.7539 20.1334 24.0474C19.9028 22.9405 19.8682 22.4101 19.8797 20.4384C19.8797 18.5013 19.9258 17.9363 20.1449 16.9217C20.929 13.255 22.474 10.3148 25.0568 7.59367C25.887 6.70584 26.0369 6.49829 26.0369 6.16392C26.0369 5.64505 25.6449 5.27608 25.0914 5.27608C24.7109 5.27608 24.5725 5.39139 23.5002 6.50983C21.1942 8.91965 19.3724 12.2404 18.5422 15.5034L18.4154 15.9992H9.88296C0.624143 15.9992 0.854749 15.9877 0.347416 16.6334C0.116811 16.9332 0.09375 17.0831 0.09375 18.7319C0.09375 20.1847 0.128341 20.5537 0.278234 20.7958C0.704855 21.4415 0.416598 21.4185 9.52552 21.4185H17.9426L18.0233 22.3063C18.2655 24.9467 18.9458 27.3681 20.1449 29.8241C20.9059 31.4037 20.8252 31.8419 19.4416 33.2485L18.5076 34.2056L16.8818 34.7475C15.9825 35.0473 15.0716 35.3816 14.8525 35.497C14.3452 35.7506 9.3641 40.7548 9.26032 41.1122C9.08737 41.6887 9.60623 42.2883 10.2635 42.2883C10.4364 42.2883 11.3358 41.4696 13.123 39.694L15.7288 37.0997L17.2162 36.5923L18.7152 36.085L20.8598 38.2181L23.0159 40.3627L22.5086 41.8732L22.0013 43.3837L15.2791 50.1058C11.5894 53.7955 8.40708 56.8972 8.19954 56.9894C7.78445 57.1969 7.04651 57.2085 6.5853 57.0355C6.17021 56.8856 2.34215 53.0806 2.11155 52.5964C1.904 52.1697 1.88094 51.4318 2.06543 50.9706C2.13461 50.7976 3.52977 49.2987 5.1786 47.6383C7.85363 44.9518 8.16495 44.5943 8.16495 44.26C8.16495 43.7642 7.7268 43.326 7.21946 43.326C6.88509 43.326 6.53918 43.6373 3.82956 46.3354C0.324356 49.8291 0.185992 50.0251 0.116811 51.5125C0.0822197 52.3196 0.116811 52.6194 0.324356 53.1844C0.554961 53.8186 0.785567 54.0838 2.90714 56.1938C5.00565 58.2923 5.29391 58.5345 5.91654 58.7766C6.83896 59.111 8.30331 59.0648 9.08737 58.6728C9.72153 58.35 23.2927 44.8711 23.604 44.2484C23.7193 44.0294 24.0537 43.1185 24.3535 42.2191L24.8954 40.5933L25.8524 39.6594C27.2591 38.2757 27.6972 38.195 29.2769 38.956C31.3178 39.9476 33.301 40.5818 35.411 40.9162C35.8953 40.9854 36.2988 41.0661 36.2988 41.0891C36.2988 41.1007 35.8261 41.9424 35.238 42.9455C34.258 44.6174 34.1773 44.8249 34.1311 45.4937C34.0389 46.8773 34.823 48.0073 36.0798 48.284C36.5294 48.3763 39.1122 48.3993 45.4654 48.3763C53.7557 48.3417 54.2515 48.3302 54.632 48.1226C54.8511 48.0073 55.1624 47.7998 55.3007 47.6614C55.958 47.0734 56.2808 45.8166 56.0156 44.9864C55.9349 44.7327 54.9202 42.8994 53.7672 40.9047C52.6142 38.9099 51.611 37.1573 51.5419 37.0189C51.415 36.7999 51.5419 36.6385 52.9947 35.1741C53.871 34.2863 54.9202 33.0987 55.3469 32.4875C56.9265 30.2622 58.2064 27.3105 58.8059 24.5317C59.0365 23.4593 59.0596 22.9981 59.0596 20.4961C59.0596 17.9825 59.0365 17.5328 58.8059 16.4605C57.0072 8.20478 50.9192 2.09373 42.6866 0.318066C41.1877 -0.0163116 37.0252 -0.108555 35.4571 0.145111ZM40.4613 7.29388C43.3438 7.7205 45.8805 8.98883 47.9444 11.0297C49.0744 12.1597 49.8008 13.1282 50.4811 14.4542C50.9192 15.319 51.6341 17.3022 51.6341 17.6711C51.6341 17.821 51.3689 17.8441 50.0314 17.8441H48.4287L48.3826 16.4835C48.348 15.3074 48.3019 15.0653 48.0367 14.558C47.6677 13.8546 46.849 13.0706 46.1226 12.7362C45.6153 12.5056 45.3732 12.4825 42.5598 12.4479C40.6227 12.4249 39.3082 12.4594 38.9047 12.5402C38.063 12.7131 37.1405 13.2896 36.6332 13.9699C35.8953 14.9385 35.8376 15.3651 35.8376 19.4929V23.148H34.9844H34.1311L34.085 20.9803C34.0504 19.0663 34.0274 18.7665 33.7968 18.2822C33.4278 17.4751 32.7129 16.7718 31.8827 16.3913C31.1679 16.0569 31.1448 16.0569 28.6081 16.0223C26.6595 15.9877 26.0369 15.9416 26.0369 15.8378C26.0369 15.7571 26.2675 15.2267 26.5442 14.6617C29.1039 9.45005 34.7884 6.42912 40.4613 7.29388ZM45.2694 14.4427C45.5 14.5464 45.8113 14.7424 45.9612 14.8808C46.4685 15.3535 46.5608 15.6764 46.5608 17.06C46.5608 18.0747 46.6069 18.4667 46.7799 18.8357C47.1258 19.5967 47.4486 19.6889 49.893 19.6889H51.98V20.5537V21.4185H49.2473C46.8375 21.4185 46.4455 21.3839 46.0419 21.1994C45.0964 20.7728 44.8428 20.1732 44.8312 18.363C44.8312 16.2299 44.4969 15.9531 41.9602 16.0223C40.6803 16.0454 40.3344 16.0915 40.0808 16.2644C39.3889 16.7372 39.1699 18.0747 39.7003 18.5936C40.2307 19.124 41.2569 18.8126 41.2569 18.1093C41.2569 17.8556 41.2914 17.8441 42.1101 17.8441H42.9518L43.0095 19.1009C43.0556 20.2309 43.1017 20.4384 43.4245 21.1072C43.8512 21.9719 44.3816 22.4793 45.2924 22.9059C45.9151 23.1941 45.9843 23.2057 48.7861 23.2403C51.1152 23.2749 51.6341 23.3094 51.6341 23.4363C51.6341 23.5285 51.4957 24.0243 51.3343 24.5547C50.9884 25.6501 50.3081 27.0568 49.6624 28.0138C49.1666 28.7402 47.8522 30.2968 47.7369 30.2968C47.6908 30.2968 47.5063 30.0662 47.3218 29.801C46.5493 28.6364 45.2117 28.2559 43.9549 28.844C43.2285 29.1784 43.0671 29.3974 41.6604 31.8188C40.9109 33.1217 40.4728 33.7674 40.2998 33.8251C39.8156 33.975 37.1867 33.9058 36.172 33.7213C32.2863 32.9718 28.954 30.6081 26.9478 27.1721C26.1061 25.7193 25.4373 23.7245 25.2759 22.1564L25.1952 21.4185H26.9362H28.6658L28.7119 23.6323L28.7465 25.8576L29.1501 26.5956C29.6113 27.4488 30.3607 28.106 31.214 28.3943C31.6982 28.5557 32.2748 28.5788 35.2265 28.5442C38.5588 28.5096 38.6741 28.4981 39.1583 28.2444C39.9193 27.8408 40.5304 27.2297 40.8764 26.5149C41.1877 25.8807 41.1992 25.7769 41.2338 23.8168L41.2799 21.7759L40.9686 21.4646C40.7149 21.2109 40.5996 21.1763 40.2422 21.2225C39.5158 21.3493 39.4812 21.4531 39.412 23.5285C39.3544 25.5578 39.2506 25.9153 38.5934 26.4111C38.1206 26.757 37.4865 26.8262 34.9729 26.8262C32.5284 26.8377 31.8597 26.7455 31.3062 26.3534C30.649 25.8807 30.5337 25.4195 30.5337 22.9981C30.5337 19.6313 30.5452 19.6543 27.3744 19.5967L25.2067 19.5506L25.2759 18.8703C25.4027 17.7519 25.1721 17.8441 27.9855 17.8441C30.5798 17.8556 31.0987 17.9248 31.5945 18.386C32.1479 18.8818 32.2056 19.147 32.2632 21.7413L32.3209 24.2088L32.7475 24.6008L33.1857 24.9929H34.9267C37.7978 24.9929 37.6825 25.2119 37.6825 19.9311C37.6825 16.6449 37.7171 15.9185 37.8554 15.5726C38.0976 14.9961 38.3397 14.7424 38.8931 14.4888C39.2967 14.3043 39.6887 14.2697 42.0986 14.2697C44.3124 14.2697 44.9235 14.3043 45.2694 14.4427ZM18.0349 18.4437C18.0003 18.778 17.9657 19.1701 17.9657 19.3084V19.5736H9.89449H1.82329V18.7089V17.8441H9.96367H18.1156L18.0349 18.4437ZM45.6038 30.6658C45.9727 31.0693 54.2861 45.5283 54.2861 45.7704C54.2861 45.8973 54.1592 46.1163 53.9978 46.2662L53.7211 46.5545H45.1426C36.6332 46.5545 36.5525 46.5545 36.2527 46.3124C36.0682 46.1625 35.9529 45.9664 35.9529 45.7704C35.9529 45.4361 44.2432 30.9425 44.6237 30.6081C44.9465 30.3429 45.3155 30.366 45.6038 30.6658Z" fill="black"/>
<path d="M44.4133 36.0736C44.2172 36.2927 44.1942 36.5463 44.1596 38.4373L44.125 40.5589L44.4824 40.9163C44.7822 41.2161 44.8975 41.2622 45.2088 41.2046C45.9353 41.0662 45.9814 40.8932 45.9814 38.4719C45.9814 36.4426 45.9698 36.2811 45.7508 36.0621C45.4279 35.7392 44.713 35.7507 44.4133 36.0736Z" fill="black"/>
<path d="M44.5181 43.153C43.907 43.5796 44.1491 44.6404 44.8986 44.7787C45.4981 44.894 45.9132 44.5597 45.9593 43.937C45.9939 43.545 45.9478 43.4297 45.6826 43.2222C45.3252 42.9339 44.864 42.9108 44.5181 43.153Z" fill="black"/>
<path d="M17.0793 38.2065C16.8371 38.4486 16.8025 38.5755 16.8602 38.9214C16.9063 39.2673 17.1715 39.5901 18.3476 40.7547C19.5122 41.9308 19.835 42.196 20.1809 42.2421C20.5268 42.2998 20.6537 42.2652 20.8958 42.023C21.1033 41.8155 21.1956 41.5964 21.1956 41.3427C21.1956 41.0084 21.0111 40.7778 19.6621 39.4287C18.3245 38.0912 18.0939 37.9067 17.7596 37.9067C17.5059 37.9067 17.2868 38.0105 17.0793 38.2065Z" fill="black"/>
</svg>
