<svg width="47" height="48" viewBox="0 0 47 48" fill="none" xmlns="http://www.w3.org/2000/svg">
<path d="M0 39.4736C0.297125 38.745 0.483151 37.9493 0.906877 37.3033C2.52169 34.8411 5.83915 34.3192 8.19806 36.0916C8.30658 36.1743 8.41768 36.2544 8.48227 36.3009C12.0943 32.6889 15.6908 29.0924 19.3131 25.47C17.4606 22.7675 17.4554 19.9745 19.3674 17.1789C19.277 17.0808 19.1994 16.9903 19.1142 16.9051C17.1118 14.9027 15.1095 12.9055 13.1123 10.9006C12.9391 10.7274 12.8151 10.6319 12.5335 10.7636C10.9807 11.4819 9.21346 10.9858 8.27816 9.60096C7.36612 8.24969 7.55214 6.39718 8.7148 5.26552C9.88263 4.12611 11.7455 3.96592 13.0554 4.89347C14.4532 5.88302 14.8976 7.64768 14.1457 9.21082C14.1199 9.26508 14.0966 9.32192 14.0941 9.32967C16.2902 11.5258 18.4708 13.7064 20.6696 15.9052C23.3773 14.0527 26.1547 14.0423 28.8857 15.9C31.6787 13.107 34.4639 10.3218 37.306 7.47974C36.611 6.05355 36.5128 4.49041 37.2569 2.92211C37.7814 1.81629 38.6107 1.00759 39.7166 0.488266C41.936 -0.555547 44.5584 0.131716 46.0156 2.12633C47.4522 4.09252 47.3023 6.77956 45.6461 8.58557C44.7031 9.61646 43.5224 10.1694 42.1323 10.2443C40.7397 10.3192 39.528 9.83607 38.51 8.98345C35.7428 11.748 32.999 14.4867 30.237 17.2461C32.0972 19.9667 32.0972 22.7442 30.2008 25.5449C30.2757 25.6276 30.3481 25.7206 30.4308 25.8059C32.4305 27.8083 34.4355 29.8055 36.4301 31.813C36.6187 32.0042 36.7556 32.0946 37.0476 31.9577C38.4247 31.3117 40.0395 31.6683 41.011 32.7974C42.029 33.9833 42.1452 35.6343 41.3004 36.9261C40.4968 38.1508 38.9156 38.7321 37.5204 38.311C36.0038 37.8537 35.022 36.567 35.0659 34.9987C35.0788 34.5259 35.2855 34.0582 35.3785 33.5828C35.407 33.4355 35.4044 33.2133 35.3165 33.1255C33.2392 31.0275 31.149 28.9425 29.0588 26.8575C29.0382 26.8368 29.0071 26.8265 29.0356 26.8445C28.2863 27.1933 27.5809 27.5421 26.8575 27.8522C26.5681 27.9762 26.2297 27.9891 25.9326 28.1054C25.806 28.1545 25.6432 28.3327 25.6432 28.4516C25.6277 31.1438 25.6354 33.836 25.6251 36.5282C25.6251 36.8254 25.7853 36.8667 26.0101 36.9261C27.599 37.3421 28.7436 38.2981 29.4464 39.7837C30.8416 42.7368 28.9684 46.3308 25.731 46.9173C25.6303 46.9354 25.5321 46.9767 25.4313 47.0077C25.0024 47.0077 24.5735 47.0077 24.1472 47.0077C24.1085 46.987 24.0697 46.9483 24.0284 46.9457C21.9717 46.7028 19.7627 44.8813 19.6697 42.0625C19.5922 39.6881 21.1346 37.51 23.5969 36.9209C23.8863 36.8512 23.9457 36.7117 23.9431 36.4455C23.9354 33.8153 23.9354 31.1851 23.9431 28.5549C23.9431 28.2682 23.8914 28.1028 23.5607 28.0718C23.2765 28.046 22.9846 27.971 22.721 27.8573C21.9976 27.5447 21.2896 27.1985 20.5352 26.8445C20.5455 26.8368 20.4939 26.8678 20.4525 26.9117C16.9155 30.4462 13.381 33.9833 9.83871 37.5126C9.66044 37.6909 9.70953 37.8227 9.76379 38.0294C9.95239 38.7631 10.2314 39.5046 10.2366 40.2462C10.2547 42.463 8.75098 44.4162 6.66335 45.0648C4.5318 45.7262 2.20906 44.9743 0.961135 43.1012C0.516739 42.4346 0.315211 41.6104 0.0025837 40.8559C0 40.3909 0 39.9335 0 39.4736ZM24.7802 26.4932C27.5965 26.4957 29.9192 24.1678 29.9114 21.3542C29.9037 18.5483 27.6094 16.254 24.8035 16.2436C21.9717 16.2359 19.6593 18.5276 19.649 21.3516C19.6413 24.1652 21.9614 26.4906 24.7802 26.4932ZM24.7802 45.2766C26.6689 45.2766 28.1933 43.7471 28.1855 41.8636C28.1778 40.0007 26.6663 38.4789 24.8035 38.4634C22.9277 38.4479 21.3852 39.98 21.3749 41.861C21.3672 43.7445 22.8941 45.2766 24.7802 45.2766ZM8.53653 40.2255C8.57528 38.3497 7.03282 36.7685 5.13897 36.7478C3.30455 36.7272 1.76466 38.2412 1.72332 40.1066C1.68199 41.9876 3.21928 43.5662 5.11055 43.5843C6.94497 43.6024 8.49777 42.078 8.53653 40.2255ZM45.2767 5.14408C45.2896 3.26057 43.7652 1.72586 41.8765 1.72586C40.0111 1.72327 38.4867 3.22957 38.4609 5.09241C38.4376 6.96301 39.9672 8.52097 41.8455 8.54164C43.7187 8.55715 45.2638 7.0276 45.2767 5.14408ZM38.4351 36.7323C39.3936 36.7401 40.1584 35.9831 40.1532 35.0323C40.1506 34.1047 39.3936 33.34 38.4686 33.3296C37.5333 33.3193 36.7376 34.1073 36.7401 35.04C36.7453 35.965 37.5075 36.7246 38.4351 36.7323ZM11.1047 9.38651C12.0555 9.3891 12.828 8.61399 12.8151 7.67094C12.8022 6.74856 12.0297 5.9812 11.1125 5.97862C10.1746 5.97603 9.39173 6.76923 9.40465 7.70711C9.42015 8.64499 10.1694 9.38393 11.1047 9.38651Z" fill="black"/>
</svg>
