<svg width="60" height="59" viewBox="0 0 60 59" fill="none" xmlns="http://www.w3.org/2000/svg">
<path d="M21.9223 2.65078L18.7298 5.30155H13.1056C8.99113 5.30155 7.40067 5.33612 7.18169 5.43985C6.55933 5.71645 6.54781 5.82018 6.54781 10.8106V15.4091L3.38993 18.0253C1.64964 19.4659 0.197476 20.7221 0.162901 20.8143C0.128325 20.9181 0.09375 27.6372 0.09375 35.7509V50.503L0.427978 50.8372L0.762206 51.1715H14.9381H29.114L29.4597 51.7247C29.9668 52.5545 31.1309 53.9605 31.88 54.6405C34.0121 56.5998 36.2711 57.833 39.0486 58.5706C40.2126 58.8702 40.6275 58.9279 42.4024 58.974C44.0044 59.0316 44.6844 58.997 45.6294 58.8357C48.9371 58.294 51.7838 56.8418 54.2272 54.4792C56.7396 52.0358 58.3762 48.9356 58.9294 45.5472C59.2291 43.7839 59.1253 40.7182 58.722 39.1162C57.7077 35.117 55.2414 31.5903 51.9913 29.4812L51.2652 29.0087V24.998V20.9872L50.931 20.6069C50.7466 20.3994 49.2714 19.1317 47.6579 17.8063L44.719 15.386L44.6729 10.6838L44.6383 5.97001L44.2579 5.63578L43.8891 5.30155H38.2303H32.5715L29.6211 2.8467C27.9845 1.49826 26.5323 0.299652 26.371 0.195927C26.2212 0.0922012 25.8754 0 25.6103 0C25.1378 0 24.9765 0.126778 21.9223 2.65078ZM27.2123 4.03379L28.6645 5.24392L27.1662 5.2785C26.3479 5.29002 24.9995 5.29002 24.1697 5.2785L22.6484 5.24392L24.1351 4.01074C24.9534 3.33076 25.6564 2.77755 25.691 2.8006C25.7256 2.81213 26.4056 3.36533 27.2123 4.03379ZM42.2756 16.4233V25.1247L40.7543 26.1389C39.5211 26.9457 39.0025 27.2223 38.1035 27.5219C36.5361 28.0291 35.3836 28.5823 34.0698 29.4582C32.8711 30.2534 31.0502 31.9015 30.4624 32.7313C30.2204 33.0655 29.4597 33.6533 27.9038 34.7021L25.6795 36.1888L17.3238 30.6337L8.97961 25.0671L8.96808 16.3887V7.72182H25.6219H42.2756V16.4233ZM46.6206 20.1459L48.0151 21.2984L46.3555 22.4048L44.6959 23.5112V21.0103V18.5208L44.961 18.7513C45.0993 18.8781 45.8484 19.5005 46.6206 20.1459ZM6.52476 22.1743L6.49018 23.396L4.95734 22.3702C4.10449 21.8055 3.41298 21.3214 3.40146 21.2753C3.38993 21.2408 4.08144 20.6299 4.93429 19.9269L6.49018 18.6476L6.52476 19.8001C6.53628 20.4455 6.53628 21.5058 6.52476 22.1743ZM16.3672 32.9503C16.4133 32.9964 13.29 36.1888 9.42908 40.0497L2.39877 47.0801V35.3475V23.6265L9.34841 28.248C13.1632 30.7951 16.3211 32.9042 16.3672 32.9503ZM48.8449 25.7586C48.8449 26.865 48.8219 27.7755 48.7873 27.7755C48.7643 27.7755 48.3609 27.6487 47.8999 27.4989C47.1277 27.2569 45.3644 26.8996 44.523 26.8304C44.2118 26.7959 44.4308 26.623 46.4247 25.2746C47.6579 24.4447 48.7066 23.7532 48.7643 23.7532C48.8104 23.7417 48.8449 24.6522 48.8449 25.7586ZM46.1365 29.5504C48.7412 30.1958 50.8273 31.3713 52.7059 33.2499C54.3539 34.9095 55.6909 37.2146 56.3017 39.4965C56.5898 40.5223 56.6129 40.8219 56.6129 42.8158C56.6244 45.1669 56.5322 45.8008 55.9214 47.5065C54.7573 50.722 52.1757 53.6494 49.1331 55.1707C45.4335 57.0377 40.9502 57.0954 37.2507 55.332C33.1823 53.3843 30.4739 49.9498 29.5173 45.5242C29.2407 44.1873 29.2407 41.5826 29.5289 40.2226C30.7851 34.3218 35.5219 29.9998 41.5841 29.2277C42.5983 29.1009 44.9956 29.2738 46.1365 29.5504ZM21.9338 36.6498C25.7717 39.2084 25.6103 39.1508 26.8781 38.3094C27.4428 37.9291 27.6503 37.8369 27.5926 37.9867C27.4082 38.4477 27.0625 40.0958 26.9472 41.0294C26.6591 43.4035 26.9357 45.7431 27.8347 48.5437C27.8923 48.7397 27.2815 48.7512 16.0445 48.7512H4.18516L11.3307 41.6056C15.2608 37.6756 18.5109 34.4601 18.5685 34.4601C18.6146 34.4601 20.1244 35.4397 21.9338 36.6498Z" fill="black"/>
<path d="M17.2656 16.6537V19.2468H26.601H35.9363V16.6537V14.0605H26.601H17.2656V16.6537Z" fill="black"/>
<path d="M19.6172 23.442C19.0755 23.9837 19.0755 24.5369 19.6172 25.0786L20.0091 25.4705H26.5323C31.3382 25.4705 33.1246 25.4359 33.3436 25.3322C33.7009 25.1708 33.9775 24.6983 33.9775 24.2603C33.9775 23.8224 33.7009 23.3498 33.3436 23.1885C33.1246 23.0848 31.3382 23.0502 26.5323 23.0502H20.0091L19.6172 23.442Z" fill="black"/>
<path d="M41.8479 32.2127C40.8453 32.4317 40.0616 32.8927 39.3355 33.6764C38.3328 34.7483 37.9064 35.9815 37.8948 37.8139C37.8948 38.3441 37.8948 38.3441 37.4338 38.4133C36.846 38.4939 36.3274 38.8627 36.0508 39.4159C35.8318 39.8424 35.8203 40.1074 35.8203 44.487C35.8203 48.1289 35.8549 49.1892 35.9817 49.4774C36.1776 49.9614 36.7423 50.4339 37.2955 50.5953C37.5837 50.6875 39.5083 50.7105 43.2655 50.6875L48.7976 50.6529L49.224 50.3648C49.4545 50.215 49.7542 49.8692 49.904 49.6157C50.1691 49.1546 50.1691 49.1085 50.2036 44.7521C50.2267 41.8708 50.1921 40.1881 50.1114 39.8885C49.8925 39.0471 49.1203 38.3787 48.3827 38.3787H48.0369V37.4797C48.0369 34.7252 46.4119 32.6276 43.8994 32.1551C43.1157 32.0053 42.7354 32.0168 41.8479 32.2127ZM43.7381 34.633C44.4757 34.852 45.1787 35.5435 45.4323 36.2696C45.536 36.5692 45.6167 37.157 45.6167 37.595V38.3787H42.9544H40.2805L40.3497 37.4106C40.4419 36.0967 40.8798 35.2899 41.7557 34.8405C42.5279 34.4256 42.9198 34.391 43.7381 34.633ZM43.7726 42.0437C44.2336 42.2742 44.6601 42.8504 44.7638 43.4036C44.8214 43.7033 44.7638 43.9453 44.5333 44.4178C44.2797 44.9365 44.2336 45.1785 44.2336 46.0774V47.1378H43.0235H41.8134V46.0429C41.8134 45.0748 41.7788 44.9134 41.5252 44.5331C40.5571 43.104 42.2167 41.26 43.7726 42.0437Z" fill="black"/>
</svg>
