<svg width="59" height="59" viewBox="0 0 59 59" fill="none" xmlns="http://www.w3.org/2000/svg">
<path d="M14.5123 0.230083C13.4447 0.720928 12.8557 1.70262 12.8557 2.96655C12.8557 3.92369 13.138 4.57406 13.8006 5.16308C14.4755 5.77663 15.0277 5.93616 16.1689 5.85026L17.1138 5.78891L18.9177 7.59276L20.7092 9.38435V12.5258V15.6672L19.9607 15.7408C17.936 15.9249 16.0217 17.8392 15.8376 19.8639L15.764 20.6124H14.0951H12.4262L11.1255 19.3117L9.81248 17.9987L9.87384 17.0538C9.95974 15.9126 9.80021 15.3604 9.18666 14.6855C8.59764 14.0228 7.94727 13.7406 6.99012 13.7406C5.19854 13.7406 4.02051 14.9064 4.02051 16.6857C4.02051 17.6674 4.29048 18.3055 4.96539 18.9067C5.6403 19.5203 6.1925 19.6798 7.33372 19.5939L8.27859 19.5326L9.80021 21.0542L11.3218 22.5758H13.5552H15.8008V23.5575V24.5392H12.6103H9.40754L6.9165 26.6253C4.56044 28.5887 4.38865 28.7114 4.08187 28.5887C3.59102 28.4046 2.35164 28.4414 1.83625 28.6623C0.756391 29.104 0.106021 30.1348 0.09375 31.3865C0.09375 33.1781 1.25951 34.3561 3.03882 34.3561C4.02051 34.3561 4.65861 34.0861 5.2599 33.4112C5.84891 32.7486 6.02071 32.1841 5.95935 31.1165L5.91026 30.2453L8.15588 28.3678L10.3892 26.5026H13.1011H15.8008V27.4843V28.466H14.3283H12.8557V29.4476V30.4293H14.3283H15.8008V31.411V32.3927H11.3832H6.96558V33.3744V34.3561H11.3832H15.8008V35.3378V36.3195H13.0398H10.2788L8.31541 39.2645L6.35203 42.2096H5.76301C5.02674 42.2096 4.00824 42.7005 3.59102 43.2527C2.63387 44.492 2.75658 46.3573 3.86099 47.3758C4.96539 48.4065 6.68335 48.4802 7.88592 47.5476C8.90442 46.7745 9.24801 44.9706 8.60991 43.719L8.30313 43.0809L9.91065 40.688L11.5059 38.2829H13.6411H15.764L15.8376 39.0314C16.0217 41.0561 17.936 42.9704 19.9607 43.1545L20.7092 43.2281V46.3695V49.5109L18.9177 51.3025L17.1138 53.1064L16.1689 53.045C15.0277 52.9591 14.4755 53.1186 13.8006 53.7322C13.138 54.3212 12.8557 54.9716 12.8557 55.9287C12.8557 57.7203 14.0215 58.8984 15.8008 58.8984C16.7825 58.8984 17.4206 58.6284 18.0219 57.9535C18.6354 57.2786 18.795 56.7264 18.7091 55.5851L18.6477 54.6403L20.6602 52.6278L22.6726 50.6153V46.9095V43.1913H23.6543H24.636V46.1364V49.0814H25.6177H26.5994V46.1364V43.1913H27.5811H28.5628V47.4494L28.575 51.7197L31.4956 53.5359L34.4161 55.3397V56.0514C34.4284 57.3522 35.2751 58.5057 36.5022 58.9106C37.0544 59.0824 38.3306 58.9965 38.8092 58.7388C39.2877 58.4934 39.9381 57.843 40.1958 57.3767C40.3308 57.1068 40.4044 56.6895 40.4044 56.0024C40.4044 55.1188 40.3676 54.9593 40.0363 54.4071C39.7786 54.0022 39.4473 53.6708 38.9932 53.4009C38.4165 53.0573 38.2201 53.0082 37.4593 53.0082C36.8335 53.0082 36.4531 53.0818 36.1095 53.2536C35.8395 53.3886 35.5941 53.4991 35.545 53.4991C35.496 53.4991 34.3425 52.7996 32.9926 51.9529L30.5261 50.4067V46.799V43.1913H31.5078H32.4895V44.6638V46.1364H33.4712H34.4529V44.6638V43.1913H35.4346H36.4163V47.1181V51.0448H39.9013C43.3495 51.0448 43.3986 51.0448 43.4722 51.3025C43.6072 51.732 44.4171 52.5419 44.9447 52.7751C45.5951 53.0818 46.8713 53.0818 47.5217 52.7751C48.5279 52.321 49.2273 51.2166 49.2273 50.0631C49.2273 48.9097 48.5279 47.8053 47.5217 47.3512C46.8713 47.0444 45.5951 47.0444 44.9447 47.3512C44.4171 47.5844 43.6072 48.3943 43.4722 48.8238C43.3986 49.0692 43.3249 49.0814 40.883 49.0814H38.3797V46.1486V43.2281L39.1282 43.1545C41.1529 42.9704 43.0672 41.0561 43.2513 39.0314L43.3249 38.2829H47.448H51.5589L52.381 39.0928L53.2032 39.9026L53.1418 40.8598C53.0559 42.001 53.2155 42.5532 53.829 43.2281C54.4303 43.903 55.0684 44.173 56.0501 44.173C57.8294 44.173 58.9952 42.995 58.9952 41.2034C58.9952 40.2462 58.7129 39.5959 58.0503 39.0069C57.3754 38.3933 56.8232 38.2338 55.682 38.3197L54.7371 38.381L53.7063 37.3503L52.6755 36.3195H47.988H43.2881V35.3378V34.3561H45.7423H48.1966V33.3744V32.3927H45.7423H43.2881V31.411V30.4293H45.9264H48.5647L51.2644 29.0795L53.9517 27.7297L54.4058 28.0365C55.2893 28.6377 56.8109 28.6255 57.6699 28.0242C58.5411 27.4229 58.9215 26.7603 58.9706 25.7663C58.9952 25.3 58.9584 24.7355 58.8725 24.4778C58.6761 23.8643 57.9521 23.0789 57.3386 22.809C56.725 22.5267 55.4734 22.5022 54.8475 22.7721C53.8536 23.1771 53.1173 24.2447 53.105 25.2755V25.8277L50.4667 27.1529L47.8284 28.466H45.5583H43.2881V27.4843V26.5026H44.7607H46.2332V25.5209V24.5392H44.7607H43.2881V23.5575V22.5758H45.5337H47.7671L49.2887 21.0542L50.8103 19.5326L51.7552 19.5939C52.8964 19.6798 53.4486 19.5203 54.1235 18.9067C54.7984 18.3055 55.0684 17.6674 55.0684 16.6857C55.0684 14.9064 53.8904 13.7406 52.0988 13.7406C51.1416 13.7406 50.4913 14.0228 49.9023 14.6855C49.2887 15.3604 49.1292 15.9126 49.2151 17.0538L49.2764 17.9987L47.9634 19.3117L46.6627 20.6124H44.9938H43.3249L43.2513 19.8639C43.0672 17.8392 41.1529 15.9249 39.1282 15.7408L38.3797 15.6672V14.4891V13.3111L41.1529 10.5378L43.9385 7.75229L44.8834 7.81364C46.0246 7.89954 46.5768 7.74001 47.2517 7.12646C47.9266 6.52517 48.1966 5.88707 48.1966 4.90538C48.1966 3.12607 47.0185 1.96031 45.227 1.96031C44.2698 1.96031 43.6194 2.24255 43.0304 2.90519C42.4169 3.5801 42.2573 4.1323 42.3432 5.27352L42.4046 6.2184L39.4104 9.21255L36.4163 12.2067V13.9492V15.704H35.4346H34.4529V14.2314V12.7589H33.4712H32.4895V14.2314V15.704H31.5078H30.5261V12.2312V8.74625L30.8207 8.61126C31.336 8.37811 32.0355 7.67866 32.2564 7.17554C32.5632 6.52517 32.5632 5.24897 32.2564 4.59861C31.8023 3.59237 30.6979 2.89292 29.5445 2.89292C28.391 2.89292 27.2866 3.59237 26.8325 4.59861C26.5258 5.24897 26.5258 6.52517 26.8325 7.17554C27.0534 7.67866 27.7529 8.37811 28.2683 8.61126L28.5628 8.74625V12.2312V15.704H27.5811H26.5994V14.2314V12.7589H25.6177H24.636V14.2314V15.704H23.6543H22.6726V11.9858V8.27995L20.6602 6.26748L18.6477 4.25501L18.7091 3.31014C18.7581 2.70885 18.7213 2.19347 18.6232 1.89896C18.4268 1.2854 17.7028 0.50005 17.0893 0.230083C16.4266 -0.0766945 15.1627 -0.0766945 14.5123 0.230083ZM16.4144 2.32845C16.5493 2.46343 16.6598 2.73339 16.6598 2.94201C16.6598 3.15061 16.5493 3.42058 16.4144 3.55556C16.2794 3.69054 16.0094 3.80098 15.8008 3.80098C15.5922 3.80098 15.3222 3.69054 15.1872 3.55556C15.0523 3.42058 14.9418 3.15061 14.9418 2.94201C14.9418 2.73339 15.0523 2.46343 15.1872 2.32845C15.3222 2.19347 15.5922 2.08302 15.8008 2.08302C16.0094 2.08302 16.2794 2.19347 16.4144 2.32845ZM45.8651 4.29183C46 4.42681 46.1105 4.69677 46.1105 4.90538C46.1105 5.11399 46 5.38396 45.8651 5.51894C45.7301 5.65392 45.4601 5.76436 45.2515 5.76436C45.0429 5.76436 44.7729 5.65392 44.6379 5.51894C44.503 5.38396 44.3925 5.11399 44.3925 4.90538C44.3925 4.69677 44.503 4.42681 44.6379 4.29183C44.7729 4.15685 45.0429 4.04641 45.2515 4.04641C45.4601 4.04641 45.7301 4.15685 45.8651 4.29183ZM30.158 5.27352C30.293 5.4085 30.4034 5.67847 30.4034 5.88707C30.4034 6.09568 30.293 6.36565 30.158 6.50063C30.023 6.63561 29.7531 6.74605 29.5445 6.74605C29.3358 6.74605 29.0659 6.63561 28.9309 6.50063C28.7959 6.36565 28.6855 6.09568 28.6855 5.88707C28.6855 5.67847 28.7959 5.4085 28.9309 5.27352C29.0659 5.13853 29.3358 5.0281 29.5445 5.0281C29.7531 5.0281 30.023 5.13853 30.158 5.27352ZM7.57914 16.0721C7.71412 16.2071 7.82456 16.4771 7.82456 16.6857C7.82456 16.8943 7.71412 17.1642 7.57914 17.2992C7.05148 17.8269 6.1066 17.4342 6.1066 16.6857C6.1066 16.2194 6.49928 15.8267 6.96558 15.8267C7.17419 15.8267 7.44416 15.9371 7.57914 16.0721ZM52.7369 16.0721C52.8719 16.2071 52.9823 16.4771 52.9823 16.6857C52.9823 16.8943 52.8719 17.1642 52.7369 17.2992C52.6019 17.4342 52.3319 17.5446 52.1233 17.5446C51.9147 17.5446 51.6448 17.4342 51.5098 17.2992C51.3748 17.1642 51.2644 16.8943 51.2644 16.6857C51.2644 16.4771 51.3748 16.2071 51.5098 16.0721C51.6448 15.9371 51.9147 15.8267 52.1233 15.8267C52.3319 15.8267 52.6019 15.9371 52.7369 16.0721ZM39.5454 17.9864C40.2203 18.3545 40.6989 18.8454 41.0057 19.508C41.2634 20.048 41.2634 20.1707 41.2634 29.3863C41.2634 39.7308 41.3002 39.2645 40.4412 40.1972C39.5086 41.2157 40.0363 41.1666 29.4831 41.1666C20.2675 41.1666 20.1448 41.1666 19.6048 40.9089C18.9054 40.5776 18.4145 40.0867 18.0832 39.3873C17.8255 38.8351 17.8255 38.7369 17.8255 29.4476C17.8255 20.1584 17.8255 20.0602 18.0832 19.508C18.525 18.5631 19.2981 17.9496 20.2798 17.7778C20.5497 17.7287 24.8814 17.7042 29.9126 17.7164C39.0178 17.7287 39.0546 17.7287 39.5454 17.9864ZM56.6637 24.9073C56.7986 25.0423 56.9091 25.3123 56.9091 25.5209C56.9091 25.7295 56.7986 25.9995 56.6637 26.1344C56.5287 26.2694 56.2587 26.3799 56.0501 26.3799C55.8415 26.3799 55.5715 26.2694 55.4365 26.1344C55.3016 25.9995 55.1911 25.7295 55.1911 25.5209C55.1911 25.3123 55.3016 25.0423 55.4365 24.9073C55.5715 24.7723 55.8415 24.6619 56.0501 24.6619C56.2587 24.6619 56.5287 24.7723 56.6637 24.9073ZM3.65238 30.7975C4.18004 31.3251 3.78736 32.27 3.03882 32.27C2.57252 32.27 2.17984 31.8773 2.17984 31.411C2.17984 30.9447 2.57252 30.552 3.03882 30.552C3.24743 30.552 3.51739 30.6625 3.65238 30.7975ZM56.6637 40.6144C56.7986 40.7494 56.9091 41.0193 56.9091 41.2279C56.9091 41.4365 56.7986 41.7065 56.6637 41.8415C56.5287 41.9765 56.2587 42.0869 56.0501 42.0869C55.8415 42.0869 55.5715 41.9765 55.4365 41.8415C55.3016 41.7065 55.1911 41.4365 55.1911 41.2279C55.1911 41.0193 55.3016 40.7494 55.4365 40.6144C55.5715 40.4794 55.8415 40.3689 56.0501 40.3689C56.2587 40.3689 56.5287 40.4794 56.6637 40.6144ZM6.59745 44.5411C6.73243 44.6761 6.84287 44.9461 6.84287 45.1547C6.84287 45.3633 6.73243 45.6333 6.59745 45.7682C6.06979 46.2959 5.12491 45.9032 5.12491 45.1547C5.12491 44.6884 5.51759 44.2957 5.98389 44.2957C6.1925 44.2957 6.46247 44.4061 6.59745 44.5411ZM46.8467 49.4496C46.9817 49.5846 47.0922 49.8545 47.0922 50.0631C47.0922 50.2717 46.9817 50.5417 46.8467 50.6767C46.3191 51.2044 45.3742 50.8117 45.3742 50.0631C45.3742 49.5968 45.7669 49.2042 46.2332 49.2042C46.4418 49.2042 46.7118 49.3146 46.8467 49.4496ZM16.4144 55.3397C16.942 55.8674 16.5493 56.8123 15.8008 56.8123C15.3345 56.8123 14.9418 56.4196 14.9418 55.9533C14.9418 55.487 15.3345 55.0943 15.8008 55.0943C16.0094 55.0943 16.2794 55.2047 16.4144 55.3397ZM38.0115 55.3397C38.5392 55.8674 38.1465 56.8123 37.398 56.8123C36.9317 56.8123 36.539 56.4196 36.539 55.9533C36.539 55.487 36.9317 55.0943 37.398 55.0943C37.6066 55.0943 37.8766 55.2047 38.0115 55.3397Z" fill="black"/>
<path d="M27.9853 19.8024C26.7459 20.2073 25.6415 21.189 25.0279 22.453C24.758 23.0174 24.6966 23.3242 24.6598 24.3673C24.6107 25.5207 24.5862 25.6312 24.3285 25.7416C23.8254 25.9748 23.1259 26.6742 22.905 27.1773C22.6964 27.6191 22.6719 28.0854 22.6719 32.3926C22.6719 37.6569 22.6841 37.6692 23.5431 38.4913C24.353 39.2644 24.3898 39.2644 29.5682 39.2644C33.8509 39.2644 34.3172 39.2399 34.7589 39.0313C35.3848 38.749 36.121 37.9391 36.2928 37.3378C36.391 37.0188 36.4155 35.3622 36.391 32.1226L36.3542 27.386L35.986 26.846C35.7774 26.5638 35.3602 26.1466 35.0534 25.9502L34.489 25.5821L34.4399 24.355C34.3908 23.2997 34.3294 23.0174 34.0227 22.3916C33.5686 21.4467 32.636 20.5141 31.6912 20.0601C31.0531 19.741 30.8076 19.692 29.7278 19.6674C28.9424 19.6429 28.3166 19.692 27.9853 19.8024ZM30.7463 21.9498C31.7771 22.4775 32.2924 23.3242 32.4397 24.6986L32.5256 25.5207H29.5437H26.5618L26.6477 24.6986C26.7827 23.3365 27.3104 22.4898 28.3166 21.9498C28.9056 21.6431 30.1327 21.6431 30.7463 21.9498ZM33.765 27.6559C34.4153 27.9259 34.4522 28.1958 34.4522 32.3926C34.4522 36.5893 34.4153 36.8593 33.765 37.1292C33.2373 37.3501 25.9974 37.3747 25.3715 37.166C24.6721 36.9206 24.6353 36.6629 24.6353 32.4171C24.6353 28.2327 24.6721 27.9259 25.2979 27.6559C25.8624 27.4105 33.176 27.4105 33.765 27.6559Z" fill="black"/>
<path d="M28.2572 28.699C27.6559 28.9689 27.1528 29.472 26.8092 30.1224C26.4533 30.7973 26.4656 32.0244 26.8092 32.7116C27.1037 33.2516 27.9013 34.0369 28.3063 34.1719C28.5394 34.2455 28.564 34.3437 28.564 35.2886V36.3193H29.5457H30.5273V35.3008C30.5273 34.3437 30.5519 34.2701 30.8218 34.1351C31.3495 33.9019 32.0367 33.2025 32.2821 32.6503C32.5766 31.9876 32.5889 30.8955 32.3067 30.2451C32.049 29.607 31.4477 28.9812 30.8341 28.699C30.1838 28.3922 28.9198 28.3922 28.2572 28.699ZM30.1592 30.7973C30.2942 30.9323 30.4046 31.2023 30.4046 31.4109C30.4046 31.6195 30.2942 31.8895 30.1592 32.0244C30.0242 32.1594 29.7543 32.2699 29.5457 32.2699C29.337 32.2699 29.0671 32.1594 28.9321 32.0244C28.7971 31.8895 28.6867 31.6195 28.6867 31.4109C28.6867 31.2023 28.7971 30.9323 28.9321 30.7973C29.0671 30.6623 29.337 30.5519 29.5457 30.5519C29.7543 30.5519 30.0242 30.6623 30.1592 30.7973Z" fill="black"/>
<path d="M24.6328 9.81372V10.7954H25.6145H26.5962V9.81372V8.83203H25.6145H24.6328V9.81372Z" fill="black"/>
<path d="M32.4922 9.81372V10.7954H33.4739H34.4556V9.81372V8.83203H33.4739H32.4922V9.81372Z" fill="black"/>
<path d="M13.8359 15.7039V16.6855H14.8176H15.7993V15.7039V14.7222H14.8176H13.8359V15.7039Z" fill="black"/>
<path d="M43.2891 15.7039V16.6855H44.2708H45.2524V15.7039V14.7222H44.2708H43.2891V15.7039Z" fill="black"/>
<path d="M48.1953 25.5208V26.5024H49.177H50.1587V25.5208V24.5391H49.177H48.1953V25.5208Z" fill="black"/>
<path d="M8.92969 29.4475V30.4292H9.91138H10.8931V29.4475V28.4658H9.91138H8.92969V29.4475Z" fill="black"/>
<path d="M50.1562 33.3743V34.356H51.1379H52.1196V33.3743V32.3926H51.1379H50.1562V33.3743Z" fill="black"/>
<path d="M13.8359 43.1914V44.1731H14.8176H15.7993V43.1914V42.2097H14.8176H13.8359V43.1914Z" fill="black"/>
<path d="M43.2891 43.1914V44.1731H44.2708H45.2524V43.1914V42.2097H44.2708H43.2891V43.1914Z" fill="black"/>
<path d="M32.4922 49.0815V50.0632H33.4739H34.4556V49.0815V48.0999H33.4739H32.4922V49.0815Z" fill="black"/>
<path d="M24.6328 52.0266V53.0083H25.6145H26.5962V52.0266V51.0449H25.6145H24.6328V52.0266Z" fill="black"/>
</svg>
