<svg width="59" height="59" viewBox="0 0 59 59" fill="none" xmlns="http://www.w3.org/2000/svg">
<path d="M41.5765 1.11582C39.1084 3.36476 36.1445 5.01398 33.1459 5.82129C32.5462 5.98275 31.2314 6.27108 30.2165 6.46714C29.2016 6.6632 28.2097 6.89386 28.0021 6.98612C27.3909 7.26291 27.3563 7.52817 27.4024 12.3836L27.4486 16.7315H16.7805H6.1125L5.53585 17.0083C4.84386 17.3312 4.41714 17.7695 4.10575 18.4615C3.87509 18.9805 3.86356 19.1419 3.86356 34.1002V49.22L3.19464 49.4622C2.21434 49.8197 1.47623 50.3618 0.911108 51.123C0.149929 52.1609 0 52.6684 0 54.2138C0 55.4017 0.034599 55.6093 0.311391 56.209C0.749646 57.1317 1.72995 58.135 2.68719 58.6079L3.4599 59H29.4092H55.3585L56.0274 58.7347C56.9731 58.3542 58.0341 57.3277 58.5416 56.3243C58.9222 55.5632 58.9337 55.494 58.9337 54.2138C58.9337 52.6684 58.7838 52.1609 58.0226 51.123C57.4575 50.3618 56.7193 49.8197 55.739 49.4622L55.0701 49.22V38.6327V28.0454L55.6006 27.2266C56.8923 25.2313 58.011 22.4058 58.6108 19.6955C58.9106 18.3115 58.9106 18.1962 58.9568 12.9948C58.9913 10.0885 58.9798 7.58584 58.9452 7.43591C58.8414 7.02072 58.4032 6.88232 55.8082 6.36334C54.5281 6.09808 52.9942 5.72902 52.406 5.53296C49.7995 4.67952 47.0893 3.07643 44.898 1.11582C43.2257 -0.371941 43.2257 -0.371941 41.5765 1.11582ZM44.2176 3.33016C47.0662 5.78669 50.6991 7.48204 55.0125 8.35855L56.8577 8.72761L56.8923 12.7642C56.9154 15.9588 56.8808 17.0544 56.7424 18.0578C56.2811 21.264 55.2547 23.9166 53.3863 26.7191C52.06 28.7258 50.653 30.1098 46.7433 33.2468C44.8519 34.7576 43.2719 35.9916 43.2373 35.9916C43.0297 35.9916 36.3175 30.4673 35.4409 29.5793C32.5346 26.6268 30.6663 23.0285 29.8705 18.8651C29.6052 17.5273 29.4668 15.0131 29.4668 11.6916V8.77374L29.7321 8.71607C29.8705 8.68147 30.7701 8.49694 31.7158 8.30088C35.6485 7.50511 38.7509 6.09808 41.7495 3.75688C42.257 3.36476 42.7759 2.9265 42.8913 2.78811C43.0181 2.66124 43.1565 2.54591 43.2142 2.54591C43.2603 2.54591 43.7216 2.90343 44.2176 3.33016ZM27.7946 19.2342C27.8407 19.4764 27.9214 19.857 27.9791 20.0761C28.0367 20.2952 28.0829 20.5143 28.0829 20.5605C28.0829 20.6181 23.6657 20.6527 18.2798 20.6527H8.46523L8.18844 20.9411L7.90011 21.2179V33.9734V46.7289L8.18844 47.0057L8.46523 47.294H29.5245H50.5838L50.8606 47.0057L51.1489 46.7289V39.6015V32.4741L52.0715 31.5514L52.9942 30.6288V39.8898V49.1393H29.4668H5.9395V34.2617V19.3726L6.22783 19.0958L6.50462 18.8075H17.115H27.7254L27.7946 19.2342ZM28.9363 23.3284C29.2823 24.3318 30.3434 26.4077 31.0584 27.5149C32.7422 30.0983 34.1377 31.4822 39.0392 35.4035C42.3261 38.0445 42.8336 38.402 43.1911 38.4136C43.687 38.4136 43.6178 38.4597 46.478 36.1762C47.7467 35.1728 48.8538 34.2963 48.9346 34.2271C49.0384 34.1464 49.073 35.242 49.073 39.6707V45.2181H29.5245H9.97605V33.9734V22.7287H19.3524H28.7172L28.9363 23.3284ZM23.758 51.7342C23.9771 52.4608 24.2655 52.9452 24.8767 53.6026C26.0646 54.8481 26.9296 55.1364 29.4668 55.1364C32.0041 55.1364 32.8691 54.8481 34.057 53.6026C34.6682 52.9452 34.9566 52.4608 35.1757 51.7342L35.3141 51.2729L44.8057 51.2383C50.9759 51.2268 54.4473 51.2498 54.7241 51.3305C56.9731 51.9303 57.6766 54.6982 55.9697 56.2321C55.0817 57.0394 57.3191 56.9817 29.4668 56.9817C1.61462 56.9817 3.85203 57.0394 2.96398 56.2321C1.96061 55.3325 1.71842 53.9947 2.3412 52.8183C2.67566 52.1609 3.4253 51.5497 4.14035 51.3421C4.34795 51.2844 8.58056 51.2383 14.0587 51.2498L23.6196 51.2729L23.758 51.7342ZM32.9959 51.5497C32.7422 52.0341 31.8542 52.7722 31.3352 52.9221C30.7816 53.0951 28.1867 53.1066 27.61 52.9452C27.1256 52.8068 26.1915 52.0341 25.9377 51.5497L25.7647 51.2152H29.4668H33.1689L32.9959 51.5497Z" fill="black"/>
<path d="M42.847 4.93316C42.7547 4.96776 42.2473 5.38295 41.7283 5.8558C40.1252 7.27436 38.3837 8.3008 36.4808 8.93512C36.0195 9.09658 34.8085 9.39644 33.7936 9.60403C32.3289 9.90389 31.8906 10.0308 31.683 10.2499L31.4062 10.5151L31.4639 14.6324C31.51 18.2653 31.5446 18.8766 31.7522 19.7877C32.4096 22.694 33.586 25.0467 35.4889 27.3072C36.3654 28.3452 37.0344 28.9334 40.4712 31.6782C42.501 33.2928 42.8124 33.512 43.193 33.512C43.5736 33.512 43.9196 33.2698 46.3761 31.2976C47.8869 30.0867 49.5015 28.7027 49.9629 28.2414C52.3156 25.8425 53.9764 22.7171 54.7375 19.2918C54.9567 18.2999 54.9913 17.7117 55.0374 14.2864L55.0951 10.3998L54.8183 10.123C54.5876 9.89236 54.3223 9.81163 53.5035 9.69629C49.6169 9.16578 47.2065 8.11627 44.6346 5.83274C43.7004 5.00236 43.2391 4.7717 42.847 4.93316ZM42.155 12.0029V15.6935H37.8301H33.5053V13.7559V11.8068L34.7508 11.5531C37.2074 11.0457 39.6062 10.0538 41.3592 8.83132C41.7629 8.543 42.1089 8.31233 42.1319 8.31233C42.1435 8.31233 42.155 9.97309 42.155 12.0029ZM45.3266 9.01585C47.1949 10.2499 49.4785 11.1495 51.6928 11.5185L52.9384 11.7376L52.973 13.7098L52.996 15.6935H48.6135H44.231V12.0029C44.231 9.07351 44.2656 8.32387 44.3809 8.39307C44.4501 8.4392 44.8883 8.72752 45.3266 9.01585ZM42.155 24.0088C42.155 28.9564 42.1204 30.2251 42.0166 30.1559C41.9359 30.1097 40.9671 29.3485 39.8715 28.4605C38.6259 27.4571 37.5879 26.523 37.1036 25.9463C35.2352 23.7435 34.0819 21.2408 33.6437 18.4268L33.5399 17.7694H37.8532H42.155V24.0088ZM52.8807 17.8271C52.8807 17.8617 52.7769 18.3922 52.6385 19.0034C52.0388 21.7829 50.6779 24.3894 48.7519 26.4307C48.0368 27.1919 44.9921 29.7753 44.3809 30.1559C44.2656 30.2251 44.231 28.9564 44.231 24.0088V17.7694H48.5558C50.9316 17.7694 52.8807 17.7925 52.8807 17.8271Z" fill="black"/>
<path d="M11.7031 28.5528V29.6484H18.6229H25.5427V28.5528V27.4572H18.6229H11.7031V28.5528Z" fill="black"/>
<path d="M11.7031 32.5319V33.5698H20.5835H29.464V32.5319V31.4939H20.5835H11.7031V32.5319Z" fill="black"/>
<path d="M11.7031 36.453V37.491H17.6426H23.5821V36.453V35.415H17.6426H11.7031V36.453Z" fill="black"/>
<path d="M11.7031 40.3741V41.4121H22.6018H33.5005V40.3741V39.3362H22.6018H11.7031V40.3741Z" fill="black"/>
</svg>
