<svg width="59" height="59" viewBox="0 0 59 59" fill="none" xmlns="http://www.w3.org/2000/svg">
<path d="M0.25431 0.254311C0.0127155 0.495903 0 0.67392 0 5.0862C0 9.49849 0.0127155 9.67651 0.25431 9.9181C0.495905 10.1597 0.673922 10.1724 3.05172 10.1724C5.42953 10.1724 5.60754 10.1597 5.84914 9.9181C6.19246 9.57478 6.19246 8.73556 5.84914 8.39224C5.62026 8.16336 5.42953 8.13793 3.81466 8.13793H2.03448V5.0862V2.03448H8.13793H14.2414V5.0862V8.13793H10.9353C7.79461 8.13793 7.61659 8.15065 7.375 8.39224C7.13341 8.63383 7.12069 8.81185 7.12069 12.4612V16.2759H3.81466C0.673922 16.2759 0.495905 16.2886 0.25431 16.5302C0.0127155 16.7718 0 16.9498 0 21.3621C0 25.7744 0.0127155 25.9524 0.25431 26.194C0.495905 26.4356 0.673922 26.4483 3.81466 26.4483H7.12069V30.2629C7.12069 33.9123 7.13341 34.0903 7.375 34.3319C7.61659 34.5735 7.79461 34.5862 10.9353 34.5862H14.2414V37.6379V40.6897H8.13793H2.03448V37.6379V34.5862H3.81466C5.42953 34.5862 5.62026 34.5608 5.84914 34.3319C6.19246 33.9886 6.19246 33.1494 5.84914 32.806C5.60754 32.5644 5.42953 32.5517 3.05172 32.5517C0.673922 32.5517 0.495905 32.5644 0.25431 32.806C0.0127155 33.0476 0 33.2256 0 37.6379C0 42.0502 0.0127155 42.2282 0.25431 42.4698C0.495905 42.7114 0.673922 42.7241 3.81466 42.7241H7.12069V45.7759V48.8276H3.81466C0.673922 48.8276 0.495905 48.8403 0.25431 49.0819C0.0127155 49.3235 0 49.5015 0 53.9138C0 58.3261 0.0127155 58.5041 0.25431 58.7457C0.508621 59 0.673922 59 29.5 59C58.3261 59 58.4914 59 58.7457 58.7457C58.9873 58.5041 59 58.3261 59 53.9138C59 49.5015 58.9873 49.3235 58.7457 49.0819C58.5041 48.8403 58.3261 48.8276 55.1853 48.8276H51.8793V45.0129C51.8793 41.3636 51.8666 41.1856 51.625 40.944C51.3834 40.7024 51.2054 40.6897 48.0647 40.6897H44.7586V37.6379V34.5862H50.8621H56.9655V37.6379V40.6897H55.1853C53.5705 40.6897 53.3797 40.7151 53.1509 40.944C52.8075 41.2873 52.8075 42.1265 53.1509 42.4698C53.3925 42.7114 53.5705 42.7241 55.9483 42.7241C58.3261 42.7241 58.5041 42.7114 58.7457 42.4698C58.9873 42.2282 59 42.0502 59 37.6379C59 33.2256 58.9873 33.0476 58.7457 32.806C58.5041 32.5644 58.3261 32.5517 55.1853 32.5517H51.8793V29.5V26.4483H55.1853C58.3261 26.4483 58.5041 26.4356 58.7457 26.194C58.9873 25.9524 59 25.7744 59 21.3621C59 16.9498 58.9873 16.7718 58.7457 16.5302C58.5041 16.2886 58.3261 16.2759 55.9483 16.2759C53.5705 16.2759 53.3925 16.2886 53.1509 16.5302C52.8075 16.8735 52.8075 17.7127 53.1509 18.056C53.3797 18.2849 53.5705 18.3103 55.1853 18.3103H56.9655V21.3621V24.4138H50.6078C44.4153 24.4138 44.2373 24.4265 43.9957 24.6681C43.6524 25.0114 43.6524 25.8506 43.9957 26.194C44.2373 26.4356 44.4153 26.4483 47.0474 26.4483H49.8448V29.5V32.5517H46.5388C43.3981 32.5517 43.22 32.5644 42.9785 32.806C42.7369 33.0476 42.7241 33.2256 42.7241 36.875V40.6897H41.4526C40.3463 40.6897 40.1429 40.7278 39.9267 40.944C39.5834 41.2873 39.5834 42.1265 39.9267 42.4698C40.1683 42.7114 40.3463 42.7241 45.0129 42.7241H49.8448V45.7759V48.8276H43.7414H37.6379V46.5388C37.6379 44.4153 37.6252 44.2373 37.3836 43.9957C37.0403 43.6524 36.2011 43.6524 35.8578 43.9957C35.6162 44.2373 35.6035 44.4153 35.6035 46.5388V48.8276H29.5H23.3966V46.5388C23.3966 44.4153 23.3838 44.2373 23.1422 43.9957C22.7989 43.6524 21.9597 43.6524 21.6164 43.9957C21.3748 44.2373 21.3621 44.4153 21.3621 46.5388V48.8276H15.2586H9.15517V45.7759V42.7241H14.4957C19.6709 42.7241 19.8489 42.7114 20.0905 42.4698C20.4338 42.1265 20.4338 41.2873 20.0905 40.944C19.8616 40.7151 19.6709 40.6897 18.056 40.6897H16.2759V36.875C16.2759 33.2256 16.2631 33.0476 16.0216 32.806C15.78 32.5644 15.6019 32.5517 12.4612 32.5517H9.15517V29.5V26.4483H11.9526C14.5847 26.4483 14.7627 26.4356 15.0043 26.194C15.1696 26.0287 15.2586 25.7744 15.2586 25.431C15.2586 25.0877 15.1696 24.8334 15.0043 24.6681C14.7627 24.4265 14.5847 24.4138 8.39224 24.4138H2.03448V21.3621V18.3103H9.9181C17.6364 18.3103 17.8017 18.3103 18.056 18.056C18.2213 17.8907 18.3103 17.6364 18.3103 17.2931C18.3103 16.9498 18.2213 16.6955 18.056 16.5302C17.8144 16.2886 17.6364 16.2759 13.4784 16.2759H9.15517V13.2241V10.1724H15.2586H21.3621V12.4612C21.3621 14.5847 21.3748 14.7627 21.6164 15.0043C21.7817 15.1696 22.036 15.2586 22.3793 15.2586C22.7226 15.2586 22.9769 15.1696 23.1422 15.0043C23.3838 14.7627 23.3966 14.5847 23.3966 12.4612V10.1724H29.5H35.6035V12.9698C35.6035 15.6019 35.6162 15.78 35.8578 16.0215C36.0231 16.1869 36.2774 16.2759 36.6207 16.2759C36.964 16.2759 37.2183 16.1869 37.3836 16.0215C37.6252 15.78 37.6379 15.6019 37.6379 12.9698V10.1724H43.7414H49.8448V13.2241V16.2759H46.5388C43.3981 16.2759 43.22 16.2886 42.9785 16.5302C42.8131 16.6955 42.7241 16.9498 42.7241 17.2931C42.7241 17.6364 42.8131 17.8907 42.9785 18.056C43.22 18.2976 43.3981 18.3103 47.3017 18.3103C51.2054 18.3103 51.3834 18.2976 51.625 18.056C51.8666 17.8144 51.8793 17.6364 51.8793 13.9871V10.1724H55.1853C58.3261 10.1724 58.5041 10.1597 58.7457 9.9181C58.9873 9.67651 59 9.49849 59 5.0862C59 0.67392 58.9873 0.495903 58.7457 0.254311C58.4914 0 58.3261 0 29.5 0C0.673922 0 0.508621 0 0.25431 0.254311ZM28.4828 5.0862V8.13793H22.3793H16.2759V5.0862V2.03448H22.3793H28.4828V5.0862ZM42.7241 5.0862V8.13793H36.6207H30.5172V5.0862V2.03448H36.6207H42.7241V5.0862ZM56.9655 5.0862V8.13793H50.8621H44.7586V5.0862V2.03448H50.8621H56.9655V5.0862ZM14.2414 53.9138V56.9655H8.13793H2.03448V53.9138V50.8621H8.13793H14.2414V53.9138ZM28.4828 53.9138V56.9655H22.3793H16.2759V53.9138V50.8621H22.3793H28.4828V53.9138ZM42.7241 53.9138V56.9655H36.6207H30.5172V53.9138V50.8621H36.6207H42.7241V53.9138ZM56.9655 53.9138V56.9655H50.8621H44.7586V53.9138V50.8621H50.8621H56.9655V53.9138Z" fill="black"/>
<path d="M27.9475 14.2668C26.5615 15.6401 25.2391 16.6319 23.726 17.4711C21.7805 18.552 20.2038 18.997 17.5081 19.2767C16.1857 19.4039 16.2747 18.9716 16.2747 25.5073C16.2747 30.7716 16.2874 31.242 16.529 32.183C17.8133 37.2056 20.954 41.4399 25.3409 44.0593C26.8413 44.9494 28.8503 45.7759 29.5115 45.7759C30.4525 45.7759 33.0846 44.5425 34.9665 43.2201C36.1745 42.3681 38.2217 40.3845 39.1118 39.202C40.6249 37.1929 41.7312 34.9041 42.4051 32.4246C42.7103 31.2802 42.723 31.0386 42.723 28.0632C42.723 25.0877 42.7103 24.9097 42.4687 24.6681C42.3034 24.5028 42.049 24.4138 41.7057 24.4138C41.3624 24.4138 41.1081 24.5028 40.9428 24.6681C40.7012 24.9097 40.6885 25.0877 40.6885 27.5545C40.6885 29.4619 40.6249 30.4283 40.4977 31.0259C39.6458 34.6752 37.9165 37.6379 35.1318 40.2065C33.5551 41.6561 30.3762 43.5252 29.4988 43.5252C29.3208 43.5252 28.6723 43.2836 28.0493 42.9912C23.1792 40.7151 19.568 36.2011 18.4999 31.0513C18.3473 30.3265 18.3092 29.1694 18.3092 25.7617V21.4002L19.0848 21.3112C22.3146 20.9425 26.1165 19.0733 28.774 16.5556L29.4988 15.8563L30.2363 16.5556C31.8385 18.0815 34.051 19.4929 36.1745 20.3321C37.3697 20.8026 39.6204 21.3621 40.3579 21.3621C40.6758 21.3621 40.6885 21.3875 40.6885 22.125C40.6885 23.0787 40.9428 23.3966 41.7057 23.3966C42.5958 23.3966 42.723 23.1423 42.723 21.3621C42.723 19.5183 42.6467 19.3912 41.4896 19.2767C38.7939 18.997 37.2171 18.552 35.2717 17.4711C33.7331 16.6192 32.4107 15.6147 31.0501 14.2668C30.0965 13.3259 29.9312 13.2242 29.4988 13.2242C29.0665 13.2242 28.9139 13.3386 27.9475 14.2668Z" fill="black"/>
<path d="M31.2582 29.2076L27.469 32.9841L25.7143 31.2421C24.0358 29.5891 23.9214 29.5001 23.4382 29.5001C22.777 29.5001 22.3828 29.8942 22.3828 30.5809C22.3828 31.0641 22.4845 31.1785 24.6462 33.3402C26.8968 35.5908 26.9095 35.6035 27.469 35.6035H28.0412L32.3263 31.3057C36.5606 27.0841 36.6242 27.0078 36.6242 26.4992C36.6242 25.8126 36.23 25.4311 35.5434 25.4311C35.0602 25.4311 34.9203 25.5455 31.2582 29.2076Z" fill="black"/>
</svg>
