<svg width="60" height="57" viewBox="0 0 60 57" fill="none" xmlns="http://www.w3.org/2000/svg">
<path d="M3.66602 1.48912C2.72109 2.28424 1.89141 3.03326 1.82227 3.14849C1.60332 3.56334 1.68398 4.28931 1.98359 4.58892C2.57129 5.17662 3.12441 5.119 4.05781 4.35846L4.70312 3.82838V26.6448V49.4727H3.00918C0.508594 49.4727 0.09375 49.6571 0.09375 50.7518C0.09375 51.2127 0.139844 51.3395 0.450977 51.593C0.79668 51.8926 0.819727 51.8926 2.75566 51.8926H4.70312V54.0936V56.2946L5.0373 56.6288C5.4291 57.0206 6.09746 57.0897 6.53535 56.7786C7.03086 56.4213 7.12305 55.9719 7.12305 53.8516V51.8926H31.2186C54.1502 51.8926 55.3141 51.9042 55.1643 52.1001C55.0721 52.2038 54.8416 52.5034 54.6342 52.7454C54.323 53.1141 54.2539 53.2985 54.2539 53.7479C54.2539 54.2088 54.3 54.3356 54.6111 54.5891C54.9914 54.9118 55.5906 54.9809 55.9939 54.762C56.1207 54.7044 56.8697 53.8862 57.6533 52.9643C59.0592 51.3165 59.0938 51.2588 59.0938 50.7288C59.0938 50.1987 59.0592 50.1411 57.6533 48.4702C56.0631 46.5803 55.7635 46.3729 55.0375 46.5803C54.4959 46.7532 54.2539 47.0874 54.2539 47.6981C54.2539 48.0438 54.3461 48.2973 54.5881 48.643C54.7725 48.8965 54.9799 49.1385 55.049 49.1846C55.4639 49.4381 54.7955 49.4727 49.7021 49.4727H44.2285V34.2272V18.9932L46.7982 16.4235L49.3564 13.8653L50.8545 15.3633C52.3064 16.8268 52.3641 16.8614 52.848 16.8614C53.4703 16.8614 53.7354 16.7231 53.9658 16.2852C54.2309 15.7667 54.2309 3.54029 53.9543 3.02174C53.6086 2.34185 53.5855 2.34185 46.8789 2.34185C40.0225 2.34185 40.1031 2.33033 39.7805 3.1024C39.4578 3.86295 39.5961 4.10494 41.267 5.77584L42.7881 7.29693L40.2529 9.83208L37.7178 12.3672H31.8639H25.9984L25.6643 12.7014C25.3992 12.9665 25.3301 13.1393 25.3301 13.5196C25.3301 13.7846 25.3877 14.0958 25.4568 14.234C25.7334 14.7526 26.0791 14.7872 30.8268 14.7872H35.2979L28.5566 21.5284L21.8154 28.2696H14.475H7.12305V21.5284V14.7872H11.8477C15.8463 14.7872 16.6414 14.7641 16.918 14.6143C17.3443 14.3954 17.4941 14.1188 17.4941 13.5196C17.4941 13.1393 17.425 12.9665 17.16 12.7014L16.8258 12.3672H11.9744H7.12305V8.14967V3.94361L7.46875 4.20865C8.49434 4.98072 8.55195 5.01529 9.00137 4.95767C9.24336 4.9231 9.54297 4.80787 9.66973 4.69263C9.99238 4.40455 10.1652 3.73619 10.0154 3.35592C9.91172 3.09088 7.36504 0.797714 6.54688 0.233063C6.39707 0.129353 6.07441 0.0371666 5.83242 0.0371666C5.44063 0.0371666 5.21016 0.198494 3.66602 1.48912ZM51.7188 8.76041V12.759L50.8775 11.9294C50.0133 11.0766 49.5869 10.8461 48.9992 10.9499C48.7457 10.996 44.24 15.4325 29.4209 30.2401L10.1768 49.4727H8.64414H7.12305V47.9977V46.5342L26.0906 27.5782C36.5193 17.1495 45.208 8.4147 45.3924 8.17271C45.7496 7.70025 45.8188 7.22779 45.5998 6.80142C45.5307 6.66314 45.0812 6.14459 44.5973 5.64908L43.71 4.76178H47.7201H51.7188V8.76041ZM41.8086 35.4717V49.4727H35.0674H28.3262V42.1899V34.8956L35.0328 28.1889C38.7318 24.4899 41.7625 21.4708 41.774 21.4708C41.7971 21.4708 41.8086 27.7741 41.8086 35.4717ZM19.3379 30.7241C19.3379 30.7356 16.5953 33.5012 13.2305 36.8545L7.12305 42.962V36.82V30.6895H13.2305C16.5953 30.6895 19.3379 30.701 19.3379 30.7241ZM25.9062 43.4229V49.4727H19.8334H13.749L19.7988 43.4229C23.1291 40.0926 25.8602 37.3731 25.8717 37.3731C25.8947 37.3731 25.9062 40.0926 25.9062 43.4229Z" fill="black"/>
<path d="M20.9294 12.5515C20.5376 12.759 20.2956 13.4619 20.4569 13.9344C20.6182 14.4183 21.1022 14.7295 21.6669 14.718C22.0587 14.7064 22.22 14.6258 22.4735 14.3377C23.4069 13.3006 22.1739 11.8717 20.9294 12.5515Z" fill="black"/>
</svg>
