<svg width="59" height="59" viewBox="0 0 59 59" fill="none" xmlns="http://www.w3.org/2000/svg">
<path d="M22.4256 1.09473C18.9916 1.80919 16.007 3.79121 14.1172 6.6375C13.2184 7.97422 12.3541 10.0945 12.1582 11.4197L12.0775 11.9498L11.1441 12.0074C9.2543 12.1342 7.37598 13.033 5.98164 14.485C4.44902 16.0752 3.79219 17.6424 3.71152 19.901C3.64238 21.6641 3.8498 22.6666 4.5873 24.1186C5.60137 26.1582 7.62949 27.783 9.86504 28.3477C10.7063 28.5666 11.1672 28.5781 18.2311 28.5781C26.4934 28.5781 26.3551 28.5666 26.6086 29.2695C26.793 29.7996 26.793 42.1066 26.6086 42.6367C26.4588 43.0631 25.9518 43.3281 25.3064 43.3281H24.9031L24.8686 38.5229L24.834 33.7061L24.4998 33.0147C24.0619 32.1273 23.1861 31.2516 22.2988 30.8137L21.6074 30.4795H12.9072H4.20703L3.51562 30.8137C2.62832 31.2516 1.75254 32.1273 1.31465 33.0147L0.980469 33.7061V44.25V54.7939L1.31465 55.4854C1.75254 56.3727 2.62832 57.2484 3.51562 57.6863L4.20703 58.0205H12.9072H21.6074L22.2988 57.6863C23.1861 57.2484 24.0619 56.3727 24.4998 55.4854L24.834 54.7939L24.8686 49.9887L24.9031 45.1719H25.7098C26.6432 45.1719 27.2078 44.976 27.7609 44.4459C28.6021 43.6393 28.5791 43.9965 28.5791 35.9762C28.5791 28.0711 28.6021 28.3477 27.8531 27.5641C27.0695 26.7459 27.6342 26.8035 18.8994 26.7229C10.326 26.6537 10.5564 26.6768 9.15059 25.9854C7.76777 25.3055 6.51172 23.8881 5.97012 22.4131C5.67051 21.5719 5.5668 19.8088 5.7627 18.8639C6.22363 16.6168 8.3209 14.5195 10.568 14.0586C11.5129 13.8627 13.276 13.9664 14.1172 14.266C15.0621 14.6117 16.2721 15.4645 16.8828 16.2135C17.7355 17.2621 18.3232 18.7025 18.3232 19.7857V20.2813H19.3027H20.2822V19.6705C20.2822 18.7717 19.902 17.4119 19.3373 16.3287C18.427 14.5656 16.3988 12.8717 14.5551 12.3186C13.9789 12.1572 13.9674 12.1227 14.3016 10.9473C15.6037 6.25723 19.9365 2.88086 24.7303 2.86934C26.1016 2.85781 27.0119 2.9961 28.2104 3.36485C30.6879 4.12539 33.0156 6.00372 34.3984 8.3545L35.0322 9.4377L35.8734 9.05743C36.3229 8.85 36.9566 8.60801 37.2678 8.53887C37.9938 8.3545 39.4572 8.36602 40.1717 8.53887C42.5225 9.11504 44.4238 11.0395 44.9424 13.3787C45.1498 14.2891 45.0461 16.0176 44.735 16.8818C43.9053 19.1404 41.7273 20.8689 39.4457 21.0648L38.7197 21.1225V22.0789V23.0469H39.3305C40.2293 23.0469 41.5891 22.6666 42.6723 22.102C43.9859 21.4221 45.3918 20.0162 46.0717 18.7025C46.717 17.4695 47.0166 16.2596 47.0166 14.9574V13.9434H47.5121C50.0012 13.9434 52.7092 16.2596 53.2393 18.8639C53.4352 19.8088 53.3314 21.5719 53.0318 22.4131C52.4902 23.8881 51.2342 25.3055 49.8514 25.9854C48.4455 26.6768 48.676 26.6537 40.1025 26.7229C31.3678 26.8035 31.9324 26.7459 31.1488 27.5641C30.3883 28.3477 30.4229 27.9674 30.4229 36.875C30.4229 45.7711 30.3883 45.4023 31.1488 46.1975C31.702 46.7852 32.3012 47.0156 33.2807 47.0156C34.0643 47.0156 34.1104 47.0271 34.1104 47.2691C34.1104 47.8684 34.5713 49.7121 34.9516 50.6455C35.5738 52.1436 36.3344 53.2844 37.5674 54.5174C39.1691 56.1422 40.6211 57.018 42.8336 57.6979C43.79 57.9859 43.9859 58.009 46.0947 58.009C48.2035 58.009 48.3994 57.9859 49.3559 57.6979C51.6145 57.0064 53.2393 56.0039 54.8064 54.3561C57.0305 52.0168 58.0791 49.3779 58.0791 46.0938C58.0791 43.7199 57.5721 41.8186 56.3967 39.848C55.6246 38.5344 53.6541 36.5639 52.3404 35.7918C50.3699 34.6164 48.4686 34.1094 46.0947 34.1094C44.3662 34.1094 43.283 34.2938 41.808 34.8469C40.1717 35.4576 39.0424 36.2066 37.6711 37.5664C36.3229 38.9146 35.5969 39.9748 34.9516 41.542C34.5713 42.4754 34.1104 44.3191 34.1104 44.9068C34.1104 45.1373 34.0527 45.1719 33.707 45.1719C33.0502 45.1719 32.5432 44.9068 32.3934 44.4805C32.209 43.9504 32.209 29.7996 32.3934 29.2695C32.6469 28.5666 32.5086 28.5781 40.7709 28.5781C47.8348 28.5781 48.2957 28.5666 49.1369 28.3477C51.3725 27.783 53.4006 26.1582 54.4146 24.1186C55.1521 22.6551 55.3596 21.6641 55.2904 19.901C55.2443 18.7602 55.1752 18.3107 54.9102 17.5271C53.85 14.4043 50.9346 12.1803 47.685 12.0074L46.5787 11.9498L46.3828 11.4428C46.0602 10.6131 45.1152 9.2879 44.2971 8.53887C43.3982 7.72071 42.05 6.98321 40.84 6.6836C39.6877 6.38399 37.7287 6.38399 36.6225 6.67207L35.8504 6.86797L35.4125 6.23418C33.8799 3.98711 30.999 2.02813 28.1182 1.26758C26.8621 0.933403 23.6816 0.841213 22.4256 1.09473ZM21.3193 32.5652C21.9416 32.8648 22.5063 33.4295 22.7828 34.0518C22.9787 34.4781 22.9902 35.0658 23.0248 41.6803L23.0594 48.8594H12.9072H2.75508L2.78965 41.6803C2.82422 35.0658 2.83574 34.4781 3.03164 34.0518C3.42344 33.176 4.23008 32.5307 5.12891 32.3693C5.38242 32.3232 9.01231 32.3002 13.1953 32.3117C20.6971 32.3232 20.8123 32.3232 21.3193 32.5652ZM48.3879 36.3104C52.0523 37.1516 55.0023 40.1016 55.8896 43.8006C56.2008 45.1258 56.2008 47.0617 55.8896 48.3984C55.6592 49.3203 54.7143 51.5098 54.5299 51.5098C54.4838 51.5098 54.3225 51.2678 54.1727 50.9797C53.5504 49.8158 51.7758 48.2602 50.3814 47.6494L49.8859 47.442L50.2201 47.0848C51.1535 46.1053 51.626 44.8377 51.626 43.3396C51.626 41.6457 51.0959 40.3666 49.9205 39.2719C48.8027 38.2232 47.685 37.7969 46.0947 37.7969C44.5045 37.7969 43.3867 38.2232 42.2689 39.2719C41.0936 40.3666 40.5635 41.6457 40.5635 43.3396C40.5635 44.8377 41.0359 46.1053 41.9693 47.0848L42.3035 47.442L41.808 47.6494C40.4137 48.2602 38.6391 49.8158 38.0168 50.9797C37.867 51.2678 37.7057 51.5098 37.6711 51.5098C37.4752 51.5098 36.5994 49.5393 36.3459 48.5482C35.9771 47.0963 35.9656 45.218 36.2998 43.7891C36.5994 42.5445 37.4982 40.7238 38.2818 39.7559C40.7479 36.7598 44.6082 35.4346 48.3879 36.3104ZM47.685 40.09C48.3072 40.4127 49.0102 41.1041 49.3443 41.7379C49.5633 42.1527 49.6094 42.4063 49.6094 43.3281C49.6094 44.5842 49.4135 45.0797 48.6299 45.8633C47.8463 46.6469 47.3508 46.8428 46.0947 46.8428C45.1729 46.8428 44.9193 46.7967 44.5045 46.5777C43.8707 46.232 43.1793 45.5406 42.8566 44.9184C42.5455 44.3191 42.4418 43.0285 42.6262 42.3256C42.9027 41.2885 43.9629 40.1822 44.9885 39.8711C45.6107 39.6752 47.1318 39.802 47.685 40.09ZM47.5467 48.9631C49.8744 49.2396 51.6605 50.4496 52.6746 52.4547C52.859 52.8234 53.0088 53.1922 53.0088 53.2844C53.0088 53.5379 51.5338 54.598 50.416 55.1512C47.6734 56.4764 44.516 56.4764 41.7734 55.1512C40.6557 54.598 39.1807 53.5379 39.1807 53.2844C39.1807 52.9963 39.826 51.8209 40.3215 51.2102C40.8977 50.4842 42.1076 49.6314 43.041 49.3088C44.1934 48.9055 45.8758 48.7787 47.5467 48.9631ZM23.0248 52.3395C22.9672 54.2408 22.8059 54.7594 22.0453 55.4393C21.2041 56.1998 21.4922 56.1768 12.9072 56.1768C4.32227 56.1768 4.61035 56.1998 3.76914 55.4393C3.00859 54.7594 2.84727 54.2408 2.78965 52.3395L2.73203 50.7031H12.9072H23.0824L23.0248 52.3395Z" fill="black"/>
<path d="M5.43906 34.3398C4.72461 34.7777 4.60938 35.135 4.60938 36.875C4.60938 38.615 4.72461 38.9723 5.43906 39.4102C5.80781 39.6291 6.03828 39.6406 12.9062 39.6406C19.7742 39.6406 20.0047 39.6291 20.3734 39.4102C21.0879 38.9723 21.2031 38.615 21.2031 36.875C21.2031 35.135 21.0879 34.7777 20.3734 34.3398C20.0047 34.1209 19.7742 34.1094 12.9062 34.1094C6.03828 34.1094 5.80781 34.1209 5.43906 34.3398ZM19.3594 36.875V37.7969H12.9062H6.45312V36.875V35.9531H12.9062H19.3594V36.875Z" fill="black"/>
<path d="M5.43906 41.7148C4.72461 42.1527 4.60938 42.51 4.60938 44.25C4.60938 45.99 4.72461 46.3473 5.43906 46.7852C5.80781 47.0041 6.03828 47.0156 12.9062 47.0156C19.7742 47.0156 20.0047 47.0041 20.3734 46.7852C21.0879 46.3473 21.2031 45.99 21.2031 44.25C21.2031 42.51 21.0879 42.1527 20.3734 41.7148C20.0047 41.4959 19.7742 41.4844 12.9062 41.4844C6.03828 41.4844 5.80781 41.4959 5.43906 41.7148ZM19.3594 44.25V45.1719H12.9062H6.45312V44.25V43.3281H12.9062H19.3594V44.25Z" fill="black"/>
<path d="M11.9844 53.4688V54.3906H12.9062H13.8281V53.4688V52.5469H12.9062H11.9844V53.4688Z" fill="black"/>
<path d="M15.6719 53.4688V54.3906H16.5938H17.5156V53.4688V52.5469H16.5938H15.6719V53.4688Z" fill="black"/>
<path d="M19.3594 53.4688V54.3906H20.2812H21.2031V53.4688V52.5469H20.2812H19.3594V53.4688Z" fill="black"/>
<path d="M24.9135 5.5543L24.948 6.51074L25.7662 6.59141C27.8174 6.79883 29.8225 8.04336 30.9979 9.85254C31.2629 10.2674 31.5049 10.6016 31.5279 10.6016C31.6432 10.6016 33.1873 9.7834 33.1873 9.72578C33.1873 9.31094 31.7354 7.42109 30.848 6.68359C29.4537 5.54277 27.0914 4.60938 25.5588 4.60938H24.8789L24.9135 5.5543Z" fill="black"/>
<path d="M41.3691 15.0382C41.3691 16.0868 40.0785 17.389 39.0414 17.4005H38.7188V18.3915V19.394L39.4217 19.3249C41.323 19.1521 43.1207 17.3544 43.2936 15.453L43.3627 14.7501H42.3602C41.3807 14.7501 41.3691 14.7501 41.3691 15.0382Z" fill="black"/>
<path d="M11.9844 16.6398V17.6309H12.307C13.3441 17.6424 14.6348 18.9445 14.6348 19.9932C14.6348 20.2812 14.6463 20.2812 15.6258 20.2812H16.6283L16.5592 19.5783C16.3863 17.677 14.5887 15.8793 12.6873 15.7064L11.9844 15.6373V16.6398Z" fill="black"/>
<path d="M11.9844 23.9688V24.8906H12.9062H13.8281V23.9688V23.0469H12.9062H11.9844V23.9688Z" fill="black"/>
<path d="M15.6719 23.9688V24.8906H16.5938H17.5156V23.9688V23.0469H16.5938H15.6719V23.9688Z" fill="black"/>
<path d="M19.3594 23.9688V24.8906H20.2812H21.2031V23.9688V23.0469H20.2812H19.3594V23.9688Z" fill="black"/>
</svg>
