<svg width="59" height="59" viewBox="0 0 59 59" fill="none" xmlns="http://www.w3.org/2000/svg">
<path d="M28.6198 0.354477C27.7095 1.05741 25.255 2.62459 23.8721 3.37362C18.894 6.12772 13.5932 7.85624 7.6702 8.63983C6.25281 8.83573 6.1952 8.89334 6.06844 10.4375C5.93016 12.0277 6.03387 18.8035 6.20672 19.3797C6.27586 19.6217 6.42567 19.8637 6.55242 19.9328C6.89813 20.1172 7.45125 20.0711 7.70477 19.8176C7.92371 19.5986 7.92371 19.4719 7.85457 15.5885C7.82 13.376 7.82 11.3363 7.8661 11.0367C7.94676 10.5412 7.98133 10.4836 8.31551 10.4375C10.9083 10.0111 11.761 9.84979 13.213 9.50409C18.5483 8.22498 24.6212 5.51698 28.7696 2.56697L29.4841 2.05994L30.21 2.56697C34.347 5.51698 40.4198 8.22498 45.7552 9.50409C47.2071 9.84979 48.1175 10.0226 50.6411 10.426C51.1251 10.5066 51.1481 10.691 51.1481 13.9406C51.1481 26.3053 47.8985 37.1719 41.9294 44.7082C39.2214 48.1306 35.5915 51.0461 31.4776 53.0857L29.4841 54.0652L27.6173 53.1433C22.7659 50.7465 18.7788 47.324 15.702 42.9221C12.1413 37.8056 9.8827 31.8596 8.63817 24.3002C8.33856 22.5256 8.24637 22.1453 8.03895 21.9724C7.70477 21.7074 7.11707 21.7189 6.80594 22.007C6.47176 22.3181 6.48328 22.6523 6.85203 24.8764C7.49735 28.8058 8.69578 33.1041 10.0555 36.3998L10.6778 37.9094L9.65223 38.4971C7.56649 39.684 5.49227 41.3549 5.27332 42.0232C5.15809 42.392 5.18113 42.4957 5.67664 43.4291L6.1952 44.4431L3.11844 46.5058C0.0877744 48.5455 0.0416808 48.5685 0.00711048 48.9949C-0.0159364 49.2254 0.0186339 49.525 0.0877745 49.6402C0.156915 49.767 1.32078 50.4699 2.68055 51.2189L5.15809 52.5787L5.19266 55.425C5.22723 58.0408 5.25027 58.3058 5.44617 58.5248C5.93016 59.0664 6.1491 58.9627 11.3923 55.8744C14.0888 54.2842 16.3473 52.9359 16.428 52.8668C16.7852 52.5787 16.7046 52.1408 16.0708 50.781L15.437 49.4328L15.9095 49.1908C16.1745 49.0525 16.7046 48.8221 17.0848 48.6838L17.7763 48.4187L18.8249 49.3867C21.2333 51.5992 23.6647 53.2701 26.7184 54.7797C29.5647 56.1855 29.4034 56.1855 32.2497 54.7797C35.3034 53.2701 37.7348 51.5992 40.1432 49.3867L41.1919 48.4187L41.8833 48.6838C42.2636 48.8221 42.7936 49.0525 43.0471 49.1908L43.5196 49.4328L42.8973 50.781C42.2636 52.1523 42.2059 52.5211 42.5401 52.8553C42.6208 52.9244 44.8794 54.2842 47.5759 55.8744C52.819 58.9627 53.038 59.0664 53.522 58.5248C53.7179 58.3058 53.7409 58.0408 53.7755 55.425L53.81 52.5787L56.2876 51.2189C57.6473 50.4699 58.8112 49.767 58.8804 49.6402C58.9495 49.525 58.9841 49.2254 58.961 48.9949C58.9264 48.5685 58.8804 48.5455 55.8497 46.5058L52.7729 44.4431L53.2915 43.4291C53.787 42.4957 53.81 42.392 53.6948 42.0232C53.4759 41.3549 51.4016 39.684 49.3159 38.4971L48.2903 37.9094L48.9587 36.2615C50.8946 31.5023 52.0931 26.4205 52.7153 20.3937C52.9343 18.2965 53.0495 11.8433 52.8997 10.3223C52.7614 8.90487 52.6923 8.83573 51.2979 8.63983C43.704 7.62577 36.6171 4.87166 30.7862 0.677132C29.6684 -0.129509 29.3227 -0.187126 28.6198 0.354477ZM11.8878 40.2717C12.4179 41.3549 13.9159 43.6711 15.1604 45.3305C15.8173 46.2062 16.3473 46.9437 16.3243 46.9553C16.3013 46.9783 15.9786 47.1166 15.5983 47.2779C14.5497 47.7273 12.8097 48.6953 11.9454 49.3176L11.1733 49.8822L10.5395 48.7068C10.2054 48.0615 9.31805 46.3906 8.59207 45.0078L7.26688 42.4842L7.92371 41.9426C8.89168 41.1359 11.2194 39.6494 11.5075 39.6379C11.5421 39.6379 11.7149 39.926 11.8878 40.2717ZM48.4056 40.1449C49.3505 40.675 50.4567 41.4355 51.2288 42.0808L51.7013 42.4842L50.3761 45.0078C49.6501 46.3906 48.7628 48.0615 48.4286 48.7068L47.7948 49.8822L47.0227 49.3176C46.1585 48.6953 44.4184 47.7273 43.3698 47.2779C42.9895 47.1166 42.6669 46.9783 42.6438 46.9553C42.6208 46.9322 43.1048 46.2639 43.7155 45.4687C44.96 43.8439 46.2852 41.8158 46.9536 40.5137C47.1956 40.0297 47.4261 39.6379 47.4606 39.6379C47.4952 39.6379 47.9216 39.8683 48.4056 40.1449ZM8.56903 48.9719C9.37567 50.5275 10.1362 51.9103 10.263 52.0371C10.4358 52.233 10.77 52.3367 11.7495 52.4865C12.4524 52.6017 12.971 52.7285 12.9249 52.7746C12.8097 52.8783 7.11707 56.2316 7.05945 56.2316C7.03641 56.2316 7.01336 55.1945 7.01336 53.9269C7.01336 51.8642 6.99031 51.5992 6.80594 51.4148C6.6907 51.3111 5.73426 50.7465 4.6741 50.1818C3.62547 49.6056 2.74969 49.1101 2.74969 49.064C2.74969 48.9834 7.03641 46.068 7.07098 46.1256C7.0825 46.1371 7.75086 47.4162 8.56903 48.9719ZM54.1788 47.6121C55.2966 48.3726 56.2184 49.018 56.2184 49.064C56.2184 49.1101 55.3427 49.6056 54.294 50.1818C53.2339 50.7465 52.2774 51.3111 52.1622 51.4148C51.9778 51.5992 51.9548 51.8642 51.9548 53.9269C51.9548 55.1945 51.9317 56.2316 51.9087 56.2316C51.8511 56.2316 46.1585 52.8783 46.0432 52.7746C45.9972 52.7285 46.5272 52.6017 47.2302 52.4865C48.3479 52.3021 48.5323 52.2445 48.7628 51.968C48.9011 51.7951 49.6616 50.4123 50.4567 48.8797C51.2518 47.3586 51.9548 46.1486 52.0124 46.1832C52.0815 46.2178 53.0495 46.8631 54.1788 47.6121ZM14.0427 50.8732C14.0427 51.023 13.2706 50.9654 13.1784 50.8041C13.1438 50.758 13.2591 50.6312 13.4319 50.539C13.72 50.3892 13.7661 50.3892 13.9044 50.5506C13.9735 50.6543 14.0427 50.8041 14.0427 50.8732ZM45.7897 50.8271C45.7091 50.9424 44.9255 51.0115 44.9255 50.8963C44.9255 50.8502 44.9831 50.7004 45.0407 50.5736C45.1675 50.3547 45.179 50.3547 45.5016 50.5506C45.686 50.6543 45.8128 50.781 45.7897 50.8271Z" fill="black"/>
<path d="M28.102 7.15321C25.5783 8.96239 22.2481 10.5987 18.9293 11.6704C17.316 12.189 14.585 12.8112 13.2943 12.961C12.2342 13.0763 11.7617 13.2261 11.6004 13.5142C11.393 13.8714 11.3354 19.1376 11.5082 21.3155C11.9922 27.446 13.4672 32.8274 15.9102 37.4483C16.6707 38.8888 17.7193 40.5251 18.0881 40.8593C18.4223 41.1589 19.0906 41.1358 19.3557 40.8017C19.736 40.3407 19.6322 39.9374 18.8371 38.739C15.1842 33.1962 13.2367 25.7751 13.2367 17.4321V14.8624L13.5018 14.8163C13.6401 14.7817 14.2738 14.678 14.9076 14.5743C19.4824 13.8368 24.668 11.7626 28.6436 9.08915L29.4848 8.51298L30.326 9.08915C34.3016 11.7626 39.4871 13.8368 44.0619 14.5743C44.6957 14.678 45.3295 14.7817 45.4793 14.8163L45.7328 14.8624V17.6626C45.7328 19.9442 45.7674 20.4974 45.9057 20.7048C46.2744 21.2349 47.2078 21.1196 47.4613 20.5089C47.6572 20.0479 47.5766 13.8714 47.3692 13.5142C47.2078 13.2261 46.7354 13.0763 45.6752 12.961C44.3846 12.8112 41.6535 12.189 40.0402 11.6704C36.975 10.6794 33.9904 9.25048 31.4092 7.52196C30.2223 6.72684 29.7152 6.45028 29.4502 6.45028C29.1852 6.45028 28.8049 6.64618 28.102 7.15321Z" fill="black"/>
<path d="M36.4311 19.8291C36.166 19.8752 35.7857 20.0019 35.5668 20.1056C35.3594 20.2093 33.3889 22.0992 31.1879 24.2886L27.1893 28.2757L25.599 26.7201C24.7232 25.8673 23.8129 25.0722 23.5594 24.957C22.3379 24.3923 20.8975 24.692 19.9871 25.706C19.3879 26.3629 19.2266 26.8353 19.2266 27.8263C19.2381 29.0132 19.4225 29.2783 22.4301 32.2974C23.9281 33.807 25.3916 35.1898 25.6797 35.3511C26.3826 35.7775 27.7654 35.8005 28.5605 35.4088C29.252 35.063 39.4848 24.8072 39.8074 24.1388C40.1301 23.4705 40.107 22.1107 39.7729 21.4769C39.1045 20.2209 37.7793 19.564 36.4311 19.8291ZM37.8369 21.9724C38.1826 22.3181 38.3094 22.9173 38.125 23.2861C37.9291 23.6664 28.1227 33.5074 27.7309 33.7148C27.558 33.807 27.2469 33.8761 27.0395 33.8761C26.7053 33.8761 26.3826 33.588 23.8705 31.0759C21.1164 28.3218 21.0703 28.2642 21.0703 27.8033C21.0703 26.9275 21.8654 26.3283 22.6375 26.6164C22.8219 26.6855 23.8359 27.5959 24.8846 28.6445C26.832 30.5804 27.0049 30.6841 27.558 30.4076C27.6963 30.3384 29.7359 28.3679 32.0752 26.0287C34.9906 23.1132 36.4541 21.742 36.6846 21.6843C37.157 21.5576 37.4912 21.6382 37.8369 21.9724Z" fill="black"/>
<path d="M45.8822 22.8366C45.5365 23.0095 45.4213 23.3437 45.1562 25.003C44.5225 28.9786 43.566 32.1591 42.0564 35.3165C39.5098 40.6173 35.8684 44.397 30.8902 46.8976L29.4959 47.6005L28.1592 46.9552C26.0389 45.9181 23.9531 44.4661 22.3398 42.922C21.2451 41.8618 20.8994 41.7351 20.3348 42.1845C20.1043 42.3689 20.0352 42.5187 20.0352 42.8644C20.0352 43.2677 20.1158 43.3829 21.1068 44.3163C22.9506 46.0909 24.898 47.4277 27.4102 48.6607C29.4037 49.6402 29.5766 49.6402 31.7084 48.58C38.5188 45.1921 43.3355 39.1308 45.7324 30.9376C46.4238 28.5638 47.2305 24.5997 47.2305 23.5741C47.2305 22.9749 46.4584 22.5486 45.8822 22.8366Z" fill="black"/>
</svg>
