<svg width="49" height="49" viewBox="0 0 49 49" fill="none" xmlns="http://www.w3.org/2000/svg">
<path d="M4.54138 0.761719C4.31092 0.992188 4.31092 1.14199 4.31092 10.4414V19.8906H2.69763C1.23416 19.8906 1.06131 19.9137 0.853885 20.1211C0.623416 20.3516 0.623416 20.4553 0.646463 32.7738L0.681033 45.1846L1.01521 45.876C1.4531 46.7633 2.32888 47.6391 3.21619 48.077L3.9076 48.4111H24.5922H45.2767L45.9681 48.077C46.8554 47.6391 47.7312 46.7633 48.1691 45.876L48.5033 45.1846L48.5379 29.5473C48.5609 14.0021 48.5609 13.8984 48.3304 13.668C48.123 13.4605 47.9502 13.4375 46.4867 13.4375H44.8734V7.21484C44.8734 1.14199 44.8734 0.992188 44.6429 0.761719C44.4125 0.53125 44.2627 0.53125 24.5922 0.53125C4.92166 0.53125 4.77185 0.53125 4.54138 0.761719ZM43.0297 21.7344V41.0938H42.1078H41.1859V28.8789C41.1859 17.1826 41.1744 16.6525 40.9785 16.4566C40.7941 16.2723 40.4945 16.2262 38.9273 16.1686C36.5535 16.0648 30.1465 16.0879 29.2822 16.1916L28.6138 16.2723L26.8047 18.0814L24.9955 19.8906H15.5693H6.15467V11.1328V2.375H24.5922H43.0297V21.7344ZM46.6941 29.8238C46.6595 43.5598 46.648 44.401 46.4521 44.8389C45.9912 45.876 45.0347 46.5098 43.9515 46.5098C42.4189 46.5098 41.4164 45.4727 41.232 43.7096L41.1513 42.9375H42.7877C44.2627 42.9375 44.4355 42.9145 44.6429 42.707C44.8734 42.4766 44.8734 42.3268 44.8734 28.8789V15.2812H45.7953H46.7172L46.6941 29.8238ZM39.2845 31.0453C39.2961 45.0117 39.3076 45.3344 39.8722 46.1986L40.1603 46.625L22.4373 46.602L4.71424 46.5674L4.19568 46.3254C3.53885 46.0143 3.07791 45.5533 2.76678 44.8965C2.52478 44.3779 2.52478 44.2857 2.49021 33.0504L2.45564 21.7344H14.2326H26.0095L27.8648 19.8906L29.7201 18.0469H34.5023H39.2845V31.0453Z" fill="black"/>
<path d="M14.6014 5.14062C13.5298 5.35957 12.6079 6.03945 12.0893 6.9959C11.4786 8.1252 11.5592 9.91133 12.2737 10.8908L12.5848 11.3402L12.0778 11.709C10.6489 12.7346 9.54265 15.0508 9.84226 16.3875C9.89987 16.6295 10.0382 16.8945 10.1419 16.9752C10.4415 17.1941 20.3055 17.1941 20.6051 16.9752C20.8817 16.7678 21.02 15.9266 20.8932 15.2236C20.6628 13.9791 19.6833 12.435 18.6692 11.709L18.1622 11.3402L18.4733 10.8908C18.9342 10.2686 19.0956 9.56562 19.038 8.51699C18.9803 7.5375 18.8075 7.09961 18.1737 6.32754C17.4477 5.42871 15.8344 4.88711 14.6014 5.14062ZM16.2723 7.33008C17.7704 8.24043 17.1251 10.5566 15.3735 10.5566C14.394 10.5566 13.645 9.80762 13.645 8.82812C13.645 8.20586 13.9561 7.65273 14.4747 7.33008C14.7051 7.1918 15.0624 7.09961 15.3735 7.09961C15.6846 7.09961 16.0419 7.1918 16.2723 7.33008ZM16.6872 12.8729C17.4247 13.1379 18.2313 13.8754 18.5885 14.5668C18.7268 14.8318 18.8305 15.0969 18.8305 15.166C18.8305 15.2467 17.6897 15.2812 15.3735 15.2812C13.0573 15.2812 11.9165 15.2467 11.9165 15.166C11.9165 14.8779 12.435 14.0598 12.9075 13.5988C13.8639 12.6654 15.3735 12.3773 16.6872 12.8729Z" fill="black"/>
<path d="M27.5898 7.21484C27.44 7.36465 27.3594 7.59512 27.3594 7.90625C27.3594 8.21738 27.44 8.44785 27.5898 8.59766C27.8088 8.8166 27.9701 8.82812 33.3516 8.82812C38.733 8.82812 38.8943 8.8166 39.1133 8.59766C39.2631 8.44785 39.3438 8.21738 39.3438 7.90625C39.3438 7.59512 39.2631 7.36465 39.1133 7.21484C38.8943 6.9959 38.733 6.98438 33.3516 6.98438C27.9701 6.98438 27.8088 6.9959 27.5898 7.21484Z" fill="black"/>
<path d="M27.5898 11.8242C27.44 11.974 27.3594 12.2045 27.3594 12.5156C27.3594 12.8268 27.44 13.0572 27.5898 13.207C27.8088 13.426 27.9701 13.4375 33.3516 13.4375C38.733 13.4375 38.8943 13.426 39.1133 13.207C39.2631 13.0572 39.3438 12.8268 39.3438 12.5156C39.3438 12.2045 39.2631 11.974 39.1133 11.8242C38.8943 11.6053 38.733 11.5938 33.3516 11.5938C27.9701 11.5938 27.8088 11.6053 27.5898 11.8242Z" fill="black"/>
<path d="M19.1547 23.7971C17.4838 24.3387 16.0549 25.8021 15.5594 27.4846C15.4326 27.9109 15.375 28.5793 15.375 29.5357V30.9531H15.0063C14.4877 30.9646 13.7732 31.3103 13.3354 31.7713C12.6094 32.5318 12.6094 32.5664 12.6094 37.4293C12.6094 42.3498 12.6209 42.3613 13.4275 43.1334C14.2111 43.8709 14.0383 43.8594 20.9062 43.8594C27.7742 43.8594 27.6014 43.8709 28.385 43.1334C29.1916 42.3613 29.2031 42.3498 29.2031 37.4062C29.2031 33.3269 29.1801 32.9351 28.9842 32.5088C28.5809 31.656 27.6014 30.9531 26.7832 30.9531H26.4375V29.5357C26.4375 28.5793 26.3799 27.9109 26.2531 27.4846C25.7576 25.7791 24.3172 24.3271 22.6232 23.7971C21.6898 23.509 20.065 23.509 19.1547 23.7971ZM22.6117 25.9404C24.0061 26.701 24.5938 27.957 24.5938 30.1695V30.9531H20.8947H17.1842L17.2533 29.7086C17.2879 29.0287 17.3801 28.2797 17.4492 28.0492C17.7373 27.0582 18.809 25.9635 19.8 25.6523C19.9959 25.5947 20.5721 25.5601 21.0791 25.5717C21.8396 25.6062 22.1047 25.6639 22.6117 25.9404ZM26.7141 32.9582C27.3248 33.2117 27.3594 33.4652 27.3594 37.4293C27.3594 41.4164 27.3248 41.6584 26.668 41.8889C26.1379 42.0732 15.6746 42.0732 15.1445 41.8889C14.4877 41.6584 14.4531 41.4164 14.4531 37.4293C14.4531 33.4998 14.4877 33.2117 15.0754 32.9582C15.6055 32.7277 26.1609 32.7277 26.7141 32.9582Z" fill="black"/>
<path d="M21.5843 36.2193L19.9941 37.798L19.3027 37.1412C18.7265 36.5881 18.5537 36.4844 18.1965 36.4844C17.6318 36.4844 17.3783 36.6342 17.2285 37.0721C17.0441 37.6137 17.2746 38.017 18.45 39.1578C19.4295 40.1143 19.5217 40.1719 19.9826 40.1719C20.4666 40.1719 20.5127 40.1258 22.4371 38.2359C23.5088 37.1758 24.4652 36.1502 24.5459 35.9428C24.6611 35.6662 24.6726 35.4934 24.5804 35.2283C24.4306 34.7904 24.1771 34.6406 23.601 34.6406C23.1976 34.6406 23.0478 34.7559 21.5843 36.2193Z" fill="black"/>
</svg>
