<svg width="53" height="53" viewBox="0 0 53 53" fill="none" xmlns="http://www.w3.org/2000/svg">
<path d="M42.8121 0.233011C42.6745 0.370708 42.3355 1.10156 42.0495 1.86419L41.5305 3.25176L40.0582 3.3259C39.2426 3.36827 38.4694 3.44241 38.3317 3.49538C37.7597 3.71781 37.5161 4.74524 37.9292 5.21129C38.0457 5.32781 38.6071 5.81504 39.2002 6.29169L40.2595 7.14965L39.9099 8.4207C39.7193 9.11977 39.5604 9.893 39.5604 10.1366C39.5604 10.7615 39.8887 11.1217 40.5137 11.1958C40.9691 11.2488 41.0539 11.2064 42.272 10.4014L43.5536 9.55405L44.8564 10.3908C45.7144 10.9416 46.2652 11.2276 46.4664 11.2276C47.1019 11.2276 47.5998 10.7615 47.6104 10.1684C47.6104 9.96714 47.4515 9.20451 47.2502 8.47366C47.049 7.7428 46.9113 7.11787 46.9537 7.08609C46.996 7.05432 47.515 6.63063 48.1082 6.15399C48.7119 5.67735 49.2415 5.2007 49.3051 5.08419C49.4428 4.82998 49.4428 4.17327 49.3051 3.90847C49.0933 3.52715 48.6696 3.41064 47.1231 3.33649L45.6191 3.26235L45.1106 1.88538C44.4963 0.243604 44.295 -1.43051e-05 43.5642 -1.43051e-05C43.1723 -1.43051e-05 42.9922 0.0529461 42.8121 0.233011ZM43.9349 3.91906C44.2739 4.82998 44.5069 4.98886 45.6085 5.0736L46.477 5.13715L45.8415 5.63498C44.9518 6.33405 44.867 6.59886 45.1424 7.64747C45.2589 8.10293 45.3437 8.47366 45.3225 8.47366C45.3013 8.47366 44.9835 8.283 44.6234 8.04997C43.7443 7.48859 43.4053 7.48859 42.5262 8.06057C42.166 8.29359 41.8483 8.47366 41.8271 8.45247C41.8165 8.43129 41.8906 8.07116 41.9966 7.65807C42.2825 6.57767 42.1978 6.34465 41.2551 5.59261L40.6831 5.13715L41.5411 5.0736C42.685 4.98886 42.8651 4.86175 43.2252 3.8661C43.3947 3.43182 43.5642 3.11406 43.6066 3.15643C43.6383 3.1988 43.7866 3.53774 43.9349 3.91906Z" fill="#151515"/>
<path d="M33.5225 8.70671C32.3891 8.78085 31.8066 8.855 31.6371 8.96092C31.1181 9.29987 31.0757 9.94598 31.5418 10.3909C31.7536 10.6027 31.8489 10.6133 32.8128 10.5497L33.8508 10.4968L32.7069 11.4712C26.7541 16.5343 20.1976 20.8241 12.815 24.4677C9.17128 26.2684 6.17372 27.55 2.27583 28.9906C1.25899 29.3613 0.326884 29.7638 0.220963 29.8697C-0.107392 30.1875 -0.0650234 30.7912 0.316292 31.109C0.739975 31.4797 0.951817 31.4267 3.70576 30.3993C14.838 26.226 24.8476 20.4533 33.3636 13.3143C34.2957 12.5305 35.0689 11.8949 35.0689 11.9055C35.0795 11.9055 35.0372 12.3186 34.9736 12.8164C34.9101 13.3143 34.8995 13.8545 34.9312 14.0133C35.0901 14.6065 36.107 14.7654 36.4459 14.2358C36.6048 13.9922 37.2191 10.2532 37.2297 9.50111C37.2297 9.21513 37.1556 9.02447 36.9649 8.8444C36.6683 8.53724 36.4671 8.53724 33.5225 8.70671Z" fill="#151515"/>
<path d="M40.4282 13.7379C40.354 13.7697 40.2269 13.9286 40.1422 14.0875C40.0045 14.3523 39.9833 15.4327 39.9833 21.4384V28.4715L39.0406 28.5139C37.9284 28.5563 37.7589 28.6622 37.473 29.4884C37.2823 30.0286 37.2823 29.9756 37.2293 24.5524C37.1764 19.4788 37.1658 19.0552 36.9857 18.8857C36.8163 18.7162 36.5091 18.695 33.7763 18.6632L30.7576 18.6315L30.4504 18.9492L30.1326 19.2564L30.1221 28.1961C30.1115 33.1109 30.0797 37.2418 30.0373 37.3901C29.9844 37.5913 29.7937 37.7184 29.1476 37.9726C27.9083 38.4599 27.9613 38.3433 27.9613 40.5677C27.9613 42.792 27.9189 42.6861 29.1582 43.1733C30.0903 43.5229 30.1326 43.597 30.1326 44.9316C30.1326 45.6201 30.175 45.9697 30.3021 46.1709C30.461 46.4357 30.461 46.4887 30.3021 46.7958C29.9526 47.4631 30.0267 47.6008 31.4884 49.0625C32.4947 50.0794 32.9078 50.4183 33.0984 50.4183C33.2467 50.4183 33.7234 50.2489 34.1576 50.0582L34.9415 49.7087L35.4605 49.9629C35.7359 50.1112 36.2125 50.3018 36.5197 50.4077C37.0599 50.5984 37.0705 50.5984 37.3988 51.4246C37.5789 51.88 37.8225 52.3143 37.9284 52.3991C38.2038 52.6003 41.7628 52.6003 42.0382 52.3991C42.1441 52.3143 42.3877 51.88 42.5678 51.4352L42.8961 50.609L43.5316 50.3654C43.8812 50.2383 44.379 50.0476 44.6438 49.9417L45.131 49.751L45.8831 50.09C46.2962 50.27 46.7516 50.4183 46.8787 50.4183C47.2495 50.4183 49.8339 47.8021 49.8339 47.4314C49.8339 47.2831 49.6856 46.8276 49.5056 46.4145L49.1772 45.6625L49.5479 44.7304C49.7492 44.222 49.9398 43.7241 49.9716 43.6394C50.0034 43.5441 50.3741 43.3322 50.7978 43.1733C52.0477 42.6861 52.0053 42.792 52.0053 40.5783C52.0053 38.3433 52.0265 38.4069 50.8296 37.962C50.2682 37.7608 50.0352 37.6231 49.9822 37.4536C49.9504 37.3371 49.7492 36.8393 49.5479 36.352L49.1772 35.4729L49.5162 34.6467C49.7386 34.1171 49.8445 33.7252 49.8022 33.5663C49.7598 33.418 49.1349 32.7189 48.404 31.9987L47.08 30.6853V22.4023V14.1192L46.8364 13.8968C46.5928 13.6638 46.5292 13.6638 43.574 13.6744C41.9216 13.6744 40.5023 13.7062 40.4282 13.7379ZM45.2793 23.4191V31.3738L45.0463 31.3208C44.9086 31.289 44.3578 31.0772 43.8282 30.8653L42.8537 30.4628L42.5678 29.679C42.4089 29.2447 42.1758 28.8211 42.0276 28.7151L41.7839 28.5139V21.9892V15.4644H43.5316H45.2793V23.4191ZM35.4287 25.7917V31.1407L35.1639 31.2678C34.9415 31.3632 34.7826 31.3314 34.147 31.056C33.734 30.8653 33.2785 30.717 33.1302 30.717C32.9819 30.717 32.6853 30.8971 32.4099 31.1513L31.9333 31.5962V26.0142V20.4427H33.681H35.4287V25.7917ZM41.1484 31.0454C41.4874 31.9457 41.5721 32.0411 42.1864 32.1999C42.4618 32.2741 43.2033 32.5707 43.8388 32.8672L44.9933 33.3968L45.7878 33.0579L46.5928 32.7189L47.2071 33.3333L47.8214 33.9476L47.4825 34.7738L47.1435 35.5894L47.5884 36.5215C47.8426 37.0299 48.1498 37.7714 48.2769 38.1845C48.4993 38.8941 48.5311 38.9365 49.0395 39.1907C49.3361 39.339 49.728 39.5085 49.9187 39.5826L50.2682 39.7097L50.2364 40.5783L50.2047 41.4468L49.5162 41.701C49.1349 41.8493 48.7429 42.0294 48.6476 42.1247C48.5523 42.2095 48.3722 42.6226 48.2451 43.0356C48.118 43.4593 47.8214 44.1584 47.599 44.6033C47.3766 45.0375 47.1859 45.4612 47.1859 45.5354C47.1859 45.6095 47.3342 46.0014 47.5037 46.4251L47.832 47.1772L47.2071 47.7915L46.5928 48.4164L45.8831 48.0881C45.5018 47.9186 45.0993 47.7703 44.9933 47.7703C44.898 47.7703 44.4531 47.961 44.0189 48.1834C43.574 48.4058 42.8749 48.7024 42.4512 48.8295C42.0276 48.9566 41.6251 49.1367 41.5509 49.2214C41.4768 49.3168 41.2861 49.7087 41.1378 50.09L40.8518 50.7891H39.9833H39.1041L38.8499 50.1006C38.5216 49.2214 38.3945 49.0837 37.6636 48.8825C37.3353 48.7871 36.6256 48.5012 36.096 48.2364C35.5558 47.9821 35.0474 47.7703 34.9626 47.7703C34.8779 47.7703 34.486 47.9186 34.0941 48.0881L33.3738 48.4164L32.7595 47.7915L32.1345 47.1772L32.4629 46.4251C32.6324 46.0014 32.7807 45.6095 32.7807 45.5354C32.7807 45.4612 32.59 45.0375 32.3676 44.6033C32.1451 44.1584 31.8486 43.4593 31.7215 43.0356C31.5944 42.6226 31.4143 42.2095 31.319 42.1247C31.2236 42.0294 30.8317 41.8493 30.4504 41.701L29.7619 41.4468L29.7301 40.5783L29.6984 39.7097L30.0479 39.5826C30.2386 39.5085 30.6305 39.339 30.9271 39.1907C31.4355 38.9365 31.4672 38.8941 31.6897 38.1845C31.8168 37.7714 32.124 37.0299 32.3782 36.5215L32.823 35.5894L32.4841 34.7738L32.1451 33.9476L32.7595 33.3333L33.3738 32.7189L34.1788 33.0579L34.9838 33.3968L36.0218 32.9096C36.6044 32.6448 37.3353 32.3482 37.653 32.2529C38.3627 32.0305 38.5216 31.9034 38.7016 31.3843C38.7864 31.1619 38.9135 30.823 38.9982 30.6323L39.1465 30.2828L40.0045 30.3145L40.873 30.3463L41.1484 31.0454Z" fill="#151515"/>
<path d="M38.5222 34.5726C36.8063 34.9963 35.2493 36.2461 34.4866 37.8243C33.1203 40.663 33.9888 43.9254 36.5521 45.6519C37.6643 46.3933 38.5752 46.6581 39.9839 46.6581C41.3927 46.6581 42.3036 46.3933 43.4158 45.6519C46.6146 43.5017 47.0594 38.9471 44.3267 36.2249C43.5429 35.4305 42.3036 34.7526 41.2762 34.5408C40.5453 34.3925 39.2319 34.4031 38.5222 34.5726ZM41.6045 36.5321C42.3036 36.8075 43.3204 37.6866 43.7229 38.3751C45.0046 40.5571 44.136 43.311 41.7952 44.4656C41.0431 44.8363 40.9478 44.8575 39.9839 44.8575C39.02 44.8575 38.9247 44.8363 38.1727 44.4656C37.1982 43.9889 36.4991 43.2687 36.0543 42.326C34.9633 40.0063 36.2026 37.2524 38.7129 36.4156C39.4861 36.1614 40.7571 36.2143 41.6045 36.5321Z" fill="#151515"/>
<path d="M20.5037 24.0016C20.2812 24.2876 20.2812 24.3194 20.2812 35.0704C20.2812 42.7496 20.313 45.9273 20.3978 46.1073C20.6096 46.5734 20.8638 46.6052 23.8402 46.6052C26.7742 46.6052 27.1449 46.5522 27.3144 46.1285C27.3462 46.0332 27.3779 41.0549 27.3779 35.0704V24.1817L27.1343 23.9593C26.8907 23.7263 26.8272 23.7263 23.8084 23.7263H20.7155L20.5037 24.0016ZM25.5773 35.1127V44.8045H23.8296H22.0819V35.1127V25.421H23.8296H25.5773V35.1127Z" fill="#151515"/>
<path d="M10.9063 29.3612C10.4191 29.626 10.4297 29.3612 10.4297 37.8773C10.4297 42.3154 10.4615 46.0332 10.4933 46.1285C10.6627 46.5522 11.0335 46.6052 13.9675 46.6052C16.9438 46.6052 17.1981 46.5734 17.4099 46.1073C17.5794 45.7472 17.5794 30.0921 17.4099 29.732C17.3463 29.5837 17.1769 29.4142 17.0286 29.3507C16.679 29.1918 11.2029 29.1918 10.9063 29.3612ZM15.7258 37.9197V44.8045H13.9781H12.2304V37.9197V31.0348H13.9781H15.7258V37.9197Z" fill="#151515"/>
<path d="M0.815057 34.8797L0.582031 35.1233V40.5888C0.582031 45.8107 0.592623 46.0649 0.783281 46.298L0.984531 46.5522L4.01387 46.5839L7.0538 46.6157L7.36097 46.298L7.67873 45.9908V40.5676V35.1551L7.41393 34.9009L7.15972 34.6361H4.0986H1.03749L0.815057 34.8797ZM5.87808 40.6206V44.8045H4.13038H2.38269V40.6206V36.4367H4.13038H5.87808V40.6206Z" fill="#151515"/>
</svg>
