<svg width="53" height="53" viewBox="0 0 53 53" fill="none" xmlns="http://www.w3.org/2000/svg">
<path d="M24.3414 0.193165C22.165 0.77833 20.4403 2.16425 19.465 4.12506C18.6848 5.67523 18.6335 5.99348 18.6335 9.12463V11.8451L18.9004 12.42C19.0544 12.7485 19.3726 13.2002 19.6087 13.4364C20.0091 13.8367 20.9125 14.35 21.2513 14.3603C21.3334 14.3706 21.5285 14.6375 21.6825 14.966C21.8467 15.2945 22.1547 15.777 22.3806 16.0337C22.6886 16.3725 22.7912 16.588 22.7912 16.8447V17.1835L21.0152 17.8405C20.0502 18.1998 18.962 18.631 18.6129 18.785C17.3297 19.3496 16.3441 20.6329 16.1183 22.0085C16.067 22.3473 16.0156 23.6511 16.0156 24.9035V27.1929H26.2817H36.5477V24.9035C36.5477 23.6511 36.5067 22.3576 36.4451 22.029C36.2397 20.7253 35.3569 19.5036 34.2071 18.9082C33.8888 18.7336 32.7596 18.2819 31.7021 17.8918L29.7721 17.1835V16.8447C29.7721 16.588 29.8748 16.3725 30.193 16.0234C30.4189 15.7668 30.7269 15.2843 30.8809 14.9557C31.0349 14.6272 31.2299 14.3603 31.312 14.3603C31.6406 14.3603 32.544 13.847 32.9546 13.4364C33.1907 13.2002 33.509 12.7485 33.663 12.42L33.9299 11.8451V9.12463C33.9299 6.59918 33.9093 6.34253 33.6938 5.60337C32.9649 3.06766 31.1272 1.12737 28.6942 0.326624C27.5547 -0.0429535 25.4707 -0.114817 24.3414 0.193165ZM28.1398 2.06159C29.1254 2.4209 29.7413 2.81101 30.4394 3.51937C31.4558 4.55624 32.1333 6.10641 32.1333 7.42046V8.00563L31.8151 7.8311C31.6303 7.73871 31.0349 7.62578 30.4497 7.57445C28.8071 7.43073 27.9242 7.05088 26.8258 6.01402L26.2817 5.50071L25.7376 6.01402C24.6288 7.06115 23.7768 7.43073 22.1137 7.57445C21.5285 7.62578 20.9331 7.73871 20.7483 7.8311L20.43 8.00563V7.42046C20.43 5.54178 21.7646 3.38591 23.479 2.47223C24.9471 1.69201 26.7026 1.53802 28.1398 2.06159ZM26.5691 8.19042C27.2672 8.67292 28.1809 9.03223 29.4026 9.27862L29.7003 9.34021L29.6489 11.3626C29.6079 13.2721 29.5873 13.4158 29.341 13.9599C29.0022 14.7094 28.4889 15.274 27.801 15.6538C27.3083 15.9208 27.1646 15.9515 26.2817 15.9515C25.3988 15.9515 25.2551 15.9208 24.7623 15.6538C24.0745 15.274 23.5612 14.7094 23.2224 13.9599C22.976 13.4158 22.9555 13.2721 22.9144 11.3626L22.8631 9.34021L23.1608 9.27862C24.3619 9.03223 25.4399 8.61132 26.025 8.15962C26.2817 7.96456 26.2509 7.96456 26.5691 8.19042ZM21.1486 11.0444V12.3379L20.9331 12.1428C20.5635 11.8041 20.3992 11.3832 20.4506 10.8699C20.5019 10.3976 20.8509 9.74059 21.0563 9.74059C21.1076 9.74059 21.1486 10.3052 21.1486 11.0444ZM31.8356 10.0588C32.2873 10.6953 32.1949 11.6295 31.6303 12.1428L31.4147 12.3379V11.0444C31.4147 10.3052 31.4558 9.74059 31.5071 9.74059C31.5584 9.74059 31.7124 9.88431 31.8356 10.0588ZM26.2817 17.7789C26.8771 17.7789 27.4828 17.7276 27.6368 17.666C27.8832 17.5633 27.8318 17.6865 27.1235 18.8774C26.6923 19.6063 26.3125 20.2017 26.2817 20.2017C26.2509 20.2017 25.871 19.6063 25.4399 18.8774C24.7315 17.6865 24.6802 17.5633 24.9266 17.666C25.0805 17.7276 25.6862 17.7789 26.2817 17.7789ZM24.1463 20.2325C24.557 20.9306 24.906 21.5465 24.9266 21.5979C24.9368 21.6595 24.6083 21.8751 24.1874 22.0804L23.4174 22.4602L22.9349 21.0024C22.668 20.2017 22.4319 19.4933 22.4114 19.4215C22.36 19.2983 22.9041 19.0006 23.2224 18.9903C23.3251 18.98 23.6433 19.4112 24.1463 20.2325ZM29.8235 19.1443C30.0288 19.2264 30.1828 19.3496 30.152 19.4215C30.1314 19.4933 29.8953 20.2017 29.6284 21.0024L29.1459 22.4705L28.4067 22.1009C27.9961 21.8956 27.6471 21.7108 27.6265 21.6903C27.5444 21.6184 29.187 18.98 29.3102 18.98C29.382 18.98 29.6079 19.0519 29.8235 19.1443ZM21.508 22.4705C21.9494 23.7948 22.3292 24.9035 22.3498 24.9343C22.3703 24.9549 23.2635 24.5442 24.3311 24.0104L26.2817 23.0351L28.2322 24.0104C29.2999 24.5442 30.193 24.9549 30.2136 24.9343C30.2341 24.9035 30.6139 23.7948 31.0554 22.4705C31.4968 21.1462 31.8664 20.0272 31.8869 19.9861C31.9896 19.8116 33.6116 20.5815 34.0017 21.0024C34.5869 21.6081 34.6998 22.0598 34.6998 23.7743V25.345H26.2817H17.8635V23.7743C17.8635 22.3473 17.884 22.1728 18.1099 21.6903C18.2434 21.4028 18.5308 21.0127 18.7567 20.8279C19.1673 20.4789 20.5327 19.8834 20.6456 19.9964C20.6867 20.0272 21.0665 21.1462 21.508 22.4705Z" fill="#151515"/>
<path d="M12.6999 8.38542C12.3816 8.71393 12.1147 9.02192 12.1147 9.07325C12.1147 9.12458 12.5151 9.57628 13.0079 10.0691L13.9113 10.9725H11.7554C9.7022 10.9725 9.579 10.9827 9.08623 11.2188C8.47027 11.5063 8.09043 11.8964 7.81324 12.5124C7.60792 12.9641 7.59766 13.1489 7.59766 20.8997V28.8354H8.47027H9.34288L9.36342 21.0332L9.39421 13.2413L9.63033 13.0051C9.85619 12.7793 9.93832 12.769 11.8889 12.7382L13.9113 12.7074L13.0181 13.6108C12.5151 14.1139 12.1147 14.5656 12.1147 14.6272C12.1147 14.6785 12.3919 14.9968 12.7307 15.3355L13.3466 15.9515L15.3793 13.9188L17.4017 11.8964L15.3485 9.8432L13.2953 7.78999L12.6999 8.38542Z" fill="#151515"/>
<path d="M35.5195 11.8349V12.7075L37.8397 12.7383L40.1598 12.7691L40.4062 13.0565L40.6526 13.344V18.7029V24.0617L39.7491 23.1583C39.2564 22.6655 38.8047 22.2652 38.7431 22.2652C38.6917 22.2652 38.3838 22.5321 38.0552 22.8606L37.4701 23.4458L39.5233 25.499L41.5765 27.5522L43.5989 25.5195L45.6316 23.4971L44.9848 22.8606L44.3483 22.2138L43.3731 23.1891L42.3978 24.1644V18.5181C42.3978 13.2618 42.3773 12.8409 42.2027 12.4611C41.9666 11.9375 41.1967 11.2497 40.6731 11.0957C40.4164 11.0136 39.4206 10.9725 37.891 10.9725H35.5195V11.8349Z" fill="#151515"/>
<path d="M37.4414 28.8046C37.4209 28.8559 37.2669 29.4103 37.1129 30.0365C36.9589 30.673 36.7947 31.1966 36.7536 31.1966C36.7023 31.1966 36.1992 30.9194 35.6141 30.5704L34.5669 29.9442L32.2571 32.254L29.9472 34.5639L30.5837 35.6007C30.9225 36.1756 31.2099 36.6889 31.2099 36.73C31.2099 36.7813 30.6658 36.9559 30.0088 37.1201L28.7974 37.4178L28.7666 40.6722L28.7461 43.9162L29.1773 44.0292C29.4237 44.0908 29.783 44.1832 29.978 44.2345C30.9636 44.4809 31.2099 44.5527 31.2099 44.6246C31.2099 44.6759 30.9328 45.1892 30.5837 45.7641L29.9575 46.8318L32.2571 49.1314L34.5464 51.4207L35.5935 50.8048C36.1684 50.466 36.6817 50.1888 36.7433 50.1888C36.7947 50.1888 36.9692 50.7226 37.1232 51.3694L37.4106 52.55L40.6958 52.5295L43.9809 52.4987L44.2478 51.4207C44.4018 50.8253 44.5353 50.2812 44.5661 50.2196C44.5969 50.1272 44.9972 50.3223 45.7261 50.7637L46.8554 51.431L49.1447 49.1417L51.4443 46.8421L50.777 45.7128C50.3561 45.0147 50.1611 44.5733 50.2329 44.5527C50.3048 44.5219 50.8386 44.3885 51.4341 44.2345L52.512 43.9676L52.5428 40.6824L52.5633 37.3973L51.3827 37.1099C50.736 36.9559 50.2021 36.7813 50.2021 36.73C50.2021 36.6684 50.4793 36.1551 50.8181 35.5802L51.4341 34.5331L49.1345 32.2335L46.8451 29.9442L45.7775 30.5704C45.2026 30.9194 44.6893 31.1966 44.6379 31.1966C44.5661 31.1966 44.5045 30.9913 44.2581 29.9852C44.2068 29.7799 44.1041 29.4103 44.0425 29.1639L43.9296 28.7328H40.706C38.93 28.7328 37.462 28.7636 37.4414 28.8046ZM42.8003 31.6073L43.057 32.5825L43.8885 32.911C44.3402 33.0958 44.7509 33.2498 44.7817 33.2498C44.8227 33.2498 45.2334 33.024 45.7056 32.7365L46.5577 32.2232L47.8512 33.5167L49.155 34.8205L48.6109 35.7137L48.0668 36.6068L48.3748 37.3152C48.539 37.7053 48.7033 38.0954 48.7546 38.1775C48.7957 38.2596 49.2679 38.4444 49.8326 38.5882L50.8181 38.8448L50.7976 40.6824L50.7668 42.5303L49.7812 42.7767L48.7957 43.0334L48.5185 43.7109C48.0771 44.7683 48.0771 44.7581 48.6006 45.6204C48.8573 46.0516 49.0729 46.4314 49.0729 46.4725C49.0729 46.5649 46.5782 49.0595 46.4858 49.0595C46.4448 49.0595 46.0649 48.8439 45.6337 48.5873C44.7714 48.0637 44.7817 48.0637 43.714 48.5052L43.0262 48.7823L42.79 49.7679L42.5437 50.7534L40.6958 50.7842L38.8479 50.8048L38.6015 49.7987L38.3654 48.7823L37.6878 48.5052C36.6099 48.0637 36.6407 48.0535 35.6859 48.6284L34.8236 49.1417L33.5301 47.8379L32.2366 46.5443L32.7499 45.6923C33.0373 45.22 33.2632 44.8094 33.2632 44.7683C33.2632 44.7375 33.1194 44.3269 32.9346 43.8752L32.6061 43.0436L31.6309 42.787L30.6453 42.5303L30.6145 40.6824L30.594 38.8448L31.5795 38.5882L32.5753 38.3315L32.9244 37.5102C33.1092 37.0585 33.2632 36.6479 33.2632 36.6068C33.2632 36.5247 32.8114 35.7445 32.37 35.0464C32.2468 34.8513 32.3392 34.7281 33.5506 33.5373L34.8544 32.2335L35.6757 32.7365C36.1274 33.0137 36.5483 33.2498 36.5996 33.2498C36.6612 33.2498 37.0719 33.0958 37.5236 32.9008L38.3448 32.562L38.6015 31.5662L38.8582 30.5806L40.706 30.6012L42.5437 30.632L42.8003 31.6073Z" fill="#151515"/>
<path d="M39.1249 34.0197C37.2667 34.4406 35.4599 35.8574 34.6181 37.5718C34.0329 38.7524 33.8481 39.6866 33.9097 41.052C34.0021 42.8691 34.6386 44.2858 35.9424 45.5793C37.0819 46.6983 38.5808 47.3656 40.2439 47.4785C44.7301 47.7968 48.3027 43.6801 47.3788 39.2554C46.8963 36.9353 45.0381 34.8821 42.759 34.1737C41.8351 33.876 40.0693 33.8041 39.1249 34.0197ZM41.4758 35.7239C42.8617 35.9395 44.145 36.8121 44.9662 38.0851C45.5103 38.9372 45.7157 39.779 45.6643 40.9699C45.6335 41.8219 45.5822 42.0273 45.2434 42.7253C44.7199 43.8443 43.9396 44.6348 42.8309 45.1892C42.0404 45.5793 41.8864 45.6101 40.9933 45.6512C39.7921 45.7025 38.9503 45.5074 38.0982 44.9531C35.8295 43.485 35.0595 40.8775 36.199 38.506C36.9895 36.8634 38.7245 35.7239 40.6032 35.6212C40.7161 35.6212 41.1062 35.6623 41.4758 35.7239Z" fill="#151515"/>
<path d="M39.5436 37.4384C37.2953 38.2391 36.5254 41.1547 38.0961 42.941C39.0919 44.0805 40.7345 44.4296 42.1101 43.7931C42.9006 43.4338 43.3728 42.9821 43.7527 42.2018C44.0607 41.5859 44.0915 41.4319 44.0915 40.6414C44.0812 39.892 44.0401 39.6867 43.7835 39.1733C43.4344 38.4753 42.7774 37.8388 42.1101 37.5308C41.4223 37.2331 40.252 37.192 39.5436 37.4384ZM41.5249 39.2965C42.49 39.8406 42.5618 41.3498 41.6481 41.9965C41.2786 42.2634 40.4573 42.3558 40.0364 42.1813C39.3485 41.8939 38.9276 41.0212 39.1227 40.3026C39.4101 39.2349 40.5702 38.7524 41.5249 39.2965Z" fill="#151515"/>
<path d="M0 41.514V52.55H8.52082H17.0416V41.514V30.478H8.52082H0V41.514ZM15.1938 41.514V50.8048H8.46949H1.74523V41.514V32.2232H8.46949H15.1938V41.514Z" fill="#151515"/>
<path d="M3.38672 34.7384V35.611H8.51974H13.6528V34.7384V33.8658H8.51974H3.38672V34.7384Z" fill="#151515"/>
<path d="M3.38672 38.1262V38.9988H4.25933H5.13195V38.1262V37.2536H4.25933H3.38672V38.1262Z" fill="#151515"/>
<path d="M6.77734 38.1262V38.9988H10.2165H13.6556V38.1262V37.2536H10.2165H6.77734V38.1262Z" fill="#151515"/>
<path d="M3.38672 41.514V42.3866H8.51974H13.6528V41.514V40.6414H8.51974H3.38672V41.514Z" fill="#151515"/>
<path d="M3.38672 44.9018V45.7744H8.51974H13.6528V44.9018V44.0292H8.51974H3.38672V44.9018Z" fill="#151515"/>
<path d="M3.38672 48.2896V49.1622H6.82585H10.265V48.2896V47.4169H6.82585H3.38672V48.2896Z" fill="#151515"/>
<path d="M11.8047 48.2896V49.1622H12.7286H13.6526V48.2896V47.4169H12.7286H11.8047V48.2896Z" fill="#151515"/>
<path d="M19.4242 38.619C18.3463 39.7072 17.4531 40.6414 17.4531 40.6927C17.4531 40.7543 18.3565 41.6988 19.455 42.7973L21.4569 44.7991L22.0934 44.1524L22.7401 43.5159L21.7649 42.5406L20.7896 41.5653H24.0029H27.2059V40.6927V39.8201H24.0029H20.7896L21.7649 38.8448L22.7299 37.8696L22.1242 37.2536C21.7854 36.9148 21.4877 36.6376 21.4569 36.6376C21.4261 36.6376 20.5124 37.5308 19.4242 38.619Z" fill="#151515"/>
</svg>
