<svg width="53" height="53" viewBox="0 0 53 53" fill="none" xmlns="http://www.w3.org/2000/svg">
<path d="M1.35507 0.266899C1.05737 0.410618 0.698069 0.677528 0.564614 0.862312C0 1.61171 0 1.57064 0 6.57005C0 11.0562 0.0102657 11.1999 0.205314 11.3949C0.451691 11.6413 0.995774 11.6721 1.29348 11.4565C1.47826 11.3128 1.48853 11.1178 1.53986 6.80616C1.60145 1.75543 1.58092 1.85809 2.33032 1.65277C2.8744 1.49879 39.0097 1.49879 39.5538 1.65277C40.3545 1.86835 40.2929 0.841778 40.3237 14.372L40.3443 26.4342L39.8823 26.7216C38.866 27.3684 38.0037 28.6208 37.747 29.8322C37.6444 30.3352 37.6546 30.407 37.8394 30.6637C38.0037 30.8793 38.1577 30.9614 38.4759 30.9819C38.9687 31.023 39.2664 30.7663 39.369 30.2017C39.5333 29.3189 40.2621 28.3744 41.1142 27.933C42.7259 27.1117 44.7072 27.7687 45.5592 29.4113C46.0315 30.3249 45.9904 31.0332 45.2923 34.1848L44.6969 36.9052L42.6232 36.936L40.5496 36.9566L40.4982 36.7205C40.4572 36.587 40.2827 35.8068 40.0979 34.9753C39.8926 34.0616 39.6873 33.3841 39.5743 33.2609C39.2972 32.9529 38.7017 32.9837 38.3938 33.3122C38.1166 33.6099 38.1166 33.6407 38.6094 35.9403L38.8455 37.0284L38.4656 37.3672C37.9729 37.7984 37.8805 38.1679 37.8805 39.7488V41.0423L36.1045 41.0834C34.3286 41.1142 34.3183 41.1142 33.8255 41.4221C33.5484 41.5967 33.1788 41.9354 33.0043 42.1818L32.6963 42.6232L32.6655 44.3273C32.6347 45.703 32.6655 46.1033 32.799 46.4626C33.0967 47.2531 34.0719 47.9409 34.8829 47.9409C35.0266 47.9409 35.1087 48.0025 35.1087 48.1154C35.1087 48.331 35.6528 50.4765 35.7658 50.7332C35.8479 50.9077 35.0061 50.9179 19.0121 50.9179H2.1866L1.92995 50.6613C1.78623 50.5176 1.64251 50.2609 1.60145 50.0864C1.57065 49.9016 1.53986 41.7096 1.53986 31.8648C1.53986 14.0948 1.53986 13.9614 1.33454 13.7561C1.05737 13.4789 0.482489 13.4789 0.205314 13.7561C0 13.9614 0 14.0538 0.0205314 32.4191L0.0513286 50.8871L0.3593 51.3902C0.554349 51.6981 0.86232 52.0061 1.17029 52.2011L1.67331 52.5091L24.3708 52.5399C49.3576 52.5604 47.52 52.6118 48.4336 51.9445C49.1522 51.4312 49.4705 50.8358 49.84 49.3473L50.1686 47.9922L50.5894 47.9203C51.1643 47.828 51.5339 47.6124 51.9753 47.1299C52.5091 46.5345 52.581 46.1854 52.5399 44.276C52.5091 42.6232 52.5091 42.6232 52.2012 42.1818C52.0266 41.9354 51.6571 41.5967 51.3799 41.4221C50.8871 41.1142 50.8769 41.1142 49.1009 41.0834L47.3249 41.0423V39.7488C47.3249 38.1884 47.2326 37.7881 46.7603 37.3775C46.5653 37.2029 46.401 37.0079 46.401 36.9463C46.401 36.8744 46.6577 35.6528 46.9656 34.2361C47.3865 32.2959 47.5303 31.4336 47.5303 30.8177C47.5303 29.3599 47.017 28.2102 45.9185 27.2041C44.9946 26.3623 44.0194 25.9722 42.767 25.9415L41.997 25.9312L41.9662 13.91L41.9354 1.89915L41.6275 1.3448C41.299 0.759655 40.9191 0.410618 40.3135 0.153976C39.985 0.0205231 37.7676 -7.62939e-06 20.9113 -7.62939e-06H1.88889L1.35507 0.266899ZM45.6619 39.8002L45.6927 41.0628H42.6027H39.523V39.8515C39.523 39.1842 39.5538 38.5991 39.5949 38.5683C39.6359 38.5272 41.0013 38.5067 42.6438 38.517L45.6311 38.5477L45.6619 39.8002ZM50.456 42.808C50.8974 42.9723 51.0514 43.5061 51.0001 44.7277C50.9693 45.6619 50.9385 45.8056 50.7229 46.0315L50.4765 46.2984H42.654C34.8932 46.2984 34.8213 46.2984 34.5544 46.0828C34.2875 45.8775 34.2875 45.8569 34.2875 44.5943C34.2875 43.2494 34.3593 42.962 34.7289 42.808C35.0472 42.6848 50.1172 42.6746 50.456 42.808ZM48.4542 47.9819C48.4542 48.0127 48.3618 48.4439 48.2386 48.9572C48.0025 50.0043 47.7458 50.456 47.2223 50.7229C46.8938 50.9077 46.555 50.9179 42.6232 50.9179C38.6094 50.9179 38.363 50.9077 37.9934 50.7126C37.4699 50.4457 37.2235 50.0248 36.9668 48.9367C36.8437 48.4336 36.7513 48.0127 36.7513 47.9819C36.7513 47.9614 39.3895 47.9409 42.6027 47.9409C45.8262 47.9409 48.4542 47.9614 48.4542 47.9819Z" fill="#151515"/>
<path d="M30.1817 5.01991C28.0875 5.68718 26.6914 7.59661 26.6914 9.80374C26.6914 11.7748 27.7282 13.4481 29.4631 14.3001C31.506 15.3062 33.8774 14.8647 35.4173 13.1812C37.9324 10.4299 36.6697 6.05675 33.0664 4.98911C32.317 4.77353 30.9106 4.7838 30.1817 5.01991ZM32.8919 6.67269C33.9801 7.08332 34.8937 8.25361 35.058 9.4547C35.1401 10.0398 34.904 11.0254 34.5549 11.5694C33.3847 13.3967 30.9003 13.715 29.381 12.2367C28.6214 11.4873 28.3852 10.9227 28.3852 9.80374C28.3852 9.00301 28.4263 8.80796 28.6624 8.36654C29.1038 7.51448 29.9148 6.82668 30.7977 6.55977C31.311 6.40578 32.317 6.46738 32.8919 6.67269Z" fill="#151515"/>
<path d="M5.68716 5.64612C5.39972 5.75904 5.13281 6.13887 5.13281 6.42631C5.13281 6.5495 5.2252 6.76508 5.34839 6.91907L5.55371 7.18597H11.0869H16.6201L16.8255 6.91907C17.1129 6.55977 17.0924 6.23126 16.7947 5.88223L16.5483 5.59479L11.2204 5.57426C8.29465 5.56399 5.80008 5.59479 5.68716 5.64612Z" fill="#151515"/>
<path d="M20.8926 5.64612C20.5539 5.77957 20.4102 6.02595 20.4102 6.43658C20.4102 7.09358 20.636 7.18597 22.2375 7.18597C23.5104 7.18597 23.6233 7.17571 23.8184 6.96013C24.2085 6.52897 24.0442 5.85143 23.5001 5.65638C23.1203 5.52293 21.2006 5.51266 20.8926 5.64612Z" fill="#151515"/>
<path d="M5.40847 9.21862C5.1005 9.55739 5.07997 9.98855 5.36741 10.3273L5.62405 10.625L14.2883 10.6558C19.0413 10.6661 23.0963 10.6558 23.2811 10.625C23.4659 10.5942 23.7122 10.471 23.8252 10.3581C24.0818 10.1015 24.0818 9.54712 23.8149 9.25968L23.5993 9.03384H14.586C6.01415 9.03384 5.56246 9.0441 5.40847 9.21862Z" fill="#151515"/>
<path d="M5.47278 12.5755C5.00055 12.904 5.10321 13.7355 5.64729 13.9614C5.83208 14.0332 6.46855 14.064 7.49512 14.0435C8.99392 14.0127 9.06578 14.0024 9.25056 13.7663C9.51747 13.4378 9.49694 12.9759 9.18897 12.6782C8.94259 12.4318 8.90153 12.4215 7.32061 12.4215C6.04766 12.4215 5.64729 12.4523 5.47278 12.5755Z" fill="#151515"/>
<path d="M13.0374 12.6268C12.7192 12.945 12.7602 13.5815 13.099 13.8484C13.3351 14.0332 13.5199 14.064 14.3822 14.064C14.9365 14.064 15.5012 14.0126 15.6449 13.951C16.1582 13.7149 16.23 12.8937 15.7783 12.5754C15.6141 12.4625 15.2548 12.4215 14.4027 12.4215C13.3762 12.4215 13.2222 12.442 13.0374 12.6268Z" fill="#151515"/>
<path d="M6.95863 17.9033C5.47011 18.4372 4.72071 20.3876 5.45984 21.8146C5.77808 22.4203 6.13738 22.7796 6.77385 23.1081L7.23581 23.3544H20.9405C33.7727 23.3544 34.6658 23.3442 35.0251 23.1799C36.5034 22.4818 37.1296 20.7367 36.411 19.2789C36.2467 18.9402 35.949 18.5603 35.7232 18.3756C34.8916 17.7186 35.9285 17.7596 20.9713 17.7596C9.98702 17.7699 7.26661 17.7904 6.95863 17.9033ZM34.4502 19.5253C34.6247 19.6177 34.8506 19.8744 34.9532 20.0899C35.1175 20.4287 35.1175 20.5108 34.9943 20.8804C34.9122 21.096 34.7171 21.3834 34.5631 21.4963L34.2757 21.7119L21.0637 21.7427C8.64221 21.7632 7.83122 21.753 7.49245 21.5887C6.81491 21.25 6.61987 20.4184 7.06129 19.8333C7.48219 19.2892 7.02023 19.3097 21.0945 19.3303C33.167 19.3508 34.1525 19.3611 34.4502 19.5253Z" fill="#151515"/>
<path d="M7.11396 24.9354C6.39536 25.1818 5.90261 25.5821 5.54331 26.2083C4.73232 27.625 5.26613 29.3804 6.72386 30.1298L7.32954 30.4378H20.9419H34.5542L35.1599 30.1298C37.4491 28.9595 37.1309 25.6232 34.6671 24.8943C34.2154 24.7609 32.3471 24.7403 20.9008 24.7403C8.4485 24.7506 7.61698 24.7609 7.11396 24.9354ZM34.39 26.5676C34.6158 26.6703 34.8211 26.8961 34.9443 27.1322C35.201 27.6558 35.047 28.2204 34.5645 28.5592L34.236 28.7953L21.3012 28.8261C14.187 28.8466 8.17133 28.8261 7.93522 28.7953C7.0729 28.6721 6.59041 27.8508 6.94971 27.122C7.33981 26.3213 6.26191 26.3828 20.9419 26.3828C33.1991 26.3828 34.0512 26.3931 34.39 26.5676Z" fill="#151515"/>
<path d="M7.07152 31.9879C6.46584 32.1727 5.72671 32.8194 5.429 33.4354C5.12103 34.0924 5.1005 35.1703 5.40847 35.8375C5.65485 36.3816 6.2092 36.9565 6.75328 37.2337C7.11258 37.4082 7.76958 37.4185 20.9405 37.4185C34.1114 37.4185 34.7684 37.4082 35.1277 37.2337C36.1235 36.7307 36.6984 35.7862 36.6881 34.6467C36.6778 33.384 35.9079 32.3164 34.7684 31.9776C34.0088 31.7518 7.80038 31.762 7.07152 31.9879ZM34.4707 33.6715C34.8711 33.9178 35.1482 34.4927 35.0559 34.9136C35.0148 35.0676 34.83 35.3448 34.635 35.5193L34.2757 35.8273H20.9405H7.60533L7.24603 35.5193C7.05098 35.3448 6.8662 35.0676 6.82514 34.9136C6.73275 34.4927 7.00992 33.9178 7.41028 33.6715C7.74905 33.4662 7.89277 33.4662 20.9405 33.4662C33.9882 33.4662 34.1319 33.4662 34.4707 33.6715Z" fill="#151515"/>
<path d="M7.18441 38.9994C6.43501 39.2355 5.67535 39.9131 5.35711 40.6419C5.1518 41.1244 5.1518 42.3358 5.35711 42.8183C5.58296 43.3316 6.20917 44.0091 6.71219 44.276L7.13308 44.5019L16.8752 44.5327C27.6953 44.5635 27.1718 44.5942 28.0033 43.8859C29.2352 42.8183 29.2865 40.7035 28.0854 39.6564C27.2334 38.8968 28.147 38.9584 17.2448 38.9378C11.8553 38.9276 7.32813 38.9584 7.18441 38.9994ZM26.6893 40.7035C27.5619 41.1552 27.5105 42.4282 26.6174 42.7977C26.4018 42.8799 23.8457 42.9107 16.9163 42.8901L7.51291 42.8593L7.246 42.613C6.66086 42.0586 6.68139 41.3298 7.3076 40.8062L7.61557 40.5496H16.9984C25.1289 40.5496 26.4326 40.5701 26.6893 40.7035Z" fill="#151515"/>
</svg>
