<svg width="66" height="59" viewBox="0 0 66 59" fill="none" xmlns="http://www.w3.org/2000/svg">
<path d="M3.10772 0.115425C2.05603 0.384758 0.978702 1.21841 0.452861 2.21879L0.157877 2.75746L0.119401 23.727L0.09375 44.6965L0.478512 45.4917C0.940226 46.4151 1.6841 47.0948 2.65883 47.4668C3.26162 47.6976 3.68486 47.7105 8.54568 47.7105H13.8041L14.0606 47.377C14.3941 46.9538 14.4069 46.4151 14.0863 46.0303L13.8426 45.7225L8.59698 45.6584C3.77464 45.5943 3.33857 45.5814 3.01794 45.3506C2.46645 44.9786 2.17146 44.3887 2.06886 43.4396L1.97908 42.5803H32.9268H63.8744L63.7846 43.4524C63.682 44.4656 63.2973 45.1325 62.6432 45.4404C62.2328 45.6456 60.3859 45.6584 39.814 45.6584H17.4465L17.1002 45.9277C16.6513 46.274 16.6385 47.0307 17.0617 47.4283C17.3567 47.6976 17.4465 47.7105 20.5246 47.7105C22.2689 47.7105 23.6925 47.7489 23.6925 47.8002C23.6925 47.9285 22.9486 52.2506 22.846 52.7508C22.769 53.0971 22.769 53.0971 21.7302 53.0971C21.153 53.0971 20.4605 53.1612 20.1911 53.2382C19.5627 53.4049 18.7162 54.1744 18.4212 54.8285C18.1134 55.4955 18.1134 56.5984 18.4212 57.2654C18.7162 57.9195 19.5627 58.689 20.1911 58.8557C20.8709 59.0481 44.9826 59.0481 45.6624 58.8557C46.2908 58.689 47.1373 57.9195 47.4323 57.2654C47.7401 56.5984 47.7401 55.4955 47.4323 54.8285C47.1373 54.1744 46.2908 53.4049 45.6624 53.2382C45.393 53.1612 44.7005 53.0971 44.1233 53.0971C43.0845 53.0971 43.0845 53.0971 43.0075 52.7508C42.9049 52.2506 42.161 47.9285 42.161 47.8002C42.161 47.7489 46.7525 47.7105 52.3572 47.7105C62.1045 47.7105 62.5791 47.6976 63.1947 47.4668C64.1694 47.0948 64.9133 46.4151 65.375 45.4917L65.7598 44.6965L65.7341 23.727L65.6956 2.75746L65.4006 2.21879C65.0159 1.48774 64.349 0.846474 63.541 0.410412L62.874 0.0641251L56.0766 0.02565C52.3444 0 49.1509 0.02565 48.997 0.0641251C48.625 0.153904 48.2659 0.820824 48.3685 1.23124C48.4198 1.41079 48.5609 1.65447 48.702 1.79555C48.9457 2.03923 49.1637 2.05206 55.4994 2.05206C62.6175 2.05206 62.5406 2.03923 63.2203 2.77028C63.4127 2.97549 63.6179 3.39873 63.6949 3.71936C63.7846 4.10412 63.8359 10.4142 63.8359 22.406V40.5282H32.9268H2.01756V22.4444C2.01756 10.4142 2.05603 4.16825 2.14581 3.74501C2.29972 3.05244 2.74861 2.48812 3.37705 2.23162C3.73616 2.07771 7.13489 2.05206 24.5005 2.05206H45.2006L45.5469 1.78273C46.0215 1.41079 46.0215 0.641266 45.5469 0.269333L45.2006 0L24.3466 0.012825C12.8807 0.02565 3.32575 0.0641251 3.10772 0.115425ZM40.4937 50.4038L40.9426 53.033L39.4292 53.0971C38.0184 53.1612 37.8902 53.1869 37.6593 53.4691C37.3259 53.8795 37.3515 54.4566 37.7363 54.8285L38.0441 55.1492H41.4941C44.7902 55.1492 44.957 55.162 45.2904 55.4185C45.7393 55.7776 45.7393 56.3163 45.2904 56.6754C44.9441 56.9447 44.8928 56.9447 32.9268 56.9447C20.9607 56.9447 20.9094 56.9447 20.5631 56.6754C20.1527 56.3548 20.127 55.8546 20.5118 55.4442L20.7811 55.1492H27.5657H34.3504L34.6582 54.8285C35.0814 54.4181 35.0814 53.8282 34.6582 53.4177L34.3504 53.0971H29.6178H24.8852L25.3213 50.5577C25.565 49.1725 25.783 47.9541 25.8087 47.8644C25.86 47.7361 27.3477 47.7105 32.9524 47.7361L40.0448 47.7746L40.4937 50.4038Z" fill="black"/>
<path d="M6.0197 7.22065C5.67342 7.59258 5.66059 8.2082 5.98123 8.60579L6.22491 8.9136H17.6523C30.3366 8.9136 29.4004 8.97772 29.5543 8.0543C29.6056 7.66953 29.5671 7.52846 29.2978 7.25912L28.9643 6.92566H17.6267H6.28904L6.0197 7.22065Z" fill="black"/>
<path d="M53.3831 7.24636L53.0625 7.55417V14.1592C53.0625 18.8277 53.101 20.8541 53.2036 21.085C53.4344 21.5851 53.9346 21.6749 56.5895 21.6749C59.2443 21.6749 59.7445 21.5851 59.9754 21.085C60.078 20.8541 60.1165 18.8277 60.1165 14.1592V7.55417L59.7958 7.24636L59.488 6.92573H56.5895H53.6909L53.3831 7.24636ZM58.0644 14.3003V19.6229H56.5895H55.1146V14.3003V8.97779H56.5895H58.0644V14.3003Z" fill="black"/>
<path d="M35.0288 9.76014C34.798 10.0167 34.7852 10.2988 34.7852 15.5316V21.0208L35.0801 21.3158C35.3623 21.598 35.4649 21.6108 37.8889 21.6493C40.672 21.7006 41.1594 21.6493 41.5313 21.2773C41.7622 21.0465 41.775 20.8156 41.775 15.5187C41.775 10.1706 41.7622 9.991 41.5185 9.74732C41.2748 9.50363 41.0952 9.49081 38.2737 9.49081C35.3879 9.49081 35.2597 9.50363 35.0288 9.76014ZM39.7229 15.5829V19.6229H38.248H36.7731V15.5829V11.5429H38.248H39.7229V15.5829Z" fill="black"/>
<path d="M6.02046 12.3508C5.48179 12.9279 5.76395 13.8514 6.53347 14.0438C6.7002 14.0822 9.97068 14.0951 13.7926 14.0822L20.7697 14.0438L21.0133 13.7359C21.334 13.3384 21.334 12.6458 21.0005 12.3123C20.744 12.0558 20.5773 12.0558 13.5233 12.0558H6.28979L6.02046 12.3508Z" fill="black"/>
<path d="M23.9509 12.3124C23.6175 12.6458 23.6175 13.3384 23.9381 13.736C24.1818 14.031 24.2459 14.0438 26.3878 14.0823C28.7861 14.1336 29.2094 14.0566 29.453 13.518C29.6582 13.0563 29.6326 12.7741 29.3248 12.3893L29.0683 12.0559H26.6314C24.3742 12.0559 24.1946 12.0687 23.9509 12.3124Z" fill="black"/>
<path d="M44.2777 12.5048L43.957 12.8126V16.9039C43.957 20.8028 43.9699 20.9952 44.2135 21.2645C44.5726 21.6493 44.9959 21.7006 47.8431 21.6493L50.3954 21.6108L50.7032 21.2517L51.011 20.8926V16.8526V12.8126L50.6904 12.5048L50.3826 12.1841H47.484H44.5855L44.2777 12.5048ZM48.9589 16.9295V19.6229H47.484H46.0091V16.9295V14.2362H47.484H48.9589V16.9295Z" fill="black"/>
<path d="M6.01751 18.1223C5.73535 18.4173 5.6584 18.8918 5.8123 19.3023C6.04316 19.8794 5.94056 19.8794 17.6501 19.8794C25.4608 19.8794 28.7698 19.8409 28.9878 19.7383C29.5906 19.469 29.7573 18.7123 29.3212 18.1608L29.0647 17.8273H17.6758H6.28684L6.01751 18.1223Z" fill="black"/>
<path d="M5.99479 23.2139C5.84088 23.3678 5.73828 23.6372 5.73828 23.9193C5.73828 24.2015 5.84088 24.4708 5.99479 24.6247C6.23847 24.8684 6.41803 24.8812 8.68812 24.8812C10.9582 24.8812 11.1378 24.8684 11.3815 24.6247C11.5354 24.4708 11.638 24.2015 11.638 23.9193C11.638 23.6372 11.5354 23.3678 11.3815 23.2139C11.1378 22.9702 10.9582 22.9574 8.68812 22.9574C6.41803 22.9574 6.23847 22.9702 5.99479 23.2139Z" fill="black"/>
<path d="M14.3307 23.2139C14.1768 23.3678 14.0742 23.6372 14.0742 23.9193C14.0742 24.2015 14.1768 24.4708 14.3307 24.6247C14.5872 24.8812 14.754 24.8812 21.8208 24.8812H29.0671L29.3236 24.5478C29.6699 24.1117 29.6699 23.7269 29.3236 23.2909L29.0671 22.9574H21.8208C14.754 22.9574 14.5872 22.9574 14.3307 23.2139Z" fill="black"/>
<path d="M51.4325 24.6504C51.2914 24.8171 50.1756 26.8949 48.9572 29.2804L46.7512 33.6282L46.1741 32.5508C45.8534 31.9737 45.0198 30.3321 44.3144 28.9213C43.609 27.5105 42.9164 26.2279 42.7625 26.0612C42.3906 25.6636 41.621 25.6636 41.3004 26.074C41.1722 26.2408 40.6078 27.2796 40.0435 28.3826L39.0175 30.3962H37.145C35.4264 30.3962 35.2596 30.4218 35.0416 30.6527C34.7082 31.0246 34.721 31.7428 35.0801 32.102C35.3622 32.3713 35.4649 32.3841 37.7221 32.3841C39.5562 32.3841 40.1205 32.3456 40.2872 32.2046C40.4026 32.102 40.8515 31.3581 41.2876 30.5501L42.0699 29.088L43.9681 32.8587C45.0198 34.9235 45.9817 36.6934 46.0971 36.7704C46.4049 37.0141 47.2257 36.9756 47.4309 36.7319C47.5335 36.6165 48.6237 34.526 49.8806 32.0891L52.1379 27.6644L53.228 29.8319C53.8308 31.0375 54.4208 32.102 54.549 32.1917C54.8312 32.4354 58.6532 32.538 59.3586 32.3328C60.0896 32.1148 60.3333 31.3453 59.8459 30.7425C59.5894 30.409 59.5638 30.3962 57.7041 30.3705L55.8187 30.3321L54.3951 27.5105C53.6 25.9714 52.8561 24.6248 52.7278 24.535C52.3687 24.2656 51.7274 24.3298 51.4325 24.6504Z" fill="black"/>
<path d="M6.00471 28.2929C5.6456 28.7546 5.65843 29.3061 6.05602 29.7037L6.36383 30.0115L17.7399 29.9858L29.1032 29.9473L29.3469 29.6395C29.6804 29.2291 29.6547 28.652 29.27 28.28L28.9622 27.9594H17.6117H6.26122L6.00471 28.2929Z" fill="black"/>
<path d="M5.99228 33.346C5.65882 33.6795 5.65882 34.372 5.99228 34.7311C6.26162 35.0133 6.26162 35.0133 11.892 35.0133H17.5223L17.7788 34.6798C18.1251 34.2438 18.1251 33.859 17.7788 33.423L17.5223 33.0895H11.8791C6.41552 33.0895 6.23597 33.1023 5.99228 33.346Z" fill="black"/>
</svg>
