<svg width="60" height="59" viewBox="0 0 60 59" fill="none" xmlns="http://www.w3.org/2000/svg">
<path d="M1.30371 0.195896C0.79668 0.460938 0.554688 0.70293 0.312695 1.17539C0.105273 1.57871 0.09375 1.94746 0.09375 7.77832C0.09375 13.6092 0.105273 13.9779 0.312695 14.3812C0.566211 14.8652 0.808203 15.1072 1.32676 15.3723C1.63789 15.5221 2.1334 15.5566 4.35742 15.5566H7.00781V21.883V28.2209L7.30742 28.4514C7.60703 28.6934 7.72227 28.6934 13.4148 28.6934H19.2227V30.4795V32.2656H18.6465C18.2086 32.2656 18.0703 32.2195 18.0703 32.0928C18.0703 31.7816 17.0102 30.8252 16.5031 30.6754C15.4545 30.3643 14.5557 30.5832 13.8066 31.3438C12.7234 32.4154 12.7234 33.9596 13.8066 35.0312C14.5557 35.7918 15.4545 36.0107 16.5031 35.6996C17.0102 35.5498 18.0703 34.5934 18.0703 34.2822C18.0703 34.1555 18.1971 34.1094 18.635 34.1094H19.1996L19.2457 36.0453C19.2803 37.9812 19.2803 37.9928 19.626 38.5574C19.8449 38.9031 20.1906 39.2488 20.5363 39.4678L21.101 39.8135L23.4518 39.848L25.791 39.8826V44.9529V50.0117H20.7207H15.6504V47.5342C15.6504 45.3217 15.6273 44.999 15.4314 44.6187C15.1779 44.1348 14.9359 43.8928 14.4174 43.6277C14.0947 43.4664 13.3342 43.4434 7.87207 43.4434C2.40996 43.4434 1.64941 43.4664 1.32676 43.6277C0.808203 43.8928 0.566211 44.1348 0.312695 44.6187C0.105273 45.0221 0.09375 45.3908 0.09375 51.2217C0.09375 57.0525 0.105273 57.4213 0.312695 57.8246C0.566211 58.3086 0.808203 58.5506 1.32676 58.8156C1.64941 58.977 2.40996 59 7.87207 59C13.3342 59 14.0947 58.977 14.4174 58.8156C14.9359 58.5506 15.1779 58.3086 15.4314 57.8246C15.6273 57.4443 15.6504 57.1217 15.6504 54.6211V51.8555H21.3545H27.0701L27.3467 51.5674L27.6348 51.2908V45.5752V39.8711H29.9395H32.2441V41.7725C32.2441 43.4088 32.2211 43.6738 32.0713 43.6738C31.7602 43.6738 30.8037 44.734 30.6539 45.241C30.3428 46.2896 30.5617 47.1885 31.3223 47.9375C32.3939 49.0207 33.9381 49.0207 35.0098 47.9375C35.7703 47.1885 35.9893 46.2896 35.6781 45.241C35.5283 44.734 34.5719 43.6738 34.2607 43.6738C34.1109 43.6738 34.0879 43.4088 34.0879 41.784V39.8941L36.0814 39.848C37.9943 39.8135 38.0865 39.802 38.5936 39.5023C39.1697 39.1682 39.6768 38.5229 39.8496 37.9006C39.9188 37.6816 39.9648 36.0914 39.9648 34.3744V31.2285H45.208H50.4512V37.3359V43.4434H47.8008C45.4154 43.4434 45.0928 43.4664 44.7125 43.6623C43.7215 44.1693 43.5371 44.6418 43.5371 46.716C43.5371 48.3754 43.5371 48.3869 43.8367 48.6174C44.2285 48.917 44.5742 48.9285 44.9545 48.6289C45.2311 48.41 45.2426 48.3408 45.2887 46.958C45.3117 45.9785 45.3693 45.483 45.473 45.3793C45.692 45.1604 56.9389 45.1604 57.1578 45.3793C57.3768 45.5982 57.3768 56.8451 57.1578 57.0641C56.9389 57.283 45.692 57.283 45.473 57.0641C45.3578 56.9488 45.3117 56.1652 45.2656 53.9758C45.208 51.2332 45.1965 51.0143 44.9891 50.8645C44.6549 50.6225 44.0441 50.657 43.7676 50.9336C43.5486 51.1525 43.5371 51.3139 43.5371 54.2754C43.5371 57.1102 43.5602 57.4328 43.7561 57.8246C44.0096 58.3086 44.2516 58.5506 44.7701 58.8156C45.0928 58.977 45.8533 59 51.3154 59C57.1463 59 57.515 58.9885 57.9184 58.7811C58.4023 58.5275 58.6443 58.2855 58.9094 57.767C59.0707 57.4443 59.0938 56.6838 59.0938 51.2217C59.0938 45.3908 59.0822 45.0221 58.8748 44.6187C58.6213 44.1348 58.3793 43.8928 57.8607 43.6277C57.5496 43.4779 57.0656 43.4434 54.8992 43.4434H52.3064L52.2719 36.7021L52.2373 29.9725L51.9723 29.7074L51.7072 29.4424L45.8418 29.4078L39.9648 29.3732V28.002V26.6191H41.9584L43.9404 26.6307L44.24 27.1262C44.4359 27.4373 44.7701 27.76 45.1043 27.9559C45.5768 28.2439 45.7957 28.29 46.4756 28.29C47.4551 28.29 48.1465 27.9443 48.6766 27.1838C48.9877 26.7344 49.0107 26.6191 49.0107 25.6973C49.0107 24.7754 48.9877 24.6602 48.6766 24.2107C48.1465 23.4502 47.4551 23.1045 46.4756 23.1045C45.7957 23.1045 45.5768 23.1506 45.1043 23.4387C44.7701 23.6346 44.4359 23.9572 44.24 24.2684L43.9404 24.7639L41.9584 24.7754H39.9879L39.9418 22.8971C39.9072 21.0303 39.9072 21.0072 39.5615 20.4426C39.3426 20.0969 38.9969 19.7512 38.6512 19.5322C38.0865 19.1865 38.075 19.1865 36.0814 19.152L34.0879 19.1059V13.8742V8.64258H38.8125H43.5371V11.293C43.5371 13.517 43.5717 14.0125 43.7215 14.3236C43.9865 14.8422 44.2285 15.0842 44.7125 15.3377C45.1158 15.5451 45.4846 15.5566 51.3154 15.5566C57.1463 15.5566 57.515 15.5451 57.9184 15.3377C58.4023 15.0842 58.6443 14.8422 58.9094 14.3236C59.0707 14.001 59.0938 13.2404 59.0938 7.77832C59.0938 2.31621 59.0707 1.55566 58.9094 1.23301C58.6443 0.714451 58.4023 0.472462 57.9184 0.218945C57.515 0.0115242 57.1463 0 51.3154 0C45.4846 0 45.1158 0.0115242 44.7125 0.218945C44.2285 0.472462 43.9865 0.714451 43.7215 1.23301C43.5717 1.54414 43.5371 2.03965 43.5371 4.26367V6.91406H38.1211H32.7166L32.4746 7.16758C32.2441 7.40957 32.2441 7.53633 32.2441 13.275V19.1289H29.9395H27.6348V17.458C27.6348 16.0291 27.6578 15.7871 27.8076 15.7871C28.1187 15.7871 29.0752 14.727 29.225 14.2199C29.5361 13.1713 29.3172 12.2725 28.5566 11.5234C27.485 10.4402 25.9408 10.4402 24.8691 11.5234C24.1086 12.2725 23.8896 13.1713 24.2008 14.2199C24.3506 14.727 25.307 15.7871 25.6182 15.7871C25.768 15.7871 25.791 16.0291 25.791 17.4465V19.1174L23.4518 19.152L21.101 19.1865L20.5363 19.5322C20.1906 19.7512 19.8449 20.0969 19.626 20.4426L19.2803 21.0072L19.2457 23.9342L19.2111 26.8496H13.968H8.73633V21.2031V15.5566H11.3867C13.7721 15.5566 14.0947 15.5336 14.475 15.3377C15.466 14.8307 15.6504 14.3582 15.6504 12.2955C15.6504 10.7168 15.6389 10.6361 15.3854 10.3941C15.0742 10.1061 14.5441 10.0715 14.21 10.325C14.0025 10.4748 13.968 10.6707 13.9219 11.9844C13.8873 12.9869 13.8182 13.517 13.7145 13.6207C13.4955 13.8396 2.24863 13.8396 2.02969 13.6207C1.81074 13.4018 1.81074 2.15488 2.02969 1.93594C2.24863 1.71699 13.4955 1.71699 13.7145 1.93594C13.8297 2.05117 13.8758 2.78867 13.8988 4.95508L13.9334 7.82441L14.233 8.06641C14.6133 8.36602 14.959 8.35449 15.3508 8.05488L15.6504 7.82441V4.71309C15.6504 2.07422 15.6273 1.54414 15.466 1.23301C15.201 0.714451 14.959 0.472462 14.475 0.218945C14.0717 0.0115242 13.7029 0 7.84902 0C2.42148 0.0115242 1.60332 0.0345688 1.30371 0.195896ZM57.1578 1.93594C57.3768 2.15488 57.3768 13.4018 57.1578 13.6207C56.9389 13.8396 45.692 13.8396 45.473 13.6207C45.3578 13.5055 45.3117 12.3186 45.2887 8.08945C45.2771 5.12793 45.2887 2.53516 45.3232 2.32773C45.3693 2.08574 45.4846 1.91289 45.6459 1.84375C45.7842 1.78613 48.377 1.75156 51.4537 1.76308C55.8326 1.78613 57.0426 1.8207 57.1578 1.93594ZM27.2314 12.8486C27.3928 12.9984 27.5195 13.2289 27.5195 13.3672C27.5195 13.6783 27.024 14.1738 26.7129 14.1738C26.4018 14.1738 25.9062 13.6783 25.9062 13.3672C25.9062 13.0561 26.4018 12.5605 26.7129 12.5605C26.8512 12.5605 27.0816 12.6873 27.2314 12.8486ZM37.5795 21.0994C37.7408 21.1686 37.9252 21.3529 37.9943 21.5143C38.1787 21.9061 38.1787 37.0939 37.9943 37.4857C37.9252 37.6471 37.7408 37.8314 37.5795 37.9006C37.1877 38.085 21.9998 38.085 21.608 37.9006C21.4467 37.8314 21.2623 37.6471 21.1932 37.4857C21.0088 37.0939 21.0088 21.9061 21.1932 21.5027C21.2623 21.3529 21.4352 21.1686 21.5734 21.1109C21.9307 20.9381 37.2107 20.9266 37.5795 21.0994ZM46.9711 25.1211C47.4666 25.5936 47.1209 26.5039 46.4525 26.5039C46.0838 26.5039 45.7266 26.1121 45.7266 25.6973C45.7266 24.9943 46.4756 24.6602 46.9711 25.1211ZM16.1689 32.6689C16.3303 32.8188 16.457 33.0492 16.457 33.1875C16.457 33.3143 16.3303 33.5562 16.1689 33.7061C16.0191 33.8674 15.7887 33.9941 15.6504 33.9941C15.5236 33.9941 15.2816 33.8674 15.1318 33.7061C14.9705 33.5562 14.8438 33.3143 14.8438 33.1875C14.8438 33.0492 14.9705 32.8188 15.1318 32.6689C15.2816 32.5076 15.5236 32.3809 15.6504 32.3809C15.7887 32.3809 16.0191 32.5076 16.1689 32.6689ZM13.7145 45.3793C13.9334 45.5982 13.9334 56.8451 13.7145 57.0641C13.4955 57.283 2.24863 57.283 2.02969 57.0641C1.91445 56.9488 1.86836 55.7619 1.84531 51.5328C1.82227 48.5713 1.84531 45.9785 1.87988 45.7711C1.92598 45.5291 2.04121 45.3562 2.20254 45.2871C2.34082 45.2295 4.93359 45.1949 8.01035 45.2064C12.3893 45.2295 13.5992 45.2641 13.7145 45.3793ZM33.6846 45.5752C33.8459 45.725 33.9727 45.9555 33.9727 46.0938C33.9727 46.4049 33.4771 46.9004 33.166 46.9004C32.8549 46.9004 32.3594 46.4049 32.3594 46.0938C32.3594 45.7826 32.8549 45.2871 33.166 45.2871C33.3043 45.2871 33.5348 45.4139 33.6846 45.5752Z" fill="black"/>
</svg>
