<svg width="65" height="59" viewBox="0 0 65 59" fill="none" xmlns="http://www.w3.org/2000/svg">
<path d="M26.4827 0.148075C25.8998 0.477524 25.8238 0.806976 25.8744 2.64429C25.9125 3.58195 25.9758 4.45626 26.0392 4.58297C26.1025 4.73502 26.1025 4.79838 26.0138 4.7477C25.7224 4.5703 24.3412 4.44359 23.6697 4.53229C21.0087 4.89975 19.1081 7.53534 19.6149 10.1329L19.7289 10.7285L19.1081 10.9312C17.8283 11.3494 16.8273 12.249 16.2317 13.5161C15.9403 14.1497 15.9023 14.3778 15.9023 15.5942V16.95L15.3194 17.1401C14.0016 17.5835 12.7218 18.9013 12.3417 20.2065C12.1009 21.0301 12.0883 22.2592 12.291 23.0321C12.4557 23.6277 12.4177 23.6784 11.7842 23.9191C10.6057 24.3753 9.43999 25.6424 9.05986 26.9222C8.95849 27.2643 8.86979 27.8978 8.86979 28.3287C8.86979 30.0393 9.42732 31.0403 11.5181 33.1057L12.6711 34.2461L6.33556 40.5816L0 46.9299V47.5634C0 48.0956 0.0633556 48.2604 0.354792 48.5391C0.646228 48.8179 0.836295 48.8812 1.33047 48.8812H1.95135L8.35027 42.495L14.7619 36.0961L15.5221 36.3495C17.1947 36.9197 19.2601 36.4382 20.5019 35.1964C21.3128 34.3855 21.9211 33.0423 21.9211 32.0793C21.9211 31.6865 21.9337 31.6738 22.656 31.5978C23.619 31.4838 24.7594 30.9389 25.4563 30.242C26.1405 29.5578 26.7614 28.278 26.8375 27.4037L26.8881 26.7574L27.7624 26.6054C28.8648 26.4153 29.6885 25.9972 30.398 25.3003C31.2217 24.464 31.8045 23.2349 31.8045 22.2592V21.803L32.6282 21.6637C34.3007 21.3849 35.6312 20.4219 36.3408 18.9774C36.6449 18.3438 36.6829 18.1411 36.6829 16.8866C36.6829 15.4675 36.6069 15.1887 35.9733 14.1877C35.8086 13.9216 35.948 13.7695 40.1675 9.53738C43.2466 6.4583 44.6657 5.12783 44.9698 5.02646C46.5917 4.4816 48.1503 5.92611 47.7321 7.5987C47.6181 8.06753 47.2 8.54903 44.463 11.3113C42.7397 13.0473 41.2572 14.6438 41.1812 14.8466C40.8644 15.6956 41.5233 16.5699 42.4736 16.5699C42.9805 16.5699 43.0692 16.4938 45.6034 13.9849C47.0352 12.5531 48.3784 11.324 48.5684 11.2607C49.8355 10.7792 51.3181 11.6154 51.5335 12.9332C51.6729 13.8456 51.4321 14.2004 48.7205 16.95C46.9719 18.7239 46.1356 19.6616 46.0976 19.8897C45.9202 20.8274 46.465 21.5116 47.3647 21.5116C47.9349 21.5116 47.9476 21.4989 49.8482 19.6236C50.8999 18.5972 51.939 17.6469 52.167 17.5329C52.6612 17.2794 53.4595 17.2668 54.0297 17.5075C54.8913 17.8623 55.4362 19.0787 55.1954 20.0671C55.1321 20.2825 54.3085 21.2202 53.0794 22.4746L51.0646 24.5273V25.1609C51.0646 26.0352 51.4828 26.4533 52.3444 26.4533C52.94 26.4533 52.9907 26.428 54.2198 25.2623C55.3348 24.2105 55.5629 24.0585 56.0571 23.9825C57.1468 23.8177 58.2745 24.6667 58.4899 25.7818C58.6927 26.8715 58.794 26.7574 51.4068 34.1194C44.2729 41.2279 43.614 41.8107 41.4346 42.9765C39.4452 44.0282 37.5572 44.5857 35.0357 44.8772L33.5405 45.0546L27.5977 50.9973C23.4416 55.1408 21.6296 57.0414 21.5536 57.3075C21.2875 58.3086 22.1491 59.2082 23.1502 58.9548C23.3909 58.9041 24.9748 57.4089 27.7751 54.6086L32.0453 50.3511L33.1603 50.8833C33.7812 51.1747 34.6809 51.5295 35.1497 51.6689C36.0874 51.935 38.5202 52.2391 38.9004 52.1377C39.0651 52.0997 40.0028 52.9613 42.3976 55.3689C44.2096 57.1808 45.8315 58.7394 46.0215 58.8407C47.0606 59.3856 48.1883 58.4479 47.8715 57.3075C47.8082 57.0541 46.5917 55.749 44.1842 53.3415C42.2202 51.3648 40.4969 49.6922 40.3575 49.6035C40.2182 49.5275 39.2805 49.4261 38.2668 49.3754C36.6322 49.2994 36.3028 49.2487 35.3271 48.8812C34.7062 48.6658 34.1867 48.4377 34.1487 48.3871C34.1233 48.3237 34.2501 48.1336 34.4401 47.9436C34.7316 47.6775 34.985 47.5888 35.872 47.4874C38.2668 47.196 40.9024 46.347 42.9931 45.1813C45.3753 43.8761 45.8948 43.4073 53.2441 36.0834C59.9091 29.4437 60.3272 29.0002 60.7201 28.1639C61.1002 27.3657 61.1382 27.1756 61.1255 26.1366C61.1129 24.6921 60.8087 23.8684 59.9344 22.8801C59.3642 22.2465 58.604 21.7397 57.755 21.4736C57.5523 21.3976 57.5523 21.3595 57.7423 20.8147C58.0211 19.9911 57.9197 18.3692 57.5523 17.5329C56.9821 16.2658 55.9177 15.2901 54.6126 14.8593L54.0044 14.6565L54.1311 14.1243C54.4098 12.9332 53.979 11.248 53.13 10.1709C52.6485 9.56273 51.8249 8.99252 51.0266 8.71376C50.5325 8.53636 50.3804 8.42232 50.4058 8.24493C50.4184 8.11822 50.4311 7.58603 50.4438 7.06651C50.4564 4.98845 49.2654 3.23983 47.3267 2.51758C46.389 2.16278 44.9825 2.16278 44.0702 2.50491L43.4113 2.75833L42.8918 2.26415C42.1188 1.50389 40.8644 0.768963 39.7367 0.388828L38.7103 0.0340347L32.7549 0.0086937C27.8258 -0.0166473 26.7488 0.0086937 26.4827 0.148075ZM38.4569 2.82169C39.3312 3.04976 40.2562 3.53127 40.9024 4.10147L41.3712 4.51962L37.6966 8.19424C35.6819 10.2216 33.9713 11.8815 33.8953 11.8815C33.8192 11.8815 33.059 11.172 32.1847 10.2976L30.6008 8.71376H33.1477H35.6946L36.0113 8.39698C36.4548 7.95349 36.5435 7.38329 36.2774 6.82576C35.948 6.16686 35.5298 6.06549 33.0083 6.05282C30.4994 6.04015 30.1446 5.95145 29.2957 4.97578C28.7508 4.35489 28.51 3.77202 28.51 3.03709V2.63162H33.1097C36.835 2.63162 37.8487 2.66963 38.4569 2.82169ZM25.0255 7.25658C25.3042 7.31993 26.5333 8.46033 29.5617 11.4761C31.8552 13.7569 33.8066 15.7842 33.9206 15.987C34.3641 16.8233 33.9966 18.1157 33.1603 18.6859C32.6028 19.0534 32.058 19.1421 31.3991 18.9774C30.9176 18.8507 30.3474 18.3311 26.7614 14.7579C22.6686 10.6778 22.1745 10.0822 22.1745 9.28396C22.1745 8.77711 22.618 7.92815 23.0488 7.61137C23.4416 7.30726 24.1512 7.06651 24.4553 7.12987C24.5566 7.15521 24.8227 7.20589 25.0255 7.25658ZM21.6676 13.6048C22.1745 13.8582 28.8648 20.65 29.0169 21.0428C29.4857 22.3226 28.6494 23.7924 27.3316 24.0078C26.3686 24.1599 26.1279 23.9698 22.3772 20.2572C20.4385 18.3311 18.7786 16.5825 18.6772 16.3545C17.879 14.5045 19.8683 12.6672 21.6676 13.6048ZM17.5495 19.6236C17.9677 19.7376 18.5759 20.2825 20.882 22.5633C23.7457 25.4143 24.2019 25.9972 24.2019 26.8081C24.2019 27.7331 23.3782 28.7722 22.4913 28.9369C21.4269 29.1269 21.3128 29.0636 18.1451 25.9085C16.5105 24.2866 15.104 22.8041 14.9899 22.6013C14.3944 21.4736 15.104 20.0164 16.4471 19.6109C16.916 19.4715 16.9793 19.4715 17.5495 19.6236ZM14.4831 26.3773C14.7112 26.4787 15.8389 27.5177 17.0047 28.6835C18.7659 30.4701 19.1207 30.9009 19.1968 31.2937C19.3361 32.0033 19.1714 32.6115 18.7153 33.131C18.0057 33.9293 17.0173 34.1447 16.1177 33.6886C15.5475 33.3971 12.0249 29.8492 11.7335 29.279C10.8845 27.5937 12.7345 25.6297 14.4831 26.3773Z" fill="black"/>
<path d="M57.0817 35.5512C56.3087 35.716 55.8779 36.5016 56.1313 37.2745C56.5748 38.6177 58.6656 38.2755 58.6656 36.8564C58.6656 36.0454 57.8673 35.3865 57.0817 35.5512Z" fill="black"/>
<path d="M59.9729 38.8076C59.4407 39.0357 59.124 39.6439 59.238 40.2521C59.3014 40.6196 59.6562 41.0504 61.126 42.5076C62.9253 44.3196 62.938 44.3196 63.5082 44.3196C63.9517 44.3196 64.1924 44.2436 64.4839 43.9901C64.826 43.7114 64.8767 43.5847 64.8767 43.0525C64.8767 42.3556 64.8006 42.2669 62.4691 40.0367C61.0373 38.6809 60.6698 38.4909 59.9729 38.8076Z" fill="black"/>
</svg>
