<svg width="57" height="57" viewBox="0 0 57 57" fill="none" xmlns="http://www.w3.org/2000/svg">
<path d="M14.2502 6.84668C6.691 10.6096 0.389829 13.7824 0.256235 13.916C-0.0888818 14.25 -0.100015 15.0961 0.222837 15.4523C0.345298 15.5859 3.05057 16.9998 6.23456 18.5918C9.41854 20.1949 12.0236 21.542 12.0236 21.5977C12.0236 21.6533 9.41854 23.0004 6.23456 24.6035C3.05057 26.1955 0.345298 27.6094 0.222837 27.743C-0.0443506 28.0324 -0.077749 28.8896 0.178306 29.2236C0.267368 29.3461 3.02831 30.7711 6.32362 32.3965L12.3019 35.3578L6.37928 38.3303C3.11737 39.9668 0.345298 41.4141 0.222837 41.5477C-0.0888818 41.8928 -0.0888818 42.7277 0.245103 43.084C0.378696 43.2176 1.89276 44.0303 3.60721 44.8652C5.3328 45.7113 11.5338 48.784 17.4119 51.7008C25.973 55.9535 28.1662 57 28.5113 57C28.8564 57 29.9586 56.499 33.7103 54.6176C36.3265 53.315 38.5531 52.135 38.6756 52.0014C38.9428 51.7119 38.965 50.9994 38.709 50.6209C38.5976 50.4539 38.3305 50.2758 38.0744 50.1979L37.6291 50.0643L33.0646 52.3131L28.5002 54.5619L16.1984 48.4611C9.42967 45.1102 3.89666 42.3381 3.89666 42.2936C3.89666 42.1934 14.7289 36.7383 14.9293 36.7383C15.0072 36.7383 18.0019 38.1855 21.5756 39.9668C26.5742 42.4494 28.1773 43.1953 28.5002 43.1953C28.8119 43.1953 30.4262 42.4494 35.4359 39.9668C39.0207 38.1855 42.0154 36.7383 42.0822 36.7383C42.2603 36.7383 53.1037 42.2045 53.1037 42.2936C53.1037 42.327 51.5117 43.1508 49.5746 44.1305C47.6264 45.099 45.9453 45.9674 45.8451 46.0564C45.5779 46.2902 45.4777 46.9137 45.6447 47.3145C45.8228 47.7264 46.2014 47.9824 46.6801 47.9824C47.1365 47.9824 56.3879 43.4848 56.7664 43.0729C57.0781 42.7277 57.0892 41.8928 56.7775 41.5588C56.6662 41.4252 53.8941 39.9779 50.6433 38.3303L44.7207 35.3467L50.6879 32.3965C53.9721 30.7711 56.733 29.3461 56.8221 29.2236C57.0781 28.8896 57.0447 28.0324 56.7775 27.7541C56.6551 27.6205 53.9498 26.2066 50.7658 24.5924C47.5818 22.9893 44.9767 21.6422 44.9767 21.5977C44.9767 21.5531 47.5818 20.2061 50.7658 18.6029C53.9498 16.9887 56.6551 15.5748 56.7775 15.4412C57.1115 15.0961 57.0892 14.2389 56.7441 13.916C56.5994 13.7713 50.276 10.5873 42.6945 6.83555C30.916 0.990822 28.8453 0 28.4556 0.0111351C28.0883 0.0222664 25.4164 1.30254 14.2502 6.84668ZM40.8131 8.53887C47.5707 11.8898 53.1037 14.6619 53.1037 14.7064C53.1037 14.7398 47.5707 17.5676 40.8019 20.9742L28.5002 27.1752L16.1984 20.9742C9.42967 17.5676 3.89666 14.7398 3.89666 14.7064C3.89666 14.6396 28.3443 2.47149 28.489 2.44922C28.5113 2.44922 34.0555 5.18789 40.8131 8.53887ZM20.273 25.6723C23.2678 27.1752 25.717 28.4443 25.717 28.4889C25.717 28.5334 25.0601 28.8896 24.2586 29.2793C23.457 29.6801 22.7 30.1254 22.5887 30.2701C22.4551 30.4371 22.3771 30.7154 22.3771 31.016C22.3771 31.6506 22.7222 32.0514 23.3234 32.1404C23.7242 32.185 24.0248 32.0736 26.14 31.016L28.5002 29.8359L30.8715 31.016C32.9756 32.0736 33.2762 32.185 33.6769 32.1404C34.2781 32.0514 34.6232 31.6506 34.6232 31.016C34.6232 30.7154 34.5453 30.4371 34.4117 30.2701C34.3004 30.1254 33.5433 29.6801 32.7418 29.2793C31.9402 28.8896 31.2834 28.5334 31.2834 28.4889C31.2834 28.4443 33.7437 27.1752 36.7385 25.6723L42.1935 22.9225L47.6486 25.6723C50.6545 27.1752 53.1037 28.4443 53.1037 28.4889C53.1037 28.5334 47.5707 31.3055 40.8019 34.6676L28.5113 40.7572L16.1984 34.6564C9.42967 31.3055 3.89666 28.5334 3.89666 28.4889C3.89666 28.4332 14.6398 22.9559 14.7846 22.9336C14.8068 22.9336 17.2783 24.1693 20.273 25.6723Z" fill="#EF0303"/>
<path d="M25.3608 14.918C23.8467 15.6862 22.6555 16.3541 22.5553 16.4988C22.4551 16.6324 22.3772 16.9553 22.3772 17.2225C22.3772 17.8459 22.7223 18.2467 23.3235 18.3358C23.7243 18.3803 24.0249 18.269 26.1401 17.2113L28.5002 16.0313L30.8715 17.2113C32.9756 18.269 33.2762 18.3803 33.677 18.3358C34.2782 18.2467 34.6233 17.8459 34.6233 17.2225C34.6233 16.9553 34.5454 16.6324 34.4452 16.4988C34.345 16.3541 33.1538 15.6862 31.6063 14.918C29.4243 13.8158 28.8676 13.5821 28.478 13.5932C28.0995 13.5932 27.4649 13.8604 25.3608 14.918Z" fill="#EF0303"/>
<path d="M41.3698 48.1605C41.136 48.3943 41.0803 48.5613 41.0803 48.9844C41.0803 49.4074 41.136 49.5744 41.3698 49.8082C41.6036 50.042 41.7706 50.0977 42.1936 50.0977C42.9284 50.0977 43.3069 49.7191 43.3069 48.9844C43.3069 48.5613 43.2512 48.3943 43.0174 48.1605C42.5944 47.7486 41.7928 47.7486 41.3698 48.1605Z" fill="#EF0303"/>
</svg>
