<svg width="60" height="59" viewBox="0 0 60 59" fill="none" xmlns="http://www.w3.org/2000/svg">
<path d="M3.42828 0.143703C2.11069 0.565842 0.946614 1.602 0.345386 2.88121L0 3.61036V24.9731V46.3359L0.37097 47.1034C1.08733 48.5361 2.40491 49.5467 3.96554 49.8537C4.5156 49.956 8.66024 49.9816 18.766 49.956L32.8117 49.9177L33.1571 49.5595C33.6304 49.0862 33.6687 48.2163 33.221 47.7814L32.9268 47.4872L18.6253 47.4232L4.32372 47.3593L3.7097 46.9755C3.30036 46.7196 2.99335 46.3998 2.78867 46.0289L2.49445 45.466V29.1689V12.8846H29.6137H56.7329V29.1689V45.466L56.4386 46.0289C56.234 46.3998 55.927 46.7196 55.5176 46.9755L54.9036 47.3593L51.7184 47.3976L48.5459 47.4488L48.2261 47.8326C47.7017 48.4594 47.8679 49.4444 48.5587 49.8025C49.0064 50.0328 54.3024 50.0584 55.3513 49.8409C56.8608 49.5211 58.1656 48.4977 58.8563 47.1034L59.2273 46.3359V24.9731V3.61036L58.818 2.76608C58.3191 1.74271 57.398 0.847267 56.3747 0.373961L55.6455 0.0285747L29.8055 0.00299052C8.68582 -0.00980156 3.86321 0.0157826 3.42828 0.143703ZM21.5546 6.42461V10.3262H12.0246H2.49445V7.44798C2.49445 5.13261 2.53283 4.46742 2.68634 4.08366C2.95497 3.45685 3.35152 3.0475 3.96554 2.76608C4.45164 2.54861 4.98891 2.52303 13.0223 2.52303H21.5546V6.42461ZM55.2618 2.76608C55.8758 3.0475 56.2723 3.45685 56.541 4.08366C56.6945 4.46742 56.7329 5.13261 56.7329 7.44798V10.3262H40.423H24.1131V6.42461V2.52303H39.438C54.0465 2.52303 54.7757 2.53582 55.2618 2.76608Z" fill="black"/>
<path d="M6.33169 5.24771C5.83279 5.49076 5.53858 6.20712 5.70487 6.78276C5.88396 7.43516 6.22935 7.63983 7.16317 7.63983C8.09699 7.63983 8.44238 7.43516 8.62147 6.78276C8.7366 6.399 8.71101 6.21991 8.53192 5.84894C8.27608 5.31167 7.85394 5.08142 7.16317 5.08142C6.88175 5.08142 6.51077 5.15817 6.33169 5.24771Z" fill="black"/>
<path d="M11.3201 5.17096C10.6038 5.4268 10.2584 6.30946 10.6038 6.97464C10.8852 7.51191 11.1666 7.63983 12.0621 7.63983C12.7145 7.63983 12.868 7.58866 13.1622 7.30724C13.5204 6.93627 13.6227 6.19433 13.3668 5.70823C13.0982 5.20934 11.9981 4.92791 11.3201 5.17096Z" fill="black"/>
<path d="M15.9384 5.26051C15.2093 5.66985 15.0686 6.68043 15.657 7.26886C16.0024 7.60146 16.1175 7.63983 16.8595 7.63983C17.6398 7.63983 17.7165 7.61425 18.0235 7.24328C18.5608 6.60367 18.4073 5.63148 17.7037 5.26051C17.256 5.04304 16.3478 5.03025 15.9384 5.26051Z" fill="black"/>
<path d="M29.2034 5.28609C28.4998 5.65706 28.3719 6.59088 28.9219 7.24328L29.2545 7.63983H40.3836H51.5128L51.8837 7.26886C52.485 6.66763 52.3059 5.58031 51.5511 5.23492C51.3081 5.11979 48.5194 5.08142 40.3836 5.08142C31.071 5.09421 29.4976 5.11979 29.2034 5.28609Z" fill="black"/>
<path d="M6.68995 15.3151C6.03755 15.5197 5.4875 15.9419 5.18049 16.4919C4.88627 17.0036 4.86068 17.1827 4.82231 19.2038C4.77114 21.5832 4.87348 22.2867 5.39795 22.9775C6.01197 23.7706 6.47249 23.8857 9.1972 23.8857C12.0115 23.8857 12.472 23.7578 13.086 22.824L13.4314 22.2995V19.5236V16.7478L13.0348 16.2489C12.2801 15.3151 12.0626 15.2511 9.40187 15.2255C8.09708 15.2127 6.88183 15.2511 6.68995 15.3151ZM10.9369 19.6004V21.3273H9.20999H7.48306V19.6004V17.8735H9.20999H10.9369V19.6004Z" fill="black"/>
<path d="M39.4639 15.2639C39.2848 15.2895 38.7475 15.379 38.2486 15.4558C34.1424 16.121 30.4455 18.9224 28.5267 22.7984C26.5823 26.7256 26.5823 31.0493 28.5267 34.9509C29.9466 37.8163 32.441 40.2084 35.1913 41.3469C35.6774 41.5516 36.0868 41.7179 36.1124 41.7307C36.1251 41.7435 36.0484 44.4298 35.9333 47.6918C35.8181 50.9538 35.7542 54.0367 35.7798 54.5356C35.8949 56.2497 36.9438 57.7975 38.5556 58.5907C39.3488 58.9744 39.4767 59 40.7431 59C41.8688 58.9872 42.1886 58.9488 42.7259 58.7058C44.0946 58.079 45.1436 56.8637 45.5401 55.431C45.7448 54.7274 45.7448 54.2925 45.5529 48.6512C45.4378 45.3381 45.3482 42.4215 45.3482 42.1784C45.3482 41.7435 45.3866 41.7179 46.2309 41.3725C48.2904 40.541 50.7337 38.4943 52.0769 36.4732C55.6714 31.0749 54.9935 23.873 50.4651 19.2934C48.5207 17.3362 46.2181 16.0826 43.4934 15.4942C42.5979 15.3023 40.0651 15.1616 39.4639 15.2639ZM43.2759 18.1421C45.3738 18.6154 47.1519 19.6644 48.7637 21.3657C49.8894 22.5554 50.6825 23.8858 51.2454 25.5231C51.6675 26.7384 51.6803 26.8151 51.6803 28.8747C51.6803 30.9342 51.6675 31.0237 51.2582 32.2006C50.593 34.1194 49.9406 35.1556 48.4823 36.6139C47.024 38.0722 45.975 38.7374 44.069 39.377C42.9945 39.7479 42.6491 39.7991 41.1269 39.8503C39.6941 39.8886 39.208 39.8631 38.287 39.6328C35.0634 38.8653 32.3131 36.6778 30.7909 33.6717C29.3581 30.8319 29.3198 27.2884 30.6885 24.3335C32.9271 19.4853 38.0823 16.9397 43.2759 18.1421ZM42.7898 43.5855C42.8026 44.1868 42.8794 46.8219 42.9689 49.4571C43.084 52.6295 43.0968 54.4076 43.0201 54.7019C42.841 55.3671 42.3677 55.9299 41.7281 56.2369C40.4745 56.8381 39.0673 56.2753 38.5045 54.9321C38.3254 54.4972 38.3254 53.9343 38.5045 48.8559C38.6068 45.7858 38.6964 43.0867 38.6964 42.882V42.4982H40.7431H42.7898V43.5855Z" fill="black"/>
<path d="M45.8595 24.6149C45.7572 24.6533 44.0686 26.2651 42.1242 28.2095L38.5808 31.7401L37.1865 30.3714C35.8305 29.041 35.7794 29.0026 35.2165 29.0026C34.4106 29.0026 33.9629 29.4503 33.9629 30.2562C33.9629 30.8191 33.9885 30.8575 35.5235 32.4053C37.2888 34.1962 37.7493 34.4648 38.8367 34.3369C39.1948 34.2857 39.6682 34.145 39.8856 34.0043C40.1159 33.8636 41.9196 32.1111 43.9151 30.1155L47.5225 26.4954V25.9197C47.5225 24.9859 46.6782 24.3207 45.8595 24.6149Z" fill="black"/>
<path d="M16.9619 16.7734C16.2327 17.1827 16.092 18.1933 16.6804 18.7817L17.0514 19.1527H21.7973C26.5175 19.1527 26.5303 19.1527 26.8629 18.8585C27.0932 18.6666 27.2211 18.398 27.2723 18.0398C27.3362 17.5409 27.2979 17.4514 26.8885 17.042L26.4408 16.5943H21.8484C18.2922 16.6071 17.2049 16.6455 16.9619 16.7734Z" fill="black"/>
<path d="M16.7312 21.6343C16.4242 21.903 16.373 22.0437 16.373 22.6065C16.373 23.1694 16.4242 23.3101 16.7312 23.5787L17.0894 23.8857H21.1061H25.1228L25.481 23.5787C25.788 23.3101 25.8392 23.1694 25.8392 22.6065C25.8392 22.0437 25.788 21.903 25.481 21.6343L25.1228 21.3273H21.1061H17.0894L16.7312 21.6343Z" fill="black"/>
<path d="M6.26733 26.022C5.60214 26.3674 5.18 26.8663 4.98812 27.5187C4.75786 28.2862 4.71949 31.868 4.93695 32.6483C5.12883 33.3135 5.9859 34.1705 6.65109 34.3624C7.43141 34.5799 11.0132 34.5415 11.7807 34.3113C12.4587 34.1194 12.9448 33.6844 13.2902 32.9937C13.4821 32.6355 13.5076 32.2006 13.4693 29.9747C13.4309 27.4035 13.4309 27.378 13.0855 26.8663C12.4587 25.9197 12.011 25.8045 9.13275 25.8045C7.1244 25.8173 6.57434 25.8557 6.26733 26.022ZM10.9364 30.0899V31.8168H9.20951H7.48257V30.0899V28.3629H9.20951H10.9364V30.0899Z" fill="black"/>
<path d="M16.6804 27.5826C16.0792 28.1838 16.2583 29.2712 17.013 29.6166C17.448 29.8212 23.5882 29.834 24.0231 29.6294C24.3813 29.4631 24.7522 28.8874 24.7522 28.4909C24.7522 28.1199 24.4196 27.5059 24.1254 27.3396C23.9719 27.2628 22.552 27.2117 20.4669 27.2117H17.0514L16.6804 27.5826Z" fill="black"/>
<path d="M17.1293 31.9448C16.2979 32.2901 16.0676 33.3391 16.6816 34.0171L17.0526 34.4392H20.7879H24.5232L24.8941 34.0171C25.393 33.4542 25.393 32.8658 24.8941 32.3029L24.5232 31.8808L20.9542 31.8552C18.997 31.8424 17.2701 31.8808 17.1293 31.9448Z" fill="black"/>
<path d="M6.68995 36.422C6.03755 36.6267 5.4875 37.0488 5.18049 37.5989C4.88627 38.1105 4.86068 38.2896 4.82231 40.3108C4.77114 42.6901 4.87348 43.3937 5.39795 44.0844C6.01197 44.8775 6.47249 44.9927 9.1972 44.9927C12.0115 44.9927 12.472 44.8648 13.086 43.9309L13.4314 43.4065V40.6306V37.8547L13.0348 37.3558C12.2801 36.422 12.0626 36.358 9.40187 36.3324C8.09708 36.3196 6.88183 36.358 6.68995 36.422ZM10.9369 40.6434V42.4343H9.20999H7.48306V40.7073V38.9932L8.60876 38.942C9.22278 38.9292 9.99031 38.8909 10.3357 38.8781L10.9369 38.8525V40.6434Z" fill="black"/>
<path d="M16.9619 37.8803C16.2327 38.2896 16.092 39.3002 16.6804 39.8886L17.0514 40.2596H21.7973C26.5175 40.2596 26.5303 40.2596 26.8629 39.9654C27.0932 39.7735 27.2211 39.5049 27.2723 39.1467C27.3362 38.6478 27.2979 38.5582 26.8885 38.1489L26.4408 37.7012H21.8484C18.2922 37.714 17.2049 37.7523 16.9619 37.8803Z" fill="black"/>
<path d="M16.7312 42.7413C16.4242 43.0099 16.373 43.1506 16.373 43.7135C16.373 44.2763 16.4242 44.417 16.7312 44.6857L17.0894 44.9927H24.1123H31.1351L31.4933 44.6857C31.8003 44.417 31.8515 44.2763 31.8515 43.7135C31.8515 43.1506 31.8003 43.0099 31.4933 42.7413L31.1351 42.4343H24.1123H17.0894L16.7312 42.7413Z" fill="black"/>
</svg>
