<svg width="48" height="45" viewBox="0 0 48 45" fill="none" xmlns="http://www.w3.org/2000/svg">
<path fill-rule="evenodd" clip-rule="evenodd" d="M46.4033 44.3024H0.780273C0.394727 44.3024 0.0917969 43.9994 0.0917969 43.6139V9.71973C0.0917969 9.33418 0.394727 9.03125 0.780273 9.03125H46.4033C46.7889 9.03125 47.0918 9.33418 47.0918 9.71973V43.669C47.0367 43.9994 46.7338 44.3024 46.4033 44.3024ZM1.44121 42.9805H45.7148V10.3807H1.44121V42.9805Z" fill="black"/>
<path fill-rule="evenodd" clip-rule="evenodd" d="M46.4033 14.7857H0.780273C0.394727 14.7857 0.0917969 14.4828 0.0917969 14.0972C0.0917969 13.7392 0.394727 13.4363 0.780273 13.4363H46.4033C46.7889 13.4363 47.0918 13.7392 47.0918 14.0972C47.0918 14.4828 46.7338 14.7857 46.4033 14.7857Z" fill="black"/>
<path fill-rule="evenodd" clip-rule="evenodd" d="M43.3465 11.2892C43.677 11.2892 43.9523 11.5646 43.9523 11.895C43.9523 12.2531 43.677 12.5009 43.3465 12.5009C42.9885 12.5009 42.6855 12.2531 42.6855 11.895C42.6855 11.5921 42.9609 11.2892 43.3465 11.2892Z" fill="black"/>
<path fill-rule="evenodd" clip-rule="evenodd" d="M39.9342 11.2892C40.2922 11.2892 40.5676 11.5646 40.5676 11.895C40.5676 12.2531 40.2922 12.5009 39.9342 12.5009C39.6037 12.5009 39.3008 12.2531 39.3008 11.895C39.3283 11.5921 39.6037 11.2892 39.9342 11.2892Z" fill="black"/>
<path fill-rule="evenodd" clip-rule="evenodd" d="M36.5729 11.2892C36.9309 11.2892 37.2063 11.5646 37.2063 11.895C37.2063 12.2531 36.9309 12.5009 36.5729 12.5009C36.2424 12.5009 35.9395 12.2531 35.9395 11.895C35.9395 11.5921 36.2148 11.2892 36.5729 11.2892Z" fill="black"/>
<path fill-rule="evenodd" clip-rule="evenodd" d="M43.4296 24.9182H3.72559C3.34004 24.9182 3.03711 24.6153 3.03711 24.2297V18.1445C3.03711 17.7865 3.34004 17.4561 3.72559 17.4561H43.3745C43.76 17.4561 44.063 17.7865 44.063 18.1445V24.2573C44.063 24.6153 43.76 24.9182 43.4296 24.9182ZM4.41406 23.5688H42.7411V18.8055H4.41406V23.5688Z" fill="black"/>
<path fill-rule="evenodd" clip-rule="evenodd" d="M43.4296 40.2538H3.72559C3.34004 40.2538 3.03711 39.9509 3.03711 39.5654V28.5525C3.03711 28.1669 3.34004 27.864 3.72559 27.864H43.3745C43.76 27.864 44.063 28.1669 44.063 28.5525V39.5663C44.063 39.9784 43.76 40.2538 43.4296 40.2538ZM4.41406 38.9329H42.7411V29.241H4.41406V38.9329Z" fill="black"/>
<path fill-rule="evenodd" clip-rule="evenodd" d="M37.5107 37.6661C37.1252 37.6661 36.8223 37.3632 36.8223 36.9776V31.2229C36.8223 30.8374 37.1252 30.5344 37.5107 30.5344C37.8963 30.5344 38.1992 30.8374 38.1992 31.2229V37.0052C38.1992 37.3632 37.8963 37.6661 37.5107 37.6661Z" fill="black"/>
<path fill-rule="evenodd" clip-rule="evenodd" d="M35.4442 36.8119C35.279 36.8119 35.0862 36.7568 34.9761 36.6192C34.7007 36.3713 34.7007 35.9582 34.9761 35.6828L39.0785 31.5804C39.3263 31.3326 39.7394 31.3326 40.0148 31.5804C40.2902 31.8558 40.2902 32.2689 40.0148 32.5443L35.8849 36.6192C35.7747 36.7568 35.637 36.8119 35.4442 36.8119Z" fill="black"/>
<path fill-rule="evenodd" clip-rule="evenodd" d="M40.4006 34.7754H34.5908C34.2053 34.7754 33.9023 34.4449 33.9023 34.0869C33.9023 33.7014 34.2053 33.3984 34.5908 33.3984H40.4006C40.7862 33.3984 41.0891 33.7014 41.0891 34.0869C41.0891 34.4449 40.7587 34.7754 40.4006 34.7754Z" fill="black"/>
<path fill-rule="evenodd" clip-rule="evenodd" d="M39.5211 36.8124C39.3834 36.8124 39.1906 36.7573 39.0804 36.6196L34.978 32.5172C34.7026 32.2418 34.7026 31.8287 34.978 31.5533C35.2534 31.278 35.6665 31.278 35.9419 31.5533L40.0168 35.6282C40.2921 35.9036 40.2921 36.3167 40.0168 36.5921C39.8791 36.7573 39.7138 36.8124 39.5211 36.8124Z" fill="black"/>
<path fill-rule="evenodd" clip-rule="evenodd" d="M28.2314 37.6661C27.8459 37.6661 27.543 37.3632 27.543 36.9776V31.2229C27.543 30.8374 27.8459 30.5344 28.2314 30.5344C28.617 30.5344 28.9199 30.8374 28.9199 31.2229V37.0052C28.8648 37.3632 28.5619 37.6661 28.2314 37.6661Z" fill="black"/>
<path fill-rule="evenodd" clip-rule="evenodd" d="M26.1658 36.8119C25.973 36.8119 25.8078 36.7568 25.6976 36.6192C25.4498 36.3713 25.4498 35.9582 25.6976 35.6828L29.8275 31.5804C30.1029 31.3326 30.516 31.3326 30.7914 31.5804C31.0393 31.8558 31.0393 32.2689 30.7914 32.5443L26.6339 36.6192C26.4962 36.7568 26.3035 36.8119 26.1658 36.8119Z" fill="black"/>
<path fill-rule="evenodd" clip-rule="evenodd" d="M31.1215 34.7754H25.2842C24.8986 34.7754 24.5957 34.445 24.5957 34.087C24.5957 33.7014 24.9537 33.426 25.2842 33.426H31.1215C31.5071 33.426 31.81 33.729 31.81 34.1145C31.81 34.5 31.5071 34.7754 31.1215 34.7754Z" fill="black"/>
<path fill-rule="evenodd" clip-rule="evenodd" d="M30.297 36.8124C30.1318 36.8124 29.939 36.7573 29.8289 36.6196L25.6714 32.5172C25.396 32.2418 25.396 31.8287 25.6714 31.5533C25.9468 31.278 26.3599 31.278 26.6353 31.5533L30.7377 35.6282C31.013 35.9036 31.013 36.3167 30.7377 36.5921C30.6275 36.7573 30.4347 36.8124 30.297 36.8124Z" fill="black"/>
<path fill-rule="evenodd" clip-rule="evenodd" d="M18.9521 37.6661C18.5666 37.6661 18.2637 37.3632 18.2637 36.9776V31.2229C18.2637 30.8374 18.5666 30.5344 18.9521 30.5344C19.3377 30.5344 19.6406 30.8374 19.6406 31.2229V37.0052C19.6406 37.3632 19.3377 37.6661 18.9521 37.6661Z" fill="black"/>
<path fill-rule="evenodd" clip-rule="evenodd" d="M16.8865 36.8119C16.7212 36.8119 16.556 36.7568 16.4183 36.6192C16.1705 36.3713 16.1705 35.9582 16.4183 35.6828L20.5207 31.5804C20.7686 31.3326 21.2092 31.3326 21.457 31.5804C21.7324 31.8558 21.7324 32.2689 21.457 32.5443L17.3546 36.6192C17.2169 36.7568 17.0792 36.8119 16.8865 36.8119Z" fill="black"/>
<path fill-rule="evenodd" clip-rule="evenodd" d="M21.8438 34.7754H16.0615C15.676 34.7754 15.373 34.4449 15.373 34.0869C15.373 33.7014 15.676 33.3984 16.0615 33.3984H21.8438C22.2294 33.3984 22.5323 33.7014 22.5323 34.0869C22.5323 34.4449 22.2018 34.7754 21.8438 34.7754Z" fill="black"/>
<path fill-rule="evenodd" clip-rule="evenodd" d="M20.9633 36.8124C20.8256 36.8124 20.6328 36.7573 20.5227 36.6196L16.4203 32.5172C16.1724 32.2418 16.1724 31.8287 16.4203 31.5533C16.6957 31.278 17.1087 31.278 17.3841 31.5533L21.459 35.6282C21.7344 35.9036 21.7344 36.3167 21.459 36.5921C21.3204 36.7573 21.1561 36.8124 20.9633 36.8124Z" fill="black"/>
<path fill-rule="evenodd" clip-rule="evenodd" d="M9.67285 37.6661C9.2873 37.6661 8.98438 37.3632 8.98438 36.9776V31.2229C8.98438 30.8374 9.2873 30.5344 9.67285 30.5344C10.0584 30.5344 10.3613 30.8374 10.3613 31.2229V37.0052C10.3338 37.3632 10.0033 37.6661 9.67285 37.6661Z" fill="black"/>
<path fill-rule="evenodd" clip-rule="evenodd" d="M7.60718 36.8119C7.46948 36.8119 7.27671 36.7568 7.13901 36.6192C6.89116 36.3713 6.89116 35.9582 7.13901 35.6828L11.269 31.5804C11.5443 31.3326 11.9574 31.3326 12.2328 31.5804C12.5082 31.8558 12.5082 32.2689 12.2328 32.5443L8.07534 36.6192C7.96519 36.7568 7.77241 36.8119 7.60718 36.8119Z" fill="black"/>
<path fill-rule="evenodd" clip-rule="evenodd" d="M12.564 34.7754H6.72754C6.34199 34.7754 6.03906 34.4449 6.03906 34.0869C6.03906 33.7014 6.34199 33.3984 6.72754 33.3984H12.5649C12.9504 33.3984 13.2534 33.7014 13.2534 34.0869C13.2525 34.4449 12.9495 34.7754 12.564 34.7754Z" fill="black"/>
<path fill-rule="evenodd" clip-rule="evenodd" d="M11.7384 36.8124C11.5732 36.8124 11.3804 36.7573 11.2703 36.6196L7.11279 32.5172C6.8374 32.2418 6.8374 31.8287 7.11279 31.5533C7.38818 31.278 7.80127 31.278 8.07666 31.5533L12.1791 35.6282C12.4545 35.9036 12.4545 36.3167 12.1791 36.5921C12.068 36.7573 11.8752 36.8124 11.7384 36.8124Z" fill="black"/>
<path fill-rule="evenodd" clip-rule="evenodd" d="M19.0895 12.7482C18.7315 12.7482 18.401 12.4177 18.401 12.0597C18.401 11.6741 18.7315 11.3712 19.0895 11.3712C20.9622 11.3712 22.5034 9.82902 22.5034 7.95728V4.0752C22.5034 3.68965 22.8064 3.38672 23.1919 3.38672C23.5775 3.38672 23.8804 3.68965 23.8804 4.0752V8.01236C23.8253 10.601 21.7048 12.7482 19.0895 12.7482ZM15.0146 10.3807C14.6291 10.3807 14.3262 10.0778 14.3262 9.69225V4.90137C14.3262 4.54336 14.6291 4.26797 15.0146 4.26797C15.4002 4.26797 15.7031 4.5709 15.7031 4.90137V9.71978C15.7031 10.0778 15.4002 10.3807 15.0146 10.3807Z" fill="black"/>
<path fill-rule="evenodd" clip-rule="evenodd" d="M17.189 7.76416C16.9962 7.76416 16.8585 7.70908 16.7208 7.57139L14.5453 5.36826C14.2974 5.09287 14.2974 4.67979 14.5453 4.40439C14.8207 4.15654 15.2337 4.15654 15.5091 4.40439L17.6847 6.63506C17.9601 6.88291 17.9601 7.32354 17.6847 7.57139C17.547 7.70908 17.3542 7.76416 17.189 7.76416Z" fill="black"/>
<path fill-rule="evenodd" clip-rule="evenodd" d="M23.1372 4.76334C21.8153 4.76334 20.7422 3.68932 20.7422 2.34082C20.7422 1.04648 21.8162 0 23.1372 0C24.4581 0 25.5046 1.04648 25.5046 2.34082C25.5055 3.66178 24.4866 4.76334 23.1372 4.76334ZM23.1372 1.32188C22.5864 1.32188 22.0907 1.79004 22.0907 2.34082C22.0907 2.97422 22.5313 3.41484 23.1372 3.41484C23.7155 3.41484 24.1837 2.97422 24.1837 2.34082C24.1837 1.79004 23.7155 1.32188 23.1372 1.32188Z" fill="black"/>
</svg>
