<svg width="53" height="53" viewBox="0 0 53 53" fill="none" xmlns="http://www.w3.org/2000/svg">
<path d="M18.7441 0.230035C17.9668 0.536577 17.1676 1.33577 16.872 2.13497C16.6202 2.79185 16.5546 4.03991 16.7516 4.53257C16.8392 4.78437 16.7954 4.85005 16.2809 5.25513C15.3065 6.02148 13.5877 7.78409 12.8104 8.8132C12.0112 9.87515 10.9492 11.5721 10.9492 11.791C10.9492 11.9005 12.3396 12.6997 12.5148 12.6997C12.5476 12.6997 12.7885 12.3165 13.0512 11.8458C14.0803 10.0941 15.5583 8.33149 17.0691 7.06153L17.934 6.34992L18.5142 6.64551C19.0288 6.91921 19.2149 6.95205 20.1455 6.95205C21.0213 6.95205 21.2731 6.90826 21.722 6.6893C22.7949 6.1638 23.4955 5.17849 23.6378 4.00706L23.7035 3.44872L24.4152 3.26261C25.9369 2.84659 27.4149 2.70426 29.5607 2.76995C30.7868 2.81374 31.8816 2.90133 32.3414 3.01081C32.7575 3.09839 33.1078 3.16408 33.1187 3.15313C33.1625 3.08744 33.5019 1.64232 33.5019 1.49999C33.5019 1.2263 31.794 0.963546 29.5826 0.908806C27.382 0.843119 26.0902 0.952598 24.3495 1.36862L23.2437 1.63137L22.5978 0.996389C22.1599 0.569421 21.7658 0.30667 21.4045 0.186244C20.671 -0.0655584 19.4776 -0.0436621 18.7441 0.230035ZM20.9994 2.08023C22.4226 2.94512 21.8095 5.14565 20.1455 5.14565C19.2149 5.14565 18.5033 4.43403 18.5033 3.50346C18.5033 2.91227 18.7989 2.38677 19.2915 2.08023C19.5105 1.94886 19.8499 1.86127 20.1455 1.86127C20.4411 1.86127 20.7804 1.94886 20.9994 2.08023Z" fill="#191919"/>
<path d="M40.5088 0.21892C40.3227 0.405033 40.2899 0.5802 40.2899 1.29181V2.14575L39.8958 2.28807L39.5016 2.4304L38.9323 1.87206C38.4506 1.39035 38.3083 1.31371 37.9361 1.31371C37.531 1.31371 37.4215 1.39035 36.053 2.76978C34.6736 4.13827 34.597 4.24775 34.597 4.65282C34.597 5.02505 34.6736 5.16738 35.1553 5.64908L35.7137 6.21838L35.5713 6.6125L35.429 7.00663H34.5751C33.2613 7.00663 33.2832 6.95189 33.2832 9.63412C33.2832 12.3164 33.2613 12.2616 34.5751 12.2616H35.429L35.5713 12.6557L35.7137 13.0499L35.1553 13.6192C34.6736 14.1009 34.597 14.2432 34.597 14.6154C34.597 15.0205 34.6736 15.13 36.053 16.4985C37.4215 17.8779 37.531 17.9545 37.9361 17.9545C38.3083 17.9545 38.4506 17.8779 38.9433 17.3962C39.4907 16.8379 39.5235 16.8269 39.841 16.9692C40.1585 17.1006 40.1804 17.1444 40.1804 17.6699C40.1804 18.4144 40.3556 19.0165 40.6183 19.1588C40.7388 19.2245 41.735 19.2683 42.9612 19.2683C45.5887 19.2683 45.5449 19.2902 45.5449 17.9764V17.1225L45.939 16.9802L46.3331 16.8379L46.9024 17.3962C47.3841 17.8779 47.5265 17.9545 47.8987 17.9545C48.3038 17.9545 48.4132 17.8779 49.7817 16.4985C51.1612 15.13 51.2378 15.0205 51.2378 14.6154C51.2378 14.2432 51.1612 14.1009 50.6795 13.6192L50.1211 13.0499L50.2634 12.6557L50.4058 12.2616H51.2597C52.5734 12.2616 52.5516 12.3164 52.5516 9.63412C52.5516 6.95189 52.5734 7.00663 51.2597 7.00663H50.4058L50.2634 6.6125L50.1211 6.21838L50.6795 5.64908C51.1612 5.16738 51.2378 5.02505 51.2378 4.65282C51.2378 4.24775 51.1612 4.13827 49.7817 2.76978C48.4132 1.39035 48.3038 1.31371 47.8987 1.31371C47.5265 1.31371 47.3841 1.39035 46.9024 1.87206L46.3331 2.4304L45.939 2.28807L45.5449 2.14575V1.29181C45.5449 -0.0219345 45.5996 -3.8147e-05 42.9174 -3.8147e-05C40.8701 -3.8147e-05 40.7169 0.0109081 40.5088 0.21892ZM43.7932 2.49609C43.7932 2.92305 43.848 3.31718 43.9355 3.42666C44.0012 3.52519 44.4063 3.7332 44.8333 3.88647C45.2493 4.03974 45.6982 4.2368 45.8405 4.32439C45.9719 4.41197 46.2675 4.48861 46.4974 4.48861C46.8258 4.48861 46.99 4.40102 47.3732 4.02879L47.844 3.56898L48.4132 4.13827L48.9825 4.70756L48.5227 5.17832C48.1505 5.5615 48.0629 5.72572 48.0629 6.05416C48.0629 6.28406 48.1395 6.57966 48.2271 6.71103C48.3147 6.85335 48.5118 7.30222 48.665 7.71824C48.8183 8.14521 49.0263 8.55028 49.1249 8.61597C49.2343 8.70355 49.6285 8.75829 50.0554 8.75829H50.7999V9.63412V10.51H50.0773C49.6832 10.51 49.2672 10.5537 49.1577 10.6194C49.0482 10.6851 48.7964 11.134 48.5994 11.6595C48.4132 12.174 48.2052 12.6229 48.1614 12.6557C48.1067 12.6886 48.0629 12.9185 48.0629 13.1703C48.0629 13.5535 48.1286 13.6958 48.5227 14.0899L48.9825 14.5607L48.4132 15.13L47.844 15.6993L47.3732 15.2395C46.99 14.8672 46.8258 14.7796 46.4974 14.7796C46.2675 14.7796 45.9719 14.8563 45.8405 14.9439C45.6982 15.0314 45.2493 15.2285 44.8333 15.3818C44.4063 15.535 44.0012 15.7431 43.9355 15.8416C43.848 15.9511 43.7932 16.3452 43.7932 16.7722V17.5166H42.9174H42.0416V16.7503C42.0416 15.8197 41.9211 15.6664 40.9249 15.338C40.5307 15.2066 40.1147 15.0314 40.0052 14.9439C39.8958 14.8563 39.6002 14.7796 39.3593 14.7796C38.998 14.7796 38.8557 14.8563 38.4616 15.2395L37.9908 15.6993L37.4215 15.13L36.8522 14.5607L37.3121 14.0899C37.6952 13.6958 37.7719 13.5535 37.7719 13.1812C37.7719 12.9404 37.6952 12.6339 37.6077 12.5025C37.5091 12.3711 37.3121 11.9332 37.1697 11.5281C37.0165 11.1121 36.8085 10.718 36.7099 10.6413C36.6004 10.5647 36.2063 10.51 35.7794 10.51H35.0349V9.63412V8.75829H35.7794C36.2063 8.75829 36.6004 8.70355 36.7099 8.61597C36.8085 8.55028 37.0165 8.15616 37.1697 7.74014C37.3121 7.33506 37.5091 6.89715 37.6077 6.76577C37.6952 6.6344 37.7719 6.32786 37.7719 6.087C37.7719 5.71477 37.6952 5.57245 37.3121 5.17832L36.8522 4.70756L37.4215 4.13827L37.9908 3.56898L38.4616 4.02879C38.8557 4.41197 38.998 4.48861 39.3593 4.48861C39.6002 4.48861 39.8958 4.41197 40.0052 4.32439C40.1147 4.2368 40.5307 4.06164 40.9249 3.93026C41.9211 3.60182 42.0416 3.44855 42.0416 2.51798V1.75163H42.9174H43.7932V2.49609Z" fill="#191919"/>
<path d="M41.4183 5.46316C40.2688 5.89013 39.4477 6.63459 38.8893 7.77317C38.6156 8.32057 38.5938 8.48478 38.5938 9.63432C38.5938 10.8057 38.6156 10.9371 38.9112 11.5502C39.3273 12.3932 40.1593 13.2252 41.0023 13.6413C41.6154 13.9368 41.7467 13.9587 42.9182 13.9587C44.0896 13.9587 44.221 13.9368 44.8341 13.6413C45.677 13.2252 46.5091 12.3932 46.9251 11.5502C47.2207 10.9371 47.2426 10.8057 47.2426 9.63432C47.2426 8.46289 47.2207 8.33151 46.9251 7.71843C46.5091 6.87544 45.677 6.0434 44.8341 5.63833C44.2648 5.35368 44.0349 5.30989 43.0824 5.27705C42.2175 5.25515 41.8672 5.29894 41.4183 5.46316ZM43.8816 7.29146C45.5566 7.98118 45.9726 10.2146 44.6589 11.4626C43.0496 12.9844 40.4002 11.8567 40.4002 9.63432C40.4002 8.649 40.9585 7.78412 41.8781 7.30241C42.3051 7.0725 43.3561 7.0725 43.8816 7.29146Z" fill="#191919"/>
<path d="M10.6975 14.1886C5.50817 15.1301 1.28227 19.2793 0.231275 24.4905C-0.0533711 25.87 -0.0752669 28.2238 0.165587 29.5485C0.77867 32.7562 2.60697 35.7231 5.16878 37.628L6.1322 38.3506L6.1541 40.0037C6.16504 40.9124 6.1541 42.0838 6.14315 42.5984C6.09936 43.6822 6.30737 44.2844 6.87666 44.8208C7.1613 45.0836 7.19415 45.1712 7.10656 45.4011C6.92045 45.9047 6.98614 47.1856 7.23794 47.7001C7.47879 48.2037 8.11377 48.7949 8.5079 48.8934C8.68306 48.9372 8.80349 49.1343 8.97866 49.627C9.56984 51.4224 11.1792 52.55 13.1389 52.55C15.0985 52.55 16.7079 51.4224 17.2991 49.627C17.4742 49.1343 17.5947 48.9372 17.7698 48.8934C18.164 48.7949 18.7989 48.2037 19.0398 47.7001C19.2916 47.1856 19.3573 45.9047 19.1712 45.4011C19.0836 45.1712 19.1164 45.0836 19.4011 44.8208C19.9704 44.2844 20.1784 43.6822 20.1346 42.5984C20.1236 42.0838 20.1127 40.9124 20.1236 40.0037L20.1455 38.3506L21.1089 37.628C23.6708 35.7231 25.4991 32.7562 26.1121 29.5485C26.353 28.2238 26.3311 25.87 26.0465 24.4905C24.9736 19.2137 20.7586 15.0972 15.5036 14.1776C14.2993 13.9696 11.8689 13.9806 10.6975 14.1886ZM15.2737 16.0497C19.4558 16.8489 22.7949 19.9362 24.043 24.1402C24.4371 25.4649 24.5356 27.8625 24.251 29.2419C23.9992 30.49 23.4627 31.8913 22.8168 32.9752C22.138 34.1028 20.6163 35.7122 19.5215 36.4566C19.0507 36.7741 18.6019 37.1135 18.5362 37.2011C18.4377 37.3215 18.3939 37.8251 18.3939 38.8323V40.2884H16.2043H14.0147V39.4126V38.5367H13.1389H12.263V39.4126V40.2884H10.0734H7.88387V38.8323C7.88387 37.8251 7.84007 37.3215 7.75249 37.2011C7.67585 37.1135 7.22699 36.7741 6.75623 36.4566C5.66144 35.7122 4.13968 34.1028 3.46091 32.9752C2.81498 31.8913 2.27853 30.49 2.02673 29.2419C1.74209 27.8625 1.84062 25.4649 2.23474 24.1402C3.94262 18.3926 9.49321 14.944 15.2737 16.0497ZM17.7917 42.1933C18.4595 42.478 18.4595 43.3538 17.7917 43.6384C17.2334 43.8684 9.04434 43.8684 8.486 43.6384C7.82913 43.3647 7.81818 42.478 8.4641 42.2043C8.9896 41.9744 17.2443 41.9744 17.7917 42.1933ZM16.9487 45.6638C17.6275 45.8937 17.6275 46.9447 16.9487 47.1746C16.4889 47.3388 9.7888 47.3388 9.32899 47.1746C8.68306 46.9557 8.65022 45.9047 9.2852 45.6638C9.70122 45.5215 16.5108 45.5105 16.9487 45.6638ZM15.3941 49.3423C14.9781 50.1415 14.0694 50.6889 13.1389 50.6889C12.2083 50.6889 11.2996 50.1415 10.8836 49.3423L10.7194 49.0467H13.1389H15.5584L15.3941 49.3423Z" fill="#191919"/>
<path d="M11.9893 18.6007C11.4528 18.8525 10.9054 19.4108 10.6865 19.9473C10.4456 20.5056 10.4675 21.6223 10.7193 22.1697C10.9164 22.6186 11.5404 23.2426 12.0002 23.4506L12.263 23.571V30.1836V36.7852H13.1388H14.0146L14.0256 30.1836V23.5929L14.5401 23.2645C15.3393 22.7499 15.7006 22.1478 15.7444 21.2391C15.7663 20.8231 15.7335 20.3195 15.6568 20.0896C15.4817 19.5422 14.8357 18.8415 14.2883 18.6007C13.6971 18.327 12.5695 18.327 11.9893 18.6007ZM13.6862 20.4728C13.8066 20.5932 13.9052 20.834 13.9052 21.0202C13.9052 21.2063 13.8066 21.4471 13.6862 21.5676C13.5658 21.688 13.3249 21.7865 13.1388 21.7865C12.9527 21.7865 12.7118 21.688 12.5914 21.5676C12.471 21.4471 12.3725 21.2063 12.3725 21.0202C12.3725 20.834 12.471 20.5932 12.5914 20.4728C12.7118 20.3523 12.9527 20.2538 13.1388 20.2538C13.3249 20.2538 13.5658 20.3523 13.6862 20.4728Z" fill="#191919"/>
<path d="M5.85883 23.8555C4.90636 24.2934 4.38086 25.1693 4.38086 26.2969C4.38086 27.1509 4.63266 27.7311 5.22385 28.2566C5.82598 28.804 6.31864 28.9463 7.34774 28.8697C8.15789 28.8149 8.20168 28.8259 8.47538 29.1105L8.76002 29.4061V32.6576V35.9092H9.63586H10.5117V32.1869V28.4537L10.03 27.9391L9.54827 27.4245L9.60301 26.5925C9.6468 26.078 9.61396 25.5962 9.52638 25.3444C9.35121 24.797 8.70528 24.0964 8.15789 23.8555C7.5667 23.5818 6.43907 23.5818 5.85883 23.8555ZM7.55575 25.7276C7.67618 25.848 7.77471 26.0889 7.77471 26.275C7.77471 26.4611 7.67618 26.702 7.55575 26.8224C7.08499 27.2932 6.242 26.9428 6.242 26.275C6.242 25.859 6.59234 25.5087 7.00836 25.5087C7.19447 25.5087 7.43533 25.6072 7.55575 25.7276Z" fill="#191919"/>
<path d="M18.1194 23.8555C17.572 24.0964 16.9261 24.797 16.7509 25.3444C16.6634 25.5962 16.6305 26.078 16.6743 26.5925L16.729 27.4245L16.2473 27.9391L15.7656 28.4537V32.1869V35.9092H16.6415H17.5173V32.6576V29.4061L17.8019 29.1105C18.0756 28.8259 18.1194 28.8149 18.9296 28.8697C19.9587 28.9463 20.4513 28.804 21.0535 28.2566C21.6556 27.7201 21.8965 27.1508 21.8965 26.275C21.8965 25.1364 21.3162 24.2278 20.3419 23.8227C19.7835 23.5818 18.6668 23.6037 18.1194 23.8555ZM19.8164 25.7276C19.9368 25.848 20.0353 26.0889 20.0353 26.275C20.0353 26.4611 19.9368 26.702 19.8164 26.8224C19.6959 26.9428 19.4551 27.0414 19.269 27.0414C19.0828 27.0414 18.842 26.9428 18.7216 26.8224C18.6011 26.702 18.5026 26.4611 18.5026 26.275C18.5026 26.0889 18.6011 25.848 18.7216 25.7276C18.842 25.6072 19.0828 25.5087 19.269 25.5087C19.4551 25.5087 19.6959 25.6072 19.8164 25.7276Z" fill="#191919"/>
<path d="M47.6688 19.2357L47.209 19.2795L47.1543 21.4363C47.1105 23.0675 47.0448 23.8667 46.8696 24.6878C46.0704 28.3663 44.2202 31.6945 41.5599 34.2453L40.8373 34.935L40.5198 34.7161C40.0053 34.3438 39.3375 34.1577 38.5273 34.1577C36.5129 34.1577 35.0349 35.6029 35.0349 37.5954V38.2851L34.2139 38.5259C32.1556 39.139 31.4002 39.2376 28.8494 39.2376C26.2 39.2376 25.2037 39.0952 23.1784 38.4165C22.6419 38.2413 22.193 38.099 22.1821 38.099C22.0726 38.099 21.5581 39.774 21.6347 39.8506C21.8099 40.0149 23.8133 40.5951 25.0723 40.8579C26.189 41.0768 26.6379 41.1097 28.9589 41.1097C31.8053 41.0987 32.4731 41.0111 34.8269 40.3105L35.8779 40.0039L36.3377 40.409C36.9727 40.9783 37.6843 41.1972 38.7353 41.1425C39.7535 41.0987 40.4542 40.7922 41.1329 40.1024C41.8117 39.3908 42.0745 38.6135 42.0197 37.4202L41.9759 36.4677L43.0598 35.3948C44.8881 33.5884 46.169 31.793 47.1871 29.6143C48.479 26.8664 49.0483 24.228 49.0483 20.9764V19.1591L48.5885 19.181C48.3257 19.1919 47.9097 19.2138 47.6688 19.2357ZM39.3922 36.2378C40.8154 37.1027 40.2024 39.3032 38.5383 39.3032C36.8742 39.3032 36.2611 37.1027 37.6843 36.2378C38.1551 35.9532 38.9215 35.9532 39.3922 36.2378Z" fill="#191919"/>
</svg>
