<svg width="45" height="45" viewBox="0 0 45 45" fill="none" xmlns="http://www.w3.org/2000/svg">
<path d="M20.3057 0.467346C17.711 0.938282 16.0212 1.58466 14.1651 2.84049C12.9739 3.65309 11.2749 5.37985 10.4438 6.62644C10.0744 7.17125 9.77895 7.66065 9.77895 7.69759C9.77895 7.74376 9.18798 7.79916 8.46772 7.82686C7.50738 7.85456 6.96258 7.92844 6.46394 8.06695C3.41671 8.95341 1.13591 11.2527 0.249443 14.3184C0.0647629 14.9555 0.0370608 15.251 0.0370608 16.6638C0.0370608 18.0766 0.0647629 18.3721 0.249443 19.0093C1.13591 22.075 3.39824 24.3465 6.46394 25.2607C7.07339 25.4454 7.41505 25.4731 9.48347 25.5008L11.8104 25.547V26.9228C11.8104 27.9663 11.8474 28.391 11.9582 28.6496C12.2444 29.3514 13.0663 29.9516 13.7311 29.9608H14.0266V31.4383V32.9157H9.91747C6.27926 32.9157 5.80832 32.8972 5.80832 32.7772C5.80832 32.5002 5.4205 31.8815 5.0142 31.4752C3.93382 30.4225 1.95774 30.4225 0.877357 31.4752C0.258677 32.0846 0.0555288 32.5463 0.00935874 33.4697C-0.0183433 34.1161 0.00935874 34.347 0.175571 34.7902C0.729612 36.2769 2.51178 37.0064 4.10003 36.4154C4.77411 36.1661 5.46667 35.4828 5.68828 34.8548L5.85449 34.3931H10.49C15.0146 34.3931 15.1439 34.3839 15.3194 34.2085C15.4948 34.033 15.504 33.9037 15.504 31.9923V29.9608H16.2428H16.9815V32.9157V35.8706H13.8419C10.8224 35.8706 10.6931 35.8798 10.5177 36.0553C10.3515 36.2215 10.333 36.36 10.333 37.5697V38.8901L10.0744 38.9455C9.40036 39.084 8.42155 40.0721 8.20917 40.8385C8.05219 41.411 8.09836 42.3713 8.31074 42.9346C9.02176 44.8461 11.7181 45.3724 13.1955 43.9042C14.3036 42.7869 14.3221 40.82 13.2509 39.7119C12.8447 39.3056 12.226 38.9178 11.9489 38.9178C11.8381 38.9178 11.8104 38.7793 11.8104 38.1329V37.348H14.95C17.9695 37.348 18.0988 37.3388 18.2743 37.1634C18.4497 36.9879 18.4589 36.8586 18.4589 33.4697V29.9608H19.9364H21.4138V33.6914V37.4127L21.1553 37.4681C20.4812 37.6066 19.5024 38.5946 19.29 39.3611C19.133 39.9336 19.1792 40.8939 19.3916 41.4572C20.1026 43.3686 22.7989 43.895 24.2764 42.4267C25.3845 41.3094 25.4029 39.3426 24.3318 38.2345C23.9255 37.8282 23.3068 37.4404 23.0298 37.4404C22.9097 37.4404 22.8913 37.0064 22.8913 33.7006V29.9608H24.3687H25.8462V33.4697C25.8462 36.8586 25.8554 36.9879 26.0308 37.1634C26.2063 37.3388 26.3356 37.348 29.3551 37.348H32.4946V38.1237C32.4946 38.8901 32.4946 38.8994 32.2361 38.9455C31.562 39.084 30.5832 40.0721 30.3708 40.8385C30.2138 41.411 30.26 42.3713 30.4724 42.9346C31.1834 44.8461 33.8798 45.3724 35.3572 43.9042C36.4653 42.7869 36.4837 40.82 35.4126 39.7119C35.0063 39.3056 34.3876 38.9178 34.1106 38.9178C33.9906 38.9178 33.9721 38.7239 33.9721 37.5789C33.9721 36.36 33.9536 36.2215 33.7874 36.0553C33.612 35.8798 33.4827 35.8706 30.4632 35.8706H27.3236V32.9157V29.9608H28.0623H28.801V31.9923C28.801 33.9037 28.8103 34.033 28.9857 34.2085C29.1612 34.3839 29.2904 34.3931 33.8336 34.3931C37.9704 34.3931 38.4968 34.4116 38.4968 34.5317C38.4968 34.8087 38.8846 35.4274 39.2909 35.8337C40.399 36.9048 42.3658 36.8863 43.4831 35.7783C44.5912 34.6609 44.6097 32.6941 43.5385 31.586C42.9291 30.9673 42.4674 30.7642 41.544 30.718C40.556 30.6718 39.8911 30.8935 39.2909 31.4752C38.8846 31.8815 38.4968 32.5002 38.4968 32.7772C38.4968 32.8972 38.0258 32.9157 34.3876 32.9157H30.2785V31.4383V29.9608H30.5832C31.2388 29.9516 32.0606 29.3514 32.3469 28.6496C32.4577 28.391 32.4946 27.957 32.4946 26.9136V25.5285H35.2464C38.4506 25.5285 38.8661 25.4638 40.3436 24.7251C41.0823 24.3558 41.3593 24.1434 42.1073 23.4047C43.0953 22.4259 43.5939 21.6502 44.0095 20.4036C44.2403 19.7203 44.2588 19.5541 44.2588 18.1413C44.2588 16.7285 44.2403 16.5622 44.0095 15.8789C43.5939 14.6323 43.0953 13.8567 42.1073 12.8686C41.3501 12.1207 41.0823 11.9175 40.3436 11.5482C39.1154 10.948 38.2751 10.754 36.8808 10.754H35.7635L35.5142 9.97839C34.8586 7.96537 33.7228 6.15551 32.0791 4.52108C30.0938 2.52654 28.0346 1.37228 25.2921 0.716667C24.4518 0.513519 24.0732 0.476582 22.4296 0.458115C21.3861 0.439644 20.435 0.448879 20.3057 0.467346ZM23.5099 2.0279C24.9874 2.14794 27.0096 2.81279 28.3947 3.62539C31.3219 5.34291 33.455 8.15005 34.2583 11.3358C34.5169 12.3608 34.7108 12.5639 35.4034 12.4623C36.5484 12.2961 36.9916 12.2777 37.5734 12.3331C39.7895 12.5732 41.7841 14.1891 42.4766 16.3129C42.6613 16.8762 42.6982 17.1717 42.6982 18.1413C42.6982 19.1108 42.6613 19.4063 42.4766 19.9788C41.9226 21.6594 40.4728 23.1092 38.783 23.6817C37.9335 23.9679 36.9731 24.051 34.5723 24.051H32.4485L32.2546 23.6817L32.0514 23.3216L32.273 22.8876C32.4854 22.4628 32.4946 22.3797 32.4946 20.3574C32.4946 18.3444 32.4854 18.2521 32.273 17.8365L32.0606 17.4025L32.273 16.9685C32.4854 16.553 32.4946 16.4607 32.4946 14.4754C32.4946 12.1946 32.4577 11.9822 31.9129 11.4097C31.7467 11.2435 31.4512 11.0218 31.2481 10.9295C30.8972 10.7633 30.4539 10.754 22.171 10.754C12.5676 10.754 13.1124 10.7171 12.4661 11.3358C11.8566 11.9175 11.8104 12.1299 11.8104 14.4569C11.8104 16.4699 11.8197 16.553 12.0321 16.9685L12.2444 17.4025L12.0321 17.8365C11.8197 18.2521 11.8104 18.3444 11.8104 20.3574C11.8104 22.3797 11.8197 22.4628 12.0321 22.8876L12.2537 23.3216L12.0505 23.7001L11.8566 24.0695L9.91747 24.0233C7.59973 23.9679 6.97181 23.8479 5.66981 23.22C4.08156 22.4443 3.07505 21.4378 2.2994 19.8496C2.05008 19.3417 1.78229 18.6307 1.70842 18.2613C1.52374 17.4118 1.52374 15.9159 1.70842 15.0663C1.8931 14.1983 2.63182 12.6932 3.20433 12.0099C3.88765 11.188 4.64484 10.6063 5.66981 10.1077C6.84254 9.53516 7.6736 9.35048 8.93866 9.37818C9.47423 9.38741 10.0467 9.39664 10.213 9.39664C10.6008 9.40588 10.7301 9.28584 11.1548 8.50095C12.9001 5.35214 15.7903 3.12675 19.2346 2.29568C20.2596 2.0556 21.7093 1.88939 22.4296 1.94479C22.6604 1.96326 23.1498 2.00019 23.5099 2.0279ZM30.5001 12.3608C30.9341 12.5454 31.0172 12.8594 31.0172 14.4477C31.0172 16.0359 30.9341 16.3499 30.5001 16.5345C30.0384 16.7285 14.2667 16.7285 13.805 16.5345C13.371 16.3499 13.2879 16.0359 13.2879 14.4477C13.2879 12.8871 13.371 12.5454 13.7865 12.3608C14.2205 12.1761 30.0476 12.1761 30.5001 12.3608ZM30.5001 18.2705C30.9341 18.4552 31.0172 18.7692 31.0172 20.3574C31.0172 21.9457 30.9341 22.2596 30.5001 22.4443C30.0384 22.6382 14.2667 22.6382 13.805 22.4443C13.371 22.2596 13.2879 21.9457 13.2879 20.3574C13.2879 18.7969 13.371 18.4552 13.7865 18.2705C14.2205 18.0859 30.0476 18.0859 30.5001 18.2705ZM30.5001 24.1803C30.9341 24.365 31.0172 24.679 31.0172 26.2672C31.0172 27.8555 30.9341 28.1694 30.5001 28.3541C30.0384 28.548 14.2667 28.548 13.805 28.3541C13.371 28.1694 13.2879 27.8555 13.2879 26.2672C13.2879 24.7067 13.371 24.365 13.7865 24.1803C14.2205 23.9956 30.0476 23.9956 30.5001 24.1803ZM3.66603 32.454C4.86645 33.1835 4.34935 35.0395 2.94578 35.0395C1.54221 35.0395 1.0251 33.1835 2.22552 32.454C2.62259 32.2139 3.26897 32.2139 3.66603 32.454ZM42.0796 32.454C43.28 33.1835 42.7629 35.0395 41.3593 35.0395C39.9557 35.0395 39.4386 33.1835 40.6391 32.454C41.0361 32.2139 41.6825 32.2139 42.0796 32.454ZM22.8728 39.1025C24.0732 39.832 23.5561 41.688 22.1525 41.688C21.3677 41.688 20.7674 41.0878 20.7674 40.3029C20.7674 39.518 21.3677 38.9178 22.1525 38.9178C22.4019 38.9178 22.6881 38.9917 22.8728 39.1025ZM11.792 40.5799C12.9924 41.3094 12.4753 43.1655 11.0717 43.1655C9.66815 43.1655 9.15104 41.3094 10.3515 40.5799C10.7485 40.3399 11.3949 40.3399 11.792 40.5799ZM33.9536 40.5799C35.154 41.3094 34.6369 43.1655 33.2334 43.1655C31.8298 43.1655 31.3127 41.3094 32.5131 40.5799C32.9102 40.3399 33.5566 40.3399 33.9536 40.5799Z" fill="black"/>
<path d="M14.7654 14.4476V15.1863H19.1977H23.63V14.4476V13.7088H19.1977H14.7654V14.4476Z" fill="black"/>
<path d="M25.1074 14.4476V15.1863H25.8461H26.5849V14.4476V13.7088H25.8461H25.1074V14.4476Z" fill="black"/>
<path d="M28.0623 14.4476V15.1863H28.801H29.5397V14.4476V13.7088H28.801H28.0623V14.4476Z" fill="black"/>
<path d="M14.7654 20.357V21.0957H19.1977H23.63V20.357V19.6183H19.1977H14.7654V20.357Z" fill="black"/>
<path d="M25.1074 20.357V21.0957H25.8461H26.5849V20.357V19.6183H25.8461H25.1074V20.357Z" fill="black"/>
<path d="M28.0623 20.357V21.0957H28.801H29.5397V20.357V19.6183H28.801H28.0623V20.357Z" fill="black"/>
<path d="M14.7654 26.2671V27.0059H19.1977H23.63V26.2671V25.5284H19.1977H14.7654V26.2671Z" fill="black"/>
<path d="M25.1074 26.2671V27.0059H25.8461H26.5849V26.2671V25.5284H25.8461H25.1074V26.2671Z" fill="black"/>
<path d="M28.0623 26.2671V27.0059H28.801H29.5397V26.2671V25.5284H28.801H28.0623V26.2671Z" fill="black"/>
</svg>
