<svg width="63" height="46" viewBox="0 0 63 46" fill="none" xmlns="http://www.w3.org/2000/svg">
<path d="M0.269149 0.281384L0 0.562767V22.9633V45.3638L0.379255 45.6819L0.758511 46L23.2691 45.9755L45.7798 45.9388L46.0734 45.5963L46.367 45.2537V41.033V36.8245H47.3213H48.2633L49.7314 38.5372L51.1995 40.2378L53.3649 40.25H55.5181L55.7872 40.8005C56.1665 41.5835 57.133 42.4154 57.9649 42.6479C59.8856 43.2106 62.0144 42.1096 62.516 40.2867C62.7606 39.4426 62.6138 38.0601 62.2346 37.3995C61.5005 36.1394 60.3016 35.5277 58.7968 35.6255C57.4144 35.7234 56.2888 36.4697 55.7628 37.6441L55.5303 38.1702L53.9154 38.158H52.3005L50.7713 36.384L49.2543 34.6223H47.8106H46.367V33.0931V31.5638H47.7739H49.1686L50.7346 29.7899L52.2883 28.016H53.9154H55.5426L55.8362 28.6032C56.191 29.3005 56.8394 29.9122 57.6101 30.2548C58.4176 30.6218 59.8122 30.6096 60.5707 30.2426C61.3415 29.8755 62.0021 29.2027 62.3447 28.4564C62.7484 27.5755 62.7484 26.242 62.3447 25.3856C61.5495 23.6973 59.6165 22.9266 57.7569 23.5505C56.9984 23.7952 56.0197 24.7005 55.775 25.3612L55.616 25.8138H53.4505H51.2851L49.7314 27.5878L48.1899 29.3617H47.2723H46.367V15.109C46.367 -0.0734024 46.3793 0.293617 45.8165 0.0734062C45.7064 0.0367012 35.4665 0 23.0734 0H0.526064L0.269149 0.281384ZM44.1649 6.05585V10.0319H23.1223H2.07979V6.05585V2.07979H23.1223H44.1649V6.05585ZM44.1649 20.7979V29.3617H42.6968H41.2287V30.4628V31.5638H42.6968H44.1649V33.0931V34.6223H42.6968H41.2287V35.7234V36.8245H42.6968H44.1649V40.3112V43.7979H23.1223H2.07979V28.016V12.234H23.1223H44.1649V20.7979ZM59.9101 25.7527C60.0814 25.8628 60.3016 26.1564 60.3995 26.4011C60.9133 27.6367 59.4207 28.8846 58.3074 28.1505C57.5489 27.6489 57.3899 26.7191 57.9527 26.0585C58.1239 25.8383 58.3931 25.6181 58.5277 25.5569C58.8702 25.4101 59.5308 25.508 59.9101 25.7527ZM59.8979 38.0112C60.1915 38.1947 60.5585 38.8676 60.5585 39.2101C60.5585 39.5282 60.2282 40.0787 59.8734 40.3601C59.2617 40.8495 58.1729 40.5926 57.8059 39.883C57.0963 38.525 58.6133 37.167 59.8979 38.0112Z" fill="black"/>
<path d="M29.2874 4.20921C28.3699 4.62517 27.9294 5.7874 28.3209 6.7906C28.7369 7.91613 30.0704 8.40549 31.1592 7.84272C32.4683 7.18209 32.6151 5.23687 31.4161 4.39272C30.939 4.05017 29.8502 3.9523 29.2874 4.20921Z" fill="black"/>
<path d="M34.4261 4.20921C33.5085 4.62517 33.0681 5.7874 33.4596 6.7906C33.8755 7.91613 35.2091 8.40549 36.2979 7.84272C37.6069 7.18209 37.7537 5.23687 36.5548 4.39272C36.0777 4.05017 34.9888 3.9523 34.4261 4.20921Z" fill="black"/>
<path d="M39.5641 4.20848C38.9891 4.46539 38.512 5.16273 38.4386 5.86007C38.2918 7.4505 39.9923 8.58826 41.4359 7.84199C42.745 7.18135 42.8918 5.23614 41.6928 4.39199C41.2157 4.04943 40.1269 3.95156 39.5641 4.20848Z" fill="black"/>
<path d="M4.77148 6.05532V7.09521H14.9257H25.08V6.05532V5.01543H14.9257H4.77148V6.05532Z" fill="black"/>
<path d="M20.9319 16.7727C20.4548 16.9684 20.3202 17.2621 20.308 18.1062V18.9014L19.5128 19.2195L18.7298 19.5376L18.3261 19.1094C17.7266 18.4855 17.2372 18.302 16.7356 18.5222C16.5154 18.6078 15.6835 19.3418 14.9005 20.1493C13.1633 21.911 13.1266 22.0456 14.0197 22.9998L14.5824 23.5993L14.3011 24.3333L14.0197 25.0551L13.1755 25.1041C12.4292 25.1408 12.2947 25.1897 12.0378 25.4833C11.7564 25.8137 11.7441 25.8871 11.7441 28.0158C11.7441 30.12 11.7564 30.2179 12.0255 30.536C12.2702 30.8174 12.4292 30.8663 13.1633 30.9153L14.0197 30.9764L14.3011 31.7105L14.5824 32.4323L14.0197 33.0317C13.1144 33.9982 13.1511 34.1206 15.0229 35.9924C16.5399 37.5094 16.6011 37.5583 17.1149 37.5583C17.5553 37.5583 17.7144 37.4849 18.1915 37.0323L18.7542 36.494L19.525 36.8121L20.308 37.1301V37.9376C20.308 38.6349 20.3447 38.7695 20.6261 39.0387C20.9319 39.3323 20.9808 39.3323 23.2074 39.3323H25.4707L25.7644 38.9897C26.009 38.7083 26.058 38.5126 26.058 37.8764V37.1057L26.8409 36.7998L27.6239 36.4817L28.15 37.02C28.6149 37.4972 28.7372 37.5583 29.2144 37.5583C29.7282 37.5583 29.8016 37.5094 31.1596 36.1759C31.9425 35.4296 32.6399 34.6344 32.7255 34.4387C32.958 33.9004 32.8234 33.4844 32.2362 32.9094L31.7101 32.3956L32.0282 31.6738L32.334 30.952H32.9335C33.7165 30.952 34.3527 30.6828 34.4995 30.2791C34.6585 29.8631 34.6585 26.1684 34.4995 25.7525C34.3527 25.3488 33.7165 25.0796 32.9335 25.0796H32.334L32.0282 24.3578L31.7101 23.636L32.1383 23.22C32.7745 22.6206 32.958 22.1312 32.7378 21.6174C32.5298 21.1403 30.034 18.6567 29.5936 18.4977C29.1042 18.302 28.7005 18.461 28.1378 19.0238L27.6239 19.5498L26.8409 19.2317L26.058 18.9259V18.1551C26.058 17.519 26.009 17.3232 25.7644 17.0418L25.4707 16.6993L23.342 16.6748C22.1553 16.6626 21.1032 16.6993 20.9319 16.7727ZM23.8558 19.3908C23.8558 20.3083 24.0883 20.6142 25.0425 20.92C25.5074 21.0668 26.2415 21.3849 26.7064 21.6051C27.7707 22.1434 28.0154 22.1312 28.6638 21.5317L29.2021 21.0546L29.7159 21.5807L30.242 22.119L29.9239 22.3392C29.5691 22.5594 29.2388 23.0977 29.2388 23.4403C29.2388 23.5626 29.4223 24.0153 29.6548 24.4557C29.8872 24.9083 30.1686 25.5934 30.2787 25.9972C30.5601 26.9881 30.8904 27.2817 31.759 27.2817H32.4197V28.0158V28.7498H31.759C30.8904 28.7498 30.5601 29.0434 30.2787 30.0344C30.1686 30.4381 29.8872 31.1232 29.6548 31.5759C29.4223 32.0163 29.2388 32.4934 29.2388 32.6403C29.2388 32.7993 29.459 33.1541 29.7282 33.4355L30.2053 33.9738L29.6915 34.4754L29.1654 34.9892L28.7617 34.5732C28.1255 33.9248 27.8197 33.9126 26.6452 34.4754C26.0824 34.7445 25.3117 35.0504 24.9202 35.1605C24.2963 35.344 24.1862 35.4296 24.0271 35.7844C23.9292 36.0168 23.8558 36.4328 23.8558 36.702V37.1913H23.1218H22.3878V36.5307C22.3878 35.6621 22.0941 35.3317 21.1032 35.0504C20.6995 34.9403 20.0144 34.6589 19.5617 34.4264C19.1213 34.194 18.6441 34.0105 18.5096 34.0105C18.375 34.0105 17.9835 34.2307 17.6532 34.4998L17.0415 34.977L16.5766 34.4998L16.0995 34.0105L16.5521 33.5456C17.1271 32.9461 17.1516 32.4445 16.6378 31.478C16.4298 31.0988 16.1484 30.4014 16.0138 29.9488C15.708 28.9456 15.4755 28.7498 14.5947 28.7498H13.9463V28.0158V27.2817H14.5947C15.4878 27.2817 15.708 27.086 16.0261 26.0339C16.1729 25.5445 16.4542 24.8472 16.65 24.5046C17.1516 23.5871 17.1271 23.0732 16.5521 22.486L16.0995 22.0211L16.6133 21.5073L17.1271 20.9934L17.5798 21.4339C18.2649 22.0945 18.534 22.119 19.5372 21.6174C20.0021 21.3727 20.7117 21.0913 21.1154 20.9812C22.0941 20.6998 22.3878 20.3695 22.3878 19.5009V18.8403H23.1218H23.8558V19.3908Z" fill="black"/>
<path d="M21.9233 22.7673C20.5531 23.0364 18.9871 24.1987 18.3142 25.4221C17.1031 27.6487 17.519 30.3035 19.3541 31.9918C21.1403 33.6434 23.5504 33.9614 25.7158 32.8237C28.236 31.5024 29.2637 28.3827 28.0403 25.7646C26.9637 23.4769 24.4924 22.2535 21.9233 22.7673ZM24.1866 24.9939C25.7403 25.5689 26.719 27.3306 26.3153 28.8354C25.8137 30.6827 23.8196 31.7471 22.0089 31.1354C21.2871 30.8907 20.6387 30.3402 20.2105 29.6306C19.9291 29.129 19.8802 28.921 19.8802 28.0646C19.8802 27.1838 19.9169 27.0125 20.2472 26.4864C20.6754 25.7891 21.3116 25.2508 21.9722 25.0184C22.5472 24.8104 23.6483 24.7981 24.1866 24.9939Z" fill="black"/>
</svg>
