<svg width="59" height="59" viewBox="0 0 59 59" fill="none" xmlns="http://www.w3.org/2000/svg">
<path d="M25.531 0.122925C24.979 0.270119 24.1817 1.00608 23.8873 1.61939C23.6542 2.09776 23.6297 2.36762 23.6297 4.41605V6.67301L22.6239 7.01646C22.0597 7.21272 21.1888 7.5807 20.6859 7.83829L19.7659 8.3044L18.1713 6.73434C16.7607 5.34827 16.5031 5.13975 15.9143 4.96803C15.0803 4.7227 14.7613 4.7227 13.9395 4.96803C13.3385 5.15202 13.0686 5.37281 10.8485 7.56843C8.10086 10.2792 7.80647 10.7085 7.80647 11.9352C7.81874 13.0514 8.10086 13.5297 9.75678 15.2347L11.241 16.7557L10.7626 17.8106C10.4927 18.3871 10.1616 19.2457 10.0021 19.7119L9.73224 20.5827L7.30356 20.6195L4.88714 20.6563L4.3597 21.0243C4.06532 21.2328 3.66054 21.6376 3.45201 21.932L3.08403 22.4595L3.04723 26.2742C3.0227 29.5002 3.04723 30.1748 3.20669 30.6041C3.55014 31.4996 4.48236 32.2355 5.51271 32.4195L5.96656 32.5054V31.4505C5.96656 30.4692 5.95429 30.3956 5.68444 30.2975C5.07113 30.0644 5.0466 29.9418 5.0098 26.9856C4.96074 23.8946 5.02207 23.2567 5.36552 22.9133C5.58631 22.6925 5.79483 22.6802 8.46884 22.6802H11.3391L11.4863 22.0301C11.8543 20.4969 12.811 18.2154 13.6574 16.8784L13.964 16.4L11.9279 14.3516C10.2474 12.6466 9.8917 12.2418 9.8917 11.9474C9.8917 11.653 10.272 11.2115 12.1977 9.28568C13.4611 8.01001 14.6141 6.94287 14.7613 6.90607C15.1906 6.79567 15.4973 7.04099 17.5089 9.0281L19.4224 10.9171L20.0725 10.5368C21.5199 9.69047 23.2249 8.96677 24.8931 8.50066L25.5923 8.31667V5.77759C25.5923 3.12811 25.6904 2.40442 26.0829 2.19589C26.3896 2.03643 32.6453 2.03643 32.9519 2.19589C33.3444 2.40442 33.4426 3.12811 33.4426 5.77759V8.31667L34.154 8.50066C35.8099 8.96677 37.5149 9.69047 38.9623 10.5368L39.6124 10.9171L41.5259 9.0281C43.5376 7.04099 43.8442 6.79567 44.2735 6.90607C44.4207 6.94287 45.5737 8.01001 46.8494 9.28568C48.7629 11.2115 49.1432 11.653 49.1432 11.9474C49.1432 12.2418 48.7874 12.6466 47.107 14.3393L45.0708 16.3877L45.4511 17.001C46.138 18.105 46.9107 19.8958 47.3278 21.2942L47.7326 22.6802H50.5905C53.24 22.6802 53.4485 22.6925 53.6693 22.9133C54.0128 23.2567 54.0741 23.8946 54.0251 26.9856C53.9883 29.9418 53.9637 30.0644 53.3504 30.2975C53.0806 30.3956 53.0683 30.4692 53.0683 31.4505V32.5054L53.5344 32.4195C54.528 32.2355 55.3743 31.5977 55.7791 30.7145C55.9876 30.2729 56.0122 29.8436 56.0122 26.495C56.0122 22.9501 55.9999 22.7293 55.7546 22.2264C55.4479 21.5763 54.6997 20.9262 54.0619 20.7422C53.7797 20.6563 52.7248 20.595 51.4492 20.595H49.3149L49.0941 19.8836C48.9714 19.5033 48.628 18.6324 48.3336 17.9701L47.7939 16.7557L49.2781 15.2347C50.934 13.5297 51.2161 13.0514 51.2284 11.9352C51.2284 10.7085 50.934 10.2792 48.1864 7.56843C45.9662 5.37281 45.6964 5.15202 45.0953 4.96803C44.2735 4.7227 43.9546 4.7227 43.1205 4.96803C42.5317 5.13975 42.2742 5.34827 40.8636 6.72207L39.269 8.29213L38.349 7.82602C37.8461 7.5807 36.9752 7.21272 36.4232 7.01646L35.4051 6.67301V4.41605C35.4051 2.36762 35.3806 2.09776 35.1476 1.61939C34.8409 0.969284 34.0927 0.319183 33.4548 0.135193C32.8906 -0.0365334 26.1075 -0.0488014 25.531 0.122925Z" fill="black"/>
<path d="M27.0273 12.9287C21.3972 13.9959 17.0304 18.3381 15.9633 23.9437C15.8652 24.4711 15.7793 25.2929 15.7793 25.7713V26.6177L16.7974 26.5809L17.8032 26.5441L17.8891 25.4892C18.257 20.6564 21.7774 16.4859 26.598 15.1734C28.0699 14.7686 30.9647 14.7686 32.4366 15.1734C37.2572 16.4859 40.7776 20.6564 41.1455 25.4892L41.2314 26.5441L42.2495 26.5809L43.2553 26.6177V25.7713C43.2553 22.7416 41.673 19.1354 39.2811 16.7557C37.6374 15.1121 35.2456 13.7383 33.0131 13.1618C31.4553 12.757 28.5483 12.6466 27.0273 12.9287Z" fill="black"/>
<path d="M27.7996 22.7905C26.0946 23.3424 24.9048 24.3728 24.1443 25.9551C23.7395 26.826 23.6904 27.0223 23.6536 28.1507C23.58 30.1133 24.0707 31.4135 25.3709 32.7137C27.5297 34.8725 31.2463 34.9584 33.4542 32.8977C34.9016 31.5607 35.4659 30.1501 35.38 28.1139C35.3432 27.0345 35.2941 26.8137 34.8771 25.9551C33.859 23.7963 31.8596 22.5451 29.4677 22.5697C28.8667 22.5697 28.2043 22.6555 27.7996 22.7905ZM31.1359 24.9861C33.0617 25.9306 33.8835 28.2611 32.9513 30.1378C31.5039 33.0081 27.5297 33.0081 26.0823 30.1378C25.0887 28.1262 26.0946 25.6484 28.2534 24.8266C28.9648 24.5568 30.4245 24.6426 31.1359 24.9861Z" fill="black"/>
<path d="M11.1179 26.7157C9.41293 27.2677 8.22312 28.2981 7.46262 29.8804C7.05784 30.7513 7.00877 30.9475 6.97198 32.076C6.89838 34.0386 7.38902 35.3388 8.68923 36.639C10.8481 38.7978 14.5647 38.8837 16.7726 36.823C18.22 35.486 18.7842 34.0754 18.6983 32.0392C18.6615 30.9598 18.6125 30.739 18.1954 29.8804C17.1774 27.7216 15.178 26.4704 12.7861 26.495C12.1851 26.495 11.5227 26.5808 11.1179 26.7157ZM14.4543 28.9114C16.3801 29.8559 17.2019 32.1864 16.2697 34.0631C14.8223 36.9334 10.8481 36.9334 9.40066 34.0631C8.40711 32.0515 9.41293 29.5737 11.5718 28.7519C12.2832 28.4821 13.7429 28.5679 14.4543 28.9114Z" fill="black"/>
<path d="M44.4812 26.7157C42.7762 27.2677 41.5864 28.2981 40.8259 29.8804C40.4211 30.7513 40.3721 30.9475 40.3353 32.076C40.2617 34.0386 40.7523 35.3388 42.0525 36.639C44.2113 38.7978 47.928 38.8837 50.1359 36.823C51.5833 35.486 52.1475 34.0754 52.0616 32.0392C52.0248 30.9598 51.9758 30.739 51.5587 29.8804C50.5406 27.7216 48.5413 26.4704 46.1494 26.495C45.5483 26.495 44.886 26.5808 44.4812 26.7157ZM47.8176 28.9114C49.7433 29.8559 50.5652 32.1864 49.6329 34.0631C48.1855 36.9334 44.2113 36.9334 42.7639 34.0631C41.7704 32.0515 42.7762 29.5737 44.935 28.7519C45.6465 28.4821 47.1061 28.5679 47.8176 28.9114Z" fill="black"/>
<path d="M23.4084 35.5473C21.6299 35.9888 19.8635 37.1173 18.7105 38.5402L18.1463 39.2516L12.9455 39.2393C8.11264 39.2393 7.67106 39.2516 6.76337 39.4847C4.16296 40.1348 2.10226 41.8152 0.936982 44.2071C0.139687 45.8508 0.0538239 46.4027 0.102888 50.2666C0.139686 53.4312 0.164219 53.7011 0.421806 54.388C0.998312 55.9335 2.17586 57.295 3.63552 58.1046C5.08292 58.9019 5.10745 58.9141 11.216 58.9632L16.7602 59V57.9574V56.9025H12.3444H7.92865V51.5054V46.1084H6.94736H5.96607V51.4318V56.7676L5.59809 56.6572C4.91119 56.4609 3.99124 55.8722 3.43926 55.2834C2.26172 54.02 1.9796 52.7566 2.07773 49.2362C2.12679 47.4331 2.18812 46.8688 2.40891 46.1697C2.94862 44.4524 4.18749 42.9314 5.70849 42.1341C7.19268 41.3614 7.46253 41.3246 12.5652 41.3246H17.1527L17.0791 41.5944C16.7848 42.6493 16.748 43.4098 16.7848 49.1749L16.8216 55.3692L17.1527 56.0684C17.8151 57.4913 19.2257 58.5707 20.7958 58.8651C21.1515 58.9264 22.1696 58.9877 23.0282 58.9877H24.6105V51.0761V43.1645H23.6292H22.6479V50.0335V56.9025H22.0592C20.7344 56.9025 19.7286 56.3505 19.1398 55.2834L18.7841 54.6333V48.8682V43.1032L19.1276 42.1464C19.7531 40.3678 20.8939 38.994 22.4026 38.209C23.8868 37.424 24.1199 37.3994 29.5169 37.3994C34.8527 37.3994 35.1103 37.424 36.5331 38.1477C37.4286 38.6015 38.5816 39.6564 39.1581 40.5518C39.3911 40.8953 39.7223 41.619 39.9063 42.1464L40.2498 43.1032V48.8682V54.6333L39.894 55.2834C39.3053 56.3505 38.2995 56.9025 36.9747 56.9025H36.3859V50.0335V43.1645H35.4047H34.4234V51.0761V58.9877H36.0057C36.8643 58.9877 37.8824 58.9264 38.2381 58.8651C39.8082 58.5707 41.2188 57.4913 41.8811 56.0684L42.2123 55.3692L42.2491 49.1503C42.2737 43.8759 42.2491 42.821 42.0897 42.1955C41.9915 41.803 41.9057 41.435 41.9057 41.3982C41.9057 41.3614 43.9664 41.3246 46.4809 41.3246C51.4978 41.3246 51.7921 41.3614 53.215 42.0728C54.1104 42.5267 55.2634 43.5815 55.8399 44.477C56.073 44.8204 56.3919 45.5441 56.5759 46.0716C56.858 46.9179 56.9071 47.2736 56.9562 49.2362C57.0543 52.7688 56.7722 54.0322 55.5946 55.2834C55.0427 55.8722 54.1227 56.4609 53.4358 56.6572L53.0678 56.7676V51.4318V46.1084H52.0865H51.1052V51.5054V56.9025H46.6895H42.2737V57.9574V59L47.8302 58.9632C52.7366 58.9141 53.4481 58.8896 54.0491 58.6933C56.2693 57.9819 57.9865 56.2892 58.6489 54.1794C58.9433 53.2472 58.9555 53.0755 58.9555 49.9844C58.9555 47.1755 58.9187 46.6358 58.7102 45.814C57.9252 42.7229 55.4352 40.282 52.2705 39.4847C51.3628 39.2516 50.9212 39.2393 46.0884 39.2393L40.8876 39.2516L40.2252 38.4421C39.0477 37.0192 37.4899 36.0502 35.6009 35.5595C34.6932 35.3265 34.2639 35.3142 29.4679 35.3265C24.9417 35.3265 24.1935 35.3633 23.4084 35.5473Z" fill="black"/>
<path d="M25.5918 57.9452V58.9878H29.5169H33.4421V57.9452V56.9026H29.5169H25.5918V57.9452Z" fill="black"/>
</svg>
