<svg width="56" height="56" viewBox="0 0 56 56" fill="none" xmlns="http://www.w3.org/2000/svg">
<path d="M26.6536 0.161644C23.3992 0.866768 20.7306 2.8845 19.1902 5.80262L18.702 6.7464L9.62221 9.57774C2.64692 11.7582 0.488162 12.4742 0.282049 12.6694C0.0542402 12.8864 0 13.0383 0 13.483V14.0254L3.36289 17.3992C5.21791 19.2542 6.72578 20.8055 6.72578 20.8489C6.72578 20.8922 5.81455 22.4218 4.70805 24.2551C3.5907 26.0993 2.63607 27.7265 2.58183 27.8892C2.44081 28.2798 2.64692 28.9089 2.98321 29.1259C3.11339 29.2127 4.58872 29.7442 6.24847 30.2975L9.27507 31.3064L9.32931 39.8872L9.38355 48.4788L9.65475 48.7392C10.0127 49.0863 27.196 55.53 27.7601 55.53C28.3351 55.53 47.6663 49.0646 48.0351 48.75L48.328 48.5005L48.3822 39.681L48.4365 30.8616L51.7126 29.8202C55.4443 28.6486 55.542 28.5944 55.542 27.7157V27.1733L52.2658 23.8863L48.9897 20.5993L52.2658 17.3124L55.542 14.0254V13.4722C55.542 13.0383 55.4877 12.8755 55.2816 12.6694C55.0863 12.4633 53.4049 11.9101 47.829 10.1961C43.8695 8.97025 40.3113 7.8746 39.9425 7.74442L39.2482 7.51661L38.9445 6.73555C37.6427 3.37266 34.551 0.834221 30.9386 0.139946C29.9189 -0.0553169 27.6191 -0.0444679 26.6536 0.161644ZM30.7325 2.43973C32.3489 2.79772 34.3015 3.94761 35.2995 5.1192C36.7423 6.82234 37.4257 8.65566 37.4257 10.8361C37.4257 14.6329 35.0826 17.8223 31.3508 19.0806C30.266 19.4495 28.1181 19.5037 26.9031 19.2C23.6596 18.3972 21.1971 15.9021 20.4486 12.6803C20.2316 11.7473 20.2424 9.93573 20.4594 8.9594C21.1645 5.84602 23.7464 3.22079 26.8489 2.47227C27.8578 2.23362 29.7128 2.21192 30.7325 2.43973ZM18.0077 10.7493C18.0077 12.5284 18.2572 13.7651 18.9298 15.3272C19.0275 15.555 19.0925 15.7503 19.0709 15.772C19.0492 15.7828 16.6843 16.5747 13.8204 17.5294L8.59165 19.2759L5.95557 16.629C4.50194 15.1753 3.3412 13.9712 3.36289 13.9495C3.44968 13.8844 17.7148 9.43672 17.8776 9.43672C17.9752 9.42587 18.0077 9.76216 18.0077 10.7493ZM46.3754 12.1379C49.543 13.1142 52.1465 13.9278 52.1791 13.9495C52.2008 13.9712 51.04 15.1753 49.5864 16.629L46.9503 19.2759L42.6979 17.8656C40.3655 17.0846 38.4129 16.412 38.3695 16.3686C38.3153 16.3252 38.4454 15.9564 38.6516 15.5442C39.3458 14.1556 39.7038 12.6586 39.7038 11.1073V10.0876L40.1703 10.2286C40.4198 10.3046 43.2186 11.1616 46.3754 12.1379ZM21.2513 18.6142C22.7266 20.0678 24.6684 21.0984 26.7079 21.5106C27.196 21.6082 28.0856 21.6842 28.8558 21.6842C31.7197 21.6842 34.1279 20.7729 36.2433 18.8745L36.8508 18.3321L40.1811 19.4386C42.0036 20.0461 43.5006 20.5668 43.5006 20.5993C43.5006 20.6319 39.9642 21.836 35.6358 23.2788L27.771 25.8932L19.9061 23.2788C15.5778 21.836 12.0413 20.6319 12.0413 20.5993C12.0413 20.5451 20.1014 17.8114 20.3075 17.7897C20.3618 17.7789 20.7848 18.1585 21.2513 18.6142ZM52.1791 27.2492C52.1465 27.2709 48.0351 28.5727 43.045 30.1456L33.9544 32.9987L33.7482 32.7383C33.6398 32.5973 32.6851 31.404 31.6437 30.0914C30.5915 28.7896 29.7453 27.694 29.767 27.6831C29.7887 27.6614 33.6506 26.3597 38.3587 24.7867L46.9178 21.9228L49.5755 24.5697C51.0292 26.0234 52.2008 27.2275 52.1791 27.2492ZM17.4111 24.8626C22.13 26.4356 25.9811 27.7482 25.9811 27.7807C25.9811 27.9326 22.7158 33.2916 22.6182 33.2916C22.5097 33.2916 5.5108 27.6506 5.44571 27.5855C5.39147 27.5529 8.71097 22.0096 8.78691 22.0096C8.81946 22.0096 12.7031 23.3005 17.4111 24.8626ZM30.7976 32.7491C31.8281 34.0292 32.7936 35.1683 32.9563 35.2659C33.1191 35.3744 33.3686 35.4612 33.5204 35.4612C33.7157 35.4612 45.2363 31.9139 46.0608 31.5884C46.1909 31.545 46.2126 32.6407 46.1909 39.3231L46.1584 47.1011L37.5885 49.965C32.8804 51.5271 28.986 52.818 28.9426 52.818C28.8883 52.818 28.8558 47.752 28.8558 41.5686C28.8558 35.3852 28.8775 30.3517 28.8992 30.3734C28.9209 30.3951 29.7779 31.4691 30.7976 32.7491ZM26.6645 47.3723L26.6319 52.7855L19.0709 49.9541L11.4989 47.1228V39.6051C11.4989 35.4829 11.5315 32.0983 11.5749 32.0983C11.6182 32.0983 14.2326 32.9553 17.3786 34.0075C23.3558 35.9927 23.4643 36.0144 23.9308 35.5805C24.0501 35.4829 24.701 34.4523 25.3844 33.3132L26.6319 31.2196L26.6645 36.5894C26.6753 39.54 26.6753 44.3891 26.6645 47.3723Z" fill="#EF0303"/>
<path d="M30.7424 9.44753L27.7809 12.3873L26.9564 11.6171C26.1754 10.8686 26.1211 10.8361 25.6113 10.8361C24.8628 10.8361 24.5156 11.1941 24.5156 11.9534V12.4958L25.8499 13.841L27.1951 15.1753H27.7809H28.3558L31.8597 11.6714L35.3637 8.16746V7.62506C35.3637 6.844 35.0165 6.49686 34.2463 6.49686H33.7039L30.7424 9.44753Z" fill="#EF0303"/>
<path d="M16.1199 40.4079C15.8921 40.6357 15.8379 40.7984 15.8379 41.2106C15.8379 41.9266 16.2067 42.2954 16.9227 42.2954C17.3349 42.2954 17.4976 42.2412 17.7254 42.0134C17.9533 41.7856 18.0075 41.6228 18.0075 41.2106C18.0075 40.7984 17.9533 40.6357 17.7254 40.4079C17.4976 40.18 17.3349 40.1258 16.9227 40.1258C16.5105 40.1258 16.3477 40.18 16.1199 40.4079Z" fill="#EF0303"/>
<path d="M20.3069 41.8073C19.9055 42.1436 19.7971 42.6209 20.014 43.1199C20.1876 43.543 20.5456 43.7382 22.3463 44.3566C23.4854 44.7579 23.8108 44.7471 24.2556 44.3023C24.7438 43.8142 24.5593 42.8595 23.9085 42.5341C23.2901 42.2087 21.2941 41.5361 20.9795 41.5361C20.7625 41.5361 20.5022 41.6337 20.3069 41.8073Z" fill="#EF0303"/>
<path d="M16.4454 44.7363C15.9898 44.975 15.8487 45.2137 15.8379 45.7344C15.8379 46.5263 16.0006 46.6239 19.3635 47.8931C23.4749 49.4335 23.3339 49.3902 23.8004 49.2383C24.2994 49.0756 24.5163 48.761 24.5163 48.186C24.5163 47.3941 24.3753 47.3073 20.7195 45.9405C18.897 45.2679 17.2698 44.6821 17.0854 44.6387C16.8793 44.5953 16.6406 44.6387 16.4454 44.7363Z" fill="#EF0303"/>
</svg>
