<svg width="47" height="44" viewBox="0 0 47 44" fill="none" xmlns="http://www.w3.org/2000/svg">
<path d="M31.138 4.41234C28.701 0.192006 23.3047 -1.25281 19.0844 1.18423C17.744 1.95886 16.6299 3.07196 15.8563 4.41234L1.1973 29.7991C-1.23877 34.0204 0.207977 39.4177 4.42927 41.8537C5.76964 42.6274 7.29086 43.0345 8.83818 43.0355H38.1542C43.0283 43.0345 46.9778 39.0821 46.9768 34.208C46.9768 32.6597 46.5687 31.1395 45.7951 29.7991L31.138 4.41234ZM44.4557 37.8481C43.1685 40.112 40.7585 41.5046 38.1542 41.4882H8.83915C4.81997 41.4872 1.56189 38.2282 1.56382 34.208C1.56382 32.9315 1.90036 31.6781 2.53864 30.5728L17.1957 5.186C18.5302 2.87468 20.8271 1.54882 23.4972 1.54882C26.1692 1.54882 28.466 2.87468 29.7977 5.186L44.4557 30.5737C45.7719 32.8193 45.7719 35.6016 44.4557 37.8481ZM35.8671 18.609L28.5366 5.91421C27.4689 4.06612 25.6315 3.00524 23.4972 3.00524C21.3638 3.00524 19.5283 4.06515 18.4606 5.91421L11.1302 18.609L3.80164 31.301C2.73399 33.15 2.73399 35.2699 3.80164 37.1189C4.86929 38.968 6.70578 40.0279 8.83818 40.0279H38.1542C40.2885 40.0279 42.126 38.968 43.1936 37.1189C44.2613 35.2699 44.2623 33.15 43.1936 31.301L35.8671 18.609ZM41.8542 36.3453C41.1057 37.6818 39.686 38.5009 38.1542 38.4806H8.83915C6.48045 38.4796 4.5695 36.5677 4.57047 34.209C4.57047 33.4595 4.76775 32.7235 5.14298 32.0756L12.4705 19.3837L19.801 6.68884C20.9799 4.64637 23.5919 3.9462 25.6344 5.12507C26.2833 5.5003 26.8229 6.03896 27.1982 6.68884L34.5286 19.3837L41.8552 32.0766C42.6385 33.3908 42.6385 35.03 41.8542 36.3453ZM23.4972 13.499C22.6152 13.5019 21.7719 13.8626 21.1607 14.499C20.5833 15.0908 20.2749 15.8945 20.3087 16.7213L20.6791 25.1697C20.7478 26.7315 21.9856 27.9549 23.4972 27.9549C24.999 27.9549 26.2379 26.7344 26.3181 25.1697L26.6856 16.7223C26.7214 15.8964 26.4148 15.0927 25.8385 14.5009C25.2263 13.8636 24.3811 13.5009 23.4972 13.499ZM24.7718 25.0972C24.7331 25.8447 24.1857 26.4085 23.4962 26.4085C22.8154 26.4085 22.2564 25.835 22.2245 25.103L21.8541 16.6546C21.8396 16.2503 21.9933 15.8577 22.2777 15.5695C22.9188 14.8955 23.9846 14.8694 24.6586 15.5105C24.6789 15.5299 24.6992 15.5502 24.7186 15.5705C25.0019 15.8577 25.1538 16.2503 25.1393 16.6536L24.7718 25.0972ZM23.4972 28.6995C21.9392 28.7005 20.6772 29.9654 20.6781 31.5234C20.6791 33.0814 21.944 34.3434 23.502 34.3424C25.059 34.3415 26.321 33.0785 26.321 31.5215C26.3191 29.9625 25.0551 28.7005 23.4972 28.6995ZM23.4972 32.7951C22.7931 32.7941 22.2245 32.2226 22.2254 31.5186C22.2264 30.8145 22.798 30.2459 23.502 30.2469C24.2051 30.2478 24.7737 30.8184 24.7737 31.5215C24.7727 32.2255 24.2012 32.7961 23.4972 32.7951ZM0.393657 17.0366C-1.25134 10.8627 2.40905 4.52258 8.57804 2.86211C8.99002 2.74703 9.4165 2.98783 9.53061 3.3998C9.64569 3.81178 9.40489 4.23826 8.99292 4.35238C8.98808 4.35334 8.98325 4.35528 8.97744 4.35624C3.63434 5.79526 0.462319 11.2883 1.88876 16.6362C2.00094 17.0482 1.75724 17.4737 1.34526 17.5859C0.933286 17.6981 0.507772 17.4543 0.395591 17.0424C0.394624 17.0395 0.394624 17.0375 0.393657 17.0366ZM9.60894 6.70818C10.0219 6.59696 10.4464 6.84163 10.5567 7.25458C10.6669 7.66752 10.4232 8.09207 10.0103 8.20231C6.78895 9.06978 4.878 12.3811 5.73773 15.6043C5.84894 16.0173 5.60427 16.4418 5.19133 16.5521C4.77839 16.6633 4.35384 16.4186 4.2436 16.0057C3.1624 11.9575 5.56269 7.79808 9.60894 6.70818ZM45.444 8.25357C46.9875 10.9092 47.4033 14.0725 46.5987 17.0366C46.4904 17.4495 46.0668 17.6971 45.6539 17.5878C45.2409 17.4795 44.9934 17.0559 45.1026 16.643C45.1036 16.6401 45.1036 16.6381 45.1046 16.6352C46.5388 11.2883 43.3667 5.79139 38.0198 4.35721C38.0188 4.35721 38.0178 4.35624 38.0169 4.35624C37.603 4.24987 37.3535 3.82822 37.4598 3.41431C37.5662 3.0004 37.9879 2.75089 38.4018 2.85727C38.4066 2.85824 38.4114 2.86017 38.4172 2.86114C41.3862 3.64834 43.916 5.59024 45.444 8.25357ZM36.4396 7.25458C36.5508 6.84163 36.9744 6.59696 37.3873 6.70818C41.4336 7.79808 43.8338 11.9575 42.7536 16.0057C42.6463 16.4196 42.2237 16.6671 41.8097 16.5598C41.3958 16.4525 41.1483 16.0298 41.2556 15.6159C41.2566 15.6121 41.2575 15.6082 41.2585 15.6043C42.1182 12.3811 40.2073 9.06978 36.986 8.20231C36.574 8.09207 36.3293 7.66752 36.4396 7.25458Z" fill="black"/>
</svg>
