<svg width="60" height="60" viewBox="0 0 60 60" fill="none" xmlns="http://www.w3.org/2000/svg">
<path d="M25.2488 0.884407C23.2778 1.13799 20.9956 1.85263 19.0937 2.82085C17.3301 3.71992 16.1199 4.57288 14.7021 5.90995C11.8551 8.60714 10.08 11.8115 9.20398 15.8342C8.98498 16.8486 8.9504 17.3557 8.9504 19.5458C8.9504 21.7473 8.98498 22.2314 9.20398 23.1766C9.63046 25.0093 10.1492 26.4732 10.9099 27.9716L11.6361 29.4009L10.2529 31.1414C8.42018 33.4467 8.42018 33.5043 10.2183 34.8298C10.9791 35.3946 11.2787 35.6828 11.2096 35.775C11.152 35.8557 8.60461 38.9909 5.5501 42.7485C-0.270767 49.9295 -0.224661 49.8488 0.132659 50.5058C0.305556 50.8516 5.3772 54.8628 5.73452 54.9435C5.942 55.0011 6.161 54.955 6.42611 54.8052C6.65664 54.6669 8.98498 51.9005 12.4083 47.6703C15.4859 43.8666 18.0448 40.7199 18.0794 40.6738C18.1255 40.6392 18.6096 40.9389 19.1628 41.3423C20.2348 42.1261 20.6267 42.2875 21.0993 42.103C21.2607 42.0339 22.056 41.1463 22.9435 40.0167L24.4996 38.0457L25.5946 38.1379C28.5108 38.3569 31.0466 38.1034 33.3404 37.3541C37.8242 35.8787 41.3282 33.0663 43.7027 29.032L44.3136 27.9946L44.8899 28.6286C45.2126 28.9744 45.6045 29.2971 45.7544 29.3432C46.1463 29.4585 47.2298 29.2049 48.0827 28.7784C48.8781 28.3865 48.8781 28.3865 49.074 27.0956C49.1662 26.4616 49.1662 26.4616 49.5697 26.4732C49.7887 26.4847 50.2382 26.5308 50.5494 26.5769C51.0796 26.6576 51.1718 26.6345 51.5061 26.3579C52.0133 25.9199 53.0276 24.3753 53.0276 24.018C53.0276 23.8451 52.8547 23.3956 52.6357 23.0152C52.4282 22.6233 52.2784 22.2429 52.3014 22.1623C52.336 22.07 52.6933 21.851 53.0852 21.6782C53.4886 21.4937 53.869 21.2401 53.9382 21.1133C54.0073 20.9866 54.065 20.2604 54.065 19.4535C54.065 17.8168 54.0304 17.7592 52.9469 17.2981C52.6242 17.1598 52.3245 16.9754 52.2899 16.8831C52.2553 16.7909 52.3821 16.4567 52.5781 16.1339C53.212 15.062 53.1544 14.7623 52.1055 13.356C51.4024 12.4339 51.1488 12.3187 50.169 12.5261C49.7656 12.6068 49.3737 12.6529 49.2815 12.6184C49.1893 12.5722 49.0971 12.2956 49.051 11.9037C48.9587 10.9931 48.8665 10.728 48.5323 10.4744C48.1058 10.1632 46.6304 9.69063 46.0656 9.69063C45.6161 9.69063 45.5123 9.74826 44.9245 10.3707L44.279 11.0508L43.8525 10.2785C41.651 6.34795 37.9625 3.28191 33.617 1.795C31.5307 1.08036 30.551 0.918987 27.9575 0.872883C26.6896 0.861355 25.4678 0.861355 25.2488 0.884407ZM29.917 3.05138C34.9541 3.82366 39.288 6.7168 41.8815 11.0277C42.746 12.4685 43.6105 14.7392 43.9217 16.376C44.8553 21.3554 43.4491 26.5654 40.1295 30.4037C34.8734 36.4897 25.975 37.9189 19.0822 33.804C14.0451 30.7956 10.956 25.3551 10.956 19.5227C10.956 16.5835 11.7398 13.6788 13.1921 11.2121C15.8086 6.79749 20.0043 3.91587 25.0874 3.06291C26.2977 2.86696 28.6376 2.85543 29.917 3.05138ZM46.7918 11.9844C46.884 12.042 46.9992 12.3878 47.0454 12.7912C47.1376 13.6096 47.2067 13.7018 48.1288 14.3934C48.8665 14.9352 48.9126 14.9352 50.1114 14.6931C50.3996 14.6355 50.4918 14.6701 50.5955 14.8545C50.6992 15.0389 50.6416 15.2233 50.3535 15.7881L49.9961 16.4912L50.1921 17.2174C50.4802 18.2894 50.7453 18.6582 51.4139 18.9348C51.9211 19.1423 51.9902 19.2115 51.9902 19.4996C51.9902 19.7993 51.9095 19.88 51.3563 20.1451C50.6416 20.4794 50.5148 20.6638 50.2036 21.8165L49.9961 22.5887L50.365 23.2803C50.6762 23.8797 50.7108 24.018 50.584 24.214C50.4802 24.3753 50.365 24.433 50.2036 24.3869C50.0768 24.3523 49.6849 24.2947 49.3391 24.2601C48.7167 24.1909 48.6936 24.2024 47.9444 24.7672C47.1491 25.3666 47.0338 25.5741 47.0338 26.3464C47.0338 26.8535 46.9531 27.0149 46.665 27.1302C46.5382 27.1763 46.2846 26.9918 45.8466 26.5308L45.2011 25.8623L45.4316 25.1246C46.5728 21.5168 46.5612 17.2059 45.4086 13.8517L45.1896 13.2293L45.7774 12.5607C46.3768 11.8691 46.5036 11.8 46.7918 11.9844ZM14.3794 32.7205C16.4541 34.7837 18.6903 36.2245 21.2261 37.1351C22.1367 37.4579 22.2289 37.5155 22.1021 37.6884C21.3759 38.7143 20.5575 39.6364 20.4192 39.5903C20.2463 39.5326 11.9127 33.4928 11.6245 33.2161C11.4516 33.0432 11.4862 32.9741 12.1432 32.1442C12.5351 31.6485 12.8694 31.2451 12.8809 31.2451C12.8809 31.2451 13.561 31.9021 14.3794 32.7205ZM15.0248 38.3339C15.7049 38.8295 16.2928 39.2675 16.3273 39.3252C16.3504 39.3828 14.0105 42.3451 11.1174 45.9068C8.22423 49.48 5.83826 52.4077 5.82673 52.4307C5.7691 52.4999 2.59932 49.8834 2.6339 49.7797C2.64543 49.722 4.99683 46.7943 7.85539 43.2787L13.0538 36.8815L13.4111 37.1582C13.6186 37.308 14.3333 37.8382 15.0248 38.3339Z" fill="black"/>
<path d="M25.8257 4.81488C23.2668 5.21831 21.3419 5.92142 19.5438 7.10865C15.2674 9.9211 12.8008 14.4625 12.8008 19.5226C12.8008 23.3149 14.2531 26.9687 16.835 29.6775C19.0712 32.0173 21.7453 33.4697 24.9958 34.0806C26.3328 34.3341 28.7649 34.3341 30.2057 34.0806C35.7845 33.0893 40.349 28.9282 41.8359 23.4647C42.3546 21.5744 42.4929 19.1538 42.1933 17.2404C41.2135 10.8663 36.2225 5.89837 29.8023 4.89557C28.8571 4.75725 26.5288 4.69962 25.8257 4.81488ZM29.5141 6.97033C30.0559 7.06254 30.6207 7.17781 30.7705 7.23544C31.0472 7.3507 31.0472 7.3507 30.6322 7.59276C30.0098 7.98466 29.9406 8.39961 30.321 9.51768L30.5515 10.1977L30.321 10.4513L30.0789 10.6934L29.2606 10.4398C28.1079 10.0709 27.8428 10.1747 27.1397 11.2466C26.2752 12.5376 25.7104 13.6903 25.7104 14.1513C25.7104 14.5202 25.8026 14.67 26.402 15.2579C27.0705 15.9033 27.0936 15.9379 26.9553 16.2376C26.8285 16.4912 26.6671 16.5719 26.0216 16.7217C25.4223 16.8485 25.1571 16.9753 24.9381 17.2289C24.6615 17.5516 24.6615 17.5747 24.6961 19.6149C24.7422 22.0469 24.7191 22.0124 26.0447 22.3351C26.8054 22.5195 26.9207 22.5772 26.9899 22.8538C27.059 23.1304 26.9899 23.2342 26.3905 23.7874C25.7911 24.3292 25.7104 24.456 25.7104 24.8363C25.7104 25.332 26.2867 26.5307 27.1051 27.7525C27.9004 28.9282 28.131 29.0089 29.3413 28.594L30.0213 28.3634L30.2749 28.6055L30.5285 28.8476L30.3095 29.493C29.9752 30.4728 30.0098 30.8532 30.5054 31.3257C30.736 31.5447 30.9088 31.7407 30.8858 31.7637C30.7014 31.9366 28.7765 32.1902 27.5546 32.1902C22.1026 32.2018 17.3192 28.7438 15.5326 23.5108C14.2877 19.903 14.8525 15.742 17.031 12.48C19.7397 8.39961 24.7652 6.18653 29.5141 6.97033ZM33.9749 8.56098C34.9777 9.14883 36.9718 10.7971 36.8335 10.9354C36.7989 10.97 36.4185 11.1314 35.992 11.3043C34.1939 12.0074 32.4764 13.5519 31.5543 15.304C30.7821 16.7909 30.5285 17.8398 30.517 19.5457C30.517 21.5052 30.9665 22.9575 32.05 24.5597C32.9951 25.9429 34.3553 27.0379 35.969 27.7064L36.9141 28.0983L36.2341 28.7669C35.8652 29.1242 35.1045 29.7236 34.5397 30.1039L33.5138 30.784L33.0989 30.5304C32.3612 30.0924 32.3381 30.0694 32.5571 29.4469C32.9145 28.375 32.8568 28.1675 31.831 27.1416C31.3238 26.646 30.7936 26.208 30.6437 26.1619C30.4132 26.1043 30.0328 26.1734 28.9955 26.4616C28.811 26.5192 28.6958 26.4039 28.3961 25.8507L28.0272 25.1706L28.6497 24.5712C29.1684 24.0641 29.2836 23.8912 29.2836 23.5684C29.2836 23.1765 28.811 21.3899 28.592 20.998C28.4652 20.756 28.0157 20.5716 27.2434 20.4563L26.7478 20.3756V19.5342V18.6927L27.4509 18.5544C27.8428 18.4737 28.2808 18.3008 28.4422 18.174C28.7303 17.9205 29.1107 16.7217 29.249 15.6498L29.3182 15.085L28.6612 14.4625L27.9927 13.8401L28.4191 13.16L28.8341 12.4685L29.4796 12.699C30.5861 13.0794 30.7014 13.0448 31.7849 11.9613C32.8453 10.9009 32.9145 10.6819 32.5687 9.69057C32.4764 9.42547 32.3958 9.1373 32.3958 9.06815C32.3958 8.95288 33.2602 8.34198 33.4562 8.31893C33.5023 8.3074 33.7328 8.42266 33.9749 8.56098ZM38.9658 13.9784C39.2771 14.6354 39.669 15.6267 39.8303 16.18C40.6948 19.246 40.2568 22.923 38.7007 25.6086L38.3319 26.2656L37.6979 26.0927C35.093 25.4242 33.145 23.3033 32.6724 20.6177C32.1076 17.4364 34.0325 14.2205 37.1562 13.137C37.6749 12.9526 38.1705 12.8027 38.2512 12.8027C38.3319 12.8027 38.6546 13.3329 38.9658 13.9784Z" fill="black"/>
<path d="M44.8783 38.4952C43.2992 39.0369 43.1839 39.1752 43.0571 40.4893C42.9649 41.4921 42.8497 41.5843 41.9736 41.4114C40.7634 41.1578 40.5444 41.2039 40.0026 41.8148C39.3571 42.541 38.7462 43.5207 38.654 43.9241C38.6079 44.1777 38.7001 44.4544 39.0575 45.0653C39.3456 45.5609 39.4955 45.9643 39.4609 46.1026C39.4263 46.241 39.1381 46.4369 38.7001 46.6329C37.4553 47.1861 37.4668 47.1746 37.4668 49.0188C37.4668 50.8746 37.4553 50.84 38.6425 51.3587C39.5877 51.7737 39.6453 51.9466 39.1036 52.8687C38.5157 53.8715 38.5157 54.102 39.092 54.9895C39.8413 56.1422 40.3254 56.6955 40.6827 56.7761C40.8671 56.8107 41.3627 56.7646 41.7777 56.6724C42.8381 56.4188 42.9649 56.4995 43.0571 57.4908C43.1724 58.7702 43.2992 58.9431 44.4057 59.3696C44.9359 59.5771 45.6621 59.773 46.031 59.8076L46.6995 59.8652L47.4141 59.093C47.806 58.678 48.1864 58.3322 48.244 58.3322C48.3132 58.3322 48.659 58.6665 49.0278 59.0814C49.6503 59.7845 49.731 59.8307 50.192 59.8307C50.9643 59.8307 52.7048 59.2198 53.0621 58.8163C53.1889 58.678 53.3042 58.2746 53.3618 57.6983C53.5001 56.488 53.6038 56.3958 54.5721 56.6494C54.987 56.7531 55.425 56.8338 55.5518 56.8338C55.8976 56.8338 56.5316 56.2229 57.177 55.2546C57.8917 54.1827 57.9263 53.8254 57.3499 52.8802C56.7967 51.9696 56.8658 51.7621 57.8225 51.3587C58.9521 50.8746 59.0213 50.7478 59.0213 49.0073C59.0213 47.9238 58.9752 47.4858 58.8599 47.3129C58.7677 47.1861 58.3297 46.9095 57.8802 46.702C57.4076 46.483 57.0503 46.241 57.0042 46.1142C56.958 45.9643 57.0848 45.6185 57.3384 45.1575C57.5805 44.731 57.7534 44.2584 57.7534 44.0394C57.7534 43.6014 57.2808 42.7715 56.52 41.8724C55.9437 41.1924 55.7478 41.1463 54.4683 41.4114C53.8344 41.5382 53.7883 41.5266 53.5808 41.2846C53.4425 41.1002 53.3733 40.835 53.3733 40.4547C53.3733 39.521 53.1313 39.1176 52.4051 38.7949C51.6674 38.4721 50.5378 38.1609 50.0767 38.1609C49.8232 38.1609 49.5926 38.3338 49.0509 38.9101C48.6705 39.3251 48.2786 39.6593 48.1749 39.6593C48.0711 39.6593 47.8982 39.5441 47.806 39.3942C47.7023 39.2559 47.4257 38.9217 47.1721 38.645C46.6073 38.0456 46.2615 38.0226 44.8783 38.4952ZM47.1144 41.6073C47.5294 41.8148 49.1201 41.7687 49.4543 41.5382C49.7079 41.3653 50.3303 40.7083 50.5032 40.4431C50.5378 40.397 50.7222 40.397 50.9182 40.4662C51.2409 40.5815 51.2755 40.6391 51.3908 41.4575C51.5291 42.4372 51.5752 42.5179 52.4973 43.198C53.235 43.7397 53.5462 43.7973 54.4914 43.5553C54.9985 43.4285 55.0331 43.44 55.2867 43.7397L55.5518 44.0394L55.206 44.6388C54.6989 45.4917 54.6758 45.826 55.0447 46.9095L55.3559 47.8431L56.1512 48.212C56.9235 48.5808 56.9465 48.6039 56.9465 49.0073C56.9465 49.4223 56.9235 49.4453 56.1973 49.7911C55.5288 50.1023 55.4135 50.2061 55.206 50.6671C55.0792 50.9553 54.9179 51.474 54.8487 51.8198C54.7219 52.4076 54.7219 52.4652 55.0792 53.1338C55.5057 53.9406 55.5057 53.9867 55.2752 54.3441C55.0908 54.6207 55.0908 54.6207 54.3415 54.4478C53.9266 54.3556 53.4771 54.3095 53.3272 54.3441C53.1889 54.3786 52.7394 54.6553 52.3359 54.955C51.5521 55.5428 51.5176 55.612 51.3331 56.8222C51.2524 57.3755 51.1948 57.4677 50.9182 57.5599C50.6185 57.6522 50.5493 57.6176 49.9961 57.0067C49.4313 56.3958 49.3621 56.3497 48.7512 56.292C47.5409 56.1768 47.1029 56.3151 46.4344 57.0182C45.9733 57.5023 45.7774 57.6291 45.6045 57.5715C45.2356 57.4677 45.0743 57.1796 45.0743 56.6609C45.0743 55.8079 44.8898 55.4967 44.0023 54.8743C43.1148 54.2518 42.9303 54.2173 41.9967 54.4593L41.3858 54.6207L41.1553 54.298L40.9247 53.9867L41.3397 53.1799L41.7546 52.373L41.5702 51.6699C41.236 50.3559 41.1322 50.2061 40.3023 49.8026C39.5646 49.4568 39.5416 49.4338 39.5416 49.0073C39.5416 48.5808 39.5646 48.5578 40.2216 48.2696C41.0285 47.9238 41.1668 47.7394 41.5126 46.5522L41.7777 45.6531L41.3512 44.8463C40.9363 44.0394 40.9247 44.0163 41.1207 43.7397C41.2821 43.5207 41.3973 43.4746 41.674 43.5207C43.0802 43.7512 43.1263 43.7512 43.864 43.2556C44.8437 42.5986 44.9821 42.4142 45.0397 41.7111C45.1088 40.7428 45.1665 40.6045 45.5007 40.4893C45.8004 40.3855 45.8696 40.4201 46.3422 40.9273C46.6303 41.2385 46.9761 41.5382 47.1144 41.6073Z" fill="black"/>
<path d="M47.1498 44.1546C45.951 44.4082 44.7523 45.2497 44.0722 46.3216C42.447 48.8574 43.4267 52.2462 46.147 53.5026C47.5532 54.1481 49.1093 54.1135 50.5385 53.3989C51.3685 52.9954 52.279 52.0272 52.717 51.1051C53.1781 50.1138 53.2818 48.65 52.9706 47.5895C52.5326 46.0565 51.2532 44.7771 49.6856 44.2699C49.1208 44.097 47.7607 44.0279 47.1498 44.1546ZM49.0632 46.287C49.8124 46.506 50.4002 47.0132 50.7691 47.7509C51.7373 49.6989 50.1928 52.0387 48.0488 51.8543C44.9943 51.6007 44.3719 47.4512 47.2189 46.3447C47.9105 46.0796 48.3139 46.068 49.0632 46.287Z" fill="black"/>
</svg>
