<svg width="66" height="59" viewBox="0 0 66 59" fill="none" xmlns="http://www.w3.org/2000/svg">
<path d="M22.5041 0.242588C21.6996 0.740639 21.6102 0.932198 21.5463 2.4519L21.4825 3.85666L20.0139 4.27808C19.2093 4.50795 18.2515 4.81445 17.8812 4.9677C17.1533 5.24865 14.663 6.50016 14.1139 6.85774L13.7691 7.07484L12.824 6.16813C12.1472 5.50406 11.7641 5.23588 11.4321 5.17202C10.4615 4.99324 10.2572 5.12094 7.84353 7.52181C6.59201 8.76055 5.48097 9.92267 5.37881 10.1142C5.16171 10.5229 5.14894 11.4041 5.3405 11.7872C5.41712 11.9404 5.85132 12.4385 6.29829 12.8982L7.10284 13.7283L6.46431 14.8138C5.48097 16.5123 4.62535 18.6705 4.05067 20.9054L3.9102 21.4545H2.74807C1.84136 21.4545 1.45825 21.5056 1.04959 21.7099C0.104567 22.1696 0.0917969 22.2463 0.0917969 26.2435V29.7809L0.589849 30.2789L1.0879 30.777H2.47989H3.88465L4.17838 31.888C4.71474 33.9569 5.63422 36.1662 6.66864 37.8519L7.12838 38.6181L6.31106 39.4482C5.85132 39.908 5.41712 40.4188 5.3405 40.572C5.14894 40.9551 5.16171 41.8363 5.37881 42.245C5.48097 42.4365 6.59201 43.5986 7.84353 44.8374C9.86128 46.8424 10.1805 47.0978 10.6403 47.1744C11.3937 47.3021 12.0067 47.0084 12.9645 46.0634L13.7563 45.2716L14.497 45.693C16.4126 46.8041 19.0689 47.8896 20.8184 48.2727L21.5463 48.4387V49.7413C21.5463 50.8779 21.5847 51.095 21.8401 51.4781C22.3637 52.2571 22.734 52.3593 25.2243 52.3593C27.6124 52.3593 28.0849 52.2571 28.2381 51.6952C28.3658 51.1716 28.3275 50.9545 27.9955 50.6352C27.689 50.3287 27.6379 50.316 25.6329 50.316H23.5896V48.7963C23.5896 46.8551 23.5002 46.7147 21.9933 46.4209C19.7202 45.9612 16.9617 44.8246 14.8801 43.4709C13.5903 42.6409 13.4243 42.6664 12.0961 43.9945L11.0106 45.08L9.1589 43.2283L7.30717 41.3766L8.39266 40.2911C9.73357 38.9374 9.75911 38.8097 8.78855 37.29C7.46041 35.2339 6.51539 32.9097 5.97903 30.4705C5.62145 28.8486 5.5576 28.8103 3.66755 28.7465L2.13509 28.7082V26.103V23.4978H3.64201C5.48097 23.4978 5.63422 23.4212 5.83855 22.374C6.40045 19.6411 7.4221 17.1125 8.87794 14.8777C9.73357 13.5623 9.70803 13.3963 8.39266 12.0681L7.30717 10.9826L9.1589 9.1309L10.9979 7.29194L12.1089 8.36467C13.4626 9.6928 13.552 9.70557 14.9695 8.79887C17.1022 7.44519 19.1199 6.58956 21.5847 6.00211C23.6152 5.51683 23.5896 5.54237 23.5896 3.56293V2.04324H25.6329C27.6379 2.04324 27.689 2.03047 27.9955 1.72397C28.1998 1.53241 28.3147 1.26423 28.3147 1.02159C28.3147 0.77895 28.1998 0.510769 27.9955 0.31921C27.689 -5.34058e-05 27.6634 -5.34058e-05 25.2881 -5.34058e-05C23.1682 -5.34058e-05 22.8362 0.0254898 22.5041 0.242588Z" fill="black"/>
<path d="M30.9066 0.319267C30.5235 0.587448 30.4213 1.16212 30.6768 1.6474C30.7789 1.8645 30.8939 2.05606 30.9066 2.06883C30.9194 2.09438 37.9432 2.13269 46.525 2.171L62.1179 2.23485L62.5776 2.59243C63.5099 3.29481 63.4332 1.40476 63.4332 24.8771V46.0634L63.1395 46.4976C62.9863 46.7275 62.6542 47.0595 62.4244 47.2128L61.9902 47.5065H46.6144H31.2259L30.8428 47.8896C30.5235 48.2216 30.4724 48.3494 30.5363 48.6942C30.7023 49.5498 30.6768 49.5498 35.4146 49.5498H39.68V51.21V52.8701H35.3508H31.0088L30.7534 53.2022C30.3958 53.6491 30.4213 54.0578 30.7917 54.492L31.0982 54.8496L35.5934 54.8879L40.0887 54.9262L40.5229 55.884C40.7655 56.4076 40.9571 56.8673 40.9571 56.9056C40.9571 56.9312 36.3724 56.9567 30.7534 56.9567C20.6391 56.9567 20.5625 56.9567 20.2177 57.2249C19.7452 57.5952 19.7452 58.3615 20.2177 58.7318C20.5625 59 20.6008 59 32.9755 59H45.3884L45.6566 58.7063C46.027 58.3104 46.027 57.5952 45.6694 57.2632C45.4651 57.0844 45.1458 57.0078 44.3157 56.9567L43.243 56.8929L42.4768 55.1816L41.7233 53.4831V51.5165V49.5498L52.1696 49.5242L62.6032 49.4859L63.2545 49.1411C63.612 48.9496 64.1739 48.5026 64.4932 48.145C65.5659 46.9574 65.4765 48.9751 65.4765 24.7877V3.2565L65.119 2.49026C64.6975 1.62186 63.9441 0.868401 63.0629 0.459743L62.4755 0.191559L46.8315 0.153248C33.0138 0.127708 31.1493 0.140476 30.9066 0.319267Z" fill="black"/>
<path d="M31.0226 4.04825C30.7417 4.16318 30.4607 4.85279 30.5501 5.24868C30.7289 6.04045 30.0776 6.00214 42.5927 6.00214H53.9969L54.3289 5.67011C54.5971 5.40193 54.6354 5.26145 54.5715 4.87833C54.4183 3.895 55.325 3.95885 42.5672 3.97162C36.3096 3.97162 31.112 4.00994 31.0226 4.04825Z" fill="black"/>
<path d="M56.9852 4.2781C56.7809 4.46966 56.6659 4.73785 56.6659 4.98048C56.6659 5.22313 56.7809 5.49131 56.9852 5.68287C57.2661 5.97659 57.3938 6.00213 58.4538 6.00213H59.6031V23.0508V40.0995H45.4151C36.5778 40.0995 31.1503 40.1506 31.0099 40.2272C30.614 40.4316 30.4224 41.0573 30.614 41.5043C30.7034 41.7214 30.8821 41.9513 31.0099 42.0151C31.1503 42.0917 36.8332 42.1428 46.1047 42.1428C60.9568 42.1428 60.9696 42.1428 61.3144 41.8746L61.6464 41.6192V23.0508V4.48243L61.3144 4.22702C61.0079 3.98438 60.8036 3.95884 59.1306 3.95884C57.3555 3.95884 57.2789 3.97161 56.9852 4.2781Z" fill="black"/>
<path d="M23.7945 8.69672C20.2059 9.15647 16.7196 10.8677 14.025 13.4601C12.467 14.9671 11.3559 16.4612 10.5003 18.198C9.17218 20.8671 8.62305 23.2041 8.62305 26.1796C8.63582 28.7976 9.05725 30.9175 10.0278 33.1779C10.6153 34.5316 11.6241 36.2173 11.9689 36.3961C12.6585 36.7664 13.5014 36.2939 13.5014 35.5532C13.5014 35.3361 13.3226 34.8891 13.1183 34.5571C12.0456 32.8842 11.2027 30.7387 10.8834 28.8742C10.6408 27.5078 10.6408 24.8515 10.8834 23.4723C11.4326 20.3307 13.0544 17.3041 15.417 15.0182C18.1882 12.3491 21.5085 10.8677 25.2886 10.6378C26.8211 10.5485 27.1659 10.3441 27.1659 9.57789C27.1659 8.77335 26.8211 8.55625 25.6462 8.56902C25.1098 8.58179 24.2798 8.63287 23.7945 8.69672Z" fill="black"/>
<path d="M48.9001 9.32255C48.4787 9.57796 48.1084 10.2293 48.1084 10.7273C48.1084 10.9827 48.0445 10.9827 43.7919 10.9827H39.4882L37.1895 13.2814L34.8908 15.5801H27.6499C20.5623 15.5801 20.3962 15.5801 20.1408 15.8355C19.8727 16.1037 19.8088 16.7167 20.0131 17.1126C20.2685 17.5979 20.7155 17.6234 28.148 17.6234C34.0352 17.6234 35.4272 17.5851 35.7592 17.4446C35.9891 17.3425 37.1129 16.308 38.275 15.1459L40.3822 13.026H44.2389H48.1084V13.307C48.1084 13.7029 48.5298 14.3669 48.964 14.6479C49.2577 14.8394 49.5898 14.8777 51.0584 14.8777C53.025 14.8777 53.3188 14.7756 53.753 13.9072C54.0722 13.307 54.085 10.6507 53.7785 10.0122C53.3954 9.22038 52.974 9.06714 51.0328 9.06714C49.5387 9.06714 49.2705 9.10545 48.9001 9.32255ZM51.9395 12.0044V12.8983H51.0456H50.1517V12.0044V11.1104H51.0456H51.9395V12.0044Z" fill="black"/>
<path d="M48.7479 19.8071C48.2754 19.9987 47.8795 20.4201 47.7263 20.8926L47.573 21.3268H45.2105H42.8351L41.2133 22.9231L39.6042 24.5195H30.5882C21.6743 24.5195 21.5722 24.5195 21.2401 24.7876C20.7931 25.1452 20.7804 25.8093 21.2273 26.2435L21.5338 26.5627H31.0096H40.4854L42.1072 24.9664L43.7163 23.3701H45.6319H47.5602L47.7135 23.8682C48.02 24.8898 48.8628 25.2474 50.7657 25.1324C52.6557 25.0175 53.0261 24.5705 53.0261 22.3485C53.0261 21.0075 53.0005 20.8415 52.7196 20.4456C52.5535 20.2158 52.2215 19.9348 51.9916 19.8454C51.4936 19.6411 49.246 19.6156 48.7479 19.8071ZM51.0466 22.4123V23.1147H50.3442H49.6419V22.4123V21.7099H50.3442H51.0466V22.4123Z" fill="black"/>
<path d="M22.236 20.3562C21.7635 20.7521 21.738 21.5056 22.1722 21.8504C22.4531 22.0802 22.8235 22.093 29.4514 22.093H36.4497L36.7179 21.7993C37.1265 21.3651 37.101 20.6627 36.6668 20.3179C36.3348 20.0497 36.207 20.0497 29.4514 20.0497H22.5809L22.236 20.3562Z" fill="black"/>
<path d="M24.4326 30.1514C24.0112 30.4834 23.9601 31.2752 24.356 31.6711C24.6114 31.9265 24.7774 31.9265 33.5125 31.9265H42.4263L44.0482 33.5483L45.6828 35.183L48.0454 35.2213C50.1653 35.2596 50.4079 35.2851 50.4079 35.4767C50.4079 35.8598 50.8804 36.4728 51.3402 36.6899C51.6722 36.8431 52.132 36.907 53.0898 36.907C54.4817 36.907 54.8393 36.8048 55.3885 36.2046C55.6822 35.8853 55.7077 35.7704 55.746 34.3146C55.7843 32.5905 55.6566 32.1946 54.9159 31.7094C54.3924 31.3646 51.7999 31.3773 51.2253 31.7221C50.7783 31.9903 50.4079 32.5395 50.4079 32.9353C50.4079 33.1907 50.3569 33.2035 48.5307 33.2035H46.6534L44.9804 31.5433L43.2947 29.8832H34.0361C24.854 29.8832 24.7646 29.8832 24.4326 30.1514ZM53.7283 34.1613V34.8637H53.0898H52.4512V34.1613V33.4589H53.0898H53.7283V34.1613Z" fill="black"/>
<path d="M14.523 37.9287C14.357 38.0947 14.2676 38.3501 14.2676 38.6566C14.2676 39.2185 14.7656 39.7165 16.362 40.7765C19.0182 42.5516 21.9427 43.5349 25.1864 43.752C26.3741 43.8287 26.489 43.8159 26.821 43.5477C27.0892 43.3306 27.1658 43.1646 27.1658 42.7687C27.1658 42.0919 26.821 41.7598 26.1059 41.7598C25.2375 41.7598 23.4752 41.5172 22.3769 41.2362C20.3208 40.7126 18.1754 39.6399 16.4897 38.299C15.5957 37.5839 14.9827 37.4689 14.523 37.9287Z" fill="black"/>
<path d="M32.1592 43.5986C31.7761 43.8029 31.5207 44.2627 31.5079 44.7352C31.4951 45.9229 32.8105 46.5231 33.7044 45.7313C34.062 45.412 34.1259 45.2716 34.1259 44.7607C34.1259 44.2499 34.062 44.1094 33.7044 43.7902C33.2447 43.3815 32.6828 43.3049 32.1592 43.5986Z" fill="black"/>
</svg>
