<svg width="59" height="59" viewBox="0 0 59 59" fill="none" xmlns="http://www.w3.org/2000/svg">
<circle cx="29.5" cy="29.5" r="20.9" stroke="#191919" stroke-width="1.2"/>
<path d="M58.4 29.5C58.4 30.7038 57.7162 31.9324 56.2954 33.128C54.8776 34.3211 52.7903 35.4226 50.1585 36.3594C44.9 38.231 37.5962 39.4 29.5 39.4C21.4038 39.4 14.1 38.231 8.84155 36.3594C6.2097 35.4226 4.12241 34.3211 2.70458 33.128C1.2838 31.9324 0.6 30.7038 0.6 29.5C0.6 28.2962 1.2838 27.0676 2.70458 25.872C4.12241 24.6789 6.2097 23.5774 8.84155 22.6406C14.1 20.769 21.4038 19.6 29.5 19.6C37.5962 19.6 44.9 20.769 50.1585 22.6406C52.7903 23.5774 54.8776 24.6789 56.2954 25.872C57.7162 27.0676 58.4 28.2962 58.4 29.5Z" stroke="#191919" stroke-width="1.2"/>
<path d="M29.5 58.4C28.2962 58.4 27.0676 57.7162 25.872 56.2954C24.6789 54.8776 23.5774 52.7903 22.6406 50.1585C20.769 44.9 19.6 37.5962 19.6 29.5C19.6 21.4038 20.769 14.1 22.6406 8.84154C23.5774 6.2097 24.6789 4.12241 25.872 2.70458C27.0676 1.2838 28.2962 0.6 29.5 0.6C30.7038 0.6 31.9324 1.2838 33.128 2.70458C34.3211 4.12241 35.4226 6.2097 36.3594 8.84154C38.231 14.1 39.4 21.4038 39.4 29.5C39.4 37.5962 38.231 44.9 36.3594 50.1585C35.4226 52.7903 34.3211 54.8776 33.128 56.2954C31.9324 57.7162 30.7038 58.4 29.5 58.4Z" stroke="#191919" stroke-width="1.2"/>
</svg>
