<svg width="60" height="59" viewBox="0 0 60 59" fill="none" xmlns="http://www.w3.org/2000/svg">
<path d="M20.033 0.206722C19.1916 0.517944 18.961 0.667789 18.3271 1.25565C17.647 1.88962 17.2551 2.47749 16.9784 3.27283L16.7825 3.86069L14.3734 3.92985C13.0478 3.96443 11.9528 3.99901 11.9413 4.01054C11.9182 4.02206 11.7107 4.20649 11.4687 4.4255L11.0307 4.82894L6.9963 4.86352L2.97348 4.8981L2.31645 5.20932C1.52111 5.57817 0.74882 6.32741 0.368438 7.08817L0.0917969 7.66451V30.0263V52.3882L0.437598 52.9991C0.875614 53.806 1.72859 54.5667 2.52393 54.8549C3.14638 55.097 3.29622 55.097 19.6987 55.097H36.2396L37.3 56.0306C38.4758 57.068 40.8503 58.6933 41.4842 58.9008C41.7148 58.9815 42.1989 59.016 42.5678 58.993C43.121 58.9584 43.4092 58.8431 44.1815 58.3705C46.2909 57.1026 48.5271 55.12 50.1754 53.0913C52.9418 49.6679 55.3394 44.8151 56.8494 39.582C57.9905 35.6168 58.8665 30.7641 59.0164 27.5481C59.1201 25.4272 58.9587 25.2082 56.6304 24.0325C54.0023 22.7184 51.2474 21.7617 48.504 21.2199C47.2822 20.9779 44.5273 20.6321 43.8126 20.6321H43.3746V14.4883C43.3746 9.20909 43.3516 8.25237 43.1902 7.72214C42.8444 6.55795 42.1413 5.75107 41.0117 5.22084L40.32 4.8981L36.2972 4.86352L32.2744 4.82894L32.0669 4.56382C31.6174 3.99901 31.237 3.91832 28.8164 3.91832H26.5687L26.3727 3.31894C25.9462 2.01641 25.001 0.979012 23.71 0.379623C22.7994 -0.0468674 20.9436 -0.127552 20.033 0.206722ZM23.1568 2.47749C23.8945 2.93855 24.321 3.57253 24.4823 4.43703C24.5515 4.81741 24.6668 5.25542 24.7474 5.4168C24.9895 5.9355 25.2662 5.99313 27.9634 5.99313H30.4647V7.89504V9.79695H21.6468H12.8288V7.89504V5.99313H15.3647C17.3819 5.99313 17.9813 5.95855 18.2349 5.82023C18.5691 5.65886 18.8227 5.15168 18.8227 4.67909C18.8227 3.83764 19.572 2.76565 20.4595 2.31611C21.2087 1.93573 22.396 2.00489 23.1568 2.47749ZM10.754 7.83741V8.75955H8.22966C5.54393 8.75955 5.15203 8.81718 4.61027 9.32436C3.90714 9.96985 3.95325 8.47138 3.95325 29.9687C3.95325 51.7542 3.89561 50.1635 4.71401 50.786L5.1405 51.1202L19.1224 51.1779L33.0928 51.2355L33.6345 51.9847C33.9342 52.3997 34.2339 52.8031 34.3031 52.8723C34.3838 52.9876 31.2946 53.0221 18.9149 53.0221H3.41149L3.01958 52.757C2.8121 52.6187 2.51241 52.319 2.37409 52.1115L2.10897 51.7196L2.13203 29.9226L2.16661 8.12558L2.42019 7.76825C2.57004 7.56077 2.90432 7.29565 3.16943 7.15733C3.64203 6.9268 3.83798 6.91527 7.21531 6.91527H10.754V7.83741ZM40.101 7.13428C40.3662 7.24955 40.7235 7.54924 40.9079 7.7913L41.2422 8.21779L41.2768 14.4307L41.3113 20.6321H40.8157C40.5391 20.6321 40.1241 20.6666 39.8936 20.7012L39.4555 20.7819V15.6064C39.4555 10.8344 39.4325 10.3963 39.2365 9.96985C38.7409 8.88634 38.3374 8.77107 35.11 8.75955H32.5395V7.83741V6.91527H36.0897C39.2942 6.91527 39.6745 6.93832 40.101 7.13428ZM11.2727 11.1341C11.3765 11.2954 11.6761 11.526 11.9413 11.6528C12.4023 11.8602 12.8403 11.8718 21.5891 11.8718C27.2603 11.8718 30.9142 11.8257 31.1563 11.7565C31.3868 11.6989 31.7442 11.4568 31.9632 11.2378L32.3551 10.8344H34.8679H37.3807V15.9061V20.9779L37.1271 21.024C33.7037 21.7271 31.5367 22.3957 29.2544 23.4331C25.6926 25.0699 25.4275 25.3926 25.635 27.8824C26.2229 34.7869 28.1017 41.8643 30.8105 47.2818L31.7211 49.1031H18.8688H6.02806V29.9687V10.8344H8.55241H11.0768L11.2727 11.1341ZM46.6021 22.995C49.5991 23.4561 52.4116 24.3437 55.178 25.6808L57.0107 26.5683L56.93 27.721C56.8378 29.1618 56.3768 32.3778 55.9849 34.3143C54.1867 43.259 50.6365 50.371 45.9451 54.463C44.8155 55.4428 42.6369 56.9412 42.3372 56.9412C42.0375 56.9412 39.8475 55.4428 38.7639 54.4976C33.8305 50.175 30.2457 42.8325 28.5167 33.4844C28.0095 30.741 27.5369 26.7182 27.7098 26.5914C28.2861 26.1418 31.0526 24.897 32.8623 24.2745C35.0639 23.5253 36.8966 23.1334 39.8013 22.776C40.7581 22.6608 45.4379 22.8106 46.6021 22.995Z" fill="black"/>
<path d="M12.6451 17.4162L10.8931 19.1683L10.5703 18.9147C10.0055 18.4651 9.15252 18.6841 8.89893 19.3296C8.72603 19.8022 8.96809 20.3094 9.71733 21.0241C10.3167 21.6004 10.4435 21.6696 10.8815 21.6696C11.3541 21.6696 11.4118 21.6234 13.4289 19.6178C15.5383 17.5315 15.8265 17.1857 15.8265 16.6554C15.8265 16.2174 15.2502 15.6757 14.7776 15.6757C14.4433 15.6757 14.1897 15.8831 12.6451 17.4162Z" fill="black"/>
<path d="M19.2262 17.7735C18.6268 18.0962 18.5 18.9377 18.9957 19.4218L19.2723 19.71H26.6033H33.9343L34.2109 19.4218C34.649 18.9953 34.6144 18.3268 34.1418 17.9348L33.7845 17.6352H26.6264C21.6583 17.6467 19.3876 17.6813 19.2262 17.7735Z" fill="black"/>
<path d="M14.5 23.5945C14.3732 23.6291 13.5087 24.4014 12.5751 25.3235L10.8922 27.0064L10.5809 26.7528C10.0046 26.3033 9.2323 26.4762 8.96719 27.1217C8.72513 27.698 8.87498 28.0553 9.65879 28.8046C10.3158 29.4385 10.4311 29.5077 10.8806 29.5077C11.3647 29.5077 11.4109 29.4731 13.5433 27.3522C15.8256 25.0814 15.9754 24.8509 15.7218 24.1708C15.6412 23.9749 15.4452 23.7789 15.1916 23.6867C14.9726 23.5945 14.7767 23.5253 14.7651 23.5253C14.7421 23.5368 14.6268 23.5599 14.5 23.5945Z" fill="black"/>
<path d="M19.3998 25.554C18.7082 25.8191 18.4892 26.6605 18.9503 27.2484L19.1808 27.5481H21.1403C23.0653 27.5481 23.0999 27.5481 23.3765 27.2599C23.78 26.868 23.7684 26.1879 23.365 25.8076C23.0883 25.5424 22.9961 25.5309 21.3248 25.5079C20.3565 25.4963 19.492 25.5194 19.3998 25.554Z" fill="black"/>
<path d="M12.5984 33.1501L10.904 34.8215L10.5121 34.5909C10.051 34.3028 9.82045 34.2912 9.37091 34.5218C8.979 34.7292 8.73694 35.3402 8.89832 35.7436C8.95595 35.8934 9.32481 36.3315 9.70519 36.7118C10.3276 37.3228 10.466 37.4034 10.8694 37.4034C11.3189 37.4034 11.4111 37.3228 13.5205 35.2134C14.7308 34.0031 15.7452 32.908 15.7798 32.7582C15.9642 32.0666 15.4916 31.4672 14.7654 31.4672C14.3043 31.4672 14.2352 31.5248 12.5984 33.1501Z" fill="black"/>
<path d="M18.9961 33.7149C18.5927 34.1068 18.6042 34.7869 19.0076 35.1672C19.2958 35.4324 19.3534 35.4439 21.5666 35.4785C23.6644 35.5015 23.8604 35.49 24.2062 35.2825C24.6672 34.9943 24.8056 34.4295 24.5404 33.9108C24.4482 33.7264 24.2753 33.542 24.1831 33.4959C24.0794 33.4613 22.9267 33.4267 21.6357 33.4267C19.2843 33.4267 19.2727 33.4267 18.9961 33.7149Z" fill="black"/>
<path d="M12.5398 41.0343C10.8108 42.7518 10.7877 42.7633 10.5803 42.5328C10.2806 42.1985 9.48522 42.21 9.174 42.5558C8.62071 43.1667 8.77056 43.7777 9.6927 44.6306C10.2921 45.1954 10.6955 45.3683 11.1335 45.2531C11.2719 45.2185 12.39 44.1926 13.6118 42.9593C15.5829 40.9767 15.8249 40.6885 15.8249 40.3542C15.8249 39.8125 15.2947 39.3053 14.7299 39.3053C14.3264 39.3053 14.1651 39.4321 12.5398 41.0343Z" fill="black"/>
<path d="M18.9962 41.553C18.6388 41.8988 18.6043 42.6135 18.927 43.0054L19.146 43.282L22.5579 43.3166L25.9814 43.3512L26.3156 43.0054C26.7767 42.5443 26.7767 42.0602 26.3272 41.5991L25.9929 41.2649H22.6271H19.2728L18.9962 41.553Z" fill="black"/>
<path d="M39.0282 24.7356C35.7085 25.1391 31.2247 26.5338 30.2564 27.4675C29.5994 28.1014 29.5648 28.4588 29.9567 31.2943C30.8558 37.7954 32.8614 43.6164 35.7316 48.0081C37.0687 50.0483 38.6018 51.8695 40.0887 53.1605C41.518 54.4169 42.2096 54.6359 43.247 54.1749C43.9156 53.8636 46.7742 51.005 47.8462 49.5642C51.5232 44.6192 53.8747 38.0951 54.8429 30.2108C55.1311 27.8133 54.889 27.4214 52.6182 26.5223C50.8316 25.8307 50.0363 25.5886 48.3188 25.1967C45.5178 24.5743 41.8753 24.3898 39.0282 24.7356ZM44.8492 26.7528C47.2353 27.0064 50.1285 27.7326 52.1111 28.5855L52.8834 28.9083L52.8488 29.3578C52.7681 30.3261 52.3301 33.0118 51.9497 34.7523C50.6126 40.9998 48.2381 46.0485 44.8031 49.9446C44.0193 50.8206 42.4978 52.2153 42.3249 52.2153C42.1289 52.2153 40.3999 50.5901 39.6276 49.6794C35.5241 44.8728 32.896 38.2219 31.9163 30.1301L31.7664 28.9083L32.2966 28.6778C33.311 28.2397 35.3743 27.5712 36.6422 27.2715C39.1205 26.6836 42.3595 26.4762 44.8492 26.7528Z" fill="black"/>
<path d="M45.7608 32.5162C45.6455 32.5853 44.3776 34.1991 42.9483 36.1125C41.519 38.026 40.3202 39.6166 40.2971 39.6397C40.2741 39.6743 39.9859 39.4322 39.6516 39.0979C39.3289 38.7752 38.9254 38.464 38.7525 38.4063C38.0609 38.1412 37.3809 38.6369 37.3809 39.3976C37.3809 39.7665 37.5077 39.9394 38.6257 41.0575C39.7899 42.2217 39.8937 42.3024 40.3317 42.3024C40.5853 42.3024 40.885 42.2332 40.9887 42.1525C41.0925 42.0834 42.5564 40.1699 44.2393 37.9222C47.6166 33.4037 47.6281 33.3922 46.9596 32.7237C46.6022 32.3779 46.1412 32.2972 45.7608 32.5162Z" fill="black"/>
</svg>
