<svg width="52" height="53" viewBox="0 0 52 53" fill="none" xmlns="http://www.w3.org/2000/svg">
<path d="M28.7575 0.226131C28.0178 0.729546 27.987 0.832279 27.9562 2.91784L27.9254 4.8082L28.2028 5.02395C28.6856 5.40408 29.2507 5.26025 29.4767 4.68492C29.5281 4.53082 29.5794 3.78083 29.5794 3.02058V1.64391H30.0418C31.2541 1.64391 32.6924 2.7021 33.1752 3.95549C33.4013 4.53082 33.4218 4.76711 33.4732 7.26362C33.5348 9.94506 33.5348 9.94506 33.7917 10.2327C34.2643 10.7361 34.5314 10.7875 36.9149 10.7875H39.1134L38.9491 11.1163C38.8258 11.3628 38.7744 11.7224 38.7744 12.4313C38.7744 13.4792 38.908 13.8799 39.4936 14.5682L39.7607 14.8867L39.4936 15.1744C38.9491 15.76 38.7744 16.3045 38.7744 17.3627C38.7744 18.2462 38.8052 18.39 39.0723 18.8729C39.2367 19.1708 39.4525 19.4893 39.5552 19.5818C39.7401 19.7462 39.7299 19.7667 39.4319 20.1571C38.2915 21.5954 38.5689 23.8967 40.0073 24.8727C40.3463 25.109 40.3463 25.109 40.1614 25.3762C39.884 25.7768 39.6477 26.5576 39.6477 27.1227V27.6261L38.9593 27.3179C37.4799 26.6398 35.5279 26.3419 33.7197 26.5165C32.8259 26.5987 31.5109 26.9069 30.8945 27.1638C30.6685 27.2665 30.0931 26.3933 29.7952 25.4994C29.5794 24.883 29.5794 24.6775 29.5794 16.4483C29.5794 10.8697 29.5383 7.93141 29.4767 7.74648C29.261 7.18143 28.6856 7.02732 28.2028 7.40745L27.9357 7.61293V9.41082V11.1984L27.6583 11.2601C26.8158 11.445 26.6206 11.5786 25.4494 12.719C24.494 13.6539 24.1755 13.9004 23.9495 13.9004C23.5282 13.9004 22.7372 13.4895 22.6036 13.1915C22.5317 13.0374 22.4906 12.3183 22.4906 11.3731C22.4906 9.63684 22.3879 9.26699 21.792 8.67112C21.1139 7.99305 20.9598 7.96223 18.1756 7.96223C15.7921 7.96223 15.638 7.97251 15.2476 8.18825C14.7648 8.4451 14.3744 8.84577 14.1072 9.34918C13.9531 9.64712 13.912 10.0272 13.8607 11.4656C13.8299 12.719 13.7682 13.2737 13.6757 13.3867C13.5936 13.4792 13.2853 13.6436 12.9771 13.7669C12.5251 13.9313 12.3607 13.9518 12.1861 13.8593C12.0628 13.7977 11.4566 13.2429 10.8299 12.6368C9.82311 11.6505 9.63818 11.5067 9.10395 11.3526C8.42589 11.1574 7.88138 11.2087 7.23414 11.5272C6.68963 11.7943 3.78217 14.7223 3.5356 15.2566C3.25821 15.8319 3.26849 16.8593 3.56643 17.414C3.67944 17.6401 4.22394 18.2668 4.76845 18.801C6.01157 20.0133 6.10403 20.2085 5.82664 20.9071C5.50816 21.7393 5.54925 21.7187 3.55615 21.7906C1.6247 21.8523 1.27539 21.9447 0.700062 22.5714C0.0836396 23.229 0.0425448 23.3933 0.0117237 25.7871C-0.0190974 27.1946 0.0117237 28.1912 0.0939133 28.5302C0.248019 29.2596 0.679514 29.8144 1.33703 30.1432C1.85072 30.4 1.95345 30.4103 3.48424 30.4103C5.28213 30.4103 5.39514 30.4411 5.75472 31.15C6.1554 31.9308 6.10403 32.0335 4.789 33.3794C3.7308 34.4581 3.58697 34.6533 3.43287 35.1773C3.23767 35.8553 3.28904 36.5026 3.58697 37.0882C3.68971 37.2834 4.53215 38.1875 5.45679 39.1018C7.26496 40.8792 7.44989 40.9922 8.47726 40.9922C9.25806 40.9819 9.75119 40.6943 11.0251 39.4614C11.7032 38.7936 12.2888 38.321 12.4018 38.321C12.6895 38.321 13.3573 38.619 13.6347 38.8655C13.8504 39.0607 13.8607 39.1532 13.8607 40.5812C13.8607 42.7798 14.1278 43.4784 15.2168 44.0127C15.7408 44.2798 15.7716 44.2798 18.1037 44.2798C20.8571 44.2798 21.1036 44.2284 21.7714 43.5606C22.3981 42.9442 22.4906 42.5743 22.4906 40.7251C22.4906 39.5128 22.5214 39.1429 22.6447 38.9683C22.8296 38.7114 23.631 38.321 23.9803 38.321C24.1857 38.321 24.2166 38.3929 24.2782 38.8861C24.4323 40.2319 25.4391 42.5641 26.1994 43.3757C26.6206 43.8277 26.9494 43.8791 27.3603 43.5503C27.7918 43.2113 27.7199 42.7901 27.0829 41.7216C24.2988 37.1087 26.1378 31.1911 31.0794 28.9103C36.0313 26.6193 42.0004 29.4548 43.4695 34.7971C43.7983 35.9786 43.7983 38.2491 43.4695 39.3998C42.7401 41.9374 41.0243 44.0024 38.6922 45.153C37.295 45.8414 36.3806 46.0469 34.7677 46.0469C33.1341 46.0571 32.2506 45.8517 30.7404 45.1017C29.5383 44.5161 29.1788 44.4647 28.8706 44.8551C28.5726 45.2352 28.5932 45.6667 28.9219 45.9749C29.3123 46.3448 30.7506 47.0126 31.7575 47.3002C37.6957 49.0057 43.6955 45.4921 45.1647 39.4409C45.442 38.2902 45.4215 35.691 45.1133 34.5506C44.7948 33.3383 44.3119 32.239 43.6852 31.2938C43.3873 30.852 43.1407 30.4719 43.1407 30.4514C43.1407 30.4411 44.0962 30.4103 45.2777 30.3897C47.353 30.3589 47.4146 30.3486 47.918 30.0815C48.5755 29.7322 49.1303 29.1569 49.4282 28.5096C49.757 27.8008 49.757 26.4446 49.4488 25.8282L49.233 25.3967L49.7365 25.1604C50.3426 24.8727 50.9898 24.205 51.2878 23.5474C51.6165 22.8077 51.596 21.6057 51.2261 20.8455C51.072 20.5372 50.8357 20.1674 50.6919 20.0338L50.4453 19.7975L50.7638 19.438C51.4624 18.6366 51.709 17.5065 51.4213 16.4894C51.2364 15.873 50.8974 15.2566 50.5994 15.01C50.4351 14.8764 50.4556 14.8353 50.733 14.5477C51.2467 14.0134 51.5035 13.3148 51.5035 12.421C51.5138 11.7224 51.4727 11.558 51.1542 10.9313C50.8974 10.4279 50.6508 10.1197 50.281 9.84232C49.3461 9.13343 49.531 9.14371 41.9387 9.14371H35.1272V7.21225C35.117 4.63355 35.0245 3.95549 34.5211 2.92812C33.6273 1.10967 31.8705 0.000110626 29.8877 0.000110626C29.2404 0.000110626 29.0349 0.0412064 28.7575 0.226131ZM20.518 9.8115L20.8262 10.0683L20.8673 11.7943C20.8982 13.7052 20.9804 14.0032 21.6379 14.6401C22.0899 15.0819 23.1995 15.5237 23.8775 15.5442C24.7816 15.5545 25.1207 15.3696 26.3432 14.1778C26.9699 13.5717 27.5761 13.0169 27.6994 12.9553L27.9254 12.8422L27.9562 19.1811C27.987 25.4994 27.987 25.5303 28.2233 26.1467C28.3466 26.4857 28.624 27.0405 28.8192 27.3795L29.189 27.996L28.9527 28.1501C26.3227 29.8658 24.4837 32.8657 24.1857 35.9273L24.1138 36.6464L23.631 36.7081C22.6036 36.8313 21.5351 37.4889 21.1242 38.2594C20.929 38.6292 20.8982 38.8964 20.8468 40.458C20.7749 42.8106 20.9906 42.636 18.227 42.636C17.0763 42.636 16.0592 42.6052 15.9668 42.5743C15.6072 42.4305 15.5045 41.9785 15.5045 40.458C15.5045 39.6463 15.4531 38.8142 15.3915 38.5881C15.0524 37.3758 13.0901 36.4101 11.7135 36.78C11.3436 36.8827 11.0149 37.1293 9.99776 38.1258C8.90875 39.1737 8.693 39.3484 8.40534 39.3484C8.11768 39.3484 7.88138 39.1532 6.55607 37.8484C5.7239 37.0163 5.01502 36.2355 4.9842 36.1019C4.88146 35.7218 5.12803 35.3827 6.20677 34.3143C7.35742 33.1842 7.58344 32.7835 7.59372 31.8691C7.59372 30.6877 6.95675 29.5473 6.00129 29.0439C5.64171 28.8589 5.38487 28.8179 3.99792 28.7973C3.12466 28.7768 2.30276 28.7357 2.17948 28.7048C1.71716 28.6124 1.63497 28.222 1.63497 26.044V24.02L1.93291 23.7221L2.23084 23.4242H3.86436C5.61089 23.4242 6.08348 23.3111 6.64854 22.7769C7.15195 22.3043 7.60399 21.1639 7.60399 20.342C7.60399 19.4688 7.37797 19.0681 6.1554 17.825C5.48761 17.1469 5.01502 16.5819 4.96365 16.4072C4.90201 16.1298 5.00474 15.9963 6.5458 14.4655C8.07658 12.9244 8.21014 12.8217 8.48753 12.8833C8.66218 12.9347 9.22724 13.4073 9.91557 14.0751C10.5628 14.7223 11.2203 15.2771 11.4566 15.3696C12.1141 15.6572 12.9669 15.5956 13.8093 15.2155C14.6826 14.8148 14.9497 14.5785 15.2579 13.921C15.4839 13.4484 15.5045 13.2737 15.5045 11.8149C15.5045 10.1094 15.5661 9.85259 16.0592 9.65739C16.1723 9.60603 17.1585 9.56493 18.2475 9.56493C20.1996 9.55466 20.2201 9.55466 20.518 9.8115ZM49.1098 11.0854C49.6851 11.445 49.9727 12.0409 49.87 12.6676C49.7775 13.1915 49.2022 13.8285 48.7091 13.9723C48.4831 14.034 46.942 14.0751 45.0414 14.0751C41.8257 14.0751 41.7332 14.0648 41.2915 13.8388C40.6956 13.5409 40.3668 13.0477 40.3668 12.4621C40.3668 11.7738 40.7778 11.1471 41.3942 10.9005C41.5483 10.8389 43.0791 10.7978 45.1544 10.7978L48.6474 10.7875L49.1098 11.0854ZM49.1919 16.0168C50.0036 16.6024 50.1063 17.712 49.418 18.4106C48.8324 18.9859 48.5755 19.0167 44.8564 18.9859C41.949 18.9551 41.5072 18.9345 41.2196 18.7804C40.4388 18.3489 40.1203 17.2291 40.5929 16.5408C40.7264 16.3456 40.9935 16.0785 41.1887 15.9449L41.538 15.7086L45.1955 15.7394L48.8426 15.7702L49.1919 16.0168ZM49.1098 20.8866C49.5721 21.1845 49.9625 21.9756 49.8803 22.4276C49.7878 22.9002 49.4591 23.3933 49.0789 23.6296C48.7605 23.8248 48.555 23.8351 45.1647 23.8351C42.0723 23.8351 41.5278 23.8146 41.2298 23.6707C40.5929 23.3625 40.2641 22.6434 40.4079 21.8523C40.4696 21.4927 40.9833 20.8968 41.3428 20.7427C41.4558 20.7016 43.1716 20.6605 45.1544 20.6605C48.7296 20.6503 48.7605 20.6503 49.1098 20.8866ZM47.281 25.7871C47.7947 26.1364 48.1132 26.7939 48.0413 27.3487C47.9796 27.8419 47.7331 28.2117 47.2502 28.5302C46.9215 28.7562 46.829 28.7665 44.6818 28.7665C42.5346 28.7665 42.4421 28.7562 42.1134 28.5302C41.1271 27.8624 41.0243 26.7426 41.8873 25.9412C42.0414 25.7974 42.3086 25.633 42.4729 25.5816C42.6476 25.5303 43.7058 25.4994 44.8462 25.5097C46.8598 25.5303 46.9112 25.5405 47.281 25.7871Z" fill="#191919"/>
<path d="M16.6856 18.1229C14.0453 18.6469 11.8467 20.3728 10.7783 22.7461C10.3365 23.7221 10.1927 24.3899 10.3673 24.6981C10.6036 25.1501 11.2611 25.2734 11.6721 24.9446C11.744 24.8933 11.8776 24.6056 11.97 24.3179C12.5556 22.5303 13.7679 21.0817 15.309 20.342C16.4493 19.7975 17.4562 19.5818 18.5863 19.6537C21.1753 19.8283 23.3533 21.4824 24.319 24.02C24.5553 24.6262 24.5861 24.8625 24.5861 26.0439C24.5964 27.1946 24.5656 27.4823 24.3498 28.1398C23.8464 29.6705 22.5622 31.1705 21.1239 31.8897C20.1273 32.3931 19.326 32.578 18.2164 32.578C15.4631 32.578 13.1207 30.9445 12.1036 28.3144C11.7029 27.2768 11.5693 27.1227 11.0762 27.1227C10.7783 27.1227 10.6447 27.1843 10.4803 27.3898C10.2132 27.7288 10.2132 27.9651 10.4598 28.6945C11.3125 31.1705 13.172 33.0198 15.6583 33.8622C16.3466 34.0985 16.7165 34.1499 17.8671 34.191C19.0589 34.2321 19.3876 34.2013 20.1273 34.0163C23.117 33.2663 25.3258 31.0678 26.0861 28.1089C26.4868 26.5371 26.3121 24.3077 25.6649 22.8591C24.6786 20.6194 22.6547 18.8832 20.2814 18.2462C19.4184 18.0099 17.5795 17.9483 16.6856 18.1229Z" fill="#191919"/>
<path d="M16.778 21.9654C14.7541 22.6743 13.5623 24.6263 13.8705 26.7735C14.3637 30.2871 18.73 31.746 21.2676 29.2494C23.5586 26.9892 22.7162 23.1263 19.6854 21.9962C18.9252 21.7188 17.5485 21.6983 16.778 21.9654ZM19.5724 23.7838C20.795 24.503 21.2779 26.0851 20.6512 27.2974C19.8087 28.9412 17.7642 29.3522 16.3978 28.1502C14.6924 26.6399 15.5143 23.7736 17.754 23.4345C18.3807 23.3421 19.0279 23.4653 19.5724 23.7838Z" fill="#191919"/>
<path d="M48.4421 32.4752C48.1134 32.7321 48.1031 32.9684 48.401 34.345C48.7195 35.8347 48.7195 38.3415 48.401 39.8312C47.3428 44.7523 43.8395 48.7077 39.1239 50.2796C36.3911 51.1939 33.1549 51.2042 30.4323 50.2898C28.3776 49.6015 26.7749 48.6255 25.1105 47.0433C23.9188 45.9132 23.6311 45.8002 23.1585 46.2831C22.686 46.7454 22.7887 47.0742 23.7544 48.0502C25.7989 50.1563 28.4906 51.6254 31.5419 52.3138C32.4768 52.5192 32.8877 52.55 34.7678 52.55C36.463 52.55 37.1102 52.509 37.7986 52.3651C44.1169 51.0193 48.8736 46.1804 50.0859 39.862C50.3633 38.3723 50.3428 35.6601 50.0346 34.119C49.9113 33.4718 49.7572 32.8451 49.6955 32.7321C49.4284 32.2287 48.8942 32.1157 48.4421 32.4752Z" fill="#191919"/>
<path d="M39.135 33.4205C39.0425 33.4924 37.7788 34.8999 36.32 36.5437C34.8611 38.1978 33.6488 39.5539 33.6283 39.5539C33.6077 39.5539 32.8988 38.7525 32.0461 37.7765C31.1934 36.8108 30.3715 35.9581 30.2277 35.8964C29.8681 35.7423 29.5085 35.8348 29.2722 36.143C29.0051 36.4718 29.0154 36.7903 29.2928 37.1498C30.0016 38.0642 33.1351 41.5367 33.3303 41.6292C33.4639 41.6908 33.6899 41.7114 33.8337 41.6703C33.9981 41.6292 35.1385 40.4272 37.1624 38.1258C38.8576 36.2149 40.2959 34.5609 40.3575 34.4376C40.5322 34.0986 40.4911 33.8109 40.2137 33.5438C39.9363 33.2664 39.4021 33.2047 39.135 33.4205Z" fill="#191919"/>
</svg>
