<svg width="49" height="47" viewBox="0 0 49 47" fill="none" xmlns="http://www.w3.org/2000/svg">
<path fill-rule="evenodd" clip-rule="evenodd" d="M44.7556 37.2918H45.7889C46.4133 37.2918 47.0113 37.0436 47.4523 36.6035C47.8932 36.1625 48.1405 35.5645 48.1405 34.9411V2.3516C48.1405 1.7282 47.8923 1.1302 47.4523 0.689213C47.0122 0.247289 46.4142 0 45.7899 0C38.6364 0 9.50418 0 2.3516 0C1.72726 0 1.12926 0.247289 0.688273 0.688273C0.24823 1.12926 0 1.72726 0 2.3516V34.9402C0 35.5636 0.24823 36.1616 0.688273 36.6026C1.12926 37.0436 1.72726 37.2908 2.35066 37.2908H21.7398C22.1592 37.2908 22.4996 36.9505 22.4996 36.5311C22.4996 36.1118 22.1592 35.7714 21.7398 35.7714H2.3516C2.13158 35.7714 1.92002 35.6839 1.76393 35.5279C1.60879 35.3718 1.52041 35.1602 1.52041 34.9402V2.3516C1.52041 2.13158 1.60785 1.92002 1.76393 1.76393C1.92002 1.60785 2.13158 1.52041 2.3516 1.52041H45.7899C46.0108 1.52041 46.2224 1.60785 46.3785 1.76393C46.5336 1.92002 46.622 2.13158 46.622 2.3516V34.9402C46.622 35.1602 46.5346 35.3718 46.3785 35.5279C46.2224 35.6839 46.0108 35.7714 45.7899 35.7714H44.7565C44.3372 35.7714 43.9968 36.1118 43.9968 36.5311C43.9959 36.9514 44.3362 37.2918 44.7556 37.2918Z" fill="black"/>
<path fill-rule="evenodd" clip-rule="evenodd" d="M3.94357 7.94793H47.3819C47.8012 7.94793 48.1416 7.60756 48.1416 7.1882C48.1416 6.76884 47.8012 6.42847 47.3819 6.42847H3.94357C3.52421 6.42847 3.18384 6.76884 3.18384 7.1882C3.1829 7.60756 3.52421 7.94793 3.94357 7.94793Z" fill="black"/>
<path fill-rule="evenodd" clip-rule="evenodd" d="M21.9879 31.0007V27.7559C21.9879 26.4574 20.9349 25.4043 19.6363 25.4043C16.6604 25.4043 10.2835 25.4043 7.30668 25.4043C6.00817 25.4043 4.95508 26.4574 4.95508 27.7559V31.0007C4.95508 32.2992 6.00817 33.3523 7.30668 33.3523H19.6363C20.9358 33.3523 21.9879 32.2992 21.9879 31.0007ZM20.4675 27.7559V31.0007C20.4675 31.4605 20.0952 31.8319 19.6354 31.8319C16.6595 31.8319 10.2826 31.8319 7.30574 31.8319C6.84689 31.8319 6.47454 31.4605 6.47454 31.0007V27.7559C6.47454 27.297 6.84689 26.9247 7.30574 26.9247H19.6354C20.0952 26.9247 20.4675 27.297 20.4675 27.7559Z" fill="black"/>
<path fill-rule="evenodd" clip-rule="evenodd" d="M34.6479 23.7413H42.028C42.6514 23.7413 43.2494 23.493 43.6913 23.0521C44.1323 22.6111 44.3805 22.0131 44.3805 21.3897C44.3805 19.275 44.3805 15.561 44.3805 13.4463C44.3805 12.8229 44.1323 12.2249 43.6913 11.783C43.2503 11.342 42.6523 11.0947 42.028 11.0947C39.0521 11.0947 32.6752 11.0947 29.6983 11.0947C29.0749 11.0947 28.4769 11.343 28.0359 11.783C27.5949 12.224 27.3477 12.822 27.3477 13.4463V21.3897C27.3477 22.0131 27.5949 22.6111 28.0359 23.0521C28.4769 23.493 29.0749 23.7413 29.6983 23.7413H31.6663C32.0856 23.7413 32.426 23.4009 32.426 22.9815C32.426 22.5622 32.0856 22.2218 31.6663 22.2218H29.6983C29.4783 22.2218 29.2667 22.1344 29.1107 21.9783C28.9546 21.8222 28.8671 21.6106 28.8671 21.3906C28.8671 19.276 28.8671 15.5619 28.8671 13.4473C28.8671 13.2272 28.9546 13.0157 29.1107 12.8596C29.2667 12.7045 29.4783 12.6161 29.6983 12.6161H42.028C42.248 12.6161 42.4596 12.7035 42.6157 12.8596C42.7717 13.0157 42.8592 13.2272 42.8592 13.4473V21.3906C42.8592 21.6106 42.7717 21.8222 42.6157 21.9783C42.4596 22.1344 42.248 22.2218 42.028 22.2218H34.6479C34.2285 22.2218 33.8881 22.5622 33.8881 22.9815C33.8872 23.4009 34.2285 23.7413 34.6479 23.7413Z" fill="black"/>
<path fill-rule="evenodd" clip-rule="evenodd" d="M44.2141 3.21387H42.5827C42.1634 3.21387 41.823 3.55424 41.823 3.9736C41.823 4.39296 42.1634 4.73333 42.5827 4.73333H44.2141C44.6334 4.73333 44.9738 4.39296 44.9738 3.9736C44.9738 3.55424 44.6325 3.21387 44.2141 3.21387Z" fill="black"/>
<path fill-rule="evenodd" clip-rule="evenodd" d="M38.9194 3.21387H37.2881C36.8687 3.21387 36.5283 3.55424 36.5283 3.9736C36.5283 4.39296 36.8687 4.73333 37.2881 4.73333H38.9194C39.3388 4.73333 39.6791 4.39296 39.6791 3.9736C39.6791 3.55424 39.3388 3.21387 38.9194 3.21387Z" fill="black"/>
<path fill-rule="evenodd" clip-rule="evenodd" d="M33.6247 3.21387H31.9934C31.574 3.21387 31.2336 3.55424 31.2336 3.9736C31.2336 4.39296 31.574 4.73333 31.9934 4.73333H33.6247C34.0441 4.73333 34.3845 4.39296 34.3845 3.9736C34.3845 3.55424 34.0441 3.21387 33.6247 3.21387Z" fill="black"/>
<path fill-rule="evenodd" clip-rule="evenodd" d="M37.0783 31.8047C36.9223 31.6486 36.8348 31.437 36.8348 31.2161C36.8348 30.996 36.9223 30.7845 37.0783 30.6284L38.2875 29.4192C38.9598 28.7469 39.161 27.7352 38.7971 26.8561C38.4333 25.9779 37.5757 25.4043 36.6251 25.4043C33.3728 25.4043 28.8745 25.4043 26.5145 25.4043C25.8911 25.4043 25.2931 25.6516 24.8521 26.0926C24.4111 26.5336 24.1638 27.1316 24.1638 27.755V37.8656C24.1638 38.8162 24.7364 39.6747 25.6156 40.0376C26.4947 40.4015 27.5065 40.2003 28.1787 39.528L29.3879 38.3188C29.544 38.1627 29.7556 38.0753 29.9756 38.0753C30.1965 38.0753 30.4081 38.1627 30.5642 38.3188L38.5555 46.3101C39.4741 47.2287 40.9626 47.2287 41.8812 46.3101C42.8149 45.3755 44.1369 44.0544 45.0715 43.1198C45.9902 42.2012 45.9902 40.7127 45.0715 39.7941L37.0783 31.8047ZM36.0036 32.8794L43.9949 40.8707C44.3193 41.1951 44.3193 41.7216 43.9949 42.046C43.0603 42.9797 41.7392 44.3017 40.8055 45.2354C40.4802 45.5598 39.9546 45.5598 39.6302 45.2354L31.6389 37.2441C31.1979 36.8031 30.5999 36.5549 29.9756 36.5549C29.3522 36.5549 28.7542 36.8031 28.3132 37.2441L27.104 38.4533C26.8661 38.6912 26.5088 38.7617 26.1976 38.6329C25.8864 38.504 25.6852 38.2013 25.6852 37.8656V27.7559C25.6852 27.5359 25.7726 27.3243 25.9287 27.1682C26.0848 27.0121 26.2963 26.9247 26.5164 26.9247H36.627C36.9627 26.9247 37.2664 27.1269 37.3952 27.4371C37.524 27.7484 37.4526 28.1057 37.2147 28.3436L36.0055 29.5527C35.5645 29.9937 35.3163 30.5917 35.3163 31.2151C35.3144 31.8404 35.5626 32.4384 36.0036 32.8794Z" fill="black"/>
<path fill-rule="evenodd" clip-rule="evenodd" d="M5.71579 12.6152H21.2283C21.6476 12.6152 21.988 12.2748 21.988 11.8554C21.988 11.4361 21.6476 11.0957 21.2283 11.0957H5.71579C5.29643 11.0957 4.95606 11.4361 4.95606 11.8554C4.95512 12.2748 5.29549 12.6152 5.71579 12.6152Z" fill="black"/>
<path fill-rule="evenodd" clip-rule="evenodd" d="M5.71579 16.873H16.9999C17.4192 16.873 17.7596 16.5326 17.7596 16.1132C17.7596 15.6939 17.4183 15.3535 16.9999 15.3535H5.71579C5.29643 15.3535 4.95606 15.6939 4.95606 16.1132C4.95512 16.5326 5.29549 16.873 5.71579 16.873Z" fill="black"/>
<path fill-rule="evenodd" clip-rule="evenodd" d="M5.71579 21.1308H13.472C13.8914 21.1308 14.2318 20.7904 14.2318 20.3711C14.2318 19.9517 13.8914 19.6113 13.472 19.6113H5.71579C5.29643 19.6113 4.95606 19.9517 4.95606 20.3711C4.95512 20.7904 5.29549 21.1308 5.71579 21.1308Z" fill="black"/>
</svg>
