<svg width="54" height="53" viewBox="0 0 54 53" fill="none" xmlns="http://www.w3.org/2000/svg">
<path d="M16.2444 0.162281C15.2602 0.465115 14.1894 1.3628 13.7244 2.26049C13.2269 3.2447 13.1836 3.68813 13.1836 8.01433C13.1836 11.8322 13.1944 12.1026 13.3891 12.3405C13.6378 12.6434 14.2868 12.6866 14.568 12.4054C14.7302 12.2324 14.7518 11.8106 14.8059 7.86291L14.86 3.51508L15.152 3.00676C15.3251 2.73637 15.6387 2.35783 15.855 2.16315C16.6878 1.49258 16.1362 1.51422 29.4825 1.51422H41.6283V4.88865C41.6283 6.74892 41.6824 8.47939 41.7365 8.73896C42.0285 9.99356 42.937 11.1292 44.0943 11.7024L44.8189 12.0593L48.5178 12.0918L52.2275 12.1242V30.4889V48.8428L51.9463 49.4052C51.7949 49.7189 51.4704 50.1407 51.2217 50.3462C50.3673 51.0816 51.0919 51.0492 36.6316 51.0492C23.7071 51.0492 23.5665 51.0492 23.3502 51.2655C23.069 51.5467 23.069 52.1415 23.3285 52.3903C23.5232 52.5525 24.5507 52.5633 37.0967 52.5417L50.6593 52.5093L51.2758 52.2173C52.4871 51.6548 53.4605 50.4327 53.7309 49.124C53.8174 48.713 53.8498 43.1106 53.8498 29.8184V11.0859L48.3123 5.5484L42.764 4.57764e-05L29.7313 0.0108643C19.2186 0.0108643 16.6121 0.0433083 16.2444 0.162281ZM49.6318 9.06343L51.2001 10.5992H48.4854C45.403 10.5992 44.992 10.5343 44.2349 9.87459C43.9753 9.65828 43.6508 9.22566 43.5102 8.93364C43.2615 8.40368 43.2507 8.29553 43.2507 5.57003V2.758L45.6625 5.14822C46.982 6.4569 48.7666 8.21982 49.6318 9.06343Z" fill="#191919"/>
<path d="M16.7966 3.50416C16.6019 3.65557 16.5911 3.83944 16.5586 6.80288C16.5262 9.84204 16.537 9.95019 16.7533 10.1665C16.9696 10.3828 17.0453 10.3828 27.3417 10.3828H37.7245L37.8868 10.1449C38.0382 9.93938 38.0598 9.44186 38.0598 6.84615C38.0598 3.92596 38.049 3.77455 37.8435 3.56905C37.6272 3.35274 37.4866 3.35274 27.32 3.35274C18.5919 3.35274 16.9804 3.37437 16.7966 3.50416ZM36.5456 6.86778V8.86864H27.3525H18.1593V6.86778V4.86691H27.3525H36.5456V6.86778Z" fill="#191919"/>
<path d="M16.8936 12.5352C16.3312 12.9895 15.1956 14.1359 14.8279 14.6442C14.5034 15.0661 14.5034 15.8988 14.817 16.4072L15.055 16.7857L9.88517 21.9555L4.70455 27.1361L4.44498 26.9307C4.08807 26.6495 3.51485 26.5521 3.02815 26.6927C2.4333 26.8766 0.140412 29.2235 0.0430727 29.7643C-0.11916 30.6187 -0.0326356 30.7269 4.19622 34.9666C6.37014 37.1513 8.31693 39.044 8.5116 39.1738C8.79281 39.3468 8.9983 39.3793 9.46337 39.3468C10.0582 39.2928 10.069 39.2928 11.302 38.0598C11.9942 37.3784 12.5999 36.7403 12.6648 36.6213C12.8594 36.2644 12.8054 35.529 12.5458 35.0855L12.3078 34.6854L13.3894 33.593L14.4709 32.5114L15.6498 33.6687C16.6773 34.6745 16.872 34.826 17.1964 34.826C17.4668 34.826 17.6615 34.7286 17.9643 34.4258L18.3753 34.0256L18.6349 34.2852C18.7755 34.4366 21.5118 37.6164 24.724 41.3693C27.9362 45.1115 30.6509 48.2696 30.7699 48.367C30.878 48.4643 31.2458 48.6806 31.5702 48.8537C32.111 49.124 32.2732 49.1565 33.2466 49.1565C34.2525 49.1565 34.3823 49.1349 35.0528 48.7996C36.3074 48.1831 37.0537 47.0583 37.1618 45.609C37.2267 44.6572 36.9564 43.7055 36.4264 43.0133C36.2317 42.7537 32.9005 39.8335 29.0178 36.5024L21.9553 30.4673L22.3771 30.0023C23.0476 29.2668 23.0044 29.1478 21.5984 27.7202L20.387 26.498L21.4794 25.3949L22.5717 24.3025L22.8854 24.5296C23.3072 24.8216 23.6966 24.919 24.1941 24.8216C24.5185 24.7676 24.843 24.508 25.8705 23.4913C27.244 22.1286 27.4387 21.7825 27.3089 21.0146C27.2332 20.6577 26.7465 20.1277 23.1558 16.5153C20.917 14.2657 18.9486 12.3514 18.7863 12.2648C18.6241 12.1783 18.2564 12.1134 17.9535 12.1134C17.4993 12.1134 17.3479 12.1675 16.8936 12.5352ZM21.912 17.5428L25.7299 21.3607L24.7889 22.3016L23.8588 23.2426L20.0409 19.3814L16.2339 15.5203L17.1099 14.6226C17.5966 14.1359 18.0184 13.7357 18.0509 13.7357C18.0833 13.7357 19.8246 15.4554 21.912 17.5428ZM16.3204 28.3907L11.129 33.5822L8.5116 30.954L5.88344 28.3367L11.0749 23.1452L16.2663 17.9538L18.8837 20.5711L21.5118 23.1993L16.3204 28.3907ZM19.0567 31.0622L17.2397 32.8792L16.461 32.1005L15.6715 31.3109L17.4776 29.5047L19.2947 27.6877L20.0734 28.4665L20.8629 29.256L19.0567 31.0622ZM10.2637 36.8268C9.75539 37.3352 9.32277 37.7353 9.29032 37.7245C9.25787 37.7029 7.53821 35.9724 5.45082 33.8742L1.67621 30.0671L2.58471 29.1478L3.50403 28.2285L7.34353 32.068L11.183 35.9075L10.2637 36.8268ZM27.7307 37.5298C35.0528 43.792 35.0745 43.8136 35.3773 44.3869C35.6909 44.9925 35.6152 45.9984 35.2151 46.5932C34.5878 47.5558 33.2575 47.9235 32.2732 47.4152C31.9488 47.253 30.3265 45.436 25.6974 40.0282L19.5434 32.8575L20.1707 32.2194C20.7872 31.5921 20.798 31.5921 21.0251 31.7868C21.1441 31.895 24.1616 34.4799 27.7307 37.5298Z" fill="#191919"/>
<path d="M28.715 15.1525C28.3581 15.4337 28.3257 16.0069 28.6502 16.3314C28.8665 16.5477 29.0071 16.5477 38.9573 16.5477C50.2271 16.5477 49.5241 16.5909 49.5241 15.8122C49.5241 15.3471 49.4483 15.2174 49.1239 15.0443C48.9508 14.9578 46.2253 14.9253 38.9465 14.9253C29.0503 14.9253 29.0071 14.9253 28.715 15.1525Z" fill="#191919"/>
<path d="M28.6709 18.5593C28.4979 18.6782 28.433 18.8297 28.433 19.1325C28.433 19.9545 27.611 19.9004 38.9997 19.9004C48.7121 19.9004 49.1771 19.8896 49.3393 19.7057C49.5881 19.4353 49.5773 18.7864 49.3285 18.5701C49.1447 18.397 48.2686 18.3862 39.0214 18.3862C30.0445 18.3862 28.8873 18.4079 28.6709 18.5593Z" fill="#191919"/>
<path d="M28.6502 21.9556C28.3257 22.28 28.3581 22.8532 28.715 23.1344C28.9962 23.3616 29.1152 23.3616 33.701 23.3616H38.3949L38.6545 23.0912C39.0222 22.7343 39.0114 22.2584 38.6437 21.9664C38.3625 21.7392 38.2435 21.7392 33.6145 21.7392C29.0071 21.7392 28.8556 21.7501 28.6502 21.9556Z" fill="#191919"/>
<path d="M28.6183 25.3949C28.3695 25.6653 28.3912 26.2385 28.6507 26.498C28.8562 26.7035 29.0077 26.7144 33.6799 26.7144C38.3522 26.7144 38.5037 26.7035 38.7092 26.498C38.9687 26.2385 38.9904 25.7734 38.7524 25.4381L38.5902 25.2002H33.6908C29.0834 25.2002 28.7805 25.211 28.6183 25.3949Z" fill="#191919"/>
<path d="M41.4669 29.1045C39.8446 29.3533 38.7414 29.9265 37.5192 31.1486C36.481 32.1761 35.9185 33.1603 35.6157 34.469C35.3778 35.464 35.4535 37.3135 35.7779 38.2869C36.2538 39.7902 37.5192 41.3801 38.8387 42.1588C40.9261 43.3918 43.5435 43.4891 45.7174 42.3967C48.0968 41.207 49.5461 38.8384 49.5461 36.1238C49.5569 33.9607 48.6808 32.0355 47.0585 30.6836C46.3879 30.1212 45.0036 29.4073 44.2248 29.2235C43.4786 29.0396 42.1915 28.9855 41.4669 29.1045ZM43.5975 30.7268C44.625 30.9431 45.5119 31.4406 46.3447 32.2734C47.1667 33.0954 47.5668 33.7984 47.848 34.88C48.6159 37.8867 46.4204 41.0664 43.2298 41.5423C41.6075 41.7803 39.8662 41.1854 38.6549 39.9633C37.4435 38.7519 36.8379 37.0106 37.0758 35.3991C37.5409 32.2518 40.5584 30.0887 43.5975 30.7268Z" fill="#191919"/>
<path d="M3.44973 40.1364C3.29831 40.2013 3.03874 40.3743 2.8765 40.5365C2.28165 41.0989 2.21676 41.3369 2.1735 43.1647L2.13024 44.8519L1.36234 44.9168C0.205078 44.9925 0.205078 44.9925 0.205078 47.426C0.205078 49.2106 0.226709 49.4269 0.410572 49.654L0.616067 49.9136H10.7286C20.5166 49.9136 20.8519 49.9028 21.0682 49.7081C21.2845 49.5134 21.2953 49.3944 21.2953 47.426C21.2953 44.9493 21.3061 44.9709 20.1056 44.906L19.3593 44.8627L19.3269 43.1106C19.2944 41.4018 19.2836 41.3369 18.9916 40.9043C18.8294 40.6555 18.5049 40.3527 18.267 40.2337C17.856 40.0282 17.6613 40.0174 10.7826 40.0282C6.36991 40.0282 3.62277 40.0715 3.44973 40.1364ZM17.618 41.7479C17.8127 41.9426 17.8343 42.1048 17.8343 43.4243V44.8844H10.8043H3.77419V43.381C3.77419 41.9426 3.78501 41.856 4.01213 41.7046C4.22844 41.5532 5.05042 41.5316 10.8259 41.5316C17.2611 41.5316 17.4017 41.5316 17.618 41.7479ZM19.7811 47.426V48.3453H10.8043H1.8274V47.426V46.5067H10.8043H19.7811V47.426Z" fill="#191919"/>
</svg>
