<svg width="60" height="59" viewBox="0 0 60 59" fill="none" xmlns="http://www.w3.org/2000/svg">
<path d="M18.9592 0.275932L18.7054 0.541183V7.71447V14.8878L18.4287 15.0031C17.9904 15.1645 17.2523 15.8796 17.0217 16.3639C16.8487 16.6868 16.791 17.1481 16.7449 18.336L16.6872 19.8814L15.5916 20.1005C12.4317 20.7348 9.13337 22.384 6.59619 24.6097C3.51698 27.3084 1.26812 31.1949 0.345514 35.4504C0.114862 36.4883 0.0917969 36.9612 0.0917969 39.3946C0.0917969 41.8395 0.114862 42.3008 0.345514 43.3156C1.24506 47.3636 2.92882 50.4428 5.77738 53.3029C8.09543 55.6209 10.4135 57.0741 13.4004 58.0774C15.6954 58.8501 16.7218 59 19.6857 59C22.0268 59 22.4881 58.9654 23.5837 58.7347C28.5082 57.6853 32.6022 55.0674 35.5661 51.1002C36.6502 49.6471 37.8957 47.2367 38.4377 45.5184L38.8298 44.2959H47.7676H56.7054L57.282 44.0191C57.974 43.6847 58.516 43.1427 58.8274 42.4507C59.058 41.9317 59.0696 41.7933 59.0696 22.1533C59.0696 2.51326 59.058 2.37487 58.8274 1.8559C58.516 1.16394 57.974 0.621914 57.282 0.287468L56.7054 0.010685H46.2684C36.0159 0.010685 35.8198 0.0222168 35.3124 0.252869C34.6204 0.564251 34.0784 1.10628 33.744 1.79824L33.4672 2.37487V13.7691V25.1633L32.5792 24.4022C29.8344 22.0495 27.1704 20.7925 23.0186 19.9044C22.788 19.8468 22.7649 19.766 22.7188 18.3821C22.6842 17.1597 22.6265 16.8252 22.4189 16.4331C22.1306 15.868 21.5886 15.3029 21.1158 15.0492L20.7813 14.8762V7.84133C20.7813 0.402794 20.7698 0.275932 20.2623 0.0798798C19.8241 -0.0815773 19.2129 0.010685 18.9592 0.275932ZM39.3488 2.85924C39.3488 3.82798 39.6948 4.62373 40.3291 5.18883C41.2171 5.96151 41.1133 5.94998 46.2107 5.94998C51.5273 5.94998 51.5388 5.94998 52.4153 4.96971C52.9919 4.32388 53.1879 3.78185 53.1879 2.79004V2.08656H54.7564H56.3248L56.6593 2.421L56.9937 2.75545V22.1533V41.5512L56.6593 41.8856L56.3248 42.22H46.2684H36.2119L35.8775 41.8856L35.543 41.5512V22.1533V2.75545L35.8775 2.421L36.2119 2.08656H37.7804H39.3488V2.85924ZM51.1121 2.69778C51.1121 3.21675 51.0659 3.36668 50.8122 3.59733L50.5124 3.87411H46.2453H41.9782L41.7015 3.5512C41.4939 3.29748 41.4247 3.08989 41.4247 2.65165V2.08656H46.2684H51.1121V2.69778ZM20.147 16.9175C20.493 17.0559 20.666 17.6095 20.666 18.6243V19.5931L19.7434 19.6392L18.8208 19.6738V18.5321C18.8208 17.5057 18.8438 17.3557 19.0745 17.1135C19.3167 16.8483 19.7549 16.7676 20.147 16.9175ZM21.3695 21.8073C25.5097 22.2225 29.2116 23.9985 32.1755 26.9624L33.4672 28.2656V29.9032V31.5408L32.9251 30.7105C30.0997 26.455 25.3021 23.7333 20.4469 23.6179C19.3743 23.5949 19.2821 23.6179 19.0053 23.8717C18.6016 24.2522 18.5901 24.9327 18.9707 25.3132C19.2013 25.5439 19.4089 25.59 20.2739 25.6592C21.727 25.7745 22.5227 25.9245 23.7798 26.305C27.6432 27.4929 30.9069 30.5029 32.4177 34.2625C34.4129 39.2792 33.3288 44.8725 29.6038 48.7821C27.9892 50.4889 26.1786 51.6537 24.0566 52.3572C16.5027 54.8944 8.47601 50.5005 6.41167 42.7044C6.04263 41.3205 5.91577 38.9448 6.12335 37.4917C6.66539 33.8012 8.75279 30.353 11.7282 28.231C12.5009 27.689 14.9227 26.4204 15.2111 26.4204C15.4186 26.4204 15.8223 25.8437 15.8223 25.5324C15.8223 25.0941 15.4994 24.5867 15.1765 24.506C14.6921 24.3791 14.1385 24.529 12.893 25.1287C8.94884 27.0085 6.06569 30.2838 4.69331 34.424C4.16281 36.0386 3.93216 37.5378 3.93216 39.4292C3.94369 42.0932 4.40499 44.0768 5.56979 46.4295C7.70332 50.7542 11.5898 53.7527 16.5142 54.8713C17.7598 55.1596 21.5079 55.1596 22.8226 54.8713C25.8557 54.214 28.3928 52.8992 30.561 50.8234C32.3831 49.0704 33.7555 46.9945 34.5628 44.7342L34.8742 43.8577L35.347 44.0768C35.6122 44.1921 36.0044 44.2959 36.2119 44.2959C36.408 44.2959 36.581 44.342 36.581 44.3997C36.581 44.6534 35.9467 46.268 35.4854 47.1791C33.917 50.3044 31.2299 53.1184 28.2083 54.7906C26.3862 55.7939 24.1604 56.5436 22.0845 56.8549C20.7352 57.0625 18.2095 57.0164 16.7218 56.7627C12.005 55.9439 7.70332 53.1645 5.05082 49.1973C1.56797 43.973 1.0836 37.4455 3.78223 31.783C6.93064 25.1287 14.0809 21.0808 21.3695 21.8073Z" fill="black"/>
<path d="M43.7654 12.0161C43.5001 12.143 43.1657 12.4313 43.0388 12.6389C42.8313 12.9734 40.6631 19.9506 40.3748 21.2076C40.2364 21.8304 40.3979 22.4647 40.8015 22.9606C41.2513 23.4796 41.6665 23.6526 42.5199 23.6526H43.2695V27.5736C43.2695 31.9099 43.281 32.0137 43.9845 32.3712C44.4804 32.6249 45.2877 32.5327 45.6337 32.1752C45.9566 31.8407 51.8844 22.2802 52.115 21.7035C52.3111 21.2307 52.2419 20.6771 51.9074 20.262C51.5614 19.8237 51.2616 19.6969 50.4082 19.6277L49.647 19.5585L50.4428 16.9636C51.1232 14.7263 51.227 14.265 51.1924 13.6538C51.1578 12.8119 50.9272 12.4313 50.2352 12.0392C49.8085 11.7855 49.6701 11.774 47.0176 11.774C44.4343 11.774 44.2152 11.7855 43.7654 12.0161ZM49.105 14.0459C48.2055 16.9175 47.5366 19.3624 47.5366 19.743C47.5366 20.7117 48.2285 21.519 49.1857 21.6689L49.6816 21.7497L47.5481 25.1979L45.403 28.6577L45.3454 25.7746L45.2877 22.8799L44.9648 22.4647C44.5381 21.8996 44.0652 21.6689 43.1888 21.5997C42.5891 21.5536 42.4622 21.5075 42.5083 21.3576C42.7505 20.5387 44.6765 14.1035 44.7111 13.9882C44.7457 13.8844 45.3108 13.8498 46.9599 13.8498C49.0127 13.8498 49.1627 13.8614 49.105 14.0459Z" fill="black"/>
<path d="M41.9316 38.4143C41.2858 38.6681 41.1013 39.6022 41.5972 40.0866L41.874 40.3749H46.7638C51.5037 40.3749 51.6536 40.3633 51.8958 40.1442C52.2303 39.8328 52.3225 39.4061 52.1495 38.9794C51.8612 38.3105 51.8035 38.299 46.7638 38.3105C44.2382 38.3105 42.0585 38.3567 41.9316 38.4143Z" fill="black"/>
<path d="M17.8989 31.5639C15.0273 32.0829 12.7554 33.2707 10.9563 35.1621C10.2067 35.9463 10.0914 36.4076 10.5181 36.9496C11.0255 37.5955 11.6252 37.4571 12.7093 36.4076C14.6121 34.5855 16.6303 33.7205 19.2367 33.6052C22.1199 33.4783 24.5994 34.4009 26.6637 36.4076C27.471 37.1918 27.8977 37.4225 28.3475 37.3071C28.7511 37.2034 29.0856 36.719 29.0856 36.2577C29.0856 35.4504 27.102 33.732 24.9915 32.7056C23.1578 31.8061 22.2698 31.5985 20.0325 31.5524C19.0176 31.5293 18.0604 31.5408 17.8989 31.5639Z" fill="black"/>
<path d="M17.7142 35.5887C16.0766 35.9462 14.2544 36.9726 13.1473 38.1605C12.7091 38.6333 12.5938 38.8294 12.5938 39.1523C12.5938 39.7635 13.0089 40.1787 13.6086 40.1787C14.0353 40.1787 14.1622 40.098 14.9118 39.406C16.2842 38.1374 17.8988 37.4916 19.6863 37.4916C21.4623 37.4916 23.1 38.1374 24.4493 39.3945C25.1643 40.0519 25.3142 40.1441 25.7179 40.1441C26.3291 40.1441 26.6635 39.8558 26.7443 39.2561C26.8019 38.8063 26.7673 38.7487 26.2484 38.172C25.0836 36.9265 23.3306 35.9578 21.5892 35.5887C20.5974 35.3811 18.6714 35.3811 17.7142 35.5887Z" fill="black"/>
<path d="M18.1411 39.5213C17.2415 39.7635 16.2266 40.3401 15.5232 41.009C14.9811 41.5165 14.9004 41.6549 14.9004 42.0354C14.9004 42.3583 14.9811 42.5544 15.2348 42.8081C15.7423 43.304 16.1459 43.2579 16.884 42.6121C17.8181 41.7817 18.5678 41.4703 19.6864 41.4703C20.7705 41.4703 21.5316 41.7702 22.4312 42.5429C23.0655 43.0964 23.5614 43.1772 24.0342 42.7966C24.68 42.2892 24.484 41.4703 23.5383 40.7207C21.9699 39.4752 19.9632 39.0254 18.1411 39.5213Z" fill="black"/>
<path d="M18.648 43.4309C16.9988 44.0422 16.2492 46.0373 17.068 47.6519C18.0021 49.5086 20.5393 49.82 21.9578 48.24C22.3845 47.7672 22.742 46.8561 22.742 46.2564C22.742 45.2531 21.9924 44.0422 21.0813 43.5809C20.4701 43.2695 19.2823 43.2003 18.648 43.4309ZM20.2741 45.5991C20.5047 45.7951 20.5854 45.9797 20.5854 46.2564C20.5854 46.7062 20.1241 47.179 19.6744 47.179C19.2707 47.179 18.821 46.6947 18.821 46.2564C18.821 45.8182 19.2707 45.3338 19.6744 45.3338C19.8358 45.3338 20.1011 45.4607 20.2741 45.5991Z" fill="black"/>
</svg>
