<svg width="17" height="20" viewBox="0 0 17 20" fill="none" xmlns="http://www.w3.org/2000/svg">
<path d="M8.15287 10.1911C8.71338 10.1911 9.19338 9.99134 9.59287 9.59185C9.99236 9.19236 10.1918 8.7127 10.1911 8.15287C10.1911 7.59236 9.99134 7.11236 9.59185 6.71287C9.19236 6.31338 8.7127 6.11397 8.15287 6.11465C7.59236 6.11465 7.11236 6.3144 6.71287 6.71389C6.31338 7.11338 6.11397 7.59304 6.11465 8.15287C6.11465 8.71338 6.3144 9.19338 6.71389 9.59287C7.11338 9.99236 7.59304 10.1918 8.15287 10.1911ZM8.15287 20C8.01698 20 7.8811 19.9745 7.74522 19.9236C7.60934 19.8726 7.49045 19.8047 7.38854 19.7197C4.9087 17.5287 3.05733 15.4945 1.8344 13.6173C0.611465 11.7401 0 9.98658 0 8.35669C0 5.80892 0.819703 3.77919 2.45911 2.26752C4.09851 0.755839 5.99643 0 8.15287 0C10.31 0 12.2082 0.755839 13.8476 2.26752C15.487 3.77919 16.3064 5.80892 16.3057 8.35669C16.3057 9.98726 15.6943 11.7411 14.4713 13.6183C13.2484 15.4955 11.397 17.5293 8.9172 19.7197C8.81529 19.8047 8.69639 19.8726 8.56051 19.9236C8.42463 19.9745 8.28875 20 8.15287 20Z" fill="#191919"/>
</svg>
