<svg width="18" height="16" viewBox="0 0 18 16" fill="none" xmlns="http://www.w3.org/2000/svg">
<path d="M1 4C1 2.89543 1.89543 2 3 2H14C15.1046 2 16 2.89543 16 4V8H1V4Z" fill="#151515"/>
<path d="M4.51387 6.03638C4.00543 6.15826 3.90096 6.84778 4.35019 7.12637C4.61834 7.29005 4.99096 7.19602 5.16159 6.92439C5.32179 6.66321 5.23124 6.2697 4.97354 6.11647C4.83773 6.0329 4.65665 6.00504 4.51387 6.03638Z" fill="white"/>
<path d="M8.12187 6.03986C7.78755 6.11647 7.58906 6.48213 7.69701 6.81644C7.74925 6.97663 7.9373 7.1403 8.11838 7.18905C8.47359 7.28656 8.84969 6.99404 8.84969 6.61794C8.84969 6.23487 8.50145 5.95628 8.12187 6.03986Z" fill="white"/>
<path d="M11.7224 6.03638C11.2139 6.15826 11.1095 6.84778 11.5587 7.12637C11.8268 7.29005 12.1995 7.19602 12.3701 6.92439C12.5303 6.66321 12.4397 6.2697 12.182 6.11647C12.0462 6.0329 11.8651 6.00504 11.7224 6.03638Z" fill="white"/>
<path d="M13.2999 8.51237C13.1711 8.53327 12.9134 8.59595 12.7253 8.65515C11.4508 9.05911 10.5001 10.1352 10.2737 11.4376C10.218 11.7719 10.218 12.357 10.2737 12.6913C10.5279 14.1365 11.6632 15.2822 13.1502 15.5851C13.4323 15.6409 14.1009 15.6409 14.4213 15.5851C15.8038 15.3379 16.9042 14.3176 17.2664 12.9385C17.343 12.6495 17.3569 12.5311 17.3569 12.0644C17.3569 11.5943 17.3465 11.4829 17.2664 11.1903C16.852 9.62674 15.5252 8.55416 13.9337 8.49496C13.7143 8.488 13.4288 8.49496 13.2999 8.51237ZM14.3725 9.59192C15.163 9.7939 15.7446 10.2675 16.0963 11.0023C16.6465 12.148 16.2077 13.5758 15.1108 14.2305C14.1183 14.819 12.9134 14.6971 12.0881 13.9206C11.7642 13.6176 11.597 13.3773 11.4403 12.9908C10.8553 11.549 11.7398 9.91578 13.2895 9.57451C13.6099 9.50486 14.0521 9.51182 14.3725 9.59192Z" fill="#0C0C0C"/>
<path d="M14.6826 11.0441C14.6443 11.0511 14.3482 11.2704 14.0244 11.5316L13.4359 12.0018L13.3105 11.852C13.1015 11.5943 13.0006 11.5142 12.8543 11.4898C12.4712 11.4237 12.1474 11.7893 12.2692 12.1445C12.3284 12.3117 12.9448 13.1022 13.0806 13.1823C13.2199 13.2693 13.4672 13.2693 13.61 13.1788C13.711 13.1161 15.1039 12.0087 15.2154 11.9008C15.2781 11.8416 15.3616 11.6291 15.3616 11.5351C15.3616 11.4898 15.3303 11.3923 15.2955 11.3122C15.198 11.0998 14.9507 10.9884 14.6826 11.0441Z" fill="#0C0C0C"/>
<path d="M4.53974 0.514897L4.53889 0.515203C4.398 0.566799 4.28039 0.640134 4.20274 0.760718C4.1267 0.87879 4.10268 1.02125 4.10268 1.1819V1.22344H3.55619C2.72096 1.22344 2.41075 1.26863 1.97564 1.48236C1.46857 1.7268 1.08525 2.10991 0.844113 2.61415C0.835015 2.63284 0.826022 2.651 0.817173 2.66886C0.766712 2.77075 0.720953 2.86315 0.687139 2.98928C0.647675 3.13649 0.624664 3.32611 0.610405 3.64244C0.584235 4.22302 0.58655 5.26816 0.591142 7.34138C0.591551 7.52618 0.591979 7.71915 0.592406 7.92068L0.592406 7.92072L0.602853 12.326L0.602915 12.352L0.611741 12.3765L0.719576 12.6756C0.719595 12.6757 0.719614 12.6757 0.719633 12.6758C1.00724 13.4795 1.62969 14.0598 2.42538 14.2643L2.42541 14.2643C2.57164 14.3019 2.68506 14.3195 3.14444 14.3287C3.60299 14.3378 4.41899 14.3387 5.97647 14.3387H9.22208H9.26805L9.30612 14.3129L9.42368 14.2334C9.42383 14.2333 9.42397 14.2332 9.42412 14.2331C9.51469 14.1726 9.58965 14.085 9.64211 13.9922C9.6943 13.9 9.73076 13.791 9.73076 13.6838C9.73076 13.5765 9.6943 13.4675 9.64211 13.3753C9.58965 13.2826 9.5147 13.1949 9.42413 13.1344C9.42398 13.1343 9.42383 13.1342 9.42368 13.1341L9.30612 13.0546L9.26805 13.0288H9.22208H6.13318C5.09388 13.0288 4.30581 13.0253 3.76084 13.0188C3.48826 13.0155 3.27715 13.0115 3.12609 13.0068C2.96885 13.002 2.8893 12.9965 2.8688 12.9929L2.84231 13.1404L2.86913 12.9929C2.49484 12.9249 2.2004 12.7011 2.03322 12.3605L2.03318 12.3604L1.94758 12.1863V7.79848V3.40955L2.02716 3.24154L2.02744 3.24094C2.14205 2.99624 2.33021 2.80206 2.57439 2.68151L2.77024 2.58509L3.49557 2.57511L4.10268 2.56675V2.63755C4.10268 2.72775 4.10696 2.80427 4.12314 2.87361C4.14016 2.94657 4.16876 3.00521 4.2086 3.06298C4.47347 3.46071 5.04179 3.46071 5.30666 3.06297C5.34644 3.00528 5.37501 2.94674 5.39205 2.87432C5.40827 2.80536 5.41257 2.72966 5.41257 2.64103V2.56816H8.25745H11.1023V2.64103C11.1023 2.72966 11.1066 2.80536 11.1228 2.87432C11.1399 2.94674 11.1685 3.00527 11.2082 3.06297C11.4731 3.46071 12.0414 3.46071 12.3063 3.06297C12.3461 3.0052 12.3747 2.94657 12.3918 2.87361C12.4079 2.80427 12.4122 2.72775 12.4122 2.63755V2.56675L13.0193 2.57511C13.0193 2.57511 13.0193 2.57511 13.0193 2.57511C13.3906 2.58039 13.572 2.58392 13.6858 2.59643C13.7855 2.60738 13.8234 2.62357 13.9115 2.66521L13.9119 2.66544C14.1565 2.77997 14.3506 2.96797 14.4712 3.21194C14.4712 3.21209 14.4713 3.21223 14.4714 3.21238L14.5676 3.41087L14.5847 5.41779L14.6021 7.45849L14.6026 7.5089L14.6334 7.54883L14.7271 7.67036C15.037 8.07455 15.6852 7.98881 15.8674 7.51061L15.868 7.50907L15.868 7.50906C15.9024 7.41564 15.9156 7.29819 15.922 7.00166C15.9286 6.69879 15.9277 6.18804 15.9225 5.29037C15.9225 5.29034 15.9225 5.29031 15.9225 5.29027M4.53974 0.514897L15.7725 5.29115L15.9225 5.29027M4.53974 0.514897C4.82681 0.41173 5.16324 0.525133 5.32032 0.782325C5.39015 0.892816 5.41257 1.02268 5.41257 1.17146V1.22344M4.53974 0.514897L5.41257 1.22344M15.9225 5.29027L15.912 3.27057L15.9119 3.24634L15.9042 3.22338L15.8101 2.94479L15.8099 2.9442C15.6665 2.52483 15.4723 2.21851 15.1448 1.90919C14.9395 1.71136 14.7772 1.59774 14.5502 1.48608L14.5484 1.4852L14.5484 1.48522C14.3268 1.37986 14.139 1.31267 13.8969 1.27327C13.6594 1.2346 13.3738 1.22344 12.9587 1.22344H12.4122V1.17146C12.4122 0.976193 12.356 0.801207 12.2369 0.67378C12.1166 0.545125 11.9479 0.481682 11.7573 0.481682C11.5666 0.481682 11.3979 0.545125 11.2777 0.67378C11.1586 0.801207 11.1023 0.976193 11.1023 1.17146V1.22344H8.25745H5.41257M15.9225 5.29027L5.41257 1.22344M14.7347 5.41651L14.7521 7.45721L14.7173 3.37582L14.7347 5.41651Z" fill="#151515" stroke="#151515" stroke-width="0.3"/>
<path d="M4.39894 9.23323C4.04722 9.40736 3.95319 9.84962 4.20741 10.1526C4.51386 10.5182 5.10239 10.3755 5.22776 9.90534C5.35312 9.4387 4.83424 9.01733 4.39894 9.23323Z" fill="#151515"/>
<path d="M7.97867 9.25413C7.59909 9.45611 7.56427 10.0098 7.91599 10.2605C8.07966 10.3755 8.43487 10.3755 8.59854 10.2605C8.95027 10.0098 8.91544 9.45611 8.53586 9.25413C8.45228 9.20886 8.32691 9.17403 8.25727 9.17403C8.18762 9.17403 8.06225 9.20886 7.97867 9.25413Z" fill="#151515"/>
</svg>
